<svg xmlns="http://www.w3.org/2000/svg" xmlns:xlink="http://www.w3.org/1999/xlink" viewBox="0 0 422.54 520.15" preserveAspectRatio="xMidYMid meet"><defs><style>.cls-1{opacity:0.49;fill:url(#linear-gradient);}.cls-2{font-size:14px;fill:#e4f9f9;font-family:Montserrat-Medium, Montserrat;}.cls-3{letter-spacing:0.06em;}.cls-4{letter-spacing:0em;}.cls-5{letter-spacing:0.06em;}.cls-6{letter-spacing:-0.01em;}.cls-7{letter-spacing:-0.02em;}.cls-8{letter-spacing:-0.01em;}.cls-9{letter-spacing:-0.05em;}.cls-10{letter-spacing:-0.02em;}.cls-11{letter-spacing:-0.02em;}.cls-12{letter-spacing:-0.01em;}.cls-13{letter-spacing:0.08em;}.cls-14{letter-spacing:-0.01em;}.cls-15{letter-spacing:-0.02em;}.cls-16{letter-spacing:-0.01em;}.cls-17{fill:#d0f7f6;}.cls-18{font-size:11px;fill:#0a3442;font-family:Montserrat-SemiBold, Montserrat;}.cls-18,.cls-24,.cls-25,.cls-26{font-weight:700;}.cls-19{letter-spacing:0em;}.cls-20{letter-spacing:0em;}.cls-21{fill:url(#linear-gradient-2);}.cls-22{fill:#58dada;}.cls-23{font-size:29.94px;fill:#bcf0f0;font-family:FuturaStd-Medium, Futura Std;}.cls-24,.cls-25,.cls-26{font-family:FuturaStd-Bold, Futura Std;}.cls-25{letter-spacing:-0.11em;}.cls-26{letter-spacing:0em;}</style><linearGradient id="linear-gradient" x1="211.27" x2="211.27" y2="385.8" gradientUnits="userSpaceOnUse"><stop offset="0" stop-color="#104455"/><stop offset="1" stop-color="#005e7c" stop-opacity="0"/></linearGradient><linearGradient id="linear-gradient-2" x1="116.29" y1="146.05" x2="303.06" y2="146.05" gradientUnits="userSpaceOnUse"><stop offset="0" stop-color="#bcf0f0"/><stop offset="0.5" stop-color="#58dada"/><stop offset="1" stop-color="#1ca2bb"/></linearGradient></defs><title>Center</title><g id="Layer_2" data-name="Layer 2"><g id="Page_1" data-name="Page 1"><rect class="cls-1" width="422.54" height="520.15"/><text class="cls-2" transform="translate(91.98 325.1)">Good<tspan class="cls-3" x="38.14" y="0"> </tspan><tspan x="42.8" y="0">thi</tspan><tspan class="cls-4" x="62.04" y="0">n</tspan><tspan x="71.62" y="0">gs</tspan><tspan class="cls-5" x="88.29" y="0"> </tspan><tspan x="92.96" y="0">a</tspan><tspan class="cls-6" x="101.33" y="0">r</tspan><tspan x="106.9" y="0">e</tspan><tspan class="cls-3" x="115.47" y="0"> </tspan><tspan class="cls-7" x="120.14" y="0">t</tspan><tspan x="125.68" y="0">o</tspan><tspan class="cls-5" x="134.57" y="0"> </tspan><tspan class="cls-8" x="139.24" y="0">c</tspan><tspan x="147.12" y="0">o</tspan><tspan class="cls-4" x="156.01" y="0">m</tspan><tspan x="170.85" y="0">e!</tspan><tspan class="cls-5" x="183.17" y="0"> </tspan><tspan class="cls-9" x="187.84" y="0">W</tspan><tspan x="202.83" y="0">e</tspan><tspan class="cls-5" x="211.4" y="0"> </tspan><tspan x="216.07" y="0">a</tspan><tspan class="cls-6" x="224.44" y="0">r</tspan><tspan x="230.01" y="0">e </tspan><tspan x="-0.04" y="16.8">in</tspan><tspan class="cls-10" x="13.4" y="16.8"> </tspan><tspan x="16.92" y="16.8">t</tspan><tspan class="cls-4" x="22.71" y="16.8">h</tspan><tspan x="32.29" y="16.8">e</tspan><tspan class="cls-11" x="40.86" y="16.8"> </tspan><tspan x="44.38" y="16.8">p</tspan><tspan class="cls-6" x="53.92" y="16.8">r</tspan><tspan x="59.5" y="16.8">o</tspan><tspan class="cls-12" x="68.39" y="16.8">c</tspan><tspan x="76.27" y="16.8">ess</tspan><tspan class="cls-10" x="98.86" y="16.8"> </tspan><tspan x="102.38" y="16.8">of</tspan><tspan class="cls-11" x="116.22" y="16.8"> </tspan><tspan x="119.74" y="16.8">buildi</tspan><tspan class="cls-4" x="160.03" y="16.8">n</tspan><tspan x="169.61" y="16.8">g</tspan><tspan class="cls-10" x="179.27" y="16.8"> </tspan><tspan x="182.79" y="16.8">our</tspan><tspan class="cls-10" x="206.89" y="16.8"> </tspan><tspan x="210.41" y="16.8">si</tspan><tspan class="cls-7" x="221.33" y="16.8">t</tspan><tspan x="226.88" y="16.8">e, </tspan><tspan x="-0.04" y="33.6">but </tspan><tspan class="cls-12" x="28.54" y="33.6">f</tspan><tspan x="33.37" y="33.6">eel </tspan><tspan class="cls-13" x="58.18" y="33.6">f</tspan><tspan class="cls-6" x="64.24" y="33.6">r</tspan><tspan x="69.81" y="33.6">ee </tspan><tspan class="cls-7" x="90.72" y="33.6">t</tspan><tspan x="96.26" y="33.6">o </tspan><tspan class="cls-14" x="108.92" y="33.6">r</tspan><tspan class="cls-15" x="114.49" y="33.6">e</tspan><tspan class="cls-4" x="122.85" y="33.6">a</tspan><tspan class="cls-16" x="131.26" y="33.6">c</tspan><tspan x="139.16" y="33.6">h out </tspan><tspan class="cls-7" x="180.38" y="33.6">t</tspan><tspan x="185.93" y="33.6">o us.</tspan></text><rect class="cls-17" x="92.83" y="433.51" width="236.87" height="32.67" rx="9.71" ry="9.71"/><rect class="cls-17" x="92.83" y="384.16" width="236.87" height="32.67" rx="9.71" ry="9.71"/><text class="cls-18" transform="translate(145.25 403.71)">	<a xlink:href="http://eepurl.com/djDK0j" target="_top">Get On The Mailing List</a></text><text class="cls-18" transform="translate(182.66 453.06)">Sponsor Us</text><g id="Logo">



	<path class="cls-21" d="M172,146.06V124.21a1.8,1.8,0,0,0-3.07-1.27l-52.13,52.17a1.8,1.8,0,0,0,0,2.53l10.83,11.05a1.8,1.8,0,0,0,2.56,0l41.31-41.38A1.76,1.76,0,0,0,172,146.06ZM300.69,130c-4.19-21.15-20-36.95-21.81-38.71L241.34,53.07a1.8,1.8,0,0,0-2.56,0L217.88,74l-1,1a1.77,1.77,0,0,0-.53,1.27V98.14a1.81,1.81,0,0,0,3.08,1.28l19.29-19.31a1.81,1.81,0,0,1,2.56,0L262,101.28l3.37,3.43.24.23s1.48,1.45,3.51,3.88c4.15,5,10.75,14.22,12.87,24.86,3.12,15.76,4.71,34.13-12.5,56.46a1.82,1.82,0,0,0-.37,1.09v23.15a1.79,1.79,0,0,0,3.06,1.26h0c15.75-15.47,25.24-31.11,29-47.81C304.5,153.33,302.8,140.55,300.69,130ZM183.14,213.13l-.6-.3-.29-.09a35.58,35.58,0,0,1-4.9-3.12c-1.44-1.05-3.21-2.4-5.33-4.16-3.2-2.66-7.2-6.23-12.08-11l-9.64-9.85a1.8,1.8,0,0,0-2.56,0l-10.92,10.92a1.8,1.8,0,0,0,0,2.53l9.6,9.8.15.15c16.8,16.42,25.43,21.11,28.61,22.41a89.79,89.79,0,0,0,32.2,8.9,81.27,81.27,0,0,0,15.46-.29l1.24-.16v-17.2A1.81,1.81,0,0,0,222,219.9C210.89,221.42,197.72,220.19,183.14,213.13Z"/><path class="cls-22" d="M206.78,85.08V198.3a1.81,1.81,0,0,1-1.8,1.8H183.35a1.8,1.8,0,0,1-1.8-1.8V111.08a1.8,1.8,0,0,1,.52-1.27l2-2,1.36-1.35,7.63-7.63,5.16-5.17L199.91,92l5.18-5.17Zm26.81,27.53V234.7l2.32,1.74c1.31-.38,2.58-.77,3.8-1.19.8-.26,1.57-.53,2.33-.82,1-.36,1.92-.72,2.83-1.1.72-.29,1.41-.59,2.1-.89,1.26-.56,2.47-1.13,3.65-1.71s2.49-1.28,3.67-1.93l1.31-.74c1.12-.65,2.19-1.3,3.2-1.94l.83-1.52v-112a1.81,1.81,0,0,0-1.8-1.81H235.39A1.81,1.81,0,0,0,233.59,112.61Zm-25,28.5a1.81,1.81,0,0,0-1.8,1.8v22.44a1.81,1.81,0,0,0,1.8,1.8h23.21a1.81,1.81,0,0,0,1.8-1.8V142.91a1.81,1.81,0,0,0-1.8-1.8Z"/><text class="cls-23" transform="translate(125.54 284.02) scale(1.05 1)">HACK<tspan class="cls-24" x="79" y="0">D</tspan><tspan class="cls-25" x="101.51" y="0">A</tspan><tspan class="cls-26" x="121.6" y="0">VIS</tspan></text></g></g></g></svg>
