<svg xmlns="http://www.w3.org/2000/svg" xmlns:xlink="http://www.w3.org/1999/xlink" viewBox="0 0 200.4 239.51"><defs><style>.cls-1{fill:url(#linear-gradient);}.cls-2{fill:#58dada;}.cls-3{font-size:29.94px;fill:#bcf0f0;font-family:futura;font-weight:-400;}.cls-4,.cls-5,.cls-6{font-family:futura;font-weight:700;}.cls-5{letter-spacing:-0.11em;}.cls-6{letter-spacing:0em;}</style><linearGradient id="linear-gradient" y1="93.52" x2="186.77" y2="93.52" gradientUnits="userSpaceOnUse"><stop offset="0" stop-color="#bcf0f0"/><stop offset="0.5" stop-color="#58dada"/><stop offset="1" stop-color="#1ca2bb"/></linearGradient></defs><title>Logo</title><g id="Layer_2" data-name="Layer 2"><g id="Page_1" data-name="Page 1"><g id="Logo"><path class="cls-1" d="M55.74,93.53V71.68a1.8,1.8,0,0,0-3.08-1.27L.53,122.57a1.81,1.81,0,0,0,0,2.54l10.83,11a1.8,1.8,0,0,0,2.56,0L55.21,94.8A1.8,1.8,0,0,0,55.74,93.53Zm128.67-16.1c-4.2-21.14-20-36.94-21.82-38.7L125.05.54a1.8,1.8,0,0,0-2.56,0l-20.9,20.91-1,1a1.8,1.8,0,0,0-.53,1.27V45.61a1.8,1.8,0,0,0,3.08,1.27l19.29-19.3a1.8,1.8,0,0,1,2.56,0l20.8,21.16,3.37,3.42.24.24s1.48,1.44,3.51,3.87c4.15,5,10.75,14.23,12.87,24.86,3.12,15.77,4.71,34.13-12.49,56.47a1.8,1.8,0,0,0-.38,1.09v23.14a1.79,1.79,0,0,0,3.06,1.27h0c15.74-15.47,25.23-31.11,29-47.82C188.21,100.8,186.51,88,184.41,77.43ZM66.85,160.59l-.6-.29-.29-.09a35.12,35.12,0,0,1-4.9-3.13c-1.44-1-3.21-2.4-5.32-4.15-3.21-2.66-7.21-6.23-12.08-11L34,132.1a1.8,1.8,0,0,0-2.56,0L20.53,143a1.82,1.82,0,0,0,0,2.54l9.6,9.8.15.15c16.8,16.41,25.43,21.1,28.61,22.41a89.79,89.79,0,0,0,32.2,8.9,80.42,80.42,0,0,0,15.46-.3l1.24-.15V169.14a1.81,1.81,0,0,0-2.07-1.78C94.6,168.89,81.43,167.66,66.85,160.59Z"/><path class="cls-2" d="M90.49,32.55V145.76a1.8,1.8,0,0,1-1.8,1.8H67.06a1.79,1.79,0,0,1-1.8-1.8V58.54a1.84,1.84,0,0,1,.52-1.27l2-2,1.36-1.36,7.63-7.63,5.16-5.17,1.69-1.68,5.17-5.18ZM117.3,60.07v122.1l2.32,1.73c1.31-.37,2.58-.77,3.8-1.18.8-.27,1.57-.54,2.33-.82,1-.36,1.92-.73,2.83-1.1l2.1-.89c1.26-.56,2.48-1.13,3.65-1.72s2.49-1.27,3.67-1.93l1.31-.74c1.12-.64,2.19-1.29,3.2-1.93l.83-1.52v-112a1.81,1.81,0,0,0-1.8-1.8H119.1A1.81,1.81,0,0,0,117.3,60.07Zm-25,28.5a1.81,1.81,0,0,0-1.8,1.81v22.43a1.8,1.8,0,0,0,1.8,1.8H115.5a1.8,1.8,0,0,0,1.8-1.8V90.38a1.81,1.81,0,0,0-1.8-1.81Z"/><text class="cls-3" transform="translate(9.25 231.48) scale(1.05 1)">HACK<tspan class="cls-4" x="79" y="0">D</tspan><tspan class="cls-5" x="101.51" y="0">A</tspan><tspan class="cls-6" x="121.6" y="0">VIS</tspan></text></g></g></g></svg>
