<svg id="Layer_10" data-name="Layer 10" xmlns="http://www.w3.org/2000/svg" xmlns:xlink="http://www.w3.org/1999/xlink" viewBox="0 0 1366.11 249.7"><defs><style>.cls-1{fill:none;}.cls-2{clip-path:url(#clip-path);}.cls-3{fill:#60ad57;}</style><clipPath id="clip-path"><rect class="cls-1" x="-12.34" y="-16.15" width="1392.37" height="271.87"/></clipPath></defs><title>angles</title><g class="cls-2"><polygon class="cls-3" points="1375.57 1126.44 -6.48 982.63 -6.48 81.28 1375.57 202.92 1375.57 1126.44"/><path class="cls-3" d="M227.13,88.28l-0.11.06-0.19.14,0,0a0.07,0.07,0,0,1-.06.07,0.08,0.08,0,0,0-.06,0l-0.17.14,0,0,0,0-0.12.12A18.52,18.52,0,0,0,222,94.59c1.11-4.46,2-9,4.33-13-0.6.15-3.31,3.61-4.82,6.15a32.1,32.1,0,0,0-3.2,7.22c-0.08-7-.33-13.93,1.29-20.92a47.53,47.53,0,0,0-5.82,19.76c-0.13-.49-0.24-1-0.39-1.47a14.21,14.21,0,0,0-3.15-5.85,5.63,5.63,0,0,0-3.34-1.72c2.71,3.15,5.24,6.34,4.72,11a8.37,8.37,0,0,0-3.79-2,8.12,8.12,0,0,0-3.42,0c1.72,0.62,2.76,1.59,2.45,3.45-0.65-.21-1.27-0.43-1.91-0.62a6,6,0,0,0-3.12.05l-0.08,1.5c0.17,0,.34,0,0.51,0A5.46,5.46,0,0,1,206,99.24a1.55,1.55,0,0,1,.23.3l-4.6.36-0.73,13.35,8.66,0.47,13.66,0.72,0.3-.42,0.62,0.47,0.57,0,54,2.94,13.51,0.72,0.3-.42,0.62,0.47,0.69,0.05,56.6,3.08L351,110.56l-3.35-.18a8.22,8.22,0,0,1,3.43-1.31l0.07-1.27a10,10,0,0,0-5.09.26,8.22,8.22,0,0,1,5.21-2.45l0-.46c-0.91-.07-1.83-0.22-2.74-0.21a17.81,17.81,0,0,0-5.58,1.26l-0.46.13a14.09,14.09,0,0,1,6.86-5.26,20.92,20.92,0,0,0-10.72,4.3c-0.12-.88,3.4-4.26,5.5-5.32-0.87-.2-3.22.48-4.85,1.38a12.94,12.94,0,0,0-3.83,3.37l-0.19-.08c0.31-1.13.55-2.28,0.95-3.38s1-2.35,1.54-3.52a2.51,2.51,0,0,0,.1-0.33l-0.71-.41h0l-0.12.13a26.8,26.8,0,0,0-5.25,7.09c-0.26-2,.92-7.05,4.13-11.06a32,32,0,0,0-5,4.41,19.3,19.3,0,0,0-3.9,5.49c-0.37-2.08.06-11,2.66-14.61l-0.35.06a32,32,0,0,0-5,7.59,19.41,19.41,0,0,0-1.65,5.61c-0.2-1-.33-2-0.63-2.9a7.8,7.8,0,0,0-4.86-5.42l-0.1.09a18.07,18.07,0,0,1,2.32,5.16,6.5,6.5,0,0,1-.17,4.13c-0.93-3.91-2.8-7-6.66-8.43,0.27,0.42.56,0.84,0.82,1.27a12.4,12.4,0,0,1,1.92,4.94,4.18,4.18,0,0,1-.48,2.5A18.43,18.43,0,0,0,312.81,98,12.82,12.82,0,0,0,309,93.9c0.27,0.86.6,1.71,0.79,2.58,0.38,1.72.74,3.44,1,5.18a4.2,4.2,0,0,1-.81,2.82,1,1,0,0,1-1.49.29,5.78,5.78,0,0,1-1.15-1,10.27,10.27,0,0,1-1.9-10.34,2.37,2.37,0,0,0,0-.35c-0.59.56-1.11,1-1.58,1.51a16.65,16.65,0,0,0-4,6.83,4,4,0,0,1-.73,1.31,14.61,14.61,0,0,1,2.54-7.9c-5.06,1.46-8.09,5-10.39,9.4,0.56-5.38,0-10.53-2.67-15.23-0.07,1.26-.15,2.52-0.2,3.79a35.79,35.79,0,0,1-1.22,8.92,6.36,6.36,0,0,1-1.27,2.44c-0.91-2.36-1.89-4.59-4.09-6.12,0.44,2.52,1.06,4.94.57,7.56l-3.39-5.46-0.17.05c0.2,2.23.19,4.41-1.39,6.41-1-2.41-.36-4.66.08-7a11.41,11.41,0,0,0-5.67,6.74l-0.18-.08c0.1-.66.17-1.32,0.3-2a15.73,15.73,0,0,1,.51-2,12.78,12.78,0,0,1,.83-1.89c0.32-.59.73-1.14,1.09-1.71l-0.11-.13a20.23,20.23,0,0,0-1.94,1.6c-0.8.84-1.5,1.77-2.25,2.66l-1,2.12-0.11,0L270,101.2l1.5-4.77-0.86-.5a19.94,19.94,0,0,0-3.72,5.35c-0.44.91-.8,1.85-1.22,2.83,0.39-3,.38-5.8-1.51-8.46,0,0.47-.06.79-0.06,1.1a16.78,16.78,0,0,1-.79,5.55,4.94,4.94,0,0,1-1.4,2.33,9.54,9.54,0,0,1-1.17.73,7.36,7.36,0,0,0-.3-5.53,8.83,8.83,0,0,1-1.52,3.72,4.63,4.63,0,0,1-3.37,1.9c-0.46-2.51-.82-4.93.41-7.4a2.16,2.16,0,0,0-.72.36,22.41,22.41,0,0,0-2.1,2.63c-0.84,1.34-1.53,2.78-2.28,4.17a18.68,18.68,0,0,1,.15-2.37A15.9,15.9,0,0,1,252.58,98c0.45-.82,1-1.6,1.45-2.4L254,95.58a13.78,13.78,0,0,0-6.82,7.65c-0.47-.76-0.22-4,0.51-6.92a29,29,0,0,1,2.53-6.52,9.34,9.34,0,0,0-3.39,2.83,24,24,0,0,0-2.5,3.63,41.47,41.47,0,0,0-1.72,4.12,7.6,7.6,0,0,0-1.84-4.8c0.35,2.54.88,5.07,0.39,7.64a6.45,6.45,0,0,1-.23.68c-0.76-3.81-2.48-6.82-5.75-8.84a4.66,4.66,0,0,0,.52.66,5.32,5.32,0,0,1,1.49,3.21,9.72,9.72,0,0,1,.08,2.78,2.78,2.78,0,0,1-2.28,2.23,1,1,0,0,1-.59-0.15c-2.63-1.5-4.19-4.22-2.7-7.66,0.46-1.06,1.1-2,1.63-3-1.08.1-3.42,2.39-5.86,5.86a11.73,11.73,0,0,1,3.87-8,2.86,2.86,0,0,0-.67.18,15.21,15.21,0,0,0-5.81,5.17,1.15,1.15,0,0,1-.23.16,6.15,6.15,0,0,1,.14-1,31.6,31.6,0,0,1,2.57-6.25,1.39,1.39,0,0,0,.09-0.33Z"/><path d="M245.52,73.19c-1.19.18-2.65,0-3.53,0.61-2.37,1.67-3.33.45-4.5-1.46A37.15,37.15,0,0,0,233.86,68c-1.24,1.49-2.48,3-3.73,4.46-0.21.24-.46,0.44-0.92,0.88L224,66.73c-1.66,3.56-2.3,7.24-4.48,9.1a33.68,33.68,0,0,1-12,6.57c-1.89.55-6.23,2-7.7-2.6-0.21-.64-3.51-0.5-5.35-0.36-3.16.24-4.2-1.94-4.14-4.18,0.1-3.37,1.23-6.69,1.5-10.07,0.28-3.63.06-7.3,0.06-12.09l6.06-2.89c-0.25-2.36-1.31-4.87-.5-5.91,3.49-4.48,7.41-8.78,14.07-6.44,1.38-6.73,2.2-7.28,10.39-6.88l-4.53,3.52c3,0.29,5.68.6,8.39,0.78a2.45,2.45,0,0,0,1.75-.66c4.23-4.62,9.62-6,15.67-6.44,3.43-.23,6.78-1.58,10.12-2.41l-1.7-8.4,6.67,2.11,3.12-5.64,3.4,5.82,5.13-4c2.62,3.05,4.74,6.1,7.43,8.52,4.2,3.77,9,6.91,13.1,10.75,1.31,1.21,2.37,4.31,1.71,5.63-1,1.91-4.2,4.6-5.38,4.15-7.06-2.74-13.38,1.47-20.07,1.49-1.24,0-2.79,1.5-3.66,2.7-4,5.49-7.82,11.11-11.66,16.71-1.26,1.83-2.38,3.76-4.1,6.49l-1.4-5-0.38,6.15Z"/><path d="M171.38,49c2.15,4.59.24,8.1-2.46,11.87-1.93,2.69-2.69,6.22-4.18,9.89L161,67.56c-3.58,2.27-3.58,2.27,4.24,11.23,4.58-2.3,8.38-1.58,15.51,3.28-3.05,5.45-6.32,10.88-9.11,16.54-0.83,1.68-.36,4-0.41,6.07s0,4.06,0,7.08c-6-4.13-5.19-9.17-5.83-13.84s-1.83-9.32-2.86-14a2.27,2.27,0,0,0-1.14-1.41c-8.3-3.46-12.3-10.48-13.7-18.6-1.37-7.93-1.21-16.13-1.75-24.49l4-.25c-0.29-.52-1.77-2-1.57-3.11s1.89-3.25,3-3.31a44.3,44.3,0,0,1,9.33.89c0.38,0.06.8,1.33,0.78,2a2.08,2.08,0,0,1-1.26,1.15c-3.73-2.21-2.55,1.78-3.79,2.67,3.36-1.51,7.76-.39,8.21,3,0.59,4.52,3.76,5.19,6.82,6.52Z"/><path d="M171.47,49.08c-1.11-2.46-1.9-5.14-3.42-7.32-1.22-1.74-3.32-2.87-4.17-4.57l-1.52-6.11c7.22-3.54,10.82-3.07,12,.36,5,0.72,9.5.71,13.49,2.14,3.52,1.25,1.38,5,.21,6.54-2.77,3.64-6.41,6.61-10,10.15l-2-4.69L171.38,49Z"/><path d="M223.27,90.94c0.47-.15,1.57-0.56,2.71-0.87,1.66-.44,4.31-1.66,4.84-1.05,2,2.28,7.28,1.9,6,6.95-1.76,6.79-1.07,13.12,4.61,19.08-2,.64-3.23,1.46-4.42,1.36a84.51,84.51,0,0,1-12.27-1.64c-5.32-1.25-3.66-5.59-3.3-9.11C221.91,100.78,222.62,95.92,223.27,90.94Zm6.86,1.83-1.41-.21v15h1.41V92.78Z"/><path d="M245.43,73.27c1.67,4.26-1.43,6.23-4,8.55a15,15,0,0,0-2.64,3.38c-0.82,1.36-1.4,2.87-2.08,4.31-1.26-.89-3.18-1.53-3.62-2.72-0.64-1.73-1-4.75-.07-5.63,2.58-2.36,5.94-3.86,9-5.72,1.18-.72,2.34-1.5,3.51-2.25Z"/><path d="M179.78,119.3c-6.59,1.93-10.35.87-13.13-3.52C171.55,110.92,177.61,113.07,179.78,119.3Z"/><path d="M147.21,108.16V94.47l1.44-.62c1.32,2.63,3.59,5.23,3.69,7.9,0.08,2.39-2.24,4.85-3.5,7.29Z"/><path d="M159.24,118.53c-3.25.21-6,.52-8.72,0.47-0.62,0-1.39-1.13-1.77-1.9a1.93,1.93,0,0,1,.65-1.62C151.62,113.62,156.85,114.86,159.24,118.53Z"/><path d="M207.59,32.35c-5.42,3.26-10.63,2.77-15.73.14L192,31.07Z"/><path d="M147.07,87.18V73.53l1.45-.09L149.13,87Z"/></g></svg>