<svg id="Layer_1" data-name="Layer 1" xmlns="http://www.w3.org/2000/svg" xmlns:xlink="http://www.w3.org/1999/xlink" viewBox="0 0 407.02 395.77"><defs><style>.cls-1{fill:none;}.cls-2{fill:url(#linear-gradient);}.cls-3{clip-path:url(#clip-path);}.cls-4{fill:url(#linear-gradient-2);}.cls-5{fill:#fff;}</style><linearGradient id="linear-gradient" x1="21.5" y1="253.23" x2="385.52" y2="142.54" gradientUnits="userSpaceOnUse"><stop offset="0" stop-color="#00aeef"/><stop offset="0.91" stop-color="#60ad57"/></linearGradient><clipPath id="clip-path"><circle class="cls-1" cx="203.1" cy="196.93" r="180.25"/></clipPath><linearGradient id="linear-gradient-2" x1="30.6" y1="249.38" x2="375.6" y2="144.47" xlink:href="#linear-gradient"/></defs><title>logo-set</title><path class="cls-2" d="M203.51,388.11c-104.89,0-190.22-85.33-190.22-190.22S98.62,7.66,203.51,7.66,393.73,93,393.73,197.88,308.4,388.11,203.51,388.11Zm0-376.9C100.58,11.21,16.83,95,16.83,197.88s83.74,186.68,186.68,186.68,186.68-83.74,186.68-186.68S306.44,11.21,203.51,11.21Z"/><g class="cls-3"><circle class="cls-4" cx="203.1" cy="196.93" r="180.25"/><path class="cls-5" d="M91.91,202.56a13.41,13.41,0,1,1,13.4-13.4A13.42,13.42,0,0,1,91.91,202.56Zm0-23.26a9.86,9.86,0,1,0,9.86,9.86A9.87,9.87,0,0,0,91.91,179.3Z"/><path class="cls-5" d="M71.34,110.53A27.09,27.09,0,1,1,98.43,83.43,27.12,27.12,0,0,1,71.34,110.53Zm0-50.64A23.55,23.55,0,1,0,94.88,83.43,23.57,23.57,0,0,0,71.34,59.89Z"/><rect class="cls-5" x="79.53" y="107.08" width="3.55" height="70.91" transform="translate(-23.84 16.55) rotate(-10.15)"/><polygon class="cls-5" points="102.36 188.03 102.12 184.56 216.23 176.03 216.48 179.5 102.36 188.03"/><rect class="cls-5" x="118.64" y="189.31" width="3.55" height="67.29" transform="translate(-118.48 138.48) rotate(-42.15)"/><rect class="cls-5" x="153.03" y="216.41" width="89.21" height="3.54" transform="translate(-96.38 232.98) rotate(-50.71)"/><path class="cls-5" d="M318.44,183.43a13.41,13.41,0,1,1,13.4-13.4A13.42,13.42,0,0,1,318.44,183.43Zm0-23.26A9.86,9.86,0,1,0,328.3,170,9.87,9.87,0,0,0,318.44,160.16Z"/><path class="cls-5" d="M280.69,122.33a20,20,0,1,1,20-20A20,20,0,0,1,280.69,122.33Zm0-36.41a16.43,16.43,0,1,0,16.43,16.43A16.45,16.45,0,0,0,280.69,85.92Z"/><path class="cls-5" d="M329.84,342.68a30.05,30.05,0,1,1,30-30.05A30.08,30.08,0,0,1,329.84,342.68Zm0-56.56a26.51,26.51,0,1,0,26.5,26.51A26.54,26.54,0,0,0,329.84,286.13Z"/><path class="cls-5" d="M172.09,120.29a12.53,12.53,0,1,1,12.53-12.53A12.54,12.54,0,0,1,172.09,120.29Zm0-21.51a9,9,0,1,0,9,9A9,9,0,0,0,172.09,98.78Z"/><path class="cls-5" d="M209.49,342.33a11,11,0,1,1,11-11A11,11,0,0,1,209.49,342.33Zm0-18.45a7.45,7.45,0,1,0,7.45,7.45A7.46,7.46,0,0,0,209.49,323.88Z"/><path class="cls-5" d="M90.64,420.79a54.59,54.59,0,1,1,54.59-54.59A54.65,54.65,0,0,1,90.64,420.79Zm0-105.64a51,51,0,1,0,51,51A51.11,51.11,0,0,0,90.64,315.15Z"/><rect class="cls-5" x="109.81" y="299.66" width="51.13" height="3.54" transform="translate(-193.84 273.01) rotate(-60.88)"/><rect class="cls-5" x="139.6" y="340.97" width="61.95" height="3.55" transform="translate(-82.55 55.52) rotate(-14.93)"/><rect class="cls-5" x="217.77" y="319.48" width="82.61" height="3.55" transform="translate(-43.14 40.2) rotate(-8.19)"/><rect class="cls-5" x="236.69" y="215.59" width="3.55" height="135.97" transform="translate(-96.81 441.29) rotate(-75.13)"/><rect class="cls-5" x="324.08" y="180.37" width="3.54" height="104.14" transform="translate(-16.85 25.64) rotate(-4.39)"/><polygon class="cls-5" points="250.7 174.84 250.79 171.29 307.03 170.88 306.93 174.41 250.7 174.84"/><polygon class="cls-5" points="313.56 161.09 290.8 118.11 293.93 116.44 316.69 159.43 313.56 161.09"/><rect class="cls-5" x="181.29" y="103.94" width="81.34" height="3.54" transform="translate(-7.93 18.57) rotate(-4.71)"/><polygon class="cls-5" points="215.46 162.79 178.86 114.64 181.22 112.83 217.82 160.99 215.46 162.79"/><rect class="cls-5" x="86.45" y="145.84" width="92.39" height="3.55" transform="translate(-65.29 133.2) rotate(-43.89)"/><path class="cls-5" d="M219.12,52.24a31.31,31.31,0,1,1,31.31-31.31A31.35,31.35,0,0,1,219.12,52.24Zm0-59.07a27.76,27.76,0,1,0,27.76,27.76A27.8,27.8,0,0,0,219.12-6.83Z"/><rect class="cls-5" x="159.39" y="69.56" width="59.85" height="3.55" transform="translate(37.65 205.23) rotate(-62.09)"/><polygon class="cls-5" points="267.77 89 236.39 43.51 239.31 41.49 270.69 86.99 267.77 89"/><polygon class="cls-5" points="307.15 293.72 237.76 189.16 240.53 187.26 309.92 291.82 307.15 293.72"/><rect class="cls-5" x="181.42" y="270.16" width="3.55" height="63.32" transform="translate(-154.12 197.56) rotate(-41.57)"/><rect class="cls-5" x="126.18" y="63.48" width="3.55" height="68.22" transform="translate(4.78 201.15) rotate(-77.39)"/><rect class="cls-5" x="92.07" y="53.54" width="104.33" height="3.55" transform="translate(-10.24 55.51) rotate(-21.05)"/><path class="cls-5" d="M366.2,142.86a14.46,14.46,0,1,1,14.46-14.46A14.48,14.48,0,0,1,366.2,142.86Zm0-25.38a10.92,10.92,0,1,0,10.92,10.92A10.93,10.93,0,0,0,366.2,117.48Z"/><path class="cls-5" d="M321.66,70.13A9.15,9.15,0,1,1,330.8,61,9.16,9.16,0,0,1,321.66,70.13Zm0-14.75a5.6,5.6,0,1,0,5.6,5.6A5.61,5.61,0,0,0,321.66,55.38Z"/><path class="cls-5" d="M24,196.14a17.42,17.42,0,1,1,17.42-17.42A17.44,17.44,0,0,1,24,196.14Zm0-31.29a13.87,13.87,0,1,0,13.87,13.87A13.89,13.89,0,0,0,24,164.85Z"/><path class="cls-5" d="M60.53,258.89a6.68,6.68,0,1,1,6.68-6.68A6.69,6.69,0,0,1,60.53,258.89Zm0-9.81a3.13,3.13,0,1,0,3.13,3.13A3.14,3.14,0,0,0,60.53,249.08Z"/><rect class="cls-5" x="57.67" y="165.73" width="3.54" height="40.13" transform="translate(-132.6 220.06) rotate(-82.38)"/><rect class="cls-5" x="44.82" y="189.69" width="3.55" height="60.17" transform="translate(-84.18 37.1) rotate(-23.63)"/><rect class="cls-5" x="98.99" y="222.98" width="3.54" height="71.84" transform="translate(-170.2 320.27) rotate(-81.5)"/><rect class="cls-5" x="68.94" y="256.69" width="3.55" height="58.94" transform="translate(-80.53 33.15) rotate(-16.99)"/><rect class="cls-5" x="321.57" y="148.31" width="40.38" height="3.55" transform="translate(-4.89 288.49) rotate(-45.47)"/><rect class="cls-5" x="323.91" y="88.8" width="3.55" height="59.2" transform="translate(117.38 395.35) rotate(-73.03)"/><rect class="cls-5" x="290.64" y="77.76" width="31.69" height="3.55" transform="translate(65.01 284.35) rotate(-54.85)"/><path class="cls-5" d="M384.67,235.2A10.29,10.29,0,1,1,395,224.9,10.3,10.3,0,0,1,384.67,235.2Zm0-17a6.75,6.75,0,1,0,6.75,6.75A6.76,6.76,0,0,0,384.67,218.16Z"/><rect class="cls-5" x="372.34" y="139.27" width="3.55" height="79.06" transform="translate(-23.11 59.88) rotate(-8.88)"/><rect class="cls-5" x="327.72" y="257.27" width="67.16" height="3.55" transform="translate(-37.79 454.93) rotate(-61.78)"/><rect class="cls-5" x="12.55" y="133.89" width="65.7" height="3.55" transform="translate(-96.24 115.6) rotate(-63.43)"/><rect class="cls-5" x="340.12" y="62.77" width="3.55" height="59.36" transform="translate(11.86 220.96) rotate(-36.41)"/><rect class="cls-5" x="278.75" y="10.03" width="3.55" height="72.23" transform="translate(135.69 290.78) rotate(-68.71)"/><path class="cls-5" d="M241.25,395.28a20.38,20.38,0,1,1,20.39-20.39A20.41,20.41,0,0,1,241.25,395.28Zm0-37.22a16.84,16.84,0,1,0,16.84,16.84A16.86,16.86,0,0,0,241.25,358.05Z"/><rect class="cls-5" x="180.32" y="328.69" width="3.55" height="79.52" transform="translate(-204.39 508.24) rotate(-83.59)"/><rect class="cls-5" x="250.95" y="345.63" width="62.4" height="3.54" transform="translate(-148.69 226.26) rotate(-35.21)"/><rect class="cls-5" x="221.23" y="335.52" width="3.55" height="25.63" transform="translate(-167.99 213.45) rotate(-38.34)"/><path class="cls-5" d="M154.53,281.77a19.4,19.4,0,1,1,19.4-19.4A19.42,19.42,0,0,1,154.53,281.77Zm0-35.26a15.86,15.86,0,1,0,15.86,15.86A15.88,15.88,0,0,0,154.53,246.51Z"/><g id="RuU5bd"><path class="cls-5" d="M240.44,216.1c-8.12-12.49-21.79-15.64-33.82-22.93-11.85-7.18-12.43-21.59-4.1-32a17.79,17.79,0,0,1,30.32,4.22c2.18-7,7.76-13,14.82-14.82s15.35,1.16,18.89,7.53c7,12.58-4.86,24.83-11.2,34.75L245.64,208C245.22,208.65,240.08,215.54,240.44,216.1Z"/></g><circle class="cls-1" cx="203.51" cy="197.88" r="179.87"/></g></svg>