<svg id="Layer_1" data-name="Layer 1" preserveAspectRatio="none" xmlns="http://www.w3.org/2000/svg" viewBox="0 0 537.09 508.84"><defs><style>.cls-1{fill:#b27e4e;}.cls-2{fill:#4d280f;}.cls-2,.cls-3,.cls-4,.cls-5,.cls-6,.cls-7,.cls-8,.cls-9{fill-rule:evenodd;}.cls-3{fill:#3d1e09;}.cls-4{fill:#694028;}.cls-5{fill:#593520;}.cls-6{fill:#80543b;}.cls-7{fill:#522f1b;}.cls-8{fill:#452919;}.cls-9{fill:#331b0b;}</style></defs><title>Artboard 1</title><rect class="cls-1" x="42.76" y="76.48" width="451.56" height="312.13"/><path class="cls-2" d="M-.37,389.1h87l8.95-139.37c11.94-53.26,88.09-65.68,149.26-114.12,34.5-27.32,98.69-27.36,105.69-.79,12.61,47.91,137.09,62.72,110.9,172.13l18,60.65,11.17,21.49h46.89V12.62H-.37Z"/><path class="cls-3" d="M-.37,389.1H34.25l.18-105c2.54-28.46,14.42-48.64,31.12-64.25l.31,1.56,2.21,2.72,1.87,9.65,1.34,1.88.68,8.15.67-.18.84-5.35.9-2.59.67-5.2,1.81-3.58,1.25-15.28,1.13,13.8,1.6,5.18,1.35,16.83,1,3.54.5,14,.48-.13.61-8.85.65-4.16.49-8.63,1.31-5.6,1.08-30.68.94,19.91,1.31,3.67.48,6.39.65,2.87.61,6.49.48-.13.5-10.94,1-3.17,1.35-13.53,1.6-4.72,1.26-12.38.19,1,1,1.37.5,5.92.49-.13.61-3.89.66-1.88.49-3.78,1.31-2.6.3-3.64,1.32-.69.11,1.38,1.16,3.77,1,12.23.7,2.57.36,10.17.35-.1.44-6.43.48-3,.35-6.28.95-4.07.48-13.47.88-.44.11,2.33,1,2.67.35,4.64.48,2.09.44,4.72.35-.1.36-8,.7-2.3.83-8.33c35.7-17.17,74-30.68,95-56.91C233.4,103.54,254,89,273.45,81.71l.69,3.9,1.43,2.28,1.21,7,.87,1.54.44,5.73h.43l.54-3.52.58-1.62.43-3.45,1.17-2.13.84-10.72,1,16.06,1.17,2.78.43,4.51.58,2.11.55,4.6h.43l.44-7.48.87-2,1.21-9.11,1.43-3,1.17-8.6,1,6.84L293.94,89l.6,2.66.81,1.24.75,2.72h.6l.61-4.41,1.2-1.19,1.15-3.69L300.3,90l2,3.13,1.66,9.6,1.19,2.12.61,7.88h.6l.75-4.85.81-2.22.6-4.75L310.09,98l1.16-14.75,1.33,22.08,1.61,3.82.6,6.2.8,2.9.75,6.33h.6l.61-10.29,1.19-2.77L320.4,99l2-4.09L324,83.05l1.33,9.4,2.22,2.26.82,3.66,1.11,1.71,1,3.74h.82l.84-6.07,1.65-1.63,2.3-7.39,2.72-2.41,2.25-7.06c50.73,13.31,28.93,59.63,85,95.52,20,12.83,22.56,43.31,61.34,88.6,18.65,21.78-5.57,63.55,11.33,125.73h38.71V12.62H-.37Z"/><path class="cls-4" d="M-.37,284.69V389.1H537.46v-72L322.8,303.89C305.64,276.45,178.32,265.52-.37,284.69Z"/><polygon class="cls-4" points="496.67 310.85 494.31 282.15 482.06 254.13 458.98 264.8 440.61 299.5 420.36 302.84 404.81 356.58 517.39 356.58 509.38 313.51 496.67 310.85"/><polygon class="cls-5" points="496.67 310.85 494.31 282.15 482.06 254.13 483.38 285.66 487.94 319.54 496.41 322.55 494.06 336.89 498.53 348.24 492.41 356.57 492.41 356.58 517.39 356.58 509.38 313.51 496.67 310.85"/><polygon class="cls-6" points="440.61 299.5 420.36 302.84 404.81 356.58 438.94 356.58 438.95 356.57 433.53 332.22 446.25 325.21 452.37 308.2 463.2 307.53 466.06 274 458.98 264.8 440.61 299.5"/><polygon class="cls-4" points="398.99 322.08 397.6 306.08 390.39 290.46 376.8 296.41 365.99 315.76 354.06 317.62 344.91 347.58 411.19 347.58 406.48 323.57 398.99 322.08"/><polygon class="cls-5" points="398.99 322.08 397.6 306.08 390.39 290.46 391.17 308.04 393.85 326.93 398.84 328.61 397.45 336.6 400.09 342.93 396.48 347.58 396.48 347.58 411.19 347.58 406.48 323.57 398.99 322.08"/><polygon class="cls-6" points="365.99 315.76 354.06 317.62 344.91 347.58 365 347.58 361.82 334 369.3 330.09 372.91 320.61 379.29 320.23 380.97 301.54 376.8 296.41 365.99 315.76"/><polygon class="cls-4" points="114.9 257.81 104.67 238.49 91.82 232.54 85 248.15 83.68 264.13 76.6 265.62 72.14 289.6 134.84 289.6 126.19 259.67 114.9 257.81"/><polygon class="cls-5" points="83.68 264.13 76.6 265.62 72.14 289.6 86.05 289.6 82.64 284.96 85.14 278.64 83.82 270.65 88.55 268.98 91.09 250.1 91.82 232.54 85 248.15 83.68 264.13"/><polygon class="cls-6" points="114.9 257.81 104.67 238.49 100.73 243.61 102.32 262.29 108.36 262.66 111.77 272.14 118.85 276.04 115.83 289.6 134.84 289.6 126.19 259.67 114.9 257.81"/><polygon class="cls-4" points="165.49 266.71 159.47 255.94 151.9 252.62 147.88 261.33 147.11 270.24 142.94 271.06 140.31 284.44 177.23 284.44 172.13 267.75 165.49 266.71"/><polygon class="cls-5" points="147.11 270.24 142.94 271.06 140.31 284.44 148.5 284.44 148.51 284.44 146.5 281.85 147.97 278.33 147.19 273.87 149.97 272.94 151.47 262.42 151.9 252.62 147.88 261.33 147.11 270.24"/><polygon class="cls-6" points="165.49 266.71 159.47 255.94 157.15 258.79 158.08 269.21 161.64 269.42 163.64 274.7 167.81 276.88 166.04 284.44 177.23 284.44 172.13 267.75 165.49 266.71"/><path class="cls-7" d="M489.42,323.18c-24,5.82,0,0-20.43,10.87s-71.43.43-80.43,5.57-81.63-14.13-97.84-21.84-113.45-7.28-109.25-1.28,52.82,13.7,20.41,24c-24,7.62-142.61-12.32-202.25-23.12l1,182.32,535-11.55,1.82-157C521.63,325.19,502.2,320.08,489.42,323.18Z"/><path class="cls-8" d="M489.42,323.13c-24,5.8,0,0-20.43,10.82s-71.43.43-80.43,5.54c-5.22,3-31.85-2.24-56.46-8.63,4.29,7.66,3.51,15.18-9.56,20.56-15.56,6.42-57.81.48-54.67,26,.43,3.52,4.33,7.78,9.47,11.71H537.46V331C521.63,325.13,502.2,320,489.42,323.13Z"/><path class="cls-9" d="M181.47,316.48V341.9l.08.1c9.1.15,16.15-.34,20.33-1.66C234.29,330.11,185.67,322.44,181.47,316.48Z"/></svg>