<?xml version="1.0" encoding="UTF-8" standalone="no"?>
<svg
   xmlns:dc="http://purl.org/dc/elements/1.1/"
   xmlns:cc="http://creativecommons.org/ns#"
   xmlns:rdf="http://www.w3.org/1999/02/22-rdf-syntax-ns#"
   xmlns:svg="http://www.w3.org/2000/svg"
   xmlns="http://www.w3.org/2000/svg"
   xmlns:sodipodi="http://sodipodi.sourceforge.net/DTD/sodipodi-0.dtd"
   xmlns:inkscape="http://www.inkscape.org/namespaces/inkscape"
   id="Layer_1"
   data-name="Layer 1"
   viewBox="0 0 447.45998 313.22"
   version="1.1"
   sodipodi:docname="cavelayer3.svg"
   width="447.45999"
   height="313.22"
   inkscape:version="0.92.2 (5c3e80d, 2017-08-06)"
   preserveAspectRatio="none">
  <metadata
     id="metadata13">
    <rdf:RDF>
      <cc:Work
         rdf:about="">
        <dc:format>image/svg+xml</dc:format>
        <dc:type
           rdf:resource="http://purl.org/dc/dcmitype/StillImage" />
        <dc:title>Artboard 1</dc:title>
      </cc:Work>
    </rdf:RDF>
  </metadata>
  <sodipodi:namedview
     pagecolor="#ffffff"
     bordercolor="#666666"
     borderopacity="1"
     objecttolerance="10"
     gridtolerance="10"
     guidetolerance="10"
     inkscape:pageopacity="0"
     inkscape:pageshadow="2"
     inkscape:window-width="3840"
     inkscape:window-height="2004"
     id="namedview11"
     showgrid="false"
     fit-margin-top="0"
     fit-margin-left="0"
     fit-margin-right="0"
     fit-margin-bottom="0"
     inkscape:zoom="0.75346402"
     inkscape:cx="223.73"
     inkscape:cy="156.61"
     inkscape:window-x="-16"
     inkscape:window-y="-16"
     inkscape:window-maximized="1"
     inkscape:current-layer="Layer_1" />
  <defs
     id="defs4">
    <style
       id="style2">.cls-1{fill:#b27e4e;fill-rule:evenodd;}</style>
  </defs>
  <title
     id="title6">Artboard 1</title>
  <path
     class="cls-1"
     d="m 109.85,203.4 -5.68,-30.29 1,-23.65 1.89,-39.76 10.42,-9.47 19.89,10.41 0.94,14.2 -1.89,18.94 7.57,19.88 -2.84,32.18 -5.73,14.16 c -3.57,1.12 -2.51,0.92 -5.68,0.92 h -7.57 z M 0,0 H 447.46 V 313.22 H 0 V 214.1 l 8.46,3.53 c 4.83,1.5 4.53,0.32 8.56,3.78 l 22.75,-2.84 c 6,-3.18 6,-3.89 9.48,-9.46 l 6.63,-7.58 2.84,-3.78 12.3,-15.15 5.68,-32.19 c 0,-3.4 0.67,-4.06 -1,-5.68 l -3.82,-8.52 -1,-3.78 V 122 L 67.13,112.54 51.12,91.71 31.24,89.82 23.67,99.31 10.41,95.56 H 6.63 L 0,97.45 Z m 404.57,87.89 h -6 V 91 l -1.92,9 v 1.89 l 1.85,3.79 1.88,-1 2.35,-6.15 1.42,-5.82 z m -201.91,116.48 -15.16,-12.3 -8.58,-18 -8.58,-18 v -18 l 6.71,-14.2 5.76,-7.58 v -2.84 l 12.29,-19.85 2.83,10.4 3.79,8.52 1.89,-9.47 4.74,-5.68 0.94,-8.52 7.58,-9.47 2.84,7.62 0.94,5.68 1,-9.47 5.68,-3.79 6.63,-6.62 c 4.37,-1.46 2.43,-0.55 5.68,-3.79 l 3.78,-4.73 2.84,-4.74 4.74,-10.41 14.21,-3.79 12.3,1 11.36,-1.89 21.79,0.94 10.34,5.61 5.65,8.52 v 13.26 l 2,-5.66 h 6.63 l 7.57,11.51 h 15.12 L 362.7,89 c 1.72,5.17 1.9,2 1.9,5.64 l 4.73,7.55 c 1.11,3.57 1,2.51 1,5.67 l -3.79,9.47 5.68,18 1,2.84 -1.83,18.83 v 3.79 l -2.92,9.46 -2.9,4.75 -2.86,12.3 c -1.55,3.37 -2.93,7.88 -5.69,10.42 l -14.21,7.57 c -4.66,1.45 -4.55,1 -9.47,1 l -24.63,-1.9 c -5.11,-0.16 -3.74,0 -7.57,3.79 l -11.36,9.47 -2.84,1 -20.84,-0.93 h -2.84 l -20.83,-3.84 h -3.79 l -13.25,1.92 h -2.82 l -7.58,-2.84 z"
     id="path8"
     inkscape:connector-curvature="0"
     style="fill:#b27e4e;fill-rule:evenodd" />
</svg>
