<svg id="Layer_1" data-name="Layer 1" preserveAspectRatio="none" xmlns="http://www.w3.org/2000/svg" xmlns:xlink="http://www.w3.org/1999/xlink" viewBox="0 0 1206.22 1328.67"><defs><style>.cls-1{fill:#d0ad84;}.cls-1,.cls-2,.cls-3,.cls-4{fill-rule:evenodd;}.cls-2{fill:#2c2219;}.cls-3{fill:#c99663;}.cls-4{fill:url(#linear-gradient);}</style><linearGradient id="linear-gradient" x1="602.31" x2="602.31" y2="396.6" gradientUnits="userSpaceOnUse"><stop offset="0.11" stop-color="#3a2010"/><stop offset="1" stop-color="#2c2219"/></linearGradient></defs><title>Artboard 1</title><path class="cls-1" d="M1.46,486.88H516.84L398.4,500.64,263.21,549l-58.65,43.3-7.65,7.62-43.35,63.79-20.42,137.8,15.3,63.81-28,43.37,17.86,58.69L168.87,998l28,45.94,28,56.15,23,56.15,33.16,28.06,63.77,20.41,68.86-12.75L490.21,1220l66.3,5.12L633,1245.53l56.12,15.57,53.56-2.3H803.9l96.9-10.45,45.91,27.93,76.51,28,50.33,26H1.46V1157.36L26,1125.6l9.71-38.28,12.24-43.4V998l-12.3-51,15.74-53.59v-48.5L38.47,814.23V747.89l-10.09-51L1.46,659.36Zm909.55,0h294.61v123.2l-29.78-23-43.15-33.19-7.55-2.53-38.2-5.12-25.49,20.44L1035.94,531l-38.25-2.53L977.3,548.83l-28-45.62Z"/><path class="cls-2" d="M1.46,487.66H408.64l-18.86,7.7-71.42,20.26L294.78,527l-31.24,14.6,3.83-24.86,13.4-14.68-18.49,8.28-10.21,22.31-25.51,14-1.9.63L201.7,583l-23.59,22.31-1.93,1.26-24.72,39.54-3.69-27.4V616.8L155.3,569,146,518l4,49.72-17.77,41.44,2.56,37,9.59,19.12-4.45,38.24-9.57,21-15.93,89.26,8.28-14.67L134.74,838,122.63,890.9,115,878.13l-14-44-7.65-31.23,5.34,46.53,15.55,62.46v28.7l15.05,28.67,27,34.42-1.17,26.77,7.7,14.67a46.83,46.83,0,0,1,.66,6.38l7,35.69,3.2-19.12-3.19-51.62,26.78,47.16L210,1114l31.87,45.89,7.65,18.49,30,8.91,12.11,13.4,38.25,6.35-63.1,17.23,79.7-7.65,33.13-12.74,38.92-3.82,75.85,31.86-67.56,16.56-228.26,30-92.44-53.54L49.32,1066.82,52.51,1033,51.88,998l-8.28-56.1,10.18-45.26L57,907.46l-1.9-61.82L48.69,824,40.4,771.7l1.9-41.44L29.56,633.36l1.22,59.93L1.46,656.13Zm930.69,0,11.36,8,10.21,4.3,1.93-7.73,10.81,29.92,14,16.54,14-11.48,15.39-2.53,16.66-7.65V503l27.32,37.61,13,13.37,14.81-11.47,18.53,1.93,32.57-1.29-3.18-8.91L1154.17,561,1205.62,602V487.66Z"/><path class="cls-1" d="M532.41,490.62s159.83-32,399.08,1.15l41.16-5.46S646.4,336.09,422.78,478.24L366.1,505.7Z"/><path class="cls-2" d="M408.64,487.66s355.38-56.8,523.51,0h273.46l-1.06-160.58L-3,294.4,1.46,487.66Z"/><polygon class="cls-3" points="1.46 988.85 21.04 995.46 74.68 1110.74 123.18 1155.05 146.15 1208.25 223.92 1247.54 315.71 1242.45 375.65 1226.07 434.29 1238.8 440.67 1238.8 517.16 1191.87 522.25 1190.71 566.88 1183.22 571.97 1183.22 611.48 1165.34 647.2 1169.07 703.28 1213.37 806.54 1228.54 810.37 1228.54 885.59 1215.71 889.42 1215.71 969.74 1186.67 995.24 1124.62 1037.32 1110.72 1069.18 1027.13 1081.92 1024.6 1102.33 1048.65 1131.64 1049.94 1136.76 1001.8 1163.53 961.26 1168.62 903 1188.9 899.2 1206.22 955.84 1206.22 1330.31 1.46 1330.31 1.46 988.85"/><polygon class="cls-2" points="1206.22 960.93 1206.22 1330.31 1.46 1330.31 1.46 996.09 22.12 999.26 41.91 1064.51 41.91 1077.8 41.91 1080.34 70.76 1116.42 60.01 1120.85 84.93 1128.45 120.01 1158.22 116.83 1172.8 136.59 1210.17 109.19 1209.54 99.64 1199.39 67.12 1197.51 99.64 1204.45 117.47 1217.14 152.53 1221.6 219.47 1250.78 199.08 1250.78 183.12 1257.68 179.96 1259.22 146.17 1269.59 115.57 1269.59 151.26 1275.66 206.73 1259.07 251.33 1259.63 318.91 1245.03 367.37 1241.84 399.86 1233.6 440.67 1241.83 421.55 1255.25 412.6 1261.04 382.67 1261.04 406.25 1270.44 433.02 1265.3 435.55 1253.25 469.97 1226.01 521.62 1208.26 533.73 1192.43 567.52 1188 580.25 1190.54 610.22 1169 643.68 1175.34 672.69 1211.42 672.69 1232.96 688.31 1250.71 684.65 1234.85 701.93 1220.94 727.48 1240.57 737.68 1262.74 772.11 1277.94 750.46 1262.11 738.99 1244.99 754.92 1234.22 800.19 1233.59 824.4 1236.14 888.15 1221.57 883.7 1233.59 861.38 1246.25 884.96 1237.39 903.45 1225.37 931.49 1221.57 970.37 1193.05 960.19 1233.59 955.07 1243.74 937.24 1248.16 911.73 1267.79 932.12 1257.65 964.65 1242.45 982.48 1215.22 992.68 1159.51 1016.26 1124.65 1038.58 1115.17 1032.86 1147.45 1012.44 1184.82 1027.11 1166.45 1047.49 1125.31 1067.91 1041.71 1079.39 1033.46 1099.78 1051.83 1118.27 1058.8 1129.11 1058.17 1122.72 1098.05 1113.18 1122.14 1100.41 1143.65 1090.23 1180.39 1076.83 1203.19 1069.18 1228.54 1039.21 1256.71 1023.91 1262.75 1021.38 1262.75 986.96 1286.69 984.4 1286.69 964.01 1294.34 928.93 1311.48 903.45 1317.18 901.52 1317.81 921.94 1315.93 953.17 1303.25 997.14 1284.25 1014.37 1277.93 1023.91 1271.59 1050.05 1250.71 1085.11 1224.74 1094.05 1192.42 1108.69 1168.37 1117 1175.34 1128.47 1156.97 1134.83 1130.37 1146.93 1116.42 1154.32 1136.71 1147.71 1165.82 1147.71 1213.34 1153.06 1185.45 1151.29 1160.77 1158.34 1137.34 1151.39 1109.45 1141.83 1099.34 1139.28 1060.71 1153.32 1037.26 1152.68 998.63 1167.98 960.63 1175.63 916.95 1187 904.92 1206.22 960.93"/><polygon class="cls-4" points="2.39 14.49 -0.91 392.6 1205.53 396.6 1205.53 0 2.39 14.49"/></svg>