<svg xmlns="http://www.w3.org/2000/svg" preserveAspectRatio="none" xmlns:xlink="http://www.w3.org/1999/xlink" viewBox="0 0 184.4 66.16"><defs><style>.cls-1{isolation:isolate;}.cls-2{fill:url(#Безымянный_градиент_32);}.cls-3{fill:url(#Безымянный_градиент_33);}.cls-4{fill:#64913b;}.cls-5{fill:url(#Безымянный_градиент_34);}.cls-6{fill:url(#Безымянный_градиент_35);}.cls-7{fill:#a7bf34;}.cls-8{fill:#90b23f;}.cls-9{fill:#8caa45;}.cls-10{fill:#94b63d;}.cls-11{fill:url(#Безымянный_градиент_36);}.cls-12{fill:#e2e173;}.cls-13{fill:url(#Безымянный_градиент_37);}.cls-14{fill:#bdd645;}.cls-15{fill:#718d2d;}.cls-16{fill:#7c983e;}.cls-17{fill:url(#Безымянный_градиент_38);}.cls-18{fill:url(#Безымянный_градиент_39);}.cls-19{fill:#c0c93b;}.cls-20{fill:#e1d972;}.cls-21{fill:url(#Безымянный_градиент_40);}.cls-22{fill:url(#Безымянный_градиент_41);}.cls-23{fill:url(#Безымянный_градиент_42);}.cls-24{fill:#5c6a8b;}.cls-25{fill:url(#Безымянный_градиент_43);}.cls-26{fill:url(#Безымянный_градиент_44);}.cls-27{fill:url(#Безымянный_градиент_53);}.cls-28{fill:url(#Безымянный_градиент_53-2);}.cls-29{fill:url(#Безымянный_градиент_47);}.cls-30{fill:url(#Безымянный_градиент_48);}.cls-31{fill:#d3a6ad;}.cls-32{fill:#7b7d9f;}.cls-33{fill:url(#Безымянный_градиент_56);}.cls-34{fill:url(#Безымянный_градиент_53-3);}.cls-35{fill:url(#Безымянный_градиент_53-4);}.cls-36{fill:url(#Безымянный_градиент_53-5);}.cls-37{fill:url(#Безымянный_градиент_53-6);}.cls-38{fill:url(#Безымянный_градиент_56-2);}.cls-39{fill:url(#Безымянный_градиент_56-3);}.cls-40{fill:url(#Безымянный_градиент_56-4);}.cls-41,.cls-61{fill:#bcaaa4;}.cls-41,.cls-53,.cls-57,.cls-59,.cls-61{mix-blend-mode:multiply;}.cls-42{fill:#c9c1b1;}.cls-43{fill:#f4ead7;}.cls-44{fill:#dbd2c1;}.cls-45{fill:#a1887f;}.cls-46{fill:#8d6e63;}.cls-47{fill:#7c4738;}.cls-48{fill:#ffab91;}.cls-49{fill:#ff8a65;}.cls-50{fill:#602f28;}.cls-51{fill:#3e2723;}.cls-52{fill:#fff;}.cls-54,.cls-57{fill:#eee;}.cls-55{fill:#6d4c41;}.cls-56{fill:#703e33;}.cls-58{fill:#ebe1cf;}.cls-59{fill:#e0e0e0;}.cls-60{fill:#f4987f;}.cls-61{opacity:0.65;}.cls-62{fill:#2b2928;}.cls-63{fill:#616161;}.cls-64{fill:#424242;}.cls-65{fill:#1e1d1c;}.cls-66{fill:#3d3a39;}.cls-67{fill:#444140;}.cls-68{fill:#686665;}.cls-69{fill:#2d2a29;}.cls-70{fill:#f9a825;}.cls-71{fill:#fdd835;}</style><linearGradient id="Безымянный_градиент_32" x1="9.74" y1="-740.41" x2="20.43" y2="-737.24" gradientTransform="matrix(1, 0, 0, -1, -0.7, -714.53)" gradientUnits="userSpaceOnUse"><stop offset="0" stop-color="#2f4b70"/><stop offset="1" stop-color="#694b59"/></linearGradient><linearGradient id="Безымянный_градиент_33" x1="61.58" y1="-176.4" x2="142.47" y2="-171.49" gradientTransform="matrix(1, 0, 0, -0.74, 0.09, -79.67)" gradientUnits="userSpaceOnUse"><stop offset="0" stop-color="#93b248"/><stop offset="1" stop-color="#c5cb3a"/></linearGradient><linearGradient id="Безымянный_градиент_34" x1="84.35" y1="-870.55" x2="120.76" y2="-880.66" gradientTransform="matrix(1, 0, 0, -0.82, 0, -676.52)" gradientUnits="userSpaceOnUse"><stop offset="0" stop-color="#b1ca3b"/><stop offset="1" stop-color="#cee273"/></linearGradient><linearGradient id="Безымянный_градиент_35" x1="58.53" y1="-869.77" x2="86.84" y2="-878.72" gradientTransform="matrix(1, 0, 0, -0.82, 0, -676.52)" gradientUnits="userSpaceOnUse"><stop offset="0" stop-color="#a7bf34"/><stop offset="1" stop-color="#b9d242"/></linearGradient><linearGradient id="Безымянный_градиент_36" x1="91.63" y1="-867.68" x2="134.87" y2="-871.98" gradientTransform="matrix(1, 0, 0, -0.82, 0, -676.52)" gradientUnits="userSpaceOnUse"><stop offset="0" stop-color="#b1ca3b"/><stop offset="1" stop-color="#e2d973"/></linearGradient><linearGradient id="Безымянный_градиент_37" x1="107.57" y1="-71.95" x2="54.1" y2="-71.46" gradientTransform="matrix(1.02, 0, 0, -0.98, 3.87, -30.2)" gradientUnits="userSpaceOnUse"><stop offset="0" stop-color="#86a63b"/><stop offset="1" stop-color="#718d2d"/></linearGradient><linearGradient id="Безымянный_градиент_38" x1="171.24" y1="-737.44" x2="139.35" y2="-747.24" gradientTransform="matrix(1.17, 0, 0, -0.95, -33.35, -685.93)" gradientUnits="userSpaceOnUse"><stop offset="0" stop-color="#494a86"/><stop offset="1" stop-color="#244a53"/></linearGradient><linearGradient id="Безымянный_градиент_39" x1="119.23" y1="-668.14" x2="100.24" y2="-670.57" gradientTransform="matrix(1.72, 0, 0, -1.37, -75.39, -896.27)" gradientUnits="userSpaceOnUse"><stop offset="0" stop-color="#2e5e69"/><stop offset="1" stop-color="#5182a9"/></linearGradient><linearGradient id="Безымянный_градиент_40" x1="149.78" y1="-128.48" x2="80.16" y2="-162.98" gradientTransform="matrix(1, 0, 0, -0.79, 0.1, -73.54)" gradientUnits="userSpaceOnUse"><stop offset="0" stop-color="#c79bb0"/><stop offset="0.23" stop-color="#ab95bf"/><stop offset="0.74" stop-color="#9a8db6"/><stop offset="1" stop-color="#66759a"/></linearGradient><linearGradient id="Безымянный_градиент_41" x1="-0.1" y1="-223.19" x2="182.7" y2="-222.9" gradientTransform="matrix(1, 0, 0, -0.77, 0.1, -117.66)" gradientUnits="userSpaceOnUse"><stop offset="0" stop-color="#586685"/><stop offset="0.54" stop-color="#66759a"/><stop offset="1" stop-color="#c79bb0"/></linearGradient><linearGradient id="Безымянный_градиент_42" x1="98.7" y1="-796.82" x2="6.78" y2="-802.19" gradientTransform="matrix(1.15, 0, 0, -0.88, 34.29, -659.52)" gradientUnits="userSpaceOnUse"><stop offset="0" stop-color="#a291ba"/><stop offset="1" stop-color="#5a6989"/></linearGradient><linearGradient id="Безымянный_градиент_43" x1="64.22" y1="-97.51" x2="20.89" y2="-156.07" gradientTransform="matrix(1, 0, 0, -0.79, 0.1, -73.54)" gradientUnits="userSpaceOnUse"><stop offset="0" stop-color="#c79bb0"/><stop offset="0.23" stop-color="#ab95bf"/><stop offset="0.46" stop-color="#9a8db6"/><stop offset="1" stop-color="#66759a"/></linearGradient><linearGradient id="Безымянный_градиент_44" x1="123.4" y1="-849.16" x2="165.58" y2="-849.83" gradientTransform="matrix(1, 0, 0, -0.77, 0.1, -602.42)" gradientUnits="userSpaceOnUse"><stop offset="0" stop-color="#7b7d9f"/><stop offset="1" stop-color="#988cb3"/></linearGradient><linearGradient id="Безымянный_градиент_53" x1="164.06" y1="-173.95" x2="38.9" y2="-190.77" gradientTransform="matrix(1, 0, 0, -0.7, 0.1, -84.58)" gradientUnits="userSpaceOnUse"><stop offset="0" stop-color="#f5eaff"/><stop offset="1" stop-color="#abb1c4"/></linearGradient><linearGradient id="Безымянный_градиент_53-2" x1="166.62" y1="-351.33" x2="41.46" y2="-368.16" gradientTransform="matrix(1, 0, 0, -0.48, 0.1, -116.03)" xlink:href="#Безымянный_градиент_53"/><linearGradient id="Безымянный_градиент_47" x1="140.36" y1="-109.48" x2="70.74" y2="-143.98" gradientTransform="matrix(1, 0, 0, -0.79, 0.1, -73.54)" gradientUnits="userSpaceOnUse"><stop offset="0" stop-color="#c79bb0"/><stop offset="0.23" stop-color="#ab95bf"/><stop offset="0.74" stop-color="#9a8db6"/><stop offset="1" stop-color="#53607e"/></linearGradient><linearGradient id="Безымянный_градиент_48" x1="182.98" y1="-846.37" x2="127.8" y2="-844.35" gradientTransform="matrix(1, 0, 0, -0.77, 0.1, -602.42)" gradientUnits="userSpaceOnUse"><stop offset="0" stop-color="#d9b1b7"/><stop offset="1" stop-color="#b898b8"/></linearGradient><linearGradient id="Безымянный_градиент_56" x1="31.94" y1="-4628.42" x2="19.74" y2="-4651.27" gradientTransform="matrix(1, 0, 0, -0.05, 0.48, -201.1)" gradientUnits="userSpaceOnUse"><stop offset="0" stop-color="#c5c5d9"/><stop offset="1" stop-color="#aaa296"/></linearGradient><linearGradient id="Безымянный_градиент_53-3" x1="165.24" y1="-437.44" x2="40.09" y2="-454.27" gradientTransform="matrix(1, 0, 0, -0.41, 0.1, -133.92)" xlink:href="#Безымянный_градиент_53"/><linearGradient id="Безымянный_градиент_53-4" x1="165.81" y1="-441.67" x2="40.66" y2="-458.49" gradientTransform="matrix(1, 0, 0, -0.41, 0.1, -133.92)" xlink:href="#Безымянный_градиент_53"/><linearGradient id="Безымянный_градиент_53-5" x1="164.76" y1="-433.87" x2="39.61" y2="-450.69" gradientTransform="matrix(1, 0, 0, -0.41, 0.1, -133.92)" xlink:href="#Безымянный_градиент_53"/><linearGradient id="Безымянный_градиент_53-6" x1="166.43" y1="-446.24" x2="41.27" y2="-463.07" gradientTransform="matrix(1, 0, 0, -0.41, 0.1, -133.92)" xlink:href="#Безымянный_градиент_53"/><linearGradient id="Безымянный_градиент_56-2" x1="52.8" y1="-437.72" x2="40.6" y2="-460.57" gradientTransform="matrix(1, 0, 0, -0.41, 0.1, -133.92)" xlink:href="#Безымянный_градиент_56"/><linearGradient id="Безымянный_градиент_56-3" x1="28.29" y1="-424.63" x2="16.09" y2="-447.48" gradientTransform="matrix(1, 0, 0, -0.41, 0.1, -133.92)" xlink:href="#Безымянный_градиент_56"/><linearGradient id="Безымянный_градиент_56-4" x1="60.8" y1="-413.57" x2="48.6" y2="-436.41" gradientTransform="matrix(1, 0, 0, -0.42, 0.1, -124.5)" xlink:href="#Безымянный_градиент_56"/></defs><title>Artboard 1</title><g class="cls-1"><g id="Layer_1" data-name="Layer 1"><path id="path5738" class="cls-2" d="M8,13.14c.06,0,.15.13.28.44.74.08.64,2.19.7,2.87s.12,1.56.23,2.33a7.89,7.89,0,0,0,1.87.6c.43.59-.13.78-.67.73.44.62-.15.8-.77.57a2.46,2.46,0,0,0,1,.67c0,.55-.45.46-.83.43a4.65,4.65,0,0,0,1.44,1.57c.14.79-.65.55-1.07.27a2.48,2.48,0,0,1,.4,1.6l.07,0a.56.56,0,0,1,.68-.22c0-.27.09-.55.15-.82,0-.05-1-.27.15-.63.23-.1.4-.31.7-.33a1,1,0,0,1,.45-.67c-1.34,0,.08-1,.82-.61a1.72,1.72,0,0,0-.05-.61c-1.25,0-.81-.63.1-.87,0-.44,0-.65.46-.92a5.62,5.62,0,0,0-.05-.77c0-.48-.09-.68.41-.61a2.2,2.2,0,0,1-.05-1.69c.12-.26.22-.37.31-.37.39,0,.54,2,.57,2.52a.77.77,0,0,1-.05.82,2.08,2.08,0,0,1,.31,1.74,3.38,3.38,0,0,0,.77.41,6,6,0,0,0,.62.15c.14.69,0,1-.72.92.62.56,1.18.16,1.34.92-.17.74-.41.78-1,.67-.32,0-.38-.24-.57-.36.11.68.23,1.11-.19,1.13a2.58,2.58,0,0,1-.38-.05,1.24,1.24,0,0,0,.38.05c.83.06,1.3-.24,1,1.18a1.87,1.87,0,0,1-.87-.15c.64.29.49.74.46,1-.07,0-.08,0,0,0h0a2.4,2.4,0,0,1,.84.73c.06-.45.21-.8.75-.61,0-.11-.31-.58.58-.62-.38-.08-.71,0-.86-.38.19-.49.73-1,1.25-1a1.67,1.67,0,0,1,.1-.67c-.8.53-1.11-.19-.43-.72-.19-.23-.51.13-.38-.48.28-.15.33-.44.91,0a3.24,3.24,0,0,0,0-.77c-.53.05-.94.07-.67-.57a2,2,0,0,1,.91-.34c0-.12.26-.43.14-.67-.09-.07-.4,0-.38-.29.05-.53.11-.57.67-.53,0-.85-.24-1.79.34-2.4a3.71,3.71,0,0,1,.38,2.44c.06.31.21.62-.1,1a1.4,1.4,0,0,0,.24.81c.11.09.37,0,.34.29s.08.32-.1.43c.19.12.48-.1.53.34a1,1,0,0,1-.67.67c0,.17-.17.33,0,.53.13,0,.27-.05.38,0s.39.42-.1.86c.44.24.7.33.58,1.1.73.22.83.46.29,1,1,0,1.11.85.19,1.1a1.2,1.2,0,0,1-1,0c-.21,0-.4-.14-.53-.19a4.34,4.34,0,0,1,0,1.34l1,.43c.88-.15.93.1.72.62.69.18,1,1,.14,1.2a1.82,1.82,0,0,1-.58-.57,4.75,4.75,0,0,1,0,1.34c-.68,1.15-3.66.39-4.89.14l-.11-.31a9.69,9.69,0,0,1-6.33,1.65,6.5,6.5,0,0,1,0-.71c-1.74,0-3.69.28-5.27.15-.27.67-1.78-.72-2.54-.63-.58.06-1.63.3-2.51.49V23.79h0v-2.1a.54.54,0,0,1,.37-.1.93.93,0,0,1,0-.67c.43-.19.44,0,.43.67.44.44-.31,1.09.13,1.17.44.38.16,1.31.17,1.93.13.12.34.2.37.43a1.94,1.94,0,0,1,.93-.57c-1.23-.55-.08-1.49.83-1.23a1.59,1.59,0,0,1,0-.47,2.46,2.46,0,0,0-.17-.43c-.06-.57.12-1.06.8-1.17-.19-.34-.62-1.11.13-.9-.2-2,.55-2.18.5-.1a7.14,7.14,0,0,1,.23.87c.68-.07.46.53,0,.87.41.27.48.44.33.93a5,5,0,0,1,1.1.17.77.77,0,0,0,.3-.73c-.45-.25-.53-.39-.2-.83-1.17,0,.36-1.78,1.17-1.27,0,0-.12-.26,0-.3s.51-.13.7-.2a6.89,6.89,0,0,1,0-1.6c-.56-.05-.19-.39-.7-.43a.93.93,0,0,1-.9-.23c.17-.46.67-.34,1.2-.47a7.09,7.09,0,0,1,0-.73c-.16-.21-.35-.38.27-.3,0-.66-.1-1.31-.13-2-.15-.35-.18-.9,0-.88ZM17.43,28.2c.07.16.13.31.19.46a2.43,2.43,0,0,1,.6-.31C17.87,28.35,17.61,28.38,17.43,28.2Z"/><g id="g4815"><path id="path4692" class="cls-3" d="M.22,65.9h184.6v-35a51.87,51.87,0,0,0-10.87-1.11c-1.7.08-2.47.71-4.42,1-15.84-.25-29.66-.49-46.87-1.41a128.93,128.93,0,0,0-18.25,1.93,104.75,104.75,0,0,0-17.23-.4l-15.32-.08-3.28-1.27-13.75,1.8A28.76,28.76,0,0,0,45.7,32c-3.21-.66-4.46,0-6.56,0l-19,.19L.21,34Z"/><g id="g4755"><path id="path5203" class="cls-4" d="M19.45,32.65c-1.41,0-2.82,0-4.22.06-5,.82-10.05-2.5-15-1.92v8.07c5.4-.76,10.91-.95,16.18-2.61-.06,0-2.8-.41-3.76-.71a59.17,59.17,0,0,0,10.69-1.65c2.64-.2,5.62-.22,8.38-.47A76.2,76.2,0,0,0,19.45,32.65Z"/><path id="path5284" class="cls-5" d="M55.1,31.53c3.17-.64,8.33,0,11.56-.47h4.62c4.49.4,11.06,1.18,14.73,1.18,8.36.66,33.67,5.16,41.31,8.49-4.19-.38-22.61-3.57-32.93-5.66a31.21,31.21,0,0,1-9.53-.71C76.77,32.06,61.54,32.06,55.1,31.53Z"/><path id="path5288" class="cls-6" d="M46,32a19.77,19.77,0,0,1,7.66-.48c2.62-.24,4.93.6,7.22.94,1.8,1,20.83,5.75,22.53,6.37-2.63.2-22.76-4.56-25.13-5C53.7,32.29,50.64,32.7,46,32Z"/><path id="path5290" class="cls-7" d="M43,32c3.23-.17,6.06,1.91,8.09,2.83C53.91,36,58.23,38,59.15,38.37c-3.2-.93-6-2.11-9-2.83C46.64,34.73,44.63,33.81,43,32Z"/><path id="path5292" class="cls-7" d="M36,32.47c.73-.42,1.54-.16,2.31-.24,1.61.08,1.93,1.26,2.89,1.89,2,1.56,2.92,3.31,4,5a33.1,33.1,0,0,0-3.76-2.83A14.83,14.83,0,0,1,36,32.47Z"/><path id="path5308" class="cls-8" d="M70.41,34.36A63.79,63.79,0,0,1,82,36.25c7.84,1.82,15.15,2.93,22,5C101.55,41.11,99.43,41,97,41c-2.14.37-3.93-.17-5.78-.47a170.31,170.31,0,0,0-20.8-6.13Z"/><path id="path5310" class="cls-9" d="M51.93,34.36a21.27,21.27,0,0,1,7.21,1.89c4.39,1.82,9,2.93,12.43,5-1.76-.09-3.27-.24-5.16-.24a7.25,7.25,0,0,1-4-.47C59.5,37.81,55.34,35.89,51.93,34.36Z"/><path id="path5312" class="cls-9" d="M40.95,34.36a9.52,9.52,0,0,1,4.45,1.89c2.71,1.82,5.58,2.93,7.68,5-1.09-.09-2-.24-3.19-.24a3,3,0,0,1-2.5-.47A24.71,24.71,0,0,0,40.95,34.36Z"/><path id="path5314" class="cls-10" d="M86.88,32.24a155,155,0,0,1,20.82,2.47c14.12,2.38,27.29,3.84,39.56,6.49-4.29-.12-8.1-.31-12.49-.31-3.85.48-7.09-.22-10.41-.62-12.45-3.52-26.26-6-37.48-8Z"/><path id="path5316" class="cls-11" d="M74.17,31.53c4.1-.64,10.77,0,14.95-.47h6c5.81.4,14.31,1.18,19.06,1.18,5.84-.4,17.92,4.36,25.82,3.1,10.21-1.64,26.72,4.26,30.11,4.45-5.41-.38-31.73-2.63-45.09-4.72a51.93,51.93,0,0,1-12.33-.71c-10.47-2.3-30.17-2.3-38.49-2.83Z"/><path id="path5318" class="cls-12" d="M143.79,33.65c.72-.4,7.9-.16,8.67-.24a57.64,57.64,0,0,1,5.78-.94,106.35,106.35,0,0,1,12.13.71c3.57.1,10.62,3,13.58,3.77-2.36-.14-6.6-1.48-9-1.65-1.17,1.49-4.84.17-11.56-.47C150.07,33.51,147.57,34.1,143.79,33.65Z"/><path id="path5378" class="cls-9" d="M33.73,34.12A22.56,22.56,0,0,0,34.59,41c-1.41.83-2.65-.18-3.47-.24-.51-2.78,1.64-4,2.6-6.6Z"/><path id="path5582" class="cls-13" d="M112.81,38.62a1.43,1.43,0,0,0-.17.32Zm-.17.32a4.69,4.69,0,0,0-.69,2.19,2.23,2.23,0,0,0-.59-1.57v1.32a13.64,13.64,0,0,1-2.43.38,13.38,13.38,0,0,0-1.46-.31,7.82,7.82,0,0,0-1.4.25,1.82,1.82,0,0,0-1.13-.75c-.33.19-.7.42-1.07.61-.53-.39-1.29,0-1.82.16-.2,0-.27-.25-.4-.37a4.87,4.87,0,0,0-1.59.6c-.07-.13.06-.36-.2-.37a16.32,16.32,0,0,1-2.26.37,1.55,1.55,0,0,0-.2-.69,1,1,0,0,0-.79.6c-.15-.27-.19-.47-.48-.46a6.22,6.22,0,0,1-.63.37,1.24,1.24,0,0,0-.71-.46,2.81,2.81,0,0,0-.75.09c.26.41.87.57,1.11.69a1.82,1.82,0,0,0,.83.09,2.93,2.93,0,0,0,.71,0,1.38,1.38,0,0,0,1.31,0,14.53,14.53,0,0,0,2,0c1.22.72,2.13.06,3.18-.26a1.64,1.64,0,0,0-.22.16c.66.08,2,.42,3,.5a10.8,10.8,0,0,1,1.89-.5c.53.17,1.2.22,1.78.38a2.87,2.87,0,0,0,1.73-.13,1,1,0,0,1,1.24-.13c.18,0,.29.15.49.13a21.93,21.93,0,0,0,3.4,0,6.81,6.81,0,0,0-3.24-.5A2.16,2.16,0,0,1,113,40c-.13.14-.19.62-.54.56a4.41,4.41,0,0,1,.2-1.63Zm-31.43.69a9.53,9.53,0,0,0-.13,1.24c-.58.07-1,0-1.43.62a14.62,14.62,0,0,1,1.83-.06c1.11,0,1.91.3,3,.22a6.73,6.73,0,0,0,2.15-.22c.16.07.34.07.49.22a20.49,20.49,0,0,0,2.19-.06,1.92,1.92,0,0,0,1.39-.34,2.83,2.83,0,0,1,.63.39c.68,0,1.34,0,2-.06a10.48,10.48,0,0,1-1.92-.9,1.74,1.74,0,0,1-.76.17,4.93,4.93,0,0,0-.27-.84c-.83.31-1.44,1.27-2.28,1.46-.36-.65-.77-1.46-1.43-1.46a1.76,1.76,0,0,1-.54.56c-.43-.24-.7-.54-1.16-.39-.15.17-.25.44-.45.51-.21-.35-.42-.77-.85-.9a2.42,2.42,0,0,0-.49,1A2.1,2.1,0,0,0,82,39.74a1.41,1.41,0,0,1,.18,1,4.2,4.2,0,0,1-.94-1.12ZM65,39.76v1.29a3,3,0,0,1-1.25.14c-.22,0-.41,0-.62,0a3.66,3.66,0,0,1-.86.46,2.81,2.81,0,0,1-1-.28,4.47,4.47,0,0,1-.82-.55,4.06,4.06,0,0,0-1.39.51,7.53,7.53,0,0,1-1.63,0c-.8.19-1.66.1-2.45.23a14,14,0,0,1,2.93.37c.47-.13,1-.31,1.39-.42a7.33,7.33,0,0,0,1.3.28,14.34,14.34,0,0,1,1.58.19,9.36,9.36,0,0,1,2-.28c.75,0,1.52,0,2.25,0a3.38,3.38,0,0,1,.58.23c0-.29.2-.41.34-.65h.09c-.3.19,0,.4,5,.5,0-.16.09-.34,0-.47.28.12.54.21.81.3a5.67,5.67,0,0,0,2.28,0,1.89,1.89,0,0,1,.85,0,18.37,18.37,0,0,1,2,.13,4.89,4.89,0,0,1,.76-.73c-1,0-1.93.22-2.91.22-.12-.13-.26-.18-.31-.34-.13.11-.34.15-.4.34a6.73,6.73,0,0,1-1.16,0c-.15-.17-.36-.39-.54-.56-.11.12-.42.06-.36.39-.16-.24-.36-.36-.36-.69-.73-.43-.55-.46-1,0a4.6,4.6,0,0,1-1.12.47c-1,.09-2.08.1-3.13.25a3.8,3.8,0,0,1-.16-.95,4.32,4.32,0,0,1-.29.88c-.53.06-.7-.32-1-.65a4.57,4.57,0,0,1,.1.55c.1.38-.15.37-.29.55s-.4-.07-.53-.09A1.54,1.54,0,0,1,65,39.76Zm52.17.3c-.21.4-.46.86-.62,1.26-.14-.13-.23,0-.31-.3-.36.08-.76.1-1.12.18a4.22,4.22,0,0,0,1.93.66,10.94,10.94,0,0,0,5.85-.3,14.37,14.37,0,0,1-2.8-.12,1.66,1.66,0,0,1-.37-.24c-.15.12-.34.17-.44.36a4.54,4.54,0,0,1-.81-.3s-.43-.18-.19-.48a4.22,4.22,0,0,0-.62.72,8.59,8.59,0,0,1-.5-1.44Z"/><path id="path5664" class="cls-14" d="M122.63,41.26a31.21,31.21,0,0,0,5.58-.38c.53-.11.66.16,1,.24s.66-.14.87-.19.65.16.78.19c.6-.38.66-.87,1-1.28.59.2.72.64,1,1,.58,0,1.08-.07,1.66-.09.24.06.4.06.61.09a6.44,6.44,0,0,0,1.74-.71,4,4,0,0,1,1.13.66c.33-.1.7-.16,1-.24.86-.08,1.74,0,2.61,0a2.18,2.18,0,0,0,1.22-.47,3.37,3.37,0,0,1,1.39.57,9.58,9.58,0,0,0,1.92-.24,5.26,5.26,0,0,1,1.74.52H150c.6-.28.35-.53.35-.76.4.2.43.44.61.66a2.74,2.74,0,0,0,1.13-.43,1.68,1.68,0,0,0,.09.76c1.26-.09,2.56,0,3.83,0,.38.09.78.25,1,.33a15.24,15.24,0,0,1-5.75-.09c-.6.06-1.27,0-1.92,0-1.43-.26-3.05-.19-4.44-.33-.8,0-1.58,0-2.35,0,.35,0,.31.2.44.28-1.27.11-2.2-.14-3.4-.14-.95,0-1.89,0-2.88,0a20.9,20.9,0,0,1-2.18,0c-.65-.31-.29.12-.35.14a14,14,0,0,1-1.92,0,3.74,3.74,0,0,0-1.13.14h-2.7c-2.26-.25-4.38.6-5.84-.19Z"/><path id="path5670" class="cls-10" d="M156.9,41.23c.53-.08,1.56-.33,1.88-.41s.35.18.58.3a2,2,0,0,0,.29-.83c.31.18.38.42.58.65a2.69,2.69,0,0,0,.65-.65c-.16.24.12.53.14.65a3.66,3.66,0,0,0,1.45-.18h1.23c.38-.1.35-.45.51-.65.18,0,.24.16.36.24a2.59,2.59,0,0,0,1.16.12c.29-.07.58-.16.87-.24.52-.11.25.32.36.47,1.31,0,2.57.09,3.76.18.42-.43.27-.83.22-1.3.1.39.31,1.14.36,1.3a3.84,3.84,0,0,1,.94-1.24,3.76,3.76,0,0,1,.07,1.12,6.34,6.34,0,0,0,.65-.35c.06.22.24.36.36.53.86-.18,1-.58,1.37-1.18.22.39,0,.84-.07,1.12.36-.15.67-.32,1-.47v.41c.68-.09,1.3-.18,2-.24,2.2.73,4.52.54,6.8.71a10.67,10.67,0,0,1-5.43.06h-1.81a6.72,6.72,0,0,0-1,.06,7.3,7.3,0,0,1-1.88-.12,7.56,7.56,0,0,1-2.31-.18c.24.24-.12.29-.14.35a5.4,5.4,0,0,1-1.81-.18,24.28,24.28,0,0,0-3.4-.12v.41a4,4,0,0,1-2.17-.53c-.63.06-1.11.19-1.74.24a12.12,12.12,0,0,0-2.1.24c-.39.2-.59-.14-.72-.18a18,18,0,0,1-3-.12Z"/><path id="path5672" class="cls-15" d="M56.39,41.4c-.47-.24-.49-.43-.49-.86a1.4,1.4,0,0,0-.3.67,9.4,9.4,0,0,1-1-2.17c0,.6,0,1.2,0,1.81-.21-.26-.5-.51-.71-.74a5.08,5.08,0,0,1,0,.8,1.63,1.63,0,0,1-.68-.15c.06.21-.05.34-.11.52a1,1,0,0,1-.75-.8c-.06.19-.12.34-.19.52a4.59,4.59,0,0,1-.64-.95A4.23,4.23,0,0,1,51,41.13c-.2-.15-.13-.3-.15-.49-.1.26-.28.35-.53.52a.64.64,0,0,1-.41-.21,1.51,1.51,0,0,1-.56.46c-.48-.81-1.41-1.13-2.21-1.65a12.21,12.21,0,0,1,.64,1.62c-.22-.48-.86-.75-1.28-.95a2.7,2.7,0,0,1,.75.95A2.06,2.06,0,0,0,45.92,41a1,1,0,0,1,.41.31,8.56,8.56,0,0,1-2.33,0,1.6,1.6,0,0,1,.41-1.16c-.61.15-.69.63-.9,1a2.17,2.17,0,0,1,.56-1.93,3.72,3.72,0,0,0-1.24,1.72,3.25,3.25,0,0,0-.6-.89,2.16,2.16,0,0,1-.08,1.07,7.34,7.34,0,0,1-1.05,0c.17.19-.15.19-.19.25a3.5,3.5,0,0,1-1.65-.58v.55a6.12,6.12,0,0,0-2.06.21,16.24,16.24,0,0,1,2.36.25,13.46,13.46,0,0,1,2.59-.37,15.91,15.91,0,0,0,3.26.28c0,.15,0,.12,0,.21a4.83,4.83,0,0,1,1.88-.49,5.59,5.59,0,0,1,1.2.28,2.29,2.29,0,0,0,.23-.31,2,2,0,0,0,1.13.37c-.08-.15.14-.25.19-.34.19.56,1,.65,1.61.49,0-.11,0-.22,0-.31a4.58,4.58,0,0,0,1.88.06c1,.09,2.31.23,2.85-.28Z"/><path id="path5674" class="cls-16" d="M37.74,41.15a3.23,3.23,0,0,1-.08-1.77c-.25.49-.74.89-.94,1.35l-.59-.26c0,.21-.05.44-.08.64a2.66,2.66,0,0,1-1.14-.19,3.24,3.24,0,0,1,0-.8,2.49,2.49,0,0,0-.59.9,5.79,5.79,0,0,0-1.42-.9,2.05,2.05,0,0,1,.43,1.28c-.94-.36-1.88-.79-2.87-1.06a2.66,2.66,0,0,1,1.38,1,3.08,3.08,0,0,1-.9.06c-.23-.22-.2-.41-.24-.67a1.39,1.39,0,0,1-.12.64,4,4,0,0,0-2.08-1.51,1.92,1.92,0,0,1,1,1.48c-.2-.06-.36-.14-.51-.19s0-.26,0-.39a2.29,2.29,0,0,0-.87.71c-.4-.31-.75-.63-1.18-.9,0,.26,0,.51,0,.77-.59.05-1.17-.06-1.77-.06-.09.16,0,.31,0,.45a6.26,6.26,0,0,0-2-.29,6.26,6.26,0,0,1-.59.29,1.67,1.67,0,0,1,.16-1.16,3.52,3.52,0,0,0-1.3.77c-.43,0-.94.14-1.3.19a1.47,1.47,0,0,0-1-.61,2.71,2.71,0,0,1,.16,1,15.53,15.53,0,0,0,1.93.19c.2,0,.24-.14.39-.22a8.68,8.68,0,0,1,.83.48A3,3,0,0,1,23.62,42c.68.09,1.39.33,2,.48a1.4,1.4,0,0,0,.63-.39c.4,0,.74.1,1.14.1A3.52,3.52,0,0,0,28.89,42a1.38,1.38,0,0,0,.75.29l.24-.32a7.9,7.9,0,0,1,1.1.26,1.4,1.4,0,0,0,.59-.29c.68.17,1.45.12,2.12.22.19-.17.17-.27.2-.48a1.75,1.75,0,0,1,.59.29,8.34,8.34,0,0,0,.94-.29,3.38,3.38,0,0,1,.87.45,4,4,0,0,0,.59-.74,3.91,3.91,0,0,0,1.22.51,1.75,1.75,0,0,0-.35-.74Z"/><path id="path5676" class="cls-4" d="M19.71,42c-.23-1.2-.6-1.25-1.56-1.8a3.44,3.44,0,0,1,.09,1.12,2.32,2.32,0,0,1-.43-1.8,6.32,6.32,0,0,0-2,1.89c-.28-.12-.41-.46-.61-.69a5.3,5.3,0,0,0-1,.6,14,14,0,0,1-3-.6c-.4.28-.06.5-.09.77a16.26,16.26,0,0,1-3.65-.6c0,.85-.41.17-.61.26a3,3,0,0,1,.26-2.06,13.4,13.4,0,0,0-1,1.63,18.79,18.79,0,0,1-.26-2c-.42.82-.58,1.5-.87,2.15-.5-.09-.12-.34-.17-.52-.31-.27-.82-.65-.87-.69a5.58,5.58,0,0,1,.43,1.37,7.6,7.6,0,0,1-1-.43c-.33-.43-.46.3-.52.34a2.69,2.69,0,0,0-1.82.34c.64.65,1.82.52,2.43.52-.3.51.37.58.43.69A4.26,4.26,0,0,0,5.57,42c.37.62.81.42,1.3.6.27,0,.35-.28.43-.34a4.8,4.8,0,0,1,1.56-.34,3,3,0,0,1,1.3.17c-.14.54.28.45.43.69a5.82,5.82,0,0,0,2-.69A5.15,5.15,0,0,1,14,42a2.4,2.4,0,0,1,1.22.34,3.82,3.82,0,0,0,1-.17,2.78,2.78,0,0,1,1,.17c0-.22.23-.29.35-.43a4.16,4.16,0,0,0,2.08.09Z"/></g></g><g id="g5729"><path id="path5643" class="cls-17" d="M129.47,33.74c0-6.3.59-13.36.37-19.75.24-.58.21-1,1-.76l-.74-.6c.09-.74.36-.74,1.3-.71a2.82,2.82,0,0,0-.12-1c-.68-.22-1.67-1.25-.31-1.11-.47-.39-.67-.77.12-1-.29-.43-.57-1,.37-.71-.27-1.12.32-2.24.49-.45,0-2.3.75-.73.62.76.13.19.53.38.12.91.13.26.58.31,0,.86.07.11.71-.1.31.5,0,.26.26.57,0,1a1.36,1.36,0,0,1,.12,1.06s.85.59.74,1.16a2.31,2.31,0,0,1,.43-.81c-.39-.43-.55-.47.19-1-.42-.45-.54-.63.06-.86-.27-.29-.58-.29-.06-.71-.18-.32-.69-.64.19-.6-.11-.92.5-2.24.62-.55a1.1,1.1,0,0,1-.06,1.11c.23.24.61.33,0,.91.46.28.6.23.49.91.09.14.4.36.37.6,0-.55-.15-.79.49-1a2.3,2.3,0,0,0-.49-.6c.23-.23-.12-.44.49-.5-.18-.16-.3-.47-.62-.55.16-.18.1-.45.74-.4-.07-.11-.3-.21-.25-.4s-.77-.38.37-.6c0-.35-.24-.64.31-.65-.44-.36-.64-.9.12-.65-.38-.46-.64-.79.19-.86,0-2,.86-.93.62.4a1.05,1.05,0,0,1,.12,1.06c0,.24.22.48-.12.76.12.21.41.3.12.76,1-.24,1.61.44.12.35.43,0,.58-.08.8.3-.29.19-.68.4-.8.71.6.15,1.07.19.62.81,0,.11.2.46-.06.71.45.37.58.43-.06,1,.44.16.87.29,1.05.71.07-.3,0-.56.31-.81-.5-.41-.83-.77,0-.86-.6-.37-.69-.5,0-.65v-.55c-.49-.3-.72-.35.06-.71-.49-.3-.88-.73.25-.6-.54-.44-1.27-.78-.25-.86a3,3,0,0,1,.06-1c-.44-.6-.94-1.46.19-1.21-.27-1.08.88-.65.62.45.09.07.75,0,.31.91a.9.9,0,0,1,.06,1.06.83.83,0,0,1,.37,1c0,.17.51.24.19.71,0,.27.21.6,0,.81.35.28.68.21.06.86.19.2.57.42.31,1,.23.21.57.24.62.76.07-.58,0-1.18.56-1.56-.65-.11-.94-.68,0-.71,0-.21-.09-.43.12-.6-.6-.22-.78-.38-.12-.6-.47-.33-.78-.47,0-.76,0-.27,0-.49-.06-.76-.24-.35-.57-.48.12-.71-.32-.48-.51-.85.31-.6-.06-.26-.24-.49-.06-.81-.18-.37-.51-.76.19-1,.16-1.3,1-.58.62.35A4.39,4.39,0,0,1,144.62,8c.42.34.67.47.25.91.07.13.42.28.19.76,1-.35.65.37-.12.55.5.27.86.21.12.76.45.27.61.17.31.71.13.23.45.35.06.81.55.23.86.43.49,1.11-.08.24,0,.62-.25.71,0,.15.3.28.06.6.35,0,.45-.39.87.3-.11-.29-.33-.52,0-.91-.36-.39-.56-.36.06-.6.18-1.5.94-.27.43.55.08.22.36.39.19.81a1.18,1.18,0,0,1-.06,1.11c.09.1.38.27.43.5.29-.77.1-.75.49-1.31-.24-.26-.59-.28-.12-.6,0-.12,0-.24-.06-.35-.24-.26-.52-.16-.25-.71-.05-.42-.17-.74.43-1-.44-.36-.58-.42,0-.76,0-1.55,1.08.06.43,1,.24.14.51.44.37.65.17.25.58.45,0,.91v.6a1,1,0,0,1,.37,1.16c0-1.74.9-.29.49.71,0,0,.46.38.31.81.13.23.52.48,0,1.06.16.24.54.27.12.71,0,.11.28.37-.06.6.23.34.67.28-.06.86.4.33.67.42.43,1,.14.15,0,.45.43.45a4.6,4.6,0,0,0,0-1.31c-.05-.43-.3-.77.37-.91-.09.75.39,1.42.06,2.17.1.41,0,.72.8.4,0-.18.13-.51.19-.76-.35-.28-.75-.41.06-.71-.91-.41-.94-1,.25-.6a1.78,1.78,0,0,1,.12-.45c-.77-.25-.86-.27-.25-.55-.18-.33-.57-.35.12-.45,0-1.59.71-2.72.43-.65a2.71,2.71,0,0,1-.12.76c.09.27.55.16.25.71,0,.18,0,.37-.06.55s.55.4.25,1.06c-.08.67.5.85.43.05-.13-.31-.42-.71-.06-1.06a1.8,1.8,0,0,0,.12-.86c-.51-2.3,1.46,1.19.37,1.61.65.23.47,0,.31.5.41.25.72.27.25.86.31.25.71-.07.19.55.14.26.59.18.06.81.21-.08.59-.07.62-.25s.55-.65.74-.45.59.15.62.35c.07-.29.07-.74.43-.91-.5,0-.63,0-.87-.35a2.35,2.35,0,0,0,1.3-.35c-.74,0-1.61.13-1.36-.65.73,0,1.32-.13,1.36-1-1,.84-1.73.21-.68-.3-.17-.3-.62-.53.31-.4-.29-.53-.33-.7.56-.65a1.55,1.55,0,0,1,.12-.4c-1.43,0-1.7-.74-.25-.81,0-.13-.11-.3.12-.4-.69-.42-1.16-.73.19-.65-.54-.24-1.22-.71-.12-.91a1.27,1.27,0,0,1,.93-.65c-.44-.41-1-.88.06-1,.09-.19-.31-.49.31-.65-.26-.43-.57-.8.37-.91-.47-1.28.83-1.18.31-.05,0,0,.47.4.31.71.45.37.4.29.06.76.89.07.92.36.06.55,0,.14.25.33.06.55,0,.13,0,.28.06.4.43.35,1.06.72-.06,1.06.14.1.37.13.49.35-.16.12-.28.39-.49.35v.25c.31.19,1.08.82-.06.65,0,.13,0,.28-.06.4.3.2.62-.16.62.4a2.12,2.12,0,0,1,1.17.35c.13-.12,0-.45.43-.4-1.33-.11-1.38-.65.06-.71-1-.16-1.73-.86-.37-1.11.06-.12-.32-.52.62-.45,0-.12.08-.23.12-.35-1.23-.09-1.15-.83-.06-.6,0-.12,0-.24.06-.35-.51-.31-.7-.38.12-.65-.27-.4-.45-.65,0-1,0-.25-.34-.47.25-.4.14-1.16.62-1.78.49-.25,0,.09.14.39.06.55l.06.5c.53.13,1,.51-.19.45,0,.06.86.17.12.3v.35c.37.22.58.23.49.76-.14.12-.24.4-.43.35,0,.08.09.18-.06.25.29.21.6-.2.56.4,1.23.1.94.8-.19.5v.45c.89-.36,1.62,0,.56.55-.06.24.05.56-.19.71.21.19,0,.31.56.5.2.15.14.36.62.45.12-1,.58-.53.49.45.64-.69.89-.37.56.35.21,0,.18-.32.43-.05a5.47,5.47,0,0,1-.37.81c.69-.42,1-.32.43.35v.6c.76.19.94.27.19.71,0,.1-.11.21.06.3.78,0,.75.07.31.65.46,0,.44-.3.62.25-.15.27-.27.61-.43.91.1.11.46.09.37.4,0,0,.4.29.31.6,0,.1.32.53-.12.91.08.09.58,0,.37.45-.06.12.22.5-.31.65.11.11.29.11.37.35a1.8,1.8,0,0,0-.43.6c.1,0,.3-.2.56-.1,0,0,0,.75-.56.91.61.4-6.36-.86-6.51-.23-.38.47-.77,0-.87.05.12.72-.86.84-.93.86-.08-.18-.45-.07-.68-.1-.15.49-4.53,1-.93.71Z"/><g id="g5629"><path id="path5552" class="cls-18" d="M128.53,1.13c-.14,0-.21.52,0,1.38a2.38,2.38,0,0,1,.08.67c-.74-.18-1.31-.08-.72.38-.83.17-.14.49.2.73-.07.17.05.34.08.44-.83,0-.69.4-.52.89-.83.11-.58.42,0,.57-.26.45-.12.57.32.76-1.2-.15-1.58.76-.2.76.14.13.15.51.16.57-.55.2-.3.44.08.67a1.63,1.63,0,0,1,0,.54c-1-.1-1.43.6-.2.6-1.17.35-1.18,1,.16.89,0,.28-.1.36-.2.54-1.19-.88-2.23.76-.24.6.15.23.05.36,0,.57-.79.08-1.52.47-.92,1-.48.65.36.65.88.57,0,.36.08.34.52.41-.64.22-.37.5,0,.79.1.6.13,1.23.2,1.81-.3.21-1.45.93-.36,1-.64.23-.48.39-.36.6h-.8c0-.53,0-.71-.48-.92.49-.32,1.23-.73.32-1,.41-.3.05-.55-.24-.7.38-.29.29-.49.16-.82.06-.21.35-.26.6-.38a2.39,2.39,0,0,0-1.32-.76c.14-.53.52-1,0-1.33.5-.39.4-.38,0-.7a.57.57,0,0,0,0-.63c.45-.35.24-.41,0-.6.3-.48.35-.73-.16-.85.31-.48.27-.88-.16-1.17.1-.52,0-.81-.52-.41-.41-1.51-.88,0-.72.63-.71-.41-.52.19-.36.47-.62,0-.33.31-.12.54-.12.19.11.25.16.38-1.23-.13-1.3.57,0,.57-.28,0-.11.19-.16.29-.76-.27-1.44.09-.56.47-1.11-.22.22.8.48,1,0,.13-.08.21-.12.32-.32-.55-.56-.31-.56.19-.51-.52-1.5-.64-1,0,.17.23.5.27.76.41,0,.14,0,.15,0,.25-.76-.54-2.31.17-.88.35a1.28,1.28,0,0,1,0,.47c-1.49-.08-.91.25,0,.54-1.55.2-.51.78.44,1,.11.13,0,.26,0,.38-.42-.1-1.12-.59-1.12.06a1.41,1.41,0,0,0-.8,0c-.12-1.53-.52-3.08-.52-4.62-.79,1-.08,3,.08,4.4-.36.38-.21.45.12.79-.23.39-.09.64.2,1a4.58,4.58,0,0,1,0,.92H120c-.12.39.24.49.56.6a1.94,1.94,0,0,0,0,1c.48.54-.47,1-.8.35a.56.56,0,0,0,.28-.63c0-.24-.24-.19-.32-.25.07-.13,0-.22,0-.35.17-.38.06-.5-.16-.73.23-.38.06-.54-.2-.7.18-.66.1-.65-.08-1.43a.58.58,0,0,0-.16-.76c.28-.89-.45-1.09-.32-.1-.62-.12-.45.41-.16.76-.49.38.24.9.16,1.55-.46-.42-1.22-.54-.8.13-.74.13-.59.58-.08.85,0,.39,0,.76,0,1.14-.75-.74-1.53-.09-.6.32-.1,0,0,.11,0,.16-1.13-.21-.39.44.16.6-1.18.07-.94.54,0,.82-1.63-.09-1.85.92,0,.63,0,.11,0,.21,0,.32a1.51,1.51,0,0,1-1.32.32c-.7.23,0,.6.36.79-2.05,0-.25.56.6.86-.4-.12-3.15,1-1.16,1.14a.93.93,0,0,0-.12.76,2.66,2.66,0,0,0-.6-.35c0-.37-.13-.35-.56-.38.21-.42.11-.57-.2-.76.13-1.1-.64-1.08-.52,0-.56.11-.57.49-.36.86-.77.15-1.34.69-.32,1-.38.57-1,1-.16,1.36-.42.36-.23.65.44.7-1.21.21-1.12,1-.08,1.43-1.32.05-.42,1-.08,1.27.67-.25,1.23-.51,1.72-.32a3,3,0,0,1,2.12-.79,1.18,1.18,0,0,1,0,.44c.61,0,1-.22,1.68-.22-.19-.4.19-.54.4-.63,0-.44-.22-.63-.72-.67a1.1,1.1,0,0,1,.72,0c.39-.21,1-.21.36.19.27.09.62.12.64.38a.45.45,0,0,1,.88-.06c.5-.59,1.14-.23.56.38a6.4,6.4,0,0,0,1.92-.38c.52-.28,1.08-.28,1.16.25a3.23,3.23,0,0,1,1.44-.51.74.74,0,0,1,1.24,0l1.36-.38c0-.93,1.14-.11,1.68.19a1.33,1.33,0,0,1,1.24-.1c0-.13.08-.27.16-.44a1,1,0,0,1,.61-.06c0,.18.19.32.51.36.85.1,1.34-.49,2-.67.35.74,1.33.16,1.4.06,1,.15.89-.81,0-.86a1.59,1.59,0,0,1,0-.38c1-.08,1.06-.68.08-.48,0-.08-.07-.29-.12-.41.87-.31,1.17-.9-.24-.47,0-.16.12-.27-.12-.41s-.63,0-.88,0v-.92c1.13.27,2.12-.33.2-.35V25c1.16-.41,1.74-.48-.16-.6,0-.06-.09-.24,0-.35.63-.38,1.7.58,2.32.09.26-.2-.39-.57-.56-.6a4.06,4.06,0,0,0-1.4-.16c1.78-.14,1.35-.8-.2-.44,0-.06,0-.13,0-.19.55-.24.87-.78-.08-.63,0-.12.11-.26,0-.38a1.15,1.15,0,0,1,0-.44c.8.06.92-.31.12-.41.41-.13.81-.63-.08-.41,0-.12,0-.24.08-.35a1.16,1.16,0,0,1,0-.44c.49-.21.48-.56-.2-.48.38-1.5-.47-1.55-.32.1-.64-.22-.49.13,0,.48-.77,0-.93.3-.16.47a1,1,0,0,0,0,.25c-.62-.1-1.37.2-.36.28a3.18,3.18,0,0,0-.08.38c-.22.17-.5.29.08.41-.08.15-.21.25-.2.47a1.65,1.65,0,0,0-.27.05.6.6,0,0,0-.82-.07,2.73,2.73,0,0,0-.88-.29c.1-.27.07-.37.4-.41,1,.89,1.71-.81.36-.35-.06-.51-.34-.49-.92-.38,0-.16-.05-.36-.08-.54s.28-.08.36-.22c.55,1,1.49.48.68-.22.88-.52-.75-1.08-1.4-1a3.41,3.41,0,0,0-1.12-.48c-.39-1.53,1.65.63,2.2-.19a1.68,1.68,0,0,1-.92-.73c.71,0,.68-.51.08-.7.21-.4.35-1.21-.64-.76,0-.88-.92-.29-1-1.08.39,0,.53.06.68-.22.17.24.37,1.35,1,.63.45-.13.64-.22.4-.63.45-.27.33-.86-.36-.48-.14-.15-.27-.45-.68-.41a1.77,1.77,0,0,1-.52-.67c.7.22,1.39-.62.44-.73-.2-.39-.39-.5-.72-.22a1.28,1.28,0,0,1-.36-.47c.35-.15.52-.19.36-.54.71-.42.26-.59-.28-.92.13-.37,0-.48-.56-.35a3.66,3.66,0,0,0,0-.67c1.34.32,1.37-.73.16-.79.52,0,.69-.35,0-.54,0-.22,0-.33-.2-.51,1.39-.33.2-.7-.56-.86.43-.15.58-.23.4-.7,0,0,.26-.26.2-.51,1.69,0,.3-.65-.6-.1,0-.24,0-.48.08-.73.87-.06.61-.47-.12-.35,0-.11.16-.19.08-.35,1-.13,1.3-.86.12-.44.17-.34.39-.93-.32-.82-.1-.8-.25-1.14-.36-1.15Zm-25.32,9.8c-.19,0-.42.29-.31.73-.52.31,0,.22,0,.63-.11.19-.28.16,0,.44,0,0,.43-.09.08.16-.78-.05-.83.54-.12.63-.46.16-.45.41.12.6a2.54,2.54,0,0,0-.28.38c-.56.15-.79.5,0,.48,0,0,0,.38.12.47a2.51,2.51,0,0,0-.68.22c-.41-.14-1.23-.14-.4.38-.26.31-.27.4.48.38a1.21,1.21,0,0,0-.28.89c-.82,0-.64.49-.08.63-1,.23-1.45.82,0,.63-.67.21-.86.61,0,.67-.34,0-.48,0-.68.28-.51.31-.35.6.44.67-.22.25-.35.46-.56.7-1-.55-1.74.75-.08.73-.71.42-.35.86.52.6-.37.52.07,1,.72.41a1.19,1.19,0,0,1,0,.44,10.62,10.62,0,0,0-1.52.6c-1,.42-.76,1.33.6,1.11-.51.24-1.51.19-1.24.7-.2.8.89-.23,1.48,0-.12.93-1.49.85-1.16,1.65-.85.27-.63.34-.72,1-.19.11-.46.14-.2.54-.29.45.17.79,1.08.54-1.19.6.09.92.68.35-.24.25-.33.45-.56.73-.67.05-.62.39-.6.89-.73.12-.66.56-.76,1.14a3.54,3.54,0,0,0-.8.79c-1.31.78.11,1.11,1.24.67a1.87,1.87,0,0,0,1.48-.32,4.64,4.64,0,0,0,1-.06c.11.51.42.49,1,.22.53,0,.8-.07.6-.51h.64c.49,0,1.5,0,.88-.57a1,1,0,0,1,.4,0,1.6,1.6,0,0,0,1.52.13,6.08,6.08,0,0,0,1.72.06c0-.18-.06-.54-.4-.67,0-.77-.33-.77-1.12-.92,0,0-.09-.37-.32-.47a4.88,4.88,0,0,0,.12-.76c.74-.39.52-.89-.4-1.17.82-.24.37-.55-.24-.85,0-.19.3-.34-.36-.41,0-.12-.16-.25-.12-.41.58-.25.3-.56-.28-.7.89,0,.48-.5,0-.73.6-.14.64-.48-.08-.76,1-.08.22-.6.08-1.08.24-.25.3-.33,0-.82,1.15,0,.19-.67,0-1a.59.59,0,0,0-.48-.54c.57-.13.69-.33.08-.67.7-.22.49-.75-.32-.57a.83.83,0,0,1,0-.47c1-.35.16-.72-.4-1,.7-.06.93-.49-.12-.51.47-.43,1.92-.76,0-.73,0-.26,0-.43.28-.6s.42-.52-.08-.73c-.06-.44-.56-.75-.56-1.27.53-.42-.25-.25-.32-1a.39.39,0,0,0-.28-.51c.88,0,.12-.44-.08-.79.37-.3.37-.23,0-.41,0-.09-.21-.12,0-.25s.34-.25-.12-.51c0-.34-.1-.49-.21-.51Zm28.11,11.28a4.63,4.63,0,0,1,.92.6c.85.13.72.38,1.08.76l.21,0c-.23.17-.32.34-.12.76-1-.08-1.31.39-.16.54-.24.19-.57.43-.12.67a1,1,0,0,0-.44.08,1.19,1.19,0,0,0-.48-.06c-.2-.52-.48-.34-1,0-.11-.14-.7-.84-.6-1.27.34.27.66.92,1.2.47.67,0,1-.57.52-1,.35-.28.23-.81-.32-.41-.4-.07-.64,0-.8-.44,0-.23,0-.47.08-.7Zm2.41.33.16,0c0,.14-.33.18.08.35,0,.05-.11.25,0,.35l-.18.11c.09-.18,0-.45-.23-.72A1.19,1.19,0,0,0,133.73,22.53Zm-1,3.51a1,1,0,0,0,.81.23l-.42.13-.23.08c-.1-.06-.29,0-.57.22,0-.19.08-.34-.12-.51a1.2,1.2,0,0,0,.54-.16Zm.55,1.4c.06.07.09.21.24.28a3.36,3.36,0,0,1-.28.41l-.29,0a2.68,2.68,0,0,0-.24-.43,1,1,0,0,0,.38-.25h0l.19-.05Zm-.52,1.27a2.56,2.56,0,0,0,.84.28,1.93,1.93,0,0,0-.45,0,1,1,0,0,0-.44-.21l0,0Z"/><g id="g5683"><path id="path5623" class="cls-10" d="M135.13,29.08c-4.08-.23.08-4.16-3.88-3.31-9.41.65-26.84,6.61-34.74,9.6A82.29,82.29,0,0,1,107,38.21c9.61-2.76,18.23-8.28,28.14-9.13Z"/><path id="path5625" class="cls-19" d="M114.18,36.79a82.8,82.8,0,0,1,10.36-5.27c5.31-5.49,9.22-8.19,17.67-1.42,4,1.65,9.17-.3,15.91-.75,3.63-.24,6.24.63,12.06,3.27,7.24,8.38,5.47,4.24,4.82,4.31-3.92.41-18-2.29-23.94,1.44-9.42-3.69-19.62-3.81-20.47-3.43-5.7,1.79-11.43,4.15-16.41,1.86Z"/><path id="path5627" class="cls-20" d="M131.28,26c8.7-.48,13.77,2.82,17.28,4.3A50.37,50.37,0,0,0,157,28.39a41.7,41.7,0,0,1,16,5.85c-3.09-2.29-15.06-5.08-19.05-3-1.11.57,1.7,4.09,1.48,5-2.9-1.43-12.7-2.14-15.84-2.45,3.47-4.3-3.76-7.84-8.29-7.75Z"/></g></g></g><g id="g6288"><path id="path4910" class="cls-21" d="M114.67,41.86c-15.6.19-23.49-.5-58.55-.06-9.38,0-18.63,0-27.93.46-7.13,0-14.08-.14-21.17-.23a66.82,66.82,0,0,1-6.81-.44V59.42h184.6V41.73c-10-.36-19.78-.23-29.61.07-9.38-1.33-19.26.58-28.81,0C123.26,41.31,117.91,42.49,114.67,41.86Z"/><path id="path6449" class="cls-22" d="M64.42,50.89c-15,1.09-30,1.25-45.16,1.25H.21V54.5c13.9-.81,24,.28,45.87.71,47.58.37,105.79-.94,138.74-1.21C142.08,50.83,87.91,51.88,64.42,50.89Z"/><path id="path6469" class="cls-23" d="M12.35,46.74c42.33-1,101.28-2,119.1-1,15.19-.41,29.52,1.79,44.7,1.79-19.72.81-78.41,3.75-97.16.88C68.82,45.47,77.89,48.66,12.35,46.74Z"/><path id="path6479" class="cls-24" d="M6,47.93c8.51.53,17.15-.33,25.13-.88h15.6c11-.59,23.74.78,33.22,2-25.19,2.74-52.31,3.54-76.56,3.54A21.81,21.81,0,0,0,6.57,51c.68-1.56-.06-1.78-.58-3.1Z"/><path id="path6510" class="cls-25" d="M.21,41.59v5.23c14.9-3.62,44.46,1.12,56-4.2-1.76-.07-5.88-.39-11.1-.78-5.66.05-11.3.17-17,.42-7.13,0-14.08-.14-21.17-.23A66.82,66.82,0,0,1,.21,41.59Z"/><path id="path6531" class="cls-26" d="M111.27,47.93c4.45.75,3.67-1.05,16.18-.88,12.34-.33,24.42.44,36.69.44a29.53,29.53,0,0,1,5.2.22c-13,.77-37.37-.29-58.07.22Z"/><path id="path7068" class="cls-27" d="M145,42.63c-58.34,0-100.52.67-144.83.79v.36c53.81-.15,104.45-1.25,184.6-.38v-.55q-14.36-.16-27.53-.2l-12.23,0Z"/><path id="path5095" class="cls-28" d="M.21,55.64v1c58.36-.92,109.69-1.55,184.6.31v-.59C122.81,54.21,59.52,54.72.21,55.64Z"/><path id="path6543" class="cls-29" d="M.21,52.84V59a5.89,5.89,0,0,0,.7.44h46c8.3-.51,18.92-1.27,20.62-2.87C53.24,55.67,30.09,55.25.21,52.84Z"/><path id="path6481" class="cls-30" d="M122.7,44.39c25.37-2.05,47.36.22,61.24.22.5.55.19,1.18.29,1.77C174.22,44.58,150.44,45.87,122.7,44.39Z"/><path id="path6483" class="cls-31" d="M184.52,49.25c-10,1.18-20.4.35-30.33,1.11,16.28.89,23.18,1.38,27.44,1.33C184.71,51.44,183.64,50.94,184.52,49.25Z"/><path id="path6493" class="cls-32" d="M72.72,50.36a61.32,61.32,0,0,0,14.16-.44c10-1.78,20.33.22,30,.22-7.53.21-15.59-.71-22.53.88-9.57.27-9.8.54-29.47,1.11,2.71-.46,5-1.18,7.8-1.77Z"/><path id="path7078" class="cls-33" d="M48,43.44l-47.63,0v.06l50.52,0Z"/><g id="g7080"><path id="path7066" class="cls-34" d="M116.93,47.29l-9.11,0-13.26.05c.18.19.39.42.59.67C104,48,113.59,48,123,48c-.52-.23-1.07-.45-1.65-.67h-4.46Z"/><path id="path7064" class="cls-35" d="M125.29,47.29c.52.21,1,.44,1.43.68,9.35,0,18.16.05,28.35.13-1.68-.24-2.51-.48-4.2-.71C142,47.33,133.5,47.3,125.29,47.29Z"/><path id="path7062" class="cls-36" d="M91.44,47.38c-8.55.05-16.89.12-25.08.21a3.51,3.51,0,0,1-.73.68c8.37-.09,16.89-.16,25.62-.22C91.31,47.83,91.37,47.6,91.44,47.38Z"/><path id="path7060" class="cls-37" d="M156.12,47.46c1.36.21,2.73.45,4.1.71h0c6.92.06,17.22.15,24.6.25v-.67c-8.85-.12-20.5-.21-28.7-.28Z"/><path id="path7076" class="cls-38" d="M63.76,47.62c-9,.1-17.85.21-26.68.33-1.26.25-2.69.5-4.11.73,9.67-.13,19.34-.26,29.15-.37Z"/><path id="path7072" class="cls-39" d="M32.8,48l-29.26.4-3.33.43v.28l27.59-.37,5-.74Z"/></g><path id="path6497" class="cls-40" d="M86.07,55c-28.94,0-57.18-.06-85.85.34v.86c35.61-.5,68.64-.89,106-.76-1.33-.3.5,0-.81-.32C98.65,54.82,92,55,86.07,55Z"/></g><path class="cls-41" d="M149.79,33c-.11.5-.82.11-.86.51,0,.12.06.4,0,.42a4,4,0,0,1-1.32-.25,5.06,5.06,0,0,0-1.09-.4c-.1,0-.1.24-.21.24s-.42-.18-.65-.24c-.45-.11-.88-.19-1.33-.32s-1.34-.31-1.54-.87a1.12,1.12,0,0,1,.25-1c.59-.81,1.83-.24,2.6-.07a22.35,22.35,0,0,1,2.67.94,3.17,3.17,0,0,1,1.12.61C149.56,32.79,149.66,33,149.79,33Z"/><path class="cls-42" d="M149.4,32.58s.37.13.44.32-.12.3-.23.31a1.78,1.78,0,0,1-.58-.08Z"/><path class="cls-43" d="M149.77,31a.73.73,0,0,1,.06-.39c.09-.11.41-.19.45-.12a.53.53,0,0,1-.42.56Z"/><path class="cls-44" d="M149.89,30.8a.34.34,0,0,1,.25-.21,0,0,0,0,1,0,0,.42.42,0,0,1-.17.29A.09.09,0,0,1,149.89,30.8Z"/><path class="cls-45" d="M149.66,30.82l.21.11a.53.53,0,0,0,.05-.35l0-.06a.45.45,0,0,0-.06-.11,0,0,0,0,0-.06,0s0,.09,0,.15a.82.82,0,0,1-.06.17Z"/><path class="cls-46" d="M149.66,30.82l.21.11a.53.53,0,0,0,.05-.35s0,.31-.22.17Z"/><path class="cls-43" d="M144.48,32.68l.06,0a.78.78,0,0,0,.23,0,1.78,1.78,0,0,0,.27,0h.12a.37.37,0,0,1,.16,0,6.61,6.61,0,0,0,.83.3l.28.07.15,0a4.07,4.07,0,0,0,1.16.08l.23,0h0l.12,0,0,0a.89.89,0,0,0,.22.13l.19.05h0a.67.67,0,0,0,.28,0l0,0h0l.12-.05a1.21,1.21,0,0,0,.47-.33.43.43,0,0,0,.1-.23.56.56,0,0,0-.09-.31h0s0,0,0,0h0l.08-.11,0-.07a1.87,1.87,0,0,0,.27-.69.77.77,0,0,0-.32-.78,2.19,2.19,0,0,1-.82,0l-.07,0-.12,0-.13-.07a1.53,1.53,0,0,0-.7-.19c-.29,0-.63,0-1-.05h-1a3.48,3.48,0,0,1-1.15-.33c-.21-.09-.36-.15-.43-.13a.46.46,0,0,0-.19.14c-.12.13-.23.32-.29.34s-.21.05-.17.29l0,.13v.06A2.46,2.46,0,0,0,144.48,32.68Z"/><path class="cls-43" d="M149.25,32.14a.58.58,0,0,0,.24.29.66.66,0,0,0,.49.08l.1,0h.07a1.16,1.16,0,0,1,.26,0h0l.21.05c.08,0,.25-.41.24-.65a1.82,1.82,0,0,1-.3-.23l-.11-.11c-.18-.18-.29-.34-.44-.5l0,0-.21-.18a.23.23,0,0,0-.19-.06c-.23.06-.35.61-.35,1a1.56,1.56,0,0,0,0,.25A.45.45,0,0,0,149.25,32.14Z"/><path class="cls-47" d="M146.86,31.95c.34.09.71,0,1,.05s.35.39.59.52a.55.55,0,0,0,.61,0c.08-.06.14-.14.23-.18a.57.57,0,0,1,.28-.08l.16,0c.2.06.71.09.58-.27-.07-.21-.28-.32-.47-.44a.74.74,0,0,1-.28-.28c0-.1-.11-.31-.25-.3s-.16.18-.26.24a.59.59,0,0,1-.39.08c-.13,0-.28-.08-.23-.23a.81.81,0,0,1,.14-.21s.06-.07,0-.09-.1,0-.12,0l-.13-.07a1.53,1.53,0,0,0-.7-.19c-.13.13-.14.34-.28.44s-.35,0-.49,0a.93.93,0,0,0-.57.06C145.78,31.27,146.45,31.85,146.86,31.95Z"/><path class="cls-48" d="M150.58,32.53c.06,0,.24.15.43-.09a.32.32,0,0,0-.15-.54c-.11,0-.05.07-.13.2s-.19.08-.22.13A.25.25,0,0,0,150.58,32.53Z"/><path class="cls-45" d="M148.86,31.29a.26.26,0,0,0,.09.11h0a.45.45,0,0,0,.27.06c.08,0,.11-.1.08-.17a.09.09,0,0,0-.09-.06h0a.41.41,0,0,1-.32-.05,0,0,0,0,0-.05,0A.32.32,0,0,0,148.86,31.29Z"/><path class="cls-47" d="M150.15,31.41l0,0a.79.79,0,0,0,.2.15.88.88,0,0,0,.17.09h0l-.11-.11c-.18-.18-.29-.34-.44-.5A.65.65,0,0,0,150.15,31.41Z"/><path class="cls-49" d="M150.83,32.3c0-.09-.1,0-.16,0S150.75,32.57,150.83,32.3Z"/><path class="cls-49" d="M150.94,32.18c-.09,0,0-.08,0-.15S151.15,32.13,150.94,32.18Z"/><path class="cls-50" d="M149.68,31.82s.07.08.12.06,0-.05.09,0l0,0a.14.14,0,0,0-.1-.06.07.07,0,0,0-.07.06Z"/><path class="cls-51" d="M149.68,31.81a.11.11,0,0,0,.12.05.08.08,0,0,0,0-.06.14.14,0,0,0-.1-.06A.07.07,0,0,0,149.68,31.81Z"/><circle class="cls-52" cx="149.74" cy="31.8" r="0.02" transform="matrix(0.93, -0.36, 0.36, 0.93, -1.38, 56.21)"/><path class="cls-46" d="M149,31.41a.45.45,0,0,0,.27.06c.08,0,.11-.1.08-.17C149.29,31.41,149.15,31.48,149,31.41Z"/><path class="cls-44" d="M149.49,32.42h0Z"/><g class="cls-53"><path class="cls-54" d="M148.84,33.38l0,0h0l.12-.05a1.21,1.21,0,0,0,.47-.33.43.43,0,0,0,.1-.23,1.37,1.37,0,0,0-.09-.31h0s0,0,0,0h0a.66.66,0,0,0,.49.08l.1,0a.63.63,0,0,1-.5-.18h0a4.13,4.13,0,0,1-.23-.38l-.11-.14,0,0s0-.1-.06-.14-.17,0-.16.15.06.2.07.3a.61.61,0,0,1-.08.38c-.09.15-.26.22-.3.39S148.71,33.35,148.84,33.38Z"/></g><path class="cls-55" d="M147.48,33.57a.61.61,0,0,0,.22.06h.05c.14-.1.22-.13.21-.31a.38.38,0,0,0-.34,0A.53.53,0,0,0,147.48,33.57Z"/><path class="cls-47" d="M146.32,32c.25-.07.57.18.69.38s.13.17.08.25-.22.07-.31.07-.39.09-.55,0a1,1,0,0,1-.43-.47.3.3,0,0,1,.19-.35C146.12,31.87,146.19,32,146.32,32Z"/><path class="cls-43" d="M147.75,33.64c.43,0,1,.38,1.24.31s.3-.27.26-.38a.73.73,0,0,0-.23-.26,4.81,4.81,0,0,0-.54-.36.52.52,0,0,0-.43-.4l-.52-.07v.06l0,.22v0a2.72,2.72,0,0,0,.11.41l0,.05a.75.75,0,0,0,.18.14h0l-.11.05A.2.2,0,0,0,147.75,33.64Z"/><g class="cls-53"><path class="cls-54" d="M145.41,32.53a.61.61,0,0,0,.38.21,4.27,4.27,0,0,1,.49.19,1.11,1.11,0,0,1,.3.23,4.07,4.07,0,0,0,1.16.08.75.75,0,0,0,.18.15l-.11.05a1.89,1.89,0,0,0,.47.21c.15,0,.37.16.51.07s-.12-.22-.26-.28l-.17-.08a1.34,1.34,0,0,1-.5-.48,1.1,1.1,0,0,0-.33-.34l-.13-.05a1.29,1.29,0,0,0-.48.07,1.15,1.15,0,0,1-.92-.34,2.7,2.7,0,0,0-.28-.2c-.11-.06-.32-.11-.41,0S145.33,32.43,145.41,32.53Z"/></g><path class="cls-42" d="M147.7,33.18a.64.64,0,0,0,.22.2h0l.81.27s-.35-.2-.57-.3a1,1,0,0,1-.59-.6v0A2.72,2.72,0,0,0,147.7,33.18Z"/><path class="cls-43" d="M144.57,32.45a1.34,1.34,0,0,0,.07.3c.08.19.18.14.29.16h0a3.38,3.38,0,0,1,1,.36l.11.1h0l.11.11a.26.26,0,0,0,.21,0c.1-.05.17-.16.09-.26s-.19-.17-.26-.24-.65-.26-.76-.36-.15-.25-.24-.56c-.22-.77-1.27-1-1.08-.23C144.14,32.07,144.52,32.06,144.57,32.45Z"/><path class="cls-42" d="M144.76,32.56a.18.18,0,0,0,0,.13.43.43,0,0,0,.16.08s-.12.05-.19,0S144.76,32.56,144.76,32.56Z"/><g class="cls-53"><path class="cls-54" d="M150.16,32.47l-.07,0h.07Z"/></g><path class="cls-56" d="M149.3,31.69a.08.08,0,0,0-.1-.06.85.85,0,0,0-.36.17.67.67,0,0,0-.07.38,0,0,0,0,0,0,0c.07,0,.29.06.47-.24a.34.34,0,0,0,0-.27Z"/><path class="cls-50" d="M149.14,31.8c-.11.1-.24,0-.29.3a0,0,0,0,0,0,0c.1,0,.35-.05.35-.3A.06.06,0,0,0,149.14,31.8Z"/><path class="cls-42" d="M145.39,32.59c.11.1.72.32.76.36l.15.14.13,0a4.22,4.22,0,0,0,1.31.12l0-.05a2.72,2.72,0,0,1-.11-.41v0c-.15.1-.73.5-1.85-.07-.42-.21-.43-.74-.66-.89,0,0,0,0,0,0a1,1,0,0,1,.08.2C145.24,32.34,145.28,32.5,145.39,32.59Z"/><path class="cls-57" d="M144.48,32.68l.06,0a.49.49,0,0,0,0-.08.52.52,0,0,0-.09-.29,3.61,3.61,0,0,1-.4-.58,2.51,2.51,0,0,1-.18-.48c0-.16.06-.33,0-.48s-.1-.18-.2-.11-.08.18-.18.19h0A2.46,2.46,0,0,0,144.48,32.68Z"/><path class="cls-42" d="M144.48,32.67h0l.14,0a1.39,1.39,0,0,1-.06-.28c0-.26-.22-.34-.35-.44a0,0,0,0,0,0,0A1.55,1.55,0,0,1,144.48,32.67Z"/><path class="cls-58" d="M143.79,32c.38.16.59-.2,1.19-.29.12,0,0-.09,0-.13l-.2,0c-.51.14-.57.34-.9.25s-.26-.29-.25-.55a3.4,3.4,0,0,1-.08-.46v-.06h0v0l0,.13C143.33,31.61,143.52,31.89,143.79,32Z"/><path class="cls-50" d="M144.9,31.59c.31-.1.42,0,.66,0,0,0,0,0-.16,0a.38.38,0,0,0,.23,0c.08,0,0,0-.07,0h0a.35.35,0,0,0,.26,0,.32.32,0,0,1-.37,0,.31.31,0,0,0,.24.08,0,0,0,0,1,0,0,.28.28,0,0,1-.19,0l.06,0s0,0,0,0-.22-.13-.38-.19l.2.15s0,0,0,0a.54.54,0,0,0-.4-.15s0,0,0,0-.1,0-.11,0,.12,0,.13,0S144.9,31.59,144.9,31.59Z"/><path class="cls-57" d="M144.64,32.74c.08.19.18.14.29.16h0a3.38,3.38,0,0,1,1,.36l.11.1h0l.11.11a.26.26,0,0,0,.21,0,.67.67,0,0,0,0-.1.38.38,0,0,1-.41-.13,1.11,1.11,0,0,0-.69-.37c-.25,0-.56.05-.62-.11Z"/><path class="cls-59" d="M143.75,31.89c.33.23.58-.11,1-.27-.51.14-.57.34-.9.25s-.26-.29-.25-.55a3.4,3.4,0,0,1-.08-.46v-.06h0C143.49,31.08,143.46,31.69,143.75,31.89Z"/><path class="cls-46" d="M147.48,33.57a.61.61,0,0,0,.22.06.3.3,0,0,0,0-.17.31.31,0,0,0-.06-.1A.53.53,0,0,0,147.48,33.57Z"/><path class="cls-42" d="M144.93,32.91a3.38,3.38,0,0,1,1,.36l.11.1a1.1,1.1,0,0,0-.57-.39A2,2,0,0,0,144.93,32.91Z"/><path class="cls-46" d="M146.11,33.48a.42.42,0,0,0,.42.06l-.05-.1h0l.09,0a.5.5,0,0,0-.08-.19l-.08-.09c0,.11-.07.2-.21.25Z"/><path class="cls-55" d="M146.49,33.45l.09,0a.26.26,0,0,0-.11-.09Z"/><path class="cls-55" d="M146.11,33.48a.42.42,0,0,0,.42.06.57.57,0,0,1-.33-.09Z"/><path class="cls-47" d="M144.76,30.8a1.33,1.33,0,0,1,.8.12c.26.24-.06.27-.26.33a2.05,2.05,0,0,0-.28.08c-.08,0-.07.08-.14.14s-.61-.11-.54-.34.18-.16.26-.24S144.62,30.76,144.76,30.8Z"/><path class="cls-46" d="M54.35,38.46l-.12-.12a.31.31,0,0,0,.21,0,.89.89,0,0,1-.22-.23.45.45,0,0,0-.37.13.24.24,0,0,0,0,0C53.89,38.61,54.23,38.5,54.35,38.46Z"/><path class="cls-55" d="M54.44,38.36a.64.64,0,0,1-.25-.08l0,.05A.32.32,0,0,0,54.44,38.36Z"/><path class="cls-55" d="M54.35,38.46s-.4.05-.5-.16C53.89,38.61,54.23,38.5,54.35,38.46Z"/><path class="cls-46" d="M53.51,39.13,53.39,39a.31.31,0,0,0,.21,0,.89.89,0,0,1-.22-.23s-.28,0-.37.13a.24.24,0,0,0,0,0C53.05,39.28,53.39,39.16,53.51,39.13Z"/><path class="cls-55" d="M53.6,39a.64.64,0,0,1-.25-.08l0,.05A.32.32,0,0,0,53.6,39Z"/><path class="cls-55" d="M53.51,39.13s-.4.05-.5-.16C53.05,39.28,53.39,39.16,53.51,39.13Z"/><path class="cls-46" d="M58.82,39.52l-.12-.12a.31.31,0,0,0,.21,0,.89.89,0,0,1-.22-.23,1.1,1.1,0,0,0-.37.13.24.24,0,0,0,0,0C58.35,39.67,58.7,39.56,58.82,39.52Z"/><path class="cls-55" d="M58.91,39.42a.64.64,0,0,1-.25-.08l0,.05A.32.32,0,0,0,58.91,39.42Z"/><path class="cls-55" d="M58.82,39.52s-.4.05-.5-.16C58.35,39.67,58.7,39.56,58.82,39.52Z"/><path class="cls-43" d="M59.62,35.76a.76.76,0,0,1,.15-.42c.13-.11.54-.16.57-.08a.66.66,0,0,1-.63.56Z"/><path class="cls-44" d="M59.83,35.53a.46.46,0,0,1,.34-.2s.06,0,0,0a.51.51,0,0,1-.27.29C59.85,35.71,59.76,35.61,59.83,35.53Z"/><path class="cls-45" d="M59.53,35.52l.23.15a.57.57,0,0,0,.14-.37.4.4,0,0,0,0-.07.42.42,0,0,0,0-.12,0,0,0,0,0-.08,0l-.06.16a.93.93,0,0,1-.11.18Z"/><path class="cls-46" d="M59.53,35.52l.23.15a.57.57,0,0,0,.14-.37s-.08.33-.31.16Z"/><path class="cls-42" d="M53.52,36.71a.47.47,0,0,1,0,.31c-.05.1,0,.15,0,.29.24.54.14.54.17.64s.09.14.08.31c0,0,.46,0,.37-.13A1.21,1.21,0,0,1,54,37.3c0-.32.29-.44.32-.91a3.37,3.37,0,0,0-.06-.76.81.81,0,0,0-1-.34h0a.55.55,0,0,0-.17.32h0l.19.41C53.35,36.28,53.45,36.52,53.52,36.71Z"/><path class="cls-42" d="M58.53,37.08a9.21,9.21,0,0,0,0,1.09c0,.17.09.2,0,.38s.15.64.15.64-.08.19-.37.13c0-.12-.09-.15-.11-.24s.09-.1,0-.44c-.06-.16-.17-.29-.11-.44A6.24,6.24,0,0,0,57.76,37,.59.59,0,0,1,58.53,37.08Z"/><path class="cls-60" d="M53.68,37.75c.06,0,.07-.09.06-.17a.91.91,0,0,0,0-.14l-.17-.06a1.41,1.41,0,0,0,0,.19C53.59,37.67,53.62,37.76,53.68,37.75Z"/><path class="cls-60" d="M53.8,37.35a1.34,1.34,0,0,0,.12.2c.05.07.11.12.15.1s0-.1,0-.17a1,1,0,0,0-.08-.12Z"/><path class="cls-60" d="M54,37.24a1.57,1.57,0,0,0,.17.14c.08.05.15.09.2.06s0-.11-.08-.17l-.11-.08Z"/><path class="cls-46" d="M58,40.19l-.12-.12a.31.31,0,0,0,.21,0,.89.89,0,0,1-.22-.23.39.39,0,0,0-.37.13.24.24,0,0,0,0,0C57.52,40.34,57.86,40.22,58,40.19Z"/><path class="cls-48" d="M53.13,37.26a.88.88,0,0,0,.39.3c.54.19,1-.49,1-.49,0-.37-.43-.54-.85-.53S52.77,36.8,53.13,37.26Z"/><path class="cls-60" d="M53.13,37.26a.88.88,0,0,0,.39.3c.07-.13.13-.4.66-.28.18,0-.5-.6-.51-.74C53.2,36.56,52.77,36.8,53.13,37.26Z"/><path class="cls-43" d="M52.22,36.3h0l0,.07a1.61,1.61,0,0,0,.51.55l0,0a1.32,1.32,0,0,0,.71.13.7.7,0,0,1,.33.05,6.52,6.52,0,0,0,3.13.8h.17l0,0a1,1,0,0,0,.45.25h0a1,1,0,0,0,.4,0c.45-.11.47-.55.81-.86h0l.11-.08h0l.15-.08.07,0,.07,0a.6.6,0,0,0,.18-.09.8.8,0,0,0,.29-.61.63.63,0,0,0,0-.1,2,2,0,0,0-.32-.84h0a2.88,2.88,0,0,1-1-.09l-.22-.08a.55.55,0,0,1-.14-.09,5,5,0,0,0-2-.45l-.28,0-.74-.06-.16,0a4.25,4.25,0,0,1-1.4-.5,1.13,1.13,0,0,0-.5-.19c-.26,0-.56.44-.68.46s-.26,0-.27.29v.14c0,.12,0,.29,0,.47s0,.13,0,.2A2.11,2.11,0,0,0,52.22,36.3Z"/><path class="cls-43" d="M52.22,36.3h0l.19.41c.1.23.2.46.27.65a.48.48,0,0,1,0,.31c-.05.1,0,.15,0,.29.24.54.14.54.17.64s.09.14.08.31c0,0,.46,0,.37-.13A1.21,1.21,0,0,1,53.2,38c0-.32.29-.44.32-.91a3.37,3.37,0,0,0-.06-.76.64.64,0,0,0-.12-.19.78.78,0,0,0-.5-.22.85.85,0,0,0-.42.07h0A.55.55,0,0,0,52.22,36.3Z"/><path class="cls-43" d="M57.48,40h.07a.35.35,0,0,0,.2,0h0a.23.23,0,0,0,.1-.1s-.23-.47-.15-.64,0-.21,0-.38a4.17,4.17,0,0,1,0-.64c0-.24,0-.44,0-.44a.54.54,0,0,0-.46-.18.84.84,0,0,0-.31.1l.08.25a3.83,3.83,0,0,1,.23.94c-.07.15.05.28.11.45.12.34,0,.35,0,.44S57.47,39.87,57.48,40Z"/><path class="cls-43" d="M58.77,36.9a.57.57,0,0,0,.23.34.85.85,0,0,0,.58.14,1.45,1.45,0,0,1,.52,0h0l.24.08c.09,0,.39-.42.42-.67a1.93,1.93,0,0,1-.31-.28l-.12-.14c-.18-.21-.28-.4-.43-.59l0-.06a2.06,2.06,0,0,0-.21-.22.28.28,0,0,0-.22-.08c-.37,0-.67.94-.67,1.33A.42.42,0,0,0,58.77,36.9Z"/><path class="cls-47" d="M55.86,36.48c.08.2-.14.37,0,.56s.48.2.76.13a1.18,1.18,0,0,1,.83.16,1,1,0,0,0,.67.11,1.37,1.37,0,0,0,.45-.35c.08-.08.16-.19.29-.2a1.06,1.06,0,0,1,.42.05,3.58,3.58,0,0,0,.5.14c.1,0,.28.05.36,0a.46.46,0,0,0,0-.2.51.51,0,0,0,0-.21.76.76,0,0,0-.44-.48.74.74,0,0,0-.5,0,2.26,2.26,0,0,1-.25.09,2.16,2.16,0,0,1-.6,0c-.16,0-.33,0-.32-.2s.09-.17,0-.28-.2-.13-.22-.24.25-.26.38-.27h0a.55.55,0,0,1-.14-.09,5,5,0,0,0-2-.45,1,1,0,0,1-.11.38.87.87,0,0,1-.18.23l-.21.18a.6.6,0,0,0-.16.58C55.53,36.27,55.79,36.31,55.86,36.48Z"/><path class="cls-48" d="M60.31,37.48c.07.06.26.19.54,0a.33.33,0,0,0-.07-.6c-.14,0-.08.07-.2.2s-.25.07-.29.12A.25.25,0,0,0,60.31,37.48Z"/><path class="cls-47" d="M52.85,35.9a.51.51,0,0,0,.37.31.47.47,0,0,0,.19,0,.44.44,0,0,1,.17,0c.16,0,.22.17.35.25a.38.38,0,0,0,.54-.14c.12-.2-.2-.46-.32-.65a.5.5,0,0,1,0-.62c.21-.27.69-.15.79-.41a4.25,4.25,0,0,1-1.4-.5,1.08,1.08,0,0,1-.13.2c-.08.09-.23.13-.3.23a.49.49,0,0,0,0,.35c0,.23,0,.26-.14.47A.6.6,0,0,0,52.85,35.9Z"/><path class="cls-47" d="M52.22,36.3h0l.19.41.16.23s.05.12.12.09.07-.09.08-.14a1.22,1.22,0,0,0,.08-.24.31.31,0,0,0-.12-.32c-.11-.07-.29-.13-.33-.25a.4.4,0,0,1,0-.12c0-.16.06-.34,0-.5a.32.32,0,0,0-.15-.3.17.17,0,0,0-.24.1v0c0,.06,0,.13,0,.2A2.11,2.11,0,0,0,52.22,36.3Z"/><g class="cls-53"><path class="cls-54" d="M52.22,36.3h0l.19.41c.1.23.2.46.27.65a.48.48,0,0,1,0,.31c-.05.1,0,.15,0,.29.24.54.14.54.17.64s.09.14.08.31c0,0,.46,0,.37-.13A1.21,1.21,0,0,1,53.2,38c0-.32.29-.44.32-.91a.7.7,0,0,1,.33.05,6.52,6.52,0,0,0,3.13.8h0a3.83,3.83,0,0,1,.23.94c-.07.15.05.28.11.45.12.34,0,.35,0,.44s.1.12.11.24h.07a.35.35,0,0,0,.2,0,.23.23,0,0,1-.25-.12c0-.11,0-.23,0-.35s-.2-.3-.24-.47a1.93,1.93,0,0,1,0-.44c0-.17-.08-.33-.1-.5a.82.82,0,0,1,0-.14c0-.12,0-.25,0-.37a.58.58,0,0,0-.1-.43c-.17-.22-.41-.15-.68-.08a4.58,4.58,0,0,1-.8.15,1.6,1.6,0,0,1-.77-.26,1.73,1.73,0,0,1-.55-.35,3,3,0,0,1-.42-.52c-.1-.16-.21-.62-.48-.33a.51.51,0,0,0-.09.29v.08c0,.14-.06.35-.17.38s-.18-.06-.22-.13a.88.88,0,0,1-.11-.48s0,0,0-.06c0-.19.16-.42.06-.6a.42.42,0,0,0-.16-.14c-.13-.08-.24-.06-.38-.1s-.17-.15-.28-.16h0c0,.12,0,.29,0,.47s0,.13,0,.2A2.11,2.11,0,0,0,52.22,36.3Z"/></g><g class="cls-53"><path class="cls-54" d="M57.69,37.75s0,.44,0,.44a1,1,0,0,0,.4,0c.45-.11.47-.55.81-.86h0l.11-.08h0a.85.85,0,0,0,.58.14,1.45,1.45,0,0,1,.52,0,1.42,1.42,0,0,0-.44-.08c-.22,0-.36,0-.51-.19s-.42-.23-.72-.07a1,1,0,0,1-.37.12l-.19,0a.3.3,0,0,0-.2.25.54.54,0,0,0,0,.16A.57.57,0,0,0,57.69,37.75Z"/></g><path class="cls-47" d="M55,36.39l.11-.07a.27.27,0,0,1,.18,0,.29.29,0,0,1,.19.3c0,.1-.14.18-.18.28s0,.22-.14.28a.23.23,0,0,1-.29-.19c0-.06,0-.13,0-.18s-.11-.07-.15-.13,0-.16.08-.2l.16,0Z"/><path class="cls-47" d="M55.27,35.11c.07.23-.22.22-.35.32a.28.28,0,0,0-.09.15c0,.06,0,.12,0,.17a.16.16,0,0,1-.1.08c-.27,0-.63-.45-.39-.64s.37,0,.54-.09S55.22,34.86,55.27,35.11Z"/><path class="cls-45" d="M58.47,35.94a.26.26,0,0,0,.09.13h0a.57.57,0,0,0,.32.1A.14.14,0,0,0,59,36a.09.09,0,0,0-.09-.08h0a.53.53,0,0,1-.38-.09,0,0,0,0,0-.07,0A.3.3,0,0,0,58.47,35.94Z"/><path class="cls-56" d="M58.92,36.43a.09.09,0,0,0-.11-.07,1.22,1.22,0,0,0-.47.14.71.71,0,0,0-.16.4,0,0,0,0,0,0,0,.56.56,0,0,0,.63-.2.35.35,0,0,0,.1-.29Z"/><path class="cls-47" d="M60,36.21l0,0a.84.84,0,0,0,.21.18,1,1,0,0,0,.19.12h0l-.12-.14c-.18-.21-.28-.4-.43-.59A.61.61,0,0,0,60,36.21Z"/><path class="cls-58" d="M51.82,36.44c.38.27.77-.05,1.51,0,.16,0,.05-.09,0-.15h-.25c-.66,0-.81.21-1.16,0s-.2-.37-.08-.65a1.8,1.8,0,0,1,.17-.3V35h0l-.15.21C51.44,35.91,51.56,36.25,51.82,36.44Z"/><path class="cls-49" d="M60.66,37.26c0-.1-.13,0-.2,0S60.51,37.54,60.66,37.26Z"/><path class="cls-49" d="M60.82,37.14c-.12,0,0-.09,0-.17S61.08,37.11,60.82,37.14Z"/><path class="cls-50" d="M59.36,36.61s.06.1.13.08.07-.05.12,0l0,0a.16.16,0,0,0-.11-.07.09.09,0,0,0-.1.06Z"/><path class="cls-51" d="M59.36,36.6a.13.13,0,0,0,.14.07.11.11,0,0,0,.07-.06.16.16,0,0,0-.11-.07A.09.09,0,0,0,59.36,36.6Z"/><circle class="cls-52" cx="59.43" cy="36.59" r="0.03" transform="translate(-6.83 14.66) rotate(-13.31)"/><path class="cls-50" d="M53.3,36.31c.41,0,.49.14.75.22,0,0-.07,0-.19,0a.47.47,0,0,0,.26.11c.09,0,0,0-.1,0a.28.28,0,0,0,.09,0l-.13,0a.47.47,0,0,0,.32,0,.44.44,0,0,1-.45-.05.36.36,0,0,0,.25.15s0,0,0,0a.36.36,0,0,1-.22-.06l.05,0s0,0,0,0-.21-.2-.37-.3a2.37,2.37,0,0,1,.18.21s0,0,0,0a.61.61,0,0,0-.41-.26s.06,0,0,0-.12,0-.12,0,.15,0,.17,0S53.29,36.31,53.3,36.31Z"/><path class="cls-46" d="M58.56,36.08a.57.57,0,0,0,.32.1A.14.14,0,0,0,59,36C59,36.12,58.78,36.18,58.56,36.08Z"/><path class="cls-50" d="M58.7,36.52c-.15.09-.3,0-.42.29a0,0,0,0,0,0,0c.13,0,.44,0,.49-.29C58.82,36.53,58.75,36.49,58.7,36.52Z"/><path class="cls-55" d="M58.07,40.09a.64.64,0,0,1-.25-.08l0,.05A.32.32,0,0,0,58.07,40.09Z"/><path class="cls-55" d="M58,40.19s-.4.05-.5-.16C57.52,40.34,57.86,40.22,58,40.19Z"/><path class="cls-44" d="M53.52,37.07a.7.7,0,0,1,.33.05,6.52,6.52,0,0,0,3.13.8l-.08-.34a3.3,3.3,0,0,1-3-.68.26.26,0,0,0-.39.16Z"/><path class="cls-44" d="M59,37.23h0Z"/><path class="cls-44" d="M57.67,38.2h0a1,1,0,0,0,.4,0c.45-.11.47-.55.81-.86-.27.19-.91.63-1.2.43Z"/><path class="cls-59" d="M51.83,36.32c.3.33.72,0,1.28,0-.66,0-.81.21-1.16,0s-.2-.37-.08-.65a1.8,1.8,0,0,1,.17-.3V35h0C52,35.09,51.5,36,51.83,36.32Z"/><path class="cls-61" d="M113.21,32.55c-.22.14-.43.31-.65.45s-.51.31-.6.39a1.65,1.65,0,0,1,.21.06c.23-.05,1.19-.62,1.31-.52s-.8.71-.91.8a.44.44,0,0,0,.18.06,5.64,5.64,0,0,0,1.46-.72c.3-.21.76-.22,1.07-.39s1.18-.72,1.26-1a.64.64,0,0,0-.64-.69,5.78,5.78,0,0,0-1.66.74c-.19.12-.36.26-.54.39S113.27,32.54,113.21,32.55Z"/><path class="cls-58" d="M116,30.65l0,.13a.7.7,0,0,1-.2-.22h0a1.4,1.4,0,0,1-.14-.71.69.69,0,0,0-.08-.32h0a1,1,0,0,0-.41-.38l.31-.16a2.73,2.73,0,0,1,.29.87c0,.43.08.61.24.77Z"/><path class="cls-62" d="M115.9,30.67c.14.22.27.2.42.32s0,0-.09-.09a.3.3,0,0,1,.17.09s0,0,0-.06l.06,0a.17.17,0,0,0-.06-.06.28.28,0,0,1,.14.16c0,.05,0-.19-.2-.22a.25.25,0,0,1,.19.08h0a.22.22,0,0,0-.12-.1h.05s0,0,0,0-.2,0-.32-.08h.2s0,0,0,0a.43.43,0,0,1-.31-.12s0,0,0,0l-.07,0s.06.08.05.09S115.9,30.66,115.9,30.67Z"/><path class="cls-59" d="M115.79,30.56h0a1.4,1.4,0,0,1-.14-.71.69.69,0,0,0-.08-.32.82.82,0,0,1,.11.31A6.16,6.16,0,0,0,115.79,30.56Z"/><path class="cls-63" d="M114.65,31.93l.06-.11a.18.18,0,0,1-.13.05.69.69,0,0,0,.1-.2.25.25,0,0,1,.25,0v0C115,32,114.73,31.93,114.65,31.93Z"/><path class="cls-63" d="M115.27,32.26l.06-.11a.18.18,0,0,1-.13.05.69.69,0,0,0,.1-.2s.17-.08.25,0v0C115.58,32.3,115.35,32.27,115.27,32.26Z"/><path class="cls-64" d="M115.2,32.21a.4.4,0,0,0,.15-.1l0,0A.19.19,0,0,1,115.2,32.21Z"/><path class="cls-64" d="M115.27,32.26s.26,0,.29-.2C115.58,32.3,115.35,32.27,115.27,32.26Z"/><path class="cls-64" d="M114.58,31.87a.4.4,0,0,0,.15-.1l0,0A.19.19,0,0,1,114.58,31.87Z"/><path class="cls-64" d="M114.65,31.93s.26,0,.29-.2C115,32,114.73,31.93,114.65,31.93Z"/><path class="cls-63" d="M112,33.45l.06-.11a.18.18,0,0,1-.13.05.69.69,0,0,0,.1-.2.61.61,0,0,1,.25,0v0C112.34,33.48,112.11,33.45,112,33.45Z"/><path class="cls-64" d="M112,33.39a.4.4,0,0,0,.15-.1l0,0A.19.19,0,0,1,112,33.39Z"/><path class="cls-64" d="M112,33.45s.26,0,.29-.2C112.34,33.48,112.11,33.45,112,33.45Z"/><path class="cls-62" d="M111,30.88s-.06-.22-.16-.27-.36,0-.37,0a.42.42,0,0,0,.47.3Z"/><path class="cls-65" d="M110.83,30.75a.27.27,0,0,0-.24-.08,0,0,0,0,0,0,0,.33.33,0,0,0,.21.16A.07.07,0,0,0,110.83,30.75Z"/><path class="cls-45" d="M111,30.7l-.12.15a.42.42,0,0,1-.14-.24.34.34,0,0,1,0,0,.35.35,0,0,1,0-.1,0,0,0,0,1,.05,0l.06.1.09.11Z"/><path class="cls-46" d="M111,30.7l-.12.15a.42.42,0,0,1-.14-.24s.1.22.21.06Z"/><path class="cls-42" d="M114.91,30.53a.4.4,0,0,0,0,.23c0,.06,0,.1,0,.22a1,1,0,0,0,0,.49c0,.08,0,.11,0,.23s-.28.11-.25,0a1,1,0,0,0,0-.63c-.08-.22-.24-.27-.33-.6a2.84,2.84,0,0,1-.08-.55.51.51,0,0,1,.6-.42h0c.09,0,.15.2.15.2h0L115,30C115,30.19,114.92,30.38,114.91,30.53Z"/><path class="cls-42" d="M111.85,31.65a7.66,7.66,0,0,1,.17.78c0,.13,0,.16,0,.27s0,.49,0,.49.08.12.25,0c0-.09,0-.12,0-.19s-.07-.06,0-.33.06-.24,0-.34a5.31,5.31,0,0,1,0-.91A.36.36,0,0,0,111.85,31.65Z"/><path class="cls-60" d="M115,31.31s-.06-.05-.06-.11a.78.78,0,0,1,0-.1L115,31a1.19,1.19,0,0,1,0,.14C115,31.23,115,31.3,115,31.31Z"/><path class="cls-60" d="M114.83,31a1.1,1.1,0,0,1,0,.16c0,.06,0,.1-.08.1s0-.07,0-.12a.82.82,0,0,1,0-.1Z"/><path class="cls-60" d="M114.66,31a1.17,1.17,0,0,1-.09.13s-.08.09-.11.07,0-.08,0-.13l.06-.08Z"/><path class="cls-63" d="M112.64,33.78l.06-.11a.18.18,0,0,1-.13.05.69.69,0,0,0,.1-.2.22.22,0,0,1,.25,0v0C113,33.82,112.72,33.79,112.64,33.78Z"/><path class="cls-48" d="M115.23,30.86a.63.63,0,0,1-.2.28c-.31.23-.69-.18-.69-.18-.07-.26.19-.46.45-.52S115.39,30.47,115.23,30.86Z"/><path class="cls-60" d="M115.23,30.86a.63.63,0,0,1-.2.28c-.07-.08-.14-.27-.45-.09-.11.06.22-.52.21-.62C115.09,30.37,115.39,30.47,115.23,30.86Z"/><path class="cls-43" d="M115.65,30h0v.05a1.24,1.24,0,0,1-.24.48l0,0-.09.07a.92.92,0,0,1-.34.14.42.42,0,0,0-.2.1,4,4,0,0,1-1.83,1.1h0l-.09,0,0,0a.68.68,0,0,1-.25.26h0a.54.54,0,0,1-.25.06.42.42,0,0,1-.32-.17,1.5,1.5,0,0,0-.31-.31h0l-.08,0h0l-.11,0h-.09l-.12,0a.58.58,0,0,1-.27-.39l0-.07a1.66,1.66,0,0,1,.08-.66h0a1.67,1.67,0,0,0,.6-.24l.13-.1.07-.09a.54.54,0,0,1,.15-.15,5.18,5.18,0,0,1,1-.51h0l.16-.06.45-.17.1,0a2.13,2.13,0,0,0,.51-.33c.11-.09.21-.19.29-.27s.22-.22.28-.22a.51.51,0,0,1,.26.09.9.9,0,0,0,.23.12c.08,0,.17,0,.21.16l0,.1c0,.09.05.2.08.34l0,.14A1.79,1.79,0,0,1,115.65,30Z"/><path class="cls-43" d="M115.65,30h0l-.05.33c0,.18-.06.37-.07.51a.4.4,0,0,0,0,.23c0,.07,0,.1,0,.22a1,1,0,0,0,0,.49c0,.08,0,.11,0,.23s-.28.11-.25,0a1,1,0,0,0,0-.63c-.08-.22-.24-.26-.33-.6a2.84,2.84,0,0,1-.08-.55.52.52,0,0,1,0-.15.51.51,0,0,1,.28-.25.47.47,0,0,1,.27,0h0C115.6,29.85,115.65,30,115.65,30Z"/><path class="cls-66" d="M115,29.93a.32.32,0,0,1-.07.22l-.08.09c-.15.16-.2.22-.42.23h0c-.29,0-.34.38-.6.46s-.16-.52-.23-.68-.13-.17-.17-.27-.06-.22-.14-.28-.18-.09-.26-.15l0,0,.16-.06.45-.17.1,0a2.13,2.13,0,0,0,.51-.33.66.66,0,0,1,.22,0c.37.13.2.36.37.63S115,29.74,115,29.93Z"/><path class="cls-66" d="M115.65,30h0l-.05.33c0,.18-.06.37-.07.51a.85.85,0,0,0,0,.13c-.12,0-.17,0-.2-.11a.88.88,0,0,1,0-.24,4.76,4.76,0,0,0,0-.61c0-.11,0-.21,0-.32a.5.5,0,0,0-.06-.23c0-.06-.11-.1-.14-.17v0a1,1,0,0,1,0-.31,1.29,1.29,0,0,0-.09-.42.9.9,0,0,0,.23.12c.08,0,.17,0,.21.16l0,.1c0,.09.05.2.08.34l0,.14A1.79,1.79,0,0,1,115.65,30Z"/><path class="cls-43" d="M112.93,33.55h0a.19.19,0,0,1-.14,0h0a.15.15,0,0,1-.06,0s.07-.38,0-.49,0-.14,0-.27a3.49,3.49,0,0,0-.09-.46l-.08-.31a.35.35,0,0,1,.26-.21.47.47,0,0,1,.21,0V32a3.26,3.26,0,0,0,0,.72c.06.1,0,.21,0,.34s0,.25,0,.32S112.91,33.47,112.93,33.55Z"/><path class="cls-43" d="M111.67,31.56a.46.46,0,0,1-.1.28.52.52,0,0,1-.34.2.84.84,0,0,0-.32.12h0l-.14.1s-.3-.23-.36-.41a1.45,1.45,0,0,0,.15-.25l.05-.12c.08-.19.12-.33.18-.5l0,0a1.58,1.58,0,0,1,.1-.2.18.18,0,0,1,.13-.1c.23,0,.55.56.61.84A.36.36,0,0,1,111.67,31.56Z"/><g class="cls-53"><path class="cls-54" d="M115.65,30h0l-.05.33c0,.18-.06.37-.07.51a.85.85,0,0,0,0,.13.2.2,0,0,0,0,.1c0,.07,0,.1,0,.22a1,1,0,0,0,0,.49c0,.08,0,.11,0,.23s-.28.11-.25,0a1,1,0,0,0,0-.63c-.08-.22-.24-.26-.33-.6a.42.42,0,0,0-.2.1,4,4,0,0,1-1.83,1.1h0a3.26,3.26,0,0,0,0,.72c.06.1,0,.21,0,.34s0,.25,0,.32,0,.1,0,.19h0a.19.19,0,0,1-.14,0h0a.16.16,0,0,0,.15-.12,1.56,1.56,0,0,0,0-.25c0-.13.08-.25.08-.38a1.59,1.59,0,0,0-.08-.31c0-.12,0-.25,0-.37a.68.68,0,0,0,0-.1c0-.09-.06-.17-.08-.26a.49.49,0,0,1,0-.33c.07-.18.23-.17.41-.17a2.54,2.54,0,0,0,.52,0,1,1,0,0,0,.44-.32,1.22,1.22,0,0,0,.29-.35l.06-.11a2,2,0,0,0,.13-.33c0-.13,0-.48.25-.32a.4.4,0,0,1,.1.19l0,.05,0,.07c0,.08.08.17.14.17s.1-.07.12-.13a.75.75,0,0,0,0-.36v0c0-.14-.16-.27-.13-.42a.22.22,0,0,1,0-.08l0,0c.07-.08.14-.08.22-.14s.09-.14.15-.16h0c0,.09.05.2.08.34l0,.14A1.79,1.79,0,0,1,115.65,30Z"/></g><path class="cls-66" d="M112.87,30.57c0,.08-.13.12-.16.2s0,.32,0,.47c-.12.37-.35.07-.53.28a.5.5,0,0,0-.07.28.73.73,0,0,1-.08.31l0,.07a1.5,1.5,0,0,0-.31-.31h0l-.08,0h0a.52.52,0,0,1-.34.2.84.84,0,0,0-.32.12h0l-.14.1s-.3-.23-.36-.41a1.45,1.45,0,0,0,.15-.25l.05-.12a2.67,2.67,0,0,0,.1-.25s0,.3.06.24.1-.07.15-.1a.39.39,0,0,1,.1,0c.06,0,.1-.08.16-.1s.09,0,.08-.1a.49.49,0,0,0,0-.14.16.16,0,0,0-.15-.08s-.05,0-.09,0l-.08,0h0l0-.08a.18.18,0,0,1,.13-.1h0a1.67,1.67,0,0,0,.6-.24l.13-.1.07-.09a.54.54,0,0,1,.15-.15h0c.12,0,.22.09.34.1s.48-.09.53.18A.46.46,0,0,1,112.87,30.57Z"/><path class="cls-67" d="M110.8,32.23a.21.21,0,0,1-.18.11.33.33,0,0,1-.16-.05.3.3,0,0,1-.12-.13.24.24,0,0,1,.08-.31c.08,0,.06,0,.15.11s.16,0,.2,0A.2.2,0,0,1,110.8,32.23Z"/><g class="cls-53"><path class="cls-54" d="M112.47,32s.08.31.08.32a.54.54,0,0,1-.25.06c-.29,0-.37-.32-.63-.48h0l-.08,0h0a.52.52,0,0,1-.34.2.84.84,0,0,0-.32.12.85.85,0,0,1,.26-.13c.13-.06.22-.08.29-.22s.23-.24.44-.18a.58.58,0,0,0,.25,0h.13a.2.2,0,0,1,.16.15.45.45,0,0,1,0,.11A.49.49,0,0,1,112.47,32Z"/></g><path class="cls-45" d="M111.72,30.82a.21.21,0,0,1,0,.11h0a.36.36,0,0,1-.19.12c-.06,0-.11,0-.11-.1a.07.07,0,0,1,0-.07h0a.32.32,0,0,0,.23-.13,0,0,0,0,1,0,0A.25.25,0,0,1,111.72,30.82Z"/><path class="cls-62" d="M111.51,31.25a.07.07,0,0,1,.06-.07.68.68,0,0,1,.32,0,.53.53,0,0,1,.16.26,0,0,0,0,1,0,0s-.19.13-.42,0a.27.27,0,0,1-.1-.19Z"/><path class="cls-68" d="M110.38,32.08s-.09,0,0-.13.07,0,.07,0Z"/><path class="cls-68" d="M110.56,32.15c0-.06.09,0,.13-.06s.06.07,0,.11S110.61,32.23,110.56,32.15Z"/><path class="cls-69" d="M110.55,32.14c0-.06.08,0,.13,0S110.68,32.31,110.55,32.14Z"/><path class="cls-69" d="M110.43,32.08c.07,0,0-.06,0-.12S110.26,32.1,110.43,32.08Z"/><path class="cls-62" d="M111.26,31.45s0,.08-.07.08-.05,0-.08,0l0,0a.11.11,0,0,1,.06-.07.05.05,0,0,1,.07,0Z"/><path class="cls-65" d="M111.26,31.44a.09.09,0,0,1-.07.07.07.07,0,0,1-.05,0,.11.11,0,0,1,.06-.07A.05.05,0,0,1,111.26,31.44Z"/><circle class="cls-52" cx="111.21" cy="31.45" r="0.02"/><path class="cls-46" d="M111.68,30.93a.36.36,0,0,1-.19.12c-.06,0-.11,0-.11-.1S111.56,31,111.68,30.93Z"/><path class="cls-65" d="M111.66,31.28c.11,0,.19,0,.3.14a0,0,0,0,1,0,0c-.08,0-.28.06-.35-.12A0,0,0,0,1,111.66,31.28Z"/><path class="cls-64" d="M112.58,33.73a.4.4,0,0,0,.15-.1l0,0A.19.19,0,0,1,112.58,33.73Z"/><path class="cls-64" d="M112.64,33.78s.26,0,.29-.2C113,33.82,112.72,33.79,112.64,33.78Z"/><path class="cls-44" d="M115,30.79a.42.42,0,0,0-.2.1,4,4,0,0,1-1.83,1.1v-.26a2,2,0,0,0,1.76-1,.15.15,0,0,1,.27.05Z"/><path class="cls-44" d="M111.57,31.84h0Z"/><path class="cls-44" d="M112.54,32.3h0a.54.54,0,0,1-.25.06c-.29,0-.37-.32-.63-.48.19.09.66.29.81.11Z"/><path class="cls-68" d="M110.43,31.88s.05.07.12.1.15,0,.15,0-.1.08-.2,0S110.41,31.88,110.43,31.88Z"/><path class="cls-70" d="M111.85,31.51a.08.08,0,0,1,0-.06v0l0,0h0v0s0,0,0,0h0v.12l.12.07h0v-.13Z"/><path class="cls-71" d="M111.8,31.45v0l0,0h0v0s0,0,0,0h0v.13l.13.07h0v-.13A.08.08,0,0,1,111.8,31.45Z"/><path class="cls-70" d="M111.78,31.44s0,0,0,0a0,0,0,0,1,0,0s0,0,0,0A0,0,0,0,1,111.78,31.44Z"/><path class="cls-70" d="M110.74,30.89a.08.08,0,0,1,0-.06v0l0,0h0v0s0,0,0,0h0V31l.12.07h0v-.13Z"/><path class="cls-71" d="M110.69,30.84v0l0,0h0v0s0,0,0,0h0V31l.13.07h0V30.9A.08.08,0,0,1,110.69,30.84Z"/><path class="cls-70" d="M110.68,30.82s0,0,0,0a0,0,0,0,1,0,0s0,0,0,0A0,0,0,0,1,110.68,30.82Z"/></g></g></svg>