<?xml version="1.0" encoding="UTF-8" standalone="no"?>
<svg
   xmlns:dc="http://purl.org/dc/elements/1.1/"
   xmlns:cc="http://creativecommons.org/ns#"
   xmlns:rdf="http://www.w3.org/1999/02/22-rdf-syntax-ns#"
   xmlns:svg="http://www.w3.org/2000/svg"
   xmlns="http://www.w3.org/2000/svg"
   xmlns:xlink="http://www.w3.org/1999/xlink"
   xmlns:sodipodi="http://sodipodi.sourceforge.net/DTD/sodipodi-0.dtd"
   xmlns:inkscape="http://www.inkscape.org/namespaces/inkscape"
   preserveAspectRatio="none"
   viewBox="0 0 1438.83 272.03634"
   version="1.1"
   id="svg71"
   sodipodi:docname="soil.svg"
   width="1438.83"
   height="272.03635"
   inkscape:version="0.92.2 (5c3e80d, 2017-08-06)">
  <metadata
     id="metadata75">
    <rdf:RDF>
      <cc:Work
         rdf:about="">
        <dc:format>image/svg+xml</dc:format>
        <dc:type
           rdf:resource="http://purl.org/dc/dcmitype/StillImage" />
        <dc:title>Artboard 1</dc:title>
      </cc:Work>
    </rdf:RDF>
  </metadata>
  <sodipodi:namedview
     pagecolor="#ffffff"
     bordercolor="#666666"
     borderopacity="1"
     objecttolerance="10"
     gridtolerance="10"
     guidetolerance="10"
     inkscape:pageopacity="0"
     inkscape:pageshadow="2"
     inkscape:window-width="3840"
     inkscape:window-height="2004"
     id="namedview73"
     showgrid="false"
     fit-margin-top="0"
     fit-margin-left="0"
     fit-margin-right="0"
     fit-margin-bottom="0"
     inkscape:zoom="0.45902778"
     inkscape:cx="719.11"
     inkscape:cy="138.11041"
     inkscape:window-x="-16"
     inkscape:window-y="-16"
     inkscape:window-maximized="1"
     inkscape:current-layer="svg71" />
  <defs
     id="defs40">
    <style
       id="style2">.cls-1{isolation:isolate;}.cls-2{fill:url(#radial-gradient);}.cls-3{fill:url(#radial-gradient-2);}.cls-4{fill:url(#linear-gradient);}.cls-5{fill:url(#linear-gradient-2);}.cls-6{fill:url(#linear-gradient-3);}.cls-12,.cls-7{opacity:0.4;mix-blend-mode:screen;}.cls-7{fill:url(#linear-gradient-4);}.cls-8{fill:url(#linear-gradient-5);}.cls-9{fill:url(#linear-gradient-6);}.cls-10{fill:url(#linear-gradient-7);}.cls-11{fill:url(#linear-gradient-8);}.cls-12{fill:url(#linear-gradient-9);}.cls-13{fill:url(#linear-gradient-10);}</style>
    <radialGradient
       id="radial-gradient"
       cx="2323.6499"
       cy="63.32"
       r="18.190001"
       gradientTransform="matrix(-0.9,0,0,1.45,2565.28,-63.1)"
       gradientUnits="userSpaceOnUse">
      <stop
         offset="0.31"
         stop-color="#dce58c"
         id="stop4" />
      <stop
         offset="0.62"
         stop-color="#becb5f"
         id="stop6" />
      <stop
         offset="1"
         stop-color="#6b7e3c"
         id="stop8" />
    </radialGradient>
    <radialGradient
       id="radial-gradient-2"
       cx="2543.46"
       cy="62.66"
       r="18.200001"
       xlink:href="#radial-gradient" />
    <linearGradient
       id="linear-gradient"
       x1="359.95001"
       y1="111.85"
       x2="359.95001"
       y2="234.71001"
       gradientUnits="userSpaceOnUse">
      <stop
         offset="0.35"
         stop-color="#6c391c"
         id="stop12" />
      <stop
         offset="1"
         stop-color="#452a0f"
         id="stop14" />
    </linearGradient>
    <linearGradient
       id="linear-gradient-2"
       x1="359.95001"
       y1="107.12"
       x2="359.95001"
       y2="181.89999"
       gradientUnits="userSpaceOnUse">
      <stop
         offset="0.12"
         stop-color="#7b4626"
         id="stop17" />
      <stop
         offset="0.53"
         stop-color="#6c391e"
         id="stop19" />
      <stop
         offset="0.88"
         stop-color="#6e3b1c"
         id="stop21" />
    </linearGradient>
    <linearGradient
       id="linear-gradient-3"
       x1="359.95001"
       y1="31.48"
       x2="359.95001"
       y2="113.22"
       gradientUnits="userSpaceOnUse">
      <stop
         offset="0.18"
         stop-color="#9c673f"
         id="stop24" />
      <stop
         offset="0.69"
         stop-color="#8b5531"
         id="stop26" />
    </linearGradient>
    <linearGradient
       id="linear-gradient-4"
       x1="359.95999"
       y1="32.720001"
       x2="359.95999"
       y2="119.43"
       xlink:href="#linear-gradient-3" />
    <linearGradient
       id="linear-gradient-5"
       x1="1.92"
       y1="252.78"
       x2="720.06"
       y2="252.78"
       gradientUnits="userSpaceOnUse">
      <stop
         offset="0.35"
         stop-color="#53391c"
         id="stop30" />
      <stop
         offset="1"
         stop-color="#3c1f0f"
         id="stop32" />
    </linearGradient>
    <linearGradient
       id="linear-gradient-6"
       x1="1078.47"
       y1="112.35"
       x2="1078.47"
       y2="235.21001"
       xlink:href="#linear-gradient" />
    <linearGradient
       id="linear-gradient-7"
       x1="1078.47"
       y1="107.62"
       x2="1078.47"
       y2="182.39999"
       xlink:href="#linear-gradient-2" />
    <linearGradient
       id="linear-gradient-8"
       x1="1078.47"
       y1="31.99"
       x2="1078.47"
       y2="113.72"
       xlink:href="#linear-gradient-3" />
    <linearGradient
       id="linear-gradient-9"
       x1="1078.48"
       y1="33.220001"
       x2="1078.48"
       y2="119.93"
       xlink:href="#linear-gradient-3" />
    <linearGradient
       id="linear-gradient-10"
       x1="-31.709999"
       y1="256.70001"
       x2="826.81"
       y2="256.70001"
       gradientTransform="matrix(-0.85,0,0,1,1412.4,0)"
       xlink:href="#linear-gradient-5" />
    <radialGradient
       inkscape:collect="always"
       xlink:href="#radial-gradient"
       id="radialGradient77"
       gradientUnits="userSpaceOnUse"
       gradientTransform="matrix(-0.9,0,0,1.45,2565.28,-63.1)"
       cx="2323.6499"
       cy="63.32"
       r="18.190001" />
    <linearGradient
       inkscape:collect="always"
       xlink:href="#linear-gradient"
       id="linearGradient79"
       gradientUnits="userSpaceOnUse"
       x1="359.95001"
       y1="111.85"
       x2="359.95001"
       y2="234.71001" />
    <linearGradient
       inkscape:collect="always"
       xlink:href="#linear-gradient-2"
       id="linearGradient81"
       gradientUnits="userSpaceOnUse"
       x1="359.95001"
       y1="107.12"
       x2="359.95001"
       y2="181.89999" />
    <linearGradient
       inkscape:collect="always"
       xlink:href="#linear-gradient-3"
       id="linearGradient83"
       gradientUnits="userSpaceOnUse"
       x1="359.95001"
       y1="31.48"
       x2="359.95001"
       y2="113.22" />
    <linearGradient
       inkscape:collect="always"
       xlink:href="#linear-gradient-5"
       id="linearGradient85"
       gradientUnits="userSpaceOnUse"
       x1="1.92"
       y1="252.78"
       x2="720.06"
       y2="252.78" />
  </defs>
  <title
     id="title42">Artboard 1</title>
  <g
     class="cls-1"
     id="g69"
     style="isolation:isolate"
     transform="translate(-0.89,-13.079058)">
    <g
       id="Layer_1"
       data-name="Layer 1">
      <path
         class="cls-2"
         d="m 489.34,30.88 c 0,0.75 3.79,1.36 8.47,1.36 4.68,0 8.46,-0.61 8.46,-1.36 0,-0.75 -3.78,-1.35 -8.46,-1.35 -4.68,0 -8.47,0.6 -8.47,1.35 z"
         id="path44"
         inkscape:connector-curvature="0"
         style="fill:url(#radialGradient77)" />
      <path
         class="cls-3"
         d="m 291.52,29.92 c 0,0.76 3.8,1.37 8.47,1.37 4.67,0 8.47,-0.61 8.47,-1.37 0,-0.76 -3.79,-1.34 -8.47,-1.34 -4.68,0 -8.47,0.6 -8.47,1.34 z"
         id="path46"
         inkscape:connector-curvature="0"
         style="fill:url(#radial-gradient-2)" />
      <path
         class="cls-4"
         d="m 716.83,16 c -0.52,-0.23 -1,-1.86 -2.39,-0.9 -0.67,0.46 -0.41,0.42 -1.15,0.28 -0.74,-0.14 -1.52,0.72 -1.9,1.22 -0.38,0.5 -1.52,-0.45 -3.43,-0.32 -0.65,-1.86 -2.94,-2.75 -4.9,-3 a 2.81,2.81 0 0 0 -3,1.53 c -0.4,0.57 -0.62,0.51 -2.56,0.77 -1.94,0.26 -3.75,0.42 -4.5,-0.58 -0.75,-1 -1.87,-1 -3.73,0.77 -2.47,1.66 -5.46,-0.13 -7.93,-1 A 2.41,2.41 0 0 0 678,16.3 c -0.26,0.51 -1.69,0.25 -2.86,0 -1.17,-0.25 -2.35,-1.54 -3.77,-2.24 -2.21,-0.9 -4.9,2 -5.59,2.75 -0.69,0.75 -2.82,0.45 -5.29,0.76 a 24.66,24.66 0 0 1 -7.15,-0.25 c -2.25,-1.85 -3.38,-1.2 -4.67,-0.45 -1.29,0.75 -1.74,0.7 -3.21,0.25 -1.47,-0.45 -3.59,-0.18 -4.5,-0.77 a 5.09,5.09 0 0 0 -4.42,0 c -1,-0.89 -2.17,-2.74 -4.51,-2.87 -2.34,-0.13 -2.47,0.32 -5.5,3.13 -0.09,-1.15 -1.69,-1.66 -2.29,-1.91 -0.6,-0.25 -2,2.87 -2,2.87 -2.33,-1.35 -3.81,0.77 -4.28,1 -0.47,0.23 -2.52,-1.54 -4.9,-3.06 a 2.71,2.71 0 0 0 -1.93,-0.5 2.76,2.76 0 0 0 -0.47,-1 c -0.44,-0.51 -2.21,0.25 -2.81,0.9 a 2.38,2.38 0 0 1 -2.26,0.44 c -0.73,-0.12 -1.51,0.72 -1.91,1.22 -0.4,0.5 -1.51,-0.45 -3.42,-0.32 -0.64,-1.86 -2.94,-2.75 -4.89,-3 a 2.83,2.83 0 0 0 -3,1.53 c -0.4,0.57 -0.6,0.51 -2.56,0.77 -1.96,0.26 -3.81,0.45 -4.58,-0.55 -0.77,-1 -1.86,-1 -3.73,0.77 -2.47,1.66 -5.46,-0.13 -7.92,-1 a 2.42,2.42 0 0 0 -3.39,1.48 c -0.26,0.51 -1.68,0.25 -2.86,0 -1.18,-0.25 -2.33,-1.54 -3.77,-2.24 -2.21,-0.9 -4.9,2 -5.59,2.75 -0.69,0.75 -2.81,0.45 -5.29,0.76 a 24.6,24.6 0 0 1 -7.14,-0.25 c -2.26,-1.85 -3.38,-1.2 -4.69,-0.45 -1.31,0.75 -1.73,0.7 -3.2,0.25 -1.47,-0.45 -3.59,-0.18 -4.5,-0.77 a 5.09,5.09 0 0 0 -4.42,0 c -1,-0.89 -2.16,-2.74 -4.5,-2.87 -2.34,-0.13 -2.48,0.32 -5.51,3.13 -0.09,-1.15 -1.69,-1.66 -2.29,-1.91 -0.6,-0.25 -2,2.87 -2,2.87 -2.35,-1.35 -3.81,0.77 -4.29,1 -0.48,0.23 -2.51,-1.54 -4.9,-3.06 a 2.55,2.55 0 0 0 -3.16,0 3.21,3.21 0 0 0 -0.59,-1.52 c -0.43,-0.51 -2.2,0.25 -2.82,0.9 a 2.37,2.37 0 0 1 -2.26,0.44 c -0.73,-0.12 -1.51,0.72 -1.9,1.22 -0.39,0.5 -1.52,-0.45 -3.43,-0.32 -0.65,-1.86 -2.94,-2.75 -4.9,-3 a 2.83,2.83 0 0 0 -3,1.53 c -0.4,0.57 -0.61,0.51 -2.55,0.77 -1.94,0.26 -3.74,0.38 -4.47,-0.58 -0.73,-0.96 -1.86,-1 -3.73,0.77 -2.47,1.66 -5.45,-0.13 -7.93,-1 a 2.41,2.41 0 0 0 -3.38,1.48 c -0.26,0.51 -1.69,0.25 -2.85,0 -1.16,-0.25 -2.35,-1.54 -3.78,-2.24 -2.21,-0.9 -4.9,2 -5.59,2.75 -0.69,0.75 -2.82,0.45 -5.29,0.76 a 24.65,24.65 0 0 1 -7.15,-0.25 c -2.26,-1.85 -3.38,-1.2 -4.68,-0.45 -1.3,0.75 -1.74,0.7 -3.22,0.25 -1.48,-0.45 -3.6,-0.18 -4.5,-0.77 a 5.09,5.09 0 0 0 -4.42,0 c -1,-0.89 -2.18,-2.74 -4.5,-2.87 -2,-0.1 -2.38,0.19 -4.28,2 a 4.41,4.41 0 0 1 -0.5,-0.07 1.46,1.46 0 0 0 -1.1,0.39 5.3,5.3 0 0 0 -1.91,-1.09 c -0.34,-0.14 -0.94,0.79 -1.41,1.62 a 7.7,7.7 0 0 0 -0.91,0 c -0.65,-1.86 -3,-2.75 -4.9,-3 a 2.84,2.84 0 0 0 -3,1.53 c -0.27,0.4 -0.45,0.49 -1.18,0.59 a 2.56,2.56 0 0 0 -3.17,0.35 c -1.19,0.05 -2.16,-0.09 -2.66,-0.75 -0.74,-1 -1.86,-1 -3.73,0.77 -2.47,1.66 -5.45,-0.13 -7.93,-1 A 2.41,2.41 0 0 0 375,16.3 c -0.25,0.51 -1.69,0.25 -2.86,0 -1.17,-0.25 -2.34,-1.54 -3.77,-2.24 -2.21,-0.9 -4.9,2 -5.6,2.75 -0.7,0.75 -2.8,0.45 -5.27,0.76 a 24.67,24.67 0 0 1 -7.16,-0.25 c -2.25,-1.85 -3.38,-1.2 -4.68,-0.45 -1.3,0.75 -1.74,0.7 -3.21,0.25 -1.47,-0.45 -3.6,-0.18 -4.51,-0.77 a 5.08,5.08 0 0 0 -4.42,0 c -1,-0.89 -2.16,-2.74 -4.51,-2.87 -2.35,-0.13 -2.47,0.32 -5.5,3.13 -0.09,-1.15 -1.68,-1.66 -2.3,-1.91 -0.62,-0.25 -2,2.87 -2,2.87 -2.34,-1.35 -3.82,0.77 -4.29,1 -0.47,0.23 -2.51,-1.54 -4.9,-3.06 a 2.54,2.54 0 0 0 -3.15,0 3.29,3.29 0 0 0 -0.59,-1.52 c -0.42,-0.51 -2.21,0.25 -2.81,0.9 a 2.37,2.37 0 0 1 -2.26,0.44 c -0.74,-0.12 -1.51,0.72 -1.9,1.22 -0.39,0.5 -1.52,-0.45 -3.43,-0.32 -0.65,-1.86 -2.95,-2.75 -4.9,-3 a 2.82,2.82 0 0 0 -3,1.53 c -0.38,0.57 -0.61,0.51 -2.55,0.77 -1.94,0.26 -3.74,0.38 -4.47,-0.58 -0.73,-0.96 -1.87,-1 -3.74,0.77 -2.46,1.66 -5.45,-0.13 -7.93,-1 a 2.41,2.41 0 0 0 -3.38,1.48 c -0.26,0.51 -1.69,0.25 -2.86,0 -1.17,-0.25 -2.33,-1.54 -3.77,-2.24 -2.21,-0.9 -4.89,2 -5.59,2.75 -0.7,0.75 -2.82,0.45 -5.29,0.76 a 24.57,24.57 0 0 1 -7.14,-0.25 c -2.26,-1.85 -3.38,-1.2 -4.68,-0.45 -1.3,0.75 -1.74,0.7 -3.2,0.25 -1.46,-0.45 -3.61,-0.18 -4.51,-0.77 a 5.11,5.11 0 0 0 -4.43,0 c -1,-0.89 -2.16,-2.74 -4.5,-2.87 -2,-0.1 -2.36,0.19 -4.22,1.93 a 3.18,3.18 0 0 1 -1.43,0 1.11,1.11 0 0 0 -0.58,0.08 6.75,6.75 0 0 0 -1.57,-0.77 c -0.36,-0.16 -1,0.88 -1.47,1.75 a 5.39,5.39 0 0 0 -1.71,-0.15 c -0.65,-1.86 -2.95,-2.75 -4.89,-3 a 2.81,2.81 0 0 0 -3,1.53 1.08,1.08 0 0 1 -0.56,0.47 2.54,2.54 0 0 0 -2.86,0.4 c -1.6,0.17 -3,0.14 -3.61,-0.68 -0.61,-0.82 -1.86,-1 -3.72,0.77 -2.47,1.66 -5.45,-0.13 -7.93,-1 a 2.4,2.4 0 0 0 -3.38,1.48 c -0.26,0.51 -1.7,0.25 -2.86,0 -1.16,-0.25 -2.34,-1.54 -3.77,-2.24 -2.21,-0.9 -4.89,2 -5.59,2.75 -0.7,0.75 -2.81,0.45 -5.28,0.76 a 24.71,24.71 0 0 1 -7.16,-0.25 c -2.24,-1.85 -3.37,-1.2 -4.68,-0.45 -1.31,0.75 -1.73,0.7 -3.2,0.25 -1.47,-0.45 -3.6,-0.18 -4.52,-0.77 a 5.08,5.08 0 0 0 -4.42,0 c -1,-0.89 -2.15,-2.74 -4.49,-2.87 -2.34,-0.13 -2.48,0.32 -5.51,3.13 -0.09,-1.15 -1.69,-1.66 -2.3,-1.91 -0.61,-0.25 -2,2.87 -2,2.87 -2.35,-1.35 -3.81,0.77 -4.3,1 -0.49,0.23 -2.5,-1.54 -4.89,-3.06 a 2.56,2.56 0 0 0 -3.16,0 3.37,3.37 0 0 0 -0.57,-1.52 c -0.44,-0.51 -2.22,0.25 -2.83,0.9 a 2.36,2.36 0 0 1 -2.25,0.44 c -0.73,-0.12 -1.51,0.72 -1.91,1.22 -0.4,0.5 -1.51,-0.45 -3.42,-0.32 -0.65,-1.86 -2.94,-2.75 -4.9,-3 a 2.81,2.81 0 0 0 -3,1.53 c -0.4,0.57 -0.62,0.51 -2.56,0.77 C 87.5,15.68 85.55,16 84.82,15 c -0.73,-1 -1.86,-1 -3.72,0.77 -2.47,1.66 -5.46,-0.13 -7.94,-1 a 2.41,2.41 0 0 0 -3.38,1.48 c -0.26,0.51 -1.69,0.25 -2.86,0 -1.17,-0.25 -2.34,-1.54 -3.77,-2.24 -2.22,-0.9 -4.91,2 -5.58,2.75 -0.67,0.75 -2.83,0.45 -5.3,0.76 a 24.68,24.68 0 0 1 -7.15,-0.25 c -2.24,-1.85 -3.38,-1.2 -4.67,-0.45 -1.29,0.75 -1.74,0.7 -3.21,0.25 -1.47,-0.45 -3.6,-0.18 -4.51,-0.77 a 5.07,5.07 0 0 0 -4.41,0 c -1,-0.89 -2.18,-2.74 -4.52,-2.87 -2.34,-0.13 -2.46,0.32 -5.49,3.13 -0.09,-1.15 -1.7,-1.66 -2.3,-1.91 -0.6,-0.25 -2,2.87 -2,2.87 -2.34,-1.35 -3.8,0.77 -4.29,1 -0.49,0.23 -2.16,-2.31 -4.75,-2.31 -2.43,0 -4,0.06 -4,0.06 V 234.42 H 719 V 16.35 A 5.71,5.71 0 0 1 716.83,16 Z"
         id="path48"
         inkscape:connector-curvature="0"
         style="fill:url(#linearGradient79)" />
      <path
         class="cls-5"
         d="m 717.13,16.22 c -0.55,-0.14 -1.3,-1.84 -2.14,-1.43 -0.84,0.41 -1,0.75 -1.7,0.61 -0.7,-0.14 -1.52,0.72 -1.9,1.22 -0.38,0.5 -1.52,-0.45 -3.43,-0.32 -0.65,-1.86 -2.94,-2.75 -4.9,-3 a 2.81,2.81 0 0 0 -3,1.53 c -0.4,0.57 -0.62,0.51 -2.56,0.77 -1.94,0.26 -3.75,0.4 -4.5,-0.6 -0.75,-1 -1.87,-1 -3.73,0.77 -2.47,1.66 -5.46,-0.13 -7.93,-1 A 2.41,2.41 0 0 0 678,16.3 c -0.26,0.51 -1.69,0.25 -2.86,0 -1.17,-0.25 -2.35,-1.54 -3.77,-2.24 -2.21,-0.9 -4.9,2 -5.59,2.75 -0.69,0.75 -2.82,0.45 -5.29,0.76 a 24.66,24.66 0 0 1 -7.15,-0.25 c -2.25,-1.85 -3.38,-1.2 -4.67,-0.45 -1.29,0.75 -1.74,0.7 -3.21,0.25 -1.47,-0.45 -3.59,-0.18 -4.5,-0.77 a 5.09,5.09 0 0 0 -4.42,0 c -1,-0.89 -2.17,-2.74 -4.51,-2.87 -2.34,-0.13 -2.47,0.32 -5.5,3.13 -0.09,-1.15 -1.69,-1.66 -2.29,-1.91 -0.6,-0.25 -2,2.87 -2,2.87 -2.33,-1.35 -3.81,0.77 -4.28,1 -0.47,0.23 -2.52,-1.54 -4.9,-3.06 a 2.71,2.71 0 0 0 -1.93,-0.5 2.76,2.76 0 0 0 -0.47,-1 c -0.44,-0.51 -2.21,0.25 -2.81,0.9 a 2.38,2.38 0 0 1 -2.26,0.44 c -0.73,-0.12 -1.51,0.72 -1.91,1.22 -0.4,0.5 -1.51,-0.45 -3.42,-0.32 -0.64,-1.86 -2.94,-2.75 -4.89,-3 a 2.83,2.83 0 0 0 -3,1.53 c -0.4,0.57 -0.6,0.51 -2.56,0.77 -1.96,0.26 -3.81,0.45 -4.58,-0.55 -0.77,-1 -1.86,-1 -3.73,0.77 -2.47,1.66 -5.46,-0.13 -7.92,-1 a 2.42,2.42 0 0 0 -3.39,1.48 c -0.26,0.51 -1.68,0.25 -2.86,0 -1.18,-0.25 -2.33,-1.54 -3.77,-2.24 -2.21,-0.9 -4.9,2 -5.59,2.75 -0.69,0.75 -2.81,0.45 -5.29,0.76 a 24.6,24.6 0 0 1 -7.14,-0.25 c -2.26,-1.85 -3.38,-1.2 -4.69,-0.45 -1.31,0.75 -1.73,0.7 -3.2,0.25 -1.47,-0.45 -3.59,-0.18 -4.5,-0.77 a 5.09,5.09 0 0 0 -4.42,0 c -1,-0.89 -2.16,-2.74 -4.5,-2.87 -2.34,-0.13 -2.48,0.32 -5.51,3.13 -0.09,-1.15 -1.69,-1.66 -2.29,-1.91 -0.6,-0.25 -2,2.87 -2,2.87 -2.35,-1.35 -3.81,0.77 -4.29,1 -0.48,0.23 -2.51,-1.54 -4.9,-3.06 a 2.55,2.55 0 0 0 -3.16,0 3.21,3.21 0 0 0 -0.59,-1.52 c -0.43,-0.51 -2.2,0.25 -2.82,0.9 a 2.37,2.37 0 0 1 -2.26,0.44 c -0.73,-0.12 -1.51,0.72 -1.9,1.22 -0.39,0.5 -1.52,-0.45 -3.43,-0.32 -0.65,-1.86 -2.94,-2.75 -4.9,-3 a 2.83,2.83 0 0 0 -3,1.53 c -0.4,0.57 -0.61,0.51 -2.55,0.77 -1.94,0.26 -3.74,0.38 -4.47,-0.58 -0.73,-0.96 -1.86,-1 -3.73,0.77 -2.47,1.66 -5.45,-0.13 -7.93,-1 a 2.41,2.41 0 0 0 -3.38,1.48 c -0.26,0.51 -1.69,0.25 -2.85,0 -1.16,-0.25 -2.35,-1.54 -3.78,-2.24 -2.21,-0.9 -4.9,2 -5.59,2.75 -0.69,0.75 -2.82,0.45 -5.29,0.76 a 24.65,24.65 0 0 1 -7.15,-0.25 c -2.26,-1.85 -3.38,-1.2 -4.68,-0.45 -1.3,0.75 -1.74,0.7 -3.22,0.25 -1.48,-0.45 -3.6,-0.18 -4.5,-0.77 a 5.09,5.09 0 0 0 -4.42,0 c -1,-0.89 -2.18,-2.74 -4.5,-2.87 -2,-0.1 -2.38,0.19 -4.28,2 a 4.41,4.41 0 0 1 -0.5,-0.07 1.46,1.46 0 0 0 -1.1,0.39 5.3,5.3 0 0 0 -1.91,-1.09 c -0.34,-0.14 -0.94,0.79 -1.41,1.62 a 7.7,7.7 0 0 0 -0.91,0 c -0.65,-1.86 -3,-2.75 -4.9,-3 a 2.84,2.84 0 0 0 -3,1.53 c -0.27,0.4 -0.45,0.49 -1.18,0.59 a 2.56,2.56 0 0 0 -3.17,0.35 c -1.19,0.05 -2.16,-0.09 -2.66,-0.75 -0.74,-1 -1.86,-1 -3.73,0.77 -2.47,1.66 -5.45,-0.13 -7.93,-1 A 2.41,2.41 0 0 0 375,16.3 c -0.25,0.51 -1.69,0.25 -2.86,0 -1.17,-0.25 -2.34,-1.54 -3.77,-2.24 -2.21,-0.9 -4.9,2 -5.6,2.75 -0.7,0.75 -2.8,0.45 -5.27,0.76 a 24.67,24.67 0 0 1 -7.16,-0.25 c -2.25,-1.85 -3.38,-1.2 -4.68,-0.45 -1.3,0.75 -1.74,0.7 -3.21,0.25 -1.47,-0.45 -3.6,-0.18 -4.51,-0.77 a 5.08,5.08 0 0 0 -4.42,0 c -1,-0.89 -2.16,-2.74 -4.51,-2.87 -2.35,-0.13 -2.47,0.32 -5.5,3.13 -0.09,-1.15 -1.68,-1.66 -2.3,-1.91 -0.62,-0.25 -2,2.87 -2,2.87 -2.34,-1.35 -3.82,0.77 -4.29,1 -0.47,0.23 -2.51,-1.54 -4.9,-3.06 a 2.54,2.54 0 0 0 -3.15,0 3.29,3.29 0 0 0 -0.59,-1.52 c -0.42,-0.51 -2.21,0.25 -2.81,0.9 a 2.37,2.37 0 0 1 -2.26,0.44 c -0.74,-0.12 -1.51,0.72 -1.9,1.22 -0.39,0.5 -1.52,-0.45 -3.43,-0.32 -0.65,-1.86 -2.95,-2.75 -4.9,-3 a 2.82,2.82 0 0 0 -3,1.53 c -0.38,0.57 -0.61,0.51 -2.55,0.77 -1.94,0.26 -3.74,0.38 -4.47,-0.58 -0.73,-0.96 -1.87,-1 -3.74,0.77 -2.46,1.66 -5.45,-0.13 -7.93,-1 a 2.41,2.41 0 0 0 -3.38,1.48 c -0.26,0.51 -1.69,0.25 -2.86,0 -1.17,-0.25 -2.33,-1.54 -3.77,-2.24 -2.21,-0.9 -4.89,2 -5.59,2.75 -0.7,0.75 -2.82,0.45 -5.29,0.76 a 24.57,24.57 0 0 1 -7.14,-0.25 c -2.26,-1.85 -3.38,-1.2 -4.68,-0.45 -1.3,0.75 -1.74,0.7 -3.2,0.25 -1.46,-0.45 -3.61,-0.18 -4.51,-0.77 a 5.11,5.11 0 0 0 -4.43,0 c -1,-0.89 -2.16,-2.74 -4.5,-2.87 -2,-0.1 -2.36,0.19 -4.22,1.93 a 3.18,3.18 0 0 1 -1.43,0 1.11,1.11 0 0 0 -0.58,0.08 6.75,6.75 0 0 0 -1.57,-0.77 c -0.36,-0.16 -1,0.88 -1.47,1.75 a 5.39,5.39 0 0 0 -1.71,-0.15 c -0.65,-1.86 -2.95,-2.75 -4.89,-3 a 2.81,2.81 0 0 0 -3,1.53 1.08,1.08 0 0 1 -0.56,0.47 2.54,2.54 0 0 0 -2.86,0.4 c -1.6,0.17 -3,0.14 -3.61,-0.68 -0.61,-0.82 -1.86,-1 -3.72,0.77 -2.47,1.66 -5.45,-0.13 -7.93,-1 a 2.4,2.4 0 0 0 -3.38,1.48 c -0.26,0.51 -1.7,0.25 -2.86,0 -1.16,-0.25 -2.34,-1.54 -3.77,-2.24 -2.21,-0.9 -4.89,2 -5.59,2.75 -0.7,0.75 -2.81,0.45 -5.28,0.76 a 24.71,24.71 0 0 1 -7.16,-0.25 c -2.24,-1.85 -3.37,-1.2 -4.68,-0.45 -1.31,0.75 -1.73,0.7 -3.2,0.25 -1.47,-0.45 -3.6,-0.18 -4.52,-0.77 a 5.08,5.08 0 0 0 -4.42,0 c -1,-0.89 -2.15,-2.74 -4.49,-2.87 -2.34,-0.13 -2.48,0.32 -5.51,3.13 -0.09,-1.15 -1.69,-1.66 -2.3,-1.91 -0.61,-0.25 -2,2.87 -2,2.87 -2.35,-1.35 -3.81,0.77 -4.3,1 -0.49,0.23 -2.5,-1.54 -4.89,-3.06 a 2.56,2.56 0 0 0 -3.16,0 3.37,3.37 0 0 0 -0.57,-1.52 c -0.44,-0.51 -2.22,0.25 -2.83,0.9 a 2.36,2.36 0 0 1 -2.25,0.44 c -0.73,-0.12 -1.51,0.72 -1.91,1.22 -0.4,0.5 -1.51,-0.45 -3.42,-0.32 -0.65,-1.86 -2.94,-2.75 -4.9,-3 a 2.81,2.81 0 0 0 -3,1.53 c -0.4,0.57 -0.62,0.51 -2.56,0.77 C 87.5,15.68 85.55,16 84.82,15 c -0.73,-1 -1.86,-1 -3.72,0.77 -2.47,1.66 -5.46,-0.13 -7.94,-1 a 2.41,2.41 0 0 0 -3.38,1.48 c -0.26,0.51 -1.69,0.25 -2.86,0 -1.17,-0.25 -2.34,-1.54 -3.77,-2.24 -2.22,-0.9 -4.91,2 -5.58,2.75 -0.67,0.75 -2.83,0.45 -5.3,0.76 a 24.68,24.68 0 0 1 -7.15,-0.25 c -2.24,-1.85 -3.38,-1.2 -4.67,-0.45 -1.29,0.75 -1.74,0.7 -3.21,0.25 -1.47,-0.45 -3.6,-0.18 -4.51,-0.77 a 5.07,5.07 0 0 0 -4.41,0 c -1,-0.89 -2.18,-2.74 -4.52,-2.87 -2.34,-0.13 -2.46,0.32 -5.49,3.13 -0.09,-1.15 -1.7,-1.66 -2.3,-1.91 -0.6,-0.25 -2,2.87 -2,2.87 -2.34,-1.35 -3.8,0.77 -4.29,1 -0.49,0.23 -2.16,-2.31 -4.75,-2.31 -2.43,0 -4,0.06 -4,0.06 v 155.3 c 1.75,0 2.81,0.17 3.54,-0.15 1.14,-0.49 1.34,0.82 3.5,0.82 2.16,0 4.36,0.3 4.89,-0.49 0.53,-0.79 1.62,-0.29 3.29,0.39 1.67,0.68 3,0.31 4.23,1.1 1.23,0.79 3.15,0.69 4.29,1.19 1.14,0.5 1.81,-1.48 4.3,-1.4 2.49,0.08 6.45,0.7 7.45,-0.09 1,-0.79 1.28,-1.4 3.49,-1 a 37.1,37.1 0 0 0 8.8,0.89 c 4.09,-0.11 6.37,-1.59 8.32,-0.89 1.95,0.7 4.1,0.78 7.18,0.69 a 21.25,21.25 0 0 0 6.58,-1 c 1.2,-0.49 1.88,0 3,0.4 1.12,0.4 1.88,-0.59 4,0.1 2.12,0.69 3.22,0.4 4.9,0.4 1.68,0 2.89,-1.19 4.64,-0.6 1.75,0.59 4.56,2.07 6.31,1.19 1.75,-0.88 2.61,-1.19 3.68,-0.88 a 6.55,6.55 0 0 0 3.89,0.09 c 1.34,-0.5 3.16,-0.8 4.17,-0.3 a 6.13,6.13 0 0 0 4.68,-0.07 v 1.27 c 1.13,0.69 2.82,1.59 3.54,1.27 A 6.24,6.24 0 0 1 117,174 c 2.15,0 4.37,0.3 4.91,-0.49 a 2.63,2.63 0 0 1 3.28,-1.29 c 1.68,0.69 3,0.31 4.23,1.1 1.23,0.79 3.16,0.69 4.3,1.19 1.14,0.5 1.81,-1.48 4.3,-1.4 2.49,0.08 6.44,0.7 7.45,-0.09 1.01,-0.79 1.28,-1.4 3.49,-1 a 37.19,37.19 0 0 0 8.79,0.89 c 4.1,-0.11 6.38,-1.59 8.33,-0.89 1.95,0.7 4.09,0.78 7.18,0.69 a 21.27,21.27 0 0 0 6.58,-1 c 1.21,-0.49 1.88,0 3,0.4 1.12,0.4 1.87,-0.59 4,0.1 2.13,0.69 3.23,0.4 4.91,0.4 1.68,0 2.89,-1.19 4.63,-0.6 l 0.56,0.2 v 1.1 c 1.13,0.69 2.82,1.59 3.54,1.27 A 6.21,6.21 0 0 1 204,174 c 2.15,0 4.37,0.3 4.9,-0.49 a 4,4 0 0 1 0.82,-0.92 4.17,4.17 0 0 0 0.58,-0.17 9.3,9.3 0 0 1 1.29,-0.37 3.26,3.26 0 0 1 0.6,0.17 c 1.69,0.69 3,0.31 4.24,1.1 1.24,0.79 3.15,0.69 4.29,1.19 1.14,0.5 1.81,-1.48 4.29,-1.4 2.48,0.08 6.45,0.7 7.45,-0.09 1,-0.79 1.28,-1.4 3.49,-1 a 37.21,37.21 0 0 0 8.8,0.89 c 4.1,-0.11 6.38,-1.59 8.33,-0.89 1.95,0.7 4.09,0.78 7.18,0.69 a 21.11,21.11 0 0 0 6.57,-1 c 1.21,-0.49 1.88,0 3,0.4 1.12,0.4 1.87,-0.59 4,0.1 2.13,0.69 3.23,0.4 4.91,0.4 1.68,0 2.89,-1.19 4.63,-0.6 1.74,0.59 4.56,2.07 6.31,1.19 1.75,-0.88 2.62,-1.19 3.69,-0.88 a 6.53,6.53 0 0 0 3.89,0.09 c 1.35,-0.5 3.15,-0.8 4.16,-0.3 a 6.14,6.14 0 0 0 4.68,-0.07 v 1.27 c 1.12,0.69 2.82,1.59 3.55,1.27 a 6.19,6.19 0 0 1 3.49,-0.6 c 2.15,0 4.36,0.3 4.9,-0.49 a 2.64,2.64 0 0 1 3.29,-1.29 c 1.68,0.69 3,0.31 4.23,1.1 1.23,0.79 3.16,0.69 4.3,1.19 1.14,0.5 1.81,-1.48 4.3,-1.4 2.49,0.08 6.44,0.7 7.45,-0.09 1.01,-0.79 1.27,-1.4 3.5,-1 a 37.08,37.08 0 0 0 8.78,0.89 c 4.1,-0.11 6.38,-1.59 8.33,-0.89 1.95,0.7 4.09,0.78 7.19,0.69 a 21.32,21.32 0 0 0 6.58,-1 c 1.2,-0.49 1.88,0 2.94,0.4 1.06,0.4 1.89,-0.59 4,0.1 2.11,0.69 3.22,0.4 4.89,0.4 1.67,0 2.75,-1.06 4.33,-0.69 v 1.39 c 1.12,0.69 2.81,1.59 3.54,1.27 a 6.24,6.24 0 0 1 3.49,-0.6 c 2.14,0 4.37,0.3 4.9,-0.49 a 4.18,4.18 0 0 1 0.71,-0.83 4.38,4.38 0 0 0 1.55,-0.26 c 0.26,-0.09 0.55,-0.18 0.84,-0.26 l 0.19,0.06 c 1.68,0.69 3,0.31 4.22,1.1 1.22,0.79 3.15,0.69 4.3,1.19 1.15,0.5 1.81,-1.48 4.29,-1.4 2.48,0.08 6.44,0.7 7.46,-0.09 1.02,-0.79 1.27,-1.4 3.49,-1 a 37.14,37.14 0 0 0 8.79,0.89 c 4.09,-0.11 6.38,-1.59 8.33,-0.89 1.95,0.7 4.09,0.78 7.18,0.69 a 21.1,21.1 0 0 0 6.57,-1 c 1.22,-0.49 1.88,0 3,0.4 1.12,0.4 1.89,-0.59 4,0.1 2.11,0.69 3.22,0.4 4.89,0.4 1.67,0 2.89,-1.19 4.64,-0.6 1.75,0.59 4.57,2.07 6.32,1.19 1.75,-0.88 2.62,-1.19 3.69,-0.88 a 6.53,6.53 0 0 0 3.89,0.09 c 1.34,-0.5 3.16,-0.8 4.16,-0.3 a 6.14,6.14 0 0 0 4.69,-0.07 v 1.27 c 1.12,0.69 2.81,1.59 3.54,1.27 a 6.19,6.19 0 0 1 3.49,-0.6 c 2.15,0 4.37,0.3 4.91,-0.49 a 2.63,2.63 0 0 1 3.28,-1.29 c 1.69,0.69 3,0.31 4.23,1.1 1.23,0.79 3.15,0.69 4.29,1.19 1.14,0.5 1.81,-1.48 4.29,-1.4 2.48,0.08 6.45,0.7 7.46,-0.09 1.01,-0.79 1.27,-1.4 3.48,-1 a 37.19,37.19 0 0 0 8.8,0.89 c 4.1,-0.11 6.38,-1.59 8.33,-0.89 1.95,0.7 4.09,0.78 7.18,0.69 a 21.15,21.15 0 0 0 6.57,-1 c 1.21,-0.49 1.89,0 3,0.4 1.11,0.4 1.88,-0.59 4,0.1 2.12,0.69 3.22,0.4 4.9,0.4 1.68,0 2.89,-1.19 4.63,-0.6 1.74,0.59 4.56,2.07 6.31,1.19 1.75,-0.88 2.62,-1.19 3.7,-0.88 a 6.55,6.55 0 0 0 3.89,0.09 c 1.34,-0.5 3.14,-0.8 4.16,-0.3 a 5.85,5.85 0 0 0 3.34,0.33 v 0.87 c 1.13,0.69 2.82,1.59 3.55,1.27 a 6.21,6.21 0 0 1 3.49,-0.6 c 2.15,0 4.37,0.3 4.9,-0.49 a 2.65,2.65 0 0 1 3.29,-1.29 c 1.68,0.69 3,0.31 4.24,1.1 1.24,0.79 3.16,0.69 4.3,1.19 1.14,0.5 1.81,-1.48 4.29,-1.4 2.48,0.08 6.45,0.7 7.45,-0.09 1,-0.79 1.28,-1.4 3.49,-1 a 37.09,37.09 0 0 0 8.79,0.89 c 4.1,-0.11 6.37,-1.59 8.32,-0.89 1.95,0.7 4.1,0.78 7.18,0.69 a 21.17,21.17 0 0 0 6.58,-1 c 1.21,-0.49 1.88,0 2.94,0.4 1.06,0.4 1.89,-0.59 4,0.1 2.11,0.69 3.22,0.4 4.9,0.4 1.68,0 2.89,-1.19 4.63,-0.6 1.74,0.59 4.58,2.07 6.32,1.19 1.74,-0.88 2.62,-1.19 3.69,-0.88 a 6.54,6.54 0 0 0 3.89,0.09 c 1.35,-0.5 3.16,-0.8 4.17,-0.3 1.01,0.5 2.75,-0.47 5.5,-0.47 V 16.35 a 4.57,4.57 0 0 1 -1.84,-0.13 z"
         id="path50"
         inkscape:connector-curvature="0"
         style="fill:url(#linearGradient81)" />
      <path
         class="cls-6"
         d="m 716.27,16.08 c -0.43,-0.5 -0.72,-1.12 -1.27,-0.92 -0.72,0.27 -1,0.8 -1.7,0.67 -0.7,-0.13 -1.52,0.7 -1.9,1.22 -0.38,0.52 -1.52,-0.44 -3.43,-0.32 -0.65,-1.84 -2.94,-2.74 -4.9,-3 a 2.8,2.8 0 0 0 -3,1.54 c -0.4,0.57 -0.62,0.51 -2.56,0.76 -1.94,0.25 -3.74,0.38 -4.47,-0.57 -0.73,-0.95 -1.87,-1 -3.73,0.76 -2.47,1.66 -5.46,-0.13 -7.93,-1 a 2.4,2.4 0 0 0 -3.38,1.5 c -0.26,0.52 -1.69,0.27 -2.86,0 -1.17,-0.27 -2.35,-1.53 -3.77,-2.24 -2.21,-0.89 -4.9,2 -5.59,2.76 -0.69,0.76 -2.82,0.44 -5.29,0.77 a 25.26,25.26 0 0 1 -7.15,-0.26 c -2.25,-1.85 -3.38,-1.22 -4.67,-0.45 -1.29,0.77 -1.74,0.71 -3.21,0.25 -1.47,-0.46 -3.59,-0.19 -4.5,-0.76 a 5,5 0 0 0 -4.42,0 c -1,-0.9 -2.17,-2.76 -4.51,-2.88 -2.34,-0.12 -2.47,0.32 -5.5,3.13 -0.09,-1.15 -1.69,-1.66 -2.29,-1.92 -0.6,-0.26 -2,2.89 -2,2.89 -2.33,-1.34 -3.81,0.75 -4.28,1 -0.47,0.25 -2.6,-1.51 -4.96,-3.01 a 2.79,2.79 0 0 0 -1.93,-0.49 2.74,2.74 0 0 0 -0.47,-1 c -0.44,-0.5 -2.21,0.26 -2.81,0.9 a 2.43,2.43 0 0 1 -2.26,0.44 c -0.73,-0.12 -1.51,0.7 -1.91,1.22 -0.4,0.52 -1.51,-0.44 -3.42,-0.32 -0.64,-1.84 -2.94,-2.74 -4.89,-3 a 2.82,2.82 0 0 0 -3,1.54 c -0.4,0.57 -0.6,0.51 -2.56,0.76 -1.96,0.25 -3.72,0.38 -4.47,-0.57 -0.75,-0.95 -1.86,-1 -3.73,0.76 -2.47,1.66 -5.46,-0.13 -7.92,-1 a 2.41,2.41 0 0 0 -3.39,1.47 c -0.26,0.52 -1.68,0.27 -2.86,0 -1.18,-0.27 -2.33,-1.53 -3.77,-2.24 -2.21,-0.89 -4.9,2 -5.59,2.76 -0.69,0.76 -2.81,0.44 -5.29,0.77 a 25.2,25.2 0 0 1 -7.14,-0.26 c -2.26,-1.85 -3.38,-1.22 -4.69,-0.45 -1.31,0.77 -1.73,0.71 -3.2,0.25 -1.47,-0.46 -3.59,-0.19 -4.5,-0.76 a 5,5 0 0 0 -4.42,0 c -1,-0.9 -2.16,-2.76 -4.5,-2.88 -2.34,-0.12 -2.48,0.32 -5.51,3.13 -0.09,-1.15 -1.69,-1.66 -2.29,-1.92 -0.6,-0.26 -2,2.89 -2,2.89 -2.35,-1.34 -3.81,0.75 -4.29,1 -0.48,0.25 -2.51,-1.54 -4.9,-3.07 A 2.56,2.56 0 0 0 502,16 3.34,3.34 0 0 0 501.41,14.48 c -0.43,-0.5 -2.2,0.26 -2.82,0.9 a 2.41,2.41 0 0 1 -2.26,0.44 c -0.73,-0.12 -1.51,0.7 -1.9,1.22 -0.39,0.52 -1.52,-0.44 -3.43,-0.32 -0.65,-1.84 -2.94,-2.74 -4.9,-3 a 2.82,2.82 0 0 0 -3,1.54 c -0.4,0.57 -0.61,0.51 -2.55,0.76 -1.94,0.25 -3.74,0.38 -4.47,-0.57 -0.73,-0.95 -1.86,-1 -3.73,0.76 -2.47,1.66 -5.45,-0.13 -7.93,-1 a 2.41,2.41 0 0 0 -3.38,1.47 c -0.26,0.52 -1.69,0.27 -2.85,0 -1.16,-0.27 -2.35,-1.53 -3.78,-2.24 -2.21,-0.89 -4.9,2 -5.59,2.76 -0.69,0.76 -2.82,0.44 -5.29,0.77 a 25.25,25.25 0 0 1 -7.15,-0.26 c -2.26,-1.85 -3.38,-1.22 -4.68,-0.45 -1.3,0.77 -1.74,0.71 -3.22,0.25 -1.48,-0.46 -3.6,-0.19 -4.5,-0.76 a 5,5 0 0 0 -4.42,0 c -1,-0.9 -2.18,-2.76 -4.5,-2.88 -2,-0.11 -2.38,0.19 -4.28,2 a 4.63,4.63 0 0 1 -0.5,-0.07 1.48,1.48 0 0 0 -1.1,0.39 5.74,5.74 0 0 0 -1.91,-1.09 c -0.34,-0.14 -0.94,0.78 -1.41,1.62 a 6.1,6.1 0 0 0 -0.91,0 c -0.65,-1.84 -3,-2.74 -4.9,-3 a 2.83,2.83 0 0 0 -3,1.54 c -0.27,0.39 -0.45,0.49 -1.18,0.59 a 2.55,2.55 0 0 0 -3.17,0.35 c -1.19,0.05 -2.16,-0.1 -2.66,-0.75 -0.74,-1 -1.86,-1 -3.73,0.76 -2.47,1.66 -5.45,-0.13 -7.93,-1 A 2.41,2.41 0 0 0 375,16.72 c -0.25,0.52 -1.69,0.27 -2.86,0 -1.17,-0.27 -2.34,-1.53 -3.77,-2.24 -2.21,-0.89 -4.9,2 -5.6,2.76 -0.7,0.76 -2.8,0.44 -5.27,0.77 a 25.27,25.27 0 0 1 -7.16,-0.26 c -2.25,-1.85 -3.38,-1.22 -4.68,-0.45 -1.3,0.77 -1.74,0.71 -3.21,0.25 -1.47,-0.46 -3.6,-0.19 -4.51,-0.76 a 5,5 0 0 0 -4.42,0 c -1,-0.9 -2.16,-2.76 -4.51,-2.88 -2.35,-0.12 -2.47,0.32 -5.5,3.13 -0.09,-1.15 -1.68,-1.66 -2.3,-1.92 -0.62,-0.26 -2,2.89 -2,2.89 -2.34,-1.34 -3.82,0.75 -4.29,1 C 314.45,19.26 312.37,17.5 310,16 a 2.55,2.55 0 0 0 -3.15,0 3.42,3.42 0 0 0 -0.59,-1.52 c -0.42,-0.5 -2.21,0.26 -2.81,0.9 a 2.42,2.42 0 0 1 -2.26,0.44 c -0.74,-0.12 -1.51,0.7 -1.9,1.22 -0.39,0.52 -1.52,-0.44 -3.43,-0.32 -0.65,-1.84 -2.95,-2.74 -4.9,-3 a 2.81,2.81 0 0 0 -3,1.54 c -0.38,0.57 -0.61,0.51 -2.55,0.76 -1.94,0.25 -3.74,0.38 -4.47,-0.57 -0.73,-0.95 -1.87,-1 -3.74,0.76 -2.46,1.66 -5.45,-0.13 -7.93,-1 a 2.41,2.41 0 0 0 -3.38,1.47 c -0.26,0.52 -1.69,0.27 -2.86,0 -1.17,-0.27 -2.33,-1.53 -3.77,-2.24 -2.21,-0.89 -4.89,2 -5.59,2.76 -0.7,0.76 -2.82,0.44 -5.29,0.77 a 25.17,25.17 0 0 1 -7.14,-0.26 c -2.26,-1.85 -3.38,-1.22 -4.68,-0.45 -1.3,0.77 -1.74,0.71 -3.2,0.25 -1.46,-0.46 -3.61,-0.19 -4.51,-0.76 a 5,5 0 0 0 -4.43,0 c -1,-0.9 -2.16,-2.76 -4.5,-2.88 -2,-0.11 -2.36,0.19 -4.22,1.93 a 3.6,3.6 0 0 1 -1.43,0 1.09,1.09 0 0 0 -0.58,0.07 8.07,8.07 0 0 0 -1.57,-0.77 c -0.36,-0.15 -1,0.88 -1.47,1.76 a 5.94,5.94 0 0 0 -1.71,-0.16 c -0.65,-1.84 -2.95,-2.74 -4.89,-3 a 2.81,2.81 0 0 0 -3,1.54 1,1 0 0 1 -0.56,0.46 2.52,2.52 0 0 0 -2.86,0.41 c -1.6,0.18 -3,0.14 -3.61,-0.68 -0.73,-1 -1.86,-1 -3.72,0.76 -2.47,1.66 -5.45,-0.13 -7.93,-1 a 2.4,2.4 0 0 0 -3.38,1.47 c -0.26,0.52 -1.7,0.27 -2.86,0 -1.16,-0.27 -2.34,-1.53 -3.77,-2.24 -2.21,-0.89 -4.89,2 -5.59,2.76 -0.7,0.76 -2.81,0.44 -5.28,0.77 a 25.32,25.32 0 0 1 -7.16,-0.26 c -2.24,-1.85 -3.37,-1.22 -4.68,-0.45 -1.31,0.77 -1.73,0.71 -3.2,0.25 -1.47,-0.46 -3.6,-0.19 -4.52,-0.76 a 5,5 0 0 0 -4.42,0 c -1,-0.9 -2.15,-2.76 -4.49,-2.88 -2.34,-0.12 -2.48,0.32 -5.51,3.13 -0.09,-1.15 -1.69,-1.66 -2.3,-1.92 -0.61,-0.26 -2,2.89 -2,2.89 -2.35,-1.34 -3.81,0.75 -4.3,1 -0.49,0.25 -2.5,-1.54 -4.89,-3.07 a 2.57,2.57 0 0 0 -3.16,0 3.5,3.5 0 0 0 -0.57,-1.52 c -0.44,-0.5 -2.22,0.26 -2.83,0.9 a 2.41,2.41 0 0 1 -2.25,0.44 c -0.73,-0.12 -1.51,0.7 -1.91,1.22 -0.4,0.52 -1.51,-0.44 -3.42,-0.32 -0.65,-1.84 -2.94,-2.74 -4.9,-3 a 2.8,2.8 0 0 0 -3,1.54 c -0.4,0.57 -0.62,0.51 -2.56,0.76 -1.94,0.25 -3.73,0.38 -4.47,-0.57 -0.74,-0.95 -1.86,-1 -3.72,0.76 -2.47,1.66 -5.46,-0.13 -7.94,-1 a 2.41,2.41 0 0 0 -3.38,1.47 c -0.26,0.52 -1.69,0.27 -2.86,0 -1.17,-0.27 -2.34,-1.53 -3.77,-2.24 -2.22,-0.89 -4.91,2 -5.58,2.76 -0.67,0.76 -2.83,0.44 -5.3,0.77 a 25.28,25.28 0 0 1 -7.15,-0.26 c -2.24,-1.85 -3.38,-1.22 -4.67,-0.45 -1.29,0.77 -1.74,0.71 -3.21,0.25 -1.47,-0.46 -3.6,-0.19 -4.51,-0.76 a 4.94,4.94 0 0 0 -4.41,0 c -1,-0.9 -2.18,-2.76 -4.52,-2.88 -2.34,-0.12 -2.46,0.32 -5.49,3.13 -0.09,-1.15 -1.7,-1.66 -2.3,-1.92 C 15.54,14.7 14,18 14,18 11.66,16.66 10.2,18.75 9.71,19 9.22,19.25 7.39,16.9 4.79,16.9 c -2.6,0 -3.9,-0.11 -3.9,-0.11 v 107.09 c 1.93,0 2.38,-0.59 3.26,-0.24 a 4.76,4.76 0 0 0 3.23,-0.5 2.8,2.8 0 0 1 3,-0.57 c 1.56,0.67 2.35,0.77 3.08,-0.14 0.73,-0.91 2.13,-0.11 3.25,0.46 1.12,0.57 2.93,0.39 3.66,0.71 0.73,0.32 2,2.4 4.3,2 2.3,-0.4 2.19,-0.41 3.14,0.25 0.95,0.66 1.68,0.33 2.9,0.09 1.22,-0.24 1.85,-1.47 2.52,-0.75 0.67,0.72 1.74,0.75 4.25,0.66 2.51,-0.09 7,-1.48 8.34,-1 1.34,0.48 2.18,1.63 2.54,1.15 a 3.71,3.71 0 0 1 3.19,-1.32 c 1.9,0 4.76,0.17 5.59,-0.24 a 6.53,6.53 0 0 1 4.36,0.08 c 1.45,0.57 1.18,1 2.8,0.73 a 21.79,21.79 0 0 1 4.65,-0.08 c 2,0.08 5,-1.57 6.48,-1.9 a 3.56,3.56 0 0 1 3.08,0.42 c 1.17,0.57 2.06,1.06 3,0.66 0.94,-0.4 1.24,-0.25 4.26,0.17 a 19.56,19.56 0 0 0 6.77,-0.08 c 0.9,-0.34 1.35,-1.41 3.2,-0.75 1.85,0.66 1.83,0.08 2.67,-0.26 a 6.28,6.28 0 0 1 3.7,0.08 c 1.11,0.42 2.68,0.26 4.25,0.83 a 9.86,9.86 0 0 0 3.7,0.05 v 2.35 c 0.25,-0.33 0.5,-0.66 0.68,-0.89 0.58,-0.68 0.74,-1.12 1.61,-0.76 a 3.26,3.26 0 0 0 1.83,0.09 c 0.49,0 0.89,0.9 1.5,0.54 0.61,-0.36 1.24,-2 2.8,-1.3 1.56,0.7 2.46,0.65 3.19,-0.26 0.73,-0.91 2,-0.4 3.07,0.18 1.07,0.58 1.56,1.23 2.63,1.23 1.07,0 1.46,0.58 2.18,0.9 0.72,0.32 2,-0.49 4.31,-0.9 2.31,-0.41 2.17,-0.41 3.13,0.25 0.96,0.66 1.68,0.33 2.91,0.09 1.23,-0.24 1.85,-1.47 2.52,-0.75 0.67,0.72 1.74,0.75 4.25,0.66 2.51,-0.09 7,-1.48 8.34,-1 1.34,0.48 2.18,1.64 2.51,1.15 a 3.71,3.71 0 0 1 3.19,-1.32 c 1.91,0 4.76,0.17 5.6,-0.24 a 6.51,6.51 0 0 1 4.36,0.08 c 1.46,0.57 1.18,1 2.8,0.73 a 21.72,21.72 0 0 1 4.64,-0.08 c 2,0.08 5,-1.57 6.49,-1.9 a 3.55,3.55 0 0 1 3.08,0.42 c 1.17,0.57 2.06,1.06 3,0.66 0.94,-0.4 1.24,-0.25 4.25,0.17 0.72,0.09 1.43,0.16 2.1,0.19 v 2 c 0.25,-0.33 0.5,-0.66 0.69,-0.89 0.57,-0.68 0.73,-1.12 1.62,-0.76 a 3.24,3.24 0 0 0 1.82,0.09 c 0.49,0 0.88,0.9 1.49,0.54 0.61,-0.36 1.24,-2 2.81,-1.3 1.57,0.7 2.46,0.65 3.19,-0.26 0.73,-0.91 2,-0.4 3.08,0.18 1.08,0.58 1.56,1.23 2.62,1.23 1.06,0 1.46,0.58 2.18,0.9 0.72,0.32 2,-0.49 4.31,-0.9 2.31,-0.41 2.18,-0.41 3.13,0.25 0.95,0.66 1.68,0.33 2.91,0.09 1.23,-0.24 1.85,-1.47 2.52,-0.75 0.67,0.72 1.73,0.75 4.25,0.66 2.52,-0.09 7,-1.48 8.33,-1 1.33,0.48 2.18,1.64 2.52,1.15 a 3.71,3.71 0 0 1 3.19,-1.32 c 1.89,0 4.76,0.17 5.59,-0.24 a 6.55,6.55 0 0 1 4.37,0.08 c 1.45,0.57 1.17,1 2.79,0.73 a 21.8,21.8 0 0 1 4.65,-0.08 c 2,0.08 5,-1.57 6.48,-1.9 a 3.56,3.56 0 0 1 3.08,0.42 c 1.18,0.57 2.08,1.06 3,0.66 0.92,-0.4 1.22,-0.25 4.25,0.17 a 19.55,19.55 0 0 0 6.77,-0.08 c 0.89,-0.34 1.34,-1.41 3.19,-0.75 1.85,0.66 1.85,0.08 2.68,-0.26 a 6.25,6.25 0 0 1 3.69,0.08 c 1.13,0.42 2.69,0.26 4.25,0.83 a 9.88,9.88 0 0 0 3.7,0.05 v 2.35 c 0.25,-0.33 0.49,-0.66 0.69,-0.89 0.58,-0.68 0.74,-1.12 1.62,-0.76 a 3.24,3.24 0 0 0 1.82,0.09 c 0.49,0 0.88,0.9 1.51,0.54 0.63,-0.36 1.23,-2 2.79,-1.3 1.56,0.7 2.46,0.65 3.19,-0.26 0.73,-0.91 2,-0.4 3.08,0.18 1.08,0.58 1.57,1.23 2.63,1.23 1.06,0 1.46,0.58 2.18,0.9 0.72,0.32 2,-0.49 4.3,-0.9 2.3,-0.41 2.19,-0.41 3.14,0.25 0.95,0.66 1.68,0.33 2.91,0.09 1.23,-0.24 1.85,-1.47 2.52,-0.75 0.67,0.72 1.73,0.75 4.24,0.66 2.51,-0.09 7.05,-1.48 8.34,-1 1.29,0.48 2.18,1.64 2.51,1.15 a 3.74,3.74 0 0 1 3.19,-1.32 c 1.9,0 4.75,0.17 5.59,-0.24 a 6.55,6.55 0 0 1 4.37,0.08 c 1.45,0.57 1.17,1 2.79,0.73 a 21.73,21.73 0 0 1 4.64,-0.08 c 2,0.08 5,-1.57 6.5,-1.9 a 3.56,3.56 0 0 1 3.08,0.42 c 1.17,0.57 2.06,1.06 3,0.66 0.94,-0.4 1.22,-0.25 4.26,0.17 0.41,0.05 0.82,0.11 1.23,0.13 v 2.11 c 0.25,-0.33 0.49,-0.66 0.68,-0.89 0.59,-0.68 0.73,-1.12 1.61,-0.76 a 3.3,3.3 0 0 0 1.84,0.09 c 0.48,0 0.89,0.9 1.49,0.54 0.6,-0.36 1.24,-2 2.81,-1.3 1.57,0.7 2.46,0.65 3.18,-0.26 0.72,-0.91 2,-0.4 3.08,0.18 1.08,0.58 1.57,1.23 2.63,1.23 1.06,0 1.45,0.58 2.18,0.9 0.73,0.32 2,-0.49 4.31,-0.9 2.31,-0.41 2.18,-0.41 3.14,0.25 0.96,0.66 1.68,0.33 2.91,0.09 1.23,-0.24 1.85,-1.47 2.52,-0.75 0.67,0.72 1.73,0.75 4.25,0.66 2.52,-0.09 7,-1.48 8.33,-1 1.33,0.48 2.19,1.64 2.53,1.15 a 3.67,3.67 0 0 1 3.18,-1.32 c 1.9,0 4.75,0.17 5.6,-0.24 a 6.53,6.53 0 0 1 4.36,0.08 c 1.44,0.57 1.17,1 2.79,0.73 a 21.8,21.8 0 0 1 4.65,-0.08 c 2,0.08 5,-1.57 6.49,-1.9 a 3.52,3.52 0 0 1 3.07,0.42 c 1.18,0.57 2.08,1.06 3,0.66 0.92,-0.4 1.23,-0.25 4.25,0.17 a 19.55,19.55 0 0 0 6.77,-0.08 c 0.9,-0.34 1.35,-1.41 3.19,-0.75 1.84,0.66 1.85,0.08 2.69,-0.26 a 6.29,6.29 0 0 1 3.7,0.08 c 1.11,0.42 2.67,0.26 4.24,0.83 a 9.88,9.88 0 0 0 3.7,0.05 v 2.35 c 0.26,-0.33 0.5,-0.66 0.68,-0.89 0.58,-0.68 0.74,-1.12 1.61,-0.76 a 3.29,3.29 0 0 0 1.84,0.09 c 0.5,0 0.88,0.9 1.49,0.54 0.61,-0.36 1.24,-2 2.8,-1.3 1.56,0.7 2.46,0.65 3.19,-0.26 0.73,-0.91 2,-0.4 3.08,0.18 1.08,0.58 1.57,1.23 2.63,1.23 1.06,0 1.45,0.58 2.18,0.9 0.73,0.32 2,-0.49 4.31,-0.9 2.31,-0.41 2.18,-0.41 3.14,0.25 0.96,0.66 1.67,0.33 2.9,0.09 1.23,-0.24 1.85,-1.47 2.52,-0.75 0.67,0.72 1.73,0.75 4.25,0.66 2.52,-0.09 7.05,-1.48 8.34,-1 1.29,0.48 2.18,1.64 2.51,1.15 a 3.72,3.72 0 0 1 3.19,-1.32 c 1.91,0 4.76,0.17 5.6,-0.24 a 6.5,6.5 0 0 1 4.36,0.08 c 1.47,0.57 1.18,1 2.8,0.73 a 21.81,21.81 0 0 1 4.65,-0.08 c 2,0.08 5,-1.57 6.49,-1.9 a 3.56,3.56 0 0 1 3.08,0.42 c 1.17,0.57 2.06,1.06 3,0.66 0.94,-0.4 1.23,-0.25 4.25,0.17 3.68,0.49 7.19,-1.07 10.84,-0.73 1.4,0.13 2.75,-0.6 4.18,-0.49 1.72,0.14 3.43,0.59 5.15,0.76 1.13,0.11 2.67,0.3 2.88,2.37 1.89,-0.76 3.75,-0.57 5.63,-1.21 a 6.28,6.28 0 0 1 2.94,-0.67 10.44,10.44 0 0 0 4,-0.47 c 1.65,-0.38 3,1.5 4.62,1.5 1.07,0 1.45,0.58 2.18,0.9 0.73,0.32 2,-0.49 4.31,-0.9 2.31,-0.41 2.18,-0.41 3.13,0.25 0.95,0.66 1.68,0.33 2.92,0.09 1.24,-0.24 1.84,-1.47 2.51,-0.75 0.67,0.72 1.73,0.75 4.25,0.66 2.52,-0.09 7,-1.48 8.34,-1 1.34,0.48 2.18,1.64 2.52,1.15 a 3.7,3.7 0 0 1 3.19,-1.32 c 1.9,0 4.76,0.17 5.59,-0.24 a 6.53,6.53 0 0 1 4.36,0.08 c 1.46,0.57 1.17,1 2.79,0.73 a 21.88,21.88 0 0 1 4.65,-0.08 c 2,0.08 5,-1.57 6.48,-1.9 a 3.55,3.55 0 0 1 3.08,0.42 c 1.18,0.57 2.07,1.06 3,0.66 0.93,-0.4 1.24,-0.25 4.27,0.17 a 19.53,19.53 0 0 0 6.76,-0.08 c 0.89,-0.34 1.34,-1.41 3.19,-0.75 1.85,0.66 1.84,0.08 2.69,-0.26 a 6.25,6.25 0 0 1 3.69,0.08 c 1.12,0.42 2.68,0.26 4.24,0.83 1,0.38 3.12,-0.27 4.51,-0.47 V 16.79 c -1.46,-0.12 -2.55,-0.18 -2.98,-0.71 z"
         id="path52"
         inkscape:connector-curvature="0"
         style="fill:url(#linearGradient83)" />
      <path
         class="cls-7"
         d="m 716.79,16.7 c -0.93,0 -0.6,-0.94 -1.43,-1.15 -0.83,-0.21 -1.51,0.57 -2.25,0.43 -0.74,-0.14 -1.52,0.7 -1.91,1.22 -0.39,0.52 -1.51,-0.45 -3.43,-0.32 -0.64,-1.85 -2.94,-2.75 -4.89,-3 a 2.81,2.81 0 0 0 -3,1.54 c -0.4,0.56 -0.61,0.51 -2.56,0.75 -1.95,0.24 -3.72,0.39 -4.46,-0.57 -0.74,-0.96 -1.87,-1 -3.72,0.77 -2.48,1.66 -5.46,-0.13 -7.93,-1 a 2.41,2.41 0 0 0 -3.38,1.46 c -0.26,0.52 -1.68,0.26 -2.86,0 -1.18,-0.26 -2.34,-1.53 -3.77,-2.23 -2.21,-0.9 -4.9,2 -5.59,2.75 -0.69,0.75 -2.8,0.45 -5.29,0.76 a 24.86,24.86 0 0 1 -7.14,-0.25 c -2.26,-1.84 -3.37,-1.22 -4.68,-0.45 -1.31,0.77 -1.72,0.7 -3.2,0.25 -1.48,-0.45 -3.6,-0.18 -4.52,-0.76 a 5,5 0 0 0 -4.41,0 c -1,-0.89 -2.17,-2.75 -4.5,-2.88 -2.33,-0.13 -2.47,0.32 -5.5,3.13 -0.09,-1.14 -1.69,-1.65 -2.3,-1.91 -0.61,-0.26 -2,2.86 -2,2.86 -2.34,-1.34 -3.81,0.76 -4.29,1 -0.48,0.24 -2.5,-1.52 -4.89,-3.06 a 2.81,2.81 0 0 0 -1.93,-0.5 2.84,2.84 0 0 0 -0.47,-1 c -0.43,-0.52 -2.21,0.25 -2.82,0.9 a 2.39,2.39 0 0 1 -2.24,0.43 c -0.74,-0.13 -1.52,0.7 -1.91,1.22 -0.39,0.52 -1.52,-0.45 -3.43,-0.32 -0.64,-1.85 -2.94,-2.75 -4.89,-3 a 2.82,2.82 0 0 0 -3,1.54 c -0.39,0.56 -0.6,0.51 -2.56,0.75 -1.96,0.24 -3.72,0.39 -4.46,-0.57 -0.74,-0.96 -1.86,-1 -3.73,0.77 -2.46,1.66 -5.45,-0.13 -7.92,-1 a 2.41,2.41 0 0 0 -3.38,1.46 c -0.26,0.52 -1.69,0.26 -2.86,0 -1.17,-0.26 -2.33,-1.53 -3.77,-2.23 -2.21,-0.9 -4.9,2 -5.59,2.75 -0.69,0.75 -2.81,0.45 -5.28,0.76 a 24.89,24.89 0 0 1 -7.15,-0.25 c -2.25,-1.84 -3.38,-1.22 -4.68,-0.45 -1.3,0.77 -1.73,0.7 -3.2,0.25 -1.47,-0.45 -3.6,-0.18 -4.5,-0.76 a 5,5 0 0 0 -4.42,0 c -1,-0.89 -2.17,-2.75 -4.5,-2.88 -2.33,-0.13 -2.47,0.32 -5.51,3.13 -0.09,-1.14 -1.68,-1.65 -2.29,-1.91 -0.61,-0.26 -2,2.86 -2,2.86 -2.34,-1.34 -3.81,0.76 -4.29,1 -0.48,0.24 -2.51,-1.52 -4.9,-3.06 a 2.52,2.52 0 0 0 -3.16,0.05 3.29,3.29 0 0 0 -0.59,-1.53 c -0.44,-0.52 -2.21,0.25 -2.81,0.9 a 2.42,2.42 0 0 1 -2.26,0.43 c -0.73,-0.13 -1.52,0.7 -1.9,1.22 -0.38,0.52 -1.52,-0.45 -3.43,-0.32 -0.64,-1.85 -2.94,-2.75 -4.89,-3 a 2.82,2.82 0 0 0 -3,1.54 c -0.39,0.56 -0.61,0.51 -2.56,0.75 -1.95,0.24 -3.72,0.39 -4.46,-0.57 -0.74,-0.96 -1.87,-1 -3.72,0.77 -2.48,1.66 -5.46,-0.13 -7.93,-1 a 2.42,2.42 0 0 0 -3.39,1.46 c -0.26,0.52 -1.68,0.26 -2.85,0 -1.17,-0.26 -2.34,-1.53 -3.78,-2.23 -2.21,-0.9 -4.9,2 -5.58,2.75 -0.68,0.75 -2.82,0.45 -5.28,0.76 a 24.93,24.93 0 0 1 -7.15,-0.25 c -2.25,-1.84 -3.37,-1.22 -4.67,-0.45 -1.3,0.77 -1.74,0.7 -3.21,0.25 -1.47,-0.45 -3.59,-0.18 -4.5,-0.76 a 5,5 0 0 0 -4.41,0 c -1,-0.89 -2.18,-2.75 -4.52,-2.88 -2,-0.1 -2.38,0.19 -4.28,2 l -0.5,-0.08 a 1.48,1.48 0 0 0 -1.1,0.39 5.1,5.1 0 0 0 -1.91,-1.08 c -0.35,-0.15 -0.94,0.77 -1.41,1.61 a 4.45,4.45 0 0 0 -0.92,0 c -0.65,-1.85 -2.94,-2.75 -4.9,-3 a 2.82,2.82 0 0 0 -3,1.54 c -0.26,0.39 -0.46,0.48 -1.18,0.59 a 2.56,2.56 0 0 0 -3.17,0.34 c -1.19,0.05 -2.17,-0.1 -2.66,-0.75 -0.74,-1 -1.87,-1 -3.73,0.77 -2.47,1.66 -5.46,-0.13 -7.93,-1 a 2.4,2.4 0 0 0 -3.38,1.46 c -0.26,0.52 -1.69,0.26 -2.86,0 -1.17,-0.26 -2.33,-1.53 -3.77,-2.23 -2.21,-0.9 -4.89,2 -5.59,2.75 -0.7,0.75 -2.81,0.45 -5.28,0.76 a 25,25 0 0 1 -7.16,-0.25 c -2.24,-1.84 -3.38,-1.22 -4.67,-0.45 -1.29,0.77 -1.74,0.7 -3.21,0.25 -1.47,-0.45 -3.59,-0.18 -4.5,-0.76 a 5,5 0 0 0 -4.42,0 c -1,-0.89 -2.15,-2.75 -4.5,-2.88 -2.35,-0.13 -2.47,0.32 -5.5,3.13 -0.09,-1.14 -1.69,-1.65 -2.3,-1.91 -0.61,-0.26 -2,2.86 -2,2.86 -2.34,-1.34 -3.81,0.76 -4.28,1 -0.47,0.24 -2.52,-1.52 -4.9,-3.06 a 2.53,2.53 0 0 0 -3.16,0.05 3.38,3.38 0 0 0 -0.59,-1.53 c -0.43,-0.52 -2.21,0.25 -2.82,0.9 a 2.39,2.39 0 0 1 -2.24,0.43 c -0.75,-0.13 -1.52,0.7 -1.91,1.22 -0.39,0.52 -1.52,-0.45 -3.43,-0.32 -0.65,-1.85 -2.94,-2.75 -4.89,-3 a 2.83,2.83 0 0 0 -3,1.54 c -0.39,0.56 -0.6,0.51 -2.55,0.75 -1.95,0.24 -3.73,0.39 -4.47,-0.57 -0.74,-0.96 -1.86,-1 -3.72,0.77 -2.47,1.66 -5.45,-0.13 -7.92,-1 a 2.42,2.42 0 0 0 -3.39,1.46 c -0.26,0.52 -1.69,0.26 -2.85,0 -1.16,-0.26 -2.34,-1.53 -3.78,-2.23 -2.21,-0.9 -4.89,2 -5.58,2.75 -0.69,0.75 -2.82,0.45 -5.29,0.76 a 24.86,24.86 0 0 1 -7.14,-0.25 c -2.25,-1.84 -3.38,-1.22 -4.68,-0.45 -1.3,0.77 -1.74,0.7 -3.21,0.25 -1.47,-0.45 -3.6,-0.18 -4.51,-0.76 a 5,5 0 0 0 -4.41,0 c -1,-0.89 -2.17,-2.75 -4.51,-2.88 -2,-0.1 -2.36,0.19 -4.23,1.94 a 3.39,3.39 0 0 1 -1.42,0 1,1 0 0 0 -0.58,0.09 6.24,6.24 0 0 0 -1.57,-0.77 c -0.36,-0.17 -1,0.88 -1.48,1.73 a 6.23,6.23 0 0 0 -1.71,-0.15 c -0.65,-1.85 -2.94,-2.75 -4.89,-3 a 2.81,2.81 0 0 0 -3,1.54 1,1 0 0 1 -0.55,0.45 2.51,2.51 0 0 0 -2.86,0.43 c -1.6,0.16 -3,0.12 -3.6,-0.69 -0.6,-0.81 -1.87,-1 -3.73,0.77 -2.47,1.66 -5.46,-0.13 -7.93,-1 a 2.41,2.41 0 0 0 -3.38,1.46 c -0.25,0.52 -1.69,0.26 -2.85,0 -1.16,-0.26 -2.35,-1.53 -3.77,-2.23 -2.21,-0.9 -4.9,2 -5.59,2.75 -0.69,0.75 -2.82,0.45 -5.29,0.76 a 24.86,24.86 0 0 1 -7.14,-0.25 c -2.26,-1.84 -3.39,-1.22 -4.69,-0.45 -1.3,0.77 -1.72,0.7 -3.2,0.25 -1.48,-0.45 -3.59,-0.18 -4.51,-0.76 a 5,5 0 0 0 -4.42,0 c -1,-0.89 -2.16,-2.75 -4.5,-2.88 -2.34,-0.13 -2.46,0.32 -5.51,3.13 -0.08,-1.14 -1.68,-1.65 -2.29,-1.91 -0.61,-0.26 -2,2.86 -2,2.86 -2.35,-1.34 -3.82,0.76 -4.29,1 -0.47,0.24 -2.51,-1.52 -4.9,-3.06 a 2.53,2.53 0 0 0 -3.16,0.05 3.22,3.22 0 0 0 -0.58,-1.53 c -0.43,-0.52 -2.2,0.25 -2.82,0.9 a 2.41,2.41 0 0 1 -2.25,0.43 c -0.73,-0.13 -1.51,0.7 -1.91,1.22 -0.4,0.52 -1.5,-0.45 -3.41,-0.32 -0.65,-1.85 -2.94,-2.75 -4.9,-3 a 2.82,2.82 0 0 0 -3,1.54 c -0.4,0.56 -0.61,0.51 -2.55,0.75 -1.94,0.24 -3.73,0.39 -4.47,-0.57 -0.74,-0.96 -1.85,-1 -3.71,0.77 -2.47,1.66 -5.46,-0.13 -7.93,-1 a 2.41,2.41 0 0 0 -3.38,1.46 c -0.26,0.52 -1.69,0.26 -2.85,0 -1.16,-0.26 -2.34,-1.53 -3.77,-2.23 -2.21,-0.9 -4.9,2 -5.59,2.75 -0.69,0.75 -2.81,0.45 -5.29,0.76 A 24.89,24.89 0 0 1 45.5,17.45 C 43.26,15.61 42.12,16.23 40.83,17 c -1.29,0.77 -1.74,0.7 -3.21,0.25 -1.47,-0.45 -3.61,-0.18 -4.51,-0.76 a 5,5 0 0 0 -4.42,0 c -1,-0.89 -2.16,-2.75 -4.51,-2.88 -2.35,-0.13 -2.47,0.32 -5.51,3.13 -0.09,-1.14 -1.68,-1.65 -2.3,-1.91 -0.62,-0.26 -2,2.86 -2,2.86 -2.34,-1.34 -3.81,0.76 -4.29,1 C 9.6,18.93 7.52,17.3 4.93,17.3 c -2.29,0 -4,-0.15 -4,-0.15 V 62.64 C 9,62.64 11,67.38 18,66.42 c 12.08,-1.65 10.36,7.66 27.58,2 C 62.8,62.76 60.53,63 75.54,69 c 7.51,3 9.58,-0.83 16.57,-3 4.62,-1.44 9.93,0.37 14.72,-0.61 1.9,-0.39 2.91,-2.18 4.88,-1.91 1.74,0.25 4.54,3.86 6.49,4.7 10,4.28 26.29,3.64 36.52,0.31 17.23,-5.6 14.92,-5.42 29.92,0.52 v 0 c 5.13,2 7.9,0.74 13,-0.81 3.82,-1.19 4.41,-0.78 8.56,0.4 11.29,3.19 24.24,3.56 35.49,-0.11 17.22,-5.6 14.91,-5.42 29.9,0.52 4.44,1.76 7.6,2 11.82,0.15 5.2,-2.23 8.87,-2.27 14.49,-2.75 2.68,-0.24 6.69,-3.79 8.87,-3.52 3.17,0.39 6.77,5.46 10.34,6.25 3.57,0.79 7.34,-0.28 11,0 4.8,0.39 9.26,2 14.12,1.46 7.67,-0.9 15,-5.79 22.67,-6.16 5.43,-0.25 10.62,2.49 15.79,4.55 11.91,4.72 11.1,-1.19 16.11,-2.82 a 15.65,15.65 0 0 0 11.3,3.13 c 12.08,-1.64 11.48,4.78 28.7,-0.83 17.22,-5.61 14.91,-5.47 29.92,0.53 4.46,1.76 7.54,1.91 11.81,0.15 5.76,-2.35 10.45,-1.67 16.4,-2.94 5.79,-1.26 5.87,-2.79 11.47,0.33 11.91,6.63 27.2,6 39.5,1.95 17.24,-5.6 14.92,-5.42 29.91,0.52 14.99,5.94 9.84,-4.94 21.47,-3 6.1,1 10,-0.12 12.94,-2.77 3.48,3.51 8.55,6.9 14.74,6.05 12.08,-1.64 11.47,4.78 28.7,-0.83 17.23,-5.61 14.92,-5.46 29.91,0.54 14.99,6 9.85,-5 21.43,-3 6.7,1.13 6.73,-3.37 13.93,-3.37 V 17.14 c -1.31,0.01 -1.58,-0.44 -2.14,-0.44 z"
         id="path54"
         inkscape:connector-curvature="0"
         style="opacity:0.4;mix-blend-mode:screen;fill:url(#linear-gradient-4)" />
      <path
         class="cls-8"
         d="m 717.83,226.81 c -0.93,0 -0.6,-0.94 -1.43,-1.15 -0.83,-0.21 -1.51,0.57 -2.25,0.43 -0.74,-0.14 -1.52,0.7 -1.91,1.22 -0.39,0.52 -1.51,-0.45 -3.43,-0.32 -0.64,-1.85 -2.94,-2.75 -4.89,-3 a 2.81,2.81 0 0 0 -3,1.54 c -0.4,0.56 -0.61,0.51 -2.56,0.75 -1.95,0.24 -3.72,0.39 -4.46,-0.57 -0.74,-0.96 -1.87,-1 -3.72,0.77 -2.48,1.66 -5.46,-0.13 -7.93,-1 a 2.41,2.41 0 0 0 -3.38,1.46 c -0.26,0.52 -1.68,0.26 -2.86,0 -1.18,-0.26 -2.34,-1.53 -3.77,-2.23 -2.21,-0.9 -4.9,2 -5.59,2.75 -0.69,0.75 -2.8,0.45 -5.29,0.76 a 24.86,24.86 0 0 1 -7.14,-0.25 c -2.26,-1.84 -3.37,-1.22 -4.68,-0.45 -1.31,0.77 -1.72,0.7 -3.2,0.25 -1.48,-0.45 -3.6,-0.18 -4.52,-0.76 a 5,5 0 0 0 -4.41,0 c -1,-0.89 -2.17,-2.75 -4.5,-2.88 -2.33,-0.13 -2.47,0.32 -5.5,3.13 -0.09,-1.14 -1.69,-1.65 -2.3,-1.91 -0.61,-0.26 -2,2.86 -2,2.86 -2.34,-1.34 -3.81,0.76 -4.29,1 -0.48,0.24 -2.5,-1.52 -4.89,-3.06 a 1.84,1.84 0 0 1 -2.4,-1.48 c -0.43,-0.52 -2.21,0.25 -2.82,0.9 a 2.39,2.39 0 0 1 -2.24,0.43 c -0.74,-0.13 -1.52,0.7 -1.91,1.22 -0.39,0.52 -1.52,-0.45 -3.43,-0.32 -0.64,-1.85 -2.94,-2.75 -4.89,-3 a 2.82,2.82 0 0 0 -3,1.54 c -0.39,0.56 -0.6,0.51 -2.56,0.75 -1.96,0.24 -3.72,0.39 -4.46,-0.57 -0.74,-0.96 -1.86,-1 -3.73,0.77 -2.46,1.66 -5.45,-0.13 -7.92,-1 a 2.41,2.41 0 0 0 -3.38,1.46 c -0.26,0.52 -1.69,0.26 -2.86,0 -1.17,-0.26 -2.33,-1.53 -3.77,-2.23 -2.21,-0.9 -4.9,2 -5.59,2.75 -0.69,0.75 -2.81,0.45 -5.28,0.76 a 24.89,24.89 0 0 1 -7.15,-0.25 c -2.25,-1.84 -3.38,-1.22 -4.68,-0.45 -1.3,0.77 -1.73,0.7 -3.2,0.25 -1.47,-0.45 -3.6,-0.18 -4.5,-0.76 a 5,5 0 0 0 -4.42,0 c -1,-0.89 -2.17,-2.75 -4.5,-2.88 -2.33,-0.13 -2.47,0.32 -5.51,3.13 -0.09,-1.14 -1.68,-1.65 -2.29,-1.91 -0.61,-0.26 -2,2.86 -2,2.86 -2.34,-1.34 -3.81,0.76 -4.29,1 -0.48,0.24 -2.51,-1.52 -4.9,-3.06 a 2.52,2.52 0 0 0 -3.16,0.05 3.29,3.29 0 0 0 -0.59,-1.53 c -0.44,-0.52 -2.21,0.25 -2.81,0.9 a 2.42,2.42 0 0 1 -2.26,0.43 c -0.73,-0.13 -1.52,0.7 -1.9,1.22 -0.38,0.52 -1.52,-0.45 -3.43,-0.32 -0.64,-1.85 -2.94,-2.75 -4.89,-3 a 2.82,2.82 0 0 0 -3,1.54 c -0.39,0.56 -0.61,0.51 -2.56,0.75 -1.95,0.24 -3.72,0.39 -4.46,-0.57 -0.74,-0.96 -1.87,-1 -3.72,0.77 -2.48,1.66 -5.46,-0.13 -7.93,-1 A 2.42,2.42 0 0 0 462,227 c -0.26,0.52 -1.68,0.26 -2.85,0 -1.17,-0.26 -2.34,-1.53 -3.78,-2.23 -2.21,-0.9 -4.9,2 -5.58,2.75 -0.68,0.75 -2.82,0.45 -5.28,0.76 a 24.93,24.93 0 0 1 -7.15,-0.25 c -2.25,-1.84 -3.37,-1.22 -4.67,-0.45 -1.3,0.77 -1.74,0.7 -3.21,0.25 -1.47,-0.45 -3.59,-0.18 -4.5,-0.76 a 5,5 0 0 0 -4.41,0 c -1,-0.89 -2.18,-2.75 -4.52,-2.88 -2,-0.1 -2.38,0.19 -4.28,2 l -0.5,-0.08 a 1.48,1.48 0 0 0 -1.1,0.39 5.1,5.1 0 0 0 -1.91,-1.08 c -0.35,-0.15 -0.94,0.77 -1.41,1.61 a 4.45,4.45 0 0 0 -0.92,0 c -0.65,-1.85 -2.94,-2.75 -4.9,-3 a 2.82,2.82 0 0 0 -3,1.54 c -0.26,0.39 -0.46,0.48 -1.18,0.59 a 2.56,2.56 0 0 0 -3.17,0.34 c -1.19,0.05 -2.17,-0.1 -2.66,-0.75 -0.74,-1 -1.87,-1 -3.73,0.77 -2.47,1.66 -5.46,-0.13 -7.93,-1 a 2.4,2.4 0 0 0 -3.38,1.46 c -0.26,0.52 -1.69,0.26 -2.86,0 -1.17,-0.26 -2.33,-1.53 -3.77,-2.23 -2.21,-0.9 -4.89,2 -5.59,2.75 -0.7,0.75 -2.81,0.45 -5.28,0.76 a 25,25 0 0 1 -7.16,-0.25 c -2.24,-1.84 -3.38,-1.22 -4.67,-0.45 -1.29,0.77 -1.74,0.7 -3.21,0.25 -1.47,-0.45 -3.59,-0.18 -4.5,-0.76 a 5,5 0 0 0 -4.42,0 c -1,-0.89 -2.15,-2.75 -4.5,-2.88 -2.35,-0.13 -2.47,0.32 -5.5,3.13 -0.09,-1.14 -1.69,-1.65 -2.3,-1.91 -0.61,-0.26 -2,2.86 -2,2.86 -2.34,-1.34 -3.81,0.76 -4.28,1 -0.47,0.24 -2.52,-1.52 -4.9,-3.06 a 2.53,2.53 0 0 0 -3.16,0.05 3.38,3.38 0 0 0 -0.59,-1.53 c -0.43,-0.52 -2.21,0.25 -2.82,0.9 a 2.39,2.39 0 0 1 -2.24,0.43 c -0.75,-0.13 -1.52,0.7 -1.91,1.22 -0.39,0.52 -1.52,-0.45 -3.43,-0.32 -0.65,-1.85 -2.94,-2.75 -4.89,-3 a 2.83,2.83 0 0 0 -3,1.54 c -0.39,0.56 -0.6,0.51 -2.55,0.75 -1.95,0.24 -3.73,0.39 -4.47,-0.57 -0.74,-0.96 -1.86,-1 -3.72,0.77 -2.47,1.66 -5.45,-0.13 -7.92,-1 a 2.42,2.42 0 0 0 -3.39,1.46 c -0.26,0.52 -1.69,0.26 -2.85,0 -1.16,-0.26 -2.34,-1.53 -3.78,-2.23 -2.21,-0.9 -4.89,2 -5.58,2.75 -0.69,0.75 -2.82,0.45 -5.29,0.76 a 24.86,24.86 0 0 1 -7.14,-0.25 c -2.25,-1.84 -3.38,-1.22 -4.68,-0.45 -1.3,0.77 -1.74,0.7 -3.21,0.25 -1.47,-0.45 -3.6,-0.18 -4.51,-0.76 a 5,5 0 0 0 -4.41,0 c -1,-0.89 -2.17,-2.75 -4.51,-2.88 -2,-0.1 -2.36,0.19 -4.23,1.94 a 3.39,3.39 0 0 1 -1.42,0 1,1 0 0 0 -0.58,0.09 6.24,6.24 0 0 0 -1.57,-0.77 c -0.36,-0.17 -1,0.88 -1.48,1.73 A 6.23,6.23 0 0 0 210,226.92 c -0.65,-1.85 -2.94,-2.75 -4.89,-3 a 2.81,2.81 0 0 0 -3,1.54 1,1 0 0 1 -0.55,0.45 2.51,2.51 0 0 0 -2.86,0.43 c -1.6,0.16 -3,0.12 -3.6,-0.69 -0.6,-0.81 -1.87,-1 -3.73,0.77 -2.47,1.66 -5.46,-0.13 -7.93,-1 A 2.41,2.41 0 0 0 179.9,227 c -0.25,0.52 -1.69,0.26 -2.85,0 -1.16,-0.26 -2.35,-1.53 -3.77,-2.23 -2.21,-0.9 -4.9,2 -5.59,2.75 -0.69,0.75 -2.82,0.45 -5.29,0.76 a 24.86,24.86 0 0 1 -7.14,-0.25 c -2.26,-1.84 -3.39,-1.22 -4.69,-0.45 -1.3,0.77 -1.72,0.7 -3.2,0.25 -1.48,-0.45 -3.59,-0.18 -4.51,-0.76 a 5,5 0 0 0 -4.42,0 c -1,-0.89 -2.16,-2.75 -4.5,-2.88 -2.34,-0.13 -2.46,0.32 -5.51,3.13 -0.08,-1.14 -1.68,-1.65 -2.29,-1.91 -0.61,-0.26 -2,2.86 -2,2.86 -2.35,-1.34 -3.82,0.76 -4.29,1 -0.47,0.24 -2.51,-1.52 -4.9,-3.06 a 2.53,2.53 0 0 0 -3.16,0.05 3.22,3.22 0 0 0 -0.58,-1.53 c -0.43,-0.52 -2.2,0.25 -2.82,0.9 a 2.41,2.41 0 0 1 -2.25,0.43 c -0.73,-0.13 -1.51,0.7 -1.91,1.22 -0.4,0.52 -1.5,-0.45 -3.41,-0.32 -0.65,-1.85 -2.94,-2.75 -4.9,-3 a 2.82,2.82 0 0 0 -3,1.54 c -0.4,0.56 -0.61,0.51 -2.55,0.75 -1.94,0.24 -3.73,0.39 -4.47,-0.57 -0.74,-0.96 -1.85,-1 -3.71,0.77 -2.47,1.66 -5.46,-0.13 -7.93,-1 A 2.41,2.41 0 0 0 70.8,227 c -0.26,0.52 -1.69,0.26 -2.85,0 -1.16,-0.26 -2.34,-1.53 -3.77,-2.23 -2.21,-0.9 -4.9,2 -5.59,2.75 -0.69,0.75 -2.81,0.45 -5.29,0.76 a 24.89,24.89 0 0 1 -7.15,-0.25 c -2.24,-1.84 -3.38,-1.22 -4.67,-0.45 -1.29,0.77 -1.74,0.7 -3.21,0.25 -1.47,-0.45 -3.61,-0.18 -4.51,-0.76 a 5,5 0 0 0 -4.42,0 c -1,-0.89 -2.16,-2.75 -4.51,-2.88 -2.35,-0.13 -2.47,0.32 -5.51,3.13 -0.09,-1.14 -1.68,-1.65 -2.3,-1.91 -0.62,-0.26 -2,2.86 -2,2.86 -2.34,-1.34 -3.81,0.76 -4.29,1 -0.48,0.24 -2.18,-1.86 -4.73,-1.86 -2.29,0 -4,-0.15 -4,-0.15 v 45.49 c 8.12,0 10.13,4.73 17.15,3.78 12.08,-1.65 10.36,7.66 27.58,2 17.22,-5.66 14.92,-5.42 29.92,0.52 7.51,3 9.58,-0.83 16.57,-3 4.62,-1.44 9.93,0.37 14.72,-0.61 1.9,-0.39 2.91,-2.18 4.88,-1.91 1.74,0.25 4.54,3.86 6.49,4.7 10,4.28 26.29,3.64 36.52,0.31 17.23,-5.6 14.92,-5.42 29.92,0.52 v 0 c 5.13,2 7.9,0.74 13,-0.81 3.82,-1.19 4.41,-0.78 8.56,0.4 11.29,3.19 24.24,3.56 35.49,-0.11 17.22,-5.6 14.91,-5.42 29.9,0.52 4.44,1.76 7.6,2 11.82,0.15 5.2,-2.23 8.87,-2.27 14.49,-2.75 2.68,-0.24 6.69,-3.79 8.87,-3.52 3.17,0.39 6.77,5.46 10.34,6.25 3.57,0.79 7.34,-0.28 11,0 4.8,0.39 9.26,2 14.12,1.46 7.67,-0.9 15,-5.79 22.67,-6.16 5.43,-0.25 10.62,2.49 15.79,4.55 11.91,4.72 11.1,-1.19 16.11,-2.82 a 15.65,15.65 0 0 0 11.33,3.13 c 12.08,-1.64 11.48,4.78 28.7,-0.83 17.22,-5.61 14.92,-5.42 29.92,0.52 4.46,1.76 7.54,1.91 11.81,0.15 5.76,-2.35 10.45,-1.67 16.4,-2.94 5.79,-1.26 5.87,-2.79 11.47,0.33 11.91,6.63 27.2,6 39.5,1.95 17.24,-5.6 14.92,-5.42 29.91,0.52 14.99,5.94 9.84,-4.94 21.47,-3 6.1,1 10,-0.12 12.94,-2.77 3.48,3.51 8.55,6.9 14.74,6.05 12.08,-1.64 11.47,4.78 28.7,-0.83 17.23,-5.61 14.93,-5.42 29.91,0.52 14.98,5.94 9.85,-4.94 21.48,-3 6.7,1.13 6.73,-3.37 13.93,-3.37 v -45.49 c -1.47,0.11 -1.73,-0.35 -2.29,-0.35 z"
         id="path56"
         inkscape:connector-curvature="0"
         style="fill:url(#linearGradient85)" />
      <path
         class="cls-9"
         d="m 1437.11,16.52 c -0.53,-0.23 -1,-1.86 -2.4,-0.9 -0.68,0.46 -0.41,0.42 -1.15,0.28 -0.74,-0.14 -1.53,0.72 -1.91,1.22 -0.38,0.5 -1.52,-0.45 -3.44,-0.32 -0.65,-1.86 -3,-2.75 -4.93,-3 a 2.82,2.82 0 0 0 -3,1.53 c -0.4,0.57 -0.62,0.51 -2.57,0.77 -1.95,0.26 -3.75,0.38 -4.49,-0.58 -0.74,-0.96 -1.88,-1 -3.75,0.77 -2.48,1.66 -5.49,-0.13 -8,-1 a 2.42,2.42 0 0 0 -3.39,1.48 c -0.26,0.51 -1.7,0.25 -2.88,0 -1.18,-0.25 -2.36,-1.54 -3.79,-2.24 -2.22,-0.9 -4.93,2 -5.62,2.75 -0.69,0.75 -2.83,0.45 -5.31,0.76 a 24.9,24.9 0 0 1 -7.19,-0.25 c -2.26,-1.85 -3.39,-1.2 -4.7,-0.45 -1.31,0.75 -1.74,0.7 -3.23,0.25 -1.49,-0.45 -3.61,-0.18 -4.53,-0.77 a 5.14,5.14 0 0 0 -4.44,0 c -1,-0.89 -2.18,-2.74 -4.53,-2.87 -2.35,-0.13 -2.48,0.32 -5.53,3.13 -0.09,-1.15 -1.7,-1.66 -2.3,-1.91 -0.6,-0.25 -2.06,2.87 -2.06,2.87 -2.35,-1.35 -3.83,0.77 -4.3,1 -0.47,0.23 -2.53,-1.54 -4.92,-3.06 a 2.73,2.73 0 0 0 -1.94,-0.5 2.75,2.75 0 0 0 -0.48,-1 c -0.44,-0.51 -2.22,0.25 -2.82,0.9 a 2.4,2.4 0 0 1 -2.27,0.44 c -0.74,-0.12 -1.52,0.72 -1.92,1.22 -0.4,0.5 -1.52,-0.45 -3.44,-0.32 -0.65,-1.86 -3,-2.75 -4.92,-3 a 2.85,2.85 0 0 0 -3,1.53 c -0.4,0.57 -0.6,0.51 -2.57,0.77 -1.97,0.26 -3.74,0.38 -4.49,-0.58 -0.75,-0.96 -1.87,-1 -3.74,0.77 -2.48,1.66 -5.48,-0.13 -8,-1 a 2.43,2.43 0 0 0 -3.41,1.48 c -0.26,0.51 -1.69,0.25 -2.87,0 -1.18,-0.25 -2.35,-1.54 -3.78,-2.24 -2.23,-0.9 -4.92,2 -5.62,2.75 -0.7,0.75 -2.83,0.45 -5.32,0.76 a 24.84,24.84 0 0 1 -7.18,-0.25 c -2.27,-1.85 -3.39,-1.2 -4.71,-0.45 -1.32,0.75 -1.74,0.7 -3.22,0.25 -1.48,-0.45 -3.61,-0.18 -4.53,-0.77 a 5.14,5.14 0 0 0 -4.44,0 c -1,-0.89 -2.17,-2.74 -4.52,-2.87 -2.35,-0.13 -2.49,0.32 -5.54,3.13 -0.09,-1.15 -1.7,-1.66 -2.3,-1.91 -0.6,-0.25 -2,2.87 -2,2.87 -2.36,-1.35 -3.83,0.77 -4.31,1 -0.48,0.23 -2.52,-1.54 -4.92,-3.06 a 2.57,2.57 0 0 0 -3.17,0 3.21,3.21 0 0 0 -0.59,-1.52 c -0.44,-0.51 -2.21,0.25 -2.83,0.9 a 2.39,2.39 0 0 1 -2.27,0.44 c -0.73,-0.12 -1.52,0.72 -1.91,1.22 -0.39,0.5 -1.53,-0.45 -3.44,-0.32 -0.66,-1.86 -3,-2.75 -4.92,-3 a 2.85,2.85 0 0 0 -3,1.53 c -0.4,0.57 -0.61,0.51 -2.56,0.77 -1.95,0.26 -3.76,0.38 -4.5,-0.58 -0.74,-0.96 -1.87,-1 -3.74,0.77 -2.48,1.66 -5.48,-0.13 -8,-1 a 2.43,2.43 0 0 0 -3.39,1.48 c -0.26,0.51 -1.7,0.25 -2.86,0 -1.16,-0.25 -2.36,-1.54 -3.8,-2.24 -2.22,-0.9 -4.92,2 -5.61,2.75 -0.69,0.75 -2.83,0.45 -5.31,0.76 a 24.89,24.89 0 0 1 -7.19,-0.25 c -2.27,-1.85 -3.4,-1.2 -4.7,-0.45 -1.3,0.75 -1.75,0.7 -3.23,0.25 -1.48,-0.45 -3.62,-0.18 -4.53,-0.77 a 5.13,5.13 0 0 0 -4.44,0 c -1,-0.89 -2.19,-2.74 -4.53,-2.87 -2,-0.1 -2.39,0.19 -4.3,2 a 4.46,4.46 0 0 1 -0.5,-0.07 1.47,1.47 0 0 0 -1.11,0.39 5.34,5.34 0 0 0 -1.92,-1.09 c -0.34,-0.14 -0.95,0.79 -1.41,1.62 a 7.77,7.77 0 0 0 -0.92,0 c -0.65,-1.86 -3,-2.75 -4.92,-3 a 2.86,2.86 0 0 0 -3,1.53 c -0.27,0.4 -0.45,0.49 -1.19,0.59 a 2.58,2.58 0 0 0 -3.19,0.35 c -1.19,0.05 -2.17,-0.09 -2.68,-0.75 -0.74,-1 -1.87,-1 -3.75,0.77 -2.48,1.66 -5.48,-0.13 -8,-1 a 2.42,2.42 0 0 0 -3.39,1.48 c -0.25,0.51 -1.69,0.25 -2.87,0 -1.18,-0.25 -2.35,-1.54 -3.78,-2.24 -2.22,-0.9 -4.93,2 -5.63,2.75 -0.7,0.75 -2.82,0.45 -5.3,0.76 a 24.91,24.91 0 0 1 -7.19,-0.25 c -2.26,-1.85 -3.39,-1.2 -4.7,-0.45 -1.31,0.75 -1.75,0.7 -3.22,0.25 -1.47,-0.45 -3.61,-0.18 -4.53,-0.77 a 5.13,5.13 0 0 0 -4.44,0 c -1,-0.89 -2.18,-2.74 -4.53,-2.87 -2.35,-0.13 -2.48,0.32 -5.53,3.13 -0.09,-1.15 -1.69,-1.66 -2.32,-1.91 -0.63,-0.25 -2,2.87 -2,2.87 -2.35,-1.35 -3.83,0.77 -4.31,1 -0.48,0.23 -2.52,-1.54 -4.92,-3.06 a 2.57,2.57 0 0 0 -3.17,0 3.28,3.28 0 0 0 -0.59,-1.52 c -0.42,-0.51 -2.22,0.25 -2.83,0.9 a 2.39,2.39 0 0 1 -2.27,0.44 c -0.74,-0.12 -1.52,0.72 -1.91,1.22 -0.39,0.5 -1.53,-0.45 -3.44,-0.32 -0.65,-1.86 -3,-2.75 -4.92,-3 a 2.84,2.84 0 0 0 -3,1.53 c -0.39,0.57 -0.61,0.51 -2.57,0.77 -1.96,0.26 -3.75,0.38 -4.49,-0.58 -0.74,-0.96 -1.88,-1 -3.75,0.77 -2.47,1.66 -5.48,-0.13 -8,-1 a 2.42,2.42 0 0 0 -3.39,1.48 c -0.27,0.51 -1.7,0.25 -2.88,0 -1.18,-0.25 -2.35,-1.54 -3.78,-2.24 -2.23,-0.9 -4.92,2 -5.62,2.75 -0.7,0.75 -2.83,0.45 -5.32,0.76 a 24.81,24.81 0 0 1 -7.18,-0.25 c -2.27,-1.85 -3.4,-1.2 -4.71,-0.45 -1.31,0.75 -1.75,0.7 -3.22,0.25 -1.47,-0.45 -3.62,-0.18 -4.53,-0.77 a 5.16,5.16 0 0 0 -4.45,0 c -1,-0.89 -2.17,-2.74 -4.52,-2.87 -2,-0.1 -2.37,0.19 -4.24,1.93 a 3.21,3.21 0 0 1 -1.44,0 1.12,1.12 0 0 0 -0.58,0.08 6.8,6.8 0 0 0 -1.57,-0.77 c -0.36,-0.16 -1,0.88 -1.48,1.75 a 5.44,5.44 0 0 0 -1.72,-0.15 c -0.65,-1.86 -3,-2.75 -4.92,-3 a 2.83,2.83 0 0 0 -3,1.53 1.08,1.08 0 0 1 -0.56,0.47 2.56,2.56 0 0 0 -2.87,0.4 c -1.6,0.17 -3,0.14 -3.63,-0.68 -0.63,-0.82 -1.87,-1 -3.74,0.77 -2.48,1.66 -5.48,-0.13 -8,-1 a 2.42,2.42 0 0 0 -3.39,1.48 c -0.26,0.51 -1.7,0.25 -2.88,0 -1.18,-0.25 -2.35,-1.54 -3.79,-2.24 -2.22,-0.9 -4.91,2 -5.62,2.75 -0.71,0.75 -2.83,0.45 -5.31,0.76 a 25,25 0 0 1 -7.19,-0.25 c -2.26,-1.85 -3.38,-1.2 -4.7,-0.45 -1.32,0.75 -1.74,0.7 -3.21,0.25 -1.47,-0.45 -3.62,-0.18 -4.54,-0.77 a 5.13,5.13 0 0 0 -4.44,0 c -1,-0.89 -2.16,-2.74 -4.51,-2.87 -2.35,-0.13 -2.49,0.32 -5.54,3.13 -0.09,-1.15 -1.7,-1.66 -2.31,-1.91 -0.61,-0.25 -2,2.87 -2,2.87 -2.36,-1.35 -3.83,0.77 -4.32,1 -0.49,0.23 -2.52,-1.54 -4.92,-3.06 a 2.58,2.58 0 0 0 -3.17,0 3.36,3.36 0 0 0 -0.58,-1.52 c -0.44,-0.51 -2.23,0.25 -2.85,0.9 a 2.38,2.38 0 0 1 -2.26,0.44 c -0.73,-0.12 -1.51,0.72 -1.92,1.22 -0.41,0.5 -1.52,-0.45 -3.44,-0.32 -0.65,-1.86 -3,-2.75 -4.93,-3 a 2.82,2.82 0 0 0 -3,1.53 c -0.4,0.57 -0.62,0.51 -2.58,0.77 -1.96,0.26 -3.75,0.38 -4.49,-0.58 -0.74,-0.96 -1.87,-1 -3.74,0.77 -2.48,1.66 -5.49,-0.13 -8,-1 a 2.43,2.43 0 0 0 -3.4,1.48 c -0.26,0.51 -1.7,0.25 -2.87,0 -1.17,-0.25 -2.35,-1.54 -3.78,-2.24 -2.23,-0.9 -4.93,2 -5.61,2.75 -0.68,0.75 -2.85,0.45 -5.32,0.76 a 24.92,24.92 0 0 1 -7.19,-0.25 c -2.26,-1.85 -3.39,-1.2 -4.69,-0.45 -1.3,0.75 -1.75,0.7 -3.23,0.25 -1.48,-0.45 -3.62,-0.18 -4.53,-0.77 a 5.11,5.11 0 0 0 -4.43,0 c -1,-0.89 -2.19,-2.74 -4.54,-2.87 -2.35,-0.13 -2.47,0.32 -5.52,3.13 -0.09,-1.15 -1.71,-1.66 -2.32,-1.91 -0.61,-0.25 -2.05,2.87 -2.05,2.87 -2.35,-1.35 -3.82,0.77 -4.31,1 -0.49,0.23 -2.17,-2.31 -4.77,-2.31 -2.44,0 -4.06,0.06 -4.06,0.06 v 218.52 h 721.67 V 16.86 a 5.77,5.77 0 0 1 -2.44,-0.34 z"
         id="path58"
         inkscape:connector-curvature="0"
         style="fill:url(#linear-gradient-6)" />
      <path
         class="cls-10"
         d="m 1437.41,16.72 c -0.55,-0.14 -1.31,-1.84 -2.15,-1.43 -0.84,0.41 -1,0.75 -1.71,0.61 -0.71,-0.14 -1.53,0.72 -1.91,1.22 -0.38,0.5 -1.52,-0.45 -3.44,-0.32 -0.65,-1.86 -3,-2.75 -4.93,-3 a 2.82,2.82 0 0 0 -3,1.53 c -0.4,0.57 -0.62,0.51 -2.57,0.77 -1.95,0.26 -3.75,0.38 -4.49,-0.58 -0.74,-0.96 -1.88,-1 -3.75,0.77 -2.48,1.66 -5.49,-0.13 -8,-1 a 2.42,2.42 0 0 0 -3.39,1.48 c -0.26,0.51 -1.7,0.25 -2.88,0 -1.18,-0.25 -2.36,-1.54 -3.79,-2.24 -2.22,-0.9 -4.93,2 -5.62,2.75 -0.69,0.75 -2.83,0.45 -5.31,0.76 a 24.9,24.9 0 0 1 -7.19,-0.25 c -2.26,-1.85 -3.39,-1.2 -4.7,-0.45 -1.31,0.75 -1.74,0.7 -3.23,0.25 -1.49,-0.45 -3.61,-0.18 -4.53,-0.77 a 5.14,5.14 0 0 0 -4.44,0 c -1,-0.89 -2.18,-2.74 -4.53,-2.87 -2.35,-0.13 -2.48,0.32 -5.53,3.13 -0.09,-1.15 -1.7,-1.66 -2.3,-1.91 -0.6,-0.25 -2.06,2.87 -2.06,2.87 -2.35,-1.35 -3.83,0.77 -4.3,1 -0.47,0.23 -2.53,-1.54 -4.92,-3.06 a 2.73,2.73 0 0 0 -1.94,-0.5 2.75,2.75 0 0 0 -0.48,-1 c -0.44,-0.51 -2.22,0.25 -2.82,0.9 a 2.4,2.4 0 0 1 -2.27,0.44 c -0.74,-0.12 -1.52,0.72 -1.92,1.22 -0.4,0.5 -1.52,-0.45 -3.44,-0.32 -0.65,-1.86 -3,-2.75 -4.92,-3 a 2.85,2.85 0 0 0 -3,1.53 c -0.4,0.57 -0.6,0.51 -2.57,0.77 -1.97,0.26 -3.74,0.38 -4.49,-0.58 -0.75,-0.96 -1.87,-1 -3.74,0.77 -2.48,1.66 -5.48,-0.13 -8,-1 a 2.43,2.43 0 0 0 -3.41,1.48 c -0.26,0.51 -1.69,0.25 -2.87,0 -1.18,-0.25 -2.35,-1.54 -3.78,-2.24 -2.23,-0.9 -4.92,2 -5.62,2.75 -0.7,0.75 -2.83,0.45 -5.32,0.76 a 24.84,24.84 0 0 1 -7.18,-0.25 c -2.27,-1.85 -3.39,-1.2 -4.71,-0.45 -1.32,0.75 -1.74,0.7 -3.22,0.25 -1.48,-0.45 -3.61,-0.18 -4.53,-0.77 a 5.14,5.14 0 0 0 -4.44,0 c -1,-0.89 -2.17,-2.74 -4.52,-2.87 -2.35,-0.13 -2.49,0.32 -5.54,3.13 -0.09,-1.15 -1.7,-1.66 -2.3,-1.91 -0.6,-0.25 -2,2.87 -2,2.87 -2.36,-1.35 -3.83,0.77 -4.31,1 -0.48,0.23 -2.52,-1.54 -4.92,-3.06 a 2.57,2.57 0 0 0 -3.17,0 3.21,3.21 0 0 0 -0.59,-1.52 c -0.44,-0.51 -2.21,0.25 -2.83,0.9 a 2.39,2.39 0 0 1 -2.27,0.44 c -0.73,-0.12 -1.52,0.72 -1.91,1.22 -0.39,0.5 -1.53,-0.45 -3.44,-0.32 -0.66,-1.86 -3,-2.75 -4.92,-3 a 2.85,2.85 0 0 0 -3,1.53 c -0.4,0.57 -0.61,0.51 -2.56,0.77 -1.95,0.26 -3.76,0.38 -4.5,-0.58 -0.74,-0.96 -1.87,-1 -3.74,0.77 -2.48,1.66 -5.48,-0.13 -8,-1 a 2.43,2.43 0 0 0 -3.39,1.48 c -0.26,0.51 -1.7,0.25 -2.86,0 -1.16,-0.25 -2.36,-1.54 -3.8,-2.24 -2.22,-0.9 -4.92,2 -5.61,2.75 -0.69,0.75 -2.83,0.45 -5.31,0.76 a 24.89,24.89 0 0 1 -7.19,-0.25 c -2.27,-1.85 -3.4,-1.2 -4.7,-0.45 -1.3,0.75 -1.75,0.7 -3.23,0.25 -1.48,-0.45 -3.62,-0.18 -4.53,-0.77 a 5.13,5.13 0 0 0 -4.44,0 c -1,-0.89 -2.19,-2.74 -4.53,-2.87 -2,-0.1 -2.39,0.19 -4.3,2 a 4.46,4.46 0 0 1 -0.5,-0.07 1.47,1.47 0 0 0 -1.11,0.39 5.34,5.34 0 0 0 -1.92,-1.09 c -0.34,-0.14 -0.95,0.79 -1.41,1.62 a 7.77,7.77 0 0 0 -0.92,0 c -0.65,-1.86 -3,-2.75 -4.92,-3 a 2.86,2.86 0 0 0 -3,1.53 c -0.27,0.4 -0.45,0.49 -1.19,0.59 a 2.58,2.58 0 0 0 -3.19,0.35 c -1.19,0.05 -2.17,-0.09 -2.68,-0.75 -0.74,-1 -1.87,-1 -3.75,0.77 -2.48,1.66 -5.48,-0.13 -8,-1 a 2.42,2.42 0 0 0 -3.39,1.48 c -0.25,0.51 -1.69,0.25 -2.87,0 -1.18,-0.25 -2.35,-1.54 -3.78,-2.24 -2.22,-0.9 -4.93,2 -5.63,2.75 -0.7,0.75 -2.82,0.45 -5.3,0.76 a 24.91,24.91 0 0 1 -7.19,-0.25 c -2.26,-1.85 -3.39,-1.2 -4.7,-0.45 -1.31,0.75 -1.75,0.7 -3.22,0.25 -1.47,-0.45 -3.61,-0.18 -4.53,-0.77 a 5.13,5.13 0 0 0 -4.44,0 c -1,-0.89 -2.18,-2.74 -4.53,-2.87 -2.35,-0.13 -2.48,0.32 -5.53,3.13 -0.09,-1.15 -1.69,-1.66 -2.32,-1.91 -0.63,-0.25 -2,2.87 -2,2.87 -2.35,-1.35 -3.83,0.77 -4.31,1 -0.48,0.23 -2.52,-1.54 -4.92,-3.06 a 2.57,2.57 0 0 0 -3.17,0 3.28,3.28 0 0 0 -0.59,-1.52 c -0.42,-0.51 -2.22,0.25 -2.83,0.9 a 2.39,2.39 0 0 1 -2.27,0.44 c -0.74,-0.12 -1.52,0.72 -1.91,1.22 -0.39,0.5 -1.53,-0.45 -3.44,-0.32 -0.65,-1.86 -3,-2.75 -4.92,-3 a 2.84,2.84 0 0 0 -3,1.53 c -0.39,0.57 -0.61,0.51 -2.57,0.77 -1.96,0.26 -3.75,0.38 -4.49,-0.58 -0.74,-0.96 -1.88,-1 -3.75,0.77 -2.47,1.66 -5.48,-0.13 -8,-1 a 2.42,2.42 0 0 0 -3.39,1.48 c -0.27,0.51 -1.7,0.25 -2.88,0 -1.18,-0.25 -2.35,-1.54 -3.78,-2.24 -2.23,-0.9 -4.92,2 -5.62,2.75 -0.7,0.75 -2.83,0.45 -5.32,0.76 a 24.81,24.81 0 0 1 -7.18,-0.25 c -2.27,-1.85 -3.4,-1.2 -4.71,-0.45 -1.31,0.75 -1.75,0.7 -3.22,0.25 -1.47,-0.45 -3.62,-0.18 -4.53,-0.77 a 5.16,5.16 0 0 0 -4.45,0 c -1,-0.89 -2.17,-2.74 -4.52,-2.87 -2,-0.1 -2.37,0.19 -4.24,1.93 a 3.21,3.21 0 0 1 -1.44,0 1.12,1.12 0 0 0 -0.58,0.08 6.8,6.8 0 0 0 -1.57,-0.77 c -0.36,-0.16 -1,0.88 -1.48,1.75 a 5.44,5.44 0 0 0 -1.72,-0.15 c -0.65,-1.86 -3,-2.75 -4.92,-3 a 2.83,2.83 0 0 0 -3,1.53 1.08,1.08 0 0 1 -0.56,0.47 2.56,2.56 0 0 0 -2.87,0.4 c -1.6,0.17 -3,0.14 -3.63,-0.68 -0.63,-0.82 -1.87,-1 -3.74,0.77 -2.48,1.66 -5.48,-0.13 -8,-1 a 2.42,2.42 0 0 0 -3.39,1.48 c -0.26,0.51 -1.7,0.25 -2.88,0 -1.18,-0.25 -2.35,-1.54 -3.79,-2.24 -2.22,-0.9 -4.91,2 -5.62,2.75 -0.71,0.75 -2.83,0.45 -5.31,0.76 a 25,25 0 0 1 -7.19,-0.25 c -2.26,-1.85 -3.38,-1.2 -4.7,-0.45 -1.32,0.75 -1.74,0.7 -3.21,0.25 -1.47,-0.45 -3.62,-0.18 -4.54,-0.77 a 5.13,5.13 0 0 0 -4.44,0 c -1,-0.89 -2.16,-2.74 -4.51,-2.87 -2.35,-0.13 -2.49,0.32 -5.54,3.13 -0.09,-1.15 -1.7,-1.66 -2.31,-1.91 -0.61,-0.25 -2,2.87 -2,2.87 -2.36,-1.35 -3.83,0.77 -4.32,1 -0.49,0.23 -2.52,-1.54 -4.92,-3.06 a 2.58,2.58 0 0 0 -3.17,0 3.36,3.36 0 0 0 -0.58,-1.52 c -0.44,-0.51 -2.23,0.25 -2.85,0.9 a 2.38,2.38 0 0 1 -2.26,0.44 c -0.73,-0.12 -1.51,0.72 -1.92,1.22 -0.41,0.5 -1.52,-0.45 -3.44,-0.32 -0.65,-1.86 -3,-2.75 -4.93,-3 a 2.82,2.82 0 0 0 -3,1.53 c -0.4,0.57 -0.62,0.51 -2.58,0.77 -1.96,0.26 -3.75,0.38 -4.49,-0.58 -0.74,-0.96 -1.87,-1 -3.74,0.77 -2.48,1.66 -5.49,-0.13 -8,-1 a 2.43,2.43 0 0 0 -3.4,1.48 c -0.26,0.51 -1.7,0.25 -2.87,0 -1.17,-0.25 -2.35,-1.54 -3.78,-2.24 -2.23,-0.9 -4.93,2 -5.61,2.75 -0.68,0.75 -2.85,0.45 -5.32,0.76 a 24.92,24.92 0 0 1 -7.19,-0.25 c -2.26,-1.85 -3.39,-1.2 -4.69,-0.45 -1.3,0.75 -1.75,0.7 -3.23,0.25 -1.48,-0.45 -3.62,-0.18 -4.53,-0.77 a 5.11,5.11 0 0 0 -4.43,0 c -1,-0.89 -2.19,-2.74 -4.54,-2.87 -2.35,-0.13 -2.47,0.32 -5.52,3.13 -0.09,-1.15 -1.71,-1.66 -2.32,-1.91 -0.61,-0.25 -2.05,2.87 -2.05,2.87 -2.35,-1.35 -3.82,0.77 -4.31,1 -0.49,0.23 -2.17,-2.31 -4.77,-2.31 -2.44,0 -4.06,0.06 -4.06,0.06 v 155.3 c 1.76,0 2.82,0.17 3.56,-0.15 1.15,-0.49 1.35,0.82 3.51,0.82 2.16,0 4.39,0.3 4.92,-0.49 0.53,-0.79 1.62,-0.29 3.3,0.39 1.68,0.68 3,0.31 4.25,1.1 1.25,0.79 3.16,0.69 4.31,1.19 1.15,0.5 1.82,-1.48 4.32,-1.4 2.5,0.08 6.48,0.7 7.49,-0.09 1.01,-0.79 1.29,-1.4 3.51,-1 a 37.46,37.46 0 0 0 8.84,0.89 c 4.11,-0.11 6.4,-1.59 8.36,-0.89 1.96,0.7 4.12,0.78 7.22,0.69 a 21.45,21.45 0 0 0 6.61,-1 c 1.2,-0.49 1.88,0 3,0.4 1.12,0.4 1.89,-0.59 4,0.1 2.11,0.69 3.24,0.4 4.92,0.4 1.68,0 2.91,-1.19 4.66,-0.6 1.75,0.59 4.58,2.07 6.34,1.19 1.76,-0.88 2.63,-1.19 3.7,-0.88 a 6.61,6.61 0 0 0 3.91,0.09 c 1.34,-0.5 3.18,-0.8 4.19,-0.3 a 6.19,6.19 0 0 0 4.7,-0.07 v 1.27 c 1.13,0.69 2.83,1.59 3.55,1.27 a 6.3,6.3 0 0 1 3.51,-0.6 c 2.16,0 4.39,0.3 4.93,-0.49 a 2.64,2.64 0 0 1 3.3,-1.29 c 1.69,0.69 3,0.31 4.25,1.1 1.25,0.79 3.18,0.69 4.32,1.19 1.14,0.5 1.82,-1.48 4.32,-1.4 2.5,0.08 6.47,0.7 7.49,-0.09 1.02,-0.79 1.28,-1.4 3.5,-1 a 37.55,37.55 0 0 0 8.84,0.89 c 4.12,-0.11 6.41,-1.59 8.37,-0.89 1.96,0.7 4.11,0.78 7.22,0.69 a 21.47,21.47 0 0 0 6.61,-1 c 1.21,-0.49 1.88,0 3,0.4 1.12,0.4 1.88,-0.59 4,0.1 2.12,0.69 3.24,0.4 4.93,0.4 1.69,0 2.9,-1.19 4.65,-0.6 l 0.56,0.2 v 1.1 c 1.14,0.69 2.83,1.59 3.56,1.27 a 6.27,6.27 0 0 1 3.51,-0.6 c 2.16,0 4.39,0.3 4.93,-0.49 a 4,4 0 0 1 0.82,-0.92 4.21,4.21 0 0 0 0.58,-0.17 9.38,9.38 0 0 1 1.29,-0.37 3.28,3.28 0 0 1 0.6,0.17 c 1.7,0.69 3,0.31 4.26,1.1 1.26,0.79 3.17,0.69 4.31,1.19 1.14,0.5 1.82,-1.48 4.31,-1.4 2.49,0.08 6.48,0.7 7.49,-0.09 1.01,-0.79 1.29,-1.4 3.51,-1 a 37.57,37.57 0 0 0 8.84,0.89 c 4.12,-0.11 6.41,-1.59 8.37,-0.89 1.96,0.7 4.11,0.78 7.22,0.69 a 21.31,21.31 0 0 0 6.61,-1 c 1.22,-0.49 1.89,0 3,0.4 1.11,0.4 1.88,-0.59 4,0.1 2.12,0.69 3.25,0.4 4.93,0.4 1.68,0 2.91,-1.19 4.65,-0.6 1.74,0.59 4.59,2.07 6.35,1.19 1.76,-0.88 2.63,-1.19 3.71,-0.88 a 6.59,6.59 0 0 0 3.91,0.09 c 1.36,-0.5 3.16,-0.8 4.18,-0.3 a 6.2,6.2 0 0 0 4.71,-0.07 v 1.27 c 1.13,0.69 2.83,1.59 3.57,1.27 a 6.25,6.25 0 0 1 3.51,-0.6 c 2.16,0 4.38,0.3 4.92,-0.49 a 2.65,2.65 0 0 1 3.3,-1.29 c 1.68,0.69 3,0.31 4.25,1.1 1.25,0.79 3.17,0.69 4.32,1.19 1.15,0.5 1.82,-1.48 4.32,-1.4 2.5,0.08 6.47,0.7 7.49,-0.09 1.02,-0.79 1.28,-1.4 3.51,-1 a 37.44,37.44 0 0 0 8.82,0.89 c 4.12,-0.11 6.41,-1.59 8.37,-0.89 1.96,0.7 4.11,0.78 7.22,0.69 a 21.52,21.52 0 0 0 6.61,-1 c 1.2,-0.49 1.89,0 3,0.4 1.11,0.4 1.9,-0.59 4.05,0.1 2.15,0.69 3.23,0.4 4.92,0.4 1.69,0 2.76,-1.06 4.36,-0.69 v 1.39 c 1.12,0.69 2.83,1.59 3.56,1.27 a 6.29,6.29 0 0 1 3.51,-0.6 c 2.15,0 4.39,0.3 4.93,-0.49 a 4.19,4.19 0 0 1 0.71,-0.83 4.42,4.42 0 0 0 1.56,-0.26 c 0.27,-0.09 0.55,-0.18 0.84,-0.26 l 0.19,0.06 c 1.69,0.69 3,0.31 4.25,1.1 1.25,0.79 3.16,0.69 4.32,1.19 1.16,0.5 1.82,-1.48 4.31,-1.4 2.49,0.08 6.47,0.7 7.49,-0.09 1.02,-0.79 1.28,-1.4 3.5,-1 a 37.5,37.5 0 0 0 8.83,0.89 c 4.11,-0.11 6.41,-1.59 8.37,-0.89 1.96,0.7 4.11,0.78 7.22,0.69 a 21.3,21.3 0 0 0 6.61,-1 c 1.22,-0.49 1.89,0 3,0.4 1.11,0.4 1.9,-0.59 4.06,0.1 2.16,0.69 3.24,0.4 4.92,0.4 1.68,0 2.91,-1.19 4.66,-0.6 1.75,0.59 4.59,2.07 6.35,1.19 1.76,-0.88 2.63,-1.19 3.7,-0.88 a 6.6,6.6 0 0 0 3.91,0.09 c 1.35,-0.5 3.17,-0.8 4.19,-0.3 a 6.2,6.2 0 0 0 4.71,-0.07 v 1.27 c 1.13,0.69 2.83,1.59 3.56,1.27 a 6.25,6.25 0 0 1 3.5,-0.6 c 2.16,0 4.39,0.3 4.93,-0.49 a 2.65,2.65 0 0 1 3.3,-1.29 c 1.7,0.69 3,0.31 4.25,1.1 1.25,0.79 3.17,0.69 4.31,1.19 1.14,0.5 1.82,-1.48 4.31,-1.4 2.49,0.08 6.48,0.7 7.5,-0.09 1.02,-0.79 1.27,-1.4 3.5,-1 a 37.55,37.55 0 0 0 8.84,0.89 c 4.12,-0.11 6.41,-1.59 8.37,-0.89 1.96,0.7 4.11,0.78 7.22,0.69 a 21.35,21.35 0 0 0 6.61,-1 c 1.22,-0.49 1.9,0 3,0.4 1.1,0.4 1.89,-0.59 4,0.1 2.11,0.69 3.24,0.4 4.93,0.4 1.69,0 2.9,-1.19 4.65,-0.6 1.75,0.59 4.59,2.07 6.34,1.19 1.75,-0.88 2.63,-1.19 3.72,-0.88 a 6.61,6.61 0 0 0 3.91,0.09 c 1.35,-0.5 3.16,-0.8 4.18,-0.3 a 5.91,5.91 0 0 0 3.36,0.33 v 0.87 c 1.13,0.69 2.83,1.59 3.57,1.27 a 6.26,6.26 0 0 1 3.51,-0.6 c 2.16,0 4.39,0.3 4.92,-0.49 a 2.66,2.66 0 0 1 3.3,-1.29 c 1.69,0.69 3,0.31 4.26,1.1 1.26,0.79 3.18,0.69 4.32,1.19 1.14,0.5 1.82,-1.48 4.31,-1.4 2.49,0.08 6.48,0.7 7.49,-0.09 1.01,-0.79 1.29,-1.4 3.51,-1 a 37.45,37.45 0 0 0 8.83,0.89 c 4.12,-0.11 6.4,-1.59 8.36,-0.89 1.96,0.7 4.12,0.78 7.22,0.69 a 21.37,21.37 0 0 0 6.61,-1 c 1.22,-0.49 1.89,0 3,0.4 1.11,0.4 1.9,-0.59 4.05,0.1 2.15,0.69 3.24,0.4 4.93,0.4 1.69,0 2.9,-1.19 4.65,-0.6 1.75,0.59 4.6,2.07 6.35,1.19 1.75,-0.88 2.63,-1.19 3.7,-0.88 a 6.6,6.6 0 0 0 3.91,0.09 c 1.36,-0.5 3.17,-0.8 4.19,-0.3 1.02,0.5 2.77,-0.47 5.53,-0.47 V 16.86 a 4.61,4.61 0 0 1 -2.13,-0.14 z"
         id="path60"
         inkscape:connector-curvature="0"
         style="fill:url(#linear-gradient-7)" />
      <path
         class="cls-11"
         d="m 1436.54,16.58 c -0.44,-0.5 -0.73,-1.12 -1.28,-0.92 -0.73,0.27 -1,0.8 -1.71,0.67 -0.71,-0.13 -1.53,0.7 -1.91,1.22 -0.38,0.52 -1.52,-0.44 -3.44,-0.32 -0.65,-1.84 -3,-2.74 -4.93,-3 a 2.82,2.82 0 0 0 -3,1.54 c -0.4,0.57 -0.62,0.51 -2.57,0.76 -1.95,0.25 -3.75,0.38 -4.49,-0.57 -0.74,-0.95 -1.88,-1 -3.75,0.76 -2.48,1.66 -5.49,-0.13 -8,-1 a 2.42,2.42 0 0 0 -3.39,1.47 c -0.26,0.52 -1.7,0.27 -2.88,0 -1.18,-0.27 -2.36,-1.53 -3.79,-2.24 -2.22,-0.89 -4.93,2 -5.62,2.76 -0.69,0.76 -2.83,0.44 -5.31,0.77 a 25.51,25.51 0 0 1 -7.19,-0.26 c -2.26,-1.85 -3.39,-1.22 -4.7,-0.45 -1.31,0.77 -1.74,0.71 -3.23,0.25 -1.49,-0.46 -3.61,-0.19 -4.53,-0.76 a 5,5 0 0 0 -4.44,0 c -1,-0.9 -2.18,-2.76 -4.53,-2.88 -2.35,-0.12 -2.48,0.32 -5.53,3.13 -0.09,-1.15 -1.7,-1.66 -2.3,-1.92 -0.6,-0.26 -2.06,2.89 -2.06,2.89 -2.35,-1.34 -3.83,0.75 -4.3,1 -0.47,0.25 -2.53,-1.54 -4.92,-3.07 a 2.81,2.81 0 0 0 -1.94,-0.49 2.73,2.73 0 0 0 -0.48,-1 c -0.44,-0.5 -2.22,0.26 -2.82,0.9 a 2.45,2.45 0 0 1 -2.27,0.44 c -0.74,-0.12 -1.52,0.7 -1.92,1.22 -0.4,0.52 -1.52,-0.44 -3.44,-0.32 -0.65,-1.84 -3,-2.74 -4.92,-3 a 2.84,2.84 0 0 0 -3,1.54 c -0.4,0.57 -0.6,0.51 -2.57,0.76 -1.97,0.25 -3.74,0.38 -4.49,-0.57 -0.75,-0.95 -1.87,-1 -3.74,0.76 -2.48,1.66 -5.48,-0.13 -8,-1 a 2.43,2.43 0 0 0 -3.41,1.47 c -0.26,0.52 -1.69,0.27 -2.87,0 -1.18,-0.27 -2.35,-1.53 -3.78,-2.24 -2.23,-0.89 -4.92,2 -5.62,2.76 -0.7,0.76 -2.83,0.44 -5.32,0.77 a 25.45,25.45 0 0 1 -7.18,-0.26 c -2.27,-1.85 -3.39,-1.22 -4.71,-0.45 -1.32,0.77 -1.74,0.71 -3.22,0.25 -1.48,-0.46 -3.61,-0.19 -4.53,-0.76 a 5,5 0 0 0 -4.44,0 c -1,-0.9 -2.17,-2.76 -4.52,-2.88 -2.35,-0.12 -2.49,0.32 -5.54,3.13 -0.09,-1.15 -1.7,-1.66 -2.3,-1.92 -0.6,-0.26 -2,2.89 -2,2.89 -2.36,-1.34 -3.83,0.75 -4.31,1 -0.48,0.25 -2.52,-1.54 -4.92,-3.07 a 2.58,2.58 0 0 0 -3.17,0 3.33,3.33 0 0 0 -0.59,-1.52 c -0.44,-0.5 -2.21,0.26 -2.83,0.9 a 2.44,2.44 0 0 1 -2.27,0.44 c -0.73,-0.12 -1.52,0.7 -1.91,1.22 -0.39,0.52 -1.53,-0.44 -3.44,-0.32 -0.66,-1.84 -3,-2.74 -4.92,-3 a 2.84,2.84 0 0 0 -3,1.54 c -0.4,0.57 -0.61,0.51 -2.56,0.76 -1.95,0.25 -3.76,0.38 -4.5,-0.57 -0.74,-0.95 -1.87,-1 -3.74,0.76 -2.48,1.66 -5.48,-0.13 -8,-1 a 2.42,2.42 0 0 0 -3.39,1.47 c -0.26,0.52 -1.7,0.27 -2.86,0 -1.16,-0.27 -2.36,-1.53 -3.8,-2.24 -2.22,-0.89 -4.92,2 -5.61,2.76 -0.69,0.76 -2.83,0.44 -5.31,0.77 a 25.5,25.5 0 0 1 -7.19,-0.26 c -2.27,-1.85 -3.4,-1.22 -4.7,-0.45 -1.3,0.77 -1.75,0.71 -3.23,0.25 -1.48,-0.46 -3.62,-0.19 -4.53,-0.76 a 5,5 0 0 0 -4.44,0 c -1,-0.9 -2.19,-2.76 -4.53,-2.88 -2,-0.11 -2.39,0.19 -4.3,2 a 4.67,4.67 0 0 1 -0.5,-0.07 1.49,1.49 0 0 0 -1.11,0.39 5.78,5.78 0 0 0 -1.92,-1.09 c -0.34,-0.14 -0.95,0.78 -1.41,1.62 a 6.16,6.16 0 0 0 -0.92,0 c -0.65,-1.84 -3,-2.74 -4.92,-3 a 2.85,2.85 0 0 0 -3,1.54 c -0.27,0.39 -0.45,0.49 -1.19,0.59 a 2.57,2.57 0 0 0 -3.19,0.35 c -1.19,0.05 -2.17,-0.1 -2.68,-0.75 -0.74,-1 -1.87,-1 -3.75,0.76 -2.48,1.66 -5.48,-0.13 -8,-1 a 2.42,2.42 0 0 0 -3.39,1.47 c -0.25,0.52 -1.69,0.27 -2.87,0 -1.18,-0.27 -2.35,-1.53 -3.78,-2.24 -2.22,-0.89 -4.93,2 -5.63,2.76 -0.7,0.76 -2.82,0.44 -5.3,0.77 a 25.52,25.52 0 0 1 -7.19,-0.26 c -2.26,-1.85 -3.39,-1.22 -4.7,-0.45 -1.31,0.77 -1.75,0.71 -3.22,0.25 -1.47,-0.46 -3.61,-0.19 -4.53,-0.76 a 5,5 0 0 0 -4.44,0 c -1,-0.9 -2.18,-2.76 -4.53,-2.88 -2.35,-0.12 -2.48,0.32 -5.53,3.13 -0.09,-1.15 -1.69,-1.66 -2.32,-1.92 -0.63,-0.26 -2,2.89 -2,2.89 -2.35,-1.34 -3.83,0.75 -4.31,1 -0.48,0.25 -2.52,-1.54 -4.92,-3.07 a 2.58,2.58 0 0 0 -3.17,0 3.41,3.41 0 0 0 -0.59,-1.52 c -0.42,-0.5 -2.22,0.26 -2.83,0.9 a 2.44,2.44 0 0 1 -2.27,0.44 c -0.74,-0.12 -1.52,0.7 -1.91,1.22 -0.39,0.52 -1.53,-0.44 -3.44,-0.32 -0.65,-1.84 -3,-2.74 -4.92,-3 a 2.83,2.83 0 0 0 -3,1.54 c -0.39,0.57 -0.61,0.51 -2.57,0.76 -1.96,0.25 -3.75,0.38 -4.49,-0.57 -0.74,-0.95 -1.88,-1 -3.75,0.76 -2.47,1.66 -5.48,-0.13 -8,-1 a 2.42,2.42 0 0 0 -3.39,1.47 c -0.27,0.52 -1.7,0.27 -2.88,0 -1.18,-0.27 -2.35,-1.53 -3.78,-2.24 -2.23,-0.89 -4.92,2 -5.62,2.76 -0.7,0.76 -2.83,0.44 -5.32,0.77 a 25.42,25.42 0 0 1 -7.18,-0.26 c -2.27,-1.85 -3.4,-1.22 -4.71,-0.45 -1.31,0.77 -1.75,0.71 -3.22,0.25 -1.47,-0.46 -3.62,-0.19 -4.53,-0.76 a 5,5 0 0 0 -4.45,0 c -1,-0.9 -2.17,-2.76 -4.52,-2.88 -2,-0.11 -2.37,0.19 -4.24,1.93 a 3.63,3.63 0 0 1 -1.44,0 1.1,1.1 0 0 0 -0.58,0.07 8.12,8.12 0 0 0 -1.57,-0.77 c -0.36,-0.15 -1,0.88 -1.48,1.76 a 6,6 0 0 0 -1.72,-0.16 c -0.65,-1.84 -3,-2.74 -4.92,-3 a 2.82,2.82 0 0 0 -3,1.54 1,1 0 0 1 -0.56,0.46 2.54,2.54 0 0 0 -2.87,0.41 c -1.6,0.18 -3,0.14 -3.63,-0.68 -0.74,-1 -1.87,-1 -3.74,0.76 -2.48,1.66 -5.48,-0.13 -8,-1 a 2.41,2.41 0 0 0 -3.39,1.47 c -0.26,0.52 -1.7,0.27 -2.88,0 -1.18,-0.27 -2.35,-1.53 -3.79,-2.24 -2.22,-0.89 -4.91,2 -5.62,2.76 -0.71,0.76 -2.83,0.44 -5.31,0.77 a 25.57,25.57 0 0 1 -7.19,-0.26 c -2.26,-1.85 -3.38,-1.22 -4.7,-0.45 -1.32,0.77 -1.74,0.71 -3.21,0.25 -1.47,-0.46 -3.62,-0.19 -4.54,-0.76 a 5,5 0 0 0 -4.44,0 c -1,-0.9 -2.16,-2.76 -4.51,-2.88 -2.35,-0.12 -2.49,0.32 -5.54,3.13 -0.09,-1.15 -1.7,-1.66 -2.31,-1.92 -0.61,-0.26 -2,2.89 -2,2.89 -2.36,-1.34 -3.83,0.75 -4.32,1 -0.49,0.25 -2.52,-1.54 -4.92,-3.07 a 2.59,2.59 0 0 0 -3.17,0 3.49,3.49 0 0 0 -0.58,-1.52 c -0.44,-0.5 -2.23,0.26 -2.85,0.9 a 2.43,2.43 0 0 1 -2.26,0.44 c -0.73,-0.12 -1.51,0.7 -1.92,1.22 -0.41,0.52 -1.52,-0.44 -3.44,-0.32 -0.65,-1.84 -3,-2.74 -4.93,-3 a 2.82,2.82 0 0 0 -3,1.54 c -0.4,0.57 -0.62,0.51 -2.58,0.76 -1.96,0.25 -3.75,0.38 -4.49,-0.57 -0.74,-0.95 -1.87,-1 -3.74,0.76 -2.48,1.66 -5.49,-0.13 -8,-1 a 2.42,2.42 0 0 0 -3.4,1.47 c -0.26,0.52 -1.7,0.27 -2.87,0 -1.17,-0.27 -2.35,-1.53 -3.78,-2.24 -2.23,-0.89 -4.93,2 -5.61,2.76 -0.68,0.76 -2.85,0.44 -5.32,0.77 a 25.53,25.53 0 0 1 -7.19,-0.26 c -2.26,-1.85 -3.39,-1.22 -4.69,-0.45 -1.3,0.77 -1.75,0.71 -3.23,0.25 -1.48,-0.46 -3.62,-0.19 -4.53,-0.76 a 5,5 0 0 0 -4.43,0 c -1,-0.9 -2.19,-2.76 -4.54,-2.88 -2.35,-0.12 -2.47,0.32 -5.52,3.13 -0.09,-1.15 -1.71,-1.66 -2.32,-1.92 -0.61,-0.26 -2.05,2.89 -2.05,2.89 -2.35,-1.34 -3.82,0.75 -4.31,1 -0.49,0.25 -2.3,-2.13 -4.92,-2.13 -2.62,0 -3.92,-0.11 -3.92,-0.11 v 107.53 c 1.94,0 2.39,-0.59 3.28,-0.24 a 4.8,4.8 0 0 0 3.25,-0.5 2.82,2.82 0 0 1 3,-0.57 c 1.57,0.67 2.36,0.77 3.1,-0.14 0.74,-0.91 2.15,-0.11 3.27,0.46 1.12,0.57 2.94,0.39 3.67,0.71 0.73,0.32 2,2.4 4.33,2 2.33,-0.4 2.2,-0.41 3.15,0.25 0.95,0.66 1.68,0.33 2.92,0.09 1.24,-0.24 1.85,-1.47 2.53,-0.75 0.68,0.72 1.75,0.75 4.28,0.66 2.53,-0.09 7.08,-1.48 8.38,-1 1.3,0.48 2.19,1.64 2.53,1.15 a 3.73,3.73 0 0 1 3.2,-1.32 c 1.91,0 4.78,0.17 5.62,-0.24 a 6.59,6.59 0 0 1 4.39,0.08 c 1.46,0.57 1.19,1 2.81,0.73 a 22,22 0 0 1 4.67,-0.08 c 2,0.08 5,-1.57 6.52,-1.9 a 3.59,3.59 0 0 1 3.1,0.42 c 1.18,0.57 2.07,1.06 3,0.66 0.93,-0.4 1.24,-0.25 4.28,0.17 a 19.75,19.75 0 0 0 6.8,-0.08 c 0.9,-0.34 1.35,-1.41 3.21,-0.75 1.86,0.66 1.84,0.08 2.69,-0.26 a 6.34,6.34 0 0 1 3.72,0.08 c 1.12,0.42 2.69,0.26 4.27,0.83 a 10,10 0 0 0 3.72,0.05 v 2.35 c 0.25,-0.33 0.5,-0.66 0.69,-0.89 0.59,-0.68 0.74,-1.12 1.62,-0.76 a 3.29,3.29 0 0 0 1.84,0.09 c 0.5,0 0.89,0.9 1.51,0.54 0.62,-0.36 1.24,-2 2.82,-1.3 1.58,0.7 2.48,0.65 3.2,-0.26 0.72,-0.91 2,-0.4 3.09,0.18 1.09,0.58 1.57,1.23 2.64,1.23 1.07,0 1.46,0.58 2.19,0.9 0.73,0.32 2,-0.49 4.33,-0.9 2.33,-0.41 2.18,-0.41 3.14,0.25 0.96,0.66 1.68,0.33 2.92,0.09 1.24,-0.24 1.86,-1.47 2.53,-0.75 0.67,0.72 1.74,0.75 4.27,0.66 2.53,-0.09 7.08,-1.48 8.38,-1 1.3,0.48 2.19,1.64 2.53,1.15 a 3.74,3.74 0 0 1 3.2,-1.32 c 1.92,0 4.78,0.17 5.62,-0.24 a 6.58,6.58 0 0 1 4.38,0.08 c 1.46,0.57 1.19,1 2.82,0.73 a 21.94,21.94 0 0 1 4.66,-0.08 c 2,0.08 5,-1.57 6.52,-1.9 a 3.59,3.59 0 0 1 3.09,0.42 c 1.17,0.57 2.07,1.06 3,0.66 0.93,-0.4 1.24,-0.25 4.27,0.17 0.72,0.09 1.44,0.16 2.12,0.19 v 2 c 0.25,-0.33 0.51,-0.66 0.69,-0.89 0.58,-0.68 0.73,-1.12 1.63,-0.76 a 3.27,3.27 0 0 0 1.83,0.09 c 0.49,0 0.89,0.9 1.5,0.54 0.61,-0.36 1.25,-2 2.82,-1.3 1.57,0.7 2.47,0.65 3.2,-0.26 0.73,-0.91 2,-0.4 3.1,0.18 1.1,0.58 1.57,1.23 2.64,1.23 1.07,0 1.46,0.58 2.19,0.9 0.73,0.32 2,-0.49 4.33,-0.9 2.33,-0.41 2.19,-0.41 3.14,0.25 0.95,0.66 1.69,0.33 2.93,0.09 1.24,-0.24 1.86,-1.47 2.53,-0.75 0.67,0.72 1.74,0.75 4.28,0.66 2.54,-0.09 7.08,-1.48 8.38,-1 1.3,0.48 2.19,1.64 2.53,1.15 a 3.74,3.74 0 0 1 3.21,-1.32 c 1.9,0 4.78,0.17 5.61,-0.24 a 6.61,6.61 0 0 1 4.39,0.08 c 1.46,0.57 1.18,1 2.81,0.73 a 22,22 0 0 1 4.67,-0.08 c 2,0.08 5,-1.57 6.51,-1.9 a 3.59,3.59 0 0 1 3.1,0.42 c 1.19,0.57 2.09,1.06 3,0.66 0.91,-0.4 1.23,-0.25 4.27,0.17 a 19.74,19.74 0 0 0 6.8,-0.08 c 0.9,-0.34 1.35,-1.41 3.21,-0.75 1.86,0.66 1.85,0.08 2.69,-0.26 a 6.31,6.31 0 0 1 3.71,0.08 c 1.13,0.42 2.7,0.26 4.27,0.83 a 10,10 0 0 0 3.72,0.05 v 2.35 c 0.25,-0.33 0.5,-0.66 0.69,-0.89 0.58,-0.68 0.74,-1.12 1.63,-0.76 a 3.27,3.27 0 0 0 1.83,0.09 c 0.5,0 0.89,0.9 1.51,0.54 0.62,-0.36 1.24,-2 2.81,-1.3 1.57,0.7 2.47,0.65 3.21,-0.26 0.74,-0.91 2,-0.4 3.09,0.18 1.09,0.58 1.58,1.23 2.65,1.23 1.07,0 1.46,0.58 2.19,0.9 0.73,0.32 2,-0.49 4.33,-0.9 2.33,-0.41 2.2,-0.41 3.15,0.25 0.95,0.66 1.68,0.33 2.92,0.09 1.24,-0.24 1.86,-1.47 2.53,-0.75 0.67,0.72 1.74,0.75 4.27,0.66 2.53,-0.09 7.09,-1.48 8.39,-1 1.3,0.48 2.19,1.64 2.52,1.15 a 3.76,3.76 0 0 1 3.21,-1.32 c 1.91,0 4.78,0.17 5.62,-0.24 a 6.61,6.61 0 0 1 4.39,0.08 c 1.45,0.57 1.18,1 2.81,0.73 a 21.94,21.94 0 0 1 4.66,-0.08 c 2,0.08 5,-1.57 6.53,-1.9 a 3.59,3.59 0 0 1 3.1,0.42 c 1.17,0.57 2.07,1.06 3,0.66 0.93,-0.4 1.23,-0.25 4.28,0.17 0.41,0.05 0.83,0.11 1.24,0.13 v 2.11 c 0.25,-0.33 0.5,-0.66 0.68,-0.89 0.59,-0.68 0.74,-1.12 1.62,-0.76 a 3.34,3.34 0 0 0 1.85,0.09 c 0.48,0 0.89,0.9 1.5,0.54 0.61,-0.36 1.24,-2 2.82,-1.3 1.58,0.7 2.47,0.65 3.2,-0.26 0.73,-0.91 2,-0.4 3.09,0.18 1.09,0.58 1.57,1.23 2.65,1.23 1.08,0 1.46,0.58 2.19,0.9 0.73,0.32 2,-0.49 4.33,-0.9 2.33,-0.41 2.19,-0.41 3.15,0.25 0.96,0.66 1.68,0.33 2.92,0.09 1.24,-0.24 1.85,-1.47 2.53,-0.75 0.68,0.72 1.74,0.75 4.27,0.66 2.53,-0.09 7.08,-1.48 8.37,-1 1.29,0.48 2.2,1.64 2.55,1.15 a 3.7,3.7 0 0 1 3.19,-1.32 c 1.91,0 4.78,0.17 5.62,-0.24 a 6.59,6.59 0 0 1 4.39,0.08 c 1.45,0.57 1.18,1 2.81,0.73 a 22,22 0 0 1 4.67,-0.08 c 2,0.08 5,-1.57 6.52,-1.9 a 3.55,3.55 0 0 1 3.08,0.42 c 1.19,0.57 2.09,1.06 3,0.66 0.91,-0.4 1.23,-0.25 4.27,0.17 a 19.74,19.74 0 0 0 6.8,-0.08 c 0.9,-0.34 1.35,-1.41 3.2,-0.75 1.85,0.66 1.86,0.08 2.7,-0.26 a 6.35,6.35 0 0 1 3.72,0.08 c 1.12,0.42 2.69,0.26 4.26,0.83 a 10,10 0 0 0 3.72,0.05 v 2.35 c 0.26,-0.33 0.5,-0.66 0.68,-0.89 0.59,-0.68 0.74,-1.12 1.62,-0.76 a 3.32,3.32 0 0 0 1.85,0.09 c 0.5,0 0.89,0.9 1.5,0.54 0.61,-0.36 1.24,-2 2.82,-1.3 1.58,0.7 2.47,0.65 3.21,-0.26 0.74,-0.91 2,-0.4 3.09,0.18 1.09,0.58 1.57,1.23 2.65,1.23 1.08,0 1.45,0.58 2.19,0.9 0.74,0.32 2,-0.49 4.33,-0.9 2.33,-0.41 2.19,-0.41 3.16,0.25 0.97,0.66 1.68,0.33 2.91,0.09 1.23,-0.24 1.86,-1.47 2.54,-0.75 0.68,0.72 1.74,0.75 4.27,0.66 2.53,-0.09 7.09,-1.48 8.38,-1 1.29,0.48 2.19,1.64 2.52,1.15 a 3.75,3.75 0 0 1 3.21,-1.32 c 1.92,0 4.78,0.17 5.62,-0.24 a 6.57,6.57 0 0 1 4.38,0.08 c 1.48,0.57 1.19,1 2.82,0.73 a 22,22 0 0 1 4.67,-0.08 c 2,0.08 5,-1.57 6.52,-1.9 a 3.6,3.6 0 0 1 3.1,0.42 c 1.18,0.57 2.07,1.06 3,0.66 0.93,-0.4 1.23,-0.25 4.27,0.17 3.69,0.49 7.22,-1.07 10.89,-0.73 1.41,0.13 2.77,-0.6 4.2,-0.49 1.73,0.14 3.44,0.59 5.18,0.76 1.14,0.11 2.68,0.3 2.89,2.37 1.9,-0.76 3.77,-0.57 5.65,-1.21 a 6.34,6.34 0 0 1 3,-0.67 10.54,10.54 0 0 0 4,-0.47 c 1.66,-0.38 3,1.5 4.64,1.5 1.07,0 1.46,0.58 2.19,0.9 0.73,0.32 2,-0.49 4.33,-0.9 2.33,-0.41 2.19,-0.41 3.15,0.25 0.96,0.66 1.69,0.33 2.93,0.09 1.24,-0.24 1.85,-1.47 2.52,-0.75 0.67,0.72 1.74,0.75 4.27,0.66 2.53,-0.09 7.08,-1.48 8.38,-1 1.3,0.48 2.19,1.64 2.53,1.15 a 3.73,3.73 0 0 1 3.2,-1.32 c 1.91,0 4.78,0.17 5.62,-0.24 a 6.59,6.59 0 0 1 4.39,0.08 c 1.47,0.57 1.17,1 2.8,0.73 a 22.1,22.1 0 0 1 4.68,-0.08 c 2,0.08 5,-1.57 6.52,-1.9 a 3.59,3.59 0 0 1 3.09,0.42 c 1.18,0.57 2.08,1.06 3,0.66 0.92,-0.4 1.24,-0.25 4.29,0.17 a 19.72,19.72 0 0 0 6.8,-0.08 c 0.89,-0.34 1.34,-1.41 3.2,-0.75 1.86,0.66 1.85,0.08 2.7,-0.26 a 6.31,6.31 0 0 1 3.71,0.08 c 1.13,0.42 2.69,0.26 4.27,0.83 1,0.38 3.14,-0.27 4.54,-0.47 V 17.3 c -1.65,-0.13 -2.72,-0.19 -3.18,-0.72 z"
         id="path62"
         inkscape:connector-curvature="0"
         style="fill:url(#linear-gradient-8)" />
      <path
         class="cls-12"
         d="m 1437.07,17.2 c -0.93,0 -0.6,-0.94 -1.44,-1.15 -0.84,-0.21 -1.51,0.57 -2.26,0.43 -0.75,-0.14 -1.53,0.7 -1.92,1.22 -0.39,0.52 -1.52,-0.45 -3.44,-0.32 -0.65,-1.85 -3,-2.75 -4.91,-3 a 2.82,2.82 0 0 0 -3,1.54 c -0.4,0.56 -0.61,0.51 -2.57,0.75 -1.96,0.24 -3.74,0.39 -4.48,-0.57 -0.74,-0.96 -1.88,-1 -3.74,0.77 -2.49,1.66 -5.49,-0.13 -8,-1 a 2.43,2.43 0 0 0 -3.4,1.46 c -0.26,0.52 -1.69,0.26 -2.87,0 -1.18,-0.26 -2.35,-1.53 -3.79,-2.23 -2.22,-0.9 -4.92,2 -5.62,2.75 -0.7,0.75 -2.82,0.45 -5.31,0.76 a 25.1,25.1 0 0 1 -7.18,-0.25 c -2.27,-1.84 -3.39,-1.22 -4.7,-0.45 -1.31,0.77 -1.73,0.7 -3.21,0.25 -1.48,-0.45 -3.62,-0.18 -4.54,-0.76 a 5,5 0 0 0 -4.43,0 c -1,-0.89 -2.18,-2.75 -4.53,-2.88 -2.35,-0.13 -2.48,0.32 -5.53,3.13 -0.09,-1.14 -1.7,-1.65 -2.31,-1.91 -0.61,-0.26 -2,2.86 -2,2.86 -2.35,-1.34 -3.83,0.76 -4.31,1 -0.48,0.24 -2.52,-1.52 -4.92,-3.06 a 2.83,2.83 0 0 0 -1.94,-0.5 2.83,2.83 0 0 0 -0.47,-1 c -0.43,-0.52 -2.22,0.25 -2.83,0.9 a 2.42,2.42 0 0 1 -2.26,0.43 c -0.75,-0.13 -1.53,0.7 -1.92,1.22 -0.39,0.52 -1.52,-0.45 -3.44,-0.32 -0.65,-1.85 -3,-2.75 -4.92,-3 a 2.83,2.83 0 0 0 -3,1.54 c -0.39,0.56 -0.61,0.51 -2.57,0.75 -1.96,0.24 -3.74,0.39 -4.48,-0.57 -0.74,-0.96 -1.87,-1 -3.75,0.77 -2.47,1.66 -5.48,-0.13 -8,-1 a 2.42,2.42 0 0 0 -3.4,1.46 c -0.26,0.52 -1.7,0.26 -2.88,0 -1.18,-0.26 -2.34,-1.53 -3.78,-2.23 -2.22,-0.9 -4.92,2 -5.62,2.75 -0.7,0.75 -2.83,0.45 -5.3,0.76 a 25.13,25.13 0 0 1 -7.19,-0.25 c -2.26,-1.84 -3.4,-1.22 -4.7,-0.45 -1.3,0.77 -1.74,0.7 -3.22,0.25 -1.48,-0.45 -3.61,-0.18 -4.52,-0.76 a 5.05,5.05 0 0 0 -4.45,0 c -1,-0.89 -2.18,-2.75 -4.53,-2.88 -2.35,-0.13 -2.48,0.32 -5.54,3.13 -0.09,-1.14 -1.69,-1.65 -2.3,-1.91 -0.61,-0.26 -2,2.86 -2,2.86 -2.35,-1.34 -3.83,0.76 -4.31,1 -0.48,0.24 -2.52,-1.52 -4.92,-3.06 a 2.54,2.54 0 0 0 -3.17,0.05 3.28,3.28 0 0 0 -0.59,-1.53 c -0.44,-0.52 -2.23,0.25 -2.82,0.9 a 2.44,2.44 0 0 1 -2.27,0.43 c -0.73,-0.13 -1.53,0.7 -1.91,1.22 -0.38,0.52 -1.53,-0.45 -3.44,-0.32 -0.65,-1.85 -3,-2.75 -4.91,-3 a 2.84,2.84 0 0 0 -3,1.54 c -0.39,0.56 -0.61,0.51 -2.57,0.75 -1.96,0.24 -3.74,0.39 -4.48,-0.57 -0.74,-0.96 -1.88,-1 -3.74,0.77 -2.49,1.66 -5.49,-0.13 -8,-1 a 2.43,2.43 0 0 0 -3.4,1.46 c -0.26,0.52 -1.69,0.26 -2.86,0 -1.17,-0.26 -2.35,-1.53 -3.8,-2.23 -2.22,-0.9 -4.93,2 -5.61,2.75 -0.68,0.75 -2.83,0.45 -5.31,0.76 a 25.17,25.17 0 0 1 -7.19,-0.25 c -2.26,-1.84 -3.39,-1.22 -4.7,-0.45 -1.31,0.77 -1.75,0.7 -3.23,0.25 -1.48,-0.45 -3.61,-0.18 -4.53,-0.76 a 5,5 0 0 0 -4.43,0 c -1,-0.89 -2.19,-2.75 -4.54,-2.88 -2,-0.1 -2.39,0.19 -4.3,2 l -0.5,-0.08 a 1.49,1.49 0 0 0 -1.11,0.39 5.13,5.13 0 0 0 -1.92,-1.08 c -0.35,-0.15 -0.95,0.77 -1.41,1.61 a 4.5,4.5 0 0 0 -0.92,0 c -0.65,-1.85 -3,-2.75 -4.92,-3 a 2.83,2.83 0 0 0 -3,1.54 c -0.27,0.39 -0.46,0.48 -1.18,0.59 a 2.58,2.58 0 0 0 -3.19,0.34 c -1.2,0.05 -2.18,-0.1 -2.68,-0.75 -0.75,-1 -1.88,-1 -3.75,0.77 -2.48,1.66 -5.49,-0.13 -8,-1 a 2.42,2.42 0 0 0 -3.39,1.46 c -0.27,0.52 -1.7,0.26 -2.88,0 -1.18,-0.26 -2.35,-1.53 -3.79,-2.23 -2.22,-0.9 -4.92,2 -5.62,2.75 -0.7,0.75 -2.83,0.45 -5.3,0.76 a 25.19,25.19 0 0 1 -7.19,-0.25 c -2.26,-1.84 -3.39,-1.22 -4.7,-0.45 -1.31,0.77 -1.74,0.7 -3.23,0.25 -1.49,-0.45 -3.61,-0.18 -4.53,-0.76 a 5,5 0 0 0 -4.44,0 c -1,-0.89 -2.16,-2.75 -4.52,-2.88 -2.36,-0.13 -2.49,0.32 -5.53,3.13 -0.09,-1.14 -1.7,-1.65 -2.31,-1.91 -0.61,-0.26 -2,2.86 -2,2.86 -2.35,-1.34 -3.83,0.76 -4.31,1 -0.48,0.24 -2.53,-1.52 -4.92,-3.06 a 2.55,2.55 0 0 0 -3.18,0.05 3.37,3.37 0 0 0 -0.59,-1.53 c -0.44,-0.52 -2.22,0.25 -2.83,0.9 a 2.41,2.41 0 0 1 -2.26,0.43 c -0.75,-0.13 -1.53,0.7 -1.92,1.22 -0.39,0.52 -1.53,-0.45 -3.44,-0.32 -0.65,-1.85 -3,-2.75 -4.92,-3 a 2.85,2.85 0 0 0 -3.05,1.54 c -0.39,0.56 -0.61,0.51 -2.56,0.75 -1.95,0.24 -3.75,0.39 -4.49,-0.57 -0.74,-0.96 -1.87,-1 -3.74,0.77 -2.49,1.66 -5.48,-0.13 -8,-1 a 2.43,2.43 0 0 0 -3.4,1.46 c -0.26,0.52 -1.7,0.26 -2.87,0 -1.17,-0.26 -2.35,-1.53 -3.8,-2.23 -2.22,-0.9 -4.92,2 -5.6,2.75 -0.68,0.75 -2.83,0.45 -5.32,0.76 a 25.1,25.1 0 0 1 -7.18,-0.25 c -2.26,-1.84 -3.4,-1.22 -4.7,-0.45 -1.3,0.77 -1.75,0.7 -3.22,0.25 -1.47,-0.45 -3.61,-0.18 -4.53,-0.76 a 5,5 0 0 0 -4.44,0 c -1,-0.89 -2.18,-2.75 -4.53,-2.88 -2,-0.1 -2.37,0.19 -4.25,1.94 a 3.42,3.42 0 0 1 -1.43,0 1,1 0 0 0 -0.58,0.09 6.28,6.28 0 0 0 -1.57,-0.77 c -0.36,-0.17 -1,0.88 -1.48,1.73 a 6.29,6.29 0 0 0 -1.72,-0.15 c -0.65,-1.85 -3,-2.75 -4.92,-3 a 2.82,2.82 0 0 0 -3,1.54 1,1 0 0 1 -0.56,0.45 2.53,2.53 0 0 0 -2.87,0.43 c -1.61,0.16 -3,0.12 -3.62,-0.69 -0.62,-0.81 -1.88,-1 -3.75,0.77 -2.49,1.66 -5.48,-0.13 -8,-1 a 2.42,2.42 0 0 0 -3.39,1.46 c -0.25,0.52 -1.7,0.26 -2.86,0 -1.16,-0.26 -2.36,-1.53 -3.79,-2.23 -2.23,-0.9 -4.93,2 -5.62,2.75 -0.69,0.75 -2.83,0.45 -5.31,0.76 a 25.11,25.11 0 0 1 -7.18,-0.25 c -2.27,-1.84 -3.41,-1.22 -4.71,-0.45 -1.3,0.77 -1.73,0.7 -3.21,0.25 -1.48,-0.45 -3.61,-0.18 -4.53,-0.76 a 5,5 0 0 0 -4.44,0 c -1,-0.89 -2.18,-2.75 -4.53,-2.88 -2.35,-0.13 -2.47,0.32 -5.53,3.13 -0.08,-1.14 -1.69,-1.65 -2.3,-1.91 -0.61,-0.26 -2,2.86 -2,2.86 -2.36,-1.34 -3.84,0.76 -4.31,1 -0.47,0.24 -2.52,-1.52 -4.92,-3.06 a 2.55,2.55 0 0 0 -3.17,0.05 3.21,3.21 0 0 0 -0.58,-1.53 c -0.44,-0.52 -2.21,0.25 -2.83,0.9 a 2.43,2.43 0 0 1 -2.26,0.43 c -0.74,-0.13 -1.52,0.7 -1.92,1.22 -0.4,0.52 -1.51,-0.45 -3.43,-0.32 -0.65,-1.85 -3,-2.75 -4.92,-3 a 2.84,2.84 0 0 0 -3,1.54 c -0.4,0.56 -0.62,0.51 -2.57,0.75 -1.95,0.24 -3.75,0.39 -4.5,-0.57 -0.75,-0.96 -1.86,-1 -3.73,0.77 -2.48,1.66 -5.49,-0.13 -8,-1 a 2.43,2.43 0 0 0 -3.4,1.46 c -0.27,0.52 -1.7,0.26 -2.87,0 -1.17,-0.26 -2.35,-1.53 -3.79,-2.23 -2.23,-0.9 -4.92,2 -5.62,2.75 -0.7,0.75 -2.83,0.45 -5.32,0.76 a 25.14,25.14 0 0 1 -7.18,-0.25 c -2.26,-1.84 -3.39,-1.22 -4.69,-0.45 -1.3,0.77 -1.74,0.7 -3.22,0.25 -1.48,-0.45 -3.62,-0.18 -4.53,-0.76 a 5,5 0 0 0 -4.44,0 c -1,-0.89 -2.18,-2.75 -4.53,-2.88 -2.35,-0.13 -2.48,0.32 -5.53,3.13 -0.09,-1.14 -1.69,-1.65 -2.31,-1.91 -0.62,-0.26 -2,2.86 -2,2.86 -2.35,-1.34 -3.83,0.76 -4.31,1 -0.48,0.24 -2.17,-1.87 -4.77,-1.87 -2.3,0 -4.06,-0.15 -4.06,-0.15 v 45.97 c 8.16,0 10.18,4.73 17.23,3.78 12.14,-1.65 10.41,7.66 27.72,2 17.31,-5.66 15,-5.42 30.07,0.52 7.55,3 9.63,-0.83 16.65,-3 4.64,-1.44 10,0.37 14.79,-0.61 C 826,65.47 827,63.69 829,64 c 1.74,0.25 4.56,3.86 6.52,4.7 10,4.28 26.41,3.64 36.7,0.31 17.32,-5.6 15,-5.42 30.07,0.52 v 0 c 5.15,2 7.94,0.74 13,-0.81 3.84,-1.19 4.44,-0.78 8.6,0.4 11.35,3.19 24.36,3.56 35.67,-0.11 17.31,-5.6 15,-5.42 30.05,0.52 4.46,1.76 7.64,2 11.88,0.15 5.22,-2.23 8.91,-2.27 14.56,-2.75 2.69,-0.24 6.72,-3.79 8.92,-3.52 3.18,0.39 6.81,5.46 10.39,6.25 3.58,0.79 7.37,-0.28 11.05,0 4.83,0.39 9.31,2 14.19,1.46 7.71,-0.9 15.07,-5.79 22.79,-6.16 5.46,-0.25 10.67,2.49 15.87,4.55 12,4.72 11.16,-1.19 16.19,-2.82 a 15.78,15.78 0 0 0 11.39,3.13 c 12.14,-1.64 11.54,4.78 28.84,-0.83 17.3,-5.61 15,-5.42 30.07,0.52 4.48,1.76 7.57,1.91 11.87,0.15 5.79,-2.35 10.5,-1.67 16.48,-2.94 5.82,-1.26 5.9,-2.79 11.53,0.33 12,6.63 27.34,6 39.69,1.95 17.32,-5.6 15,-5.42 30.06,0.52 15.06,5.94 9.88,-4.94 21.58,-3 6.13,1 10,-0.12 13,-2.77 3.5,3.51 8.59,6.9 14.81,6.05 12.14,-1.64 11.53,4.78 28.84,-0.83 17.31,-5.61 15,-5.42 30.06,0.52 15.06,5.94 9.9,-4.94 21.59,-3 6.73,1.13 6.76,-3.37 14,-3.37 V 17.63 c -1.36,0.03 -1.63,-0.43 -2.19,-0.43 z"
         id="path64"
         inkscape:connector-curvature="0"
         style="opacity:0.4;mix-blend-mode:screen;fill:url(#linear-gradient-9)" />
      <path
         class="cls-13"
         d="m 715.33,230.73 c 0.94,0 0.61,-0.94 1.45,-1.15 0.84,-0.21 1.52,0.57 2.27,0.43 0.75,-0.14 1.53,0.7 1.93,1.22 0.4,0.52 1.53,-0.45 3.46,-0.32 0.65,-1.85 3,-2.75 4.94,-3 a 2.84,2.84 0 0 1 3.07,1.54 c 0.4,0.56 0.61,0.51 2.59,0.75 1.98,0.24 3.76,0.39 4.51,-0.57 0.75,-0.96 1.89,-1 3.76,0.77 2.51,1.66 5.52,-0.13 8,-1 a 2.44,2.44 0 0 1 3.42,1.46 c 0.26,0.52 1.7,0.26 2.89,0 1.19,-0.26 2.36,-1.53 3.81,-2.23 2.23,-0.9 5,2 5.65,2.75 0.65,0.75 2.83,0.45 5.35,0.76 a 25.41,25.41 0 0 0 7.22,-0.25 c 2.28,-1.84 3.41,-1.22 4.73,-0.45 1.32,0.77 1.74,0.7 3.23,0.25 1.49,-0.45 3.64,-0.18 4.57,-0.76 a 5.08,5.08 0 0 1 4.46,0 c 1,-0.89 2.19,-2.75 4.55,-2.88 2.36,-0.13 2.5,0.32 5.56,3.13 0.09,-1.14 1.71,-1.65 2.32,-1.91 0.61,-0.26 2.06,2.86 2.06,2.86 2.37,-1.34 3.86,0.76 4.34,1 0.48,0.24 2.53,-1.52 4.95,-3.06 a 2.87,2.87 0 0 1 2,-0.5 2.82,2.82 0 0 1 0.47,-1 c 0.43,-0.52 2.23,0.25 2.85,0.9 A 2.44,2.44 0 0 0 828,230 c 0.75,-0.13 1.54,0.7 1.93,1.22 0.39,0.52 1.53,-0.45 3.46,-0.32 0.65,-1.85 3,-2.75 4.95,-3 a 2.85,2.85 0 0 1 3.06,1.54 c 0.4,0.56 0.61,0.51 2.59,0.75 1.98,0.24 3.76,0.39 4.51,-0.57 0.75,-0.96 1.88,-1 3.77,0.77 2.49,1.66 5.51,-0.13 8,-1 a 2.44,2.44 0 0 1 3.42,1.46 c 0.26,0.52 1.71,0.26 2.89,0 1.18,-0.26 2.36,-1.53 3.81,-2.23 2.23,-0.9 5,2 5.65,2.75 0.65,0.75 2.84,0.45 5.33,0.76 a 25.44,25.44 0 0 0 7.23,-0.25 c 2.27,-1.84 3.42,-1.22 4.73,-0.45 1.31,0.77 1.75,0.7 3.24,0.25 1.49,-0.45 3.64,-0.18 4.55,-0.76 a 5.11,5.11 0 0 1 4.47,0 c 1,-0.89 2.2,-2.75 4.55,-2.88 2.35,-0.13 2.5,0.32 5.57,3.13 0.09,-1.14 1.7,-1.65 2.32,-1.91 0.62,-0.26 2.06,2.86 2.06,2.86 2.37,-1.34 3.85,0.76 4.34,1 0.49,0.24 2.54,-1.52 5,-3.06 a 2.57,2.57 0 0 1 3.19,0.05 3.26,3.26 0 0 1 0.59,-1.53 c 0.44,-0.52 2.24,0.25 2.84,0.9 a 2.47,2.47 0 0 0 2.28,0.43 c 0.74,-0.13 1.54,0.7 1.93,1.22 0.39,0.52 1.53,-0.45 3.47,-0.32 0.65,-1.85 3,-2.75 4.94,-3 a 2.86,2.86 0 0 1 3.07,1.54 c 0.4,0.56 0.61,0.51 2.59,0.75 1.98,0.24 3.77,0.39 4.51,-0.57 0.74,-0.96 1.89,-1 3.76,0.77 2.51,1.66 5.53,-0.13 8,-1 a 2.45,2.45 0 0 1 3.42,1.46 c 0.26,0.52 1.7,0.26 2.88,0 1.18,-0.26 2.37,-1.53 3.82,-2.23 2.23,-0.9 5,2 5.65,2.75 0.65,0.75 2.85,0.45 5.34,0.76 a 25.48,25.48 0 0 0 7.23,-0.25 c 2.28,-1.84 3.41,-1.22 4.72,-0.45 1.31,0.77 1.76,0.7 3.25,0.25 1.49,-0.45 3.63,-0.18 4.55,-0.76 a 5.08,5.08 0 0 1 4.46,0 c 1,-0.89 2.2,-2.75 4.57,-2.88 2,-0.1 2.4,0.19 4.33,2 l 0.51,-0.08 a 1.51,1.51 0 0 1 1.11,0.39 5.17,5.17 0 0 1 1.93,-1.08 c 0.35,-0.15 1,0.77 1.42,1.61 a 4.55,4.55 0 0 1 0.93,0 c 0.66,-1.85 3,-2.75 5,-3 a 2.85,2.85 0 0 1 3.06,1.54 c 0.27,0.39 0.46,0.48 1.19,0.59 a 2.61,2.61 0 0 1 3.21,0.34 c 1.21,0.05 2.19,-0.1 2.69,-0.75 0.75,-1 1.89,-1 3.77,0.77 2.49,1.66 5.52,-0.13 8,-1 a 2.44,2.44 0 0 1 3.42,1.46 c 0.27,0.52 1.71,0.26 2.89,0 1.18,-0.26 2.36,-1.53 3.81,-2.23 2.23,-0.9 4.95,2 5.65,2.75 0.7,0.75 2.84,0.45 5.33,0.76 a 25.5,25.5 0 0 0 7.24,-0.25 c 2.27,-1.84 3.42,-1.22 4.73,-0.45 1.31,0.77 1.75,0.7 3.25,0.25 1.5,-0.45 3.63,-0.18 4.55,-0.76 a 5.1,5.1 0 0 1 4.47,0 c 1,-0.89 2.18,-2.75 4.55,-2.88 2.37,-0.13 2.5,0.32 5.56,3.13 0.09,-1.14 1.71,-1.65 2.32,-1.91 0.61,-0.26 2.06,2.86 2.06,2.86 2.37,-1.34 3.86,0.76 4.33,1 0.47,0.24 2.54,-1.52 5,-3.06 a 2.58,2.58 0 0 1 3.19,0.05 3.36,3.36 0 0 1 0.59,-1.53 c 0.44,-0.52 2.24,0.25 2.85,0.9 a 2.44,2.44 0 0 0 2.27,0.43 c 0.75,-0.13 1.54,0.7 1.93,1.22 0.39,0.52 1.53,-0.45 3.47,-0.32 0.66,-1.85 3,-2.75 4.95,-3 a 2.87,2.87 0 0 1 3.07,1.54 c 0.39,0.56 0.61,0.51 2.58,0.75 1.97,0.24 3.77,0.39 4.52,-0.57 0.75,-0.96 1.88,-1 3.77,0.77 2.5,1.66 5.51,-0.13 8,-1 a 2.45,2.45 0 0 1 3.42,1.46 c 0.26,0.52 1.71,0.26 2.89,0 1.18,-0.26 2.37,-1.53 3.82,-2.23 2.23,-0.9 4.95,2 5.64,2.75 0.69,0.75 2.85,0.45 5.35,0.76 a 25.41,25.41 0 0 0 7.22,-0.25 c 2.27,-1.84 3.42,-1.22 4.73,-0.45 1.31,0.77 1.76,0.7 3.24,0.25 1.48,-0.45 3.64,-0.18 4.56,-0.76 a 5.09,5.09 0 0 1 4.46,0 c 1,-0.89 2.2,-2.75 4.56,-2.88 2,-0.1 2.39,0.19 4.28,1.94 a 3.46,3.46 0 0 0 1.44,0 1.06,1.06 0 0 1 0.59,0.09 6.34,6.34 0 0 1 1.58,-0.77 c 0.37,-0.17 1,0.88 1.49,1.73 a 6.37,6.37 0 0 1 1.73,-0.15 c 0.66,-1.85 3,-2.75 4.95,-3 a 2.84,2.84 0 0 1 3.06,1.54 1.05,1.05 0 0 0 0.56,0.45 2.55,2.55 0 0 1 2.89,0.43 c 1.62,0.16 3,0.12 3.64,-0.69 0.64,-0.81 1.89,-1 3.77,0.77 2.5,1.66 5.52,-0.13 8,-1 a 2.44,2.44 0 0 1 3.42,1.46 c 0.26,0.52 1.71,0.26 2.88,0 1.17,-0.26 2.37,-1.53 3.82,-2.23 2.24,-0.9 5,2 5.65,2.75 0.65,0.75 2.85,0.45 5.35,0.76 a 25.41,25.41 0 0 0 7.22,-0.25 c 2.28,-1.84 3.43,-1.22 4.74,-0.45 1.31,0.77 1.74,0.7 3.23,0.25 1.49,-0.45 3.63,-0.18 4.56,-0.76 a 5.1,5.1 0 0 1 4.47,0 c 1,-0.89 2.19,-2.75 4.55,-2.88 2.36,-0.13 2.49,0.32 5.57,3.13 0.08,-1.14 1.7,-1.65 2.32,-1.91 0.62,-0.26 2.06,2.86 2.06,2.86 2.37,-1.34 3.86,0.76 4.34,1 0.48,0.24 2.54,-1.52 5,-3.06 a 2.58,2.58 0 0 1 3.19,0.05 3.2,3.2 0 0 1 0.59,-1.53 c 0.44,-0.52 2.23,0.25 2.85,0.9 a 2.45,2.45 0 0 0 2.28,0.43 c 0.74,-0.13 1.53,0.7 1.93,1.22 0.4,0.52 1.52,-0.45 3.45,-0.32 0.66,-1.85 3,-2.75 5,-3 a 2.86,2.86 0 0 1 3.07,1.54 c 0.4,0.56 0.62,0.51 2.58,0.75 1.96,0.24 3.77,0.39 4.52,-0.57 0.75,-0.96 1.87,-1 3.75,0.77 2.5,1.66 5.53,-0.13 8,-1 a 2.44,2.44 0 0 1 3.42,1.46 c 0.27,0.52 1.71,0.26 2.89,0 1.18,-0.26 2.37,-1.53 3.81,-2.23 2.24,-0.9 5,2 5.65,2.75 0.65,0.75 2.84,0.45 5.35,0.76 a 25.45,25.45 0 0 0 7.23,-0.25 c 2.27,-1.84 3.41,-1.22 4.72,-0.45 1.31,0.77 1.76,0.7 3.24,0.25 1.48,-0.45 3.65,-0.18 4.56,-0.76 a 5.1,5.1 0 0 1 4.47,0 c 1,-0.89 2.19,-2.75 4.56,-2.88 2.37,-0.13 2.5,0.32 5.57,3.13 0.09,-1.14 1.7,-1.65 2.33,-1.91 0.63,-0.26 2.05,2.86 2.05,2.86 2.36,-1.34 3.85,0.76 4.34,1 0.49,0.24 2.18,-1.87 4.8,-1.87 2.32,0 4.09,-0.15 4.09,-0.15 v 45.49 c -8.21,0 -10.24,4.73 -17.34,3.78 -12.22,-1.65 -10.48,7.66 -27.89,2 -17.41,-5.66 -15.09,-5.42 -30.26,0.52 -7.59,3 -9.69,-0.83 -16.75,-3 -4.67,-1.44 -10,0.37 -14.88,-0.61 -1.92,-0.39 -2.94,-2.18 -4.93,-1.91 -1.76,0.25 -4.59,3.86 -6.56,4.7 -10.09,4.28 -26.58,3.64 -36.93,0.31 -17.42,-5.6 -15.09,-5.42 -30.25,0.52 v 0 c -5.19,2 -8,0.74 -13.1,-0.81 -3.86,-1.19 -4.46,-0.78 -8.66,0.4 -11.42,3.19 -24.51,3.56 -35.89,-0.11 -17.41,-5.6 -15.08,-5.42 -30.24,0.52 -4.49,1.76 -7.68,2 -12,0.15 -5.25,-2.23 -9,-2.27 -14.65,-2.75 -2.71,-0.24 -6.77,-3.79 -9,-3.52 -3.2,0.39 -6.85,5.46 -10.45,6.25 -3.6,0.79 -7.42,-0.28 -11.12,0 -4.86,0.39 -9.36,2 -14.28,1.46 -7.76,-0.9 -15.16,-5.79 -22.93,-6.16 -5.49,-0.25 -10.74,2.49 -16,4.55 -12,4.72 -11.23,-1.19 -16.29,-2.82 a 16,16 0 0 1 -11.46,3.13 c -12.21,-1.64 -11.61,4.78 -29,-0.83 -17.39,-5.61 -15.08,-5.42 -30.25,0.52 -4.51,1.76 -7.62,1.91 -11.94,0.15 -5.82,-2.35 -10.57,-1.67 -16.59,-2.94 -5.86,-1.26 -5.93,-2.79 -11.6,0.33 -12,6.63 -27.51,6 -39.94,1.95 -17.43,-5.6 -15.09,-5.42 -30.25,0.52 -15.16,5.94 -9.95,-4.94 -21.71,-3 -6.17,1 -10.1,-0.12 -13.08,-2.77 -3.52,3.51 -8.64,6.9 -14.9,6.05 -12.21,-1.64 -11.6,4.78 -29,-0.83 -17.4,-5.61 -15.09,-5.42 -30.24,0.52 -15.15,5.94 -10,-4.94 -21.72,-3 -6.77,1.13 -6.8,-3.37 -14.09,-3.37 V 230.7 c 1.34,0.49 1.6,0.03 2.17,0.03 z"
         id="path66"
         inkscape:connector-curvature="0"
         style="fill:url(#linear-gradient-10)" />
    </g>
  </g>
</svg>
