<?xml version="1.0" encoding="UTF-8" standalone="no"?>
<svg
   xmlns:dc="http://purl.org/dc/elements/1.1/"
   xmlns:cc="http://creativecommons.org/ns#"
   xmlns:rdf="http://www.w3.org/1999/02/22-rdf-syntax-ns#"
   xmlns:svg="http://www.w3.org/2000/svg"
   xmlns="http://www.w3.org/2000/svg"
   xmlns:sodipodi="http://sodipodi.sourceforge.net/DTD/sodipodi-0.dtd"
   xmlns:inkscape="http://www.inkscape.org/namespaces/inkscape"
   id="Layer_1"
   data-name="Layer 1"
   preserveAspectRatio="none"
   viewBox="0 0 1206.22 877.24"
   version="1.1"
   sodipodi:docname="middlecave background.svg"
   inkscape:version="0.92.2 (5c3e80d, 2017-08-06)">
  <metadata
     id="metadata19">
    <rdf:RDF>
      <cc:Work
         rdf:about="">
        <dc:format>image/svg+xml</dc:format>
        <dc:type
           rdf:resource="http://purl.org/dc/dcmitype/StillImage" />
        <dc:title>Artboard 1</dc:title>
      </cc:Work>
    </rdf:RDF>
  </metadata>
  <sodipodi:namedview
     pagecolor="#ffffff"
     bordercolor="#666666"
     borderopacity="1"
     objecttolerance="10"
     gridtolerance="10"
     guidetolerance="10"
     inkscape:pageopacity="0"
     inkscape:pageshadow="2"
     inkscape:window-width="3840"
     inkscape:window-height="2004"
     id="namedview17"
     showgrid="false"
     inkscape:zoom="1.0761023"
     inkscape:cx="885.56287"
     inkscape:cy="445.53677"
     inkscape:window-x="-16"
     inkscape:window-y="-16"
     inkscape:window-maximized="1"
     inkscape:current-layer="Layer_1" />
  <defs
     id="defs4">
    <style
       id="style2">.cls-1{fill:#d0ad84;}.cls-2{fill:#c99663;}.cls-2,.cls-3,.cls-4{fill-rule:evenodd;}.cls-3{fill:#b27e4e;}.cls-4{fill:#69432e;}</style>
  </defs>
  <title
     id="title6">Artboard 1</title>
  <rect
     class="cls-1"
     width="1174.11"
     height="821.03"
     id="rect8" />
  <path
     class="cls-2"
     d="M988,404.81l-2.68-10.24-15.5-25.66V356.1L980.17,333c9.45,3.54,7.74,5.36,7.74,14.09l5.14,30.78c1.67,8.57,4.58,4.48,5.24,12.84l5.27,17.93v3.85L988,417.66ZM0,28.67H1212.25V877.24H0V492.64l5.35-1.88c8.45-5.88,7-9.66,11.52-19.24L31,431.75c0-13.18,1.45-26.17-2.58-38.47l-9-55.14c-2.79-10-8.32-11.51-16.63-19.24L0,316.78Zm636.45,555.9h23.09l41.06-15.49c2.15-3,6.73-8.08,6.42-11.59l15.39-25.68c3.3-5,2.22-2.71,2.22-7.71l1-46.18v-6.39l-3.52-64.13c0-6.73.71-1.45-2.41-7.69l-10.19-55.14-2.5-7.69-20.52-37.2-14.08,19.39-9-30.62H636.45l-9-15.55-50-78.3L459.42,224c-1.42,3.82-1.33,5.77-5.12,6.4L394,263.77c-7.7,12.3-17,32.86-24.36,42.32l-32.06,33.32-9,23.08c-1.15,2.45-5.12,14.12-5.12,14.12l-7.7,19.24c.27,11.18-2.58,12.42-2.58,23.08l-2.55,30.78c-.94,2.76-2.68,5.06-2.68,6.42l1.17,41v15.39l1.41,23.08c1.21,2.82,5.05,15.18,5.17,15.39l15.42,30.78,1.29,3.85,37.22,14.12c8.67,5.51,12.73,12.15,20.52,11.54l68-7.69c6.79-3.3,16.49-2.85,28.21-6.42L512,577.95c6.91-3.91,4.61-2.91,9-9l16.7-28.2c11.3-7.79,4.42-2.42,12.82-6.42l6.42,9c1.09,2.73,1.52,5.88,3.85,6.42l23.09,6.42c6.12,5.3,2.48,4.24,7.7,9l14.09,7.69,5.15,3.95Zm220.66-21.78,3.85-23.2c1.67-1.88,11.3-11.24,12.82-14.14l5.12-11.57c1.48-10.63,2.58-6.13,2.58-19.25l5.12-19.24c2.94-2.94,12.12-12.49,12.85-16.7L911,438.17c8.24,0,14.18-2.45,15.39,6.42l10.24,21.78a72.89,72.89,0,0,0,5.15,12.84l16.67,25.63c1.15,9.94,2.58,9,2.58,20.54l9,26.93c-.67,12.36-8.45,7.73-19.24,11.54l-37.21-9L908.41,551l-14.12,11.54c-4.42,2.48-4.88,4.23-9,5.38l-7.7,2.77H867.35Z"
     id="path10" />
  <path
     class="cls-3"
     d="M297.61,579.72l-15.39-82.06,2.58-64.08,5.12-107.72,28.24-25.65L372,328.41l2.55,38.48-5.12,51.32L390,472.07l-7.7,87.19-15.39,38.4c-9.67,3-6.79,2.5-15.39,2.5H331ZM0,28.67H1212.25V877.24H0V608.7l22.91,9.57c13.09,4.06,12.27.88,23.18,10.24l61.62-7.69c16.15-8.6,16.17-10.54,25.69-25.63l18-20.54,7.7-10.24,33.37-41,15.4-87.22c0-9.21,1.82-11-2.57-15.39L194.9,397.66l-2.68-10.24V359.19l-10.17-25.63L138.5,277.12,84.65,272l-20.5,25.72L28.22,287.57H18l-18,5.1ZM1096.17,266.79h-16.4v8.43l-5.2,24.36v5.12l5,10.27,5.1-2.57,6.37-16.66,3.83-15.76ZM549.06,582.34,508,549l-23.24-48.74-23.24-48.74V402.81l18.17-38.47,15.6-20.54V336.1l33.28-53.86,7.67,28.23,10.26,23.08,5.11-25.66,12.84-15.39L567,269.43l20.54-25.66,7.7,20.54,2.55,15.39L600.36,254l15.39-10.27,18-17.93c11.85-4,6.58-1.48,15.39-10.27l10.24-12.81,7.7-12.84,12.85-28.2,38.48-10.27L751.72,154l30.79-5.12,59,2.54,28.11,15.39,15.29,23.08v35.93l5.32-15.33h18l20.51,31.17h41.06l12.82,28c4.67,14,5.15,5.49,5.15,15.28l12.82,20.45c3,9.66,2.58,6.79,2.58,15.36L992.9,346.39l15.39,48.74,2.8,7.69-4.93,51.29v10.27L998.24,490l-7.81,12.85-7.75,33.32c-4.21,9.12-7.94,21.36-15.42,28.23l-38.5,20.51c-12.64,3.94-12.34,2.57-25.64,2.57l-66.73-5.15c-13.85-.42-10.12-.12-20.52,10.27l-30.79,25.66-7.7,2.58-56.45-2.51h-7.7l-56.42-10.39H646.54l-35.91,5.2h-7.7l-20.54-7.71Z"
     id="path12" />
  <path
     class="cls-4"
     d="M0,0H1219.22V877.24H203.45L370.92,850.6l113.53-34.44,38.71-15.9h51.63l87.71-47.87,98.07,5.22L827.64,731l144.49-21.22,77.41-26.54,67.11-5.3,31-21.2,23.22-119.32-20.66-76.92-20.63-37.11L1124.39,328l-5.18-58.35-23.22-61-25.78-21.2-20.66,13.25-5.15-31.82-12.89,5.29L1023.76,206l-7.74-42.4-18.07,15.91L992.8,150.3l-38.71-26.5-28.4-29.19-33.52,5.32-23.22,23.86L856,110.42l-15.48,15.8H827.64L809.57,144.9,788.94,137l-25.81-2.63L703.78,99.93,690.89,76.07,631.52,60.17l-67.08-2.66L538.63,89.33,510.26,99.94c-15.27,0-19.35,4.42-36.11,8l-18.07,2.63-33.55,21.23L381.25,198,340,208.65l-23.22,37.11L260,288.2l-33.52,42.44-5.18-21.23L198,296.15,185.13,275l-33.55,5.29L149,312.06,123.2,243.13l-2.59-8L63.86,221.9,15,227.22,0,240.53Z"
     id="path14" />
</svg>
