<svg id="Layer_1" data-name="Layer 1" xmlns="http://www.w3.org/2000/svg" viewBox="0 0 537.09 215"><defs><style>@font-face{font-family: 'Futura Std';font-weight: normal;src: url('../fonts/futura/FuturaStd-Book.otf');}@font-face {font-family: 'FuturaStd-Heavy';font-weight: bold;src: url('../fonts/futura/FuturaStd-Heavy.otf');}.cls-1{font-size:14.84px;}.cls-1,.cls-3,.cls-4,.cls-5{fill:#fff;}.cls-1,.cls-4{font-family:FuturaStd-Heavy, Futura Std;}.cls-2{fill:none;stroke:#eee;stroke-miterlimit:10;stroke-width:2px;}.cls-4{font-size:13.5px;}.cls-5{font-size:12.15px;font-family:FuturaStd-Book, Futura Std;}</style></defs><title>Artboard 1</title><text class="cls-1" transform="translate(0 18.45)">Jan 21</text><text class="cls-1" transform="translate(263.48 22)">Jan 22</text><line class="cls-2" x1="105.9" y1="31.17" x2="105.9" y2="187.13"/><line class="cls-2" x1="379.26" y1="17.69" x2="379.26" y2="173.66"/><circle class="cls-2" cx="106.13" cy="21.31" r="8.62"/><circle class="cls-2" cx="379.26" cy="181.23" r="8.62"/><circle class="cls-3" cx="105.76" cy="51.3" r="7.06"/><circle class="cls-3" cx="105.53" cy="83.31" r="7.06"/><circle class="cls-3" cx="105.87" cy="131" r="7.06"/><circle class="cls-3" cx="105.8" cy="180.26" r="7.06"/><text class="cls-4" transform="translate(60.21 57.73)">9 am</text><text class="cls-4" transform="translate(52.37 89.58)">11 am</text><text class="cls-4" transform="translate(52.62 137.37)">12 pm</text><text class="cls-4" transform="translate(60.15 186.99)">7 pm</text><circle class="cls-3" cx="379.15" cy="21.39" r="7.06"/><circle class="cls-3" cx="378.92" cy="74.99" r="7.06"/><circle class="cls-3" cx="379.26" cy="115.93" r="7.06"/><circle class="cls-3" cx="379.19" cy="150.35" r="7.06"/><text class="cls-5" transform="translate(122.32 58.55)">Check-in begins</text><text class="cls-5" transform="translate(122.24 90.22)">Opening Ceremony</text><text class="cls-5" transform="translate(121.19 136.77)">Check-in closes/<tspan x="0" y="14.58">Hacking begins/Lunch</tspan></text><text class="cls-5" transform="translate(119.29 186.46)">Dinner</text><text class="cls-5" transform="translate(400.37 27.63)">Breakfast</text><text class="cls-5" transform="translate(400.29 81.07)">Hacking ends/Lunch</text><text class="cls-5" transform="translate(399.23 120.87)">Judging/Demos</text><text class="cls-5" transform="translate(397.34 155.72)">Closing Ceremony</text><text class="cls-4" transform="translate(334.83 25.64)">8 am</text><text class="cls-4" transform="translate(326.99 80.43)">12 pm</text><text class="cls-4" transform="translate(333.99 121.48)">1 pm</text><text class="cls-4" transform="translate(334.77 154.9)">3 pm</text></svg>