<?xml version="1.0" encoding="utf-8"?>
<!-- Generator: Adobe Illustrator 21.1.0, SVG Export Plug-In . SVG Version: 6.00 Build 0)  -->
<svg version="1.1" id="Layer_1" xmlns="http://www.w3.org/2000/svg" xmlns:xlink="http://www.w3.org/1999/xlink" x="0px" y="0px"
	 preserveAspectRatio="none" viewBox="0 0 537.1 1222.1" style="enable-background:new 0 0 537.1 1222.1;" xml:space="preserve">
<style type="text/css">
	.st0{fill:#331B0B;}
	.st1{fill:#120903;}
	.st2{fill:#2B180C;}
	.st3{fill:url(#SVGID_1_);}
</style>
<title>Artboard 1</title>
<polygon class="st0" points="0,636.5 3.8,636.5 0,561.2 "/>
<polygon class="st0" points="0,517.1 30.9,417.6 70.2,394.5 93,364.1 172.8,311.3 244.3,285.8 311,296.5 341,290.9 368,301.3 
	374.4,319.6 389.2,340.4 391.8,363.9 394.6,370.9 397,392.4 398.7,397.2 399.6,414.9 400.4,414.9 401.5,404 402.6,399 403.5,388.4 
	405.8,381.8 406.6,364.8 407.7,366.4 408.8,388.9 410.8,400.8 412.5,437.2 413.8,445.3 414.4,475.3 415,475.3 415.8,456.8 
	416.6,448.4 417.2,430.3 418.9,419.2 419.9,373.1 420.8,373.1 421.4,397.8 423.1,406.4 423.7,420.2 424.5,426.7 425.3,440.8 
	425.9,440.8 426.6,417.9 427.8,411.7 429.5,383.7 431.5,374.6 431.6,373.8 433.3,374 433.4,374.8 434.6,378.3 435.2,391.1 
	435.9,391.1 436.6,383.2 437.5,379.6 437.9,374.3 442.4,374.6 443.4,380.9 444.7,407.4 445.6,413.3 446,435 446.5,435 447,421.6 
	447.6,415.5 448.1,402.4 449.3,394.3 449.7,375 451.1,375.1 451.2,378.8 452.4,385 452.8,395 453.4,399.7 454,410 454.4,410 
	454.9,393.3 455.8,388.8 456.3,379.5 494.9,447.5 487.1,516.5 518.5,558.5 520.6,636.5 537.8,636.5 537.8,260.1 0,260.1 "/>
<path class="st1" d="M103.6,366.7c-7.7-1.3-14.8,1.5-20.8,5.6l-0.5,0.4c1.4-2.1,2.2-4.1,1.6-5.6c-0.4,0.8-1.2,1.4-1.6,2.2
	c-0.9-1.1-2.3-1.8-3.8-1.8c0.4-1,0.6-2,0.6-3.1c-1.7,2.1-4,2.6-3.6,5.6c-0.3-0.6-0.4-1.2-0.4-1.9c0.6-7.2,0.2-14.5-4.8-20.5
	c-2.4-2.9-8.8-9.6-19.1-8.8c7.8,2.5,14.5,11.3,9.2,18c3.8-2.5,6.3,3.5,3.4,6.2c3.9-2.1,7.9,2.4,4.1,4.8c2.3-0.8,4.9,2.4,6,7.4
	c0,2.1,0.2,4.2,0.5,6.2c0.7-0.7,1.9-1.9,3.3-3.3c4.2-2.8,9-1.8,9.4,0.7c0.2-4.4,6.2-3.2,6.2,1.2c0.9-3.9,7.4-4.7,7.1-0.1
	c3.2-7.9,14.2-6.4,20.2-1C116.4,369.5,107.3,367.4,103.6,366.7z"/>
<path class="st1" d="M329,319c-3.3,4-3.6,8.9-3.2,13.7c0,0.4-0.1,0.9-0.3,1.2c0.3-2-1.3-2.4-2.4-3.7c0,0.7,0.2,1.4,0.4,2.1
	c-1,0-1.9,0.5-2.5,1.2c-0.2-0.5-0.8-0.9-1-1.5c-0.4,1,0.1,2.3,1.1,3.7l-0.4-0.2c-4-2.7-8.8-4.6-13.9-3.8c-2.5,0.4-8.5,1.9-11.5,8.2
	c4-3.7,11.4-4.6,13.5,0.6c-0.2-3,4.2-2.5,4.8,0.1c0-3,4-3.8,4.1-0.8c0.3-1.7,3.5-2.3,6.3-0.5c0.9,1,1.7,1.7,2.2,2.2
	c0.2-1.4,0.3-2.8,0.3-4.1c0.8-3.4,2.5-5.5,4-5c-2.5-1.6,0.2-4.6,2.8-3.2c-2-1.8-0.3-5.9,2.3-4.2c-3.5-4.5,1-10.4,6.1-12
	C334.9,312.5,330.6,317.1,329,319z"/>
<path class="st2" d="M354.6,385.5c-4.3-0.8-8,1-11.5,3.3c-0.3,0.2-0.6,0.3-1,0.3c1.6-0.6,1.2-1.9,1.8-3.3c-0.5,0.3-1,0.7-1.4,1.2
	c-0.4-0.7-1.1-1.2-2-1.4c0.3-0.4,0.4-1,0.6-1.4c-0.9,0.1-1.7,1.1-2.3,2.4v-0.4c0.3-4.1-0.2-8.4-3-11.8c-1.3-1.6-5-5.5-10.8-5.1
	c4.4,1.5,8.2,6.5,5.1,10.3c2.1-1.4,3.6,2,1.9,3.6c2.2-1.2,4.5,1.4,2.3,2.7c1.4-0.5,3.2,1.6,3,4.5c-0.3,1.1-0.6,2-0.7,2.5
	c1.1-0.4,2.2-0.9,3.2-1.5c2.8-0.9,5.1-0.4,5.4,0.9c0.1-2.5,3.5-1.8,3.5,0.7c0.5-2.2,4.2-2.6,4,0c1.9-4.5,8.1-3.6,11.5-0.5
	C361.8,387.2,356.7,385.9,354.6,385.5z"/>
<path class="st2" d="M183.2,370.3c-3.7,2.4-5.2,6.2-6.1,10.3c-0.1,0.4-0.3,0.7-0.5,0.9c0.7-1.5-0.4-2.2-1-3.6
	c-0.2,0.6-0.2,1.2-0.2,1.8c-0.8-0.2-1.7-0.1-2.4,0.3c0-0.5-0.4-1-0.5-1.4c-0.6,0.7-0.5,1.9-0.1,3.3l-0.2-0.3
	c-2.6-3.2-5.9-6-10.3-6.6c-2.1-0.3-7.4-0.6-11.4,3.7c4.2-1.9,10.4-0.9,10.8,4c0.6-2.5,4-1,3.8,1.3c0.8-2.4,4.2-2,3.6,0.4
	c0.7-1.3,3.4-1,5.2,1.2c0.5,1,0.9,1.9,1.2,2.4c0.5-1.1,1-2.1,1.3-3.3c1.5-2.5,3.4-3.8,4.5-3c-1.6-1.9,1.3-3.7,3-1.9
	c-1.1-2,1.3-4.8,2.9-2.8c-1.7-4.5,3.4-8.1,8-8.2C189.6,366.6,185,369.2,183.2,370.3z"/>
<path class="st1" d="M183,327c-6.6,1.3-10.7,6-14.3,11.1c-0.3,0.4-0.8,0.8-1.3,1c1.9-1.8,0.6-3.4,0.6-5.7c-0.5,0.7-1,1.5-1.3,2.4
	c-1-0.8-2.3-1.1-3.5-0.8c0.2-0.7,0-1.6,0.1-2.3c-1.2,0.6-1.7,2.5-1.9,4.6l-0.2-0.5c-1.8-6-5-11.7-10.9-15c-2.8-1.6-10.1-5-18.1-1.1
	c7-0.4,15.1,4.5,13,11.6c2.2-3.2,6.2,0.9,4.7,4c2.4-2.9,7.1-0.5,4.8,2.5c1.6-1.5,5.4,0.5,6.7,4.6c0.1,1.7,0.3,3.1,0.4,4
	c1.3-1.2,2.6-2.5,3.7-3.9c3.5-2.8,7-3.5,8-1.7c-1.2-3.6,3.9-4.5,5.3-1c-0.5-3.4,4.5-6,5.6-2.3c0.1-7.4,9.3-9.6,15.9-7.1
	C194.1,325.2,186.2,326.3,183,327z"/>
<path class="st1" d="M262.5,260.1H0v376.5h198.5l-13.2-43L175,580.9l-4.8-16.7l-4.2-30.3l-8.7,31.7l-7.3,4.8l-6.7,27.7l-8.3-49.3
	l-8-4.8l-1.3-16l-6.6-9l-5-27.1l-5.8,36.2l-6.6,9.8l-4,30.2c10.1-88.8-50.2-106.9-37.8-183.4l1,11.2l1.5,5.6L63,424l0.8-0.2l1-14.2
	l1-6.7l0.8-13.9l2.1-9.1l1.1-31.4c0.4-1.1,0.9-2.2,1.3-3.4l0.8,17.7l2.1,5.8l0.8,10.2l1,4.5l1,10.3l0.8-0.2l0.8-17.6l1.6-5.1
	l2.2-21.8l2.6-7.7l2-20.1l1.1,6l3,4.9l1.5,18.4h1.5l2-11.4l2-5.2l1.5-11l4-6.8l2.1-24.8l0.6-0.5l2.7,32.6l3.6,12.4l3,37.9l2.2,8.4
	l1.1,31.1h1.1l1.4-19.1l1.5-8.8l1.1-18.7l2.9-11.6l2.4-66.7l2.1,44.6l2.9,8.9l1.1,14.4l1.5,6.7l1.4,14.6h1.1l1.1-23.8l2.2-6.4l3-29
	l3.6-9.5l1.2-10.9l2.1,11.2l2.2,3.6l1.1,13.3h1.1l1.4-8.2l1.5-3.8l1.1-8l2.9-5l1.8-20.7l2.1,26l2.6,9l2.2,27.5l1.6,6.1l0.8,22.6h0.8
	l1-13.9l1.1-6.4l0.8-13.6l2.1-8.4l1.7-46.7l0.2,0.9l1.4,29.7l2.1,6.4l0.8,10.4l1.1,4.9l1,10.6h0.8l0.8-17.3l1.6-4.7l1.1-11.3l3.3,15
	l3.5,4.9l1.8,18.4h1.8l2.2-11.3l2.4-5.2l1.8-11l4.8-6.8l2.8-28.4l3.4,35.8l4.2,12.4l3.6,37.9l2.6,8.4l1.3,31.1h1.3l1.6-19.1l1.7-8.8
	l1.3-18.7l3.4-11.6l2.9-66.7l2.5,44.6l3.4,8.9l1.3,14.4l1.7,6.7l1.6,14.6h1.3l1.3-23.8l2.6-6.4l3.6-29l4.2-9.5l1.4-10.9l2.5,11.2
	l2.6,3.6l1.3,13.3h1.3l1.6-8.2l1.7-3.8l1.3-8l3.5-5l0.2-1.9l1.7,11.2l1.9,3.7l1,13.7h0.9l1.2-8.4l0.9-2.9l2.5,26.5l1.9,6.1l1,22.6
	h0.9l1.2-13.9l1.2-6.4l0.9-13.6l2.5-8.4l2.1-48.5l1.8,32.4l2.5,6.4l0.9,10.4l1.2,4.9l1.1,10.6h1l1-17.3l1.9-4.7l2.6-21.1l3.1-6.9
	l1.1-8.4l1.5,9.5l1.3,2.7l0.7,10h0.7l0.8-6.1l0.9-2.8l0.7-6l1.8-3.7l0.4-5.3l1.4,0.4l0.6,8.8l1.6,6.7l1.4,20.5l1,4.5l0.5,16.9h0.5
	l0.6-10.4l0.7-4.8l0.5-10.2l1.3-6.3l0.7-23.3l0.5,0.1l0.7,5.4l0.2,5.7l0.9,3.2l0.7,5.6l0.2,3.8l0.6,3.6l0.6,8h0.5l0.2-4.3l1.9,4.3
	l2.5,21.1l1.8,4.7l0.9,17.3h0.9l1-10.8l1.2-4.9l0.9-10.4l2.5-6.4l1.8-32.4l2,48.5l2.5,8.4l0.9,13.6l1.2,6.4l1.1,13.9h0.9l0.9-22.6
	l1.8-6.1l2.5-27.5l2.1-6.4l3.9,10.4c3.4,2,6.4,4.1,9.3,6.2l0.1,0.4h0.4c5.4,4,10.5,8.6,15,13.6l0.9,7.7l2.5,6.4l1.3,23.8h1.2
	l1.6-14.6l1.7-6.7l0.3-3.8c6.3,10.1,10.2,20.6,14,31.1l0.1,2l1.7,8.8l1.6,19.1h1.2l0.6-15.6c5.6,14.2,13,28.3,27.8,41.3
	c25,21.9,21.8,50.7,7.8,91.2c-9,26.2-17.4,44.5-30.1,58.1l-2.7-10.2l-2.3-2.8l-1.2-10.2h-1.2l-1.5,6.3l-1.6,2.9l-1.2,6.2l-3.1,3.8
	l-1.9,15.9l-2.3-19.9l-2.7-6.9l-2.4-21.1l-1.7-4.7l-0.9-17.3h-0.9l-1.1,10.7l-1.2,4.9l-0.9,10.5l-2.3,6.5l-1.9,37.2l-1.6-24.9
	l-2.3-4.9l-0.9-8l-1.1-3.8l-1.1-8.2h-0.9l-0.9,13.3l-1.7,3.6l-2.4,16.2l-2.8,5.3l-0.9,6.1l-1.6-6.2l-1.7-2l-0.9-7.4h-0.9l-1.1,4.6
	l-1.1,2.1l-0.9,4.5l-2.3,2.8l-1.4,11.5l-1.7-14.5l-2-5l-1.7-15.3l-1.2-3.4l-0.6-12.6h-0.6l-0.8,7.8l-0.8,3.6l-0.6,7.6l-1.7,4.7
	l-1.4,27.1l-1.2-18.1l-1.7-3.6l-0.6-5.8l-0.8-2.7l-0.8-5.9h-0.6l-0.6,9.7l-1.2,2.6l-1.7,11.8l-2,3.8l-2.9,19.7h184.4V260.1H262.5z"
	/>
<path class="st2" d="M151.2,408c-1.7-0.3-3.5,0.2-4.9,1.2c-0.1,0.1-0.3,0.1-0.4,0.1c0.7-0.2,0.5-0.8,0.8-1.4
	c-0.2,0.1-0.4,0.3-0.6,0.5c-0.2-0.3-0.5-0.5-0.8-0.6c0.1-0.1,0.2-0.4,0.3-0.6c-0.4,0-0.7,0.4-1,1v-0.1c0.3-1.7-0.1-3.5-1.1-5
	c-1-1.5-2.7-2.3-4.4-2.3c1.8,0.7,3.3,2.9,2,4.4c0.9-0.5,1.5,0.9,0.7,1.5c0.9-0.5,1.9,0.7,0.9,1.2c0.6-0.2,1.3,0.7,1.2,1.9
	c-0.1,0.4-0.3,0.8-0.4,1c0.5-0.2,0.9-0.3,1.4-0.6c1.2-0.3,2.2-0.1,2.2,0.5c0.1-1,1.5-0.7,1.5,0.4c0.2-0.9,1.8-1,1.7,0
	c0.9-1.9,3.4-1.4,4.8,0C154.4,409.5,152.9,408.3,151.2,408z"/>
<linearGradient id="SVGID_1_" gradientUnits="userSpaceOnUse" x1="269.185" y1="1222" x2="269.185" y2="959.38" gradientTransform="matrix(1 0 0 -1 0 1222)">
	<stop  offset="0" style="stop-color:#2C2219"/>
	<stop  offset="1" style="stop-color:#120903"/>
</linearGradient>
<rect x="1.3" class="st3" width="535.8" height="262.6"/>
<polygon class="st1" points="199.8,636.5 276.3,691.3 317.3,685.9 355.2,636.5 540.1,636.5 540.1,1222.4 0,1221.5 0.8,636.5 "/>
</svg>
