<svg id="Layer_1" data-name="Layer 1" preserveAspectRatio="none" xmlns="http://www.w3.org/2000/svg" viewBox="0 0 537.09 1222.05"><defs><style>.cls-1{fill:#4d280f;}.cls-1,.cls-2,.cls-3,.cls-4,.cls-5,.cls-6,.cls-7,.cls-8{fill-rule:evenodd;}.cls-2{fill:#3d1e09;}.cls-3{fill:#694028;}.cls-4{fill:#593520;}.cls-5{fill:#80543b;}.cls-6{fill:#522f1b;}.cls-7{fill:#452919;}.cls-8{fill:#331b0b;}</style></defs><title>Artboard 1</title><path class="cls-1" d="M-.37,664.47h87L95.57,525.1C107.5,471.84,183.66,459.42,244.83,411c34.5-27.32,98.69-27.36,105.69-.79,12.61,47.91,137.09,62.72,110.9,172.13l18,60.65,11.17,21.49h46.89V288H-.37Z"/><path class="cls-2" d="M-.37,664.47H34.25l.18-105C37,531,48.85,510.86,65.55,495.25l.31,1.56,2.21,2.72,1.87,9.65,1.34,1.88L72,519.2l.67-.18.84-5.35.9-2.59.67-5.2,1.81-3.58L78.1,487l1.13,13.8,1.6,5.18,1.35,16.83,1,3.54.5,14,.48-.13.61-8.85.65-4.16.49-8.63,1.31-5.6,1.08-30.68.94,19.91,1.31,3.67.48,6.39.65,2.87.61,6.49.48-.13.5-10.94,1-3.17,1.35-13.53,1.6-4.72,1.26-12.38.19,1,1,1.37.5,5.92.49-.13.61-3.89.66-1.88.49-3.78,1.31-2.6.3-3.64,1.32-.69.11,1.38,1.16,3.77,1,12.23.7,2.57.36,10.17.35-.1.44-6.43.48-3,.35-6.28.95-4.07.48-13.47.88-.44.11,2.33,1,2.67.35,4.64.48,2.09.44,4.72.35-.1.36-8,.7-2.3.83-8.33c35.7-17.17,74-30.68,95-56.91,21.35-26.68,42-41.22,61.39-48.51l.69,3.9,1.43,2.28,1.21,7,.87,1.54.44,5.73h.43l.54-3.52.58-1.62.43-3.45,1.17-2.13.84-10.72,1,16.06,1.17,2.78.43,4.51.58,2.11.55,4.6h.43l.44-7.48.87-2,1.21-9.11,1.43-3,1.17-8.6,1,6.84,1.62,1.64.6,2.66.81,1.24.75,2.72h.6l.61-4.41,1.2-1.19,1.15-3.69.64,3.61,2,3.13,1.66,9.6,1.19,2.12.61,7.88h.6l.75-4.85.81-2.22.6-4.75,1.61-2.93,1.16-14.75,1.33,22.08,1.61,3.82.6,6.2.8,2.9.75,6.33h.6l.61-10.29,1.19-2.77,1.66-12.53,2-4.09L324,358.42l1.33,9.4,2.22,2.26.82,3.66,1.11,1.71,1,3.74h.82l.84-6.07,1.65-1.63,2.3-7.39,2.72-2.41,2.25-7.06c50.73,13.31,28.93,59.63,85,95.52,20,12.83,22.56,43.31,61.34,88.6,18.65,21.78-5.57,63.55,11.33,125.73h38.71V288H-.37Z"/><path class="cls-3" d="M-.37,560.06V664.47H537.46v-72L322.8,579.26C305.64,551.82,178.32,540.89-.37,560.06Z"/><polygon class="cls-3" points="496.67 586.22 494.31 557.52 482.06 529.5 458.98 540.17 440.61 574.87 420.36 578.21 404.81 631.95 517.39 631.95 509.38 588.88 496.67 586.22"/><polygon class="cls-4" points="496.67 586.22 494.31 557.52 482.06 529.5 483.38 561.03 487.94 594.91 496.41 597.91 494.06 612.26 498.53 623.61 492.41 631.95 492.41 631.95 517.39 631.95 509.38 588.88 496.67 586.22"/><polygon class="cls-5" points="440.61 574.87 420.36 578.21 404.81 631.95 438.94 631.95 438.95 631.95 433.53 607.59 446.25 600.59 452.37 583.57 463.2 582.9 466.06 549.37 458.98 540.17 440.61 574.87"/><polygon class="cls-3" points="398.99 597.45 397.6 581.45 390.39 565.83 376.8 571.78 365.99 591.13 354.06 592.99 344.91 622.95 411.19 622.95 406.48 598.94 398.99 597.45"/><polygon class="cls-4" points="398.99 597.45 397.6 581.45 390.39 565.83 391.17 583.41 393.85 602.3 398.84 603.98 397.45 611.97 400.09 618.3 396.48 622.95 396.48 622.95 411.19 622.95 406.48 598.94 398.99 597.45"/><polygon class="cls-5" points="365.99 591.13 354.06 592.99 344.91 622.95 365 622.95 361.82 609.37 369.3 605.46 372.91 595.98 379.29 595.61 380.97 576.9 376.8 571.78 365.99 591.13"/><polygon class="cls-3" points="114.9 533.18 104.67 513.86 91.82 507.91 85 523.52 83.68 539.5 76.6 540.99 72.14 564.97 134.84 564.97 126.19 535.04 114.9 533.18"/><polygon class="cls-4" points="83.68 539.5 76.6 540.99 72.14 564.97 86.05 564.97 82.64 560.33 85.14 554.01 83.82 546.02 88.55 544.35 91.09 525.47 91.82 507.91 85 523.52 83.68 539.5"/><polygon class="cls-5" points="114.9 533.18 104.67 513.86 100.73 518.98 102.32 537.66 108.36 538.03 111.77 547.51 118.85 551.41 115.83 564.97 134.84 564.97 126.19 535.04 114.9 533.18"/><polygon class="cls-3" points="165.49 542.08 159.47 531.31 151.9 527.99 147.88 536.7 147.11 545.61 142.94 546.44 140.31 559.81 177.23 559.81 172.13 543.12 165.49 542.08"/><polygon class="cls-4" points="147.11 545.61 142.94 546.44 140.31 559.81 148.5 559.81 148.51 559.81 146.5 557.22 147.97 553.7 147.19 549.24 149.97 548.31 151.47 537.78 151.9 527.99 147.88 536.7 147.11 545.61"/><polygon class="cls-5" points="165.49 542.08 159.47 531.31 157.15 534.16 158.08 544.58 161.64 544.79 163.64 550.07 167.81 552.25 166.04 559.81 177.23 559.81 172.13 543.12 165.49 542.08"/><path class="cls-6" d="M489.42,598.55c-24,5.82,0,0-20.43,10.87s-71.43.43-80.43,5.57-81.63-14.13-97.84-21.84-113.45-7.28-109.25-1.28,52.82,13.7,20.41,24c-24,7.62-142.61-12.32-202.25-23.12l1,182.32,535-11.55,1.82-157C521.63,600.56,502.2,595.45,489.42,598.55Z"/><path class="cls-7" d="M489.42,598.5c-24,5.8,0,0-20.43,10.82s-71.43.43-80.43,5.54c-5.22,3-31.85-2.24-56.46-8.63,4.29,7.66,3.51,15.18-9.56,20.56-15.56,6.42-57.81.48-54.67,26,.43,3.52,4.33,7.78,9.47,11.71H537.46V606.38C521.63,600.5,502.2,595.41,489.42,598.5Z"/><path class="cls-8" d="M181.47,591.85v25.42l.08.1c9.1.15,16.15-.34,20.33-1.66C234.29,605.48,185.67,597.82,181.47,591.85Z"/></svg>