<?xml version="1.0" encoding="utf-8"?>
<!-- Generator: Adobe Illustrator 21.1.0, SVG Export Plug-In . SVG Version: 6.00 Build 0)  -->
<svg version="1.1" id="Layer_1" xmlns="http://www.w3.org/2000/svg" xmlns:xlink="http://www.w3.org/1999/xlink" x="0px" y="0px"
	 viewBox="0 0 720 578.6" style="enable-background:new 0 0 720 578.6;" xml:space="preserve" preserveAspectRatio="none">
<style type="text/css">
	.st0{fill:url(#SVGID_1_);}
	.st1{fill:#EACE42;}
	.st2{fill:#DDBE05;}
	.st3{fill:none;}
	.st4{fill:#DAD9D4;}
	.st5{fill:#FFFEF7;}
	.st6{fill:#D5D8DA;}
	.st7{fill:#3E5161;}
	.st8{fill:#CAC9C5;}
	.st9{fill:#6E7B81;}
	.st10{fill:#5C686C;}
	.st11{fill:#F9F9F7;}
	.st12{fill:#FCFCFC;}
</style>
<title>Artboard 1</title>
<linearGradient id="SVGID_1_" gradientUnits="userSpaceOnUse" x1="-0.86" y1="228.5753" x2="719.17" y2="228.5753" gradientTransform="matrix(1 0 0 -1 0 509.7507)">
	<stop  offset="0.18" style="stop-color:#9C673F"/>
	<stop  offset="0.69" style="stop-color:#8B5531"/>
</linearGradient>
<path class="st0" d="M495.1,220.1l7.2,12.4v17.2l-5.9,10.3l-7.9,7.6l-15.8,4.1l4.6,10.3l4.6,17.8l6.6,6.2l2,13.1l4-16.5l8.6,11
	l4.6,11.7l0.7,8.3l8.6,0.7l4,16.5v13.8l5.3-26.1l4.6,6.9l6.6-13.1l7.9,16.5l2,11.7l8.6-6.9l5.3,6.2l6.6,21.3L573,368
	c0,0,19,10.4,17,30.3l4.6,2.1v11l3.2-6.8l1.2,10.3l3.7-10.8l7.8,28.8l3.2-20.4l9.5,5.7c0,0,11.2,23.1,9.5,24.8l1.4-14.9l12.2,8
	l4.9,7.3l-0.8,8.3l-0.3,5.2l12.2,14.4l3.7,4.4l6.6,35.7l33.5,28.3l9.5,22.5l3.7-137.7L718,0.2L-0.9,3c0,0,45.1,55.7,45.8,77.8
	l2.7-21.4l6.2,16.2L56.9,40l15.3-3l2.8,9.1l4.4,10.1l1.3,18.1c0,0,7.1-11.8,7.3-24.9l2.6,9.5l13.7-25.7c0,0,20.8,27,20.4,52.5
	l2,20.4l2.6,4.6c0,0,5.6-46,8.2-46.8l13.7,2.1l17.9,16.4l7.1,19l2.2,23.8l4.3-24.1l3.1-11.8l6.6-8.6l3.6,9.5l2.2,16.4l2.7,13.7
	l0.7-7.2h2c0,0,2.4-20.9,5.3-24l3.1,11l0.9-9.9l2,0.4l0.2-6.1l7.3,0.6l1.5,8.8l1.6-7.6l6,13.9l2.2,16.7l2.9-16.6l17.5,7l3.5,9.7
	l-1.6,16.6l2-3.2c0,0,0.5,4.2,0.5,3.6s5.1-18.5,5.1-18.5l7.8,2.5l1.3,8.8l1.3,15.2l2.5-18.3l9.1,4.4l7.5,21.5l2.7-22.4l2.5,8.2
	l2.4-11l10.4-0.6l6.7,12.9L321,155l6.9-30.4l5.5,17.5l3.3-19.4c0,0,4.9,23.8,9.5,26.8c0,0,7.3,21.5,5.5,24.3l4.2-16.5l3.3-4.4
	l-0.4-19.4l6-12.2l3.8,4.9l1.5-4.6l4.4,5.7l2,11.8l4.5-20.2l3.8,1.7l7.6,25.1l0.5,9.3l6.9-22.8l2.5,9.7l1.8-10.6l11.5,4.9l5.6,18.5
	l3.1,20.5l4.4-28.2l4.7,4.8l0.7,5.7l4.2,2.5l1.1,8.8l2.9-7.8l3.8,2.1l1.8,12.4l3.3-6.7l8.6,8.5c0,0-1.6,13.2,2.4,16.9l2.3,14.9
	l4.7-23l5.6-0.7l5.6,10.5l-0.7,13.6l4.3-14.7l3.1,5.1l-0.5,10l1.2,8.9l0.2,13.1l4.3-15L495.1,220.1z"/>
<path class="st1" d="M452.5,373.2c-5,0.6-8.7,5.2-8.1,10.2c0,0,0,0,0,0.1l6.4,55.6c0.5,5,5,8.7,10,8.2c0,0,0.1,0,0.1,0l56.7-6.5v-75
	L452.5,373.2z"/>
<path class="st2" d="M598.9,422.2l-6.4-55.6c-0.7-5.1-5.4-8.8-10.5-8.2l-64.5,7.4v75l72.9-8.3C595.6,431.9,599.4,427.3,598.9,422.2z
	"/>
<path class="st3" d="M590.6,427.8c3-0.3,5.1-3,4.8-5.9l-6.3-55.5c-0.4-3-3.1-5.1-6.1-4.7l-65.5,7.5v67L590.6,427.8z"/>
<path class="st3" d="M449,382.4l6.4,55.5c0.2,2.8,2.7,5,5.6,4.7c0,0,0.1,0,0.1,0l56.5-6.5v-67l-64,7.4c-2.8,0.4-4.9,3-4.5,5.8
	C449,382.3,449,382.3,449,382.4z"/>
<path class="st4" d="M603.4,421l-6.3-55c-0.9-7.3-7.5-12.4-14.8-11.6l-64.7,7.4v7.3l65.4-7.5c3-0.3,5.6,1.8,6,4.7l6.4,55.5
	c0.3,3-1.9,5.6-4.9,5.9l-73,8.3v8l74-8.5C598.8,434.9,604.1,428.3,603.4,421z"/>
<path class="st5" d="M461.1,442.6c-2.9,0.3-5.5-1.8-5.8-4.6c0,0,0,0,0-0.1l-6.3-55.5c-0.4-2.9,1.6-5.5,4.4-5.9c0,0,0.1,0,0.1,0
	l64.1-7.4v-7.3l-64.9,7.5c-7.2,0.8-12.4,7.3-11.6,14.5c0,0,0,0.1,0,0.1l6.3,55c0.7,7.1,7.1,12.4,14.2,11.6c0.1,0,0.1,0,0.2,0
	l55.7-6.4v-8L461.1,442.6z"/>
<ellipse transform="matrix(0.9935 -0.1137 0.1137 0.9935 -36.6603 67.0048)" class="st5" cx="568.9" cy="354.8" rx="5.7" ry="5.7"/>
<ellipse transform="matrix(0.9935 -0.1137 0.1137 0.9935 -36.6591 67.0059)" class="st6" cx="569" cy="354.8" rx="2.8" ry="2.8"/>
<ellipse transform="matrix(0.9935 -0.1137 0.1137 0.9935 -38.6655 55.3886)" class="st5" cx="466.1" cy="366.6" rx="5.7" ry="5.7"/>
<ellipse transform="matrix(0.9935 -0.1137 0.1137 0.9935 -38.6667 55.3875)" class="st6" cx="466.1" cy="366.6" rx="2.8" ry="2.8"/>
<polygon class="st7" points="466.7,366.9 465.5,366.3 517.8,274.9 569.5,354.5 568.4,355.2 517.9,277.5 "/>
<path class="st5" d="M509.1,276.3c0,4.8,3.7,8.7,8.5,9v-17.9C512.8,267.6,509.1,271.5,509.1,276.3z"/>
<path class="st8" d="M518.2,267.3c-0.2,0-0.4,0-0.7,0v17.9c0.2,0,0.4,0,0.7,0c5,0.4,9.3-3.3,9.7-8.2c0.4-5-3.3-9.3-8.2-9.7
	C519.2,267.2,518.7,267.2,518.2,267.3L518.2,267.3z"/>
<path class="st9" d="M510.7,276.3c0,3.9,3.7,7.1,6.9,7.3V269C514.4,269.2,510.7,272.4,510.7,276.3z"/>
<path class="st10" d="M518.2,269c-0.2,0-0.4,0-0.7,0v14.6c0.2,0,0.4,0,0.7,0c4,0,7.3-3.3,7.3-7.3C525.6,272.2,522.3,268.9,518.2,269
	L518.2,269z"/>
<rect x="511" y="275.9" transform="matrix(0.6828 -0.7306 0.7306 0.6828 -37.3974 466.3398)" class="st7" width="14.6" height="0.7"/>
<rect x="518" y="268.8" transform="matrix(0.7306 -0.6828 0.6828 0.7306 -48.9244 428.2664)" class="st7" width="0.7" height="14.6"/>
<path class="st11" d="M467.4,387.5L467.4,387.5c-0.5-0.6-1.3-0.9-2.1-0.8c-1.2,0.2-2.1,1.3-1.9,2.5c0,0,0,0,0,0.1
	c0.1,1.2,1.1,2.1,2.3,2.1c0,0,0.1,0,0.1,0c0.8-0.1,1.5-0.6,1.9-1.3l0,0l0.2,1.4c-0.5,0.5-1.2,0.8-1.9,0.9c-1.8,0.3-3.4-1-3.7-2.7
	c0-0.1,0-0.1,0-0.2c-0.2-1.8,1.1-3.5,2.9-3.7c0,0,0,0,0,0c0.7-0.1,1.4,0.1,2,0.4L467.4,387.5z"/>
<path class="st11" d="M470.6,391.6l-1.1,0.1l-1.3-11l1.1-0.1L470.6,391.6z"/>
<path class="st11" d="M473.1,382.6c0,0.4-0.2,0.8-0.7,0.8s-0.8-0.2-0.8-0.7s0.2-0.8,0.7-0.8S473,382.1,473.1,382.6L473.1,382.6z
	 M473.9,391.2l-1.1,0.1l-0.8-6.2l1.1-0.1L473.9,391.2z"/>
<path class="st11" d="M480.2,386L480.2,386c-0.5-0.6-1.3-0.9-2.1-0.8c-1.2,0.2-2.1,1.3-1.9,2.5c0,0,0,0,0,0.1
	c0.1,1.2,1.1,2.1,2.3,2.1c0,0,0.1,0,0.1,0c0.8-0.1,1.5-0.6,1.9-1.3l0,0l0.2,1.4c-0.5,0.5-1.2,0.8-1.9,0.9c-1.8,0.3-3.4-1-3.7-2.7
	c0-0.1,0-0.1,0-0.2c-0.2-1.8,1.1-3.5,2.9-3.7c0,0,0,0,0,0c0.7-0.1,1.4,0.1,2,0.4L480.2,386z"/>
<path class="st11" d="M483,386.1l2-2.6l1.4-0.2l-2.4,3l3.6,3.2l-1.4,0.2l-2.9-2.5l-0.2,0.3l0.3,2.6l-1.1,0.1l-1.3-11l1.1-0.1
	L483,386.1z"/>
<path class="st11" d="M492.5,377.9l0.6,5.5l0,0c0.3-0.6,1-1.1,1.7-1.1c1.7-0.2,2.3,1,2.5,2.5l0.4,3.7l-1.1,0.1l-0.4-3.5
	c-0.1-1-0.3-1.9-1.5-1.8c-1.5,0.2-1.4,1.5-1.3,2.7l0.4,3l-1.1,0.1l-1.3-11L492.5,377.9z"/>
<path class="st11" d="M500,385.1c0.1,1.1,1,1.9,2.1,1.9c0.1,0,0.1,0,0.2,0c0.8-0.1,1.5-0.7,1.8-1.5l1,0.4c-0.4,1.2-1.5,2-2.7,2.1
	c-1.6,0.2-3.2-0.9-3.4-2.5c0-0.1,0-0.2,0-0.3c-0.2-1.9,0.7-3.5,2.6-3.7s3.3,1.3,3.4,3.2L500,385.1z M503.7,383.8
	c-0.2-0.9-1.1-1.5-2-1.4c-0.9,0.1-1.6,0.9-1.7,1.9L503.7,383.8z"/>
<path class="st11" d="M507,381.6L507,381.6c0.2-0.5,0.7-0.9,1.3-1c0.3,0,0.7,0,1,0.2l-0.4,1c-0.2-0.1-0.4-0.2-0.7-0.2
	c-1.2,0.1-1,1.6-1,2.5l0.4,3.1l-1.1,0.1l-0.8-6.2l1.1-0.1L507,381.6z"/>
<path class="st11" d="M511.3,383.8c0.1,1.1,1,1.9,2.1,1.9c0.1,0,0.1,0,0.2,0c0.8-0.1,1.5-0.7,1.8-1.5l1,0.4c-0.4,1.2-1.5,2-2.7,2.1
	c-1.6,0.2-3.2-0.9-3.4-2.5c0-0.1,0-0.2,0-0.3c-0.2-1.9,0.7-3.5,2.6-3.7c2-0.2,3.3,1.3,3.4,3.2L511.3,383.8z M515,382.4
	c-0.2-0.9-1.1-1.5-2-1.4c-0.9,0.1-1.6,0.9-1.7,1.9L515,382.4z"/>
<path class="st11" d="M523.3,385.3l-1.1,0.1l-0.6-5.3l-0.6,0.1l-0.1-1l0.6-0.1l-0.3-2.5c-0.1-0.5-0.1-1.1,0.1-1.6
	c0.3-0.6,0.9-1,1.5-1c0.3,0,0.5,0,0.8,0l0.1,1.1c-0.2-0.1-0.5-0.1-0.7-0.1c-0.9,0.1-0.8,0.7-0.7,1.8l0.2,2.1l1.6-0.2l0.1,1l-1.6,0.2
	L523.3,385.3z"/>
<path class="st11" d="M524.8,381.9c-0.2-1.8,1.1-3.5,2.9-3.7c1.8-0.2,3.5,1.1,3.7,2.9c0.2,1.8-1.1,3.5-2.9,3.7c0,0,0,0,0,0
	C526.7,385.1,525,383.8,524.8,381.9C524.8,381.9,524.8,381.9,524.8,381.9z M525.9,381.8c0.2,1.2,1.3,2.1,2.6,1.9
	c1.2-0.2,2.1-1.3,1.9-2.6c-0.2-1.2-1.3-2-2.5-1.9C526.6,379.4,525.7,380.5,525.9,381.8C525.9,381.7,525.9,381.8,525.9,381.8
	L525.9,381.8z"/>
<path class="st11" d="M533.5,378.4L533.5,378.4c0.2-0.5,0.7-0.9,1.3-1c0.3,0,0.7,0,1,0.2l-0.4,1c-0.2-0.1-0.4-0.2-0.7-0.2
	c-1.2,0.1-1,1.6-1,2.5l0.4,3.1l-1.1,0.1l-0.8-6.2l1.1-0.1L533.5,378.4z"/>
<path class="st12" d="M471.3,408.3c-0.8-1-2.1-1.5-3.4-1.4c-1.4,0.1-2.4,1.3-2.3,2.7c0.4,3.6,8.8,1.1,9.6,8.3
	c0.5,4.3-1.8,7.7-6.1,8.2c-3,0.4-5.3-1.1-7.1-3.4l2.4-3c0.7,1.7,2.4,2.7,4.2,2.7c1.6-0.2,2.6-1.7,2.4-3.3c0,0,0-0.1,0-0.1
	c-0.3-2.2-2.4-2.6-4.1-3c-2.9-0.8-5.1-2-5.5-5.3c-0.5-3.4,1.8-6.6,5.3-7.2c0.1,0,0.1,0,0.2,0c2.2-0.2,4.4,0.4,6.2,1.7L471.3,408.3z"
	/>
<path class="st12" d="M490.6,406.9c-1.3-1.3-3.2-1.9-5-1.7c-4,0.5-5.9,4.5-5.4,8.2s3.3,6.9,7.1,6.5c1.8-0.3,3.4-1.3,4.5-2.8l0.6,5
	c-1.4,1-3,1.6-4.7,1.9c-6,0.7-11.1-3.9-11.8-9.8c-0.7-6.1,2.9-12,9.2-12.7c1.7-0.2,3.4,0,4.9,0.7L490.6,406.9z"/>
<path class="st12" d="M505.6,407.9l-1-8.4l4.2-0.5l2.6,21.4l-4.2,0.5l-1.2-9.5l-7.7,0.9l1.2,9.6l-4.2,0.5l-2.6-21.4l4.2-0.5l1,8.4
	L505.6,407.9z"/>
<path class="st12" d="M516.4,401.7l0.6,4.7l6.7-0.8l0.4,3.6l-6.7,0.8l0.7,5.8l6.9-0.8l0.4,3.6l-11.1,1.3l-2.6-21.4l11.1-1.4l0.4,3.6
	L516.4,401.7z"/>
<path class="st12" d="M525.7,396.9l6-0.7c6.2-0.8,10.9,3.4,11.7,9.5c0.7,6.1-3,11.2-9.1,11.9l-5.9,0.7L525.7,396.9z M532,414.2
	l0.7-0.1c5.1-0.6,6.8-3.7,6.3-7.9c-0.6-4.7-3.2-6.8-8-6.2l-0.7,0.1L532,414.2z"/>
<path class="st12" d="M543.9,394.7l4.2-0.5l1.5,12c0.3,2.6,1,6.3,4.5,5.9s3.3-4.2,3-6.8l-1.5-12l4.2-0.5l1.6,12.8
	c0.6,5.2-1.1,9.4-6.8,10.1s-8.4-3-9.1-8.2L543.9,394.7z"/>
<path class="st12" d="M569.1,409.7l5.9-0.7l0.4,3.6l-10.1,1.3l-2.6-21.4l4.2-0.5L569.1,409.7z"/>
<path class="st12" d="M578.8,394.2l0.6,4.7l6.7-0.8l0.4,3.6l-6.7,0.8l0.7,5.8l6.9-0.8l0.4,3.6l-11.1,1.3l-2.6-21.4l11.1-1.4l0.4,3.6
	L578.8,394.2z"/>
</svg>
