<svg id="Layer_1" data-name="Layer 1" xmlns="http://www.w3.org/2000/svg" xmlns:xlink="http://www.w3.org/1999/xlink" viewBox="0 0 720 720"><defs><style>.cls-1{fill:url(#linear-gradient);}.cls-2{fill:#eace42;}.cls-3{fill:#ddbe05;}.cls-4{fill:none;}.cls-5{fill:#dad9d4;}.cls-6{fill:#fffef7;}.cls-7{fill:#d5d8da;}.cls-8{fill:#3e5161;}.cls-9{fill:#cac9c5;}.cls-10{fill:#6e7b81;}.cls-11{fill:#5c686c;}.cls-12{fill:#f9f9f7;}.cls-13{fill:#fcfcfc;}</style><linearGradient id="linear-gradient" x1="-0.86" y1="386.3" x2="719.11" y2="386.3" gradientUnits="userSpaceOnUse"><stop offset="0.18" stop-color="#9c673f"/><stop offset="0.69" stop-color="#8b5531"/></linearGradient></defs><title>Artboard 1</title><path class="cls-1" d="M495.1,325.22l7.25,12.39v17.2l-5.93,10.32-7.91,7.57-15.81,4.13,4.61,10.32L481.92,405l6.59,6.19,2,13.07,4-16.52,8.57,11,4.61,11.7.66,8.26,8.57.69,4,16.52v13.76l5.27-26.15,4.61,6.88,6.59-13.07,7.91,16.52,2,11.7,8.57-6.88,5.27,6.19,6.59,21.33,5.27-13.07S592,483.49,590,503.45l4.61,2.06v11l3.15-6.81L598.94,520l3.74-10.82,7.82,28.75,3.23-20.41,9.52,5.68s11.21,23.07,9.52,24.84l1.36-14.91,12.23,8,4.93,7.28-.85,8.34-.34,5.15,12.17,14.43,3.69,4.4,6.58,35.74L706,644.77l9.48,22.54,3.69-137.73L718,105.29-.86,108.14s45.1,55.66,45.78,77.78l2.73-21.41,6.19,16.17,3.1-35.58,15.3-3L75,151.2l4.37,10.08,1.28,18.08s7.11-11.8,7.29-24.92l2.55,9.51,13.66-25.69s20.77,27,20.41,52.51l2,20.36,2.55,4.57s5.65-46,8.2-46.81L151,171l17.86,16.36,7.11,19,2.19,23.78L182.48,206l3.1-11.8,6.56-8.56,3.64,9.51L198,211.51l2.73,13.7.73-7.23h2s2.37-20.93,5.28-24l3.1,11,.91-9.89,2,.38.18-6.09,7.29.57,1.46,8.75,1.64-7.61,6,13.89,2.19,16.74,2.92-16.55,17.49,7,3.46,9.7-1.64,16.55,2-3.23s.55,4.19.55,3.62,5.1-18.46,5.1-18.46l7.83,2.47,1.28,8.75,1.28,15.22,2.55-18.27,9.11,4.38,7.47,21.5,2.73-22.45,2.55,8.18,2.37-11,10.39-.57,6.74,12.94,3.28,18.65,6.92-30.44,5.47,17.5,3.28-19.41s4.92,23.78,9.47,26.83c0,0,7.29,21.5,5.47,24.35l4.19-16.55,3.28-4.38-.36-19.41,6-12.18,3.83,4.95,1.46-4.57,4.37,5.71,2,11.8,4.55-20.17,3.83,1.71,7.65,25.12.55,9.32,6.92-22.83,2.55,9.7,1.82-10.65,11.48,4.95L421.33,260l3.1,20.55,4.37-28.16,4.74,4.76.73,5.71,4.19,2.47,1.09,8.75,2.92-7.8,3.83,2.09,1.82,12.37,3.28-6.66,8.64,8.47s-1.56,13.24,2.43,16.86l2.26,14.87,4.69-23,5.56-.73,5.56,10.52-.69,13.6L484.17,300l3.13,5.08-.52,10,1.22,8.88.17,13.06,4.34-15Z"/><path class="cls-2" d="M452.45,478.37a9.2,9.2,0,0,0-8.06,10.26l6.41,55.59a9.11,9.11,0,0,0,10.09,8.16l56.67-6.5v-75Z"/><path class="cls-3" d="M598.86,527.28,592.5,471.7A9.46,9.46,0,0,0,582,463.54l-64.48,7.36v75l72.94-8.32A9.42,9.42,0,0,0,598.86,527.28Z"/><path class="cls-4" d="M590.6,532.89a5.42,5.42,0,0,0,4.8-5.92l-6.3-55.52a5.51,5.51,0,0,0-6.09-4.71l-65.45,7.47v67Z"/><path class="cls-4" d="M449,487.49,455.35,543a5.17,5.17,0,0,0,5.72,4.71l56.48-6.49v-67l-64.05,7.35A5.2,5.2,0,0,0,449,487.49Z"/><path class="cls-5" d="M603.37,526.14l-6.29-55a13.38,13.38,0,0,0-14.8-11.61l-64.71,7.38v7.3L583,466.75a5.44,5.44,0,0,1,6,4.71l6.4,55.52a5.48,5.48,0,0,1-4.88,5.92l-73,8.34v8l74-8.45A13.34,13.34,0,0,0,603.37,526.14Z"/><path class="cls-6" d="M461.08,547.71a5.26,5.26,0,0,1-5.82-4.71L449,487.49a5.22,5.22,0,0,1,4.53-5.92l64.08-7.35v-7.3l-64.94,7.45A13.12,13.12,0,0,0,441.11,489l6.34,55a13,13,0,0,0,14.43,11.61l55.68-6.39v-8Z"/><circle class="cls-6" cx="568.93" cy="459.98" r="5.71" transform="translate(-48.6 67.65) rotate(-6.53)"/><circle class="cls-7" cx="568.93" cy="459.98" r="2.76" transform="translate(-48.59 67.64) rotate(-6.53)"/><circle class="cls-6" cx="466.11" cy="471.74" r="5.71" transform="translate(-50.6 56.04) rotate(-6.53)"/><circle class="cls-7" cx="466.11" cy="471.74" r="2.76" transform="translate(-50.61 56.05) rotate(-6.53)"/><polygon class="cls-8" points="466.68 472.07 465.54 471.42 517.83 380.05 569.48 459.62 568.38 460.34 517.9 382.58 466.68 472.07"/><path class="cls-6" d="M509.06,381.42a9,9,0,0,0,8.5,8.95V372.47A9,9,0,0,0,509.06,381.42Z"/><path class="cls-9" d="M518.23,372.45a5.25,5.25,0,0,1-.67,0v17.89a5.21,5.21,0,0,1,.67,0,9,9,0,1,0,0-17.94Z"/><path class="cls-10" d="M510.71,381.42c0,3.89,3.7,7.06,6.85,7.3v-14.6C514.41,374.36,510.71,377.53,510.71,381.42Z"/><path class="cls-11" d="M518.23,374.09a5.86,5.86,0,0,1-.67,0v14.6a5.91,5.91,0,0,1,.67,0,7.32,7.32,0,1,0,0-14.65Z"/><rect class="cls-8" x="511" y="380.99" width="14.63" height="0.66" transform="translate(-114.17 499.71) rotate(-46.94)"/><rect class="cls-8" x="517.99" y="374" width="0.66" height="14.63" transform="translate(-120.74 456.55) rotate(-43.06)"/><path class="cls-12" d="M467.41,492.63h0a2.43,2.43,0,0,0-2.07-.82,2.25,2.25,0,0,0-1.93,2.58,2.21,2.21,0,0,0,2.43,2.06,2.45,2.45,0,0,0,1.9-1.32h0l.17,1.42a3.44,3.44,0,0,1-1.9.87,3.26,3.26,0,0,1-3.72-2.9,3.32,3.32,0,0,1,2.94-3.69,3.39,3.39,0,0,1,2,.39Z"/><path class="cls-12" d="M470.65,496.7l-1.06.13-1.31-11,1.06-.13Z"/><path class="cls-12" d="M473.09,487.68a.76.76,0,1,1-1.51.18.76.76,0,1,1,1.51-.18Zm.8,8.62-1.06.13-.75-6.25,1.06-.13Z"/><path class="cls-12" d="M480.22,491.1h0a2.43,2.43,0,0,0-2.07-.82,2.25,2.25,0,0,0-1.93,2.58,2.21,2.21,0,0,0,2.43,2.06,2.45,2.45,0,0,0,1.9-1.32h0l.17,1.42a3.44,3.44,0,0,1-1.9.87,3.26,3.26,0,0,1-3.72-2.9,3.32,3.32,0,0,1,2.94-3.69,3.39,3.39,0,0,1,2,.39Z"/><path class="cls-12" d="M483,491.23l2-2.58,1.42-.17-2.35,3,3.6,3.21-1.41.17-2.85-2.54-.25.31.31,2.56-1.06.13-1.31-11,1.06-.13Z"/><path class="cls-12" d="M492.52,483l.65,5.45,0,0a2.11,2.11,0,0,1,1.67-1.14c1.73-.21,2.28,1,2.45,2.46l.44,3.71-1.06.13-.42-3.52c-.12-1-.31-1.9-1.54-1.76-1.46.17-1.39,1.54-1.26,2.66l.35,3-1.06.13-1.31-11Z"/><path class="cls-12" d="M500,490.26a2,2,0,0,0,2.29,1.84,2.16,2.16,0,0,0,1.75-1.52l1,.41a3.18,3.18,0,0,1-2.68,2.1,3,3,0,0,1-3.44-2.85c-.22-1.85.67-3.5,2.63-3.74s3.27,1.29,3.38,3.17Zm3.68-1.36a1.92,1.92,0,0,0-2-1.42,2,2,0,0,0-1.7,1.86Z"/><path class="cls-12" d="M507,486.71h0a1.62,1.62,0,0,1,1.28-1,1.9,1.9,0,0,1,1,.18l-.39,1a1,1,0,0,0-.67-.2c-1.17.14-1,1.65-.95,2.46l.37,3.12-1.06.13-.75-6.25,1.06-.13Z"/><path class="cls-12" d="M511.31,488.9a2,2,0,0,0,2.29,1.84,2.16,2.16,0,0,0,1.75-1.52l1,.41a3.18,3.18,0,0,1-2.68,2.1,3,3,0,0,1-3.44-2.85c-.22-1.85.67-3.5,2.63-3.74s3.27,1.29,3.38,3.17Zm3.68-1.36a1.92,1.92,0,0,0-2-1.42,2,2,0,0,0-1.7,1.86Z"/><path class="cls-12" d="M523.26,490.41l-1.06.13-.63-5.26-.58.07-.12-1,.58-.07-.3-2.48a3.22,3.22,0,0,1,.09-1.65,1.82,1.82,0,0,1,1.51-1,2.54,2.54,0,0,1,.77,0l.13,1.08a2.17,2.17,0,0,0-.73-.06c-.86.1-.79.71-.66,1.82l.25,2.11,1.58-.19.12,1-1.58.19Z"/><path class="cls-12" d="M524.81,487.07a3.31,3.31,0,1,1,3.67,2.89A3.3,3.3,0,0,1,524.81,487.07Zm1.06-.14a2.24,2.24,0,1,0,1.94-2.58A2.23,2.23,0,0,0,525.88,486.93Z"/><path class="cls-12" d="M533.55,483.54h0a1.62,1.62,0,0,1,1.28-1,1.9,1.9,0,0,1,1,.18l-.39,1a1,1,0,0,0-.67-.2c-1.17.14-1,1.65-.95,2.46l.37,3.12-1.06.13-.75-6.25,1.06-.13Z"/><path class="cls-13" d="M471.34,513.43a3.88,3.88,0,0,0-3.42-1.37,2.57,2.57,0,0,0-2.32,2.73c.44,3.61,8.75,1.07,9.62,8.26.52,4.29-1.78,7.65-6.15,8.18-3,.36-5.32-1.08-7.1-3.37l2.38-3a4.44,4.44,0,0,0,4.25,2.66,2.88,2.88,0,0,0,2.38-3.43c-.27-2.21-2.39-2.59-4.14-3-2.9-.8-5.08-1.95-5.48-5.27a6.28,6.28,0,0,1,5.47-7.18A8.87,8.87,0,0,1,473,510.3Z"/><path class="cls-13" d="M490.63,512.07a6.22,6.22,0,0,0-5-1.7c-4,.49-5.86,4.46-5.41,8.15s3.26,6.92,7.15,6.45a6.58,6.58,0,0,0,4.47-2.85l.6,5a11.36,11.36,0,0,1-4.7,1.87c-6,.73-11.12-3.92-11.83-9.83-.74-6.08,2.9-12,9.18-12.73a10,10,0,0,1,4.93.67Z"/><path class="cls-13" d="M505.61,513l-1-8.44,4.18-.51,2.6,21.42-4.18.51L506,516.45l-7.72.94,1.16,9.57-4.18.51-2.6-21.42,4.18-.51,1,8.44Z"/><path class="cls-13" d="M516.44,506.86l.57,4.72,6.65-.81.44,3.64-6.65.81.7,5.8,6.9-.84.44,3.64-11.08,1.35-2.6-21.42,11.08-1.35.44,3.64Z"/><path class="cls-13" d="M525.67,502l6-.72c6.2-.75,10.91,3.37,11.65,9.48s-3,11.2-9.07,11.94l-5.94.72ZM532,519.32l.68-.08c5.14-.62,6.79-3.71,6.27-7.94-.57-4.66-3.25-6.78-8-6.21l-.68.08Z"/><path class="cls-13" d="M543.91,499.83l4.18-.51,1.46,12c.32,2.64,1,6.33,4.55,5.9s3.33-4.18,3-6.82l-1.46-12,4.18-.51,1.56,12.81c.64,5.23-1.1,9.44-6.84,10.14s-8.43-3-9.07-8.21Z"/><path class="cls-13" d="M569.1,514.82l5.91-.72.44,3.64L565.36,519l-2.6-21.42,4.18-.51Z"/><path class="cls-13" d="M578.79,499.28l.57,4.72,6.65-.81.44,3.64-6.65.81.7,5.8,6.9-.84.44,3.64-11.08,1.35-2.6-21.42,11.08-1.35.44,3.64Z"/></svg>