<svg id="Layer_1" data-name="Layer 1" xmlns="http://www.w3.org/2000/svg" viewBox="0 0 450.32 313.22"><defs><style>.cls-1{fill:#d0ad84;}.cls-2{fill:#c99663;fill-rule:evenodd;}</style></defs><title>Artboard 1</title><rect class="cls-1" x="1.43" y="0.32" width="447.46" height="312.9"/><path class="cls-2" d="M366.11,138.84l-1-3.78-5.72-9.47v-4.73l3.83-8.52c3.49,1.31,2.86,2,2.86,5.2L368,128.9c.62,3.16,1.69,1.65,1.93,4.74l1.95,6.62v1.42l-5.75,1.9ZM1.43,0H448.89V313.22H1.43v-142l2-.69C6.52,168.4,6,167,7.66,163.47l5.21-14.68c0-4.86.53-9.66-1-14.2L8.6,114.23c-1-3.69-3.07-4.25-6.14-7.1l-1-.78ZM236.35,205.19h8.52L260,199.48c.79-1.11,2.48-3,2.37-4.28l5.68-9.48c1.22-1.83.82-1,.82-2.84l.36-17v-2.36L268,139.79c0-2.48.26-.54-.89-2.84l-3.76-20.35-.92-2.84L254.81,100l-5.2,7.16-3.32-11.3h-9.94L233,90.15l-18.47-28.9L171,72.11c-.53,1.41-.49,2.13-1.89,2.36L146.86,86.78c-2.84,4.54-6.29,12.13-9,15.62L126,114.7l-3.32,8.52c-.43.91-1.89,5.21-1.89,5.21l-2.84,7.1c.1,4.13-1,4.58-1,8.52l-.94,11.36a17.52,17.52,0,0,0-1,2.37l.43,15.14v5.68l.52,8.52c.45,1,1.87,5.6,1.91,5.68l5.69,11.36.47,1.42,13.74,5.21c3.2,2,4.7,4.48,7.57,4.26l25.1-2.84c2.51-1.22,6.09-1.05,10.41-2.37l9.47-7.1c2.55-1.44,1.7-1.07,3.31-3.31L199.9,189c4.17-2.87,1.63-.89,4.73-2.37L207,190c.4,1,.56,2.17,1.42,2.37l8.52,2.37c2.26,2,.92,1.57,2.84,3.31l5.2,2.84,1.9,1.46Zm81.45-8,1.42-8.56c.62-.69,4.17-4.15,4.73-5.22l1.89-4.27c.55-3.92,1-2.26,1-7.11l1.89-7.1c1.08-1.08,4.47-4.61,4.74-6.16l4.26-7.57c3,0,5.23-.91,5.68,2.37l3.78,8a26.91,26.91,0,0,0,1.9,4.74l6.15,9.46c.43,3.67,1,3.31,1,7.58l3.31,9.94c-.25,4.56-3.12,2.85-7.1,4.26l-13.74-3.32-1.89-1.42-5.21,4.26c-1.63.92-1.8,1.56-3.31,2l-2.84,1h-3.79Z"/></svg>