<?xml version="1.0" encoding="utf-8"?>
<!-- Generator: Adobe Illustrator 21.1.0, SVG Export Plug-In . SVG Version: 6.00 Build 0)  -->
<svg version="1.1" id="Layer_1" xmlns="http://www.w3.org/2000/svg" xmlns:xlink="http://www.w3.org/1999/xlink" x="0px" y="0px"
	 viewBox="0 0 720 638.3" style="enable-background:new 0 0 720 638.3;" xml:space="preserve">
<style type="text/css">
	.st0{fill:url(#SVGID_1_);}
</style>
<title>Artboard 1</title>
<linearGradient id="SVGID_1_" gradientUnits="userSpaceOnUse" x1="0.53" y1="260.073" x2="720.52" y2="260.073" gradientTransform="matrix(1 0 0 -1 0 556.606)">
	<stop  offset="0.12" style="stop-color:#7B4626"/>
	<stop  offset="0.53" style="stop-color:#6C391E"/>
	<stop  offset="0.88" style="stop-color:#6E3B1C"/>
</linearGradient>
<path class="st0" d="M496.5,231.8l7.2,13.1v18.2l-5.9,10.9l-7.9,8l-15.8,4.4l4.6,10.9l4.6,19l6.6,6.6l2,13.9l4-17.5l8.6,11.7
	l4.5,12.4l0.7,8.8l8.6,0.7l4,17.5v14.6l5.3-27.7l4.6,7.3l6.6-13.9l7.9,17.5l2,12.4l8.6-7.3l5.3,6.6l6.5,22.6l5.3-13.9
	c0,0,19.1,10.9,17.1,32.1l4.6,2.2v11.7l3.2-7.2l1.2,10.9l3.7-11.5l7.8,30.4l3.2-21.6l9.5,6c0,0,11.2,24.4,9.5,26.3l1.4-15.8
	l12.2,8.5l4.9,7.7l-0.8,8.8l-0.3,5.5l12.2,15.3l3.7,4.7l6.5,37.9l33.4,30l9.5,23.9l3.7-145.9L719.4-1.1L0.5,1.9
	c0,0,45.1,59,45.8,82.4L49,61.6l6.2,17.1l3.1-37.7l15.3-3.2l2.7,9.7l4.4,10.7L82,77.3c0,0,7.1-12.5,7.3-26.4L91.8,61l13.7-27.2
	c0,0,20.8,28.6,20.4,55.6l2,21.6l2.6,4.8c0,0,5.6-48.8,8.2-49.6l13.7,2.2l17.9,17.3l7.1,20.1l2.2,25.2l4.4-25.6L187,93l6.6-9.1
	l3.6,10.1l2.2,17.3l2.7,14.5l0.7-7.7h2c0,0,2.4-22.2,5.3-25.4l3.1,11.7l0.9-10.5l2,0.4l0.2-6.4l7.3,0.6l1.5,9.3l1.6-8.1l6,14.7
	l2.2,17.8l2.9-17.5l17.5,7.5l3.5,10.3l-1.6,17.5l2-3.4c0,0,0.5,4.4,0.5,3.8s5.1-19.6,5.1-19.6l7.8,2.6l1.3,9.3l1.3,16.1l2.5-19.4
	l9.1,4.6l7.5,22.8l2.7-23.8l2.5,8.7l2.4-11.7l10.4-0.6l6.7,13.7l3.3,19.8l6.9-32.2l5.5,18.6l3.3-20.6c0,0,4.9,25.2,9.5,28.4
	c0,0,7.3,22.8,5.5,25.8l4.2-17.5l3.3-4.6l-0.4-20.6l6-12.9l3.8,5.2l1.5-4.8l4.4,6l2,12.5l4.5-21.4l3.8,1.8l7.6,26.6l0.5,9.9
	l6.9-24.2l2.6,10.4l1.8-11.3l11.5,5.2l5.6,19.6l3.1,21.8l4.4-29.8l4.7,5l0.7,6l4.2,2.6l1.1,9.3l2.9-8.3l3.8,2.2l1.8,13.1l3.3-7
	l8.6,9c0,0-1.6,14,2.4,17.9l2.2,15.8l4.7-24.4l5.6-0.8l5.6,11.2l-0.7,14.4l4.3-15.6l3.1,5.4l-0.5,10.6l1.2,9.4l0.2,13.8l4.3-16
	L496.5,231.8z"/>
</svg>
