<?xml version="1.0" encoding="UTF-8" standalone="no"?>
<svg
   xmlns:dc="http://purl.org/dc/elements/1.1/"
   xmlns:cc="http://creativecommons.org/ns#"
   xmlns:rdf="http://www.w3.org/1999/02/22-rdf-syntax-ns#"
   xmlns:svg="http://www.w3.org/2000/svg"
   xmlns="http://www.w3.org/2000/svg"
   xmlns:sodipodi="http://sodipodi.sourceforge.net/DTD/sodipodi-0.dtd"
   xmlns:inkscape="http://www.inkscape.org/namespaces/inkscape"
   id="Layer_1"
   data-name="Layer 1"
   viewBox="0 0 447.45998 313.22"
   version="1.1"
   sodipodi:docname="cavelayer4.svg"
   width="447.45999"
   height="313.22"
   inkscape:version="0.92.2 (5c3e80d, 2017-08-06)"
   preserveAspectRatio="none">
  <metadata
     id="metadata15">
    <rdf:RDF>
      <cc:Work
         rdf:about="">
        <dc:format>image/svg+xml</dc:format>
        <dc:type
           rdf:resource="http://purl.org/dc/dcmitype/StillImage" />
        <dc:title>Artboard 1</dc:title>
      </cc:Work>
    </rdf:RDF>
  </metadata>
  <sodipodi:namedview
     pagecolor="#ffffff"
     bordercolor="#666666"
     borderopacity="1"
     objecttolerance="10"
     gridtolerance="10"
     guidetolerance="10"
     inkscape:pageopacity="0"
     inkscape:pageshadow="2"
     inkscape:window-width="3840"
     inkscape:window-height="2004"
     id="namedview13"
     showgrid="false"
     fit-margin-top="0"
     fit-margin-left="0"
     fit-margin-right="0"
     fit-margin-bottom="0"
     inkscape:zoom="0.75346402"
     inkscape:cx="223.73"
     inkscape:cy="156.61"
     inkscape:window-x="-16"
     inkscape:window-y="-16"
     inkscape:window-maximized="1"
     inkscape:current-layer="Layer_1" />
  <defs
     id="defs4">
    <style
       id="style2">.cls-1{fill:#d0ad84;}.cls-2{fill:#c99663;fill-rule:evenodd;}</style>
  </defs>
  <title
     id="title6">Artboard 1</title>
  <rect
     class="cls-1"
     x="0"
     y="0.31999999"
     width="447.45999"
     height="312.89999"
     id="rect8"
     style="fill:#d0ad84" />
  <path
     class="cls-2"
     d="m 364.68,138.84 -1,-3.78 -5.72,-9.47 v -4.73 l 3.83,-8.52 c 3.49,1.31 2.86,2 2.86,5.2 l 1.92,11.36 c 0.62,3.16 1.69,1.65 1.93,4.74 l 1.95,6.62 v 1.42 l -5.75,1.9 z M 5.2452087e-8,0 H 447.46 V 313.22 H 5.2452087e-8 v -142 L 2.0000001,170.53 c 3.09,-2.13 2.57,-3.53 4.23,-7.06 L 11.44,148.79 c 0,-4.86 0.53,-9.66 -1,-14.2 L 7.1700001,114.23 c -1,-3.69 -3.07,-4.25 -6.14,-7.1 L 0.03000005,106.35 Z M 234.92,205.19 h 8.52 l 15.13,-5.71 c 0.79,-1.11 2.48,-3 2.37,-4.28 l 5.68,-9.48 c 1.22,-1.83 0.82,-1 0.82,-2.84 l 0.36,-17 v -2.36 l -1.23,-23.73 c 0,-2.48 0.26,-0.54 -0.89,-2.84 L 261.92,116.6 261,113.76 253.38,100 l -5.2,7.16 -3.32,-11.3 h -9.94 l -3.35,-5.71 -18.47,-28.9 -43.53,10.86 c -0.53,1.41 -0.49,2.13 -1.89,2.36 l -22.25,12.31 c -2.84,4.54 -6.29,12.13 -9,15.62 l -11.86,12.3 -3.32,8.52 c -0.43,0.91 -1.89,5.21 -1.89,5.21 l -2.84,7.1 c 0.1,4.13 -1,4.58 -1,8.52 l -0.94,11.36 a 17.52,17.52 0 0 0 -1,2.37 l 0.43,15.14 v 5.68 l 0.52,8.52 c 0.45,1 1.87,5.6 1.91,5.68 l 5.69,11.36 0.47,1.42 13.74,5.21 c 3.2,2 4.7,4.48 7.57,4.26 l 25.1,-2.84 c 2.51,-1.22 6.09,-1.05 10.41,-2.37 l 9.47,-7.1 c 2.55,-1.44 1.7,-1.07 3.31,-3.31 L 198.47,189 c 4.17,-2.87 1.63,-0.89 4.73,-2.37 l 2.37,3.37 c 0.4,1 0.56,2.17 1.42,2.37 l 8.52,2.37 c 2.26,2 0.92,1.57 2.84,3.31 l 5.2,2.84 1.9,1.46 z m 81.45,-8 1.42,-8.56 c 0.62,-0.69 4.17,-4.15 4.73,-5.22 l 1.89,-4.27 c 0.55,-3.92 1,-2.26 1,-7.11 l 1.89,-7.1 c 1.08,-1.08 4.47,-4.61 4.74,-6.16 l 4.26,-7.57 c 3,0 5.23,-0.91 5.68,2.37 l 3.78,8 a 26.91,26.91 0 0 0 1.9,4.74 l 6.15,9.46 c 0.43,3.67 1,3.31 1,7.58 l 3.31,9.94 c -0.25,4.56 -3.12,2.85 -7.1,4.26 l -13.74,-3.32 -1.89,-1.42 -5.21,4.26 c -1.63,0.92 -1.8,1.56 -3.31,2 l -2.84,1 h -3.79 z"
     id="path10"
     inkscape:connector-curvature="0"
     style="fill:#c99663;fill-rule:evenodd" />
</svg>
