<svg id="Layer_1" data-name="Layer 1" xmlns="http://www.w3.org/2000/svg" xmlns:xlink="http://www.w3.org/1999/xlink" viewBox="0 0 720 720"><defs><style>.cls-1{fill:url(#linear-gradient);}</style><linearGradient id="linear-gradient" x1="0.53" y1="378.22" x2="720.52" y2="378.22" gradientUnits="userSpaceOnUse"><stop offset="0.12" stop-color="#7b4626"/><stop offset="0.53" stop-color="#6c391e"/><stop offset="0.88" stop-color="#6e3b1c"/></linearGradient></defs><title>Artboard 1</title><path class="cls-1" d="M496.5,313.53l7.25,13.12v18.22l-5.93,10.93-7.91,8-15.81,4.37,4.61,10.93,4.61,18.95,6.59,6.56,2,13.85,4-17.49,8.57,11.66L509,425l.66,8.75,8.57.73,4,17.49v14.58l5.27-27.7,4.61,7.29,6.59-13.85,7.91,17.49,2,12.39,8.57-7.29,5.27,6.56L569,484.08l5.27-13.85s19.11,10.93,17.13,32.07l4.61,2.19v11.66l3.15-7.21,1.19,10.9,3.74-11.46,7.82,30.45,3.23-21.61,9.52,6s11.21,24.43,9.52,26.31l1.36-15.79,12.23,8.46,4.93,7.71-.85,8.83-.34,5.45,12.17,15.28,3.69,4.66L673.92,622l33.43,30,9.48,23.88L720.52,530,719.38,80.58.53,83.61s45.1,59,45.78,82.38L49,143.32l6.19,17.13,3.1-37.68,15.3-3.22,2.73,9.67,4.37,10.68L82,159s7.11-12.49,7.29-26.4l2.55,10.08,13.66-27.21s20.77,28.62,20.41,55.62l2,21.56,2.55,4.84s5.65-48.77,8.2-49.57l13.66,2.22,17.86,17.33,7.11,20.15,2.19,25.19,4.37-25.59,3.1-12.49,6.56-9.07,3.64,10.08,2.19,17.33,2.73,14.51.73-7.66h2s2.37-22.17,5.28-25.39l3.1,11.69.91-10.48,2,.4.18-6.45,7.29.6,1.46,9.27,1.64-8.06,6,14.71L234.89,204l2.92-17.53,17.49,7.46,3.46,10.28-1.64,17.53,2-3.43s.55,4.43.55,3.83,5.1-19.55,5.1-19.55l7.83,2.62,1.28,9.27,1.28,16.12,2.55-19.35,9.11,4.63,7.47,22.77L297,214.86l2.55,8.67,2.37-11.69,10.39-.6,6.74,13.7,3.28,19.75,6.92-32.24L334.73,231,338,210.42s4.92,25.19,9.47,28.41c0,0,7.29,22.77,5.47,25.79l4.19-17.53,3.28-4.63-.36-20.56,6-12.9,3.83,5.24,1.46-4.84,4.37,6,2,12.49,4.55-21.36,3.83,1.81,7.65,26.6.55,9.87,6.92-24.18L403.79,231l1.82-11.29,11.48,5.24,5.65,19.55,3.1,21.76,4.37-29.83,4.74,5,.73,6,4.19,2.62,1.09,9.27,2.92-8.26,3.83,2.22,1.82,13.1,3.28-7.05,8.64,9s-1.56,14,2.43,17.86L466.12,302l4.69-24.39,5.56-.77L481.92,288l-.69,14.4,4.34-15.56,3.13,5.38-.52,10.56,1.22,9.41.17,13.83L493.9,310Z"/></svg>