<svg id="Layer_1" data-name="Layer 1" xmlns="http://www.w3.org/2000/svg" xmlns:xlink="http://www.w3.org/1999/xlink" viewBox="0 0 450.32 712.04"><defs><style>.cls-1{fill:#d0ad84;}.cls-1,.cls-2,.cls-3,.cls-5{fill-rule:evenodd;}.cls-2{fill:#2c2219;}.cls-3{fill:#c99663;}.cls-4{fill:url(#linear-gradient);}.cls-5{fill:url(#linear-gradient-2);}</style><linearGradient id="linear-gradient" x1="225.5" y1="491.67" x2="225.5" y2="712.04" gradientUnits="userSpaceOnUse"><stop offset="0" stop-color="#2c2219"/><stop offset="1" stop-color="#120903"/></linearGradient><linearGradient id="linear-gradient-2" x1="224.56" y1="-2.6" x2="224.56" y2="145.62" gradientUnits="userSpaceOnUse"><stop offset="0.11" stop-color="#3a2010"/><stop offset="1" stop-color="#2c2219"/></linearGradient></defs><title>Artboard 1</title><path class="cls-1" d="M0,179.36H192.62l-44.26,5.14L97.83,202.58,75.91,218.76,73,221.6l-16.2,23.84-7.63,51.5,5.72,23.85L44.45,337l6.68,21.93,11.44,11.45L73,387.55l10.48,21,8.58,21L104.5,440l23.83,7.63,25.73-4.77,28.59,10.49,24.78,1.92L236,462.9l21,5.82,20-.86H299.9L336.11,464l17.16,10.44,28.59,10.48,18.81,9.71H0V429.95l9.17-11.87,3.63-14.31,4.57-16.22V370.38l-4.6-19.07,5.88-20V313.15l-4.83-11.45V276.91l-3.77-19.07L0,243.83Zm339.93,0H450v46l-11.13-8.58-16.13-12.4-2.82-.95-14.28-1.92-9.53,7.64-9.53-13.36-14.29-.95-7.62,7.63-10.48-17.05Z"/><path class="cls-2" d="M0,179.66H152.18l-7,2.88-26.69,7.57-8.81,4.26L98,199.82l1.43-9.29,5-5.48-6.91,3.09-3.82,8.34-9.54,5.24-.71.24-8.58,13.34L66,223.63l-.72.47-9.24,14.78-1.38-10.24v-.72l2.81-17.86L54,191l1.48,18.58-6.64,15.49,1,13.82L53.39,246l-1.66,14.29-3.58,7.86-6,33.36,3.1-5.48,4.53,14.53-4.53,19.77-2.86-4.77-5.23-16.43-2.86-11.67,2,17.39,5.81,23.34v10.73l5.63,10.71,10.08,12.86-.44,10L60.29,388a17.5,17.5,0,0,1,.25,2.39l2.63,13.34,1.2-7.15-1.19-19.29,10,17.62,4.76,18.82,11.91,17.15,2.86,6.91,11.2,3.33,4.53,5,14.3,2.37-23.58,6.44,29.79-2.86,12.38-4.76,14.54-1.43,28.35,11.91L159,464,73.65,475.2l-34.55-20L17.89,396.11l1.19-12.63-.24-13.1-3.1-21,3.81-16.92,1.19,4.05L20,313.44l-2.39-8.1-3.1-19.53.71-15.49L10.5,234.11l.46,22.4L0,242.62Zm347.83,0,4.24,3,3.82,1.61.72-2.89,4,11.18,5.25,6.18,5.25-4.29,5.75-.95,6.23-2.86V185.4l10.21,14.06,4.87,5,5.53-4.29,6.93.72,12.17-.48-1.19-3.33,9.15,10L450,222.37V179.66Z"/><path class="cls-1" d="M198.44,180.76s59.74-12,149.15.43l15.38-2S241,123,157.46,176.14L136.28,186.4Z"/><path class="cls-2" d="M152.18,179.66s132.82-21.23,195.66,0H450l-.4-60L-1.67,107.43,0,179.66Z"/><polygon class="cls-3" points="0 366.97 7.32 369.44 27.36 412.52 45.49 429.08 54.08 448.97 83.14 463.65 117.45 461.75 139.85 455.63 161.76 460.39 164.15 460.39 192.74 442.85 194.64 442.41 211.32 439.61 213.22 439.61 227.99 432.93 241.34 434.32 262.29 450.88 300.89 456.55 302.32 456.55 330.43 451.76 331.86 451.76 361.88 440.9 371.41 417.71 387.14 412.52 399.04 381.28 403.81 380.33 411.44 389.32 422.39 389.8 424.3 371.81 434.31 356.66 436.21 334.88 443.79 333.46 450.26 354.63 450.26 494.58 0 494.58 0 366.97"/><polygon class="cls-2" points="450.26 356.53 450.26 494.58 0 494.58 0 369.67 7.72 370.86 15.12 395.25 15.12 400.21 15.12 401.16 25.9 414.65 21.88 416.3 31.2 419.14 44.31 430.27 43.12 435.72 50.5 449.68 40.26 449.45 36.69 445.66 24.54 444.95 36.7 447.55 43.36 452.29 56.46 453.96 81.48 464.86 73.86 464.86 67.89 467.44 66.71 468.02 54.08 471.89 42.65 471.89 55.99 474.16 76.72 467.96 93.39 468.17 118.64 462.71 136.75 461.52 148.9 458.44 164.15 461.51 157 466.53 153.66 468.7 142.47 468.7 151.28 472.21 161.29 470.29 162.24 465.79 175.1 455.6 194.4 448.97 198.93 443.05 211.56 441.4 216.32 442.35 227.51 434.3 240.02 436.67 250.86 450.15 250.86 458.2 256.7 464.83 255.33 458.91 261.79 453.71 271.34 461.04 275.15 469.33 288.02 475.01 279.93 469.1 275.64 462.7 281.6 458.67 298.51 458.44 307.56 459.39 331.39 453.94 329.72 458.44 321.38 463.17 330.2 459.86 337.11 455.36 347.59 453.94 362.12 443.29 358.31 458.44 356.4 462.23 349.74 463.88 340.2 471.22 347.82 467.43 359.98 461.75 366.64 451.57 370.46 430.75 379.27 417.72 387.61 414.18 385.47 426.25 377.84 440.21 383.32 433.35 390.94 417.97 398.57 386.73 402.86 383.64 410.48 390.51 417.39 393.11 421.44 392.88 419.06 407.78 415.49 416.79 410.72 424.82 406.91 438.56 401.9 447.08 399.04 456.55 387.85 467.08 382.13 469.33 381.18 469.33 368.32 478.28 367.36 478.28 359.74 481.14 346.63 487.55 337.11 489.68 336.39 489.92 344.02 489.21 355.69 484.47 372.12 477.37 378.56 475.01 382.13 472.64 391.9 464.83 405 455.13 408.34 443.05 413.81 434.06 416.92 436.67 421.21 429.8 423.58 419.86 428.11 414.65 430.87 422.23 428.39 433.11 428.39 450.87 430.39 440.45 429.73 431.22 432.37 422.46 429.77 412.04 426.2 408.26 425.24 393.83 430.49 385.06 430.25 370.62 435.97 356.42 438.83 340.1 443.08 335.6 450.26 356.53"/><rect class="cls-4" x="0.69" y="491.67" width="449.63" height="220.37"/><polygon class="cls-5" points="0.35 2.82 -0.89 144.13 450 145.62 450 -2.6 0.35 2.82"/></svg>