<svg id="Layer_1" data-name="Layer 1" xmlns="http://www.w3.org/2000/svg" viewBox="0 0 450.32 313.22"><defs><style>.cls-1{fill:#b27e4e;fill-rule:evenodd;}</style></defs><title>Artboard 1</title><path class="cls-1" d="M111.28,203.4l-5.68-30.29,1-23.65,1.89-39.76,10.42-9.47,19.89,10.41.94,14.2-1.89,18.94,7.57,19.88-2.84,32.18L136.85,210c-3.57,1.12-2.51.92-5.68.92h-7.57ZM1.43,0H448.89V313.22H1.43V214.1l8.46,3.53c4.83,1.5,4.53.32,8.56,3.78l22.75-2.84c6-3.18,6-3.89,9.48-9.46l6.63-7.58,2.84-3.78L72.45,182.6l5.68-32.19c0-3.4.67-4.06-1-5.68l-3.82-8.52-1-3.78V122l-3.75-9.46L52.55,91.71,32.67,89.82,25.1,99.31,11.84,95.56H8.06L1.43,97.45ZM406,87.89H400V91l-1.92,9v1.89l1.85,3.79,1.88-1,2.35-6.15,1.42-5.82ZM204.09,204.37l-15.16-12.3-8.58-18-8.58-18v-18l6.71-14.2,5.76-7.58v-2.84L196.53,93.6,199.36,104l3.79,8.52,1.89-9.47,4.74-5.68.94-8.52,7.58-9.47L221.14,87l.94,5.68,1-9.47,5.68-3.79,6.63-6.62c4.37-1.46,2.43-.55,5.68-3.79l3.78-4.73,2.84-4.74,4.74-10.41,14.21-3.79,12.3,1,11.36-1.89,21.79.94L322.43,51l5.65,8.52V72.78l2-5.66h6.63l7.57,11.51H359.4L364.13,89c1.72,5.17,1.9,2,1.9,5.64l4.73,7.55c1.11,3.57,1,2.51,1,5.67l-3.79,9.47,5.68,18,1,2.84L372.82,157v3.79l-2.92,9.46L367,175l-2.86,12.3c-1.55,3.37-2.93,7.88-5.69,10.42l-14.21,7.57c-4.66,1.45-4.55,1-9.47,1l-24.63-1.9c-5.11-.16-3.74,0-7.57,3.79l-11.36,9.47-2.84,1-20.84-.93h-2.84l-20.83-3.84h-3.79l-13.25,1.92H224l-7.58-2.84Z"/></svg>