<?xml version="1.0" encoding="UTF-8" standalone="no"?>
<svg
   xmlns:dc="http://purl.org/dc/elements/1.1/"
   xmlns:cc="http://creativecommons.org/ns#"
   xmlns:rdf="http://www.w3.org/1999/02/22-rdf-syntax-ns#"
   xmlns:svg="http://www.w3.org/2000/svg"
   xmlns="http://www.w3.org/2000/svg"
   xmlns:sodipodi="http://sodipodi.sourceforge.net/DTD/sodipodi-0.dtd"
   xmlns:inkscape="http://www.inkscape.org/namespaces/inkscape"
   id="Layer_1"
   data-name="Layer 1"
   viewBox="0 0 449.99999 323.8"
   version="1.1"
   sodipodi:docname="cavelayer2.svg"
   width="450"
   height="323.79999"
   inkscape:version="0.92.2 (5c3e80d, 2017-08-06)"
   preserveAspectRatio="none">
  <metadata
     id="metadata13">
    <rdf:RDF>
      <cc:Work
         rdf:about="">
        <dc:format>image/svg+xml</dc:format>
        <dc:type
           rdf:resource="http://purl.org/dc/dcmitype/StillImage" />
        <dc:title>Artboard 1</dc:title>
      </cc:Work>
    </rdf:RDF>
  </metadata>
  <sodipodi:namedview
     pagecolor="#ffffff"
     bordercolor="#666666"
     borderopacity="1"
     objecttolerance="10"
     gridtolerance="10"
     guidetolerance="10"
     inkscape:pageopacity="0"
     inkscape:pageshadow="2"
     inkscape:window-width="3840"
     inkscape:window-height="2004"
     id="namedview11"
     showgrid="false"
     fit-margin-top="0"
     fit-margin-left="0"
     fit-margin-right="0"
     fit-margin-bottom="0"
     inkscape:zoom="0.72884499"
     inkscape:cx="225.02"
     inkscape:cy="161.90002"
     inkscape:window-x="-16"
     inkscape:window-y="-16"
     inkscape:window-maximized="1"
     inkscape:current-layer="Layer_1" />
  <defs
     id="defs4">
    <style
       id="style2">.cls-1{fill:#69432e;fill-rule:evenodd;}</style>
  </defs>
  <title
     id="title6">Artboard 1</title>
  <path
     class="cls-1"
     d="M 0,0 H 450 V 323.8 H 75.1 l 61.81,-9.8 41.95,-12.74 14.29,-5.87 h 19.01 l 32.38,-17.67 36.2,1.93 24.76,-9.8 53.36,-7.85 28.57,-9.79 24.77,-2 11.43,-7.83 8.57,-44 -7.65,-28.38 -7.62,-13.7 -1.9,-35.24 -1.91,-21.54 -8.57,-22.52 -9.52,-7.83 -7.63,4.89 -1.9,-11.75 -4.76,2 L 377.86,76 375,60.35 l -6.67,5.87 -1.9,-10.77 -14.26,-9.75 -10.48,-10.77 -12.37,2 -8.57,8.81 -4.77,-4.94 -5.71,5.83 h -4.76 l -6.65,6.85 -7.62,-2.92 -9.53,-1 -21.9,-12.71 -4.76,-8.81 -21.91,-5.87 -24.76,-1 -9.52,11.83 -10.47,3.92 c -5.64,0 -7.14,1.63 -13.33,2.94 l -6.67,1 -12.43,7.78 -15.23,24.46 -15.25,3.9 -8.57,13.7 -21,15.66 -12.33,15.64 -1.91,-7.84 -8.57,-4.89 -4.76,-7.83 -12.39,2 -0.94,11.75 -9.53,-25.45 -1,-2.94 -20.95,-4.9 -18,2 L 0,88.78 Z"
     id="path8"
     inkscape:connector-curvature="0"
     style="fill:#69432e;fill-rule:evenodd" />
</svg>
