<?xml version="1.0" encoding="utf-8"?>
<!-- Generator: Adobe Illustrator 21.1.0, SVG Export Plug-In . SVG Version: 6.00 Build 0)  -->
<svg version="1.1" id="Layer_1" xmlns="http://www.w3.org/2000/svg" xmlns:xlink="http://www.w3.org/1999/xlink" x="0px" y="0px"
	 viewBox="0 0 353 246.1" style="enable-background:new 0 0 353 246.1;" xml:space="preserve">
<style type="text/css">
	.st0{fill-rule:evenodd;clip-rule:evenodd;fill:#B0DFE5;}
</style>
<path class="st0" d="M51.5,115.8c6.4,0,12.5,1.4,17.9,4c4.3-9.2,14.8-16.1,27.7-17.9c-0.1-0.7-0.1-1.4-0.1-2.1c0-16,15.2-29,34-29
	c5.4,0,10.5,1.1,15,3c5.7-13.9,22.4-24,42.2-24c20.9,0,38.4,11.2,43.1,26.4c0.2,0,0.3,0,0.5,0c15.7,0,28.5,12.4,28.5,27.8
	c0,1.5-0.1,3-0.4,4.5c0.9,0.9,1.7,1.8,2.5,2.9c4-2,8.6-3.1,13.4-3.1c14.3,0,26.1,9.6,28.5,22.3c3.3-1.7,7.1-2.7,11-2.7
	c14.3,0,25.9,12.8,25.9,28.5s-11.6,28.5-25.9,28.5c-5.4,0-10.4-1.8-14.5-4.9c-3.8,5-9.9,8.2-16.9,8.2c-2.3,0-4.5-0.4-6.6-1
	c-5.8,7.3-14.7,12-24.6,12c-10.1,0-19.1-4.9-24.9-12.5c-4.8,3-10.4,4.8-16.5,4.8c-5.6,0-10.8-1.5-15.3-4.1
	c-4.6,2.6-9.9,4.1-15.6,4.1c-7.9,0-15-2.8-20.5-7.5c-5.7,5.2-13.5,8.5-22.2,8.5c-6.5,0-12.5-1.8-17.5-5c-5.3,3-11.7,4.8-18.6,4.8
	c-6.3,0-12.3-1.5-17.3-4.1c-4.9,2.6-10.6,4.1-16.7,4.1c-2.6,0-5.1-0.3-7.5-0.8c-2.8,0.6-5.8,0.9-8.8,0.9
	c-22.2,0-40.2-17.2-40.2-38.3C11.3,132.9,29.3,115.8,51.5,115.8z"/>
</svg>
