<?xml version="1.0" encoding="UTF-8" standalone="no"?>
<!-- Generator: Adobe Illustrator 21.1.0, SVG Export Plug-In . SVG Version: 6.00 Build 0)  -->

<svg
   xmlns:dc="http://purl.org/dc/elements/1.1/"
   xmlns:cc="http://creativecommons.org/ns#"
   xmlns:rdf="http://www.w3.org/1999/02/22-rdf-syntax-ns#"
   xmlns:svg="http://www.w3.org/2000/svg"
   xmlns="http://www.w3.org/2000/svg"
   xmlns:sodipodi="http://sodipodi.sourceforge.net/DTD/sodipodi-0.dtd"
   xmlns:inkscape="http://www.inkscape.org/namespaces/inkscape"
   version="1.1"
   id="Layer_1"
   x="0px"
   y="0px"
   viewBox="0 0 703.79999 205.29858"
   preserveAspectRatio="none"
   xml:space="preserve"
   sodipodi:docname="clouds.svg"
   width="703.79999"
   height="205.29858"
   inkscape:version="0.92.2 (5c3e80d, 2017-08-06)"><metadata
     id="metadata132"><rdf:RDF><cc:Work
         rdf:about=""><dc:format>image/svg+xml</dc:format><dc:type
           rdf:resource="http://purl.org/dc/dcmitype/StillImage" /><dc:title>Artboard 1</dc:title></cc:Work></rdf:RDF></metadata><defs
     id="defs130" /><sodipodi:namedview
     pagecolor="#ffffff"
     bordercolor="#666666"
     borderopacity="1"
     objecttolerance="10"
     gridtolerance="10"
     guidetolerance="10"
     inkscape:pageopacity="0"
     inkscape:pageshadow="2"
     inkscape:window-width="3840"
     inkscape:window-height="2004"
     id="namedview128"
     showgrid="false"
     fit-margin-top="0"
     fit-margin-left="0"
     fit-margin-right="0"
     fit-margin-bottom="0"
     inkscape:zoom="0.91805556"
     inkscape:cx="357.2"
     inkscape:cy="92.298584"
     inkscape:window-x="-16"
     inkscape:window-y="-16"
     inkscape:window-maximized="1"
     inkscape:current-layer="Layer_1" /><style
     type="text/css"
     id="style2">
	.st0{fill:url(#path4598_1_);}
	.st1{fill:url(#path4625_1_);}
	.st2{fill:#9CC4EB;}
	.st3{fill:url(#path4546_1_);}
	.st4{fill:url(#path4570_1_);}
	.st5{fill:url(#path4580_1_);}
	.st6{fill:#E5D9DE;}
	.st7{fill:#FFFFFF;}
	.st8{fill:url(#path4285_1_);}
	.st9{fill:url(#path4195_1_);}
	.st10{fill:url(#path4269_1_);}
	.st11{fill:url(#path4305_1_);}
	.st12{fill:url(#path4317_1_);}
	.st13{fill:url(#path4281_1_);}
	.st14{fill:url(#path4499_1_);}
	.st15{fill:url(#path4507_1_);}
	.st16{fill:url(#path4167_1_);}
	.st17{fill:url(#path4169_1_);}
	.st18{fill:url(#path4186_1_);}
	.st19{fill:#D9E3EC;}
	.st20{fill:url(#path4203_1_);}
	.st21{fill:url(#path4213_1_);}
	.st22{fill:url(#path4235_1_);}
</style><title
     id="title4">Artboard 1</title><linearGradient
     id="path4598_1_"
     gradientUnits="userSpaceOnUse"
     x1="436.5831"
     y1="420.46341"
     x2="246.0631"
     y2="583.96338"
     gradientTransform="matrix(0.78,0,0,0.98,65.89,-368.4414)"><stop
       offset="0"
       style="stop-color:#FCE2E2"
       id="stop6" /><stop
       offset="0.37"
       style="stop-color:#FEE5C3"
       id="stop8" /><stop
       offset="1"
       style="stop-color:#AACCEB"
       id="stop10" /></linearGradient><path
     id="path4598"
     class="st0"
     d="M 39.1,0 C 36.9,1.5 35.1,3.5 33.7,5.9 31.4,7.2 29.4,9 28,11.1 19,7 9.6,5.2 0,7.3 V 201 c 10.8,2.8 22.3,1.3 32,-4.2 2.2,-0.3 3.8,-3.7 5,-4.8 9,5.3 19.2,4.3 28.5,2.4 3.7,-3 7.9,-3.5 12.1,-4.8 4.7,5.5 10.3,4.3 16.4,4.8 4.7,0.9 8.1,-1.4 12.1,-3.2 105.9,2.1 226.2,23.2 329,0 47.5,0 225.8,26.8 268.7,6.5 -2,-11.2 -6,-15.6 -16.4,-16.9 -3.7,-10.6 -10,-16.1 -21.4,-14.5 -3.5,-5.3 -4.5,-7.2 -11.4,-7.2 0.3,-4 1.1,-9.3 1.4,-13.7 -5.2,-5.9 -9.8,-15.9 -17.8,-17.7 0.4,-5 -2.3,-11 -5.8,-15.8 -4.8,-3 -6.7,-4.9 -14.9,-4.4 -3,-1.4 -6.9,-1.3 -13.3,1.1 -3.5,-5.3 -8,-9.9 -15,-8.5 -1,-9.3 -22.6,-13.4 -33.2,2.4 -2.8,-26.4 -32.8,-25.2 -37,-13.5 -1.3,-4.6 -6.5,-38.8 -65.4,-26 -4.7,-0.9 -12.1,-3.4 -17.8,1.6 -2.7,-3.4 -5.1,-8.5 -9.3,-10.5 3.4,-2.5 6.7,-1.3 6.4,-8 -15,-7.8 -28.2,-14.2 -44.9,-8.9 v -6.4 c -5.2,-1.6 -10.2,-4.4 -16.4,-0.8 -3,-2.4 -5.6,-7 -10.7,-6.4 -4.8,0.9 -9.4,0.8 -13.5,4.8 C 329.8,16.8 311.4,12.8 291.1,16.3 280.9,7.2 266.3,5.3 254.1,11.5 249.6,8.7 245.2,5.4 240.6,2.6 233.3,1.9 226.5,0.3 220,5 213.6,3.6 210,2 204.3,8.2 c -5,-1.8 -9.8,-4.1 -14.4,-6.7 0.6,-0.5 1.2,-1 1.8,-1.5 v 0 z"
     inkscape:connector-curvature="0"
     style="fill:url(#path4598_1_)" /><linearGradient
     id="path4625_1_"
     gradientUnits="userSpaceOnUse"
     x1="198.8685"
     y1="-238.15559"
     x2="576.49847"
     y2="-268.29559"
     gradientTransform="matrix(1.02,0,0,1.09,-8.4,400.1913)"><stop
       offset="0"
       style="stop-color:#A8CBED"
       id="stop14" /><stop
       offset="1"
       style="stop-color:#EFDBDB"
       id="stop16" /></linearGradient><path
     id="path4625"
     class="st1"
     d="m 188.5,67.4 c -1.1,-0.1 -2.1,-0.1 -3.2,0 -2.6,3.8 -2.6,12.2 -10.1,14.8 -10.4,4.5 -18.8,8.3 -30.2,6.7 -7.5,-3.6 -15.1,-3.6 -20.2,-13.4 -5.5,5.4 -12.9,6.6 -16.4,16.1 C 97.5,90.5 85.5,91.4 76.9,83.5 69.2,84 58.7,88.1 50.4,79.5 34.5,84.3 15.1,91.8 0,85.4 v 116 c 14.2,3.1 29,1.5 42.2,-4.7 2.9,-0.4 5,-4.1 6.6,-5.4 11.9,5.9 25.3,4.8 37.5,2.7 4.9,-3.3 10.4,-3.9 15.9,-5.4 6.2,6.1 13.6,4.8 21.6,5.4 6.2,1 10.7,-1.6 15.9,-3.6 62.4,1.1 128.6,6.3 194.9,9.5 12.6,-6.4 22.4,-12.6 28.4,-18.3 11.3,2 19.6,3.4 30.9,12.8 16.8,-0.5 30.3,-1.6 41,-14.1 6.1,-2.3 11.6,-1.8 17.6,-6.7 1.3,7.4 -4.6,7.6 2.5,14.8 12.7,1 18.9,1.8 21.6,2.1 -3.3,-0.7 -9.3,-2.6 -0.8,-6.1 14.7,0 16.9,1.2 20.8,-12.1 11.6,-2.3 18.8,-7.4 29,5.4 17.5,1.7 29.2,-4.8 40.3,-21.5 8,1.7 15.2,3.8 24,-4 -2.8,-12.1 -4.8,-24 -15.1,-32.2 -9.3,0.9 -17.5,0.6 -25.2,8.1 -7.2,-3.4 -12,-2.7 -15.1,-12.1 -12.7,10.1 -27.3,17.5 -39.1,1.3 -8.3,-1.8 -18,-4.8 -27.7,-1.3 -1.5,-8.1 -1.2,-14.9 -8.8,-17.5 -8.6,-0.8 -15.8,-2.3 -23.9,4 -6.5,-9.3 -10.3,-15.7 -25.2,-14.8 -3,-0.5 -7.1,-7.4 -15.1,-2.7 -1.1,0.9 -14.4,-3.2 -10.1,8.1 -14.1,1.5 -26.3,4.7 -22.7,22.9 -4,1.3 -8.8,1.1 -12.6,4 -2.5,-3.3 0.4,-6.7 -6.3,-8.1 -3.6,2.4 -10.3,-3.8 -10.1,6.7 -8.7,-0.8 -18,0.5 -24,-6.7 -2.4,-4.7 -0.5,-12 -7.6,-14.8 -11.3,-2.2 -22.9,-5 -34,0 -7.2,5.1 -14,8.7 -22.7,10.8 -19.4,-1.6 -40,-9.3 -37.8,-33.6 -4.9,-2.3 -11,-6.4 -18.3,-6.9 z"
     inkscape:connector-curvature="0"
     style="fill:url(#path4625_1_)" /><path
     id="path4892"
     class="st2"
     d="m 82.6,39 c -3,0.1 -6,0.7 -8.8,1.7 C 66.6,44.3 49.1,32.9 53.2,51 48.1,56.1 45.9,60.4 37.7,66.4 33.9,61.8 37,50.3 24.8,51 12.6,57 5,60 0,64.9 v 49.4 c 27,42 96.3,-15.2 154,13.5 4.8,-7.6 11.3,-9.3 12.9,-20.5 -13,-4.3 -20.2,3.8 -31,-10.2 -5.2,-3.7 -18.9,1 -18.1,-12.8 8.6,-3.8 11.3,-10.1 23.2,-10.2 -8.6,-2.6 -16.9,-8.8 -25.9,-7.7 3.4,-5.1 8.1,-9.6 10.3,-15.4 -5.2,-0.9 -10.5,-1.2 -15.5,-2.6 C 104,46.6 94.6,38.7 82.6,39 Z"
     inkscape:connector-curvature="0"
     style="fill:#9cc4eb" /><g
     id="g9845"
     transform="translate(-2.8)"><linearGradient
       id="path4546_1_"
       gradientUnits="userSpaceOnUse"
       x1="533.67938"
       y1="439.98969"
       x2="560.77948"
       y2="388.03979"
       gradientTransform="matrix(1.17,0,0,1.02,-49.78,-383.9586)"><stop
         offset="0"
         style="stop-color:#A5BCD5"
         id="stop21" /><stop
         offset="1"
         style="stop-color:#FFFFFF"
         id="stop23" /></linearGradient><path
       id="path4546"
       class="st3"
       d="m 507.6,0 c -0.1,0.2 -0.1,0.3 -0.1,0.5 -21.4,43.3 38.1,44.5 69.7,40.2 9,2.5 18.9,2.6 27.5,1.9 5.3,5.8 19.7,4.5 26.7,1.4 3.4,7.4 14.8,5.7 18.6,0.2 3.6,-1.3 0.8,-1.9 3.4,-0.8 5.9,2.7 11.5,5.9 20.5,2.2 31.7,-3.2 25.2,-13.5 14.7,-17.7 -3.9,-13 -27.5,-5.2 -31.5,-6.9 4.9,0.3 13.3,-2 15.9,-6.4 9.1,-2.9 -0.9,-9.8 -8.4,-8.6 -1.5,-3 -4.6,-4.6 -8.2,-5.8 h -19.2 c -1.2,0.5 -2.5,0.5 -3.8,0 h -37.2 c 0.1,1 0.4,2 1,2.9 -3.6,-0.6 -6.4,-0.9 -10,1.2 C 584.1,3.6 580.9,3.5 577.8,3.8 573.6,2 569.1,1.2 564.6,1.6 564.3,1.1 564,0.7 563.7,0.2 Z"
       inkscape:connector-curvature="0"
       style="fill:url(#path4546_1_)" /><linearGradient
       id="path4570_1_"
       gradientUnits="userSpaceOnUse"
       x1="577.80878"
       y1="415.20059"
       x2="578.88892"
       y2="402.64059"
       gradientTransform="matrix(1.17,0,0,1.02,-46.48,-386.1286)"><stop
         offset="0"
         style="stop-color:#B5C8DD"
         id="stop27" /><stop
         offset="1"
         style="stop-color:#EFF3F7"
         id="stop29" /></linearGradient><path
       id="path4570"
       class="st4"
       d="m 598,29 c 6.4,3.9 14.4,2.2 21.5,0 1.9,-1.8 3.9,-3.6 6.1,-5.1 0.5,5.9 6.2,4.8 11.7,4.4 2.4,-0.1 4.5,-1.5 6.1,-2.2 0.5,5.1 6,5.3 11.2,5.9 2.9,0.6 33.9,10.6 40.2,1.3 0.7,13.6 -22.6,9.5 -22.6,9.5 -10.9,8 -23.8,-5.1 -24.1,-5.3 -0.9,8.1 -6.7,11 -15.9,11 -9.1,-1.5 -16.6,3.6 -24.8,1.5 -9.9,-8.6 -33,3.3 -35.1,-12.5 -4,-2.2 -6.5,-6.4 -6.5,-11 9.5,5.4 25.8,7.6 32.2,2.5 z"
       inkscape:connector-curvature="0"
       style="fill:url(#path4570_1_)" /><linearGradient
       id="path4580_1_"
       gradientUnits="userSpaceOnUse"
       x1="578.74438"
       y1="388.75021"
       x2="581.08441"
       y2="378.79031"
       gradientTransform="matrix(1.17,0,0,1.02,-48.55,-386.8086)"><stop
         offset="0"
         style="stop-color:#DEE6EF"
         id="stop33" /><stop
         offset="1"
         style="stop-color:#F5F7FA"
         id="stop35" /></linearGradient><path
       id="path4580"
       class="st5"
       d="m 645.7,8.3 c 1.6,0.5 6.3,1.4 7.9,3.8 4.7,-0.1 9.4,-0.6 13.9,-1.6 -4,5.2 -9.8,7.4 -16.4,9.1 -3.8,-1.9 -8.8,-5 -13.6,-5.6 -2.5,0.2 -9.1,0.4 -12.9,1.6 -1.7,-1 -3.5,-1.8 -5.4,-2.5 -3.7,-0.3 -7.5,0.5 -11.4,0.6 -1.9,-0.9 -2.9,-2.2 -5.7,-1.9 -1.6,-1.3 -6.8,-6.1 -12.5,-2.8 3.7,-5.7 14.1,-4.4 19.3,-1.9 3.7,-2.5 8.1,-3.8 12.5,-3.8 5.1,-0.5 10.1,0 15.4,0 3.8,-0.2 7.2,3.3 8.9,5 z"
       inkscape:connector-curvature="0"
       style="fill:url(#path4580_1_)" /><path
       id="path4812"
       class="st6"
       d="m 415,95.6 c -1.7,-12.2 5,-25.7 24.1,-19.4 7.6,-21 26.6,-9.2 30,-4 15.6,-6 24.6,6.6 22.3,13.3 11.5,-7.9 21.8,4 24.3,17.7 -14,-10.8 -18.2,-6.6 -40.6,-1.3 C 469.3,74.6 435.4,91.2 415,95.6 Z"
       inkscape:connector-curvature="0"
       style="fill:#e5d9de" /><path
       id="path4174"
       class="st7"
       d="m 407,0 c -4.1,2.7 -4.8,6.5 -6.5,11.8 -7.5,8.2 -4.9,9.4 -0.4,14.1 4.1,-1.2 5.9,2.6 7.4,3.3 -3.1,7.3 -0.6,8.4 2.8,13 6.3,1.2 12.5,2.2 19.2,0.2 10.4,2.1 18.8,4.7 28.9,3.7 6.8,2.6 14.2,3.2 21.4,1.8 8.5,6 11.2,7 21.9,5.2 10.4,8.2 18.5,10 32.3,8.7 4.2,-1.6 2.9,-4.7 4.4,-7 8.7,2.8 17.1,4.6 25.3,0.1 6.6,4.2 11.3,2.2 16.8,1.4 -0.9,-4 2.6,-5.7 3.8,-8.4 3.4,1.4 7.1,1 10.6,1.6 2.2,9.8 14.6,-10.1 25.5,-13.4 -0.1,-6.9 -8.1,7.8 -14.6,2.9 -4.5,-7.1 -12.9,-12.6 -20.4,-4.4 -0.1,0.1 -6.2,3.7 -8.2,6 -2.3,-2.4 -8.2,-0.9 -7.8,-8 7.1,0 7.8,2.3 8.9,-5.3 -3,-4.1 -7,-10.7 -16.8,-10.1 -3.8,1.8 -8.8,3.6 -9.8,7.3 -1.4,-1.2 -2.5,-2.9 -4.3,-3.7 -8.9,-0.7 -16.7,-0.9 -22.6,3.5 -6,-2.9 -12.2,-7.3 -21.1,-5.1 3.8,-5 7.2,-6.2 -1.6,-8.9 C 500.9,7.8 498.7,3 496,0.2 h -7.9 c -0.5,0.7 -1,1.4 -1.5,2.1 -0.9,-0.7 -1.9,-1.4 -2.9,-2.1 z"
       inkscape:connector-curvature="0"
       style="fill:#ffffff" /><linearGradient
       id="path4285_1_"
       gradientUnits="userSpaceOnUse"
       x1="544.45538"
       y1="362.1803"
       x2="429.47549"
       y2="361.39029"
       gradientTransform="matrix(1.17,0.1,-0.08,1.02,-132.6956,-366.1786)"><stop
         offset="0"
         style="stop-color:#E4EDF4"
         id="stop41" /><stop
         offset="1"
         style="stop-color:#A7C3DA"
         id="stop43" /></linearGradient><path
       id="path4285"
       class="st8"
       d="m 497.4,64.9 c -8.9,3 -16,7.7 -25,2 -9.3,0.7 -17.1,-0.6 -23.5,6.9 -6.2,2.4 -9,4.7 -16.7,1.8 -3.1,1.1 -8.7,3.9 -13.2,4.5 -8.2,-0.7 -12.6,-1 -15.8,-8.5 l -14.5,-1.2 c -6.4,-0.5 -11,-0.2 -16.1,-4.5 -0.4,-1.1 -8.6,-2.3 -2.3,-5.8 l -8.2,-0.7 c -9.4,-0.8 -14.4,0.8 -15.7,-7.2 -7.1,3.3 -17.2,-0.4 -15.6,-4.4 -10,4.9 -19.4,-8.8 -6.3,-13 4.7,-4 11,-4.5 20.6,-2.5 5.9,-3.8 7.5,-5.3 15,-4.4 4,-2.6 -0.1,-8.8 9.7,-6.4 5.8,-2.5 7,2.3 9.8,3.2 8.2,-1.3 16.3,-0.4 23.9,-0.4 5,2.8 6.8,8.6 8.2,11.9 8.9,-1.5 17,-0.2 25.6,1.3 3.6,4.4 9.7,6.5 13.1,8.3 15.3,-4.3 30.8,-1.3 41,4.2 15.9,2.5 28.4,12.9 6,14.9 z"
       inkscape:connector-curvature="0"
       style="fill:url(#path4285_1_)" /><linearGradient
       id="path4195_1_"
       gradientUnits="userSpaceOnUse"
       x1="549.73651"
       y1="333.51221"
       x2="654.26648"
       y2="313.2222"
       gradientTransform="matrix(1.4,0.12,-0.1,1.22,-288.097,-440.1146)"><stop
         offset="0"
         style="stop-color:#BAD0E2"
         id="stop47" /><stop
         offset="1"
         style="stop-color:#B5C8DD"
         id="stop49" /></linearGradient><path
       id="path4195"
       class="st9"
       d="m 407,0 c -4.1,2.7 -4.8,6.5 -6.5,11.8 -7.5,8.2 -4.9,9.4 -0.4,14.1 4.1,-1.2 5.9,2.6 7.4,3.3 -3.1,7.3 -12.5,8.3 -9.1,12.8 6.3,1.2 24.5,2.4 31.1,0.4 10.4,2.1 18.8,4.7 28.9,3.7 6.8,2.6 14.2,3.2 21.4,1.8 8.5,6 11.2,7 21.9,5.2 10.4,8.2 18.5,10 32.3,8.7 4.2,-1.6 2.9,-4.7 4.4,-7 8.7,2.8 17.1,4.6 25.3,0.1 6.6,4.2 11.3,2.2 16.8,1.4 -0.9,-4 2.6,-5.7 3.8,-8.4 3.4,1.4 7.1,1 10.6,1.6 2.2,9.8 15.5,-7.6 26.5,-10.8 -0.1,-6.9 -9.1,5.3 -15.6,0.3 -4.5,-7.1 -12.9,-12.6 -20.4,-4.4 -0.1,0.1 -6.2,3.7 -8.2,6 -0.3,-0.3 -0.6,-0.5 -0.9,-0.6 -2.6,3.2 -4.5,5.9 -5.1,7.6 -6.3,-1.1 -9.8,-1.3 -14.2,-4.6 -8.3,3.2 -14.2,5.2 -22.6,3.5 -3.3,-8.1 -0.3,-9.9 14.8,-11.6 0.3,-1.1 -0.9,-2.5 1,-3.3 -9.8,2.5 -15.2,2.7 -18.8,-4.9 -3,0.6 -5.5,1.6 -9.4,1.9 -0.2,4.7 -0.9,9.4 -1.9,14 -9.9,1.7 -17.9,-0.2 -12.9,-11.2 -6,0 -11.6,-0.9 -17.5,-1.5 -2.6,4.3 -5.1,8.2 -10.2,11.3 -9.3,-0.8 -13.1,-0.5 -16.1,-9.4 -1.5,1.6 -3.6,3.7 -5.1,5.6 -19.4,-1.6 -20.9,-18.8 -1,-15.6 -8.7,-3.1 -11.8,-3.4 -9.7,-12.2 -8.9,0 -12.3,-0.4 -14.7,-7.9 -1.9,2.2 -7.2,-0.9 -6,6.9 C 418.3,9.4 412.2,8.8 411,0 Z"
       inkscape:connector-curvature="0"
       style="fill:url(#path4195_1_)" /><linearGradient
       id="path4269_1_"
       gradientUnits="userSpaceOnUse"
       x1="532.83087"
       y1="321.76709"
       x2="574.56091"
       y2="312.19711"
       gradientTransform="matrix(1.4,0.12,-0.1,1.22,-288.097,-440.1146)"><stop
         offset="0"
         style="stop-color:#BAD0E2"
         id="stop53" /><stop
         offset="1"
         style="stop-color:#FBFCFD"
         id="stop55" /></linearGradient><path
       id="path4269"
       class="st10"
       d="m 408.8,0 c -1.9,1.8 -3.1,3.9 0.1,6.7 -3.4,10.7 1.1,14.3 12.9,17.9 2.3,2 8.9,3.4 9.9,8.4 2.7,-0.2 9.9,3.1 15,-6.3 1.8,0.4 7.3,-3.6 10.4,2.5 4.4,-5.8 4.3,-8.1 14.1,-7.2 7.3,0 9.4,0.7 12.8,-4 -3.4,-3.1 2.8,-9.8 -7.1,-6.5 -2.1,-2.4 0.6,-7.6 -7,-8.2 -5.6,-1 -9.5,-5.1 -14.8,4.7 -1.1,-2.3 -0.7,-4.9 -3.3,-7 -1,-0.3 -2,-0.6 -3.1,-1 h -12.1 c -0.4,0.2 -0.8,0.3 -1.2,0.5 -0.4,0 -0.7,-0.2 -0.9,-0.5 h -11.3 c -3.5,1 -4.9,3.6 -7.9,0 z"
       inkscape:connector-curvature="0"
       style="fill:url(#path4269_1_)" /><linearGradient
       id="path4305_1_"
       gradientUnits="userSpaceOnUse"
       x1="538.1712"
       y1="360.155"
       x2="484.2012"
       y2="376.57501"
       gradientTransform="matrix(1.17,0.1,-0.08,1.02,-132.6956,-366.1786)"><stop
         offset="0"
         style="stop-color:#EEF3F8"
         id="stop59" /><stop
         offset="1"
         style="stop-color:#D8E5EF"
         id="stop61" /></linearGradient><path
       id="path4305"
       class="st11"
       d="m 444.5,50.1 c -1,5.6 -5.7,1.7 -8.5,2.5 -10.1,-4.9 -11.4,1.6 -14.3,6.9 -10.1,-3.9 -14.8,-0.2 -19.4,1.6 0,0 -21.3,17.6 22.7,13.9 3.1,-4.9 12.5,-10 16.6,-11.5 3.6,-4.7 7.4,-4.4 13.4,-6.1 7.3,4.6 9.4,1.8 15.5,1.3 -0.1,-7 6.3,-5.2 8.9,-7.3 -6.3,-7.6 -11.9,-7 -19.6,-2 -9.1,-6.4 -9,-4 -15.3,0.7 z"
       inkscape:connector-curvature="0"
       style="fill:url(#path4305_1_)" /><linearGradient
       id="path4317_1_"
       gradientUnits="userSpaceOnUse"
       x1="570.82788"
       y1="373.28079"
       x2="520.19788"
       y2="373.77081"
       gradientTransform="matrix(1.17,0.1,-0.08,1.02,-132.6956,-366.1786)"><stop
         offset="0"
         style="stop-color:#FAE6CB"
         id="stop65" /><stop
         offset="1"
         style="stop-color:#EEF3F8"
         id="stop67" /></linearGradient><path
       id="path4317"
       class="st12"
       d="m 510.4,70.1 c -5.2,-1.8 -9.5,-2.9 -15.2,-0.8 -1.6,-1.5 -4.1,-0.7 -4.7,-4.4 -2.5,-1.2 -5,-3.1 -8.8,-2.7 -4.7,-0.8 -7.8,-1.6 -12.6,1.4 -3.2,-1.3 -6.6,-2.1 -10,-2.3 -4.1,2.2 -8.8,4.6 -13,6.4 -5.6,-1 -5,0.1 -7.1,3.4 5.4,4.1 11.3,3.6 17.9,2.5 6,3.9 11.6,3.1 18.5,2.5 4,-0.1 6.9,-1.3 10.4,-2.6 5.5,3.1 11.2,3 18,2 8.6,1.7 13.7,0.2 6.6,-5.4 z"
       inkscape:connector-curvature="0"
       style="fill:url(#path4317_1_)" /><linearGradient
       id="path4281_1_"
       gradientUnits="userSpaceOnUse"
       x1="468.09979"
       y1="330.26041"
       x2="466.52979"
       y2="346.6904"
       gradientTransform="matrix(1.17,0.1,-0.08,1.02,-133.3656,-366.8686)"><stop
         offset="0"
         style="stop-color:#FFFFFF"
         id="stop71" /><stop
         offset="1"
         style="stop-color:#B9CFE2"
         id="stop73" /></linearGradient><path
       id="path4281"
       class="st13"
       d="m 382.9,17.1 c -4.9,-0.8 -5.8,2.1 -7.6,2.8 -10.7,-0.9 -10.4,1.4 -13.5,7.7 6.6,3.8 12.4,2.6 19,3.6 2.4,-2.3 5.9,-4.1 8.8,-6.1 5.5,4.4 8.6,3.9 18.2,2.1 2.6,0.5 3.3,-2.4 1.3,-4.5 -9.2,-10.7 -18.2,-8.5 -26.2,-5.6 z"
       inkscape:connector-curvature="0"
       style="fill:url(#path4281_1_)" /><linearGradient
       id="path4499_1_"
       gradientUnits="userSpaceOnUse"
       x1="412.34711"
       y1="378.4751"
       x2="398.84711"
       y2="401.6351"
       gradientTransform="matrix(1.46,0,0,1.28,-249.56,-512.8304)"><stop
         offset="0"
         style="stop-color:#FFFFFF"
         id="stop77" /><stop
         offset="1"
         style="stop-color:#C5D4E5"
         id="stop79" /></linearGradient><path
       id="path4499"
       class="st14"
       d="m 222.7,0 c -0.4,0.6 -0.8,1.1 -1.2,1.8 2.2,5.1 5.8,4.1 11.6,3.1 4.4,3.6 7.5,3.5 13.6,3.5 5.1,4.2 11.2,3.2 17.1,2.2 2.5,0.1 3.6,-0.6 5.5,-0.9 5.3,2.3 9.7,1.3 14.1,-0.4 7,3.9 8.4,-2.5 9.1,-3.5 4.7,1.8 7.5,0.1 10.6,-1.8 4.2,1.6 8.4,0.7 12.6,0 3.4,3.9 6.3,3.6 11.1,4 3.8,3.7 8.5,4 14.1,3.5 6.4,5.3 15.2,5.2 23.2,3.1 7.8,3.3 15.5,3.5 24.2,0.4 8.2,2.1 16.9,1.3 24.7,-2.2 6.2,-1.6 11.3,-1.8 16.1,-5.7 7.4,0.6 15.7,-2.2 13.6,-7.1 z"
       inkscape:connector-curvature="0"
       style="fill:url(#path4499_1_)" /><linearGradient
       id="path4507_1_"
       gradientUnits="userSpaceOnUse"
       x1="389.26181"
       y1="414.25421"
       x2="409.17181"
       y2="386.6442"
       gradientTransform="matrix(1.46,0,0,1.28,-249.56,-512.8304)"><stop
         offset="0"
         style="stop-color:#A5BCD5"
         id="stop83" /><stop
         offset="1"
         style="stop-color:#DBE5EF"
         id="stop85" /></linearGradient><path
       id="path4507"
       class="st15"
       d="m 222.7,0 c -0.4,0.6 -0.8,1.2 -1.2,1.8 2.2,5.1 5.8,4.1 11.6,3.1 4.4,3.6 7.5,3.5 13.6,3.5 5.1,4.3 11.2,3.2 17.1,2.2 2.5,0.1 3.6,-0.6 5.5,-0.9 5.3,2.3 9.7,1.3 14.1,-0.4 7,3.9 8.4,-2.5 9.1,-3.5 4.7,1.8 7.5,0.1 10.6,-1.8 4.2,1.6 8.4,0.7 12.6,0 3.4,3.9 6.3,3.6 11.1,4 3.8,3.7 8.5,4 14.1,3.5 6.4,5.3 15.2,5.2 23.2,3.1 7.8,3.3 15.5,3.5 24.2,0.4 8.2,2.1 16.9,1.3 24.7,-2.2 6,-1.6 11.1,-1.8 16,-5.8 3.3,0.3 6.7,-0.2 9.8,-1.3 -2.8,-1.3 -8.6,0.5 -9.4,-2.2 L 425.1,0 c -3,0.7 -6.1,1.2 -9.2,1.3 -7.5,2 -13.6,2.8 -19.8,-1.3 h -2.4 c -1.1,0.7 -2.1,1.6 -2.9,2.6 -6.9,2.4 -13.1,2 -16.1,-2.6 h -11.8 c -1,0.9 -1.8,1.9 -2.3,3.1 C 355.7,3 351.1,2 346.7,0 Z"
       inkscape:connector-curvature="0"
       style="fill:url(#path4507_1_)" /><linearGradient
       id="path4167_1_"
       gradientUnits="userSpaceOnUse"
       x1="188.96381"
       y1="475.89899"
       x2="180.01379"
       y2="508.14899"
       gradientTransform="matrix(1.07,-0.07,0.06,0.94,-94.4858,-411.1242)"><stop
         offset="0"
         style="stop-color:#FFFFFF"
         id="stop89" /><stop
         offset="1"
         style="stop-color:#B4C8DA"
         id="stop91" /></linearGradient><path
       id="path4167"
       class="st16"
       d="m 19.5,0 c -0.1,5.5 1.6,8 6.2,10.3 -6,11.9 4.1,12.6 11.9,17.1 1.2,1.2 -0.5,3.1 -0.6,3.7 -0.3,4 2.5,4.4 4.9,5.9 -1.4,4 0.7,3.6 2,5.3 3.6,1.2 7.6,0 10.7,-1 -0.3,10.5 11.4,13 20.5,8.7 7.5,4 18.2,10.3 25.7,6.4 3.3,-1.3 9.7,-2.1 11.5,-2.5 7.6,3.8 17.2,1.7 23.7,0.7 10,1.7 20.5,-1.7 29.5,-5.5 2.6,2.8 6.3,2 12.2,2.1 3.4,-0.1 5.9,-1.7 8.5,-3.1 5,0.4 9.4,-0.1 13.1,-2.3 9.7,6 17.8,3.7 24.5,-0.1 6,2.5 10.1,1.4 15.8,0.1 9.3,7.7 21.8,-7.2 9.4,-9.7 -2.5,-6.7 -8.2,-6.5 -13.6,-4.2 -1.4,-3 -2.2,-1.8 -4.7,-2.6 -2,-4.9 -3.7,-7.1 -10.3,-4.8 -0.3,-5.4 -2.2,-9.9 -8.7,-6.7 0.1,-2.9 0.7,-3.7 -2.8,-5.3 -2,-6.7 -6.6,-9.1 -11.8,-2.9 -3,-1.2 -3.4,-2.9 -5.4,0.3 -3.4,-1 -6.9,-1.4 -10.4,-1.1 -5.6,-2.8 -14.1,-3.2 -18.3,5.5 -5.3,0.3 -7.5,1.3 -7.5,6.3 -2.7,-0.1 -4.4,-0.2 -6.6,0.8 -0.9,-2.4 -0.6,-3.4 -2.4,-5.7 1.5,-3.5 1.9,-7.6 -2.4,-11.5 0,-1.1 0.3,-2.6 0.2,-4.2 z"
       inkscape:connector-curvature="0"
       style="fill:url(#path4167_1_)" /><linearGradient
       id="path4169_1_"
       gradientUnits="userSpaceOnUse"
       x1="180.59979"
       y1="380.57379"
       x2="183.7298"
       y2="361.15369"
       gradientTransform="matrix(1.07,-0.07,0.06,0.94,-83.1058,-292.0842)"><stop
         offset="0"
         style="stop-color:#8FB7DB"
         id="stop95" /><stop
         offset="1"
         style="stop-color:#DCE6EE"
         id="stop97" /></linearGradient><path
       id="path4169"
       class="st17"
       d="m 19.5,0 c -0.1,5.5 1.6,8 6.2,10.3 -6,11.9 4.1,12.6 11.9,17.1 1.2,1.2 -0.5,3.1 -0.6,3.7 -0.3,4 2.5,4.4 4.9,5.9 -1.4,4 0.7,3.6 2,5.3 3.6,1.2 7.6,0 10.7,-1 -0.3,10.5 11.4,13 20.5,8.7 7.5,4 18.2,10.3 25.7,6.4 3.3,-1.3 9.7,-2.1 11.5,-2.5 7.6,3.8 17.2,1.7 23.7,0.7 10,1.7 20.5,-1.7 29.5,-5.5 2.6,2.8 6.3,2 12.2,2.1 3.4,-0.1 5.9,-1.7 8.5,-3.1 5,0.4 9.4,-0.1 13.1,-2.3 9.7,6 17.8,3.7 24.5,-0.1 6,2.5 10.1,1.4 15.8,0.1 8.6,7.1 19.8,-5.1 11.8,-8.9 -2.3,6.8 -10.9,8.3 -14.3,1.1 -1.3,-3.1 -0.7,-3.9 -5.3,-4.8 0.2,0.4 2.8,1.5 1.9,3.1 -5.3,4.7 -17.6,5.2 -16.4,-4 -3.3,2.9 -6.1,4.9 -11.3,4.7 -5.4,0.3 -9.4,0.3 -12.3,-3.6 -9.2,9.1 -31.3,12 -27.7,-5.1 -6.4,3.6 -18.6,9.9 -23.5,2.2 -3.3,5.3 -22.6,12.5 -26.1,11.1 -12,12.9 -26.4,-0.2 -12.5,-8.6 -3.6,-0.4 -6.6,-0.6 -9.7,-1.9 -2.5,5.8 -11.6,3.4 -8.7,13.3 -3.3,-0.1 -4.4,0.9 -6.4,-2.1 -12.4,6.4 -20,-6.2 -4.9,-5.5 0.2,-0.6 -1.3,-1.8 0.7,-1.9 -3.8,-4.2 -7,-6.5 -2.8,-11.8 -10.6,0.7 -9.2,7 -17.6,9.9 0.7,-2.7 1.8,-4.2 1.6,-7 -3.9,-0.7 -9.2,-3.2 -8.9,-8.9 2.5,-2.1 5.6,-3.4 8.9,-3.8 C 52.5,11.8 47.3,9.9 41.9,12.7 33.8,15.2 31.1,12.8 31.4,5 27.8,3.8 24.9,3.1 24,0.2 Z"
       inkscape:connector-curvature="0"
       style="fill:url(#path4169_1_)" /><linearGradient
       id="path4186_1_"
       gradientUnits="userSpaceOnUse"
       x1="103.5938"
       y1="-295.54321"
       x2="123.6038"
       y2="-277.29321"
       gradientTransform="matrix(1.07,-0.07,0.06,0.94,-49.5258,292.9558)"><stop
         offset="0"
         style="stop-color:#D9E3EC"
         id="stop101" /><stop
         offset="1"
         style="stop-color:#B4C8DA"
         id="stop103" /></linearGradient><path
       id="path4186"
       class="st18"
       d="m 19.5,0 c -0.1,5.5 1.6,8 6.2,10.3 -6,11.9 4.1,12.6 11.9,17.1 1.2,1.2 -0.5,3.1 -0.6,3.7 -0.3,4 2.5,4.4 4.9,5.9 -1.4,4 0.7,3.6 2,5.3 3.6,1.2 7.6,0 10.7,-1 -0.1,4.6 2,7.6 5.1,9.3 1,-3.7 4.1,-6.6 7.9,-7.3 -4,-5.5 -5,-10.6 5.6,-11.4 -0.3,-0.5 -3.5,-1.6 -2.8,-4.8 2.3,-2.6 1.8,-4.9 7.8,-6.6 -1.8,-2.2 0.2,-5.3 -4.8,-5.8 C 72.7,12.3 70.5,9 72.2,5.4 75,1.7 75.2,0 81.4,0.4 79.3,0.4 77.2,0.3 75.2,0.2 H 59.9 C 58.5,1.8 57,2.5 53.1,2.8 51,3.1 48.8,2.7 46.8,3.7 42.1,12.1 26.1,14.5 26.3,0 Z"
       inkscape:connector-curvature="0"
       style="fill:url(#path4186_1_)" /><path
       id="path4201"
       class="st19"
       d="M 24.1,0 C 20.6,7.6 40.2,24.5 43.9,7 54.2,6.3 59.5,6 64.3,0 H 41.5 c -3.2,1.6 -6.4,2.3 -8.8,0 z"
       inkscape:connector-curvature="0"
       style="fill:#d9e3ec" /><linearGradient
       id="path4203_1_"
       gradientUnits="userSpaceOnUse"
       x1="115.6056"
       y1="478.22711"
       x2="93.225601"
       y2="498.8371"
       gradientTransform="matrix(0.96,-0.06,0.05,0.84,-51.0915,-367.5912)"><stop
         offset="0"
         style="stop-color:#EEF2F6"
         id="stop108" /><stop
         offset="1"
         style="stop-color:#D1DDE8"
         id="stop110" /></linearGradient><path
       id="path4203"
       class="st20"
       d="m 71.1,26.7 c 4.2,6.5 0.5,6.1 -3.6,6.7 -3.6,3 -1.2,4.3 -1.4,5.1 -4,0.6 -4.3,1.6 -7.2,2.9 0.7,4.3 2.5,3.9 6.6,5 0.4,-2 1.5,-4.8 1.9,-6.1 4.8,0.7 4.8,-1.6 7.2,-3.4 4.8,0 9.5,-0.7 14.1,-1.9 1.2,-2.3 2.2,-4.7 2.9,-7.1 C 90.9,14.8 76.5,20.5 71.1,26.7 Z"
       inkscape:connector-curvature="0"
       style="fill:url(#path4203_1_)" /><linearGradient
       id="path4213_1_"
       gradientUnits="userSpaceOnUse"
       x1="222.18829"
       y1="491.10239"
       x2="203.93829"
       y2="475.79239"
       gradientTransform="matrix(1.19,-0.08,0.06,0.94,-144.7258,-407.8942)"><stop
         offset="0"
         style="stop-color:#C5D4E5"
         id="stop114" /><stop
         offset="1"
         style="stop-color:#D5E0EA"
         id="stop116" /></linearGradient><path
       id="path4213"
       class="st21"
       d="m 96.4,35.7 c 1.3,-8.2 6.8,-7.2 12.2,-8 3.3,2 5.9,1.9 8.6,2.8 0.8,-3.4 4.8,-5.6 6.6,-7.6 4.7,-1.9 11.3,-0.6 14,-0.3 0.6,-3.8 3.9,-3.9 5.3,-5.3 5.9,-0.6 6.1,1.6 9.4,3.3 4,4.2 6.3,-0.4 7,-0.4 -0.6,-6.4 -0.1,-3.5 6,-5.4 2.7,-2.3 6,-2 8.3,-2.7 1.8,8 -2,9.7 -9.7,13.3 5.4,1 5.6,2.9 8.1,5.6 0,5.9 -0.2,5 -7.3,6.6 -3.4,-1.4 -2.7,6.5 -5.4,5.3 -3.2,-1.2 -6.5,-1.9 -9.9,-2.1 -0.4,8.1 -8.6,-3.5 -17.7,-2.2 -21,2.4 -12.4,9.1 -20.5,9.6 0.3,-3.2 -1.4,-4.8 -1.8,-6 C 99.3,52.7 96.8,41.8 96.4,35.7 Z"
       inkscape:connector-curvature="0"
       style="fill:url(#path4213_1_)" /><linearGradient
       id="path4235_1_"
       gradientUnits="userSpaceOnUse"
       x1="190.87131"
       y1="343.5636"
       x2="155.4113"
       y2="333.27359"
       gradientTransform="matrix(1.16,-0.07,0.07,1.06,-120.0701,-332.2958)"><stop
         offset="0"
         style="stop-color:#D5E0EA"
         id="stop120" /><stop
         offset="1"
         style="stop-color:#FFFFFF"
         id="stop122" /></linearGradient><path
       id="path4235"
       class="st22"
       d="m 90.6,0 c 0,0.7 -0.3,1.4 -0.9,1.7 -10.5,2.6 -15.8,8.6 -2,14.2 0,0 8.2,0.9 7.6,5.5 -1,6.3 -1.5,7.9 8.7,11.5 9.3,-0.6 12.2,-3.3 20.6,-7.3 -0.2,-1.4 -8.8,-1.4 -1.3,-9.6 -21.5,-3.6 -6.5,-16.5 7.1,-13.5 -1.5,-0.9 -3.1,-1.4 -4.7,-2.4 z"
       inkscape:connector-curvature="0"
       style="fill:url(#path4235_1_)" /></g></svg>