<?xml version="1.0" encoding="UTF-8" standalone="no"?>
<!-- Generator: Adobe Illustrator 21.1.0, SVG Export Plug-In . SVG Version: 6.00 Build 0)  -->

<svg
   xmlns:dc="http://purl.org/dc/elements/1.1/"
   xmlns:cc="http://creativecommons.org/ns#"
   xmlns:rdf="http://www.w3.org/1999/02/22-rdf-syntax-ns#"
   xmlns:svg="http://www.w3.org/2000/svg"
   xmlns="http://www.w3.org/2000/svg"
   xmlns:sodipodi="http://sodipodi.sourceforge.net/DTD/sodipodi-0.dtd"
   xmlns:inkscape="http://www.inkscape.org/namespaces/inkscape"
   version="1.1"
   id="Layer_1"
   x="0px"
   y="0px"
   viewBox="0 0 300.60001 155.1"
   xml:space="preserve"
   sodipodi:docname="cloud1.svg"
   width="300.60001"
   height="155.10001"
   inkscape:version="0.92.2 (5c3e80d, 2017-08-06)"><metadata
     id="metadata11"><rdf:RDF><cc:Work
         rdf:about=""><dc:format>image/svg+xml</dc:format><dc:type
           rdf:resource="http://purl.org/dc/dcmitype/StillImage" /><dc:title></dc:title></cc:Work></rdf:RDF></metadata><defs
     id="defs9" /><sodipodi:namedview
     pagecolor="#ffffff"
     bordercolor="#666666"
     borderopacity="1"
     objecttolerance="10"
     gridtolerance="10"
     guidetolerance="10"
     inkscape:pageopacity="0"
     inkscape:pageshadow="2"
     inkscape:window-width="640"
     inkscape:window-height="480"
     id="namedview7"
     showgrid="false"
     fit-margin-top="0"
     fit-margin-left="0"
     fit-margin-right="0"
     fit-margin-bottom="0"
     inkscape:zoom="0.81303116"
     inkscape:cx="152.8"
     inkscape:cy="71.549997"
     inkscape:window-x="0"
     inkscape:window-y="0"
     inkscape:window-maximized="0"
     inkscape:current-layer="Layer_1" /><style
     type="text/css"
     id="style2">
	.st0{fill:#9FDAE2;}
</style><path
     class="st0"
     d="m 265.9,85.7 h -30 c 0.5,-2.3 0.7,-4.7 0.7,-7.2 0,-19.3 -15.6,-34.9 -34.9,-34.9 h -17.6 c 0,-0.3 0,-0.5 0,-0.8 C 184.1,19.2 164.9,0 141.3,0 h -13.6 c -23.6,0 -42.8,19.2 -42.8,42.8 0,0.3 0,0.5 0,0.8 h -0.6 c -19.3,0 -34.9,15.6 -34.9,34.9 0,2.5 0.3,4.9 0.7,7.2 H 34.7 C 15.5,85.7 0,101.3 0,120.4 c 0,19.2 15.6,34.7 34.7,34.7 h 231.2 c 19.2,0 34.7,-15.6 34.7,-34.7 0,-19.2 -15.5,-34.7 -34.7,-34.7 z"
     id="path4"
     inkscape:connector-curvature="0"
     style="fill:#9fdae2" /></svg>