<?xml version="1.0" encoding="UTF-8" standalone="no"?>
<!-- Generator: Adobe Illustrator 21.1.0, SVG Export Plug-In . SVG Version: 6.00 Build 0)  -->

<svg
   xmlns:dc="http://purl.org/dc/elements/1.1/"
   xmlns:cc="http://creativecommons.org/ns#"
   xmlns:rdf="http://www.w3.org/1999/02/22-rdf-syntax-ns#"
   xmlns:svg="http://www.w3.org/2000/svg"
   xmlns="http://www.w3.org/2000/svg"
   xmlns:sodipodi="http://sodipodi.sourceforge.net/DTD/sodipodi-0.dtd"
   xmlns:inkscape="http://www.inkscape.org/namespaces/inkscape"
   version="1.1"
   id="Layer_1"
   x="0px"
   y="0px"
   viewBox="0 0 330.10001 149.39999"
   xml:space="preserve"
   sodipodi:docname="cloud2.svg"
   width="330.10001"
   height="149.39999"
   inkscape:version="0.92.2 (5c3e80d, 2017-08-06)"><metadata
     id="metadata11"><rdf:RDF><cc:Work
         rdf:about=""><dc:format>image/svg+xml</dc:format><dc:type
           rdf:resource="http://purl.org/dc/dcmitype/StillImage" /><dc:title></dc:title></cc:Work></rdf:RDF></metadata><defs
     id="defs9" /><sodipodi:namedview
     pagecolor="#ffffff"
     bordercolor="#666666"
     borderopacity="1"
     objecttolerance="10"
     gridtolerance="10"
     guidetolerance="10"
     inkscape:pageopacity="0"
     inkscape:pageshadow="2"
     inkscape:window-width="640"
     inkscape:window-height="480"
     id="namedview7"
     showgrid="false"
     fit-margin-top="0"
     fit-margin-left="0"
     fit-margin-right="0"
     fit-margin-bottom="0"
     inkscape:zoom="0.81303116"
     inkscape:cx="165.4"
     inkscape:cy="76.149997"
     inkscape:window-x="791"
     inkscape:window-y="241"
     inkscape:window-maximized="0"
     inkscape:current-layer="Layer_1" /><style
     type="text/css"
     id="style2">
	.st0{fill-rule:evenodd;clip-rule:evenodd;fill:#B0DFE5;}
</style><path
     class="st0"
     d="m 40.4,66 c 6.4,0 12.5,1.4 17.9,4 C 62.6,60.8 73.1,53.9 86,52.1 85.9,51.4 85.9,50.7 85.9,50 c 0,-16 15.2,-29 34,-29 5.4,0 10.5,1.1 15,3 5.7,-13.9 22.4,-24 42.2,-24 20.9,0 38.4,11.2 43.1,26.4 0.2,0 0.3,0 0.5,0 15.7,0 28.5,12.4 28.5,27.8 0,1.5 -0.1,3 -0.4,4.5 0.9,0.9 1.7,1.8 2.5,2.9 4,-2 8.6,-3.1 13.4,-3.1 14.3,0 26.1,9.6 28.5,22.3 3.3,-1.7 7.1,-2.7 11,-2.7 14.3,0 25.9,12.8 25.9,28.5 0,15.7 -11.6,28.5 -25.9,28.5 -5.4,0 -10.4,-1.8 -14.5,-4.9 -3.8,5 -9.9,8.2 -16.9,8.2 -2.3,0 -4.5,-0.4 -6.6,-1 -5.8,7.3 -14.7,12 -24.6,12 -10.1,0 -19.1,-4.9 -24.9,-12.5 -4.8,3 -10.4,4.8 -16.5,4.8 -5.6,0 -10.8,-1.5 -15.3,-4.1 -4.6,2.6 -9.9,4.1 -15.6,4.1 -7.9,0 -15,-2.8 -20.5,-7.5 -5.7,5.2 -13.5,8.5 -22.2,8.5 -6.5,0 -12.5,-1.8 -17.5,-5 -5.3,3 -11.7,4.8 -18.6,4.8 -6.3,0 -12.3,-1.5 -17.3,-4.1 -4.9,2.6 -10.6,4.1 -16.7,4.1 -2.6,0 -5.1,-0.3 -7.5,-0.8 -2.8,0.6 -5.8,0.9 -8.8,0.9 C 18,142.6 0,125.4 0,104.3 0.2,83.1 18.2,66 40.4,66 Z"
     id="path4"
     inkscape:connector-curvature="0"
     style="clip-rule:evenodd;fill:#b0dfe5;fill-rule:evenodd" /></svg>