<svg id="Layer_1" data-name="Layer 1" xmlns="http://www.w3.org/2000/svg" xmlns:xlink="http://www.w3.org/1999/xlink" viewBox="0 0 720 720"><defs><style>.cls-1{fill:url(#Безымянный_градиент_2);}.cls-2{fill:url(#Безымянный_градиент_3);}.cls-3{fill:#9cc4eb;}.cls-4{fill:url(#Безымянный_градиент_4);}.cls-5{fill:url(#Безымянный_градиент_5);}.cls-6{fill:url(#Безымянный_градиент_6);}.cls-7{fill:#e5d9de;}.cls-8{fill:#fff;}.cls-9{fill:url(#Безымянный_градиент_7);}.cls-10{fill:url(#Безымянный_градиент_8);}.cls-11{fill:url(#Безымянный_градиент_9);}.cls-12{fill:url(#Безымянный_градиент_10);}.cls-13{fill:url(#Безымянный_градиент_11);}.cls-14{fill:url(#Безымянный_градиент_12);}.cls-15{fill:url(#Безымянный_градиент_13);}.cls-16{fill:url(#Безымянный_градиент_14);}.cls-17{fill:url(#Безымянный_градиент_15);}.cls-18{fill:url(#Безымянный_градиент_16);}.cls-19{fill:url(#Безымянный_градиент_17);}.cls-20{fill:#d9e3ec;}.cls-21{fill:url(#Безымянный_градиент_18);}.cls-22{fill:url(#Безымянный_градиент_19);}.cls-23{fill:url(#Безымянный_градиент_20);}</style><linearGradient id="Безымянный_градиент_2" x1="508.53" y1="-418.19" x2="318.01" y2="-581.69" gradientTransform="matrix(0.78, 0, 0, -0.98, 13.25, -157.65)" gradientUnits="userSpaceOnUse"><stop offset="0" stop-color="#fce2e2"/><stop offset="0.37" stop-color="#fee5c3"/><stop offset="1" stop-color="#aacceb"/></linearGradient><linearGradient id="Безымянный_градиент_3" x1="193.91" y1="267.61" x2="571.54" y2="297.75" gradientTransform="matrix(1.02, 0, 0, -1.09, -0.56, 639.63)" gradientUnits="userSpaceOnUse"><stop offset="0" stop-color="#a8cbed"/><stop offset="1" stop-color="#efdbdb"/></linearGradient><linearGradient id="Безымянный_градиент_4" x1="496.53" y1="-426.34" x2="523.63" y2="-374.39" gradientTransform="matrix(1.17, 0, 0, -1.02, -6.94, -162.75)" gradientUnits="userSpaceOnUse"><stop offset="0" stop-color="#a5bcd5"/><stop offset="1" stop-color="#fff"/></linearGradient><linearGradient id="Безымянный_градиент_5" x1="541.2" y1="-401.83" x2="542.28" y2="-389.27" gradientTransform="matrix(1.17, 0, 0, -1.02, -3.64, -164.92)" gradientUnits="userSpaceOnUse"><stop offset="0" stop-color="#b5c8dd"/><stop offset="1" stop-color="#eff3f7"/></linearGradient><linearGradient id="Безымянный_градиент_6" x1="541.92" y1="-375.33" x2="544.26" y2="-365.37" gradientTransform="matrix(1.17, 0, 0, -1.02, -5.71, -165.6)" gradientUnits="userSpaceOnUse"><stop offset="0" stop-color="#dee6ef"/><stop offset="1" stop-color="#f5f7fa"/></linearGradient><linearGradient id="Безымянный_градиент_7" x1="523.18" y1="-327.1" x2="408.2" y2="-326.31" gradientTransform="matrix(1.17, 0.1, 0.08, -1.02, -110.69, -119.77)" gradientUnits="userSpaceOnUse"><stop offset="0" stop-color="#e4edf4"/><stop offset="1" stop-color="#a7c3da"/></linearGradient><linearGradient id="Безымянный_градиент_8" x1="491.41" y1="-262.05" x2="595.94" y2="-241.76" gradientTransform="matrix(1.4, 0.12, 0.1, -1.22, -213.34, -136.58)" gradientUnits="userSpaceOnUse"><stop offset="0" stop-color="#bad0e2"/><stop offset="1" stop-color="#b5c8dd"/></linearGradient><linearGradient id="Безымянный_градиент_9" x1="474.54" y1="-250.24" x2="516.27" y2="-240.67" gradientTransform="matrix(1.4, 0.12, 0.1, -1.22, -213.34, -136.58)" gradientUnits="userSpaceOnUse"><stop offset="0" stop-color="#bad0e2"/><stop offset="1" stop-color="#fbfcfd"/></linearGradient><linearGradient id="Безымянный_градиент_10" x1="517.47" y1="-326.03" x2="463.5" y2="-342.45" gradientTransform="matrix(1.17, 0.1, 0.08, -1.02, -110.69, -119.77)" gradientUnits="userSpaceOnUse"><stop offset="0" stop-color="#eef3f8"/><stop offset="1" stop-color="#d8e5ef"/></linearGradient><linearGradient id="Безымянный_градиент_11" x1="549.57" y1="-338.45" x2="498.94" y2="-338.94" gradientTransform="matrix(1.17, 0.1, 0.08, -1.02, -110.69, -119.77)" gradientUnits="userSpaceOnUse"><stop offset="0" stop-color="#fae6cb"/><stop offset="1" stop-color="#eef3f8"/></linearGradient><linearGradient id="Безымянный_градиент_12" x1="449.88" y1="-294.56" x2="448.31" y2="-310.99" gradientTransform="matrix(1.17, 0.1, 0.08, -1.02, -111.36, -120.46)" gradientUnits="userSpaceOnUse"><stop offset="0" stop-color="#fff"/><stop offset="1" stop-color="#b9cfe2"/></linearGradient><linearGradient id="Безымянный_градиент_13" x1="333.31" y1="-315.13" x2="319.81" y2="-338.29" gradientTransform="matrix(1.46, 0, 0, -1.28, -133.64, -223.91)" gradientUnits="userSpaceOnUse"><stop offset="0" stop-color="#fff"/><stop offset="1" stop-color="#c5d4e5"/></linearGradient><linearGradient id="Безымянный_градиент_14" x1="310.24" y1="-350.97" x2="330.15" y2="-323.36" gradientTransform="matrix(1.46, 0, 0, -1.28, -133.64, -223.91)" gradientUnits="userSpaceOnUse"><stop offset="0" stop-color="#a5bcd5"/><stop offset="1" stop-color="#dbe5ef"/></linearGradient><linearGradient id="Безымянный_градиент_15" x1="157.16" y1="-500.08" x2="148.21" y2="-532.33" gradientTransform="matrix(1.07, -0.07, -0.06, -0.94, -61.22, -228.39)" gradientUnits="userSpaceOnUse"><stop offset="0" stop-color="#fff"/><stop offset="1" stop-color="#b4c8da"/></linearGradient><linearGradient id="Безымянный_градиент_16" x1="148.54" y1="-404.64" x2="151.67" y2="-385.22" gradientTransform="matrix(1.07, -0.07, -0.06, -0.94, -49.84, -109.35)" gradientUnits="userSpaceOnUse"><stop offset="0" stop-color="#8fb7db"/><stop offset="1" stop-color="#dce6ee"/></linearGradient><linearGradient id="Безымянный_градиент_17" x1="71.89" y1="272.34" x2="91.9" y2="254.09" gradientTransform="matrix(1.07, -0.07, -0.06, -0.94, -16.26, 475.69)" gradientUnits="userSpaceOnUse"><stop offset="0" stop-color="#d9e3ec"/><stop offset="1" stop-color="#b4c8da"/></linearGradient><linearGradient id="Безымянный_градиент_18" x1="108.4" y1="-534.1" x2="86.02" y2="-554.71" gradientTransform="matrix(0.96, -0.06, -0.05, -0.84, -48.15, -208.38)" gradientUnits="userSpaceOnUse"><stop offset="0" stop-color="#eef2f6"/><stop offset="1" stop-color="#d1dde8"/></linearGradient><linearGradient id="Безымянный_градиент_19" x1="166.79" y1="-516.51" x2="148.54" y2="-501.2" gradientTransform="matrix(1.19, -0.08, -0.06, -0.94, -81.22, -227.68)" gradientUnits="userSpaceOnUse"><stop offset="0" stop-color="#c5d4e5"/><stop offset="1" stop-color="#d5e0ea"/></linearGradient><linearGradient id="Безымянный_градиент_20" x1="141.16" y1="-333.53" x2="105.7" y2="-323.24" gradientTransform="matrix(1.16, -0.07, -0.07, -1.06, -61.52, -118.31)" gradientUnits="userSpaceOnUse"><stop offset="0" stop-color="#d5e0ea"/><stop offset="1" stop-color="#fff"/></linearGradient></defs><title>Artboard 1</title><path id="path4598" class="cls-1" d="M41.86,207.54a18.26,18.26,0,0,0-5.38,5.88,16,16,0,0,0-5.71,5.24c-9-4.06-18.44-5.92-28-3.84V408.51a43.09,43.09,0,0,0,32-4.23c2.22-.32,3.81-3.69,5-4.83,9,5.27,19.19,4.33,28.48,2.41,3.74-3,7.91-3.54,12.11-4.83,4.69,5.45,10.31,4.34,16.38,4.83,4.69.93,8.1-1.41,12.1-3.22,105.94,2.15,226.21,23.25,329,0,47.54,0,225.8,26.81,268.73,6.55-2-11.16-6-15.58-16.38-16.91-3.73-10.56-10-16.12-21.36-14.49-3.51-5.3-4.55-7.25-11.4-7.25.35-4,1.13-9.29,1.43-13.69-5.18-5.86-9.85-15.94-17.8-17.71.4-5-2.27-11-5.75-15.78-4.76-3-6.72-4.93-14.9-4.35-3-1.37-6.9-1.28-13.3,1.11-3.53-5.32-8.05-9.88-15-8.53-1-9.31-22.6-13.35-33.17,2.42-2.9-26.29-32.89-25.15-37.18-13.41-1.26-4.62-6.47-38.77-65.37-26-4.73-.89-12.06-3.4-17.8,1.6-2.7-3.44-5.13-8.45-9.26-10.46,3.39-2.55,6.73-1.3,6.41-8-15-7.81-28.16-14.19-44.86-8.86v-6.44c-5.22-1.61-10.23-4.37-16.38-.81-3-2.36-5.58-7-10.68-6.44-4.76.9-9.35.82-13.53,4.83-17.59-11.6-36-15.65-56.26-12.08a33.17,33.17,0,0,0-37-4.83c-4.5-2.83-8.9-6.06-13.53-8.86-7.28-.69-14.11-2.26-20.65,2.42-6.4-1.45-10-3-15.67,3.22a95.15,95.15,0,0,1-14.4-6.7c.61-.51,1.23-1,1.82-1.51l0-.09Z"/><path id="path4625" class="cls-2" d="M191.28,275a20.61,20.61,0,0,0-3.19,0c-2.61,3.82-2.56,12.2-10.08,14.78-10.44,4.45-18.8,8.31-30.24,6.72-7.47-3.62-15.06-3.6-20.17-13.44-5.46,5.37-12.95,6.6-16.38,16.13-10.93-1.06-22.86-.22-31.51-8.06-7.69.55-18.15,4.56-26.47-4C37.36,291.93,17.93,299.42,2.82,293V409A66,66,0,0,0,45,404.29c2.93-.35,5-4.11,6.56-5.37,11.88,5.86,25.26,4.81,37.49,2.68,4.92-3.28,10.41-3.93,15.93-5.37,6.18,6.06,13.58,4.82,21.56,5.37,6.17,1,10.67-1.57,15.93-3.58,62.43,1.07,128.64,6.34,194.87,9.54,12.59-6.44,22.41-12.65,28.44-18.34,11.31,2,19.56,3.36,30.88,12.77,16.76-.55,30.27-1.59,41-14.11,6.06-2.31,11.65-1.78,17.65-6.72,1.26,7.38-4.61,7.65,2.52,14.78,12.68,1,18.85,1.75,21.56,2.12-3.33-.69-9.34-2.64-.76-6.15,14.71,0,16.85,1.23,20.79-12.1,11.64-2.26,18.84-7.38,29,5.37,17.5,1.7,29.15-4.81,40.33-21.5,8,1.7,15.22,3.78,23.95-4-2.83-12.07-4.82-24-15.12-32.25-9.28.9-17.47.62-25.21,8.06-7.2-3.41-12-2.68-15.12-12.09-12.65,10.11-27.34,17.55-39.07,1.34-8.34-1.78-18-4.75-27.73-1.34-1.53-8.14-1.19-14.91-8.82-17.47-8.57-.83-15.75-2.27-23.94,4-6.55-9.31-10.3-15.7-25.21-14.78-3-.54-7.15-7.38-15.12-2.69-1.14.91-14.38-3.24-10.08,8.06-14.13,1.51-26.29,4.67-22.69,22.85-4,1.29-8.83,1.1-12.6,4-2.54-3.26.42-6.68-6.3-8.06-3.65,2.43-10.29-3.76-10.08,6.72-8.7-.84-18,.51-24-6.72-2.42-4.73-.46-12-7.56-14.78-11.32-2.19-22.87-5-34,0-7.16,5.09-14,8.74-22.69,10.75-19.45-1.6-40-9.32-37.81-33.59-4.88-2.08-11-6.25-18.23-6.75Z"/><path id="path4892" class="cls-3" d="M85.44,246.58a27.17,27.17,0,0,0-8.77,1.73c-7.27,3.6-24.8-7.84-20.68,10.25-5.13,5.08-7.3,9.36-15.51,15.36-3.85-4.57-.72-16.11-12.93-15.36-12.12,6-19.73,9-24.73,13.92v49.4c27,42,96.32-15.24,154,13.5,4.82-7.64,11.28-9.26,12.93-20.49-13-4.3-20.17,3.81-31-10.24-5.2-3.68-18.93,1-18.1-12.81C129.28,288,132,281.75,143.9,281.6,135.28,279,127,272.78,118,273.91c3.45-5.12,8.09-9.63,10.34-15.36-5.17-.85-10.47-1.16-15.51-2.56-6-1.79-15.38-9.74-27.43-9.41Z"/><g id="g9845"><path id="path4546" class="cls-4" d="M507.62,207.54a4.38,4.38,0,0,0-.14.52c-21.37,43.34,38.09,44.52,69.67,40.2,9,2.49,18.89,2.57,27.45,1.88,5.35,5.84,19.68,4.47,26.68,1.36,3.43,7.44,14.84,5.74,18.62.17,3.62-1.29.83-1.88,3.42-.82,5.86,2.67,11.45,5.86,20.5,2.17,31.66-3.25,25.16-13.5,14.73-17.74-3.93-13-27.53-5.16-31.55-6.94,4.93.34,13.26-2,15.9-6.37,9.09-2.94-.9-9.76-8.42-8.62-1.48-3-4.58-4.58-8.16-5.8H637.09a4.9,4.9,0,0,1-3.75,0H596.17a6.92,6.92,0,0,0,.95,2.91c-3.58-.63-6.38-.94-10,1.19a29.91,29.91,0,0,0-9.4-.51,27.1,27.1,0,0,0-13.25-2.22c-.29-.48-.61-.93-.93-1.37Z"/><path id="path4570" class="cls-5" d="M598,236.6c6.4,3.92,14.37,2.24,21.5,0a61.83,61.83,0,0,1,6.08-5.15c.51,5.86,6.18,4.84,11.69,4.41,2.37-.15,4.46-1.5,6.08-2.21.48,5.1,6,5.3,11.22,5.88,2.93.65,33.94,10.65,40.15,1.32.71,13.56-22.62,9.46-22.62,9.46-10.9,8-23.82-5.1-24.08-5.27-.89,8.1-6.74,11-15.89,11-9.11-1.48-16.56,3.62-24.78,1.47-9.88-8.62-33.05,3.29-35.06-12.5a12.52,12.52,0,0,1-6.54-11c9.6,5.5,25.84,7.62,32.26,2.57Z"/><path id="path4580" class="cls-6" d="M645.74,215.87c1.56.49,6.28,1.35,7.86,3.76a76.64,76.64,0,0,0,13.94-1.56c-4,5.2-9.75,7.36-16.44,9.08-3.81-1.85-8.8-5-13.58-5.63-2.52.16-9.12.35-12.87,1.56a33.78,33.78,0,0,0-5.36-2.5c-3.73-.27-7.52.5-11.44.63-1.86-.9-2.87-2.17-5.72-1.88-1.63-1.27-6.8-6.14-12.51-2.82,3.67-5.67,14.12-4.4,19.3-1.88a21.63,21.63,0,0,1,12.51-3.76c5.14-.5,10.1,0,15.37,0,3.85-.19,7.21,3.28,8.94,5Z"/><path id="path4812" class="cls-7" d="M415,303.2C413.27,291,420,277.5,439.07,283.8c7.65-20.95,26.62-9.23,30-4,15.59-6,24.64,6.6,22.29,13.29,11.47-7.85,21.82,4,24.3,17.66-14-10.79-18.16-6.58-40.64-1.3-5.7-27.26-39.67-10.67-60.06-6.27Z"/><path id="path4174" class="cls-8" d="M407,207.54c-4.14,2.67-4.82,6.5-6.5,11.79-7.45,8.22-4.92,9.42-.41,14.09,4.12-1.25,5.9,2.64,7.41,3.31-3.15,7.32-.56,8.41,2.76,13,6.31,1.25,12.54,2.22,19.19.25,10.44,2.1,18.75,4.66,28.88,3.74a38,38,0,0,0,21.36,1.77c8.52,6,11.25,7,21.85,5.18,10.38,8.21,18.48,10,32.31,8.73,4.23-1.63,2.94-4.67,4.43-7,8.67,2.76,17.06,4.59,25.34.08,6.58,4.25,11.34,2.23,16.79,1.4-.93-4,2.56-5.74,3.77-8.44,3.4,1.44,7.07,1,10.63,1.56,2.25,9.76,14.56-10.14,25.49-13.39-.08-6.88-8.11,7.81-14.62,2.85-4.54-7.12-12.88-12.61-20.38-4.38-.07.05-6.16,3.7-8.19,6-2.32-2.4-8.2-.85-7.78-8,7.09,0,7.82,2.26,8.89-5.32-3-4.13-7-10.67-16.82-10.14-3.77,1.8-8.85,3.58-9.83,7.26-1.43-1.24-2.53-2.88-4.3-3.72-8.9-.74-16.69-.93-22.57,3.51-6-2.95-12.21-7.32-21.09-5.11,3.76-5,7.21-6.16-1.56-8.87-1.18-2.54-3.39-7.32-6.1-10.12h-7.9a14.11,14.11,0,0,0-1.46,2.11c-.9-.71-1.88-1.42-2.9-2.11Z"/><path id="path4285" class="cls-9" d="M497.38,272.5c-8.9,3-16,7.67-25,2-9.33.7-17.1-.65-23.53,6.89-6.21,2.41-9,4.67-16.68,1.83-3.15,1.08-8.68,3.89-13.23,4.53-8.17-.68-12.61-1-15.81-8.55L388.59,278c-6.39-.53-11-.25-16.15-4.55-.43-1.09-8.61-2.26-2.27-5.82L362,266.9c-9.38-.78-14.41.79-15.7-7.25-7.06,3.31-17.17-.4-15.62-4.41-10,4.88-19.35-8.77-6.34-13,4.66-4,11-4.52,20.63-2.48,5.86-3.76,7.47-5.32,15.05-4.38,4-2.62-.14-8.82,9.72-6.43,5.8-2.51,7,2.29,9.83,3.23,8.19-1.3,16.33-.39,23.91-.43,5,2.77,6.84,8.62,8.19,11.93,8.93-1.53,17-.16,25.6,1.32,3.62,4.45,9.68,6.48,13.08,8.32,15.34-4.29,30.82-1.28,41,4.2C507.29,260.05,519.84,270.46,497.38,272.5Z"/><path id="path4195" class="cls-10" d="M407,207.54c-4.14,2.67-4.83,6.5-6.51,11.79-7.45,8.22-4.91,9.42-.4,14.09,4.12-1.25,5.9,2.63,7.4,3.3C404.36,244,395,245,398.35,249.56c6.31,1.25,24.46,2.4,31.11.43,10.44,2.1,18.75,4.66,28.88,3.74a38,38,0,0,0,21.37,1.77c8.52,6,11.24,7,21.85,5.18,10.38,8.21,18.48,10,32.31,8.73,4.23-1.63,2.93-4.67,4.42-7,8.67,2.76,17.06,4.59,25.35.08,6.58,4.25,11.34,2.23,16.79,1.4-.93-4,2.56-5.73,3.77-8.43,3.4,1.44,7.07,1,10.62,1.56,2.25,9.76,15.52-7.6,26.45-10.84-.08-6.88-9.07,5.26-15.58.3-4.54-7.12-12.88-12.61-20.38-4.38-.07.05-6.16,3.7-8.18,6a3.86,3.86,0,0,0-.89-.65c-2.59,3.18-4.48,5.91-5.06,7.56-6.3-1.08-9.77-1.3-14.22-4.55-8.34,3.23-14.19,5.21-22.58,3.51-3.32-8.14-.35-9.86,14.8-11.56.35-1.09-.91-2.5,1-3.28-9.77,2.54-15.23,2.7-18.8-4.92-3,.62-5.46,1.63-9.39,1.91a83.84,83.84,0,0,1-1.93,14c-9.87,1.74-17.91-.2-12.9-11.16-6,0-11.56-.92-17.55-1.46-2.65,4.3-5.06,8.22-10.16,11.27-9.32-.77-13.07-.47-16.12-9.41-1.48,1.64-3.65,3.73-5.08,5.63-19.44-1.61-20.93-18.77-1-15.56-8.73-3.09-11.84-3.35-9.74-12.25-8.89,0-12.33-.42-14.7-7.94-1.92,2.23-7.18-.85-6,6.91-8.62.78-14.7.24-15.9-8.6Z"/><path id="path4269" class="cls-11" d="M408.84,207.54c-1.85,1.78-3.07,3.88.06,6.73-3.39,10.66,1.1,14.33,12.93,17.91,2.32,2,8.88,3.38,9.87,8.39,2.72-.25,9.94,3.06,15-6.33,1.77.43,7.27-3.65,10.36,2.54,4.37-5.77,4.27-8.12,14.07-7.25,7.33,0,9.35.68,12.83-4-3.43-3.11,2.82-9.77-7.15-6.48-2.06-2.4.56-7.6-7-8.16-5.57-1-9.52-5.06-14.81,4.67-1.06-2.28-.68-4.88-3.26-7-1-.26-2-.64-3.06-1H436.53c-.39.18-.76.29-1.16.51a1.32,1.32,0,0,1-.91-.51H423.13c-3.48,1-4.87,3.58-7.87,0Z"/><path id="path4305" class="cls-12" d="M444.45,257.66c-1,5.59-5.67,1.68-8.47,2.51-10.14-4.85-11.42,1.65-14.34,6.85-10.09-3.85-14.82-.17-19.41,1.61,0,0-21.29,17.58,22.71,13.94,3.06-4.86,12.55-10,16.56-11.49,3.59-4.74,7.37-4.35,13.36-6.13,7.33,4.65,9.41,1.84,15.5,1.29-.13-7,6.34-5.22,8.87-7.3-6.28-7.62-11.85-7-19.57-2-9-6.33-8.88-3.93-15.21.75Z"/><path id="path4317" class="cls-13" d="M510.37,277.64c-5.19-1.84-9.45-2.9-15.22-.77-1.6-1.47-4.06-.72-4.73-4.36-2.52-1.23-5-3.15-8.83-2.71-4.71-.77-7.75-1.57-12.57,1.44a32.51,32.51,0,0,0-10-2.32c-4.14,2.19-8.75,4.56-13,6.36-5.65-1.05-5,.08-7.07,3.38,5.36,4.08,11.28,3.64,17.91,2.48,6,3.85,11.56,3.15,18.47,2.52,4-.13,6.93-1.26,10.4-2.61,5.54,3.08,11.24,3,17.95,2,8.72,1.76,13.83.21,6.67-5.39Z"/><path id="path4281" class="cls-14" d="M382.93,224.67c-4.89-.76-5.83,2.15-7.58,2.79-10.73-.9-10.44,1.37-13.5,7.72,6.63,3.81,12.42,2.63,19,3.57,2.39-2.3,5.85-4.08,8.77-6.12,5.52,4.4,8.59,3.89,18.19,2.08,2.56.48,3.26-2.39,1.29-4.46-9.24-10.63-18.25-8.51-26.16-5.59Z"/><path id="path4499" class="cls-15" d="M222.71,207.54a16.56,16.56,0,0,0-1.17,1.76c2.19,5.12,5.82,4.1,11.58,3.09,4.36,3.6,7.54,3.53,13.59,3.53,5.1,4.25,11.22,3.24,17.12,2.21,2.45.11,3.62-.58,5.54-.88,5.27,2.27,9.67,1.29,14.1-.44,7,3.9,8.38-2.53,9.06-3.53,4.7,1.82,7.45.06,10.57-1.76,4.2,1.6,8.39.73,12.59,0,3.36,3.89,6.33,3.55,11.07,4,3.83,3.72,8.45,4,14.1,3.53,6.41,5.33,15.25,5.17,23.16,3.09,7.77,3.26,15.49,3.48,24.17.44a37.54,37.54,0,0,0,24.67-2.2c6.17-1.62,11.26-1.8,16.11-5.73,7.37.59,15.73-2.24,13.62-7.06Z"/><path id="path4507" class="cls-16" d="M222.71,207.54a16.59,16.59,0,0,0-1.17,1.77c2.19,5.12,5.82,4.09,11.59,3.08,4.36,3.6,7.54,3.52,13.59,3.52,5.1,4.26,11.22,3.24,17.12,2.21,2.45.11,3.62-.57,5.54-.88,5.27,2.27,9.66,1.29,14.09-.44,7,3.9,8.38-2.53,9.06-3.53,4.7,1.82,7.46.06,10.58-1.76,4.2,1.6,8.38.73,12.58,0,3.36,3.89,6.33,3.55,11.07,4,3.83,3.72,8.45,4,14.11,3.53,6.41,5.33,15.25,5.16,23.16,3.08,7.77,3.26,15.48,3.48,24.16.44a37.53,37.53,0,0,0,24.67-2.2c6.17-1.62,11.26-1.81,16.11-5.74a23,23,0,0,0,9.78-1.29c-2.8-1.26-8.56.5-9.42-2.18l-4.24-3.58a47.23,47.23,0,0,1-9.21,1.32c-7.47,2-13.63,2.83-19.84-1.32h-2.44a14.09,14.09,0,0,0-2.89,2.65c-6.93,2.43-13.1,2-16.08-2.65H362.84a9.86,9.86,0,0,0-2.33,3.09,35.16,35.16,0,0,1-13.8-3.09Z"/><path id="path4167" class="cls-17" d="M19.48,207.54c-.13,5.54,1.62,8,6.18,10.27-6,11.9,4.07,12.61,11.88,17.06,1.19,1.18-.51,3.12-.6,3.68-.29,4,2.49,4.42,4.94,5.86-1.39,4,.73,3.58,2,5.33,3.64,1.21,7.58,0,10.73-1-.33,10.64,11.41,13.1,20.5,8.88,7.54,4,18.15,10.27,25.73,6.35,3.29-1.29,9.68-2.14,11.46-2.54,7.57,3.76,17.18,1.66,23.71.67,10,1.71,20.53-1.7,29.54-5.51,2.61,2.8,6.26,2,12.18,2.13,3.35-.11,5.88-1.72,8.52-3.09,5,.4,9.35-.14,13.14-2.29,9.66,6,17.79,3.7,24.49-.1,6,2.52,10.15,1.44,15.78.08,9.28,7.67,21.77-7.25,9.35-9.68-2.49-6.72-8.22-6.49-13.55-4.23-1.39-3-2.21-1.8-4.73-2.6-2-4.91-3.67-7.09-10.27-4.8-.34-5.36-2.23-9.93-8.73-6.72.14-2.89.71-3.72-2.83-5.27-2-6.69-6.63-9.15-11.81-2.88-3-1.22-3.42-2.87-5.38.34a28,28,0,0,0-10.45-1.15c-5.56-2.79-14.08-3.21-18.33,5.53-5.3.34-7.53,1.29-7.49,6.29-2.7-.06-4.41-.23-6.59.79-.9-2.35-.55-3.41-2.43-5.66,1.51-3.51,1.85-7.56-2.39-11.48,0-1.1.26-2.62.19-4.2Z"/><path id="path4169" class="cls-18" d="M19.48,207.54c-.13,5.54,1.62,8,6.18,10.27-6,11.9,4.07,12.61,11.88,17.06,1.19,1.18-.51,3.11-.6,3.67-.29,4,2.49,4.42,4.94,5.87-1.39,4,.73,3.58,2,5.33,3.64,1.21,7.59,0,10.73-1-.33,10.64,11.41,13.09,20.49,8.87,7.54,4,18.15,10.28,25.73,6.36,3.29-1.29,9.68-2.15,11.46-2.55,7.57,3.76,17.18,1.66,23.71.67,10,1.71,20.53-1.7,29.54-5.51,2.61,2.8,6.26,2,12.18,2.13,3.35-.11,5.88-1.72,8.52-3.09,5,.4,9.35-.14,13.14-2.29,9.66,6,17.78,3.7,24.48-.1,6,2.52,10.15,1.44,15.78.08,8.56,7.07,19.8-5.05,11.75-8.89-2.3,6.81-10.86,8.32-14.32,1.05-1.3-3.13-.7-3.86-5.29-4.75.25.42,2.75,1.46,1.86,3.15-5.34,4.66-17.57,5.25-16.45-4-3.3,2.88-6.14,4.88-11.32,4.72-5.42.34-9.38.26-12.27-3.58-9.17,9.12-31.31,12-27.73-5.14-6.43,3.65-18.63,9.87-23.53,2.23-3.29,5.31-22.59,12.54-26.06,11.11-11.91,12.82-26.33-.21-12.39-8.67-3.62-.4-6.61-.56-9.67-1.93-2.5,5.82-11.61,3.35-8.7,13.28-3.33-.08-4.4.89-6.36-2.14-12.4,6.4-20-6.18-4.92-5.51.21-.55-1.28-1.81.71-1.86-3.82-4.2-7-6.46-2.83-11.81-10.62.68-9.15,7-17.64,9.85.73-2.69,1.81-4.22,1.63-7-3.91-.67-9.23-3.17-8.87-8.89a17.09,17.09,0,0,1,8.89-3.84c-3.58-1.47-8.78-3.37-14.15-.55-8.1,2.49-10.79.08-10.46-7.7-3.64-1.16-6.54-1.92-7.43-4.81Z"/><path id="path4186" class="cls-19" d="M19.49,207.54c-.12,5.53,1.62,8,6.17,10.27-6,11.9,4.07,12.61,11.88,17.06,1.19,1.18-.51,3.11-.6,3.67-.29,4,2.49,4.42,4.94,5.87-1.39,4,.73,3.58,2,5.33,3.64,1.21,7.59,0,10.73-1-.14,4.59,2,7.65,5.12,9.31a10.22,10.22,0,0,1,7.92-7.32c-4-5.52-5-10.65,5.59-11.42-.31-.52-3.54-1.62-2.83-4.8,2.27-2.58,1.84-4.91,7.79-6.58-1.82-2.19.23-5.3-4.79-5.78-.72-2.43-2.95-5.7-1.23-9.33,2.78-3.7,3-5.35,9.16-5-2.14,0-4.18-.08-6.18-.22H59.87c-1.41,1.56-2.91,2.3-6.81,2.57-2.09.32-4.32-.14-6.26.95-4.71,8.58-20.69,10.94-20.45-3.52Z"/><path id="path4201" class="cls-20" d="M24.12,207.54c-3.55,7.56,16.09,24.53,19.75,7,10.33-.66,15.6-1,20.4-7H41.53c-3.19,1.65-6.4,2.27-8.83,0Z"/><path id="path4203" class="cls-21" d="M71.05,234.3c4.15,6.49.49,6.07-3.55,6.69-3.61,3-1.16,4.26-1.38,5.06-4,.65-4.3,1.6-7.19,2.94.73,4.3,2.51,3.91,6.57,5,.41-2,1.48-4.78,1.88-6.08,4.75.68,4.78-1.65,7.16-3.44a56.59,56.59,0,0,0,14.07-1.89,38.82,38.82,0,0,0,2.95-7.14C90.93,222.38,76.49,228.12,71.05,234.3Z"/><path id="path4213" class="cls-22" d="M96.4,243.32c1.27-8.19,6.75-7.19,12.16-8,3.33,2,5.91,1.9,8.62,2.77.81-3.42,4.84-5.65,6.55-7.61,4.71-1.94,11.26-.6,14-.34.56-3.79,3.87-3.89,5.29-5.32,5.88-.56,6.09,1.62,9.36,3.28,4,4.21,6.33-.4,7-.45-.55-6.39-.06-3.52,6-5.36,2.71-2.33,6-2,8.27-2.74,1.79,8-2,9.72-9.7,13.34,5.44,1,5.56,2.94,8.1,5.57,0,5.93-.23,5-7.32,6.55-3.35-1.43-2.72,6.54-5.41,5.34a37,37,0,0,0-9.86-2.15c-.44,8.11-8.57-3.5-17.73-2.19-21,2.44-12.4,9.09-20.49,9.6.34-3.21-1.43-4.77-1.79-6-10.17,10.68-12.68-.19-13.07-6.36Z"/><path id="path4235" class="cls-23" d="M90.6,207.54a1.86,1.86,0,0,1-.94,1.7c-10.46,2.62-15.79,8.59-2,14.17,0,0,8.22.86,7.63,5.53-1,6.3-1.52,7.88,8.74,11.48,9.34-.59,12.24-3.34,20.62-7.33-.2-1.35-8.81-1.37-1.34-9.61-21.51-3.55-6.47-16.51,7.14-13.49-1.52-.91-3.13-1.39-4.67-2.45Z"/></g></svg>