<?xml version="1.0" encoding="utf-8"?>
<!-- Generator: Adobe Illustrator 21.1.0, SVG Export Plug-In . SVG Version: 6.00 Build 0)  -->
<svg version="1.1" id="Layer_1" xmlns="http://www.w3.org/2000/svg" xmlns:xlink="http://www.w3.org/1999/xlink" x="0px" y="0px"
	 viewBox="0 0 353 246.1" style="enable-background:new 0 0 353 246.1;" xml:space="preserve">
<style type="text/css">
	.st0{fill:#9FDAE2;}
</style>
<path class="st0" d="M289.6,125.2h-30c0.5-2.3,0.7-4.7,0.7-7.2c0-19.3-15.6-34.9-34.9-34.9h-17.6c0-0.3,0-0.5,0-0.8
	c0-23.6-19.2-42.8-42.8-42.8h-13.6c-23.6,0-42.8,19.2-42.8,42.8c0,0.3,0,0.5,0,0.8h-0.6c-19.3,0-34.9,15.6-34.9,34.9
	c0,2.5,0.3,4.9,0.7,7.2H58.4c-19.2,0-34.7,15.6-34.7,34.7c0,19.2,15.6,34.7,34.7,34.7h231.2c19.2,0,34.7-15.6,34.7-34.7
	C324.3,140.7,308.8,125.2,289.6,125.2z"/>
</svg>
