<?xml version="1.0" encoding="UTF-8" standalone="no"?>
<!-- Generator: Adobe Illustrator 21.1.0, SVG Export Plug-In . SVG Version: 6.00 Build 0)  -->

<svg
   xmlns:dc="http://purl.org/dc/elements/1.1/"
   xmlns:cc="http://creativecommons.org/ns#"
   xmlns:rdf="http://www.w3.org/1999/02/22-rdf-syntax-ns#"
   xmlns:svg="http://www.w3.org/2000/svg"
   xmlns="http://www.w3.org/2000/svg"
   xmlns:sodipodi="http://sodipodi.sourceforge.net/DTD/sodipodi-0.dtd"
   xmlns:inkscape="http://www.inkscape.org/namespaces/inkscape"
   version="1.1"
   id="Layer_1"
   x="0px"
   y="0px"
   viewBox="0 0 717.5 355.79999"
   xml:space="preserve"
   sodipodi:docname="cowandsquirrel.svg"
   preserveAspectRatio="none"
   width="717.5"
   height="355.79999"
   inkscape:version="0.92.2 (5c3e80d, 2017-08-06)"><metadata
     id="metadata166"><rdf:RDF><cc:Work
         rdf:about=""><dc:format>image/svg+xml</dc:format><dc:type
           rdf:resource="http://purl.org/dc/dcmitype/StillImage" /><dc:title>Artboard 1</dc:title></cc:Work></rdf:RDF></metadata><defs
     id="defs164" /><sodipodi:namedview
     pagecolor="#ffffff"
     bordercolor="#666666"
     borderopacity="1"
     objecttolerance="10"
     gridtolerance="10"
     guidetolerance="10"
     inkscape:pageopacity="0"
     inkscape:pageshadow="2"
     inkscape:window-width="3840"
     inkscape:window-height="2004"
     id="namedview162"
     showgrid="false"
     fit-margin-top="0"
     fit-margin-left="0"
     fit-margin-right="0"
     fit-margin-bottom="0"
     inkscape:zoom="0.6503169"
     inkscape:cx="358.5"
     inkscape:cy="180.15"
     inkscape:window-x="-16"
     inkscape:window-y="-16"
     inkscape:window-maximized="1"
     inkscape:current-layer="Layer_1" /><style
     type="text/css"
     id="style2">
	.st0{fill:url(#path4897_1_);}
	.st1{fill:#66A02F;}
	.st2{fill:#669F2F;}
	.st3{fill:url(#path5741_1_);}
	.st4{fill:url(#path5756_1_);}
	.st5{fill:#3F6E35;}
	.st6{fill:#BABA1C;}
	.st7{fill:#60992D;}
	.st8{fill:#E2D973;}
	.st9{fill:url(#path5759_1_);}
	.st10{opacity:0.45;fill:#BCAAA4;enable-background:new    ;}
	.st11{fill:#EBE1CF;}
	.st12{fill:#2B2928;}
	.st13{fill:#E0E0E0;}
	.st14{fill:#616161;}
	.st15{fill:#424242;}
	.st16{fill:#C9C1B1;}
	.st17{fill:#F4987F;}
	.st18{fill:#F4EAD7;}
	.st19{fill:#FFAB91;}
	.st20{fill:#3D3A39;}
	.st21{fill:#EEEEEE;}
	.st22{fill:#DBD2C1;}
	.st23{fill:#1E1D1C;}
	.st24{fill:#FFFFFF;}
	.st25{fill:#694E2A;}
	.st26{fill:#634A28;}
	.st27{fill:#AE8247;}
	.st28{fill:#856336;}
	.st29{fill:#302F2B;}
	.st30{fill:#171615;}
</style><title
     id="title4">Artboard 1</title><g
     id="g159"
     transform="translate(-1.5,-5.8)"><g
       id="Layer_1_1_"><g
         id="g9867"><linearGradient
           id="path4897_1_"
           gradientUnits="userSpaceOnUse"
           x1="356.67761"
           y1="623.37231"
           x2="380.62769"
           y2="427.02231"
           gradientTransform="translate(0,-345.38)"><stop
             offset="0"
             style="stop-color:#4D912B"
             id="stop6" /><stop
             offset="0.54"
             style="stop-color:#85B736"
             id="stop8" /><stop
             offset="1"
             style="stop-color:#CACB3A"
             id="stop10" /></linearGradient><path
           id="path4897"
           class="st0"
           d="M 90.4,5.8 C 86.7,29.6 87.6,59.5 83.8,82.9 83.4,82 82.9,81.1 82.5,80.1 v 0 C 81.4,70 79.8,59.1 77.6,55.5 c 0,5.4 0.1,11 -0.2,16.2 -0.4,-4.3 -1.2,-8.6 -2,-14 -0.3,5.5 -0.5,13 -1.1,19.6 -0.3,1.1 -0.6,2.2 -0.9,3.3 V 34.9 C 71.7,51.4 69.5,68.5 69,87 67.4,76.7 66.6,64.8 62.4,61.9 c -0.9,8.2 -1.7,16.2 -2.6,25 -0.4,-1.2 -0.8,-2.3 -1.3,-3.3 0.5,1.2 0.9,2.4 1.2,3.6 -0.2,2.2 -0.4,4.2 -0.7,6.5 h -2 c -1,9 -2.3,15.7 -3.4,26.9 -0.7,-6.9 -1.5,-18 -2.1,-26.9 h -0.2 c -1.2,10.2 -2.8,20.1 -4,30.7 0.6,-9.2 1.5,-18 1,-28.1 -2.3,8.2 -3.9,16.8 -5.7,26.9 0,-9.8 0,-19.5 0,-29.2 -0.7,0.1 -1.4,0.1 -2.1,0.2 -2.6,17.7 -4.8,37.1 -7.3,54.5 0,-18.2 0.3,-36.4 -2.6,-51.2 -0.1,0.1 -0.2,0.1 -0.3,0.2 -0.5,9.4 -1,18.5 -1.5,28 -0.6,-9.1 -1.1,-17.2 -2.2,-25.6 -0.2,0.2 -0.5,0.3 -0.7,0.5 -1,8.4 -2.5,20 -2.8,30.2 -0.6,-9.1 -1.2,-17.6 -1.5,-26.4 -0.7,0.7 -1.3,1.4 -2,2.1 -0.6,8.9 -0.8,18 -0.6,28.2 -1,-7.6 -1.8,-14.8 -4.1,-20.5 0.7,10 2.2,18.8 1.9,32 C 14.7,135.4 11.8,128.8 8.9,122 6.3,126.7 4,131.5 2,136.5 v 225.1 h 717 v -216 c -6.7,-14.9 -13.7,-28.2 -21.4,-29.3 -9.2,0 -16.7,-33.5 -25.8,-25.9 -5.2,2.1 -12.2,33.3 -18,34.9 -5,-3.1 -10.4,7.1 -14.6,-9.1 -2.4,-1 -16.1,-9.3 -21.3,-13.6 H 615 c 0.1,-0.9 0.2,-1.9 0.3,-3.4 -1.7,-5.4 -3.8,-9.5 -4.7,-3.5 -0.1,1.5 -0.2,2.9 -0.3,4.3 0,-1.5 0.1,-2.9 0.3,-4.3 0.4,-4.5 -0.1,-9 -1.5,-13.3 -0.9,5 -1.5,6.2 -1.2,14.5 -0.4,-2.5 -1.2,-10.7 -3.2,-9.6 -0.5,3.7 -0.8,7.5 -0.8,11.2 -1.4,0 -2.1,0 -3.2,4 v -16 c -0.8,5.8 -1.9,10.4 -2.5,16.2 h -0.5 c 0,-13.4 -0.1,-26.9 1,-39.5 -1.3,12.4 -2.2,26.3 -3,39.5 h -0.2 c -0.4,-16.9 -0.2,-35 -1.8,-51.5 -2.2,-6 -4.7,-13.4 -8.5,-12 -0.2,1.2 -0.5,7.7 -1.7,10.6 1.1,-1.5 1.9,-3.2 2.3,-5 2.2,6.7 5,10.6 7,17.7 v 12.3 c -1.8,1.2 -3.5,2.6 -5,7.7 -0.8,6.5 -1.5,13.3 -2.1,20.2 h -0.6 c 0.1,-12.6 0.1,-25.1 -1.6,-34.7 0,11.4 0.3,23.5 -0.1,34.7 h -1.8 C 581,92.3 580,82.3 578.3,71.1 c 0.4,-3.2 0.7,-6.3 1.1,-9.5 -0.5,2.2 -1,4.5 -1.5,6.8 -2,-12.2 -4.6,-26 -8.4,-43.7 2.8,15.1 5.5,30.8 7.6,47.6 -1.9,10.1 -3.2,20.2 -3.8,30.4 h -1.1 c -0.8,-14.9 -2.1,-30.4 -2.4,-45.1 -0.3,14.1 -0.1,29.8 0.2,45.1 h -1.1 C 567.7,89.8 566.4,76.4 564,68 c 1.1,7.9 2.1,16.7 2.9,26 -1,2.9 -2.1,5.6 -3.1,8.5 0,-7.2 -0.1,-13.9 0.8,-20.1 -1.1,6.4 -2.4,12.7 -3.2,20.2 h -0.3 c -0.4,-5 -0.8,-10.3 -1.1,-15.8 0,4 0,8.1 0,12.4 -1.8,-0.7 -3.5,0.8 -5.4,1.6 0,-6.1 0.1,-10.3 -1,-15.3 -1.5,-0.6 -2.2,-2 -3.6,3.2 0,0 -2.6,-1.1 -3.6,-1.6 -0.9,-7.4 -0.8,-10.2 -3,-8.8 -1.2,2.1 -2.5,5.5 -0.8,16.1 -1.5,-4.5 -2,-5.9 -4.2,-4.8 -1.4,-5.8 -2.3,-9 -4.6,0 -1,-2.3 -3.1,-7.1 -5.3,-1 0,0 0,-0.1 -0.1,-0.1 -0.1,-5.1 0.2,-8.8 -1,-12.6 -1.2,2.7 -2.3,5.6 -3.1,8.5 -0.3,-0.2 -0.5,-0.4 -0.8,-0.6 -0.2,-2.9 -0.7,-5.8 -1.5,-8.7 -0.1,0.9 -1.4,3.1 -1,6.4 -1,-5.2 -0.7,-7.5 -2.8,-7.2 -0.1,2.4 0.2,4.7 0,7 -0.9,-0.2 -1.8,-0.3 -2.7,-0.4 0.1,-2.2 0.1,-4.5 0.3,-6.6 -0.4,2.2 -0.9,4.4 -1.3,6.7 -1.1,0.1 -2.2,0.2 -3.3,0.4 0.1,-5.8 0.4,-11.3 0.8,-17.1 -1.3,5.8 -2.3,11.6 -2.9,17.5 -1.5,0.4 -3,0.9 -4.5,1.4 -0.5,-6.3 -1.3,-12.7 -2.5,-18.9 -0.5,4.3 -1,7.5 -1.3,12.3 -1.2,-7.8 -2.7,-21.1 -5.4,-26.8 0,7.7 -0.2,20.2 -1.2,31 -0.4,-0.4 -0.7,-0.8 -1.1,-1.2 0.1,-8.8 -0.4,-17.6 -1.3,-26.4 -1.4,6.6 -2.8,13.4 -3.8,21.7 -0.2,-0.1 -0.4,-0.1 -0.5,-0.1 -0.7,-12.6 -1.7,-25 -1.4,-38.2 -1.2,9.2 -2.6,22.5 -4.1,32.3 -0.5,-9.6 0,-12.4 -2.5,-16.7 -0.6,5 -1.9,12.4 -1.9,19 V 47.7 c -1.4,3.6 -6.1,16.5 -7.3,26.8 -0.7,-12.9 -1.6,-26.3 -3.5,-37.9 -0.9,11.8 -1.1,24.3 -2.9,35.7 -0.5,-7 -0.4,-12.8 -1.9,-19 -0.7,5.9 -0.9,10.6 -2.5,14.5 -0.5,-7.8 -1,-16.6 -0.6,-25.7 -1.4,8.6 -4,15.5 -4.8,25.7 -0.6,-3.1 -1.8,-7.8 -2.1,-10.6 0.3,5 0.6,9.8 0.8,14.4 -0.2,-0.4 -0.5,-0.7 -0.9,-0.9 -2.6,2.7 -4.2,7.2 -4.7,19 -1.5,-8.2 -4,-4.6 -5.4,4.1 h -0.1 c 0.1,-6.4 0.2,-11.9 0.9,-16.7 -2.2,2.7 -4.3,6.6 -6.2,13.3 -0.1,-3 -0.2,-13 -0.8,-17.7 -0.3,4.9 -0.6,12.6 -1.1,18.3 -1.1,0 -2.3,0.4 -3.4,-0.6 1.8,-19.7 6,-34.5 7.2,-51.2 -4.9,16.9 -8.1,34.3 -9.7,51.8 0,-10.1 0.6,-20.3 1.7,-30.4 -1.9,5.2 -3.3,9.9 -3.8,20.2 -0.5,0.6 -0.9,3.8 -1.7,1.9 0.1,-4.2 0,-8.4 -0.3,-12.6 -0.3,0.8 -1.6,0.7 -1.4,7 -0.8,-7.8 -1.6,-12.7 -3.9,-13.9 -0.1,5.5 0.5,11.1 1.7,16.4 -0.9,3.3 -1.4,6.7 -1.4,10.1 -0.6,-3.9 -0.6,-6.1 -1.9,-6.3 -1.7,3.1 -1.8,5 -2.3,13.3 -1.3,-1 -3.2,-2.2 -4.9,-0.6 1.1,-1.9 1.5,-1.2 1.6,-7.6 -1.7,-5.2 -3,-5.7 -5.3,-2.5 0.2,-4.3 0.5,-9.5 0.3,-14.5 -1.5,2.7 -2.9,3.4 -3.1,12 -0.8,-7.7 -1.8,-15.4 -3.9,-17.7 -0.1,2 -0.7,9.8 -0.6,14.5 -1.5,-0.5 -2.4,-1.5 -3.6,3.8 0.7,-5.7 0.8,-11.4 0.3,-17.1 -1.8,1.5 -2.8,2.8 -3.8,10.8 0,-7.1 -0.1,-13 -1.6,-17.7 -0.2,1.6 -1.5,9.5 -1.1,15.2 -2.5,-4 -4.5,-9.6 -5,0.5 -1.6,-5.4 -3.2,-7.7 -5,-0.3 0.8,-6.7 1.9,-12.3 3.8,-15.4 -3,3.7 -5.6,7.6 -6.9,16.9 l -0.6,0.2 c 0.2,-8.6 0.6,-16.9 0.4,-26.8 -0.2,9.9 -0.9,24.3 -4.4,28.5 l -0.4,0.2 c 0,-10.5 0.2,-17.2 1.4,-26.3 -2.6,7 -4,17 -5.5,28 l -0.3,0.1 c 0.7,-13.3 1.7,-24.3 4.1,-35 -3.1,9.5 -7.5,15.9 -7.4,34.7 -0.5,-10.3 -0.5,-22.1 -2,-31.3 0,12.4 0.3,23.4 -1,34.1 l -0.8,0.3 c -0.4,-3.5 -0.5,-7.8 -2.1,-6.7 -0.2,0.8 -1.5,4.6 -2.4,8.5 l -4.1,1.7 c -0.3,-3.9 -0.8,-9.1 -1.7,-11.4 3.5,6.2 4.3,4 0.3,-6.9 1.1,-5.8 2.2,-6.6 1.4,-16.2 -2.5,3.1 -3,1.3 -3.4,15.1 -2,-18.6 -0.4,-7.3 -4.3,-4.6 0.5,2.5 1.2,11.8 3.4,11.6 -0.1,2.7 -0.7,7 -0.3,10.4 -1.1,1.3 -2,1.4 -2.9,2.6 -1.1,-0.8 -2.2,-1.6 -3.2,-2.2 -0.1,-0.9 -0.2,-1.8 -0.2,-2.7 -1,-1.8 -1,-9.6 -3.1,-5.8 1,-5.5 2.5,-3.8 1.4,-15 -2.3,4.2 -3.1,1.7 -3.7,15 -1.2,2 -2.1,0.5 -2.9,4.6 -0.7,-0.2 -1.3,-0.3 -2,-0.4 -1.2,-3.4 -2.5,-4 -5.1,-3.1 -0.2,1.2 -0.5,2.5 -0.8,3.8 -1.3,0.3 -2.5,0.8 -3.7,1.2 -0.3,-2.1 -0.7,-4.1 -1.2,-6.1 -0.4,2.4 -0.8,4.7 -1.2,7.1 l -0.8,0.3 c 0.2,-7.2 0.5,-13.9 0.6,-22.4 -1.4,7.3 -2.6,15.4 -3.7,23.6 l -1.2,0.4 c 0,-9.3 -0.1,-18.4 -0.9,-27.4 -0.2,9.6 -0.6,19.2 -1.6,28.1 -0.1,0 -0.1,0 -0.2,0.1 -0.2,-2 -0.3,-5.3 -1.3,-6.1 -0.4,2.2 -0.7,4.5 -1.1,6.7 -0.7,0.1 -1.4,0.2 -2.1,0.3 -0.4,-2.8 -1,-5.5 -1.7,-8.2 -0.6,2.6 -1.3,5.5 -2,8.5 -0.8,0 -1.6,0.1 -2.5,0.1 -0.4,-8.1 -0.6,-16.9 -0.4,-25.9 -1.1,8.1 -1.6,17.1 -2.4,26 -0.7,0 -1.4,0.1 -2.1,0.1 -0.7,-9.5 -1.5,-18.8 -2.3,-28.4 0.1,9.5 -0.4,19 -1.5,28.5 -0.6,0 -1.2,0 -1.8,0.1 -0.3,-3.4 -0.8,-6.8 -1.2,-10 -0.5,2.1 -1.4,6.3 -2.4,10.4 -1,0.1 -2,0.2 -3,0.3 0.4,-11.4 1.8,-22.7 4.2,-33.9 -2.4,10.9 -5,21.1 -6.7,34.2 -0.3,0.1 -0.6,0.1 -0.9,0.1 -0.1,-1.1 -0.2,-2.2 -0.4,-3.4 0,-0.2 0,-0.4 0,-0.5 0,0.1 0,0.1 0,0.2 -0.8,-6.3 -1.2,-12.6 -1.2,-18.9 0,8.3 -0.2,15.3 -0.4,23 -1,0.2 -2,0.4 -2.9,0.6 -0.7,-2.8 -1.6,-5.1 -2.6,-5.9 -0.4,2.2 -0.7,4.4 -0.9,6.5 -0.2,0.1 -0.5,0.1 -0.7,0.1 l -1.8,-6.7 c -0.4,2.2 -0.8,4.6 -1.2,7.3 l -2.1,0.4 c -0.3,-1.5 -0.6,-3.1 -0.9,-4.9 -0.4,1.9 -0.6,3.6 -1,5.2 l -1.6,0.3 c -0.2,-2.6 -0.3,-5.3 -0.3,-7.9 -1,2.9 -2,5.9 -3,8.5 -0.2,0.1 -0.4,0.1 -0.6,0.1 -0.2,-3.5 -0.4,-7.5 -0.3,-11.5 -1.1,4.1 -1.9,8.3 -2.4,12.6 -0.1,0.4 -0.3,0.7 -0.5,1 0.1,-8.3 -0.3,-16.7 -1.2,-25 -0.2,9.5 -0.2,19.5 -1.8,25.8 -0.4,-0.1 -0.8,-0.2 -1.1,-0.3 -0.1,-3.9 -0.1,-7.8 -0.3,-11.7 -0.4,3.5 -0.8,7.3 -1.2,11 -0.2,-0.1 -0.4,-0.1 -0.6,-0.2 -0.2,-4.8 -0.4,-9.5 -0.8,-14.1 -0.2,5.7 -0.6,11.9 -1.5,18.5 -0.6,5.1 -4.1,-0.4 -5.3,4.4 -0.6,-1.9 -1.1,-6.7 -2.2,-7.1 -0.8,4.3 -1.3,10.8 -2.9,9.8 V 92.2 c -1.6,8.6 -2.3,14.5 -3.9,23.1 0.3,-11.9 0.1,-20.6 1.5,-30.2 -2.3,8.1 -3.9,19.9 -5.3,34.6 0.3,-10.9 0.2,-23.4 0.2,-35.5 -0.9,12.7 -1.9,27.4 -3.7,40 0.8,-11.2 1.1,-24.4 0.9,-38.2 -0.8,11.1 -2.1,22.6 -3.1,34.6 0,-13.5 -0.1,-27.1 0.2,-40.4 -0.1,0 -0.1,0.1 -0.2,0.1 -2.8,5.7 -4.1,18.8 -5.2,31.4 V 93 c -0.9,7.9 -1.6,16.4 -3.9,20.4 V 89.2 h -0.4 c -2.6,9.4 -4.1,19 -4.6,28.7 -0.6,-8.4 -0.9,-19 -2.4,-25.7 -0.4,7.1 -1,12.3 -1.3,19.5 -0.9,-7.1 -1.3,-16.5 -3.3,-18.6 -0.2,6.3 -0.4,13 -0.2,19.5 -1.2,-7 -2.4,-13.8 -3.7,-20.3 0.7,8.2 1.1,17.1 1.2,26.7 -2,-10.5 -1.6,-19.6 -5,-18.8 -0.3,2.4 -1.2,4.8 -1.1,9.8 -0.4,0.3 -2.2,0.1 -3,4.5 -0.9,-4.6 -0.3,-7.5 -2.6,-6 -0.1,-1.5 0,-3 0.2,-4.5 0.6,-0.5 1.4,1.1 1.9,-1.5 0.1,-5.1 0.5,-11.5 -0.6,-16.6 -1.9,0.8 -3.1,2.4 -4.6,6.8 -1,-3.9 -0.5,-7 -2.8,-5.3 -1.1,4.4 -1.9,9 -2.2,13.6 -1.1,-9.2 -2.1,-14.8 -4.8,-8.3 0,1.4 -0.6,6.8 0.2,9 -1.2,2.2 -2.2,2.8 -3,8.3 -0.6,-3.2 -0.5,-7.1 -1.7,-9 0.5,-6.9 1,-11.7 -0.8,-13.6 -0.4,0.1 -0.7,0.3 -1.1,0.5 -0.7,3.6 -1.2,7.2 -1.4,10.8 -1.6,3.5 -2.2,4.6 -2,12.8 -0.7,-3.4 -1,-7.1 -2.6,-6.8 -0.4,-5.2 0.1,-7.8 -1.5,-8.3 -1.4,6 -2.4,12 -3.2,18.1 -0.6,-2.9 -1.4,-7.5 -2.4,-9.8 -1,7.5 -1.4,17 -3.5,21.1 -0.3,-5.5 -0.2,-11.4 -0.9,-16.6 -1,3.5 -1.7,7 -2.2,10.5 0.1,-5.8 0.3,-10 0.7,-15.3 l -0.8,0.2 c -2,6 -4.1,12.4 -5.9,19.6 -0.4,-5 -0.5,-9.5 -1.7,-13.6 -0.5,3.8 -0.6,7.4 -1.9,10.5 -0.3,-5.5 -0.6,-11.4 -1.2,-16.7 l -0.6,-2.1 c -0.7,5.7 -1.1,11.5 -1,17.3 -0.5,-10 -1.6,-19.3 -2.1,-29.2 -0.7,-3.2 -1.4,-6.5 -2.1,-10.3 -1.3,4.1 -2.4,9.6 -3.8,11.9 -1.7,-6.4 -3.2,-15.3 -5.6,-16.2 -0.7,1.8 -1.2,4.4 -2,5.4 -0.5,-4.8 -0.7,-12.6 -2.3,-16.2 -1.4,4.6 -2.5,7.6 -4.3,13 1.1,-15 3.7,-27.4 5.3,-44.3 -4.6,14 -10,25.5 -12.4,49.7 -0.6,-2.8 -0.7,-7.8 -1.8,-8.6 -0.7,5 -0.9,10.2 -2.3,14 C 100.4,79.5 99.7,68.1 98,59.6 96.4,68 93.9,76 93.2,87.8 93.2,75.8 93.8,65.5 94.5,54.3 91.7,59.6 91,70.1 88.4,78.1 87.9,54 88,27.6 90.4,5.8 Z m 188.4,77 c 0.2,-0.5 0.3,-1.1 0.5,-1.5 -0.3,-2 -0.4,-0.8 -0.5,1.5 z m 281.3,1.8 c -0.1,-5.2 -0.2,-10.3 -0.6,-15.2 0,4.9 0.3,10.1 0.6,15.2 z m 23.6,-36.1 c -0.3,0.5 -0.7,1 -1,1.4 0.4,-0.2 0.7,-0.7 1,-1.4 z m 9.3,25.3 v 26 h -4.3 c 0.1,-4.8 0.3,-9.5 0.8,-14.2 0.9,-4.5 2,-9 3.5,-11.8 z m -15.3,1 c 0.4,3.6 0.8,7.3 1.2,11 -0.6,4.6 -1.2,9.3 -1.8,14 h -1.3 c 0.3,-8.6 1,-16.8 1.9,-25 z M 461.9,85.4 c 1.6,0.4 3,1.5 3.8,3 -1.3,0.5 -2.5,1 -3.8,1.4 0,-1.5 0,-2.9 0,-4.4 z m 105.5,11.8 c 0.1,0.9 0.1,1.8 0.2,2.6 h -0.3 c 0,-0.9 0,-1.7 0.1,-2.6 z"
           inkscape:connector-curvature="0"
           style="fill:url(#path4897_1_)" /><path
           id="path5685"
           class="st1"
           d="m 409.4,94.4 c -1.1,-2.9 -0.4,-5.4 0.4,-8 -4.6,1.8 -6.7,4.7 -8.8,7.7 -0.7,-2.8 -3.4,-5 -5.7,-6.5 0.2,2.3 -0.1,4.7 -0.9,6.9 -1.3,-2.5 -3.1,-4.8 -5.3,-6.5 -2.6,0.3 -3,3.7 -3.1,3.9 -4,-1.8 -4,-3.9 -4,-7.1 -3,3.1 -4,7.8 -5.3,11 -2.7,-2.6 -6.4,-3.5 -10.1,-4.8 1.8,2.2 1.8,4.8 1.8,7.4 -1.5,-1.5 -3.8,-1.4 -5.7,-2.1 -1.5,0.7 -0.6,1.8 -0.9,2.7 -4.8,-0.2 -10,0.1 -14.5,0.3 1.1,0.7 2.3,1.3 3.5,1.8 -7.8,-0.2 -18.7,-0.2 -24.7,0.9 2.2,0.7 4,1.5 5.7,2.1 -10.4,3 -19.5,7.8 -30,10.1 8.5,2.1 15.3,-0.7 22.5,-2.7 2.5,-0.8 4.9,-1.4 7.5,-2.1 0.4,2 1.6,3.6 2.6,5.4 2.9,-0.1 6.2,-2.6 8.8,-3.9 v 3 c 6.8,-5.3 10.8,-6.9 21.2,-8 -5.1,0.7 -9.4,4.1 -11.4,8.9 2.3,-0.4 4.5,-1.2 6.6,-2.4 0.6,2 1.2,3.7 1.8,5.6 4.6,-4.1 7.9,-10.2 10.1,-13.7 0.9,5.3 -1.1,10.1 -3.1,14.6 2.6,-1.5 4.9,-3.3 7,-4.8 -0.2,1.9 -0.2,3.7 -0.4,5.6 6.2,-3.5 8.2,-8.9 8.8,-14 0.6,5.1 -0.2,10.2 -2.2,14.9 5,-5.2 10.1,-10 17.6,-12.8 -7.2,2.3 -7.2,7.2 -7.9,11.9 2.5,-1.5 5.6,-1.8 8.4,-2.4 3.3,0.7 3.9,2 5.3,3.3 1.2,-3.1 0.2,-5.5 -0.9,-8 3.7,1.5 5.2,4.4 6.6,6.9 2.1,-3 1.8,-6 1.8,-9.2 3.1,3 3.4,6.1 4.9,9.5 2.4,-3 6.7,-5.5 9.7,-7.7 -0.8,2.7 -1.4,5.5 -1.8,8.3 4.7,-2.2 7.7,-4.1 12.8,-5.6 -1.9,-1.3 -3.8,-0.2 -5.7,-0.3 4.7,-6.2 6.1,-12.8 4,-19.9 1.2,5.1 -1.4,8.8 -4,12.8 -0.6,-7.5 -2.7,-16 2.6,-22 -7.3,4.7 -5.5,11.4 -7.9,17 -2.1,-3.2 -3.1,-6.2 -5.3,-9.2 0,3.1 -2.6,5.5 -4.9,7.7 2.1,-3.3 -2.1,-11.9 -3.1,-5.4 -1.1,1.9 -4.1,3.5 -4.9,4.2 z"
           inkscape:connector-curvature="0"
           style="fill:#66a02f" /><path
           id="path5761"
           class="st2"
           d="m 313.3,97.7 c -0.1,0 -0.2,0 -0.3,0 -3.4,1.9 -5,6.4 -6.4,10.7 V 102 c -1.1,2.7 -2,5.6 -4.8,6.9 v -8.2 h -0.5 c -2.8,2.6 -4.7,6 -5.6,9.8 -0.7,-2.9 -1.1,-6.5 -2.9,-8.8 -0.4,2.4 -1.2,4.2 -1.6,6.6 -1.1,-2.4 -1.6,-5.6 -4,-6.3 -0.3,2.2 -0.4,4.4 -0.3,6.6 -1.5,-2.4 -2.9,-4.7 -4.5,-6.9 0.8,2.9 1.3,6 1.4,9.1 -2.5,-3.6 -1.9,-6.7 -6.1,-6.4 -0.3,0.8 -1.4,1.6 -1.4,3.3 -0.5,0.1 -2.7,0 -3.6,1.5 -1,-1.6 -0.4,-2.5 -3.2,-2 0.1,-0.5 -0.2,-1.1 0.2,-1.5 0.8,-0.2 1.7,0.4 2.3,-0.5 0.1,-1.7 0.6,-3.9 -0.7,-5.6 -2.1,0.1 -4.1,1 -5.7,2.3 -1.2,-1.3 -0.6,-2.4 -3.4,-1.8 -1.2,1.3 -2.2,2.9 -2.7,4.6 -1.4,-3.1 -2.6,-5 -5.9,-2.8 0,0.5 -0.8,2.3 0.2,3.1 -1.5,0.7 -2.6,1 -3.6,2.8 -0.7,-1.1 -0.6,-2.4 -2,-3.1 0.6,-2.3 1.2,-4 -0.9,-4.6 l -1.4,0.2 c -0.8,1.1 -1.3,2.4 -1.6,3.7 -1.9,1.2 -2.7,1.6 -2.5,4.4 -0.9,-1.2 -1.2,-2.4 -3.2,-2.3 -0.4,-1.8 0.1,-2.6 -1.8,-2.8 -1.6,1.9 -2.9,3.9 -3.9,6.1 -0.8,-1.3 -1.8,-2.4 -2.9,-3.3 -1.3,2.6 -1.8,5.8 -4.3,7.2 -0.3,-1.9 -0.3,-3.9 -1.1,-5.6 -1.1,1 -2,2.2 -2.7,3.6 0.1,-1.8 0.4,-3.5 0.9,-5.2 l -0.9,0.1 c -2.6,2 -5,4.3 -7.2,6.7 -0.1,-0.4 -0.2,-0.7 -0.2,-1 0.1,3.1 0.1,6.3 0.4,8.9 1.7,-2.5 3.3,-5.8 4.7,-8.2 0.9,4.8 2.3,9.4 4.3,13.9 1.9,-1.8 2.4,-4 3.2,-6.5 1,2.8 1.7,5.2 2.5,7.3 2,-5.9 4,-12 6.5,-17.5 -2.9,10.5 -4,21.5 -0.7,31.8 3.8,-3.8 6.6,-9.2 9.8,-13.9 -0.2,3.3 -0.6,7 -1.1,10.2 1.2,-2 2.3,-4 3.2,-6.1 0.8,2.2 0.7,4.4 1.1,6.5 2.8,-0.2 4.4,-3.9 6.1,-6.1 0.2,2.2 1,4.2 1.4,6.5 0.4,2 1,3.9 1.8,5.7 1.3,-3.2 2.8,-6.3 4.5,-9.4 0.9,-3.4 3.1,-6.3 6,-8.2 -2.4,2.4 -4.4,5.2 -6,8.2 -1.3,4.3 -1.2,9.2 -1.2,13.4 3.1,-1 4.7,-4.5 6.5,-6.5 0.3,1.5 0.6,3 1.1,4.5 4.1,-4.3 7.2,-9.4 9,-15.1 0.6,4.1 0.4,8.4 0.4,12.6 4.4,-5.8 6.4,-15 6.9,-20.8 0.4,3.9 1.2,7.9 1.8,11.4 1.6,-5.3 4.4,-9.6 6.9,-14.3 -2.7,6.5 -3.2,13.3 -3.2,20.8 2.7,-0.6 3.6,-2.5 5.4,-3.7 -1.1,-3.1 -1.6,-6.5 -1.5,-9.8 2.2,0 3.2,1.6 4.7,2.9 -2.4,-3.7 -1.2,-7.2 -0.4,-10.2 2.6,0.5 3.2,3 4.3,4.9 0.7,-3 1.8,-5 2.9,-7.8 2.7,1.3 1.8,4.4 1.8,8.2 1.1,-1.7 2.6,-1.6 4,-2.5 -4.4,-3.7 -4.1,-7.8 -3.6,-13 3.4,0.1 2.7,1.1 4.7,4.1 0.8,-2.7 1.5,-5.3 2.1,-7.7 -0.6,1.7 -1.2,3.4 -1.7,5.1 0,-4.6 -0.1,-9.2 0.2,-13.8 z"
           inkscape:connector-curvature="0"
           style="fill:#669f2f" /><linearGradient
           id="path5741_1_"
           gradientUnits="userSpaceOnUse"
           x1="439.90131"
           y1="423.1442"
           x2="512.61133"
           y2="418.92419"
           gradientTransform="translate(0,-318.36)"><stop
             offset="0"
             style="stop-color:#74A928"
             id="stop16" /><stop
             offset="1"
             style="stop-color:#BABA1C"
             id="stop18" /></linearGradient><path
           id="path5741"
           class="st3"
           d="m 509.9,115.5 c 0.9,-0.7 3.2,-0.2 2.6,-2.3 1.5,0.2 6.8,1 9.8,-0.2 -2.1,-2.8 -4.4,-5.4 -8.4,-5.2 3.8,0.3 7.4,1.1 7.7,-2.4 -2.2,-1 -4.5,-2.4 -7.5,-2.4 0.1,-1 0.1,-2.1 0,-3.1 -3.1,0.3 -5.2,0.3 -6.7,3.2 -0.4,-4.6 0.4,-8.4 1.3,-12.8 -2.1,3.9 -3.9,8 -5.2,12.3 -0.7,-7.1 -1.1,-13 -5,-19.4 4.5,5.1 4.4,14.6 0.2,19.5 -0.8,-0.6 -1.7,-1 -2.7,-1.4 0.3,-2.3 0,-4.6 1,-6.8 -1.7,1.1 -4.2,2.2 -4.6,4.9 -0.4,-3.9 -0.6,-7 1.9,-10.2 -3.1,1.3 -4.5,3.4 -5.7,7.2 -0.3,-3 -1.1,-8.7 0.1,-12.2 -3.1,5 -4.7,8.8 -2.7,14.8 -0.9,0.9 -2.6,0.6 -2.6,2.6 -1.1,-2.2 -1.1,-4.1 -4.5,-4.2 -0.7,1 -2.6,1.4 -1.5,4.3 2.1,1.7 2.9,1 2.3,4.2 -3,0.3 -5,0.5 -6.4,2.7 -1.2,-2.5 -2,-4.6 -5,-5.9 0.4,-1 2,-3.8 0.4,-6 -2.8,0.8 -4.4,1 -6.6,3.5 -2.2,0.4 -4.2,0.5 -6.2,1.5 l -0.2,-2.5 c -2.5,0.7 -4.8,1.7 -7,3 -0.5,-2.3 0,-2.8 -2.6,-3.6 -0.8,1.9 -1.5,3.4 -2.4,5.4 1.1,0.7 -4.4,-8.6 -10.2,-10.6 2.9,3.7 3.5,6.9 3.9,11.2 -1.4,-0.7 -2.8,-1.3 -4.3,-1.9 -2.7,-0.6 -3.8,0.8 -5.3,1.5 1.1,2.5 4.9,2.7 6,3 -3.2,1 -2.9,2.4 -3.4,4.6 2.5,0.9 5.3,0.5 8,0.4 -6.5,-1 -8.6,3 -8.1,8.4 3.9,0.1 7.2,-2.2 9.5,-4.1 l 0.4,4 c 3.5,-0.1 5.9,-2.6 7.7,-5.5 0.3,2.2 2.1,2.6 3.2,3.6 0.5,-1.5 2.9,-3.1 4.1,-4 0.7,-3 -0.3,-2.8 -2.9,-4.2 7.5,0.6 12.1,5.3 15.3,11 0,-1.9 0.2,-3.8 0.7,-5.7 0.5,2.2 2.8,3.7 4,5 -1,-3.4 0.8,-5.4 2.7,-8 -0.1,2.1 1.2,3.8 2.1,5.6 0.7,-5.1 5,-7.8 8.6,-10.1 -2.8,2.9 -2.3,5.9 -2,9.7 1.7,-3.8 4.8,-6 8.1,-8.1 0.4,2.2 2.2,4.7 3.1,5.9 3.1,-1 4.5,-3.1 5.9,-4.9 0.9,4.3 5.3,3.8 9.1,4.7 z"
           inkscape:connector-curvature="0"
           style="fill:url(#path5741_1_)" /><linearGradient
           id="path5756_1_"
           gradientUnits="userSpaceOnUse"
           x1="227.71851"
           y1="448.9913"
           x2="188.7885"
           y2="494.41119"
           gradientTransform="translate(0,-318.36)"><stop
             offset="0"
             style="stop-color:#49803E"
             id="stop22" /><stop
             offset="1"
             style="stop-color:#3F6E35"
             id="stop24" /></linearGradient><path
           id="path5756"
           class="st4"
           d="m 219.1,101.4 c 0,13.5 0.6,26.3 -3.5,38.9 -1,-6.2 -1.7,-12.7 -3,-18.9 -1.4,6 -3.7,12.9 -4.3,19.5 0,-13.3 -0.2,-27 2.2,-38.9 -3.8,13.4 -7.8,29.5 -9.5,43.4 -2.3,-9.9 -1,-23.5 -1.3,-35 -0.7,11.2 -2.6,22.8 -3.3,34.5 0.2,4.4 0.2,8.9 -0.1,13.3 -0.2,-4.4 -0.1,-8.9 0.1,-13.3 -0.7,-11.9 -3.5,-23.8 -9.6,-32.9 4.4,13.5 3.8,31.6 1.3,46.1 0,-10.2 0.3,-20.1 -2.6,-29.5 -0.7,-3.7 -1.1,-7.4 -1.3,-11.1 -1.7,5.9 -4.1,12.3 -5.2,18.3 -0.1,-6.1 0.2,-12.3 0.9,-18.3 -4.8,10.2 -9.2,21.5 -10.4,33.4 -0.3,-0.4 -3.8,-6.7 -5.6,-6.7 -0.5,4.2 -0.9,8 -2.2,12.2 -1,-7 -2,-14.3 -4.8,-20.6 0,7.4 -1.1,10.1 -4.8,16.1 0,-10.8 1.1,-21.7 3.5,-32.2 -5.9,13.1 -7.8,29.4 -12.5,42.2 -1,-7.6 -1.2,-15.2 -0.4,-22.8 -2.1,9.3 -3.4,17.9 -4.8,27.2 -2.7,-5.7 -3.2,-12.2 -6.9,-18.3 2.2,6.7 3.6,13.6 3.9,20.6 h 139.9 c 0.6,-3.9 1.9,-7.7 3.9,-11.2 -5.1,0.7 -8.4,2.4 -13,5.6 1.2,-2.1 2,-4 3.5,-6.1 6,-10.2 13.5,-6.5 21.6,-4.5 -10.6,-7.6 -19.4,-11.2 -29.4,-0.5 5.6,-9.6 14.7,-12.8 22.9,-18.4 -11,0 -20.9,4.5 -29.8,13.3 4.1,-5.6 6.8,-12.1 7.8,-18.9 -3.2,6.2 -8,12.5 -13.8,14.5 0.9,-2.6 2.1,-6.4 4.3,-8.9 -2.9,1.5 -6.5,2.1 -8.6,6.1 1.4,-5.9 3.6,-8.8 3.9,-15 -3.7,3.9 -10.7,9.3 -14.7,15 -0.4,-5.2 -0.4,-10.5 -1.7,-15.6 -1.4,6.1 -3.7,13.1 -4.8,19.5 -0.1,-12.3 -0.9,-29.6 -7.8,-42.1 z"
           inkscape:connector-curvature="0"
           style="fill:url(#path5756_1_)" /><path
           id="path5787"
           class="st5"
           d="m 35.2,102 c 4.8,14 11,37.6 1.5,50.2 0,-6.5 0.6,-13.3 -1.5,-19.3 0,7.9 -0.5,15.9 -3.8,22.7 0,-6.7 -0.3,-13.3 -0.8,-19.8 -1,6.9 -1.2,14 -3.4,20.8 0,-14 -0.9,-26.5 -6.4,-39.1 1,13.4 1.7,30.3 -5.3,40.6 -0.4,-3.1 -1.3,-5.9 -1.9,-9.2 -1,3.2 -2.9,7.5 -2.6,11.6 -0.9,-1.5 -2.6,-4.3 -3.8,-6.3 -1.8,2.9 -3.8,5.9 -5.7,8.8 v 5.8 h 92.2 c 0.7,-1.1 1.2,-2.3 1.5,-3.6 0.5,-2.4 0.9,-4.8 1.1,-7.2 -2.3,1 -4.7,1.9 -7.2,2.9 1.1,-3.5 1.9,-7.7 3.4,-11.6 h 5.7 c -2.3,-1.3 -3.8,-3.5 -6.8,-2.9 -4.2,2.4 -9.1,5.5 -11.3,11.6 1.7,-10.9 8.5,-18.4 6,-30.9 -1.6,10.9 -5.2,20.1 -12.4,27 v -9.2 c -1.5,2.5 -3.4,4.3 -4.9,7.2 1.3,-8.3 2.5,-13.7 7.5,-18.5 -3.9,2.9 -8.1,4.6 -10.9,9.8 0,-5.8 0.9,-9.6 0.8,-15.5 -1.4,2 -3.9,4.3 -4.5,8.2 0,-8 -0.3,-16.4 0.4,-24.1 -2.3,4.3 -4.2,8.9 -5.6,13.6 -1.3,-3.6 -1.6,-7.3 -3,-11.1 -0.5,3.2 -0.9,6.7 -1.5,10.1 -2.3,-7.6 -3.8,-15.7 -7.2,-22.7 1,13.5 8.8,29.4 2.3,45.9 C 47.2,131.5 43,115.1 35.2,102 Z m 41.4,31.6 c 0.9,-0.7 1.8,-1.4 2.7,-2.2 -1,0.7 -1.9,1.4 -2.7,2.2 z"
           inkscape:connector-curvature="0"
           style="fill:#3f6e35" /><path
           id="path5800"
           class="st6"
           d="m 561.3,92.3 c 0.5,-1.7 1.5,-2.9 1.5,-5 -2,2.5 -4.1,2.2 -3.4,7.7 0,-4.9 0.2,-9.1 -2,-13.2 0,4.5 0.8,11.4 -3.4,12.1 -0.6,-0.5 -5.2,3 -2.4,-2.2 1.2,-1 1.8,-3 3.9,-3.3 -2.3,0.6 -4.7,-1.2 -6.3,1.6 -0.8,-1.5 -1.5,-4.6 -3.4,-6.1 -0.9,2.2 0.8,5.1 -2.4,6.1 -1.1,-2.9 -1.1,-5.9 -3.9,-8.3 v 10.5 c -1.4,0 -1.7,1.3 -3.4,0 0,0 -2.4,-3.2 -5.4,-1.6 -1.1,1.6 -4.4,1.2 -3.4,5 -0.8,-0.4 -2.9,-2.2 -4.4,-2.2 0.2,-0.9 0.2,-1.9 0.5,-2.8 -0.5,-0.4 -1.1,-3.8 -2.9,-2.2 -0.7,2.2 -3.8,2.8 -2,6.6 -2,-2.2 -3.4,-5.2 -6.4,-6.6 -1.6,4.3 0.9,4.7 2,7.2 -4,-1.6 -3,2.4 -4.9,3.9 2.3,2.5 4,0 6.3,0 h 3.4 c -4.3,1 -2.2,3.1 -3.4,5 3.1,0.7 4.9,-1 7.3,-2.2 -0.1,1.7 1,2.6 1.5,3.9 0.6,-4.2 2.4,-5.5 4.9,-8.3 2.7,-1 2.8,2.4 3.9,3.3 v -8.3 c 1.3,2.4 2.4,4.3 3.4,6.1 -3.9,-5.3 0.3,-1.5 0.5,-2.2 2.5,-0.5 3,0.7 4.9,1.1 3.9,-3.6 1.6,1.8 2,2.2 3.1,1.7 7.1,1 10.7,0.5 1.9,-1.1 3.8,-2 5.9,-2.8 6.9,-0.2 4.7,-2.1 0.8,-5.5 z"
           inkscape:connector-curvature="0"
           style="fill:#baba1c" /><path
           id="path5802"
           class="st7"
           d="m 429.4,134.7 c -1.7,-2.4 -3.2,-6.8 -4.5,-8.6 1,2.4 1,5 1.3,7.7 -2,-1 -4.1,-1.7 -6,-2.6 2.2,1.4 2.9,4.2 3.6,6.7 -3.9,-1.1 -8.1,-1 -11.9,0.5 2.4,-0.2 4.8,0.9 7,1.7 -3.5,0.5 -6.9,3.6 -9.1,5.5 3.9,0.4 7.5,-0.7 11.3,-1.4 -0.1,-0.9 0,-1.8 0.2,-2.6 0.9,0.8 1.7,1.6 2.5,2.4 2.2,-1.4 2.1,-3.6 2.5,-6.2 1.4,0.1 2.6,0.3 4,0.5 0.4,-2.1 -0.4,-2.2 -0.9,-3.6 z"
           inkscape:connector-curvature="0"
           style="fill:#60992d" /><path
           id="path6007"
           class="st8"
           d="m 673.3,97 c -3.5,-1.6 -6.4,-3 -10.2,-2 -0.8,-3 -0.9,-9.1 -0.6,-13.8 -2.1,4.8 -4,9.4 -4.1,14.8 -2,-3 -2.9,-3.5 -6.1,-4.3 -0.6,0.8 -1.9,1.8 -2.3,3 -0.9,-2.5 -1.6,-5 -4.1,-5.9 -0.9,1.6 -1.5,3.2 -2,4.9 -0.7,-4.4 -0.8,-8.8 -0.3,-13.2 -1.6,4.1 -3.8,8.9 -5,14.5 1.2,-5.5 0.1,-13.6 4.4,-18.8 -2.5,2.7 -4.6,5.8 -6.1,9.2 0.4,-4.5 1,-8.8 3.8,-12.5 -5.2,5.2 -9.1,13.6 -10.5,21.4 0.3,-4 0,-8 -0.9,-11.9 -0.6,3.5 -1.3,7.1 -3.5,9.9 0.9,-4.1 0.6,-8.3 -0.3,-12.8 -0.2,1 -1.3,5.2 -2,7.2 0,-4.9 -0.1,-9.8 0.3,-14.5 -4.3,5.9 -6.3,13.1 -5.6,20.4 -1.8,-6.4 -3.9,-13 -7.3,-18.1 3.5,7.3 3.9,15 5.2,22.7 -1.8,-1.8 -3.9,-3.4 -6.2,-4.6 -0.8,1.6 -0.6,3.2 -0.6,4.9 -0.3,1 0.6,1.1 0.9,1.6 -3.7,-4.5 -7.8,-3.9 -10.8,-1.3 1.2,3.1 4.3,4.5 6.4,5.6 -4.1,-0.6 -4.1,2 -4.1,5.9 4.2,-0.8 7.6,-0.7 11.4,-3.3 0.9,3 3.3,5 5.2,6.9 6.2,0.8 10.3,-6.9 16.6,-8.2 0.2,2.4 1.8,3.8 2.9,5.6 5.7,-5.1 12.3,-8.2 20.1,-8.2 5.1,-3.3 10.3,-5.2 15.4,-5.1 z"
           inkscape:connector-curvature="0"
           style="fill:#e2d973" /><linearGradient
           id="path5759_1_"
           gradientUnits="userSpaceOnUse"
           x1="624.26501"
           y1="445.82401"
           x2="634.04498"
           y2="399.02399"
           gradientTransform="matrix(1.06,0,0,1.06,-39.95,-317.9679)"><stop
             offset="0"
             style="stop-color:#4D912B"
             id="stop32" /><stop
             offset="0.54"
             style="stop-color:#85B736"
             id="stop34" /><stop
             offset="1"
             style="stop-color:#CACB3A"
             id="stop36" /></linearGradient><path
           id="path5759"
           class="st9"
           d="m 672.1,125.5 c 5.4,-2.2 10.9,-4 16.5,-5.4 -6.7,-0.6 -13.7,-1.3 -20.3,1.6 2.1,-5.4 3.7,-11.1 9.5,-14.7 -6.2,3 -13.1,8.4 -15.2,15.7 1.6,-14.1 6.3,-26.9 9.5,-40.7 -1.5,14.4 -10,27.5 -17.7,40.2 1,-4.5 2,-10.2 4.4,-15.2 -4.5,3.8 -8.6,8.3 -9.5,14.1 1.4,-6.1 2.1,-13.7 9.5,-18.5 -3.9,1.3 -7.8,2 -11.4,4.3 1.3,-3.3 1,-6.8 5.1,-9.2 -4.2,2.4 -8.8,4.9 -11.4,9.2 0.3,-6.2 0.9,-12.3 1.9,-18.5 -2.2,6.4 -5.7,12.3 -10.1,17.4 -0.2,-2.5 0.5,-5.1 -0.6,-7.6 -2.9,1.1 -5.2,3.5 -8.9,3.3 -0.2,-2.4 0.5,-4.8 -0.6,-7.1 -1.1,0.9 -3.2,2.6 -5.1,3.8 0.4,-3.3 0.4,-6.5 1.3,-9.8 -3.5,3 -7.8,6.4 -7.6,11.4 v -0.5 l -9.5,-8.7 c 7.2,5.1 6.7,11.6 7.6,19.5 -7.5,-7.8 -18.6,-16 -26.6,-19 9.4,6.5 14.8,14.2 17.1,23.9 -6.6,-7.5 -12.9,-15.2 -24.1,-18.5 8.3,4.7 12.7,12.1 16.5,20.1 -4.2,-1.9 -8.1,-1.6 -12.7,-1.6 1.9,2.1 3,3.3 4.4,4.9 -11.1,0.2 -15.9,9.5 -18.4,17.9 11,-1.2 19.3,-6.9 27.2,-13 -0.8,3.8 2.2,6.7 3.8,9.2 5,-2.9 10,-7.3 14.6,-10.3 0.8,1.5 1.6,2.9 2.5,4.3 0.8,-8.4 5.8,-15.1 11.4,-21.2 -4.2,4.8 -4.4,11.2 -4.4,17.4 0.3,-4.3 4.2,-7.1 7,-9.8 -0.9,3.8 -0.6,7.6 -0.6,11.4 1.2,-2.4 4.4,-5.4 5.7,-7.1 -0.3,2.5 1.3,4.7 1.9,7.1 2.8,0 5.8,-1.2 8.2,-2.2 1.1,4.4 4.6,7.4 7.6,10.9 2.3,-3.2 2.1,-6.3 2.5,-9.8 4.7,10.7 18.3,10.3 27.2,10.3 -0.6,-5.2 -3.5,-6.5 -8.2,-9.5 z"
           inkscape:connector-curvature="0"
           style="fill:url(#path5759_1_)" /><path
           id="path5753"
           class="st7"
           d="m 461.8,136.5 c -0.6,-5.2 -0.4,-10.3 1.5,-15.2 0.7,3.2 1.3,6.5 3,9.5 2.7,1.3 5.8,3.5 9.5,3.4 -1.3,-3.9 -2.8,-8 -7.6,-9.1 6.1,1.1 9.4,6.4 14.5,7.5 -4,-3.5 -7.4,-9.4 -5.3,-15.2 2.4,5.6 5.8,13.5 13,15.9 1.7,-2 3.3,-3.9 3,-6.8 0.7,1.6 1.5,3.1 2.3,4.7 4,0 6.3,0.2 8,3.7 0.1,-1.6 -0.3,-3.2 0.4,-4.7 3.5,1.7 7.2,2.7 11.1,3 -2.5,-2.9 -4.5,-5.8 -8.8,-6.8 1.8,-1.9 3.8,-4.1 6.9,-5.1 -5.1,0.8 -9.5,1.1 -13.7,3.7 0.6,-2.5 1,-4.5 0.8,-6.8 -1.4,1.8 -2.6,3.9 -5.3,4.7 -0.9,-3.6 -1.8,-7.6 -5,-10.5 0,0.6 -0.2,6.6 -1.5,9.1 -0.6,-5.6 -3.2,-11.8 -7.6,-15.6 -0.6,1.4 -1.1,2.9 -1.5,4.4 -1.2,-2.6 -2.1,-5.5 -1.1,-8.8 -2.8,3.1 -5.6,6.5 -7.2,10.2 -0.4,-2.8 -0.5,-5.6 -0.4,-8.5 -1.4,3.5 -3.4,6.9 -3.4,10.8 -1.2,-3.3 -1.5,-7.4 -5.7,-8.5 -0.8,3.4 -1.6,6.7 -3.8,9.5 -0.2,-2.6 -0.2,-5.1 -1.9,-7.5 -0.8,1.6 -2.1,4.4 -3,6.4 -0.7,-3.6 -1,-7.2 -0.8,-10.8 -2.1,4.1 -2.9,8.7 -2.3,13.2 -0.7,3.9 -0.5,8 0.4,11.9 -2.2,-10.8 -8,-24.3 -17.9,-30.5 7.2,7.3 11.1,18.4 11.1,28.1 -1.6,-4.4 -6.6,-10 -8.4,-12.9 1.9,6 1.9,12.2 1.9,18.6 -1.7,0 -3.3,0.1 -5,0.3 0.8,3.6 3.9,3.4 8,3.4 -1,2.1 1.3,2.8 1.9,4.1 1.6,-0.3 3.1,-1.2 4.2,-2.4 -0.8,-4.1 0.5,-4.4 2.3,-6.4 4.9,-0.4 5.4,2.6 6.5,5.8 0.4,-2.5 1.5,-3.5 2.7,-5.4 4,0.6 3.4,2.1 4.2,5.6 z"
           inkscape:connector-curvature="0"
           style="fill:#60992d" /></g><path
         class="st10"
         d="m 697.8,144.3 c -1.4,-6 -14.3,-13.6 -19.6,-15.8 -5.6,-2.3 -51,-2.4 -72.4,9 -7.7,4.1 -23.9,14.7 -47.8,18 -10,1.4 -16.7,-0.7 -26.9,0.7 -9,1.2 -22,3.9 -28.7,10.3 -3.9,3.7 -2.4,9.7 2.6,11 10.9,2.7 36.6,-3.3 44,-5.5 1,2.1 2.8,3.8 4.9,4.7 18.8,6.9 32.8,-1.9 33.1,-2 17,3.8 38.4,1.7 55.2,-2.5 30.2,-7.5 57.6,-19.4 55.6,-27.9 z"
         id="path42"
         inkscape:connector-curvature="0"
         style="opacity:0.45;fill:#bcaaa4;enable-background:new" /><path
         class="st11"
         d="m 682.7,115.5 -2.5,3.7 c -1.9,-2.6 -3.2,-5.6 -3.8,-8.8 v 0 c -1.2,-5.9 -0.3,-13.2 3,-23 1.2,-3.4 1.5,-7 1,-10.5 0,-0.1 0,-0.2 0,-0.3 -1.5,-9.4 -8.5,-15.8 -8.5,-15.8 L 683,59.1 c 0,0 2.9,18.4 -0.2,29.2 -3.8,13.1 -4,19.1 -0.6,25.8 0.2,0.7 -0.1,0.7 0.5,1.4 z"
         id="path44"
         inkscape:connector-curvature="0"
         style="fill:#ebe1cf" /><path
         class="st12"
         d="m 678.7,114.7 c 1.8,8.2 6.1,9 9.3,13.9 0.5,0.7 0.2,-1.5 -1.7,-3.6 3.6,2.6 4,4.5 4,4.5 0.8,1.8 0.4,-0.1 -0.2,-2 0.5,0.4 1,1 1.3,1.6 -0.2,-0.9 -0.5,-1.7 -1.1,-2.5 1.6,1.6 2.6,3.8 2.6,6.2 0.1,1.9 1.4,-6 -3.8,-8.7 2.1,0.9 4.1,2 4.8,4.2 0,0.1 0.1,0.1 0.2,0.1 0.1,0 0.1,-0.1 0.1,-0.2 -0.4,-1.6 -1.3,-3.1 -2.6,-4.1 0.5,0.2 1,0.5 1.4,0.8 0.2,0.1 0.4,-0.2 0.2,-0.3 -2.1,-2.6 -5.8,-3.2 -9,-5.8 1.9,0.9 3.8,1.8 5.8,2.5 0.2,0.1 0.5,-0.2 0.2,-0.4 -3.2,-1.6 -6.8,-2.8 -8.3,-6.8 0,0 0,1.3 -0.6,1 -0.4,-0.2 -1.4,-2.3 -1.7,-2.2 -0.3,0.1 0.8,3 0.7,3.4 -0.1,0.4 -1.7,-1.7 -1.6,-1.6 z"
         id="path46"
         inkscape:connector-curvature="0"
         style="fill:#2b2928" /><path
         class="st13"
         d="m 676.4,110.4 v 0 c -1.2,-5.9 -0.3,-13.2 3,-23 1.2,-3.4 1.5,-7 1,-10.5 0.7,3.5 0.9,8.4 0.1,10.6 -1.9,5.4 -4.1,22.9 -4.1,22.9 z"
         id="path48"
         inkscape:connector-curvature="0"
         style="fill:#e0e0e0" /><path
         class="st14"
         d="m 627.8,139.8 2.9,-2.6 c -1.4,0.7 -3,0.8 -4.4,0.3 2,-1.4 3.8,-3.1 5.2,-5.1 0,0 5.4,-0.3 7.2,3.5 0,0.3 -0.1,0.5 -0.2,0.8 -1.7,7.3 -8.4,4.1 -10.7,3.1 z"
         id="path50"
         inkscape:connector-curvature="0"
         style="fill:#616161" /><path
         class="st14"
         d="m 643,156.4 2.9,-2.6 c -1.4,0.7 -3,0.8 -4.4,0.3 2,-1.4 3.8,-3.1 5.2,-5.1 0,0 5.9,-0.8 7.2,3.5 0,0.3 -0.1,0.5 -0.2,0.8 -1.7,7.3 -8.4,4.2 -10.7,3.1 z"
         id="path52"
         inkscape:connector-curvature="0"
         style="fill:#616161" /><path
         class="st15"
         d="m 641.5,154.1 c 0,0 4.1,-0.2 5.5,-1.5 l -1,1.2 c -1.5,0.7 -3.1,0.8 -4.5,0.3 z"
         id="path54"
         inkscape:connector-curvature="0"
         style="fill:#424242" /><path
         class="st15"
         d="m 643,156.4 c 0,0 8.1,1.8 10.8,-3.1 -1.8,7.3 -8.5,4.2 -10.8,3.1 z"
         id="path56"
         inkscape:connector-curvature="0"
         style="fill:#424242" /><path
         class="st15"
         d="m 626.3,137.5 c 0,0 4.1,-0.2 5.5,-1.5 l -1,1.2 c -1.5,0.6 -3.1,0.8 -4.5,0.3 z"
         id="path58"
         inkscape:connector-curvature="0"
         style="fill:#424242" /><path
         class="st15"
         d="m 627.8,139.8 c 0,0 8.1,1.8 10.8,-3.1 -1.8,7.3 -8.5,4.1 -10.8,3.1 z"
         id="path60"
         inkscape:connector-curvature="0"
         style="fill:#424242" /><path
         class="st14"
         d="m 532.7,158.5 2.9,-2.6 c -1.4,0.7 -3,0.8 -4.4,0.3 2,-1.4 3.8,-3.1 5.2,-5.1 0,0 5.2,1.3 7.2,3.5 0,0.3 -0.1,0.5 -0.2,0.8 -1.6,7.3 -8.3,4.1 -10.7,3.1 z"
         id="path62"
         inkscape:connector-curvature="0"
         style="fill:#616161" /><path
         class="st15"
         d="m 531.2,156.2 c 0,0 4.1,-0.2 5.5,-1.5 l -1,1.2 c -1.4,0.6 -3,0.7 -4.5,0.3 z"
         id="path64"
         inkscape:connector-curvature="0"
         style="fill:#424242" /><path
         class="st15"
         d="m 532.7,158.5 c 0,0 8.1,1.8 10.8,-3.1 -1.7,7.3 -8.4,4.1 -10.8,3.1 z"
         id="path66"
         inkscape:connector-curvature="0"
         style="fill:#424242" /><path
         class="st16"
         d="m 650.2,100.2 c -1.5,3.3 -2.2,5.9 -1.8,7.1 0.7,2.5 0.1,3.5 -1.7,6.8 -6.5,12.2 -4.6,12.3 -5.4,14.7 -0.8,2.4 -2.3,3 -2.6,7 0,0 -9.7,0.3 -7.2,-3.5 5.6,-8.8 6.2,-14.5 6.2,-19 0,-7.6 -4.6,-10.5 -3.8,-21.5 0.6,-5.9 1.7,-11.8 3.4,-17.5 5.2,-9.7 16.8,-10.3 22.6,-6.6 0.2,0.1 0.3,0.2 0.5,0.4 2.4,2.1 2.5,7.6 2.5,7.6 l -0.2,0.3 c -1.5,2.8 -3.3,6 -5,9.4 -2.8,5.2 -5.5,10.5 -7.5,14.8 z"
         id="path68"
         inkscape:connector-curvature="0"
         style="fill:#c9c1b1" /><path
         class="st16"
         d="m 546,102.4 c 0,0 -1.7,21.4 -3,25.3 -1.3,3.9 -2.6,4.6 -1.6,8.7 1,4.1 -5.1,14.7 -5.1,14.7 0,0 1.1,4.4 7.2,3.5 0.5,-2.8 2.2,-3.3 3,-5.5 0.8,-2.2 -1.5,-2.5 2,-10.3 1.6,-3.6 4.5,-6.6 3.5,-10.2 -0.7,-2.8 9.9,-27.2 9.9,-27.2 -5.9,-4.2 -11.2,-3.6 -15.9,1 z"
         id="path70"
         inkscape:connector-curvature="0"
         style="fill:#c9c1b1" /><path
         class="st17"
         d="m 643.6,124.3 c -1.2,-0.2 -1.2,-2.1 -0.8,-4 0.2,-1.1 0.5,-2.2 0.9,-3.2 l 3.7,-1.3 c -0.2,1.5 -0.6,2.9 -1,4.4 -0.6,2.2 -1.6,4.3 -2.8,4.1 z"
         id="path72"
         inkscape:connector-curvature="0"
         style="fill:#f4987f" /><path
         class="st17"
         d="m 642.4,114.9 c -0.9,1.5 -1.9,3 -3.1,4.4 -1.2,1.4 -2.6,2.6 -3.5,2.1 -1.1,-0.6 -0.3,-2.3 0.6,-3.9 0.6,-1 1.3,-1.9 2,-2.7 z"
         id="path74"
         inkscape:connector-curvature="0"
         style="fill:#f4987f" /><path
         class="st17"
         d="m 637.8,111.8 c -1.3,1.1 -2.6,2.2 -4,3.1 -1.7,1.1 -3.5,1.9 -4.2,1.1 -0.9,-1 0.5,-2.5 2,-3.7 0.8,-0.6 1.7,-1.2 2.5,-1.8 z"
         id="path76"
         inkscape:connector-curvature="0"
         style="fill:#f4987f" /><path
         class="st14"
         d="m 547.9,175.1 2.9,-2.6 c -1.4,0.7 -3,0.8 -4.4,0.3 2,-1.4 3.8,-3.1 5.2,-5.1 0,0 5.4,-0.7 7.2,3.5 0,0.3 -0.1,0.5 -0.2,0.8 -1.6,7.3 -8.4,4.2 -10.7,3.1 z"
         id="path78"
         inkscape:connector-curvature="0"
         style="fill:#616161" /><path
         class="st18"
         d="m 571.8,123.2 c -1.9,2.7 -4.2,5.2 -6.7,7.4 -1.7,1.4 -3.5,2.6 -5.5,3.6 -3.3,1.6 -7,2.5 -10.7,2.4 v 0 c -2.7,0 -4.9,-0.3 -6.6,-0.3 -0.3,0 -0.6,0 -0.9,0 -3.5,0.3 -7.5,5.4 -9.5,8.5 -0.9,1.3 -1.4,2.2 -1.4,2.2 l -3.2,-3.1 -4.4,-4.2 -1.6,-1.6 -9.7,-9.5 1.4,-2 c 0,-0.1 0.1,-0.1 0.1,-0.2 l 0.5,-0.8 c 0.5,-0.7 1.2,-1.8 2.2,-3.2 l 0.3,-0.5 c 0.1,-0.2 0.3,-0.4 0.4,-0.6 l 0.7,-1.1 11.8,-17.4 0.7,-1.1 c 2.2,-3.1 3.6,-5.3 3.6,-5.3 l 23.6,-34.6 c 5.2,8.6 9.6,17.6 13.2,26.9 4.9,12.5 7.7,26.3 1.7,34.5 z"
         id="path80"
         inkscape:connector-curvature="0"
         style="fill:#f4ead7" /><path
         class="st19"
         d="m 656.5,113.5 c -3.2,3.6 -6.2,5.6 -8.9,6.5 -11.6,3.7 -19,-12.8 -19,-12.8 0.5,-8.7 10.4,-12 19.1,-11.1 9.5,1 17.5,7.3 8.8,17.4 z"
         id="path82"
         inkscape:connector-curvature="0"
         style="fill:#ffab91" /><path
         class="st17"
         d="m 656.5,113.5 c -3.2,3.6 -6.2,5.6 -8.9,6.5 -1.1,-3.2 -1.5,-9.5 -12.8,-7.3 -3.9,0.8 12.1,-13.4 12.8,-16.6 9.6,1 17.6,7.3 8.9,17.4 z"
         id="path84"
         inkscape:connector-curvature="0"
         style="fill:#f4987f" /><path
         class="st18"
         d="m 678,92.4 v 0 l -0.1,0.3 c -0.3,0.5 -0.6,1 -1,1.5 -4.4,6.2 -8.5,9.9 -12.2,12 -0.2,0.1 -0.5,0.2 -0.7,0.4 -0.7,0.4 -1.5,0.7 -2.2,1 -0.4,0.1 -0.8,0.3 -1.1,0.4 -4.4,1.4 -8.3,0.9 -11.7,0.6 -2.6,-0.2 -4.9,-0.2 -7,0.8 -2.1,1 -6,2.9 -11.2,5 -13.2,5.3 -34.6,12 -55.5,9.4 h -0.4 c -1,-0.1 -2,-0.3 -3,-0.5 -0.3,0.3 -0.6,0.6 -0.8,0.8 -3.7,3.3 -8,5 -10.7,5.3 0,0 -0.7,-18.1 -1.4,-35.5 -0.6,-16 -1.3,-31.5 -1.5,-31.6 -0.9,-0.4 2.8,-2.9 6.1,-4.7 1.2,-0.7 2.4,-1.3 3.7,-1.7 8.3,-2.7 22.1,-4 35.8,-4.8 h 0.5 l 5.5,-0.3 c 5.4,-0.2 10.6,-0.4 15.3,-0.5 1.1,0 2.2,-0.1 3.3,-0.2 6.4,-0.6 12.7,-2.2 18.8,-4.6 2.4,-0.9 4.7,-1.9 6.8,-2.8 1.7,-0.8 3.3,-1.6 4.8,-2.3 5.1,-2.5 8.9,-4.3 10.9,-3.7 2.5,0.6 4.9,3.1 7,5.6 2.4,2.8 4.4,5.7 5.6,6.1 2.3,0.8 5.3,1.1 4.7,7.1 0,0.2 0,0.5 -0.1,0.8 0,0.7 -0.1,1.5 -0.2,2.5 -0.2,2.8 -0.6,6.7 -1.2,10.9 -0.2,1.5 -0.5,3 -0.8,4.5 -1.2,6.5 -3,13.2 -6,18.2 z"
         id="path86"
         inkscape:connector-curvature="0"
         style="fill:#f4ead7" /><path
         class="st18"
         d="m 678,92.4 -0.2,0.3 c -1.5,2.8 -3.3,6 -5,9.4 -2.7,5.1 -5.5,10.5 -7.5,14.8 l -0.5,1.1 c -1.2,2.8 -1.7,4.9 -1.3,6 0.7,2.5 0.1,3.5 -1.7,6.8 -6.5,12.2 -4.6,12.3 -5.4,14.7 -0.8,2.4 -2.3,3 -2.6,7 0,0 -9.7,0.3 -7.3,-3.5 5.6,-8.8 6.2,-14.5 6.2,-19 0,-7.6 -4.6,-10.5 -3.8,-21.5 0.6,-5.9 1.7,-11.8 3.4,-17.5 0.8,-1.5 1.9,-2.9 3.1,-4.1 2.7,-2.6 6.1,-4.2 9.8,-4.5 0.4,0 0.8,-0.1 1.2,-0.1 3,-0.1 5.9,0.6 8.4,2.1 0.2,0.1 0.3,0.2 0.5,0.4 2.6,2.1 2.7,7.6 2.7,7.6 z"
         id="path88"
         inkscape:connector-curvature="0"
         style="fill:#f4ead7" /><path
         class="st20"
         d="m 647.2,71.6 c -2.7,3.8 -9.1,5.8 -10.7,10.4 -1.8,5.1 4.2,8.4 1.7,14 -2.1,4.8 -6.4,10.5 -11.5,8.8 -1.1,-0.4 -2.2,-1.1 -3,-1.9 -1.2,-1.2 -1.5,-3.9 -3.2,-4.7 -1.4,-0.7 -4,0.2 -5.4,0.3 -4.5,0.3 -5.9,-2.1 -7.6,-6.6 -1,-2.5 0.3,-4.9 -2.6,-5.7 -4.5,-1.2 -6.9,5.4 -9.4,7.7 -2.2,2 -3.3,1.7 -6.2,0.5 -9.3,-4 -4.7,-8.2 -2.6,-15.3 3.4,-11.8 -9.8,-9.1 -17.5,-11 -6.1,-1.4 -7.4,-5.8 -5.7,-10.3 1.2,-0.7 2.4,-1.3 3.7,-1.7 8.3,-2.7 22.1,-4 35.8,-4.8 h 0.5 L 609,51 c 5.4,-0.2 10.6,-0.4 15.3,-0.5 1.1,0 2.2,-0.1 3.3,-0.2 6.4,-0.6 12.7,-2.2 18.8,-4.6 2.4,-0.9 4.7,-1.9 6.8,-2.8 1.6,1 2.8,2.6 3.4,4.4 1.8,6.1 -5.8,7.2 -7.9,11.7 -2.1,4.5 1.7,8.1 -1.5,12.6 z"
         id="path90"
         inkscape:connector-curvature="0"
         style="fill:#3d3a39" /><path
         class="st20"
         d="m 678,92.4 v 0 l -0.1,0.3 c -1.5,2.8 -3.3,6 -5,9.4 -2.7,5.1 -5.5,10.5 -7.5,14.8 l -0.5,1.1 c -1.6,-3.3 -2.6,-6.8 -3,-10.4 -0.2,-2 -0.3,-3.9 -0.2,-5.9 0.3,-5.1 3.7,-8.8 4.4,-13.7 0.3,-1.8 0.1,-3.7 -0.6,-5.5 -1.4,-4.1 -4.9,-7.6 -6.2,-11.8 -2,-6.3 2.1,-10.9 5.8,-15.5 4.5,-5.8 10.8,-0.6 16.4,0.2 1.6,0.1 3.2,0.4 4.8,1 0,0.7 -0.1,1.5 -0.2,2.5 -0.2,2.8 -0.6,6.7 -1.2,10.9 -0.2,1.5 -0.5,3 -0.8,4.5 -1.3,6.4 -3.1,13.1 -6.1,18.1 z"
         id="path92"
         inkscape:connector-curvature="0"
         style="fill:#3d3a39" /><path
         class="st18"
         d="m 558.8,171.1 c 0,0 0,0.1 0,0.1 -0.2,0 -0.5,0 -0.7,0 -0.3,0 -0.5,0.1 -0.8,0.1 -1.6,0.1 -3.1,-0.4 -4.3,-1.4 v 0 c -0.6,-0.6 -1.1,-1.3 -1.3,-2.1 0,0 3.8,-6.6 4.9,-11.4 0.3,-1.1 0.4,-2.2 0.2,-3.3 -1,-4.1 0.2,-4.8 1.6,-8.7 0.6,-2.5 1.1,-5.1 1.3,-7.6 0.3,-2.3 0.6,-4.9 0.8,-7.3 0.5,-5.5 0.9,-10.3 0.9,-10.3 3,-3 6.3,-4.2 9.9,-3.6 2.2,0.4 4.3,1.3 6.1,2.7 0,0 -1,2.3 -2.4,5.6 -3.1,7.4 -8,19.6 -7.5,21.6 0.9,3.6 -1.9,6.5 -3.5,10.2 -3.5,7.8 -1.3,8.1 -2,10.3 -0.7,2.2 -2.7,2.4 -3.2,5.1 z"
         id="path94"
         inkscape:connector-curvature="0"
         style="fill:#f4ead7" /><g
         id="g98"><path
           class="st21"
           d="m 678,92.4 v 0 l -0.1,0.3 c -1.5,2.8 -3.3,6 -5,9.4 -2.7,5.1 -5.5,10.5 -7.5,14.8 -0.6,1.2 -1.1,2.5 -1.5,3.8 -0.4,1 -0.5,2.2 -0.3,3.3 0.7,2.5 0.1,3.5 -1.7,6.8 -6.5,12.2 -4.6,12.3 -5.4,14.7 -0.8,2.4 -2.3,3 -2.6,7 0,0 -9.7,0.3 -7.3,-3.5 5.6,-8.8 6.2,-14.5 6.2,-19 0,-7.6 -4.6,-10.5 -3.8,-21.5 -2.6,-0.2 -4.9,-0.2 -7,0.8 -7.5,3.7 -37.5,18 -66.7,14.4 h -0.4 c -3.1,7.4 -8,19.6 -7.5,21.6 0.9,3.6 -1.9,6.5 -3.5,10.2 -3.5,7.8 -1.3,8.1 -2,10.3 -0.7,2.2 -2.5,2.7 -3,5.3 0,0 0,0.1 0,0.1 -0.2,0 -0.5,0 -0.7,0 -0.3,0 -0.5,0.1 -0.8,0.1 -1.6,0.1 -3.1,-0.4 -4.3,-1.4 v 0 c 1.5,0.9 4.9,-0.3 5.8,-2.2 1.2,-2.5 0.6,-5.5 1.3,-8.1 1.1,-3.9 4.9,-6.6 6.3,-10.5 1.1,-3.2 0.4,-6.8 0.8,-10.2 0.5,-4 2.7,-7.5 3.5,-11.4 0.2,-1.1 0.3,-2.2 0.4,-3.3 0.2,-2.9 0,-5.8 0.1,-8.7 0.2,-3.5 0.8,-6.9 3.4,-9.9 4.1,-4.8 8.8,-2.9 14.2,-1 5.4,1.9 10.5,3.8 16.1,4.5 5.7,0.8 11.6,-2.7 16.5,-5 4.7,-2.2 8.4,-3.6 12.3,-7.4 1,-0.9 1.9,-1.9 2.9,-2.8 2.7,-2.6 5.1,-5.5 7.3,-8.6 2.5,-3.6 6.2,-14.1 10.8,-6.9 1.2,1.9 1,4.8 0.9,6.9 0,0.5 0,1.1 0,1.8 0,0.7 0,1.6 0,2.5 0.2,2.8 0.7,5.9 2.4,6.5 2,0.7 3.8,-1.2 4.8,-2.6 2.2,-2.9 3.3,-7.2 3.8,-10.9 0.1,-0.5 0.1,-1 0.1,-1.4 0.3,-4.5 -2,-9.9 0.6,-13.9 0.5,-0.8 1.2,-1.5 2.1,-2 0.5,-0.4 1,-0.7 1.6,-1 2.9,-1.7 5.2,-1 8.1,-1.9 2.2,-0.7 4,-3.2 6.2,-3.3 0.2,0 0.4,0 0.6,0 -0.2,2.8 -0.6,6.7 -1.2,10.9 -0.2,1.5 -0.5,3 -0.8,4.5 -1.2,6.2 -3,12.9 -6,17.9 z"
           id="path96"
           inkscape:connector-curvature="0"
           style="fill:#eeeeee" /></g><path
         class="st15"
         d="m 546.4,172.8 c 0,0 4.1,-0.2 5.5,-1.5 l -1,1.2 c -1.4,0.7 -3,0.8 -4.5,0.3 z"
         id="path100"
         inkscape:connector-curvature="0"
         style="fill:#424242" /><path
         class="st15"
         d="m 547.9,175.1 c 0,0 8.1,1.8 10.8,-3.1 -1.7,7.3 -8.5,4.2 -10.8,3.1 z"
         id="path102"
         inkscape:connector-curvature="0"
         style="fill:#424242" /><path
         class="st22"
         d="m 649,108.5 c -2.6,-0.2 -4.9,-0.2 -7,0.8 -7.5,3.7 -37.5,18 -66.7,14.4 l 2.7,-7.9 c 0,0 25.5,13.8 63.5,-11.9 2.3,-1.5 5.3,-0.8 6.8,1.5 0.5,0.8 0.8,1.8 0.8,2.8 -0.1,0.1 -0.1,0.2 -0.1,0.3 z"
         id="path104"
         inkscape:connector-curvature="0"
         style="fill:#dbd2c1" /><path
         class="st12"
         d="m 506.5,132.9 c 0,0 -0.4,-4.9 -3,-7 -2.6,-2.1 -10.8,-4.1 -11.4,-2.9 -0.6,1.2 2.5,8.2 12.3,10.6 z"
         id="path106"
         inkscape:connector-curvature="0"
         style="fill:#2b2928" /><path
         class="st18"
         d="m 518.6,164.5 c -1.6,1.1 -3.1,2.4 -4.3,3.8 -3,3.3 -4.5,6.6 -6.9,8.3 v 0 c -0.3,0.2 -0.6,0.5 -1,0.6 -1.1,0.4 -2.4,0.3 -3.4,-0.4 -3.9,-2.1 -8.1,-8.4 -8.1,-8.4 0,0 2.3,-3.7 3.1,-11.1 0,-0.4 0.1,-0.9 0.1,-1.3 0.2,-2.2 0.2,-4.4 0.1,-6.6 -0.9,-1 -1.4,-3 -1.1,-5.3 0.2,-1.4 0.6,-2.7 1.4,-3.9 0.4,-2.8 1.5,-5.5 3.1,-7.8 1.6,-2.3 3.5,-3.7 5,-3.9 2.2,-0.3 4.4,-1 6.5,-1.9 4.9,2.5 9.5,5.6 13.7,9.1 0.5,0.4 0.9,0.9 1.4,1.3 2.2,2.2 3.8,4.6 3.9,6.8 0,0.3 0,0.6 0,0.9 -0.6,7.6 -6.9,15.3 -13.5,19.8 z"
         id="path108"
         inkscape:connector-curvature="0"
         style="fill:#f4ead7" /><path
         class="st20"
         d="m 555.8,126.8 c -0.9,4.8 -2.8,9 -6.9,9.9 v 0 c -2.1,0.4 -4.4,-0.3 -6.6,-0.3 -0.3,0 -0.6,0 -0.9,0 -3.5,0.3 -7.5,5.4 -9.5,8.5 -0.4,7.4 -6.8,15.2 -13.3,19.6 -0.1,0.1 -0.2,0.2 -0.4,0.3 -1.5,1 -2.8,2.2 -4,3.5 -3.4,0.3 -6.1,-0.5 -7.5,-4.6 -1.6,-5.1 -0.6,-14.1 5,-16.5 2.4,-1 5.5,-0.9 6.4,-3.9 0.9,-3 -2.1,-6.3 -4.6,-7.8 -3.1,-1.7 -6.9,-2.9 -9,0.8 -1.8,3.1 -1.9,7.5 -2.3,10.9 -0.2,2 0.1,10.4 -4.2,8.7 0.2,-2.2 0.2,-4.4 0.1,-6.6 -0.9,-1 -1.4,-3 -1.1,-5.3 0.2,-1.4 0.6,-2.7 1.4,-3.9 0.4,-2.8 1.5,-5.5 3.1,-7.8 1.6,-2.3 3.5,-3.7 5,-3.9 2.2,-0.3 4.4,-1 6.5,-1.9 l 0.1,-0.2 c 0.1,-0.2 0.3,-0.5 0.5,-0.8 0.5,-0.7 1.2,-1.8 2.2,-3.2 l 0.3,-0.5 c 0.1,-0.2 0.3,-0.4 0.4,-0.6 l 0.7,-1.1 11.8,-17.4 0.7,-1.1 c 2.2,-3.1 3.6,-5.3 3.6,-5.3 0.8,-0.1 1.6,-0.1 2.4,0.1 2.8,0.6 4.4,2.3 7.4,1.2 2.4,-0.9 4.2,-3.2 5.9,-5 3.5,-3.7 7.5,-9.5 13.3,-8.9 2.4,0.2 4.5,1.8 5.3,4.1 1.1,3.8 0.3,7.9 -2.2,10.9 -3.6,4.1 -7.8,7.6 -8.5,13.5 -0.4,2.8 -0.3,7.8 -0.9,12.6 0,0.8 0,1.4 -0.2,2 z"
         id="path110"
         inkscape:connector-curvature="0"
         style="fill:#3d3a39" /><path
         class="st12"
         d="m 514.3,155.1 c 0,0 -0.2,2.7 -1.6,3 -1.4,0.3 -1.8,-0.4 -2.6,0.4 0.2,-0.4 0.3,-0.9 0.4,-1.4 0,-1 0.5,-2 1.2,-2.6 0.8,-0.6 1.8,-0.4 2.4,0.3 0,0.1 0.1,0.2 0.2,0.3 z"
         id="path112"
         inkscape:connector-curvature="0"
         style="fill:#2b2928" /><path
         class="st23"
         d="m 514.1,154.8 c 0.1,1.3 -0.6,2.4 -1.8,2.9 -0.7,0.1 -1.4,-0.1 -1.9,-0.5 0,-1 0.5,-2 1.2,-2.6 0.8,-0.7 1.9,-0.5 2.5,0.2 z"
         id="path114"
         inkscape:connector-curvature="0"
         style="fill:#1e1d1c" /><circle
         transform="matrix(0.9746,-0.2241,0.2241,0.9746,-21.7535,118.8587)"
         class="st24"
         cx="512.79999"
         cy="155.3"
         id="ellipse116"
         r="0.5"
         style="fill:#ffffff" /><path
         class="st20"
         d="m 558.2,154.9 c -0.1,0.1 -1,0.8 -1.8,1.4 0.3,-1.1 0.4,-2.2 0.2,-3.3 -1,-4.1 0.2,-4.8 1.6,-8.7 0.6,-2.5 1.1,-5.1 1.3,-7.6 2.5,0.5 3,4.9 2.2,7.5 -1,3.1 -1.2,8.3 -3.5,10.7 z"
         id="path118"
         inkscape:connector-curvature="0"
         style="fill:#3d3a39" /><path
         class="st19"
         d="m 497.1,174 c -5.8,-4.6 -1.5,-7.2 -1,-6.6 0.8,0.7 2.2,3.1 4.2,3.8 5.4,1.8 5.1,9.4 -3.2,2.8 z"
         id="path120"
         inkscape:connector-curvature="0"
         style="fill:#ffab91" /><path
         class="st16"
         d="m 507.4,176.6 c -0.3,0.2 -0.6,0.5 -1,0.6 -1.1,0.4 -2.4,0.3 -3.4,-0.4 1.4,-0.3 2.6,-1 3.7,-2 0.2,-0.2 0.5,-0.2 0.7,0 0.1,0.1 0.2,0.3 0.2,0.4 -0.1,0.5 -0.2,0.9 -0.2,1.4 z"
         id="path122"
         inkscape:connector-curvature="0"
         style="fill:#c9c1b1" /><g
         id="g126"><path
           class="st21"
           d="m 559.6,134.2 c -3.3,1.6 -7,2.5 -10.6,2.4 v 0 c -2.1,0.4 -4.4,-0.3 -6.6,-0.3 -0.3,0 -0.6,0 -0.9,0 -3.5,0.3 -7.5,5.4 -9.5,8.5 -0.4,7.4 -6.8,15.2 -13.3,19.6 -0.1,0.1 -0.2,0.2 -0.4,0.3 -0.1,-0.1 -0.1,-0.3 -0.2,-0.4 0.8,-3.1 4.5,-6 6.6,-8.5 1.8,-2.1 3.6,-4.9 3.7,-7.9 -0.1,-1.4 -0.4,-2.7 -1,-4 -1.5,-3.5 -3.8,-7.1 -1.2,-10.3 1.6,-1.9 4,-3.1 6.5,-3.3 1.7,0 3,0.8 4.6,1.1 3,0.6 5.4,-0.8 8,-2.1 3.2,-1.5 6.4,-2.8 9.8,-4 0.4,-0.1 0.8,-0.3 1.1,-0.4 1.1,-0.4 2.3,-0.4 3.3,0 2.4,1 0.5,6.8 0.1,9.3 z"
           id="path124"
           inkscape:connector-curvature="0"
           style="fill:#eeeeee" /></g><path
         class="st12"
         d="m 520.6,148.2 c 0.2,-0.8 1.2,-1.3 2.4,-1 2.8,0.7 7.6,2.2 9.4,3.8 2.2,1.9 2.7,6.2 2.8,7.4 0,0.2 -0.1,0.4 -0.4,0.5 -1.5,0.4 -6.8,1.1 -12.5,-5.1 -1.4,-1.4 -2,-3.3 -1.7,-5.3 z"
         id="path128"
         inkscape:connector-curvature="0"
         style="fill:#2b2928" /><path
         class="st25"
         d="m 153,139.7 c 0,0 -4.4,6.9 -2,9.2 2.4,2.3 4.3,3 3.9,3.8 -0.4,0.8 -2,0.8 -4.3,-1.2 -2.3,-2 -9.7,-5.3 -9.7,-5.3 z"
         id="path130"
         inkscape:connector-curvature="0"
         style="fill:#694e2a" /><path
         class="st25"
         d="m 129.8,151.9 c 4.3,-7.5 9.7,-8.4 12.2,-10.3 0.5,-0.3 0.9,-0.7 1.3,-1.1 1.7,0.3 3.3,0.9 4.7,1.7 1.4,0.8 0.3,0.5 1.7,1.3 -2,3.1 -5,13.4 -5,13.4 2,0.6 6.1,2.1 5.8,7.9 -0.3,5.8 -8.5,7 -8.5,7 0,0 7.6,-0.2 8.6,-0.4 1,-0.2 2.1,0.2 0.7,1.9 -1.4,1.7 -12.6,1.2 -17.9,-1.9 -5.3,-3.1 -7.9,-12 -3.6,-19.5 z"
         id="path132"
         inkscape:connector-curvature="0"
         style="fill:#694e2a" /><path
         class="st26"
         d="m 151.6,133.7 -3.5,-5.6 c 0,0 -0.5,4.4 0,5.6 0.5,1.2 3.5,0 3.5,0 z"
         id="path134"
         inkscape:connector-curvature="0"
         style="fill:#634a28" /><path
         class="st27"
         d="m 135.3,145.3 c 3.4,-3.8 4.7,-9 3.5,-14 -2.1,-8.3 -8.8,-15.8 -18.6,-13 -9.8,2.8 -1.6,13.6 -2.4,18 -0.8,4.4 -9,10.8 -7.5,21.6 1.5,10.8 8.4,12 15.7,7.9 z"
         id="path136"
         inkscape:connector-curvature="0"
         style="fill:#ae8247" /><path
         class="st28"
         d="m 137.9,129.3 c 0.5,3.3 -4,5.9 -6.6,7.1 -3.4,1.6 -7.2,2.2 -10.6,3.8 -2.7,1.2 -5.2,2.7 -7.6,4.4 1.9,-3.5 4.2,-6.2 4.6,-8.4 0.9,-4.4 -7.4,-15.2 2.4,-18 8.8,-2.5 15,3.2 17.8,10.4 0,0.3 -0.1,0.5 0,0.7 z"
         id="path138"
         inkscape:connector-curvature="0"
         style="fill:#856336" /><path
         class="st28"
         d="m 155.1,143.4 c 1.1,-0.7 1.7,-2.1 1.4,-3.5 -0.4,-2.5 -3.5,-7 -6.9,-6.5 -4.8,0.8 -5.5,0.6 -8.7,-3.2 -0.1,2.6 0.3,5.1 1.1,7.6 -1.5,2 -3.2,3.9 -5.1,5.5 -2.5,1.9 -7.9,2.8 -12.2,10.3 -4.3,7.5 -1.8,16.5 3.5,19.6 5.3,3.1 16.5,3.5 17.9,1.9 1.4,-1.6 0.4,-2 -0.7,-1.9 -1.1,0.1 -8.6,0.4 -8.6,0.4 0,0 8.2,-1.2 8.5,-7 0.3,-5.8 -3.8,-7.3 -5.8,-7.9 0,0 6.2,-10.3 7.8,-12.6 1.6,-2.3 6.6,-1.2 7.8,-2.7 z"
         id="path140"
         inkscape:connector-curvature="0"
         style="fill:#856336" /><circle
         class="st29"
         cx="155.60001"
         cy="142.2"
         id="ellipse142"
         r="0.89999998"
         style="fill:#302f2b" /><circle
         class="st29"
         cx="149"
         cy="137.2"
         id="ellipse144"
         r="0.89999998"
         style="fill:#302f2b" /><path
         class="st27"
         d="m 150.9,158.9 c 0,2 2.9,2.3 3.7,4.9 0.4,-2.3 3.7,-3 3.7,-4.9 0,-1.9 0.4,-4.9 -3.7,-4.9 -4.1,0 -3.7,2.9 -3.7,4.9 z"
         id="path146"
         inkscape:connector-curvature="0"
         style="fill:#ae8247" /><path
         class="st28"
         d="m 158.3,159.2 c -0.5,-0.4 -1.1,-0.7 -1.7,-0.7 h -3.9 c -0.6,0 -1.3,0.2 -1.7,0.7 0,-0.1 0,-0.2 0,-0.3 0,-2 -0.4,-4.9 3.7,-4.9 4.1,0 3.7,3 3.7,4.9 -0.1,0.1 -0.1,0.2 -0.1,0.3 z"
         id="path148"
         inkscape:connector-curvature="0"
         style="fill:#856336" /><path
         class="st29"
         d="m 153.9,154.3 c 0,0.4 0.3,0.7 0.8,0.7 v 0 c 0.4,0 0.7,-0.3 0.8,-0.7 v -2.6 c 0,-0.4 -0.3,-0.7 -0.8,-0.7 v 0 c -0.4,0 -0.7,0.3 -0.8,0.7 z"
         id="path150"
         inkscape:connector-curvature="0"
         style="fill:#302f2b" /><path
         class="st30"
         d="m 155.4,152.3 v 2 c 0,0.4 -0.3,0.8 -0.8,0.8 -0.4,0 -0.8,-0.3 -0.8,-0.8 v -2 z"
         id="path152"
         inkscape:connector-curvature="0"
         style="fill:#171615" /><path
         class="st29"
         d="m 150.2,155.4 c 0,1.4 1.1,2.5 2.5,2.4 0,0 0,0 0,0 h 3.9 c 1.4,0 2.5,-1.1 2.5,-2.4 0,0 0,0 0,0 v 0 c 0,-1.4 -1.1,-2.5 -2.5,-2.4 0,0 0,0 0,0 h -3.9 c -1.4,0 -2.5,1.1 -2.5,2.4 0,0 0,0 0,0 z"
         id="path154"
         inkscape:connector-curvature="0"
         style="fill:#302f2b" /><path
         class="st28"
         d="m 147,143.5 c 0,0 -1.6,8 1.5,9.3 3.1,1.3 5.1,1.3 5,2.2 -0.1,0.9 -1.6,1.4 -4.5,0.4 -2.9,-1 -11,-1.6 -11,-1.6 z"
         id="path156"
         inkscape:connector-curvature="0"
         style="fill:#856336" /></g></g></svg>