<svg xmlns="http://www.w3.org/2000/svg" xmlns:xlink="http://www.w3.org/1999/xlink" viewBox="0 0 720 720"><defs><style>.cls-1{isolation:isolate;}.cls-2{fill:url(#Безымянный_градиент_214);}.cls-3{fill:#66a02f;}.cls-4{fill:#669f2f;}.cls-5{fill:url(#Безымянный_градиент_212);}.cls-6{fill:url(#Безымянный_градиент_213);}.cls-7{fill:#3f6e35;}.cls-8{fill:#baba1c;}.cls-9{fill:#60992d;}.cls-10{fill:#e2d973;}.cls-11{fill:url(#Безымянный_градиент_214-2);}.cls-12{fill:#bcaaa4;opacity:0.45;}.cls-12,.cls-15,.cls-23{mix-blend-mode:multiply;}.cls-13{fill:#ebe1cf;}.cls-14{fill:#2b2928;}.cls-15{fill:#e0e0e0;}.cls-16{fill:#616161;}.cls-17{fill:#424242;}.cls-18{fill:#c9c1b1;}.cls-19{fill:#f4987f;}.cls-20{fill:#f4ead7;}.cls-21{fill:#ffab91;}.cls-22{fill:#3d3a39;}.cls-24{fill:#eee;}.cls-25{fill:#dbd2c1;}.cls-26{fill:#1e1d1c;}.cls-27{fill:#fff;}.cls-28{fill:#694e2a;}.cls-29{fill:#634a28;}.cls-30{fill:#ae8247;}.cls-31{fill:#856336;}.cls-32{fill:#302f2b;}.cls-33{fill:#171615;}</style><linearGradient id="Безымянный_градиент_214" x1="356.75" y1="-652.75" x2="380.7" y2="-456.4" gradientTransform="matrix(1, 0, 0, -1, 0, -129.38)" gradientUnits="userSpaceOnUse"><stop offset="0" stop-color="#4d912b"/><stop offset="0.54" stop-color="#85b736"/><stop offset="1" stop-color="#cacb3a"/></linearGradient><linearGradient id="Безымянный_градиент_212" x1="439.9" y1="-452.49" x2="512.61" y2="-448.27" gradientTransform="matrix(1, 0, 0, -1, 0, -102.36)" gradientUnits="userSpaceOnUse"><stop offset="0" stop-color="#74a928"/><stop offset="1" stop-color="#baba1c"/></linearGradient><linearGradient id="Безымянный_градиент_213" x1="227.73" y1="-478.37" x2="188.8" y2="-523.79" gradientTransform="matrix(1, 0, 0, -1, 0, -102.36)" gradientUnits="userSpaceOnUse"><stop offset="0" stop-color="#49803e"/><stop offset="1" stop-color="#3f6e35"/></linearGradient><linearGradient id="Безымянный_градиент_214-2" x1="611.49" y1="-461.24" x2="621.27" y2="-414.44" gradientTransform="matrix(1.06, 0, 0, -1.06, -24.83, -88.61)" xlink:href="#Безымянный_градиент_214"/></defs><title>Artboard 1</title><g class="cls-1"><g id="Layer_1" data-name="Layer 1"><g id="g9867"><path id="path4897" class="cls-2" d="M90.42,251.12c-3.71,23.81-2.78,53.74-6.63,77.13-.44-.92-.88-1.81-1.33-2.81h0c-1.09-10.06-2.65-21-4.86-24.63,0,5.43.12,11-.25,16.2-.45-4.3-1.24-8.57-2-14-.32,5.47-.54,13-1.12,19.6q-.44,1.67-.9,3.3V280.27c-1.66,16.55-3.87,33.64-4.41,52.09-1.62-10.31-2.39-22.21-6.59-25.09-.87,8.2-1.66,16.17-2.62,25-.42-1.16-.85-2.31-1.28-3.34a36.44,36.44,0,0,1,1.25,3.61c-.24,2.2-.43,4.17-.71,6.55h-2c-1,9-2.31,15.68-3.42,26.86-.68-6.85-1.55-18-2.12-26.86h-.25c-1.17,10.23-2.81,20.1-4,30.69.62-9.19,1.5-18,.95-28.12-2.29,8.23-3.88,16.78-5.69,26.85,0-9.75,0-19.52,0-29.17-.71.06-1.41.08-2.12.19C37.74,357.24,35.54,376.63,33,394c0-18.19.3-36.38-2.62-51.16a3.3,3.3,0,0,1-.3.16c-.47,9.37-1,18.53-1.5,28-.56-9.1-1.14-17.21-2.21-25.6-.23.17-.46.3-.69.48-1.05,8.41-2.49,20-2.79,30.24-.61-9.11-1.21-17.62-1.52-26.42q-1,1-2,2.1c-.56,8.86-.84,18-.58,28.16-1-7.59-1.78-14.81-4.11-20.46.74,10,2.17,18.82,1.9,32-2.07-10.79-5-17.39-7.94-24.17a150.72,150.72,0,0,0-6.92,14.46V606.85h717V391C712,376.12,705,362.82,697.36,361.74c-9.24,0-16.7-33.52-25.81-25.86-5.25,2.12-12.15,33.34-18,34.93-4.95-3.08-10.37,7.13-14.59-9.08-2.44-1-16.08-9.3-21.32-13.61h-2.6c.11-.86.22-1.91.31-3.39-1.7-5.35-3.84-9.51-4.65-3.54-.08,1.48-.2,2.93-.31,4.34a40.77,40.77,0,0,1,.31-4.34,32.57,32.57,0,0,0-1.5-13.32c-.92,5-1.55,6.25-1.19,14.45-.42-2.53-1.22-10.67-3.17-9.63a79.4,79.4,0,0,0-.79,11.24c-1.42,0-2.12,0-3.17,4v-16c-.85,5.76-1.88,10.36-2.5,16.23h-.5c0-13.44-.12-26.9,1-39.5-1.28,12.44-2.24,26.29-3,39.5h-.18c-.37-16.94-.22-35-1.75-51.54-2.23-6-4.72-13.35-8.53-12-.15,1.25-.55,7.72-1.74,10.62a15.33,15.33,0,0,0,2.34-5c2.2,6.68,5,10.57,6.95,17.66v12.32c-1.8,1.22-3.47,2.65-5,7.74-.8,6.48-1.48,13.34-2.12,20.24h-.63c.06-12.59.11-25.06-1.61-34.68,0,11.41.31,23.54-.13,34.68h-1.81c-.58-10.38-1.64-20.39-3.35-31.56.36-3.17.73-6.34,1.13-9.55-.54,2.19-1.05,4.47-1.55,6.81-1.95-12.19-4.63-26-8.37-43.73,2.8,15.09,5.54,30.8,7.59,47.6a244.08,244.08,0,0,0-3.84,30.44h-1.14c-.81-14.92-2.13-30.4-2.41-45.12-.35,14.06-.11,29.78.22,45.12h-1.1c-1.18-12.9-2.55-26.32-4.88-34.68,1.12,7.9,2.1,16.73,2.89,26-1,2.85-2.07,5.6-3.09,8.55,0-7.16-.1-13.92.79-20.07-1.06,6.41-2.39,12.73-3.2,20.24h-.27c-.37-5-.75-10.26-1.06-15.75,0,4,0,8.12,0,12.36-1.75-.71-3.55.76-5.36,1.61,0-6.12.06-10.27-1-15.26-1.55-.63-2.21-2-3.57,3.21-.05,0-2.61-1.14-3.57-1.6-.91-7.36-.79-10.17-3-8.84-1.17,2.1-2.48,5.54-.79,16.06-1.5-4.54-2-5.88-4.17-4.82-1.43-5.8-2.34-9-4.57,0-1-2.29-3.09-7.09-5.29-1,0,0,0-.06-.07-.09-.11-5.12.18-8.83-1-12.6a60.45,60.45,0,0,0-3.09,8.45q-.38-.31-.76-.58a38.73,38.73,0,0,0-1.51-8.67c-.13.86-1.42,3.09-1,6.43-1-5.24-.69-7.48-2.78-7.23-.11,2.37.24,4.71,0,7a14.8,14.8,0,0,0-2.7-.38c.06-2.24.13-4.47.27-6.65-.41,2.16-.87,4.43-1.32,6.66a24.64,24.64,0,0,0-3.33.38c.12-5.75.36-11.29.82-17.07a148.68,148.68,0,0,0-2.85,17.55c-1.48.39-3,.87-4.54,1.37a190.46,190.46,0,0,0-2.49-18.92c-.45,4.34-1,7.47-1.27,12.27-1.24-7.81-2.71-21.08-5.42-26.78,0,7.73-.22,20.24-1.16,31-.37-.4-.74-.79-1.09-1.21a239.66,239.66,0,0,0-1.26-26.41c-1.41,6.57-2.77,13.42-3.78,21.66a2.7,2.7,0,0,0-.54-.15c-.71-12.56-1.73-25-1.42-38.24-1.17,9.19-2.59,22.52-4.14,32.34-.55-9.6,0-12.44-2.55-16.72-.63,5-1.86,12.37-1.91,19V293.07c-1.38,3.63-6.12,16.47-7.33,26.76-.74-12.87-1.63-26.32-3.5-37.92-.92,11.75-1.14,24.33-2.87,35.69-.54-7-.41-12.81-1.91-19-.68,5.94-.89,10.58-2.55,14.5-.45-7.83-1-16.57-.64-25.66-1.37,8.62-4,15.52-4.78,25.66-.56-3.06-1.81-7.79-2.07-10.6q.45,7.48.75,14.44a4.41,4.41,0,0,0-.89-.94c-2.63,2.66-4.17,7.21-4.69,19-1.52-8.22-4-4.59-5.4,4.08h-.06c.15-6.39.16-11.88.93-16.72-2.25,2.72-4.33,6.62-6.25,13.27-.08-3-.22-13-.78-17.7-.28,4.9-.56,12.57-1.09,18.34-1.15,0-2.32.4-3.44-.65,1.77-19.67,6-34.53,7.19-51.2a277.52,277.52,0,0,0-9.69,51.84,262.23,262.23,0,0,1,1.72-30.35c-1.85,5.23-3.34,9.9-3.75,20.23-.54.59-.87,3.78-1.72,1.9a107.33,107.33,0,0,0-.31-12.65c-.31.83-1.57.71-1.41,7-.77-7.77-1.59-12.73-3.91-13.91a67.27,67.27,0,0,0,1.72,16.44A37.83,37.83,0,0,0,419.73,335c-.65-3.92-.64-6.12-1.88-6.32-1.74,3.13-1.77,5-2.34,13.27-1.32-1-3.24-2.2-4.85-.63,1.06-1.9,1.46-1.21,1.56-7.58-1.71-5.17-3-5.73-5.31-2.53.21-4.26.55-9.46.31-14.54-1.49,2.67-2.88,3.35-3.12,12-.76-7.68-1.83-15.42-3.91-17.7-.15,2-.72,9.82-.63,14.54-1.47-.54-2.38-1.55-3.59,3.79a81.6,81.6,0,0,0,.31-17.07c-1.82,1.47-2.8,2.78-3.75,10.75,0-7.11-.1-13-1.56-17.7-.22,1.6-1.47,9.54-1.09,15.17-2.45-4-4.51-9.61-5,.49-1.58-5.37-3.2-7.74-4.95-.34.79-6.73,1.92-12.33,3.82-15.42-3,3.71-5.6,7.56-6.86,16.91l-.61.24c.25-8.6.62-16.93.38-26.81-.24,9.85-.88,24.29-4.43,28.46l-.43.16c0-10.45.19-17.16,1.43-26.31-2.6,7-4,17-5.55,28l-.28.12c.72-13.26,1.73-24.28,4.11-35-3.14,9.53-7.52,15.93-7.44,34.73-.51-10.27-.53-22.09-2-31.26,0,12.35.28,23.41-1.05,34.15l-.81.33c-.39-3.49-.46-7.78-2.14-6.7-.24.78-1.49,4.61-2.43,8.55l-4.14,1.67c-.3-3.91-.81-9.15-1.73-11.38,3.48,6.25,4.31,3.95.29-6.94,1.07-5.75,2.17-6.57,1.43-16.21-2.54,3.08-3,1.29-3.44,15.06-2-18.58-.42-7.28-4.29-4.63.46,2.47,1.17,11.75,3.43,11.57-.07,2.72-.72,7-.29,10.42-1.06,1.28-2,1.38-2.88,2.62-1.12-.84-2.2-1.6-3.21-2.25a17.55,17.55,0,0,1-.2-2.68c-1-1.75-1-9.59-3.15-5.79,1-5.45,2.48-3.75,1.43-15-2.28,4.2-3.12,1.68-3.72,15-1.21,2-2.14.5-2.88,4.59a16.92,16.92,0,0,0-2-.36c-1.23-3.36-2.5-4-5.13-3.08-.23,1.17-.5,2.52-.75,3.76a38.94,38.94,0,0,0-3.73,1.22,45.19,45.19,0,0,0-1.24-6.14c-.37,2.42-.8,4.68-1.21,7.06l-.83.32c.25-7.24.53-13.92.61-22.42-1.41,7.34-2.56,15.44-3.66,23.56l-1.21.4c0-9.31-.15-18.42-.85-27.44-.22,9.63-.64,19.22-1.63,28.06a.22.22,0,0,0-.19.06c-.23-2-.26-5.29-1.33-6.12-.4,2.23-.72,4.5-1.07,6.71-.68.12-1.37.25-2.09.34a62.61,62.61,0,0,0-1.71-8.21c-.56,2.56-1.26,5.54-2,8.51-.81,0-1.6.08-2.47.06-.41-8.12-.63-16.89-.4-25.93-1.11,8.06-1.61,17.12-2.44,26-.73,0-1.39.06-2.09.06-.7-9.48-1.45-18.84-2.34-28.37a245.6,245.6,0,0,1-1.5,28.47,17.13,17.13,0,0,0-1.83.06c-.34-3.37-.75-6.83-1.25-10-.53,2.15-1.42,6.33-2.4,10.37-1,.1-2,.21-2.95.34a197,197,0,0,1,4.2-33.86c-2.37,10.93-5,21.11-6.67,34.16-.29.06-.62.06-.91.1-.12-1.1-.24-2.25-.36-3.4,0-.16,0-.36,0-.52,0,.06,0,.12,0,.16a163.58,163.58,0,0,1-1.18-18.93c0,8.29-.22,15.28-.41,23-.95.17-2,.4-2.9.57-.74-2.82-1.59-5.09-2.6-5.85a59.84,59.84,0,0,0-.87,6.55c-.23.06-.5.09-.73.14l-1.82-6.68c-.35,2.22-.78,4.65-1.18,7.29l-2.08.41c-.29-1.54-.58-3.09-.85-4.85-.35,1.89-.65,3.63-1,5.21l-1.58.32a69.31,69.31,0,0,1-.26-7.91c-1,2.94-2,5.87-3,8.55a4.73,4.73,0,0,1-.6.12c-.19-3.55-.44-7.54-.29-11.53a85.41,85.41,0,0,0-2.36,12.59,3.76,3.76,0,0,1-.48,1,220.79,220.79,0,0,0-1.16-25c-.23,9.45-.19,19.53-1.76,25.83a6.64,6.64,0,0,1-1.15-.29c-.09-3.89-.12-7.81-.26-11.74-.44,3.54-.84,7.28-1.23,11.05-.19-.1-.35-.14-.55-.25-.16-4.84-.42-9.54-.83-14.07-.18,5.71-.65,11.85-1.47,18.45-.63,5.12-4.15-.36-5.27,4.44-.6-1.94-1.08-6.72-2.2-7.11-.79,4.27-1.33,10.83-2.85,9.77v-14.2c-1.59,8.57-2.34,14.49-3.95,23.07.29-11.87.05-20.6,1.54-30.19-2.3,8.14-3.85,19.88-5.27,34.63.27-10.9.24-23.38.22-35.51-.94,12.71-1.93,27.39-3.73,40,.83-11.2,1.12-24.37.88-38.18-.75,11.14-2.07,22.59-3.07,34.63,0-13.46-.12-27.08.21-40.38-.08,0-.15.06-.23.09-2.81,5.67-4.12,18.77-5.24,31.41V338.41c-.89,7.9-1.65,16.37-3.95,20.42V334.55h-.44a136.75,136.75,0,0,0-4.61,28.73c-.57-8.41-.91-19-2.41-25.74-.35,7.15-1,12.34-1.32,19.52-.88-7.1-1.32-16.52-3.29-18.64-.16,6.27-.36,13-.22,19.54-1.22-7-2.4-13.79-3.72-20.27.67,8.18,1.07,17.06,1.16,26.68-2-10.53-1.56-19.61-5-18.82-.26,2.4-1.18,4.81-1.12,9.79-.42.34-2.22.12-3,4.51-.85-4.6-.3-7.5-2.6-6a22.54,22.54,0,0,1,.19-4.52c.62-.5,1.36,1.12,1.86-1.5.13-5.09.53-11.48-.56-16.57-1.93.78-3.09,2.42-4.65,6.77-1-3.88-.52-7-2.79-5.27a82.09,82.09,0,0,0-2.23,13.56c-1.14-9.21-2.11-14.78-4.84-8.28,0,1.42-.64,6.8.19,9-1.22,2.19-2.16,2.8-3,8.28-.59-3.17-.52-7.15-1.67-9,.46-6.88,1-11.71-.75-13.63-.37.13-.74.32-1.11.49A87.26,87.26,0,0,0,166,344c-1.56,3.51-2.21,4.63-2,12.8-.74-3.4-1-7.13-2.61-6.77-.35-5.23.11-7.78-1.49-8.28a166.55,166.55,0,0,0-3.17,18.06c-.64-2.94-1.38-7.45-2.42-9.78-1,7.55-1.44,17-3.54,21.08-.27-5.53-.25-11.38-.93-16.57a73.41,73.41,0,0,0-2.23,10.54c.14-5.75.3-10,.71-15.26l-.76.17c-2,5.95-4.09,12.35-5.9,19.6-.37-5-.46-9.46-1.67-13.56-.47,3.84-.6,7.42-1.86,10.55-.34-5.51-.62-11.39-1.21-16.69l-.61-2.08a120.71,120.71,0,0,0-1,17.26c-.49-10-1.62-19.32-2.14-29.17-.73-3.17-1.44-6.48-2.1-10.27-1.28,4.11-2.38,9.58-3.79,11.88-1.72-6.43-3.21-15.29-5.55-16.2-.67,1.78-1.22,4.43-2,5.4-.46-4.77-.65-12.57-2.27-16.2-1.43,4.6-2.53,7.62-4.29,13,1.05-15,3.7-27.35,5.3-44.29-4.64,14-10,25.52-12.37,49.69-.57-2.8-.67-7.82-1.76-8.65-.65,5-.86,10.25-2.27,14-1.45-9.31-2.07-20.71-3.78-29.17-1.93,8.27-4.37,16.28-5.05,28.08,0-12,.57-22.33,1.26-33.48-2.79,5.31-3.53,15.77-6.06,23.77-.56-24.11-.44-50.47,2-72.37Zm188.39,77c.17-.52.34-1.09.51-1.53C279,324.66,278.87,325.89,278.81,328.11Zm281.26,1.82c-.07-5.22-.25-10.29-.63-15.25C559.53,319.7,559.77,324.86,560.07,329.93Zm23.63-36.08c-.35.47-.69,1-1,1.38C583.07,295.09,583.4,294.54,583.7,293.84ZM593,319.17v26h-4.35c.12-4.77.3-9.51.78-14.17C590.42,326.51,591.5,322,593,319.17Zm-15.27,1c.42,3.62.82,7.28,1.15,11-.59,4.62-1.21,9.3-1.84,14h-1.26C576.11,336.6,576.81,328.37,577.71,320.16ZM461.94,330.73a5.61,5.61,0,0,1,3.75,3c-1.27.51-2.52,1-3.8,1.35,0-1.46,0-2.81.06-4.39Zm105.44,11.82c.07.88.13,1.76.19,2.65h-.31c0-.89.08-1.78.12-2.65Z"/><path id="path5685" class="cls-3" d="M409.39,339.74c-1.1-2.88-.35-5.38.44-8-4.59,1.82-6.74,4.71-8.82,7.74-.67-2.75-3.36-4.95-5.73-6.55a16.66,16.66,0,0,1-.88,6.85,19.19,19.19,0,0,0-5.29-6.55c-2.62.33-3,3.68-3.09,3.87-4-1.8-4-3.86-4-7.14-3,3.13-4,7.83-5.29,11-2.7-2.62-6.44-3.51-10.14-4.76,1.75,2.22,1.76,4.83,1.76,7.44-1.49-1.45-3.82-1.39-5.73-2.08-1.55.7-.59,1.78-.88,2.68-4.79-.2-10,.06-14.55.3a25.79,25.79,0,0,0,3.53,1.79c-7.82-.22-18.68-.21-24.68.89,2.23.7,4,1.45,5.73,2.08-10.42,3.05-19.5,7.76-30,10.12,8.5,2.08,15.28-.73,22.48-2.68,2.53-.82,4.88-1.38,7.49-2.08.38,2,1.64,3.65,2.64,5.36,2.9-.12,6.23-2.65,8.82-3.87v3c6.76-5.32,10.78-6.87,21.16-8A14.36,14.36,0,0,0,353,360a21.88,21.88,0,0,0,6.61-2.38c.58,2,1.19,3.72,1.76,5.65,4.62-4.08,7.85-10.22,10.14-13.69.94,5.27-1.11,10.15-3.09,14.58,2.65-1.48,4.85-3.28,7.05-4.76-.25,1.92-.18,3.73-.44,5.65,6.2-3.53,8.19-8.88,8.82-14a28.91,28.91,0,0,1-2.2,14.88c5-5.2,10.15-10,17.63-12.8-7.17,2.34-7.24,7.2-7.93,11.9,2.52-1.51,5.61-1.81,8.37-2.38,3.28.69,3.9,2,5.29,3.27,1.22-3.06.22-5.55-.88-8,3.66,1.48,5.16,4.4,6.61,6.85,2.09-3,1.76-6,1.76-9.23,3.14,3,3.35,6.15,4.85,9.52,2.44-3,6.74-5.49,9.7-7.74a48.87,48.87,0,0,0-1.76,8.33c4.69-2.16,7.7-4.13,12.78-5.65-1.85-1.27-3.81-.2-5.73-.3,4.66-6.2,6.08-12.8,4-19.94,1.17,5.12-1.36,8.83-4,12.8-.62-7.46-2.7-16,2.64-22-7.29,4.67-5.46,11.39-7.93,17-2.14-3.18-3.06-6.22-5.29-9.23,0,3.15-2.61,5.47-4.85,7.74,2.1-3.33-2.12-11.88-3.09-5.36-1.11,1.93-4.11,3.46-4.85,4.17Z"/><path id="path5761" class="cls-4" d="M313.32,343.06c-.1,0-.19,0-.28,0-3.42,1.93-5,6.38-6.38,10.67v-6.33c-1.08,2.68-2,5.56-4.81,6.94v-8.25h-.54a19.77,19.77,0,0,0-5.61,9.76c-.69-2.86-1.11-6.45-2.94-8.75-.43,2.43-1.17,4.19-1.6,6.63-1.07-2.41-1.6-5.61-4-6.33a40.85,40.85,0,0,0-.27,6.64c-1.48-2.39-2.92-4.69-4.53-6.89a36.63,36.63,0,0,1,1.41,9.06c-2.46-3.58-1.9-6.66-6.12-6.39-.32.81-1.44,1.64-1.36,3.33-.51.11-2.7,0-3.63,1.53-1-1.56-.36-2.55-3.17-2,.08-.51-.21-1.08.23-1.54.76-.17,1.66.38,2.27-.51.15-1.73.64-3.9-.68-5.63a9.87,9.87,0,0,0-5.66,2.3c-1.17-1.32-.63-2.39-3.4-1.79a11.93,11.93,0,0,0-2.72,4.61c-1.39-3.13-2.57-5-5.89-2.81,0,.48-.78,2.31.23,3.07-1.48.74-2.62,1-3.63,2.81-.72-1.08-.64-2.43-2-3.07.57-2.34,1.18-4-.92-4.63l-1.35.17a10.58,10.58,0,0,0-1.59,3.7c-1.9,1.19-2.69,1.57-2.49,4.35-.9-1.16-1.24-2.42-3.17-2.3-.43-1.78.13-2.64-1.81-2.81a25.15,25.15,0,0,0-3.85,6.14,13.17,13.17,0,0,0-2.94-3.32c-1.26,2.57-1.75,5.76-4.31,7.16-.33-1.88-.3-3.87-1.13-5.63a13.08,13.08,0,0,0-2.72,3.58,26.49,26.49,0,0,1,.86-5.18l-.92.06a67,67,0,0,0-7.19,6.66c-.09-.35-.17-.69-.25-1,.14,3.11.15,6.34.37,8.85,1.72-2.52,3.33-5.83,4.7-8.16a58.75,58.75,0,0,0,4.33,13.87c1.87-1.81,2.42-4,3.25-6.53,1,2.76,1.69,5.21,2.53,7.34,2-5.93,4-12,6.5-17.54-2.87,10.51-4,21.51-.72,31.81,3.81-3.79,6.64-9.18,9.75-13.87-.24,3.25-.62,7-1.08,10.2a49.44,49.44,0,0,0,3.25-6.12c.81,2.18.73,4.35,1.09,6.52,2.76-.25,4.42-3.9,6.14-6.12.2,2.2,1,4.23,1.44,6.53a28.53,28.53,0,0,0,1.81,5.71,91.62,91.62,0,0,1,4.46-9.36,14.47,14.47,0,0,1,6-8.18,36.72,36.72,0,0,0-6,8.18c-1.33,4.3-1.21,9.16-1.21,13.43,3.08-1,4.67-4.45,6.51-6.52a38.72,38.72,0,0,0,1.08,4.49,37.94,37.94,0,0,0,9-15.09c.63,4.13.36,8.43.36,12.64,4.44-5.76,6.4-15,6.86-20.8.43,3.9,1.23,7.85,1.81,11.42,1.64-5.27,4.36-9.57,6.86-14.28-2.69,6.53-3.25,13.33-3.25,20.8,2.71-.57,3.64-2.46,5.42-3.67a26.73,26.73,0,0,1-1.45-9.79c2.22-.05,3.25,1.63,4.7,2.85-2.38-3.74-1.17-7.15-.36-10.2,2.58.51,3.2,3,4.33,4.9.66-3,1.79-5,2.89-7.75,2.7,1.26,1.81,4.36,1.81,8.16,1.09-1.68,2.62-1.61,4-2.45-4.39-3.71-4.08-7.83-3.61-13.05,3.42.06,2.72,1.11,4.7,4.08.83-2.7,1.52-5.26,2.09-7.69-.58,1.69-1.18,3.39-1.7,5.15,0-4.57-.14-9.2.25-13.72Z"/><path id="path5741" class="cls-5" d="M509.93,360.83c.85-.74,3.18-.18,2.64-2.32,1.55.22,6.85,1,9.83-.19-2.06-2.83-4.4-5.37-8.43-5.22,3.84.27,7.4,1.13,7.71-2.42-2.21-1-4.48-2.37-7.53-2.4a12.21,12.21,0,0,0,0-3.12c-3.07.34-5.23.27-6.68,3.25-.43-4.61.38-8.36,1.34-12.77a65.84,65.84,0,0,0-5.2,12.28c-.67-7.14-1.07-13-5-19.44,4.54,5.08,4.37,14.63.25,19.54a12,12,0,0,0-2.67-1.36c.3-2.29,0-4.63.95-6.82-1.68,1.15-4.25,2.2-4.62,4.9-.37-3.91-.56-7,1.89-10.23-3.09,1.33-4.51,3.44-5.67,7.19-.29-3-1.14-8.67.12-12.18-3.08,5-4.7,8.8-2.74,14.78-.85.85-2.6.58-2.61,2.6-1.1-2.17-1.09-4.09-4.52-4.16-.7.95-2.65,1.42-1.5,4.28,2.14,1.72,2.86,1,2.3,4.2-3,.3-5,.47-6.42,2.67-1.16-2.45-1.95-4.64-5-5.85.36-1,2-3.8.39-6-2.77.81-4.43,1-6.65,3.53-2.2.4-4.23.52-6.21,1.54l-.24-2.54a27.73,27.73,0,0,0-7,3c-.45-2.28,0-2.77-2.57-3.63-.76,1.91-1.45,3.42-2.35,5.43,1.11.72-4.41-8.57-10.21-10.56,2.92,3.73,3.5,6.85,3.92,11.25a46.59,46.59,0,0,0-4.31-1.9c-2.72-.57-3.8.81-5.26,1.52,1.15,2.52,4.9,2.73,6,3-3.23,1-2.91,2.38-3.38,4.6,2.51.88,5.33.46,8,.41-6.52-1-8.61,3-8.1,8.37,3.94.12,7.24-2.24,9.45-4.15l.37,4c3.52-.07,5.86-2.62,7.74-5.53.28,2.18,2.06,2.59,3.2,3.62.55-1.48,2.92-3.13,4.07-4,.66-3-.3-2.75-2.94-4.19,7.47.58,12.06,5.26,15.33,11a19.9,19.9,0,0,1,.74-5.68c.53,2.17,2.84,3.66,4,5-.95-3.44.83-5.38,2.74-8-.12,2.12,1.17,3.75,2.12,5.62.69-5.06,5-7.77,8.58-10.08-2.84,2.9-2.3,5.9-1.95,9.67,1.71-3.83,4.77-6,8.13-8.09.35,2.2,2.2,4.66,3.1,5.89,3.11-1,4.55-3.1,5.89-4.93.77,4.24,5.17,3.71,9,4.64Z"/><path id="path5756" class="cls-6" d="M219.05,346.79c0,13.51.64,26.29-3.46,38.91-1-6.21-1.74-12.72-3-18.9-1.44,6-3.73,12.89-4.32,19.46,0-13.33-.22-27,2.16-38.91-3.8,13.43-7.79,29.47-9.51,43.36-2.32-9.93-1-23.48-1.3-35-.73,11.21-2.62,22.8-3.31,34.52a100.61,100.61,0,0,1-.14,13.28,124.08,124.08,0,0,1,.14-13.28c-.66-11.9-3.54-23.84-9.65-32.86,4.36,13.46,3.8,31.56,1.29,46.13,0-10.23.28-20.1-2.59-29.46a86.35,86.35,0,0,1-1.3-11.12c-1.66,5.89-4.12,12.27-5.18,18.34a148,148,0,0,1,.86-18.34c-4.76,10.21-9.21,21.45-10.37,33.35-.26-.38-3.75-6.74-5.62-6.67-.54,4.21-.86,8-2.16,12.23-1-7-2-14.3-4.75-20.57,0,7.39-1.1,10.11-4.76,16.12a148.76,148.76,0,0,1,3.46-32.24c-5.94,13.09-7.81,29.38-12.53,42.24a98.43,98.43,0,0,1-.43-22.79c-2.07,9.33-3.35,17.9-4.76,27.24-2.68-5.74-3.21-12.2-6.91-18.34a77.32,77.32,0,0,1,3.91,20.65H274.74a31.61,31.61,0,0,1,3.94-11.2c-5.12.66-8.42,2.4-13,5.56,1.18-2.08,2-4,3.45-6.12,6-10.25,13.53-6.45,21.61-4.45-10.59-7.57-19.37-11.19-29.38-.55,5.61-9.62,14.69-12.76,22.9-18.35-11,0-20.88,4.55-29.82,13.34a42.13,42.13,0,0,0,7.78-18.9c-3.23,6.24-8,12.5-13.83,14.46.89-2.56,2.12-6.38,4.32-8.9-2.86,1.47-6.53,2.13-8.64,6.12,1.38-5.93,3.65-8.77,3.89-15-3.68,3.87-10.68,9.28-14.69,15-.4-5.16-.44-10.49-1.73-15.57-1.43,6.14-3.73,13.1-4.76,19.46,0-12.48-.78-29.79-7.78-42.24Z"/><path id="path5787" class="cls-7" d="M35.18,347.32c4.83,13.95,11,37.58,1.51,50.22,0-6.52.6-13.26-1.51-19.31,0,7.85-.53,15.92-3.77,22.69,0-6.66-.27-13.29-.75-19.8-1,6.87-1.19,14.05-3.39,20.76,0-14-.91-26.46-6.4-39.11,1,13.41,1.73,30.34-5.27,40.56-.45-3.15-1.31-5.87-1.88-9.18-1,3.21-2.9,7.49-2.63,11.59-.85-1.46-2.62-4.33-3.77-6.28-1.78,2.93-3.8,5.88-5.65,8.83v5.83H93.91a15.64,15.64,0,0,0,1.52-3.56,59,59,0,0,0,1.13-7.24c-2.26,1-4.66,1.92-7.15,2.9,1.1-3.52,1.91-7.66,3.39-11.59h5.65c-2.29-1.33-3.83-3.46-6.78-2.89-4.21,2.4-9.1,5.47-11.29,11.59,1.7-10.88,8.47-18.44,6-30.9-1.55,10.94-5.22,20.07-12.43,27v-9.17c-1.46,2.5-3.38,4.34-4.89,7.24,1.29-8.3,2.47-13.68,7.49-18.51-3.93,2.91-8.05,4.59-10.88,9.82,0-5.75.93-9.61.75-15.45-1.39,2-3.93,4.29-4.52,8.21,0-8-.27-16.42.38-24.14A75.69,75.69,0,0,0,56.64,371c-1.26-3.65-1.62-7.3-3-11.1-.5,3.18-.89,6.71-1.51,10.14-2.27-7.57-3.83-15.74-7.15-22.69,1.05,13.52,8.76,29.43,2.26,45.87,0-16.39-4.19-32.79-12.05-45.87ZM76.56,379a23.55,23.55,0,0,0,2.67-2.25A27.59,27.59,0,0,0,76.56,379Z"/><path id="path5800" class="cls-8" d="M561.27,337.69c.5-1.7,1.5-2.93,1.46-5-2,2.54-4.13,2.21-3.42,7.72,0-4.91.17-9.12-2-13.23,0,4.46.76,11.35-3.42,12.12-.56-.5-5.2,3-2.44-2.2,1.15-1,1.82-3,3.91-3.31-2.27.59-4.69-1.23-6.35,1.65-.82-1.45-1.53-4.61-3.42-6.06-.9,2.23.83,5.06-2.44,6.06-1.14-2.89-1.14-5.87-3.91-8.27v10.47c-1.44,0-1.69,1.33-3.42,0-.05,0-2.43-3.19-5.37-1.65-1.09,1.58-4.43,1.18-3.42,5-.76-.38-2.93-2.16-4.39-2.2.16-.92.25-1.86.49-2.76-.53-.4-1.11-3.77-2.93-2.2-.66,2.25-3.77,2.77-2,6.61-2-2.22-3.36-5.25-6.35-6.61-1.57,4.34.85,4.68,2,7.16-3.95-1.61-3,2.36-4.88,3.86,2.29,2.53,4,0,6.35,0h3.42c-4.35,1-2.16,3.13-3.42,5,3.09.66,4.93-1,7.32-2.2-.12,1.72,1,2.62,1.46,3.86.61-4.22,2.39-5.45,4.88-8.27,2.7-1,2.79,2.37,3.91,3.31v-8.27c1.31,2.43,2.42,4.29,3.42,6.06-3.91-5.33.33-1.47.49-2.2,2.52-.53,3,.68,4.88,1.1,3.87-3.56,1.59,1.8,2,2.2,3.14,1.67,7.12,1,10.74.55a42.88,42.88,0,0,1,5.86-2.76c7.16-.24,4.94-2.15,1-5.51Z"/><path id="path5802" class="cls-9" d="M429.38,380.08c-1.74-2.43-3.19-6.83-4.46-8.64,1,2.43,1,5,1.27,7.68-2-1-4.06-1.69-5.95-2.64,2.18,1.42,2.87,4.21,3.61,6.72a18.88,18.88,0,0,0-11.9.48c2.44-.22,4.83.94,7,1.68-3.49.55-6.94,3.59-9.14,5.52,3.88.41,7.52-.67,11.26-1.44a7.34,7.34,0,0,1,.21-2.64,32.57,32.57,0,0,1,2.55,2.4c2.21-1.38,2.08-3.56,2.55-6.24,1.42.07,2.64.32,4,.48.35-1.9-.45-2-1.06-3.36Z"/><path id="path6007" class="cls-10" d="M673.29,342.32c-3.47-1.57-6.4-3-10.2-2-.79-3-.9-9.1-.58-13.82-2.11,4.77-4,9.44-4.08,14.81-2-3-2.87-3.51-6.12-4.28-.62.78-1.87,1.77-2.33,3-.9-2.53-1.59-5-4.08-5.92a20.84,20.84,0,0,0-2,4.94,47.76,47.76,0,0,1-.29-13.16c-1.63,4.15-3.79,8.89-5,14.48,1.23-5.54.12-13.63,4.37-18.76a33.12,33.12,0,0,0-6.12,9.22c.36-4.48,1-8.84,3.79-12.51-5.18,5.19-9.13,13.64-10.5,21.39a39,39,0,0,0-.87-11.85c-.62,3.48-1.35,7.13-3.5,9.87.91-4.11.56-8.28-.29-12.84-.24,1-1.32,5.23-2,7.24,0-4.89-.08-9.77.29-14.48A29.76,29.76,0,0,0,618.19,338c-1.77-6.4-3.87-13-7.29-18.1,3.49,7.32,3.88,15,5.25,22.71A25.92,25.92,0,0,0,610,338c-.77,1.6-.58,3.2-.58,4.94-.33,1.05.58,1.1.87,1.65-3.65-4.54-7.76-3.88-10.79-1.32,1.23,3.14,4.26,4.52,6.41,5.6-4.1-.62-4.08,2-4.08,5.92,4.17-.75,7.58-.73,11.37-3.29.9,3,3.35,5,5.25,6.91,6.22.82,10.26-6.92,16.62-8.23.24,2.44,1.75,3.79,2.92,5.6,5.69-5.13,12.29-8.23,20.12-8.23,4.92-3.39,10.13-5.27,15.16-5.27Z"/><path id="path5759" class="cls-11" d="M672.12,370.82a122,122,0,0,1,16.47-5.43c-6.69-.57-13.66-1.29-20.27,1.63,2.1-5.41,3.65-11.1,9.5-14.66-6.25,3-13.14,8.38-15.21,15.74,1.64-14.09,6.28-26.89,9.5-40.72-1.53,14.4-10,27.48-17.74,40.17,1-4.46,2.05-10.16,4.44-15.2-4.46,3.82-8.56,8.33-9.5,14.11,1.42-6.07,2.12-13.66,9.5-18.46-3.87,1.33-7.78,2-11.4,4.34,1.28-3.3,1-6.77,5.07-9.23-4.21,2.41-8.76,4.89-11.4,9.23a179.35,179.35,0,0,1,1.9-18.46,52.35,52.35,0,0,1-10.14,17.37c-.21-2.54.48-5.13-.63-7.6-2.88,1.06-5.25,3.53-8.87,3.26-.21-2.36.49-4.79-.63-7.06-1.13.85-3.18,2.63-5.07,3.8.39-3.31.42-6.45,1.27-9.77-3.53,3-7.81,6.41-7.6,11.4v-.54l-9.5-8.69c7.25,5.06,6.68,11.62,7.6,19.54-7.47-7.75-18.61-16-26.61-19,9.4,6.55,14.84,14.17,17.11,23.89C593.27,353,587,345.23,575.81,342c8.3,4.73,12.74,12.08,16.47,20.09-4.19-1.88-8.14-1.63-12.67-1.63,1.9,2.06,3,3.31,4.43,4.89-11.13.18-15.91,9.46-18.37,17.92,11.05-1.24,19.34-6.93,27.24-13-.82,3.8,2.15,6.69,3.8,9.23,5-2.94,10.05-7.3,14.57-10.32a41,41,0,0,0,2.53,4.34c.76-8.37,5.82-15.08,11.4-21.17-4.24,4.78-4.43,11.18-4.43,17.37.34-4.27,4.23-7.08,7-9.77-.92,3.75-.63,7.59-.63,11.4,1.15-2.37,4.39-5.43,5.7-7.06-.34,2.48,1.28,4.74,1.9,7.06,2.85,0,5.77-1.23,8.24-2.17,1.07,4.42,4.61,7.44,7.6,10.86,2.33-3.25,2.13-6.29,2.53-9.77,4.66,10.73,18.3,10.32,27.24,10.32-.71-5.4-3.53-6.75-8.24-9.77Z"/><path id="path5753" class="cls-9" d="M461.83,381.85c-.59-5.22-.44-10.34,1.53-15.24.72,3.22,1.34,6.52,3,9.48,2.72,1.34,5.79,3.52,9.53,3.39-1.33-3.94-2.84-8-7.62-9.14,6.12,1.09,9.41,6.4,14.49,7.45-4-3.51-7.37-9.39-5.34-15.24,2.44,5.63,5.81,13.5,13,15.91,1.68-2,3.26-3.87,3.05-6.77.73,1.61,1.49,3.1,2.29,4.74,4,0,6.27.2,8,3.72.13-1.59-.28-3.2.38-4.74a30.3,30.3,0,0,0,11.06,3c-2.45-2.9-4.46-5.8-8.77-6.77,1.84-1.87,3.76-4.13,6.86-5.08-5.12.76-9.48,1.14-13.72,3.72.57-2.53,1-4.47.76-6.77-1.44,1.82-2.65,3.87-5.34,4.74-.93-3.57-1.84-7.6-5-10.5,0,.6-.21,6.57-1.53,9.14-.57-5.6-3.18-11.83-7.62-15.57a41.76,41.76,0,0,0-1.53,4.4c-1.17-2.6-2.14-5.5-1.14-8.8-2.75,3.06-5.61,6.52-7.24,10.16a43.66,43.66,0,0,1-.38-8.46c-1.42,3.46-3.39,6.88-3.43,10.83-1.23-3.29-1.52-7.44-5.72-8.46-.77,3.42-1.57,6.67-3.81,9.48-.25-2.61-.17-5.13-1.91-7.45-.79,1.59-2.14,4.41-3,6.43a40.11,40.11,0,0,1-.76-10.83,22.22,22.22,0,0,0-2.29,13.2,29.87,29.87,0,0,0,.38,11.85c-2.25-10.82-8-24.33-17.92-30.47,7.16,7.3,11.06,18.35,11.06,28.1-1.63-4.39-6.59-10-8.39-12.87,1.89,6,1.91,12.22,1.91,18.62a32.64,32.64,0,0,0-5,.34c.79,3.65,3.87,3.39,8,3.39-1,2.11,1.33,2.83,1.91,4.06a7.84,7.84,0,0,0,4.19-2.37c-.78-4.06.53-4.35,2.29-6.43,4.85-.44,5.42,2.62,6.48,5.76.35-2.55,1.5-3.54,2.67-5.42,4.4.44,3.81,2,4.58,5.42Z"/></g><path class="cls-12" d="M697.83,389.68c-1.38-6-14.3-13.56-19.59-15.77-5.57-2.32-51-2.41-72.39,9-7.67,4.09-23.88,14.7-47.77,18-10,1.37-16.67-.7-26.89.72-9,1.24-22,3.93-28.66,10.29-3.85,3.7-2.36,9.72,2.61,10.95,10.93,2.69,36.56-3.29,44-5.48a9.61,9.61,0,0,0,4.94,4.72c18.83,6.89,32.75-1.86,33.14-2,17,3.78,38.37,1.67,55.2-2.48C672.4,410.11,699.78,398.16,697.83,389.68Z"/><path class="cls-13" d="M682.71,360.89l-2.47,3.69a22.27,22.27,0,0,1-3.84-8.81s0,0,0,0c-1.19-5.9-.34-13.22,3-23a22,22,0,0,0,1-10.49,2,2,0,0,0,0-.31c-1.53-9.42-8.55-15.84-8.55-15.84l11.12-1.71s2.89,18.43-.23,29.23c-3.81,13.13-3.95,19.14-.63,25.81C682.36,360.19,682.14,360.17,682.71,360.89Z"/><path class="cls-14" d="M678.66,360.07c1.84,8.17,6.07,9,9.32,13.85.45.68.24-1.48-1.73-3.56,3.58,2.57,4,4.5,4,4.5.8,1.82.41-.1-.17-2a5.86,5.86,0,0,1,1.33,1.57,5.57,5.57,0,0,0-1.08-2.45,8.82,8.82,0,0,1,2.57,6.16c.13,1.87,1.41-6-3.81-8.7,2.11.93,4.1,2,4.85,4.21a.13.13,0,0,0,.25-.07,7.12,7.12,0,0,0-2.64-4.13,10.78,10.78,0,0,1,1.44.83c.2.14.37-.16.24-.32-2.14-2.58-5.77-3.22-9-5.83a59.44,59.44,0,0,0,5.78,2.48c.25.1.47-.25.21-.38-3.23-1.62-6.79-2.77-8.31-6.78,0,0,0,1.34-.61,1-.39-.24-1.36-2.28-1.65-2.24s.84,3,.68,3.38S678.64,360,678.66,360.07Z"/><path class="cls-15" d="M676.39,355.76s0,0,0,0c-1.19-5.9-.34-13.22,3-23a22,22,0,0,0,1-10.49c.68,3.52.88,8.36.11,10.63C678.59,338.3,676.39,355.76,676.39,355.76Z"/><path class="cls-16" d="M627.79,385.14l2.9-2.6a5.88,5.88,0,0,1-4.43.33,22,22,0,0,0,5.19-5.13s5.41-.28,7.25,3.48a6.57,6.57,0,0,1-.16.8C636.85,389.36,630.13,386.2,627.79,385.14Z"/><path class="cls-16" d="M643,401.77l2.9-2.6a5.88,5.88,0,0,1-4.43.33,22,22,0,0,0,5.19-5.13s5.88-.78,7.25,3.48a6.57,6.57,0,0,1-.16.8C652,406,645.32,402.83,643,401.77Z"/><path class="cls-17" d="M641.45,399.49s4.06-.25,5.47-1.47l-1,1.16A6.12,6.12,0,0,1,641.45,399.49Z"/><path class="cls-17" d="M643,401.77s8.13,1.76,10.75-3.12C652,406,645.32,402.83,643,401.77Z"/><path class="cls-17" d="M626.26,382.86s4.06-.25,5.47-1.47l-1,1.16A6.12,6.12,0,0,1,626.26,382.86Z"/><path class="cls-17" d="M627.79,385.14s8.13,1.76,10.75-3.12C636.85,389.36,630.13,386.2,627.79,385.14Z"/><path class="cls-16" d="M532.72,403.83l2.9-2.6a5.88,5.88,0,0,1-4.43.33,22,22,0,0,0,5.19-5.13s5.18,1.34,7.25,3.48a6.57,6.57,0,0,1-.16.8C541.78,408.06,535.06,404.89,532.72,403.83Z"/><path class="cls-17" d="M531.19,401.55s4.06-.25,5.47-1.47l-1,1.16A6.12,6.12,0,0,1,531.19,401.55Z"/><path class="cls-17" d="M532.72,403.83s8.13,1.76,10.75-3.12C541.78,408.06,535.06,404.89,532.72,403.83Z"/><path class="cls-18" d="M650.18,345.57c-1.55,3.32-2.21,5.85-1.83,7.1.74,2.45.07,3.55-1.65,6.8-6.49,12.23-4.59,12.33-5.41,14.7s-2.29,3-2.59,7c0,0-9.66.3-7.25-3.47,5.62-8.78,6.2-14.53,6.21-19,0-7.59-4.61-10.55-3.79-21.45a90.83,90.83,0,0,1,3.44-17.5c5.19-9.74,16.76-10.3,22.58-6.57a1.84,1.84,0,0,1,.45.35c2.43,2.12,2.54,7.61,2.54,7.61l-.15.26c-1.52,2.77-3.27,6-5.05,9.38C654.93,335.93,652.17,341.31,650.18,345.57Z"/><path class="cls-18" d="M546,347.72s-1.67,21.37-3,25.27-2.57,4.62-1.58,8.7-5.07,14.74-5.07,14.74,1.09,4.4,7.25,3.47c.45-2.76,2.25-3.27,3-5.45s-1.46-2.53,2-10.29c1.63-3.65,4.45-6.58,3.52-10.19-.72-2.81,9.91-27.18,9.91-27.18C556,342.56,550.72,343.18,546,347.72Z"/><path class="cls-19" d="M643.63,369.68c-1.24-.17-1.16-2.13-.8-4a24.84,24.84,0,0,1,.91-3.21l3.65-1.28a38.16,38.16,0,0,1-1,4.37C645.76,367.74,644.82,369.84,643.63,369.68Z"/><path class="cls-19" d="M642.4,360.25a35.27,35.27,0,0,1-3.07,4.41c-1.24,1.44-2.56,2.58-3.48,2.08-1.08-.6-.35-2.34.64-3.89a26.24,26.24,0,0,1,2.05-2.74Z"/><path class="cls-19" d="M637.85,357.21a37.28,37.28,0,0,1-4,3.13c-1.7,1.09-3.45,1.87-4.18,1.07-.9-1,.55-2.52,2-3.74a26.53,26.53,0,0,1,2.54-1.78Z"/><path class="cls-16" d="M547.91,420.47l2.9-2.6a5.88,5.88,0,0,1-4.43.33,22,22,0,0,0,5.19-5.13s5.43-.73,7.25,3.48a6.57,6.57,0,0,1-.16.8C557,424.69,550.25,421.53,547.91,420.47Z"/><path class="cls-20" d="M571.85,368.57a39.85,39.85,0,0,1-6.73,7.36,27.06,27.06,0,0,1-5.47,3.63A23.63,23.63,0,0,1,549,382h0c-2.67,0-4.92-.31-6.58-.33a7.8,7.8,0,0,0-.92,0c-3.5.28-7.45,5.44-9.49,8.52-.88,1.31-1.41,2.24-1.41,2.24l-3.18-3.1L523,385.12l-1.6-1.56-9.74-9.5,1.39-2.05a.64.64,0,0,1,.12-.19l.55-.82c.48-.73,1.25-1.83,2.17-3.19l.35-.52c.14-.18.27-.39.42-.6l.72-1.08,11.85-17.38.72-1.08c2.15-3.15,3.62-5.32,3.62-5.32l23.57-34.63a167.94,167.94,0,0,1,13.23,26.93C575,346.6,577.78,360.41,571.85,368.57Z"/><path class="cls-21" d="M656.48,358.83c-3.18,3.64-6.16,5.65-8.91,6.5-11.6,3.72-19-12.75-19-12.75.48-8.69,10.44-12,19.06-11.11C657.22,342.5,665.21,348.81,656.48,358.83Z"/><path class="cls-19" d="M656.48,358.83c-3.18,3.64-6.16,5.65-8.91,6.5-1.12-3.19-1.53-9.52-12.78-7.29-3.94.78,12.07-13.35,12.81-16.57C657.22,342.5,665.21,348.81,656.48,358.83Z"/><path class="cls-20" d="M678.05,337.78l0,.07-.12.19a16.24,16.24,0,0,1-1,1.46c-4.44,6.24-8.5,9.89-12.22,12-.22.14-.46.25-.67.37a21.18,21.18,0,0,1-2.23,1c-.38.14-.76.28-1.13.39-4.4,1.37-8.27.9-11.67.64-2.61-.18-4.94-.24-7,.8s-6,2.9-11.17,5c-13.18,5.32-34.57,12-55.55,9.39l-.43-.05c-1-.13-2-.29-3-.45a11.16,11.16,0,0,1-.85.84c-3.65,3.26-8,5-10.7,5.26,0,0-.68-18.06-1.37-35.45-.62-16-1.28-31.47-1.5-31.56-.93-.42,2.78-2.94,6.06-4.73a23.2,23.2,0,0,1,3.69-1.73c8.29-2.66,22.13-4,35.82-4.77l.48,0,5.46-.26c5.39-.23,10.62-.36,15.34-.47,1.14,0,2.25-.08,3.35-.19a68,68,0,0,0,18.75-4.56c2.4-.93,4.66-1.9,6.76-2.84,1.74-.8,3.34-1.58,4.84-2.29,5.13-2.46,8.88-4.27,10.9-3.73,2.46.65,4.88,3.08,7,5.56,2.38,2.8,4.37,5.69,5.61,6.11,2.3.79,5.29,1.08,4.71,7.15,0,.23,0,.49-.07.77,0,.7-.12,1.54-.21,2.48-.24,2.84-.59,6.69-1.18,10.92-.22,1.48-.47,3-.75,4.55C682.82,326.07,681,332.81,678.05,337.78Z"/><path class="cls-20" d="M678.05,337.78l-.15.26c-1.52,2.77-3.27,6-5.05,9.38-2.74,5.15-5.5,10.53-7.49,14.79l-.49,1.08c-1.2,2.8-1.67,4.92-1.35,6,.73,2.45.07,3.55-1.65,6.79-6.5,12.23-4.59,12.34-5.4,14.71s-2.3,3-2.59,7c0,0-9.66.3-7.26-3.47,5.62-8.77,6.2-14.53,6.21-19,0-7.59-4.61-10.54-3.79-21.45a90.8,90.8,0,0,1,3.44-17.5,16.7,16.7,0,0,1,3.1-4.15,16.11,16.11,0,0,1,9.84-4.46c.4,0,.8-.07,1.19-.08a15.1,15.1,0,0,1,8.44,2.12,1.84,1.84,0,0,1,.45.35C677.93,332.29,678.05,337.78,678.05,337.78Z"/><path class="cls-22" d="M647.23,317c-2.72,3.83-9.14,5.81-10.74,10.36-1.82,5.12,4.16,8.36,1.71,14-2.06,4.76-6.44,10.52-11.48,8.78a8.26,8.26,0,0,1-3-1.93c-1.25-1.19-1.53-3.93-3.15-4.7-1.41-.66-4,.18-5.4.26-4.47.31-5.93-2.12-7.59-6.58-1-2.55.3-4.94-2.64-5.74-4.51-1.22-6.91,5.37-9.43,7.66-2.18,2-3.28,1.72-6.2.48-9.34-4-4.65-8.23-2.61-15.34,3.39-11.8-9.76-9.15-17.52-11-6.12-1.44-7.44-5.81-5.68-10.32a23.2,23.2,0,0,1,3.69-1.73c8.29-2.66,22.13-4,35.82-4.77l.48,0,5.46-.26c5.39-.23,10.62-.36,15.34-.47,1.14,0,2.25-.08,3.35-.19a68,68,0,0,0,18.75-4.56c2.4-.93,4.66-1.9,6.76-2.84a8.16,8.16,0,0,1,3.4,4.44c1.77,6.13-5.81,7.21-7.87,11.68S650.37,312.51,647.23,317Z"/><path class="cls-22" d="M678.05,337.78l0,.07-.12.19c-1.52,2.77-3.27,6-5.05,9.38-2.74,5.15-5.5,10.53-7.49,14.79l-.49,1.08a30,30,0,0,1-3-10.43,33.5,33.5,0,0,1-.2-5.89c.31-5.15,3.68-8.78,4.36-13.72a11.56,11.56,0,0,0-.57-5.47c-1.39-4.13-4.9-7.56-6.23-11.83-2-6.26,2.11-10.87,5.75-15.55,4.54-5.84,10.76-.61,16.4.2a16.75,16.75,0,0,1,4.78,1c0,.7-.12,1.54-.21,2.48-.24,2.84-.59,6.69-1.18,10.92-.22,1.48-.47,3-.75,4.55C682.82,326.07,681,332.81,678.05,337.78Z"/><path class="cls-20" d="M558.84,416.42s0,.09,0,.13c-.24,0-.46,0-.7.05a5.52,5.52,0,0,1-.82.07,6.23,6.23,0,0,1-4.34-1.43l0-.05a4.72,4.72,0,0,1-1.35-2.12s3.75-6.6,4.87-11.39a7.89,7.89,0,0,0,.19-3.34c-1-4.1.23-4.81,1.57-8.71a52.52,52.52,0,0,0,1.3-7.63c.29-2.31.57-4.88.8-7.32.54-5.48.92-10.31.92-10.31,3-2.95,6.34-4.24,9.93-3.63a15,15,0,0,1,6.12,2.69s-1,2.32-2.39,5.6c-3.1,7.38-8,19.64-7.53,21.59.94,3.61-1.89,6.53-3.52,10.2-3.46,7.76-1.27,8.11-2,10.29S559.32,413.76,558.84,416.42Z"/><g class="cls-23"><path class="cls-24" d="M678.05,337.78l0,.07-.12.19c-1.52,2.77-3.27,6-5.05,9.38-2.74,5.15-5.5,10.53-7.49,14.79a27.26,27.26,0,0,0-1.48,3.81,6.29,6.29,0,0,0-.35,3.29c.73,2.45.07,3.55-1.65,6.79-6.5,12.23-4.59,12.34-5.4,14.71s-2.3,3-2.59,7c0,0-9.66.3-7.26-3.47,5.62-8.77,6.2-14.53,6.21-19,0-7.59-4.61-10.54-3.79-21.45-2.61-.18-4.94-.24-7,.8-7.53,3.68-37.53,18-66.72,14.37l-.43-.05c-3.1,7.38-8,19.64-7.53,21.59.94,3.61-1.89,6.53-3.52,10.2-3.46,7.76-1.27,8.11-2,10.29s-2.48,2.67-3,5.33c0,0,0,.09,0,.13-.24,0-.46,0-.7.05a5.52,5.52,0,0,1-.82.07,6.23,6.23,0,0,1-4.34-1.43l0-.05c1.53.86,4.88-.31,5.78-2.22,1.17-2.5.57-5.47,1.31-8.11,1.1-3.94,4.94-6.63,6.3-10.51,1.13-3.23.38-6.82.83-10.23.5-4,2.65-7.54,3.46-11.44a21.81,21.81,0,0,0,.4-3.27c.21-2.87,0-5.82.14-8.67.18-3.52.85-6.91,3.4-9.89,4.11-4.82,8.79-2.88,14.24-1s10.5,3.78,16.07,4.49c5.74.75,11.57-2.68,16.54-5,4.71-2.16,8.39-3.64,12.35-7.44,1-.92,1.93-1.87,2.88-2.84a62.39,62.39,0,0,0,7.29-8.57c2.49-3.62,6.21-14.12,10.81-6.93,1.23,1.92,1,4.76.9,6.89,0,.47,0,1.08,0,1.78s0,1.64.05,2.51c.17,2.84.73,5.87,2.39,6.47,2,.72,3.8-1.21,4.83-2.62,2.15-2.9,3.32-7.17,3.76-10.89.07-.48.1-1,.14-1.43.33-4.46-2-9.87.56-13.94a7.16,7.16,0,0,1,2.06-2c.51-.35,1-.67,1.59-1,2.86-1.7,5.16-1,8.1-1.93,2.18-.67,4-3.19,6.25-3.28a3.34,3.34,0,0,1,.59,0c-.24,2.84-.59,6.69-1.18,10.92-.22,1.48-.47,3-.75,4.55C682.82,326.07,681,332.81,678.05,337.78Z"/></g><path class="cls-17" d="M546.38,418.19s4.06-.25,5.47-1.47l-1,1.16A6.12,6.12,0,0,1,546.38,418.19Z"/><path class="cls-17" d="M547.91,420.47s8.13,1.76,10.75-3.12C557,424.69,550.25,421.53,547.91,420.47Z"/><path class="cls-25" d="M649,353.9c-2.61-.18-4.94-.24-7,.8-7.53,3.68-37.53,18-66.72,14.37l2.7-7.85s25.46,13.81,63.53-11.93a4.89,4.89,0,0,1,7.52,4.32Q649,353.76,649,353.9Z"/><path class="cls-14" d="M506.52,378.24s-.41-4.93-3-7-10.83-4.15-11.37-2.9,2.48,8.23,12.33,10.64Z"/><path class="cls-20" d="M518.6,409.85a22.66,22.66,0,0,0-4.33,3.81c-3,3.3-4.46,6.58-6.88,8.34a0,0,0,0,1,0,0,5.9,5.9,0,0,1-1,.63,3.68,3.68,0,0,1-3.36-.42c-3.86-2.07-8.12-8.43-8.12-8.43s2.29-3.71,3.07-11.09c0-.41.08-.85.12-1.3a48.88,48.88,0,0,0,.1-6.57c-.93-1-1.42-3-1.14-5.3a8.58,8.58,0,0,1,1.43-3.89,19.61,19.61,0,0,1,3.06-7.84c1.62-2.34,3.54-3.73,5.05-3.89a24.08,24.08,0,0,0,6.48-1.92,75.23,75.23,0,0,1,13.7,9.14c.5.42.94.85,1.37,1.29,2.24,2.25,3.84,4.63,3.86,6.83a7.31,7.31,0,0,1,0,.94C531.54,397.62,525.19,405.4,518.6,409.85Z"/><path class="cls-22" d="M555.85,372.12c-.89,4.81-2.76,9-6.88,9.88h0c-2.09.43-4.4-.28-6.58-.33a7.8,7.8,0,0,0-.92,0c-3.5.28-7.45,5.44-9.49,8.52-.41,7.41-6.76,15.2-13.35,19.65a4.48,4.48,0,0,0-.36.26,21.59,21.59,0,0,0-4,3.54c-3.38.28-6.14-.53-7.48-4.63-1.65-5.06-.6-14.06,5-16.45,2.35-1,5.53-.86,6.38-3.88s-2.13-6.34-4.62-7.76c-3.07-1.72-6.89-2.89-9.05.8-1.8,3.08-1.87,7.53-2.29,10.91-.25,2,.1,10.37-4.19,8.74a48.88,48.88,0,0,0,.1-6.57c-.93-1-1.42-3-1.14-5.3a8.58,8.58,0,0,1,1.43-3.89,19.61,19.61,0,0,1,3.06-7.84c1.62-2.34,3.54-3.73,5.05-3.89a24.08,24.08,0,0,0,6.48-1.92l.14-.19c.1-.18.29-.45.55-.82.48-.73,1.25-1.83,2.17-3.19l.35-.52c.14-.18.27-.39.42-.6l.72-1.08,11.85-17.38.72-1.08c2.15-3.15,3.62-5.32,3.62-5.32a6.68,6.68,0,0,1,2.43.07c2.84.64,4.37,2.3,7.37,1.17,2.39-.89,4.24-3.16,5.91-5,3.45-3.74,7.46-9.54,13.28-8.87a6,6,0,0,1,5.26,4.07,11.78,11.78,0,0,1-2.24,10.93c-3.64,4.08-7.78,7.64-8.54,13.53-.37,2.79-.28,7.84-.94,12.64C556,371,556,371.55,555.85,372.12Z"/><path class="cls-14" d="M514.26,400.43s-.2,2.72-1.6,3-1.79-.38-2.62.4a5.17,5.17,0,0,0,.35-1.37,3.52,3.52,0,0,1,1.24-2.63,1.74,1.74,0,0,1,2.43.31A1.47,1.47,0,0,1,514.26,400.43Z"/><path class="cls-26" d="M514.06,400.18a2.75,2.75,0,0,1-1.79,2.86,2.15,2.15,0,0,1-1.89-.54,3.52,3.52,0,0,1,1.24-2.63A1.74,1.74,0,0,1,514.06,400.18Z"/><circle class="cls-27" cx="512.74" cy="400.67" r="0.52" transform="translate(-76.73 125.06) rotate(-12.95)"/><path class="cls-22" d="M558.21,400.26c-.09.09-1,.78-1.79,1.41a7.89,7.89,0,0,0,.19-3.34c-1-4.1.23-4.81,1.57-8.71a52.52,52.52,0,0,0,1.3-7.63c2.48.48,3,4.91,2.17,7.52C560.71,392.65,560.5,397.87,558.21,400.26Z"/><path class="cls-21" d="M497.07,419.37c-5.8-4.65-1.55-7.18-1-6.63.77.72,2.23,3.08,4.23,3.77C505.66,418.34,505.37,426,497.07,419.37Z"/><path class="cls-18" d="M507.35,421.94a5.9,5.9,0,0,1-1,.63,3.68,3.68,0,0,1-3.36-.41,7.85,7.85,0,0,0,3.66-2,.49.49,0,0,1,.85.37Q507.43,421.29,507.35,421.94Z"/><g class="cls-23"><path class="cls-24" d="M559.64,379.56A23.63,23.63,0,0,1,549,382h0c-2.09.43-4.4-.28-6.58-.33a7.8,7.8,0,0,0-.92,0c-3.5.28-7.45,5.44-9.49,8.52-.41,7.41-6.76,15.2-13.35,19.65a4.48,4.48,0,0,0-.36.26,1.53,1.53,0,0,1-.18-.39c.85-3.15,4.53-6,6.63-8.49,1.84-2.11,3.62-4.93,3.67-7.85a10.17,10.17,0,0,0-1-4c-1.48-3.52-3.78-7.12-1.19-10.3a9.77,9.77,0,0,1,6.45-3.31c1.67,0,3,.83,4.63,1.14,3,.56,5.41-.79,8-2.06,3.2-1.55,6.44-2.77,9.75-4,.4-.15.76-.28,1.13-.39a5.13,5.13,0,0,1,3.34,0C561.94,371.24,560,377.1,559.64,379.56Z"/></g><path class="cls-14" d="M520.6,393.59c.17-.84,1.22-1.28,2.36-1,2.79.73,7.61,2.16,9.4,3.75,2.2,1.94,2.73,6.2,2.84,7.42a.42.42,0,0,1-.37.45c-1.47.35-6.84,1.08-12.55-5.12a6.08,6.08,0,0,1-1.74-5.26Z"/><path class="cls-28" d="M153,385.1s-4.38,6.94-2,9.16,4.29,3,3.89,3.81-2,.8-4.34-1.18-9.72-5.3-9.72-5.3Z"/><path class="cls-28" d="M129.78,397.3c4.26-7.47,9.69-8.41,12.21-10.28a14.9,14.9,0,0,0,1.31-1.11,14.56,14.56,0,0,1,4.74,1.7c1.39.84.3.45,1.66,1.33-2,3.1-5,13.41-5,13.41,2,.65,6.05,2.15,5.76,7.94s-8.53,7-8.53,7,7.56-.19,8.62-.37,2.13.19.68,1.87-12.6,1.21-17.93-1.87S125.51,404.77,129.78,397.3Z"/><path class="cls-29" d="M151.58,379.08l-3.51-5.56s-.51,4.39,0,5.56S151.58,379.08,151.58,379.08Z"/><path class="cls-30" d="M135.3,390.71a15.45,15.45,0,0,0,3.49-14c-2.13-8.31-8.8-15.75-18.61-13s-1.55,13.56-2.42,17.95-9,10.83-7.46,21.57,8.43,12,15.7,7.94Z"/><path class="cls-31" d="M137.85,374.68c.51,3.34-4,5.91-6.56,7.13-3.39,1.58-7.16,2.24-10.57,3.77a40.16,40.16,0,0,0-7.58,4.44c1.95-3.49,4.19-6.18,4.62-8.37.87-4.38-7.39-15.18,2.42-17.95,8.77-2.47,15,3.21,17.78,10.39A.85.85,0,0,0,137.85,374.68Z"/><path class="cls-31" d="M155.07,388.75a3.22,3.22,0,0,0,1.36-3.46c-.39-2.52-3.49-7-6.88-6.45-4.79.79-5.52.65-8.72-3.18a24,24,0,0,0,1.07,7.57,30.25,30.25,0,0,1-5.14,5.51c-2.52,1.87-7.95,2.8-12.21,10.28s-1.84,16.54,3.49,19.62,16.47,3.55,17.93,1.87.39-2.05-.68-1.87-8.62.37-8.62.37,8.24-1.21,8.53-7-3.77-7.29-5.76-7.94c0,0,6.25-10.28,7.8-12.61S153.86,390.27,155.07,388.75Z"/><ellipse class="cls-32" cx="155.55" cy="387.58" rx="0.93" ry="0.89"/><ellipse class="cls-32" cx="148.99" cy="382.56" rx="0.93" ry="0.9"/><path class="cls-30" d="M150.92,404.22c0,2,2.94,2.27,3.7,4.92.43-2.33,3.7-2.95,3.7-4.92s.43-4.92-3.7-4.92S150.92,402.25,150.92,404.22Z"/><path class="cls-31" d="M158.3,404.52a2.56,2.56,0,0,0-1.72-.66h-3.9a2.56,2.56,0,0,0-1.73.67,1.81,1.81,0,0,1,0-.31c0-2-.38-4.92,3.7-4.92s3.7,2.95,3.7,4.92A1.7,1.7,0,0,1,158.3,404.52Z"/><path class="cls-32" d="M153.86,399.71a.75.75,0,0,0,.76.73h0a.75.75,0,0,0,.76-.73v-2.65a.75.75,0,0,0-.76-.73h0a.75.75,0,0,0-.76.73Z"/><path class="cls-33" d="M155.39,397.71v2a.76.76,0,0,1-1.52,0v-2Z"/><path class="cls-32" d="M150.16,400.81a2.47,2.47,0,0,0,2.52,2.43h3.9a2.47,2.47,0,0,0,2.52-2.43h0a2.47,2.47,0,0,0-2.52-2.43h-3.9a2.47,2.47,0,0,0-2.52,2.43Z"/><path class="cls-31" d="M147,388.9s-1.55,8,1.47,9.26,5.11,1.34,5,2.24-1.55,1.42-4.49.37-11-1.64-11-1.64Z"/></g></g></svg>