<?xml version="1.0" encoding="utf-8"?>
<!-- Generator: Adobe Illustrator 21.1.0, SVG Export Plug-In . SVG Version: 6.00 Build 0)  -->
<svg version="1.1" id="Layer_1" xmlns="http://www.w3.org/2000/svg" xmlns:xlink="http://www.w3.org/1999/xlink" x="0px" y="0px"
	 viewBox="0 0 509.7 720" style="enable-background:new 0 0 509.7 720;" xml:space="preserve" preserveAspectRatio="none">
<style type="text/css">
	.st0{fill:#03141E;}
	.st1{fill:#95A3A6;}
</style>
<title>Artboard 1</title>
<rect x="1.2" y="0.6" class="st0" width="508.6" height="717.9"/>
<path class="st1" d="M49.5,39.2c-0.4-0.7-1.2-1.1-2-1.1c-0.9,0-1.6,0.6-1.6,1.5c0,2.2,5.3,1.3,5.3,5.8c0.2,2.3-1.5,4.3-3.8,4.5
	c-0.2,0-0.4,0-0.5,0c-1.7,0-3.3-1-4.1-2.6l1.7-1.6c0.3,1.1,1.3,1.8,2.4,1.9c1,0,1.7-0.8,1.7-1.8c0,0,0-0.1,0-0.1
	c0-1.4-1.3-1.8-2.3-2.2c-1.7-0.7-3-1.6-3-3.6c-0.1-2.1,1.6-3.9,3.7-4c0.1,0,0.1,0,0.2,0c1.4,0,2.7,0.6,3.7,1.5L49.5,39.2z"/>
<path class="st1" d="M55.1,49.6h-2.6V36.3h3.5c2.8,0,4.6,1.1,4.6,4.1c0,2.8-1.5,4.2-4.2,4.2h-1.3V49.6z M55.1,42.5h0.5
	c1.5,0,2.4-0.3,2.4-2.1s-1-2-2.4-2h-0.5V42.5z"/>
<path class="st1" d="M67.7,49.9c-4,0-6.6-3.1-6.6-7s2.6-7,6.6-7s6.6,3,6.6,7S71.8,49.9,67.7,49.9z M67.7,38.5c-2.2,0.1-4,2-3.9,4.2
	c0,0,0,0.1,0,0.1c0,2,1,4.6,3.9,4.6s3.9-2.5,3.9-4.6C71.8,40.6,70.1,38.7,67.7,38.5C67.8,38.5,67.8,38.5,67.7,38.5z"/>
<path class="st1" d="M75.6,36h1.9l7,9.3l0,0v-9H87v13.5h-1.9l-7-9.3l0,0v9h-2.6L75.6,36z"/>
<path class="st1" d="M95.2,39.2c-0.4-0.7-1.2-1.1-2-1.1c-0.9,0-1.6,0.6-1.6,1.5c0,2.2,5.3,1.3,5.3,5.8c0.2,2.3-1.5,4.3-3.8,4.5
	c-0.2,0-0.4,0-0.5,0c-1.7,0-3.3-1-4.1-2.6l1.7-1.6c0.3,1.1,1.3,1.8,2.4,1.9c1,0,1.7-0.8,1.7-1.8c0,0,0-0.1,0-0.1
	c0-1.4-1.3-1.8-2.3-2.2c-1.7-0.7-3-1.6-3-3.6c0-2.1,1.6-3.9,3.8-3.9c0,0,0.1,0,0.1,0c1.3,0,2.6,0.6,3.6,1.5L95.2,39.2z"/>
<path class="st1" d="M104.1,49.9c-4,0-6.6-3.1-6.6-7s2.6-7,6.6-7s6.6,3,6.6,7S108.2,49.9,104.1,49.9z M104.1,38.5
	c-2.2,0.1-4,2-3.9,4.2c0,0,0,0.1,0,0.1c0,2,1,4.6,3.9,4.6s3.9-2.5,3.9-4.6C108.2,40.6,106.5,38.7,104.1,38.5
	C104.2,38.5,104.2,38.5,104.1,38.5z"/>
<path class="st1" d="M120.9,49.6h-3.2l-3.2-5.3l0,0v5.3h-2.6V36.3h3.5c2.6,0,4.4,1.2,4.4,4c0.1,1.7-1,3.3-2.7,3.7L120.9,49.6z
	 M114.5,42.4h0.3c1.4,0,2.4-0.4,2.4-2s-1-2-2.4-2h-0.4L114.5,42.4z"/>
<path class="st1" d="M128,39.2c-0.4-0.7-1.2-1.1-2-1.1c-0.9,0-1.6,0.6-1.6,1.5c0,2.2,5.3,1.3,5.3,5.8c0.2,2.3-1.5,4.3-3.8,4.5
	c-0.2,0-0.4,0-0.5,0c-1.7,0-3.3-1-4.1-2.6l1.7-1.6c0.3,1.1,1.3,1.8,2.4,1.9c1,0,1.7-0.8,1.7-1.8c0,0,0-0.1,0-0.1
	c0-1.4-1.3-1.8-2.3-2.2c-1.7-0.7-3-1.6-3-3.6c-0.1-2.1,1.6-3.9,3.7-4c0.1,0,0.1,0,0.2,0c1.4,0,2.6,0.6,3.6,1.5L128,39.2z"/>
<path class="st1" d="M412.2,471H410v-11.4h3c2.4,0,3.9,1,3.9,3.5c0,2.4-1.3,3.6-3.6,3.6h-1.1L412.2,471z M412.2,464.9h0.5
	c1.3,0,2-0.3,2-1.8s-0.8-1.7-2.1-1.7h-0.4L412.2,464.9z"/>
<path class="st1" d="M420.3,468.6l-0.9,2.4H417l4.4-11.6h1.7l4.3,11.6h-2.4l-0.9-2.4H420.3z M422.2,462.7L422.2,462.7l-1.2,4.1h2.7
	L422.2,462.7z"/>
<path class="st1" d="M435.7,471h-2.7l-2.8-4.6l0,0v4.6h-2.2v-11.4h3c2.2,0,3.8,1,3.8,3.4c0.1,1.5-0.9,2.8-2.3,3.1L435.7,471z
	 M430.3,464.9h0.3c1.2,0,2.1-0.4,2.1-1.8s-0.9-1.7-2.1-1.7h-0.3L430.3,464.9z"/>
<path class="st1" d="M440.2,471H438v-9.4h-2.3v-1.9h6.8v1.9h-2.3V471z"/>
<path class="st1" d="M443.3,459.3h1.6l6,7.9l0,0v-7.6h2.2v11.6h-1.6l-6-7.9l0,0v7.7h-2.2L443.3,459.3z"/>
<path class="st1" d="M456.9,461.6v2.5h3.5v1.9h-3.5v3.1h3.7v1.9h-5.9v-11.4h5.9v1.9H456.9z"/>
<path class="st1" d="M469.7,471h-2.7l-2.8-4.6l0,0v4.6h-2.2v-11.4h3c2.2,0,3.8,1,3.8,3.4c0.1,1.5-0.9,2.8-2.3,3.1L469.7,471z
	 M464.3,464.9h0.3c1.2,0,2.1-0.4,2.1-1.8s-0.9-1.7-2.1-1.7h-0.3L464.3,464.9z"/>
<path class="st1" d="M475.7,462.1c-0.4-0.6-1-0.9-1.7-0.9c-0.7,0-1.3,0.6-1.4,1.3c0,1.9,4.5,1.1,4.5,4.9c0.2,2-1.3,3.7-3.3,3.9
	c-0.1,0-0.3,0-0.4,0c-1.5,0-2.8-0.9-3.5-2.2l1.4-1.4c0.3,0.9,1.1,1.6,2,1.7c0.8,0,1.5-0.7,1.5-1.6c0,0,0,0,0-0.1
	c0-1.2-1.1-1.5-2-1.9c-1.5-0.6-2.5-1.3-2.5-3.1c-0.1-1.8,1.4-3.3,3.2-3.4c0,0,0.1,0,0.1,0c1.2,0,2.3,0.5,3.1,1.3L475.7,462.1z"/>
<path class="st1" d="M40,568.5h1.4l5.4,7.2l0,0v-6.9h2v10.5h-1.4l-5.4-7.2l0,0v7h-2V568.5z"/>
<path class="st1" d="M54.9,579.3c-3.1,0-5.1-2.4-5.1-5.4s2-5.4,5.1-5.4s5.1,2.3,5.1,5.4S58,579.3,54.9,579.3z M54.9,570.5
	c-1.7,0.1-3.1,1.5-3,3.3c0,0,0,0,0,0.1c0,1.6,0.8,3.5,3,3.5s3-2,3-3.5C58,572.1,56.7,570.6,54.9,570.5
	C54.9,570.5,54.9,570.5,54.9,570.5L54.9,570.5z"/>
<path class="st1" d="M60.9,568.5h1.4l5.4,7.2l0,0v-6.9h2v10.5h-1.4l-5.4-7.2l0,0v7h-2V568.5z"/>
<path class="st1" d="M73.3,579.1h-2v-10.3H74c2.1,0,3.6,0.9,3.6,3.2c0,2.2-1.2,3.2-3.3,3.2h-1L73.3,579.1z M73.3,573.6h0.4
	c1.2,0,1.8-0.3,1.8-1.6s-0.8-1.5-1.9-1.5h-0.4V573.6z"/>
<path class="st1" d="M85.4,579.1H83l-2.5-4.1l0,0v4.1h-2v-10.3h2.7c2,0,3.4,0.9,3.4,3.1c0.1,1.3-0.8,2.6-2.1,2.8L85.4,579.1z
	 M80.5,573.5h0.3c1.1,0,1.9-0.3,1.9-1.6s-0.8-1.5-1.9-1.5h-0.3L80.5,573.5z"/>
<path class="st1" d="M90.6,579.3c-3.1,0-5.1-2.4-5.1-5.4s2-5.4,5.1-5.4s5.1,2.3,5.1,5.4S93.7,579.3,90.6,579.3z M90.6,570.5
	c-1.7,0.1-3.1,1.5-3,3.3c0,0,0,0,0,0.1c0,1.6,0.8,3.5,3,3.5s3-2,3-3.5C93.7,572.1,92.4,570.6,90.6,570.5
	C90.7,570.5,90.7,570.5,90.6,570.5L90.6,570.5z"/>
<path class="st1" d="M98.7,570.5v2.3h2.9v1.7h-2.9v4.5h-2v-10.3h5.1v1.7L98.7,570.5z"/>
<path class="st1" d="M105,579.1h-2v-10.3h2V579.1z"/>
<path class="st1" d="M109.7,579.1h-2v-8.5h-2v-1.7h6.1v1.7h-2.1V579.1z"/>
<path class="st1" d="M117.4,571.1c-0.3-0.5-0.9-0.8-1.5-0.8c-0.7,0-1.2,0.5-1.2,1.2c0,1.7,4.1,1,4.1,4.5c0.1,1.8-1.2,3.4-3,3.5
	c-0.1,0-0.3,0-0.4,0c-1.3,0-2.6-0.8-3.2-2l1.3-1.3c0.2,0.8,1,1.4,1.9,1.5c0.8,0,1.3-0.7,1.3-1.4c0,0,0,0,0-0.1c0-1.1-1-1.4-1.8-1.7
	c-1.3-0.5-2.3-1.2-2.3-2.8c0-1.7,1.3-3,2.9-3.1c0,0,0.1,0,0.1,0c1,0,2,0.4,2.8,1.1L117.4,571.1z"/>
</svg>
