<svg id="Layer_1" data-name="Layer 1" xmlns="http://www.w3.org/2000/svg" viewBox="0 0 720 720"><defs><style>.cls-1{fill:#03141e;}.cls-2{fill:#95a3a6;}</style></defs><title>Artboard 1</title><rect class="cls-1" x="114.41" y="0.63" width="508.59" height="717.89"/><path class="cls-2" d="M162.8,39.24a2.39,2.39,0,0,0-2-1.09,1.58,1.58,0,0,0-1.62,1.5c0,2.24,5.26,1.3,5.26,5.75a4.19,4.19,0,0,1-4.36,4.54A4.7,4.7,0,0,1,156,47.35l1.67-1.64a2.72,2.72,0,0,0,2.39,1.94,1.77,1.77,0,0,0,1.71-1.92c0-1.37-1.27-1.76-2.31-2.16-1.71-.7-3-1.57-3-3.62a3.86,3.86,0,0,1,3.87-4A5.45,5.45,0,0,1,164,37.44Z"/><path class="cls-2" d="M168.4,49.59h-2.59V36.32h3.52c2.78,0,4.59,1.11,4.59,4.12,0,2.81-1.53,4.19-4.24,4.19H168.4Zm0-7.11h.53c1.53,0,2.36-.34,2.36-2.06s-1-2-2.43-2h-.46Z"/><path class="cls-2" d="M181,49.94c-4,0-6.56-3.1-6.56-7s2.6-7,6.56-7,6.57,3,6.57,7S185.07,49.94,181,49.94Zm0-11.42a4.06,4.06,0,0,0-3.89,4.31c0,2,1,4.56,3.89,4.56s3.89-2.52,3.89-4.56A4.06,4.06,0,0,0,181,38.52Z"/><path class="cls-2" d="M188.85,36h1.86l7,9.28h0V36.32h2.59V49.85h-1.87l-7-9.28h0v9h-2.59Z"/><path class="cls-2" d="M208.45,39.24a2.39,2.39,0,0,0-2-1.09,1.58,1.58,0,0,0-1.62,1.5c0,2.24,5.26,1.3,5.26,5.75a4.19,4.19,0,0,1-4.36,4.54,4.7,4.7,0,0,1-4.08-2.59l1.67-1.64a2.72,2.72,0,0,0,2.39,1.94,1.77,1.77,0,0,0,1.71-1.92c0-1.37-1.27-1.76-2.31-2.16-1.71-.7-3-1.57-3-3.62A3.86,3.86,0,0,1,206,36a5.45,5.45,0,0,1,3.62,1.48Z"/><path class="cls-2" d="M217.38,49.94c-4,0-6.56-3.1-6.56-7s2.6-7,6.56-7,6.57,3,6.57,7S221.43,49.94,217.38,49.94Zm0-11.42a4.06,4.06,0,0,0-3.89,4.31c0,2,1,4.56,3.89,4.56s3.89-2.52,3.89-4.56A4.06,4.06,0,0,0,217.38,38.52Z"/><path class="cls-2" d="M234.18,49.59H231l-3.22-5.35h0v5.35h-2.59V36.32h3.5c2.62,0,4.44,1.16,4.44,4A3.51,3.51,0,0,1,230.43,44Zm-6.39-7.16h.33c1.42,0,2.43-.42,2.43-2s-1-2-2.41-2h-.35Z"/><path class="cls-2" d="M241.27,39.24a2.39,2.39,0,0,0-2-1.09,1.58,1.58,0,0,0-1.62,1.5c0,2.24,5.26,1.3,5.26,5.75a4.19,4.19,0,0,1-4.36,4.54,4.7,4.7,0,0,1-4.08-2.59l1.67-1.64a2.72,2.72,0,0,0,2.39,1.94,1.77,1.77,0,0,0,1.71-1.92c0-1.37-1.27-1.76-2.31-2.16-1.71-.7-3-1.57-3-3.62a3.86,3.86,0,0,1,3.87-4,5.45,5.45,0,0,1,3.63,1.48Z"/><path class="cls-2" d="M525.46,471h-2.21V459.63h3c2.38,0,3.93.95,3.93,3.52,0,2.41-1.31,3.58-3.63,3.58h-1.1Zm0-6.08h.45c1.31,0,2-.29,2-1.76s-.84-1.67-2.08-1.67h-.39Z"/><path class="cls-2" d="M533.51,468.59l-.93,2.39h-2.33l4.42-11.65h1.72l4.3,11.65h-2.36l-.87-2.39Zm1.91-5.93h0l-1.25,4.12h2.69Z"/><path class="cls-2" d="M549,471h-2.68l-2.75-4.57h0V471h-2.21V459.63h3c2.24,0,3.79,1,3.79,3.42a3,3,0,0,1-2.32,3.15Zm-5.46-6.12h.29c1.22,0,2.08-.36,2.08-1.75s-.89-1.67-2.06-1.67h-.3Z"/><path class="cls-2" d="M553.43,471h-2.21v-9.42h-2.29v-1.93h6.79v1.93h-2.29Z"/><path class="cls-2" d="M556.53,459.33h1.6l6,7.93h0v-7.63h2.21v11.57h-1.59l-6-7.93h0V471h-2.21Z"/><path class="cls-2" d="M570.16,461.56v2.5h3.52V466h-3.52v3.07h3.65V471h-5.87V459.63h5.87v1.93Z"/><path class="cls-2" d="M583,471h-2.68l-2.75-4.57h0V471h-2.21V459.63h3c2.24,0,3.79,1,3.79,3.42a3,3,0,0,1-2.32,3.15Zm-5.46-6.12h.29c1.22,0,2.08-.36,2.08-1.75s-.89-1.67-2.06-1.67h-.3Z"/><path class="cls-2" d="M589,462.13a2,2,0,0,0-1.7-.93,1.35,1.35,0,0,0-1.38,1.28c0,1.91,4.5,1.11,4.5,4.92a3.59,3.59,0,0,1-3.73,3.88,4,4,0,0,1-3.49-2.21l1.43-1.4a2.33,2.33,0,0,0,2,1.66,1.52,1.52,0,0,0,1.46-1.64c0-1.17-1.08-1.5-2-1.85-1.46-.6-2.53-1.34-2.53-3.1a3.3,3.3,0,0,1,3.31-3.4,4.66,4.66,0,0,1,3.1,1.26Z"/><path class="cls-2" d="M153.21,568.53h1.44l5.41,7.18h0V568.8h2v10.47h-1.44l-5.41-7.18h0v7h-2Z"/><path class="cls-2" d="M168.13,579.34c-3.13,0-5.08-2.4-5.08-5.42s2-5.39,5.08-5.39,5.08,2.34,5.08,5.39S171.26,579.34,168.13,579.34Zm0-8.84a3.14,3.14,0,0,0-3,3.34c0,1.58.79,3.53,3,3.53s3-1.95,3-3.53A3.14,3.14,0,0,0,168.13,570.51Z"/><path class="cls-2" d="M174.19,568.53h1.44l5.41,7.18h0V568.8h2v10.47h-1.44l-5.41-7.18h0v7h-2Z"/><path class="cls-2" d="M186.52,579.07h-2V568.8h2.72c2.15,0,3.55.86,3.55,3.19,0,2.18-1.18,3.24-3.28,3.24h-1Zm0-5.5h.41c1.18,0,1.82-.26,1.82-1.6s-.76-1.51-1.88-1.51h-.35Z"/><path class="cls-2" d="M198.65,579.07h-2.42l-2.49-4.14h0v4.14h-2V568.8h2.71c2,0,3.43.9,3.43,3.09a2.71,2.71,0,0,1-2.1,2.85Zm-4.94-5.54H194c1.1,0,1.88-.33,1.88-1.58s-.8-1.51-1.87-1.51h-.27Z"/><path class="cls-2" d="M203.89,579.34c-3.13,0-5.08-2.4-5.08-5.42s2-5.39,5.08-5.39,5.08,2.34,5.08,5.39S207,579.34,203.89,579.34Zm0-8.84a3.14,3.14,0,0,0-3,3.34c0,1.58.79,3.53,3,3.53s3-1.95,3-3.53A3.14,3.14,0,0,0,203.89,570.51Z"/><path class="cls-2" d="M211.95,570.55v2.26h2.9v1.74h-2.9v4.52h-2V568.8H215v1.74Z"/><path class="cls-2" d="M218.25,579.07h-2V568.8h2Z"/><path class="cls-2" d="M223,579.07h-2v-8.53H219V568.8h6.14v1.74H223Z"/><path class="cls-2" d="M230.68,571.06a1.85,1.85,0,0,0-1.54-.85,1.22,1.22,0,0,0-1.25,1.16c0,1.73,4.07,1,4.07,4.45a3.25,3.25,0,0,1-3.38,3.51,3.64,3.64,0,0,1-3.16-2l1.29-1.27a2.11,2.11,0,0,0,1.85,1.5,1.37,1.37,0,0,0,1.32-1.48c0-1.06-1-1.36-1.78-1.67-1.32-.55-2.29-1.21-2.29-2.8a3,3,0,0,1,3-3.08,4.22,4.22,0,0,1,2.8,1.14Z"/></svg>