<?xml version="1.0" encoding="UTF-8" standalone="no"?>
<svg
   xmlns:dc="http://purl.org/dc/elements/1.1/"
   xmlns:cc="http://creativecommons.org/ns#"
   xmlns:rdf="http://www.w3.org/1999/02/22-rdf-syntax-ns#"
   xmlns:svg="http://www.w3.org/2000/svg"
   xmlns="http://www.w3.org/2000/svg"
   xmlns:xlink="http://www.w3.org/1999/xlink"
   xmlns:sodipodi="http://sodipodi.sourceforge.net/DTD/sodipodi-0.dtd"
   xmlns:inkscape="http://www.inkscape.org/namespaces/inkscape"
   id="Layer_1"
   data-name="Layer 1"
   preserveAspectRatio="none"
   viewBox="0 -193 717.04999 162.76001"
   version="1.1"
   sodipodi:docname="grass.svg"
   width="717.04999"
   height="162.76001"
   inkscape:version="0.92.2 (5c3e80d, 2017-08-06)">
  <metadata
     id="metadata41">
    <rdf:RDF>
      <cc:Work
         rdf:about="">
        <dc:format>image/svg+xml</dc:format>
        <dc:type
           rdf:resource="http://purl.org/dc/dcmitype/StillImage" />
        <dc:title>Artboard 1</dc:title>
      </cc:Work>
    </rdf:RDF>
  </metadata>
  <sodipodi:namedview
     pagecolor="#ffffff"
     bordercolor="#666666"
     borderopacity="1"
     objecttolerance="10"
     gridtolerance="10"
     guidetolerance="10"
     inkscape:pageopacity="0"
     inkscape:pageshadow="2"
     inkscape:window-width="3840"
     inkscape:window-height="2004"
     id="namedview39"
     showgrid="false"
     fit-margin-top="0"
     fit-margin-left="0"
     fit-margin-right="0"
     fit-margin-bottom="0"
     inkscape:zoom="0.32777778"
     inkscape:cx="-541.66999"
     inkscape:cy="368.8839"
     inkscape:window-x="-16"
     inkscape:window-y="-16"
     inkscape:window-maximized="1"
     inkscape:current-layer="Layer_1" />
  <defs
     id="defs22">
    <style
       id="style2">.cls-1{fill:url(#Безымянный_градиент_214);}.cls-2{fill:#66a02f;}.cls-3{fill:#669f2f;}.cls-4{fill:url(#Безымянный_градиент_212);}.cls-5{fill:url(#Безымянный_градиент_213);}.cls-6{fill:#3f6e35;}.cls-7{fill:#baba1c;}.cls-8{fill:#60992d;}.cls-9{fill:#e2d973;}.cls-10{fill:url(#Безымянный_градиент_214-2);}</style>
    <linearGradient
       id="Безымянный_градиент_214"
       x1="356.75"
       y1="-652.75"
       x2="380.70001"
       y2="-456.39999"
       gradientTransform="matrix(1,0,0,-1,0,-129.38)"
       gradientUnits="userSpaceOnUse">
      <stop
         offset="0"
         stop-color="#4d912b"
         id="stop4" />
      <stop
         offset="0.54"
         stop-color="#85b736"
         id="stop6" />
      <stop
         offset="1"
         stop-color="#cacb3a"
         id="stop8" />
    </linearGradient>
    <linearGradient
       id="Безымянный_градиент_212"
       x1="439.89999"
       y1="-452.48999"
       x2="512.60999"
       y2="-448.26999"
       gradientTransform="matrix(1,0,0,-1,0,-102.36)"
       gradientUnits="userSpaceOnUse">
      <stop
         offset="0"
         stop-color="#74a928"
         id="stop11" />
      <stop
         offset="1"
         stop-color="#baba1c"
         id="stop13" />
    </linearGradient>
    <linearGradient
       id="Безымянный_градиент_213"
       x1="227.73"
       y1="-478.37"
       x2="188.8"
       y2="-523.78998"
       gradientTransform="matrix(1,0,0,-1,0,-102.36)"
       gradientUnits="userSpaceOnUse">
      <stop
         offset="0"
         stop-color="#49803e"
         id="stop16" />
      <stop
         offset="1"
         stop-color="#3f6e35"
         id="stop18" />
    </linearGradient>
    <linearGradient
       id="Безымянный_градиент_214-2"
       x1="611.48999"
       y1="-461.23999"
       x2="621.27002"
       y2="-414.44"
       gradientTransform="matrix(1.06,0,0,-1.06,-24.83,-88.61)"
       xlink:href="#Безымянный_градиент_214" />
  </defs>
  <title
     id="title24">Artboard 1</title>
  <g
     id="g9867"
     transform="translate(-1.67,-444.09)">
    <path
       id="path4897"
       class="cls-1"
       d="m 90.42,251.12 c -3.71,23.81 -2.78,53.74 -6.63,77.13 -0.44,-0.92 -0.88,-1.81 -1.33,-2.81 v 0 c -1.09,-10.06 -2.65,-21 -4.86,-24.63 0,5.43 0.12,11 -0.25,16.2 -0.45,-4.3 -1.24,-8.57 -2,-14 -0.32,5.47 -0.54,13 -1.12,19.6 q -0.44,1.67 -0.9,3.3 v -45.64 c -1.66,16.55 -3.87,33.64 -4.41,52.09 -1.62,-10.31 -2.39,-22.21 -6.59,-25.09 -0.87,8.2 -1.66,16.17 -2.62,25 -0.42,-1.16 -0.85,-2.31 -1.28,-3.34 a 36.44,36.44 0 0 1 1.25,3.61 c -0.24,2.2 -0.43,4.17 -0.71,6.55 h -2 c -1,9 -2.31,15.68 -3.42,26.86 -0.68,-6.85 -1.55,-18 -2.12,-26.86 h -0.25 c -1.17,10.23 -2.81,20.1 -4,30.69 0.62,-9.19 1.5,-18 0.95,-28.12 -2.29,8.23 -3.88,16.78 -5.69,26.85 0,-9.75 0,-19.52 0,-29.17 -0.71,0.06 -1.41,0.08 -2.12,0.19 -2.58,17.71 -4.78,37.1 -7.32,54.47 0,-18.19 0.3,-36.38 -2.62,-51.16 a 3.3,3.3 0 0 1 -0.3,0.16 c -0.47,9.37 -1,18.53 -1.5,28 -0.56,-9.1 -1.14,-17.21 -2.21,-25.6 -0.23,0.17 -0.46,0.3 -0.69,0.48 -1.05,8.41 -2.49,20 -2.79,30.24 -0.61,-9.11 -1.21,-17.62 -1.52,-26.42 q -1,1 -2,2.1 c -0.56,8.86 -0.84,18 -0.58,28.16 -1,-7.59 -1.78,-14.81 -4.11,-20.46 0.74,10 2.17,18.82 1.9,32 -2.07,-10.79 -5,-17.39 -7.94,-24.17 a 150.72,150.72 0 0 0 -6.92,14.46 v 225.06 h 717 V 391 C 712,376.12 705,362.82 697.36,361.74 c -9.24,0 -16.7,-33.52 -25.81,-25.86 -5.25,2.12 -12.15,33.34 -18,34.93 -4.95,-3.08 -10.37,7.13 -14.59,-9.08 -2.44,-1 -16.08,-9.3 -21.32,-13.61 h -2.6 c 0.11,-0.86 0.22,-1.91 0.31,-3.39 -1.7,-5.35 -3.84,-9.51 -4.65,-3.54 -0.08,1.48 -0.2,2.93 -0.31,4.34 a 40.77,40.77 0 0 1 0.31,-4.34 32.57,32.57 0 0 0 -1.5,-13.32 c -0.92,5 -1.55,6.25 -1.19,14.45 -0.42,-2.53 -1.22,-10.67 -3.17,-9.63 a 79.4,79.4 0 0 0 -0.79,11.24 c -1.42,0 -2.12,0 -3.17,4 v -16 c -0.85,5.76 -1.88,10.36 -2.5,16.23 h -0.5 c 0,-13.44 -0.12,-26.9 1,-39.5 -1.28,12.44 -2.24,26.29 -3,39.5 h -0.18 c -0.37,-16.94 -0.22,-35 -1.75,-51.54 -2.23,-6 -4.72,-13.35 -8.53,-12 -0.15,1.25 -0.55,7.72 -1.74,10.62 a 15.33,15.33 0 0 0 2.34,-5 c 2.2,6.68 5,10.57 6.95,17.66 v 12.32 c -1.8,1.22 -3.47,2.65 -5,7.74 -0.8,6.48 -1.48,13.34 -2.12,20.24 h -0.63 c 0.06,-12.59 0.11,-25.06 -1.61,-34.68 0,11.41 0.31,23.54 -0.13,34.68 h -1.81 c -0.58,-10.38 -1.64,-20.39 -3.35,-31.56 0.36,-3.17 0.73,-6.34 1.13,-9.55 -0.54,2.19 -1.05,4.47 -1.55,6.81 -1.95,-12.19 -4.63,-26 -8.37,-43.73 2.8,15.09 5.54,30.8 7.59,47.6 a 244.08,244.08 0 0 0 -3.84,30.44 h -1.14 c -0.81,-14.92 -2.13,-30.4 -2.41,-45.12 -0.35,14.06 -0.11,29.78 0.22,45.12 h -1.1 c -1.18,-12.9 -2.55,-26.32 -4.88,-34.68 1.12,7.9 2.1,16.73 2.89,26 -1,2.85 -2.07,5.6 -3.09,8.55 0,-7.16 -0.1,-13.92 0.79,-20.07 -1.06,6.41 -2.39,12.73 -3.2,20.24 h -0.27 c -0.37,-5 -0.75,-10.26 -1.06,-15.75 0,4 0,8.12 0,12.36 -1.75,-0.71 -3.55,0.76 -5.36,1.61 0,-6.12 0.06,-10.27 -1,-15.26 -1.55,-0.63 -2.21,-2 -3.57,3.21 -0.05,0 -2.61,-1.14 -3.57,-1.6 -0.91,-7.36 -0.79,-10.17 -3,-8.84 -1.17,2.1 -2.48,5.54 -0.79,16.06 -1.5,-4.54 -2,-5.88 -4.17,-4.82 -1.43,-5.8 -2.34,-9 -4.57,0 -1,-2.29 -3.09,-7.09 -5.29,-1 0,0 0,-0.06 -0.07,-0.09 -0.11,-5.12 0.18,-8.83 -1,-12.6 a 60.45,60.45 0 0 0 -3.09,8.45 q -0.38,-0.31 -0.76,-0.58 a 38.73,38.73 0 0 0 -1.51,-8.67 c -0.13,0.86 -1.42,3.09 -1,6.43 -1,-5.24 -0.69,-7.48 -2.78,-7.23 -0.11,2.37 0.24,4.71 0,7 a 14.8,14.8 0 0 0 -2.7,-0.38 c 0.06,-2.24 0.13,-4.47 0.27,-6.65 -0.41,2.16 -0.87,4.43 -1.32,6.66 a 24.64,24.64 0 0 0 -3.33,0.38 c 0.12,-5.75 0.36,-11.29 0.82,-17.07 a 148.68,148.68 0 0 0 -2.85,17.55 c -1.48,0.39 -3,0.87 -4.54,1.37 a 190.46,190.46 0 0 0 -2.49,-18.92 c -0.45,4.34 -1,7.47 -1.27,12.27 -1.24,-7.81 -2.71,-21.08 -5.42,-26.78 0,7.73 -0.22,20.24 -1.16,31 -0.37,-0.4 -0.74,-0.79 -1.09,-1.21 a 239.66,239.66 0 0 0 -1.26,-26.41 c -1.41,6.57 -2.77,13.42 -3.78,21.66 a 2.7,2.7 0 0 0 -0.54,-0.15 c -0.71,-12.56 -1.73,-25 -1.42,-38.24 -1.17,9.19 -2.59,22.52 -4.14,32.34 -0.55,-9.6 0,-12.44 -2.55,-16.72 -0.63,5 -1.86,12.37 -1.91,19 v -23.56 c -1.38,3.63 -6.12,16.47 -7.33,26.76 -0.74,-12.87 -1.63,-26.32 -3.5,-37.92 -0.92,11.75 -1.14,24.33 -2.87,35.69 -0.54,-7 -0.41,-12.81 -1.91,-19 -0.68,5.94 -0.89,10.58 -2.55,14.5 -0.45,-7.83 -1,-16.57 -0.64,-25.66 -1.37,8.62 -4,15.52 -4.78,25.66 -0.56,-3.06 -1.81,-7.79 -2.07,-10.6 q 0.45,7.48 0.75,14.44 A 4.41,4.41 0 0 0 452.03,316 c -2.63,2.66 -4.17,7.21 -4.69,19 -1.52,-8.22 -4,-4.59 -5.4,4.08 h -0.06 c 0.15,-6.39 0.16,-11.88 0.93,-16.72 -2.25,2.72 -4.33,6.62 -6.25,13.27 -0.08,-3 -0.22,-13 -0.78,-17.7 -0.28,4.9 -0.56,12.57 -1.09,18.34 -1.15,0 -2.32,0.4 -3.44,-0.65 1.77,-19.67 6,-34.53 7.19,-51.2 a 277.52,277.52 0 0 0 -9.69,51.84 262.23,262.23 0 0 1 1.72,-30.35 c -1.85,5.23 -3.34,9.9 -3.75,20.23 -0.54,0.59 -0.87,3.78 -1.72,1.9 a 107.33,107.33 0 0 0 -0.31,-12.65 c -0.31,0.83 -1.57,0.71 -1.41,7 -0.77,-7.77 -1.59,-12.73 -3.91,-13.91 a 67.27,67.27 0 0 0 1.72,16.44 37.83,37.83 0 0 0 -1.36,10.08 c -0.65,-3.92 -0.64,-6.12 -1.88,-6.32 -1.74,3.13 -1.77,5 -2.34,13.27 -1.32,-1 -3.24,-2.2 -4.85,-0.63 1.06,-1.9 1.46,-1.21 1.56,-7.58 -1.71,-5.17 -3,-5.73 -5.31,-2.53 0.21,-4.26 0.55,-9.46 0.31,-14.54 -1.49,2.67 -2.88,3.35 -3.12,12 -0.76,-7.68 -1.83,-15.42 -3.91,-17.7 -0.15,2 -0.72,9.82 -0.63,14.54 -1.47,-0.54 -2.38,-1.55 -3.59,3.79 a 81.6,81.6 0 0 0 0.31,-17.07 c -1.82,1.47 -2.8,2.78 -3.75,10.75 0,-7.11 -0.1,-13 -1.56,-17.7 -0.22,1.6 -1.47,9.54 -1.09,15.17 -2.45,-4 -4.51,-9.61 -5,0.49 -1.58,-5.37 -3.2,-7.74 -4.95,-0.34 0.79,-6.73 1.92,-12.33 3.82,-15.42 -3,3.71 -5.6,7.56 -6.86,16.91 l -0.61,0.24 c 0.25,-8.6 0.62,-16.93 0.38,-26.81 -0.24,9.85 -0.88,24.29 -4.43,28.46 l -0.43,0.16 c 0,-10.45 0.19,-17.16 1.43,-26.31 -2.6,7 -4,17 -5.55,28 l -0.28,0.12 c 0.72,-13.26 1.73,-24.28 4.11,-35 -3.14,9.53 -7.52,15.93 -7.44,34.73 -0.51,-10.27 -0.53,-22.09 -2,-31.26 0,12.35 0.28,23.41 -1.05,34.15 l -0.81,0.33 c -0.39,-3.49 -0.46,-7.78 -2.14,-6.7 -0.24,0.78 -1.49,4.61 -2.43,8.55 l -4.14,1.67 c -0.3,-3.91 -0.81,-9.15 -1.73,-11.38 3.48,6.25 4.31,3.95 0.29,-6.94 1.07,-5.75 2.17,-6.57 1.43,-16.21 -2.54,3.08 -3,1.29 -3.44,15.06 -2,-18.58 -0.42,-7.28 -4.29,-4.63 0.46,2.47 1.17,11.75 3.43,11.57 -0.07,2.72 -0.72,7 -0.29,10.42 -1.06,1.28 -2,1.38 -2.88,2.62 -1.12,-0.84 -2.2,-1.6 -3.21,-2.25 a 17.55,17.55 0 0 1 -0.2,-2.68 c -1,-1.75 -1,-9.59 -3.15,-5.79 1,-5.45 2.48,-3.75 1.43,-15 -2.28,4.2 -3.12,1.68 -3.72,15 -1.21,2 -2.14,0.5 -2.88,4.59 a 16.92,16.92 0 0 0 -2,-0.36 c -1.23,-3.36 -2.5,-4 -5.13,-3.08 -0.23,1.17 -0.5,2.52 -0.75,3.76 a 38.94,38.94 0 0 0 -3.73,1.22 45.19,45.19 0 0 0 -1.24,-6.14 c -0.37,2.42 -0.8,4.68 -1.21,7.06 l -0.83,0.32 c 0.25,-7.24 0.53,-13.92 0.61,-22.42 -1.41,7.34 -2.56,15.44 -3.66,23.56 l -1.21,0.4 c 0,-9.31 -0.15,-18.42 -0.85,-27.44 -0.22,9.63 -0.64,19.22 -1.63,28.06 a 0.22,0.22 0 0 0 -0.19,0.06 c -0.23,-2 -0.26,-5.29 -1.33,-6.12 -0.4,2.23 -0.72,4.5 -1.07,6.71 -0.68,0.12 -1.37,0.25 -2.09,0.34 a 62.61,62.61 0 0 0 -1.71,-8.21 c -0.56,2.56 -1.26,5.54 -2,8.51 -0.81,0 -1.6,0.08 -2.47,0.06 -0.41,-8.12 -0.63,-16.89 -0.4,-25.93 -1.11,8.06 -1.61,17.12 -2.44,26 -0.73,0 -1.39,0.06 -2.09,0.06 -0.7,-9.48 -1.45,-18.84 -2.34,-28.37 a 245.6,245.6 0 0 1 -1.5,28.47 17.13,17.13 0 0 0 -1.83,0.06 c -0.34,-3.37 -0.75,-6.83 -1.25,-10 -0.53,2.15 -1.42,6.33 -2.4,10.37 -1,0.1 -2,0.21 -2.95,0.34 a 197,197 0 0 1 4.2,-33.86 c -2.37,10.93 -5,21.11 -6.67,34.16 -0.29,0.06 -0.62,0.06 -0.91,0.1 -0.12,-1.1 -0.24,-2.25 -0.36,-3.4 0,-0.16 0,-0.36 0,-0.52 0,0.06 0,0.12 0,0.16 a 163.58,163.58 0 0 1 -1.18,-18.93 c 0,8.29 -0.22,15.28 -0.41,23 -0.95,0.17 -2,0.4 -2.9,0.57 -0.74,-2.82 -1.59,-5.09 -2.6,-5.85 a 59.84,59.84 0 0 0 -0.87,6.55 c -0.23,0.06 -0.5,0.09 -0.73,0.14 l -1.82,-6.68 c -0.35,2.22 -0.78,4.65 -1.18,7.29 l -2.08,0.41 c -0.29,-1.54 -0.58,-3.09 -0.85,-4.85 -0.35,1.89 -0.65,3.63 -1,5.21 l -1.58,0.32 A 69.31,69.31 0 0 1 261.4,330 c -1,2.94 -2,5.87 -3,8.55 a 4.73,4.73 0 0 1 -0.6,0.12 c -0.19,-3.55 -0.44,-7.54 -0.29,-11.53 a 85.41,85.41 0 0 0 -2.36,12.59 3.76,3.76 0 0 1 -0.48,1 220.79,220.79 0 0 0 -1.16,-25 c -0.23,9.45 -0.19,19.53 -1.76,25.83 a 6.64,6.64 0 0 1 -1.15,-0.29 c -0.09,-3.89 -0.12,-7.81 -0.26,-11.74 -0.44,3.54 -0.84,7.28 -1.23,11.05 -0.19,-0.1 -0.35,-0.14 -0.55,-0.25 -0.16,-4.84 -0.42,-9.54 -0.83,-14.07 -0.18,5.71 -0.65,11.85 -1.47,18.45 -0.63,5.12 -4.15,-0.36 -5.27,4.44 -0.6,-1.94 -1.08,-6.72 -2.2,-7.11 -0.79,4.27 -1.33,10.83 -2.85,9.77 v -14.2 c -1.59,8.57 -2.34,14.49 -3.95,23.07 0.29,-11.87 0.05,-20.6 1.54,-30.19 -2.3,8.14 -3.85,19.88 -5.27,34.63 0.27,-10.9 0.24,-23.38 0.22,-35.51 -0.94,12.71 -1.93,27.39 -3.73,40 0.83,-11.2 1.12,-24.37 0.88,-38.18 -0.75,11.14 -2.07,22.59 -3.07,34.63 0,-13.46 -0.12,-27.08 0.21,-40.38 -0.08,0 -0.15,0.06 -0.23,0.09 -2.81,5.67 -4.12,18.77 -5.24,31.41 v -18.77 c -0.89,7.9 -1.65,16.37 -3.95,20.42 v -24.28 h -0.44 a 136.75,136.75 0 0 0 -4.61,28.73 c -0.57,-8.41 -0.91,-19 -2.41,-25.74 -0.35,7.15 -1,12.34 -1.32,19.52 -0.88,-7.1 -1.32,-16.52 -3.29,-18.64 -0.16,6.27 -0.36,13 -0.22,19.54 -1.22,-7 -2.4,-13.79 -3.72,-20.27 0.67,8.18 1.07,17.06 1.16,26.68 -2,-10.53 -1.56,-19.61 -5,-18.82 -0.26,2.4 -1.18,4.81 -1.12,9.79 -0.42,0.34 -2.22,0.12 -3,4.51 -0.85,-4.6 -0.3,-7.5 -2.6,-6 a 22.54,22.54 0 0 1 0.19,-4.52 c 0.62,-0.5 1.36,1.12 1.86,-1.5 0.13,-5.09 0.53,-11.48 -0.56,-16.57 -1.93,0.78 -3.09,2.42 -4.65,6.77 -1,-3.88 -0.52,-7 -2.79,-5.27 a 82.09,82.09 0 0 0 -2.23,13.56 c -1.14,-9.21 -2.11,-14.78 -4.84,-8.28 0,1.42 -0.64,6.8 0.19,9 -1.22,2.19 -2.16,2.8 -3,8.28 -0.59,-3.17 -0.52,-7.15 -1.67,-9 0.46,-6.88 1,-11.71 -0.75,-13.63 -0.37,0.13 -0.74,0.32 -1.11,0.49 A 87.26,87.26 0 0 0 166,344 c -1.56,3.51 -2.21,4.63 -2,12.8 -0.74,-3.4 -1,-7.13 -2.61,-6.77 -0.35,-5.23 0.11,-7.78 -1.49,-8.28 a 166.55,166.55 0 0 0 -3.17,18.06 c -0.64,-2.94 -1.38,-7.45 -2.42,-9.78 -1,7.55 -1.44,17 -3.54,21.08 -0.27,-5.53 -0.25,-11.38 -0.93,-16.57 a 73.41,73.41 0 0 0 -2.23,10.54 c 0.14,-5.75 0.3,-10 0.71,-15.26 l -0.76,0.17 c -2,5.95 -4.09,12.35 -5.9,19.6 -0.37,-5 -0.46,-9.46 -1.67,-13.56 -0.47,3.84 -0.6,7.42 -1.86,10.55 -0.34,-5.51 -0.62,-11.39 -1.21,-16.69 l -0.61,-2.08 a 120.71,120.71 0 0 0 -1,17.26 c -0.49,-10 -1.62,-19.32 -2.14,-29.17 -0.73,-3.17 -1.44,-6.48 -2.1,-10.27 -1.28,4.11 -2.38,9.58 -3.79,11.88 -1.72,-6.43 -3.21,-15.29 -5.55,-16.2 -0.67,1.78 -1.22,4.43 -2,5.4 -0.46,-4.77 -0.65,-12.57 -2.27,-16.2 -1.43,4.6 -2.53,7.62 -4.29,13 1.05,-15 3.7,-27.35 5.3,-44.29 -4.64,14 -10,25.52 -12.37,49.69 -0.57,-2.8 -0.67,-7.82 -1.76,-8.65 -0.65,5 -0.86,10.25 -2.27,14 -1.45,-9.31 -2.07,-20.71 -3.78,-29.17 -1.93,8.27 -4.37,16.28 -5.05,28.08 0,-12 0.57,-22.33 1.26,-33.48 -2.79,5.31 -3.53,15.77 -6.06,23.77 -0.56,-24.11 -0.44,-50.47 2,-72.37 z m 188.39,77 c 0.17,-0.52 0.34,-1.09 0.51,-1.53 -0.32,-1.93 -0.45,-0.7 -0.51,1.52 z m 281.26,1.82 c -0.07,-5.22 -0.25,-10.29 -0.63,-15.25 0.09,5.01 0.33,10.17 0.63,15.24 z m 23.63,-36.08 c -0.35,0.47 -0.69,1 -1,1.38 0.37,-0.15 0.7,-0.7 1,-1.4 z m 9.3,25.31 v 26 h -4.35 c 0.12,-4.77 0.3,-9.51 0.78,-14.17 0.99,-4.49 2.07,-9 3.57,-11.83 z m -15.27,1 c 0.42,3.62 0.82,7.28 1.15,11 -0.59,4.62 -1.21,9.3 -1.84,14 h -1.26 c 0.33,-8.57 1.03,-16.8 1.93,-25.01 z m -115.79,10.56 a 5.61,5.61 0 0 1 3.75,3 c -1.27,0.51 -2.52,1 -3.8,1.35 0,-1.46 0,-2.81 0.06,-4.39 z m 105.44,11.82 c 0.07,0.88 0.13,1.76 0.19,2.65 h -0.31 c 0,-0.89 0.08,-1.78 0.12,-2.65 z"
       inkscape:connector-curvature="0" />
    <path
       id="path5685"
       class="cls-2"
       d="m 409.39,339.74 c -1.1,-2.88 -0.35,-5.38 0.44,-8 -4.59,1.82 -6.74,4.71 -8.82,7.74 -0.67,-2.75 -3.36,-4.95 -5.73,-6.55 a 16.66,16.66 0 0 1 -0.88,6.85 19.19,19.19 0 0 0 -5.29,-6.55 c -2.62,0.33 -3,3.68 -3.09,3.87 -4,-1.8 -4,-3.86 -4,-7.14 -3,3.13 -4,7.83 -5.29,11 -2.7,-2.62 -6.44,-3.51 -10.14,-4.76 1.75,2.22 1.76,4.83 1.76,7.44 -1.49,-1.45 -3.82,-1.39 -5.73,-2.08 -1.55,0.7 -0.59,1.78 -0.88,2.68 -4.79,-0.2 -10,0.06 -14.55,0.3 a 25.79,25.79 0 0 0 3.53,1.79 c -7.82,-0.22 -18.68,-0.21 -24.68,0.89 2.23,0.7 4,1.45 5.73,2.08 -10.42,3.05 -19.5,7.76 -30,10.12 8.5,2.08 15.28,-0.73 22.48,-2.68 2.53,-0.82 4.88,-1.38 7.49,-2.08 0.38,2 1.64,3.65 2.64,5.36 2.9,-0.12 6.23,-2.65 8.82,-3.87 v 3 c 6.76,-5.32 10.78,-6.87 21.16,-8 A 14.36,14.36 0 0 0 353,360 a 21.88,21.88 0 0 0 6.61,-2.38 c 0.58,2 1.19,3.72 1.76,5.65 4.62,-4.08 7.85,-10.22 10.14,-13.69 0.94,5.27 -1.11,10.15 -3.09,14.58 2.65,-1.48 4.85,-3.28 7.05,-4.76 -0.25,1.92 -0.18,3.73 -0.44,5.65 6.2,-3.53 8.19,-8.88 8.82,-14 a 28.91,28.91 0 0 1 -2.2,14.88 c 5,-5.2 10.15,-10 17.63,-12.8 -7.17,2.34 -7.24,7.2 -7.93,11.9 2.52,-1.51 5.61,-1.81 8.37,-2.38 3.28,0.69 3.9,2 5.29,3.27 1.22,-3.06 0.22,-5.55 -0.88,-8 3.66,1.48 5.16,4.4 6.61,6.85 2.09,-3 1.76,-6 1.76,-9.23 3.14,3 3.35,6.15 4.85,9.52 2.44,-3 6.74,-5.49 9.7,-7.74 a 48.87,48.87 0 0 0 -1.76,8.33 c 4.69,-2.16 7.7,-4.13 12.78,-5.65 -1.85,-1.27 -3.81,-0.2 -5.73,-0.3 4.66,-6.2 6.08,-12.8 4,-19.94 1.17,5.12 -1.36,8.83 -4,12.8 -0.62,-7.46 -2.7,-16 2.64,-22 -7.29,4.67 -5.46,11.39 -7.93,17 -2.14,-3.18 -3.06,-6.22 -5.29,-9.23 0,3.15 -2.61,5.47 -4.85,7.74 2.1,-3.33 -2.12,-11.88 -3.09,-5.36 -1.11,1.93 -4.11,3.46 -4.85,4.17 z"
       inkscape:connector-curvature="0"
       style="fill:#66a02f" />
    <path
       id="path5761"
       class="cls-3"
       d="m 313.32,343.06 c -0.1,0 -0.19,0 -0.28,0 -3.42,1.93 -5,6.38 -6.38,10.67 v -6.33 c -1.08,2.68 -2,5.56 -4.81,6.94 v -8.25 h -0.54 a 19.77,19.77 0 0 0 -5.61,9.76 c -0.69,-2.86 -1.11,-6.45 -2.94,-8.75 -0.43,2.43 -1.17,4.19 -1.6,6.63 -1.07,-2.41 -1.6,-5.61 -4,-6.33 a 40.85,40.85 0 0 0 -0.27,6.64 c -1.48,-2.39 -2.92,-4.69 -4.53,-6.89 a 36.63,36.63 0 0 1 1.41,9.06 c -2.46,-3.58 -1.9,-6.66 -6.12,-6.39 -0.32,0.81 -1.44,1.64 -1.36,3.33 -0.51,0.11 -2.7,0 -3.63,1.53 -1,-1.56 -0.36,-2.55 -3.17,-2 0.08,-0.51 -0.21,-1.08 0.23,-1.54 0.76,-0.17 1.66,0.38 2.27,-0.51 0.15,-1.73 0.64,-3.9 -0.68,-5.63 a 9.87,9.87 0 0 0 -5.66,2.3 c -1.17,-1.32 -0.63,-2.39 -3.4,-1.79 a 11.93,11.93 0 0 0 -2.72,4.61 c -1.39,-3.13 -2.57,-5 -5.89,-2.81 0,0.48 -0.78,2.31 0.23,3.07 -1.48,0.74 -2.62,1 -3.63,2.81 -0.72,-1.08 -0.64,-2.43 -2,-3.07 0.57,-2.34 1.18,-4 -0.92,-4.63 l -1.35,0.17 a 10.58,10.58 0 0 0 -1.59,3.7 c -1.9,1.19 -2.69,1.57 -2.49,4.35 -0.9,-1.16 -1.24,-2.42 -3.17,-2.3 -0.43,-1.78 0.13,-2.64 -1.81,-2.81 a 25.15,25.15 0 0 0 -3.85,6.14 13.17,13.17 0 0 0 -2.94,-3.32 c -1.26,2.57 -1.75,5.76 -4.31,7.16 -0.33,-1.88 -0.3,-3.87 -1.13,-5.63 a 13.08,13.08 0 0 0 -2.72,3.58 26.49,26.49 0 0 1 0.86,-5.18 l -0.92,0.06 a 67,67 0 0 0 -7.19,6.66 c -0.09,-0.35 -0.17,-0.69 -0.25,-1 0.14,3.11 0.15,6.34 0.37,8.85 1.72,-2.52 3.33,-5.83 4.7,-8.16 a 58.75,58.75 0 0 0 4.33,13.87 c 1.87,-1.81 2.42,-4 3.25,-6.53 1,2.76 1.69,5.21 2.53,7.34 2,-5.93 4,-12 6.5,-17.54 -2.87,10.51 -4,21.51 -0.72,31.81 3.81,-3.79 6.64,-9.18 9.75,-13.87 -0.24,3.25 -0.62,7 -1.08,10.2 a 49.44,49.44 0 0 0 3.25,-6.12 c 0.81,2.18 0.73,4.35 1.09,6.52 2.76,-0.25 4.42,-3.9 6.14,-6.12 0.2,2.2 1,4.23 1.44,6.53 a 28.53,28.53 0 0 0 1.81,5.71 91.62,91.62 0 0 1 4.46,-9.36 14.47,14.47 0 0 1 6,-8.18 36.72,36.72 0 0 0 -6,8.18 c -1.33,4.3 -1.21,9.16 -1.21,13.43 3.08,-1 4.67,-4.45 6.51,-6.52 a 38.72,38.72 0 0 0 1.08,4.49 37.94,37.94 0 0 0 9,-15.09 c 0.63,4.13 0.36,8.43 0.36,12.64 4.44,-5.76 6.4,-15 6.86,-20.8 0.43,3.9 1.23,7.85 1.81,11.42 1.64,-5.27 4.36,-9.57 6.86,-14.28 -2.69,6.53 -3.25,13.33 -3.25,20.8 2.71,-0.57 3.64,-2.46 5.42,-3.67 a 26.73,26.73 0 0 1 -1.45,-9.79 c 2.22,-0.05 3.25,1.63 4.7,2.85 -2.38,-3.74 -1.17,-7.15 -0.36,-10.2 2.58,0.51 3.2,3 4.33,4.9 0.66,-3 1.79,-5 2.89,-7.75 2.7,1.26 1.81,4.36 1.81,8.16 1.09,-1.68 2.62,-1.61 4,-2.45 -4.39,-3.71 -4.08,-7.83 -3.61,-13.05 3.42,0.06 2.72,1.11 4.7,4.08 0.83,-2.7 1.52,-5.26 2.09,-7.69 -0.58,1.69 -1.18,3.39 -1.7,5.15 0,-4.57 -0.14,-9.2 0.25,-13.72 z"
       inkscape:connector-curvature="0"
       style="fill:#669f2f" />
    <path
       id="path5741"
       class="cls-4"
       d="m 509.93,360.83 c 0.85,-0.74 3.18,-0.18 2.64,-2.32 1.55,0.22 6.85,1 9.83,-0.19 -2.06,-2.83 -4.4,-5.37 -8.43,-5.22 3.84,0.27 7.4,1.13 7.71,-2.42 -2.21,-1 -4.48,-2.37 -7.53,-2.4 a 12.21,12.21 0 0 0 0,-3.12 c -3.07,0.34 -5.23,0.27 -6.68,3.25 -0.43,-4.61 0.38,-8.36 1.34,-12.77 a 65.84,65.84 0 0 0 -5.2,12.28 c -0.67,-7.14 -1.07,-13 -5,-19.44 4.54,5.08 4.37,14.63 0.25,19.54 a 12,12 0 0 0 -2.67,-1.36 c 0.3,-2.29 0,-4.63 0.95,-6.82 -1.68,1.15 -4.25,2.2 -4.62,4.9 -0.37,-3.91 -0.56,-7 1.89,-10.23 -3.09,1.33 -4.51,3.44 -5.67,7.19 -0.29,-3 -1.14,-8.67 0.12,-12.18 -3.08,5 -4.7,8.8 -2.74,14.78 -0.85,0.85 -2.6,0.58 -2.61,2.6 -1.1,-2.17 -1.09,-4.09 -4.52,-4.16 -0.7,0.95 -2.65,1.42 -1.5,4.28 2.14,1.72 2.86,1 2.3,4.2 -3,0.3 -5,0.47 -6.42,2.67 -1.16,-2.45 -1.95,-4.64 -5,-5.85 0.36,-1 2,-3.8 0.39,-6 -2.77,0.81 -4.43,1 -6.65,3.53 -2.2,0.4 -4.23,0.52 -6.21,1.54 l -0.24,-2.54 a 27.73,27.73 0 0 0 -7,3 c -0.45,-2.28 0,-2.77 -2.57,-3.63 -0.76,1.91 -1.45,3.42 -2.35,5.43 1.11,0.72 -4.41,-8.57 -10.21,-10.56 2.92,3.73 3.5,6.85 3.92,11.25 a 46.59,46.59 0 0 0 -4.31,-1.9 c -2.72,-0.57 -3.8,0.81 -5.26,1.52 1.15,2.52 4.9,2.73 6,3 -3.23,1 -2.91,2.38 -3.38,4.6 2.51,0.88 5.33,0.46 8,0.41 -6.52,-1 -8.61,3 -8.1,8.37 3.94,0.12 7.24,-2.24 9.45,-4.15 l 0.37,4 c 3.52,-0.07 5.86,-2.62 7.74,-5.53 0.28,2.18 2.06,2.59 3.2,3.62 0.55,-1.48 2.92,-3.13 4.07,-4 0.66,-3 -0.3,-2.75 -2.94,-4.19 7.47,0.58 12.06,5.26 15.33,11 a 19.9,19.9 0 0 1 0.74,-5.68 c 0.53,2.17 2.84,3.66 4,5 -0.95,-3.44 0.83,-5.38 2.74,-8 -0.12,2.12 1.17,3.75 2.12,5.62 0.69,-5.06 5,-7.77 8.58,-10.08 -2.84,2.9 -2.3,5.9 -1.95,9.67 1.71,-3.83 4.77,-6 8.13,-8.09 0.35,2.2 2.2,4.66 3.1,5.89 3.11,-1 4.55,-3.1 5.89,-4.93 0.77,4.24 5.17,3.71 9,4.64 z"
       inkscape:connector-curvature="0" />
    <path
       id="path5756"
       class="cls-5"
       d="m 219.05,346.79 c 0,13.51 0.64,26.29 -3.46,38.91 -1,-6.21 -1.74,-12.72 -3,-18.9 -1.44,6 -3.73,12.89 -4.32,19.46 0,-13.33 -0.22,-27 2.16,-38.91 -3.8,13.43 -7.79,29.47 -9.51,43.36 -2.32,-9.93 -1,-23.48 -1.3,-35 -0.73,11.21 -2.62,22.8 -3.31,34.52 a 100.61,100.61 0 0 1 -0.14,13.28 124.08,124.08 0 0 1 0.14,-13.28 c -0.66,-11.9 -3.54,-23.84 -9.65,-32.86 4.36,13.46 3.8,31.56 1.29,46.13 0,-10.23 0.28,-20.1 -2.59,-29.46 a 86.35,86.35 0 0 1 -1.3,-11.12 c -1.66,5.89 -4.12,12.27 -5.18,18.34 a 148,148 0 0 1 0.86,-18.34 c -4.76,10.21 -9.21,21.45 -10.37,33.35 -0.26,-0.38 -3.75,-6.74 -5.62,-6.67 -0.54,4.21 -0.86,8 -2.16,12.23 -1,-7 -2,-14.3 -4.75,-20.57 0,7.39 -1.1,10.11 -4.76,16.12 a 148.76,148.76 0 0 1 3.46,-32.24 c -5.94,13.09 -7.81,29.38 -12.53,42.24 a 98.43,98.43 0 0 1 -0.43,-22.79 c -2.07,9.33 -3.35,17.9 -4.76,27.24 -2.68,-5.74 -3.21,-12.2 -6.91,-18.34 a 77.32,77.32 0 0 1 3.91,20.65 h 139.92 a 31.61,31.61 0 0 1 3.94,-11.2 c -5.12,0.66 -8.42,2.4 -13,5.56 1.18,-2.08 2,-4 3.45,-6.12 6,-10.25 13.53,-6.45 21.61,-4.45 -10.59,-7.57 -19.37,-11.19 -29.38,-0.55 5.61,-9.62 14.69,-12.76 22.9,-18.35 -11,0 -20.88,4.55 -29.82,13.34 a 42.13,42.13 0 0 0 7.78,-18.9 c -3.23,6.24 -8,12.5 -13.83,14.46 0.89,-2.56 2.12,-6.38 4.32,-8.9 -2.86,1.47 -6.53,2.13 -8.64,6.12 1.38,-5.93 3.65,-8.77 3.89,-15 -3.68,3.87 -10.68,9.28 -14.69,15 -0.4,-5.16 -0.44,-10.49 -1.73,-15.57 -1.43,6.14 -3.73,13.1 -4.76,19.46 0,-12.48 -0.78,-29.79 -7.78,-42.24 z"
       inkscape:connector-curvature="0" />
    <path
       id="path5787"
       class="cls-6"
       d="m 35.18,347.32 c 4.83,13.95 11,37.58 1.51,50.22 0,-6.52 0.6,-13.26 -1.51,-19.31 0,7.85 -0.53,15.92 -3.77,22.69 0,-6.66 -0.27,-13.29 -0.75,-19.8 -1,6.87 -1.19,14.05 -3.39,20.76 0,-14 -0.91,-26.46 -6.4,-39.11 1,13.41 1.73,30.34 -5.27,40.56 -0.45,-3.15 -1.31,-5.87 -1.88,-9.18 -1,3.21 -2.9,7.49 -2.63,11.59 -0.85,-1.46 -2.62,-4.33 -3.77,-6.28 -1.78,2.93 -3.8,5.88 -5.65,8.83 v 5.83 h 92.24 a 15.64,15.64 0 0 0 1.52,-3.56 59,59 0 0 0 1.13,-7.24 c -2.26,1 -4.66,1.92 -7.15,2.9 1.1,-3.52 1.91,-7.66 3.39,-11.59 h 5.65 c -2.29,-1.33 -3.83,-3.46 -6.78,-2.89 -4.21,2.4 -9.1,5.47 -11.29,11.59 1.7,-10.88 8.47,-18.44 6,-30.9 -1.55,10.94 -5.22,20.07 -12.43,27 v -9.17 c -1.46,2.5 -3.38,4.34 -4.89,7.24 1.29,-8.3 2.47,-13.68 7.49,-18.51 -3.93,2.91 -8.05,4.59 -10.88,9.82 0,-5.75 0.93,-9.61 0.75,-15.45 -1.39,2 -3.93,4.29 -4.52,8.21 0,-8 -0.27,-16.42 0.38,-24.14 A 75.69,75.69 0 0 0 56.64,371 c -1.26,-3.65 -1.62,-7.3 -3,-11.1 -0.5,3.18 -0.89,6.71 -1.51,10.14 -2.27,-7.57 -3.83,-15.74 -7.15,-22.69 1.05,13.52 8.76,29.43 2.26,45.87 0,-16.39 -4.19,-32.79 -12.05,-45.87 z M 76.56,379 a 23.55,23.55 0 0 0 2.67,-2.25 27.59,27.59 0 0 0 -2.67,2.25 z"
       inkscape:connector-curvature="0"
       style="fill:#3f6e35" />
    <path
       id="path5800"
       class="cls-7"
       d="m 561.27,337.69 c 0.5,-1.7 1.5,-2.93 1.46,-5 -2,2.54 -4.13,2.21 -3.42,7.72 0,-4.91 0.17,-9.12 -2,-13.23 0,4.46 0.76,11.35 -3.42,12.12 -0.56,-0.5 -5.2,3 -2.44,-2.2 1.15,-1 1.82,-3 3.91,-3.31 -2.27,0.59 -4.69,-1.23 -6.35,1.65 -0.82,-1.45 -1.53,-4.61 -3.42,-6.06 -0.9,2.23 0.83,5.06 -2.44,6.06 -1.14,-2.89 -1.14,-5.87 -3.91,-8.27 v 10.47 c -1.44,0 -1.69,1.33 -3.42,0 -0.05,0 -2.43,-3.19 -5.37,-1.65 -1.09,1.58 -4.43,1.18 -3.42,5 -0.76,-0.38 -2.93,-2.16 -4.39,-2.2 0.16,-0.92 0.25,-1.86 0.49,-2.76 -0.53,-0.4 -1.11,-3.77 -2.93,-2.2 -0.66,2.25 -3.77,2.77 -2,6.61 -2,-2.22 -3.36,-5.25 -6.35,-6.61 -1.57,4.34 0.85,4.68 2,7.16 -3.95,-1.61 -3,2.36 -4.88,3.86 2.29,2.53 4,0 6.35,0 h 3.42 c -4.35,1 -2.16,3.13 -3.42,5 3.09,0.66 4.93,-1 7.32,-2.2 -0.12,1.72 1,2.62 1.46,3.86 0.61,-4.22 2.39,-5.45 4.88,-8.27 2.7,-1 2.79,2.37 3.91,3.31 v -8.27 c 1.31,2.43 2.42,4.29 3.42,6.06 -3.91,-5.33 0.33,-1.47 0.49,-2.2 2.52,-0.53 3,0.68 4.88,1.1 3.87,-3.56 1.59,1.8 2,2.2 3.14,1.67 7.12,1 10.74,0.55 a 42.88,42.88 0 0 1 5.86,-2.76 c 7.16,-0.24 4.94,-2.15 1,-5.51 z"
       inkscape:connector-curvature="0"
       style="fill:#baba1c" />
    <path
       id="path5802"
       class="cls-8"
       d="m 429.38,380.08 c -1.74,-2.43 -3.19,-6.83 -4.46,-8.64 1,2.43 1,5 1.27,7.68 -2,-1 -4.06,-1.69 -5.95,-2.64 2.18,1.42 2.87,4.21 3.61,6.72 a 18.88,18.88 0 0 0 -11.9,0.48 c 2.44,-0.22 4.83,0.94 7,1.68 -3.49,0.55 -6.94,3.59 -9.14,5.52 3.88,0.41 7.52,-0.67 11.26,-1.44 a 7.34,7.34 0 0 1 0.21,-2.64 32.57,32.57 0 0 1 2.55,2.4 c 2.21,-1.38 2.08,-3.56 2.55,-6.24 1.42,0.07 2.64,0.32 4,0.48 0.35,-1.9 -0.45,-2 -1.06,-3.36 z"
       inkscape:connector-curvature="0"
       style="fill:#60992d" />
    <path
       id="path6007"
       class="cls-9"
       d="m 673.29,342.32 c -3.47,-1.57 -6.4,-3 -10.2,-2 -0.79,-3 -0.9,-9.1 -0.58,-13.82 -2.11,4.77 -4,9.44 -4.08,14.81 -2,-3 -2.87,-3.51 -6.12,-4.28 -0.62,0.78 -1.87,1.77 -2.33,3 -0.9,-2.53 -1.59,-5 -4.08,-5.92 a 20.84,20.84 0 0 0 -2,4.94 47.76,47.76 0 0 1 -0.29,-13.16 c -1.63,4.15 -3.79,8.89 -5,14.48 1.23,-5.54 0.12,-13.63 4.37,-18.76 a 33.12,33.12 0 0 0 -6.12,9.22 c 0.36,-4.48 1,-8.84 3.79,-12.51 -5.18,5.19 -9.13,13.64 -10.5,21.39 a 39,39 0 0 0 -0.87,-11.85 c -0.62,3.48 -1.35,7.13 -3.5,9.87 0.91,-4.11 0.56,-8.28 -0.29,-12.84 -0.24,1 -1.32,5.23 -2,7.24 0,-4.89 -0.08,-9.77 0.29,-14.48 A 29.76,29.76 0 0 0 618.19,338 c -1.77,-6.4 -3.87,-13 -7.29,-18.1 3.49,7.32 3.88,15 5.25,22.71 A 25.92,25.92 0 0 0 610,338 c -0.77,1.6 -0.58,3.2 -0.58,4.94 -0.33,1.05 0.58,1.1 0.87,1.65 -3.65,-4.54 -7.76,-3.88 -10.79,-1.32 1.23,3.14 4.26,4.52 6.41,5.6 -4.1,-0.62 -4.08,2 -4.08,5.92 4.17,-0.75 7.58,-0.73 11.37,-3.29 0.9,3 3.35,5 5.25,6.91 6.22,0.82 10.26,-6.92 16.62,-8.23 0.24,2.44 1.75,3.79 2.92,5.6 5.69,-5.13 12.29,-8.23 20.12,-8.23 4.92,-3.39 10.13,-5.27 15.16,-5.27 z"
       inkscape:connector-curvature="0"
       style="fill:#e2d973" />
    <path
       id="path5759"
       class="cls-10"
       d="m 672.12,370.82 a 122,122 0 0 1 16.47,-5.43 c -6.69,-0.57 -13.66,-1.29 -20.27,1.63 2.1,-5.41 3.65,-11.1 9.5,-14.66 -6.25,3 -13.14,8.38 -15.21,15.74 1.64,-14.09 6.28,-26.89 9.5,-40.72 -1.53,14.4 -10,27.48 -17.74,40.17 1,-4.46 2.05,-10.16 4.44,-15.2 -4.46,3.82 -8.56,8.33 -9.5,14.11 1.42,-6.07 2.12,-13.66 9.5,-18.46 -3.87,1.33 -7.78,2 -11.4,4.34 1.28,-3.3 1,-6.77 5.07,-9.23 -4.21,2.41 -8.76,4.89 -11.4,9.23 a 179.35,179.35 0 0 1 1.9,-18.46 52.35,52.35 0 0 1 -10.14,17.37 c -0.21,-2.54 0.48,-5.13 -0.63,-7.6 -2.88,1.06 -5.25,3.53 -8.87,3.26 -0.21,-2.36 0.49,-4.79 -0.63,-7.06 -1.13,0.85 -3.18,2.63 -5.07,3.8 0.39,-3.31 0.42,-6.45 1.27,-9.77 -3.53,3 -7.81,6.41 -7.6,11.4 v -0.54 l -9.5,-8.69 c 7.25,5.06 6.68,11.62 7.6,19.54 -7.47,-7.75 -18.61,-16 -26.61,-19 9.4,6.55 14.84,14.17 17.11,23.89 C 593.27,353 587,345.23 575.81,342 c 8.3,4.73 12.74,12.08 16.47,20.09 -4.19,-1.88 -8.14,-1.63 -12.67,-1.63 1.9,2.06 3,3.31 4.43,4.89 -11.13,0.18 -15.91,9.46 -18.37,17.92 11.05,-1.24 19.34,-6.93 27.24,-13 -0.82,3.8 2.15,6.69 3.8,9.23 5,-2.94 10.05,-7.3 14.57,-10.32 a 41,41 0 0 0 2.53,4.34 c 0.76,-8.37 5.82,-15.08 11.4,-21.17 -4.24,4.78 -4.43,11.18 -4.43,17.37 0.34,-4.27 4.23,-7.08 7,-9.77 -0.92,3.75 -0.63,7.59 -0.63,11.4 1.15,-2.37 4.39,-5.43 5.7,-7.06 -0.34,2.48 1.28,4.74 1.9,7.06 2.85,0 5.77,-1.23 8.24,-2.17 1.07,4.42 4.61,7.44 7.6,10.86 2.33,-3.25 2.13,-6.29 2.53,-9.77 4.66,10.73 18.3,10.32 27.24,10.32 -0.71,-5.4 -3.53,-6.75 -8.24,-9.77 z"
       inkscape:connector-curvature="0" />
    <path
       id="path5753"
       class="cls-8"
       d="m 461.83,381.85 c -0.59,-5.22 -0.44,-10.34 1.53,-15.24 0.72,3.22 1.34,6.52 3,9.48 2.72,1.34 5.79,3.52 9.53,3.39 -1.33,-3.94 -2.84,-8 -7.62,-9.14 6.12,1.09 9.41,6.4 14.49,7.45 -4,-3.51 -7.37,-9.39 -5.34,-15.24 2.44,5.63 5.81,13.5 13,15.91 1.68,-2 3.26,-3.87 3.05,-6.77 0.73,1.61 1.49,3.1 2.29,4.74 4,0 6.27,0.2 8,3.72 0.13,-1.59 -0.28,-3.2 0.38,-4.74 a 30.3,30.3 0 0 0 11.06,3 c -2.45,-2.9 -4.46,-5.8 -8.77,-6.77 1.84,-1.87 3.76,-4.13 6.86,-5.08 -5.12,0.76 -9.48,1.14 -13.72,3.72 0.57,-2.53 1,-4.47 0.76,-6.77 -1.44,1.82 -2.65,3.87 -5.34,4.74 -0.93,-3.57 -1.84,-7.6 -5,-10.5 0,0.6 -0.21,6.57 -1.53,9.14 -0.57,-5.6 -3.18,-11.83 -7.62,-15.57 a 41.76,41.76 0 0 0 -1.53,4.4 c -1.17,-2.6 -2.14,-5.5 -1.14,-8.8 -2.75,3.06 -5.61,6.52 -7.24,10.16 a 43.66,43.66 0 0 1 -0.38,-8.46 c -1.42,3.46 -3.39,6.88 -3.43,10.83 -1.23,-3.29 -1.52,-7.44 -5.72,-8.46 -0.77,3.42 -1.57,6.67 -3.81,9.48 -0.25,-2.61 -0.17,-5.13 -1.91,-7.45 -0.79,1.59 -2.14,4.41 -3,6.43 a 40.11,40.11 0 0 1 -0.76,-10.83 22.22,22.22 0 0 0 -2.29,13.2 29.87,29.87 0 0 0 0.38,11.85 c -2.25,-10.82 -8,-24.33 -17.92,-30.47 7.16,7.3 11.06,18.35 11.06,28.1 -1.63,-4.39 -6.59,-10 -8.39,-12.87 1.89,6 1.91,12.22 1.91,18.62 a 32.64,32.64 0 0 0 -5,0.34 c 0.79,3.65 3.87,3.39 8,3.39 -1,2.11 1.33,2.83 1.91,4.06 a 7.84,7.84 0 0 0 4.19,-2.37 c -0.78,-4.06 0.53,-4.35 2.29,-6.43 4.85,-0.44 5.42,2.62 6.48,5.76 0.35,-2.55 1.5,-3.54 2.67,-5.42 4.4,0.44 3.81,2 4.58,5.42 z"
       inkscape:connector-curvature="0"
       style="fill:#60992d" />
  </g>
</svg>
