<?xml version="1.0" encoding="utf-8"?>
<!-- Generator: Adobe Illustrator 21.1.0, SVG Export Plug-In . SVG Version: 6.00 Build 0)  -->
<svg version="1.1" id="Layer_1" xmlns="http://www.w3.org/2000/svg" xmlns:xlink="http://www.w3.org/1999/xlink" x="0px" y="0px"
	 viewBox="0 0 576 576" style="enable-background:new 0 0 576 576;" xml:space="preserve">
<style type="text/css">
	.st0{fill:#B3AD99;}
	.st1{fill:#E1DBC1;}
	.st2{fill:#D1AE40;}
	.st3{fill:#AA8F35;}
	.st4{fill:#F1E8CD;}
	.st5{fill:#E97E80;}
	.st6{fill:#C4BDA6;}
	.st7{fill:none;stroke:#AC4226;stroke-width:0.25;stroke-miterlimit:10;}
	.st8{fill:#D9D9CE;}
	.st9{fill:#EFC94D;}
	.st10{fill:#80828A;}
	.st11{fill:#BC383D;}
	.st12{fill:#CF4041;}
	.st13{opacity:0.1;}
	.st14{fill:#E2F4FD;}
	.st15{fill:#F5BCA1;}
	.st16{fill:#18A24D;}
	.st17{fill:#674B3F;}
	.st18{fill:#D8A78E;}
	.st19{fill:#F6BDA2;}
	.st20{fill:#7E5C4A;}
</style>
<g>
	<g>
		<polygon class="st0" points="306.6,463.7 344.3,442 344.3,463.7 306.6,485.4 		"/>
	</g>
	<g>
		<polygon class="st1" points="269.2,442 306.6,420.4 344.3,442 306.6,463.7 		"/>
	</g>
	<g>
		<g>
			<polygon class="st2" points="322.4,451 338.2,441.9 306.6,423.8 275.3,441.9 290.9,451 306.6,442 			"/>
		</g>
		<g>
			<polygon class="st3" points="322.4,451 306.6,442 290.9,451 306.6,460.1 			"/>
		</g>
	</g>
	<g>
		<polygon class="st4" points="269.2,463.7 269.2,442 306.6,463.7 306.6,485.4 		"/>
	</g>
	<g>
		<path class="st5" d="M270.3,451.8c-0.7,2-2.8,3-4.8,2.4c-2-0.7-3-2.8-2.4-4.8c0.7-2,6.4-7.3,6.4-7.3S271,449.8,270.3,451.8z"/>
	</g>
	<g>
		<path class="st5" d="M343.6,451.8c0.7,2,2.8,3,4.8,2.4c2-0.7,3-2.8,2.4-4.8c-0.7-2-6.4-7.3-6.4-7.3S342.9,449.8,343.6,451.8z"/>
	</g>
	<g>
		<path class="st5" d="M309.5,472.9c-0.3,2.1-2.2,3.5-4.2,3.2c-2.1-0.3-3.5-2.2-3.2-4.2c0.3-2.1,4.9-8.4,4.9-8.4
			S309.8,470.8,309.5,472.9z"/>
	</g>
	<g>
		<polygon class="st6" points="323.3,467.3 319.7,470 319.7,463.7 323.3,461.1 		"/>
	</g>
	<g>
		<polygon class="st6" points="331.5,462.9 327.9,465.5 327.9,459.3 331.5,456.7 		"/>
	</g>
	<g>
		<path class="st7" d="M275.3,467.2"/>
	</g>
	<g>
		<path class="st7" d="M275.3,445.6"/>
	</g>
	<g>
		<path class="st7" d="M281.7,470.9"/>
	</g>
	<g>
		<path class="st7" d="M281.7,449.3"/>
	</g>
	<g>
		<path class="st7" d="M287.9,474.3"/>
	</g>
	<g>
		<path class="st8" d="M240.1,344.4l1.8,2.4c-0.3-0.8-0.6-1.5-0.9-2.3C240.7,344.5,240.4,344.5,240.1,344.4z"/>
	</g>
	<g>
		<path class="st7" d="M287.9,452.7"/>
	</g>
	<g>
		<path class="st7" d="M297.2,479.9"/>
	</g>
	<g>
		<path class="st7" d="M297.2,458.3"/>
	</g>
	<g>
		<ellipse class="st9" cx="306.6" cy="374.7" rx="44.4" ry="24.9"/>
	</g>
	<g>
		<rect x="262.2" y="358.5" class="st9" width="88.7" height="16.2"/>
	</g>
	<g>
		
			<rect x="266" y="379.1" transform="matrix(0.9945 -0.1049 0.1049 0.9945 -41.5952 30.1865)" class="st10" width="0.6" height="63.2"/>
	</g>
	<g>
		<path class="st11" d="M273.3,374.1C217.5,348.3,168,234,168,234C130,119.6,190.3,96.2,190.3,96.2h232.5c0,0,60.2,23.3,22.3,137.7
			c0,0-49.5,114.2-105.3,140L273.3,374.1z"/>
		<path class="st12" d="M273.2,374.7l-0.1-0.1c-29-13.4-56.1-50.9-73.8-80c-19.2-31.5-31.6-60.2-31.8-60.5
			c-10.9-32.8-20.2-78.8-3.1-112.3c10.3-20.1,25.5-26.2,25.7-26.2l0.2,0h232.6l0.1,0c0.2,0.1,15.4,6.1,25.7,26.2
			c17.1,33.5,7.8,79.5-3,112.2c-0.1,0.3-12.6,29-31.8,60.4c-17.7,29.1-44.9,66.5-73.8,79.9l-0.2,0.1L273.2,374.7z M190.4,96.8
			c-1.3,0.5-15.4,6.8-25,25.7c-16.9,33.1-7.6,78.7,3.1,111.2c0.5,1.1,50,114.3,104.9,139.8l66.2-0.2
			c54.9-25.5,104.4-138.5,104.9-139.6c10.7-32.4,20-78.1,3.1-111.2c-9.7-18.9-23.7-25.2-25-25.7H190.4z"/>
	</g>
	<g>
		<path class="st9" d="M245.5,64c0,0-96.8-2.9-58.1,162.9c0,0,20.5,78.1,92.4,150.7h53.3c71.9-72.5,92.4-150.7,92.4-150.7
			c38.7-165.8-57.8-163.3-57.8-163.3l-123.2,0.2"/>
	</g>
	<g>
		<path class="st12" d="M287.4,378.8c0,0-96.4-142.2-75.4-244.1c20.9-101.9,74.3-80.4,74.3-80.4l41.2,0.1c0,0,52.7-21.8,73.6,80.2
			c20.9,101.9-75.4,244.2-75.4,244.2H287.4z"/>
		<path class="st12" d="M326,379.4h-38.9l-0.2-0.3c-0.2-0.4-24.4-36.1-45.6-83.9c-19.6-44.1-40.8-107.8-29.9-160.6
			c14.8-72,45.8-82.7,63-82.7c6.7,0,11.2,1.6,12,1.9l41,0.1c0.8-0.3,5.3-2,12-2c16.9,0,47.5,10.7,62.3,82.6
			c10.8,52.8-10.3,116.5-29.9,160.7c-21.3,47.8-45.4,83.6-45.6,84L326,379.4z M287.7,378.2h37.7c2.2-3.3,25.1-38,45.4-83.5
			c19.6-44,40.6-107.4,29.8-159.9c-14.6-71-44.6-81.6-61.1-81.6c-7,0-11.6,1.9-11.7,1.9l-0.2,0l-41.4-0.1l-0.1,0
			c0,0-4.7-1.9-11.7-1.9c-16.8,0-47.2,10.6-61.8,81.8c-10.8,52.5,10.3,116,29.8,159.9C262.6,340.3,285.5,374.9,287.7,378.2z"/>
	</g>
	<g>
		<path class="st9" d="M306.7,45.7c-4.6-0.2-52.3,1.1-43.3,130.7c9.5,136,43.7,204.6,43.7,204.6v1.6c0,0,33.3-70.2,42.8-206.2
			C359.4,41.3,307.5,45.6,306.7,45.7z"/>
	</g>
	<g>
		
			<rect x="313.8" y="408.1" transform="matrix(9.772279e-02 -0.9952 0.9952 9.772279e-02 -92.7761 714.3721)" class="st10" width="67.6" height="0.6"/>
	</g>
	<g>
		
			<rect x="307.7" y="419.9" transform="matrix(8.403900e-02 -0.9965 0.9965 8.403900e-02 -111.1273 719.5251)" class="st10" width="56.2" height="0.6"/>
	</g>
	<g>
		
			<rect x="278.1" y="392" transform="matrix(0.9931 -0.1174 0.1174 0.9931 -47.4727 35.586)" class="st10" width="0.6" height="57.5"/>
	</g>
	<g>
		
			<rect x="291.4" y="394.6" transform="matrix(0.9913 -0.1314 0.1314 0.9913 -53.3255 41.9927)" class="st10" width="0.6" height="61.2"/>
	</g>
	<g>
		
			<rect x="291.9" y="427.5" transform="matrix(9.376182e-02 -0.9956 0.9956 9.376182e-02 -133.5864 708.7906)" class="st10" width="61.2" height="0.6"/>
	</g>
	<g>
		<rect x="306.3" y="399.7" class="st10" width="0.6" height="64.1"/>
	</g>
	<g class="st13">
		<path class="st14" d="M422.8,97.5h-0.8c-19.4-35-54.2-35-54.2-35h-0.1c-19.7-16.7-39.1-8.9-40.1-8.5c-10.4-9.8-20.4-8.1-20.8-8.1
			c-1.9-0.1-11-0.1-20.5,9.9h-0.1c0,0-20.2-10-40.6,6.7h-1.1l1,0.4c0,0-34.8-0.4-54.3,34.6h-0.9c0,0-40.3,16-34.2,86.2
			c52.8-12.2,113.6-15.2,150.9,17.8c43.5,38.5,100.3,35.6,141.5,26.2C479.1,119.5,422.8,97.5,422.8,97.5z"/>
	</g>
	<g>
		<path class="st5" d="M262.4,367.8c2,8.8,21.2,15.6,44.6,15.6c22.8,0,41.7-6.6,44.4-15C325.2,381.1,285.7,382.7,262.4,367.8z"/>
	</g>
</g>
<g>
	<path class="st15" d="M288.1,425.8c0,0-0.5-3.7-0.6-6.8c-0.1-1.8-0.1-3.9,0-4.3c0-1.1,0.2-3.5,0.2-3.5s-0.1-1.2-0.3-1.6
		c-0.4-1.2-0.8-3.6,1.2-4.1c1.7-0.5,1.5,2.4,1,4.6c-0.1,0.4,0.3,2.5,0.5,4.2c0.2,2,0.1,2.5,0.3,4.7c0.3,2.8,1.3,6.1,1.3,6.1
		L288.1,425.8z"/>
	<path class="st16" d="M291.3,420.9c0,0-0.8,1.3-2,1.3c-1.2,0.1-1.6-1.1-1.9-0.6c-0.2,0.4,0,7.1,1.5,7.7s3-1.1,3-1.1l0.6-2.2
		C292.3,426.1,291.5,421.2,291.3,420.9z"/>
	<path class="st17" d="M288.8,447.5c0,0,0,2.7,0.9,3.1c0.9,0.4,3.6,2.1,3.6,2.1l1.1-5L288.8,447.5z"/>
	<path class="st17" d="M294.5,447.6c0,0-0.4,5.5,0.5,6.2c0.9,0.7,5.2,2.8,5.2,2.8l0.4-8.8L294.5,447.6z"/>
	<path class="st16" d="M296,426.7c0,0,4.9,0.5,5,4.1c0.1,3.6,0.2,16.6,0.2,17.1c0,0.5-1.7,2.7-7.1,2.4c-5.1-0.3-5.8-1.7-5.8-2.6
		c0-1.1,0.4-6.4,0.5-11.2c0.1-3.3-0.7-6.8-0.4-8C288.9,426.6,293.8,426.1,296,426.7z"/>
	<path class="st18" d="M292.9,424.4c0,0,0,3.9,0.4,4.3c0.4,0.3,2.9-0.1,2.9-1.5c0-1.4,0-3.1,0-3.1L292.9,424.4z"/>
	<path class="st19" d="M290.4,418.7c0,0-0.4,7.9,2.2,8.3c1.9,0.3,4.5-0.6,4.6-3.2c0.1-2.6,0.9-6.5-0.9-6.5
		C294.5,417.3,290.2,416.9,290.4,418.7z"/>
	<path class="st20" d="M298.5,418.2c0,0,0.1,2.6,0.1,3.8c0,1.2-1.4,2.4-1.9,2c-0.5-0.5-0.3-4.8-0.3-4.8L298.5,418.2z"/>
	<path class="st20" d="M293.8,415.8c0,0-2.7,0-3.6,1.7c-0.9,1.5-0.4,3.3,0.2,3.1c0.3,0,0.6-0.2,1.1-0.4c0.5-0.2,1.4-0.9,1.4-0.9
		s-0.1,0.5-0.3,1.2c0.9-0.2,2.1-1.1,2.3-1.6c0.1-0.2,0.6,4.3,1.7,3.3c1-1,2.7-2.6,1.6-5C297.1,414.8,293.8,415.8,293.8,415.8z"/>
	<path class="st19" d="M296.4,422.5c0,0,0.5-1.4,1.4-0.8c0.8,0.6,0.2,2.9-0.9,2.5C295.9,423.8,296.4,422.5,296.4,422.5z"/>
	<path class="st15" d="M287.2,408c0,0,1.1-2,2.2-1.8c1.1,0.2,0.8,2.7,0.3,3.3s-1.8,1.2-2,1.3C287.4,410.8,286.9,408.5,287.2,408z"/>
	<path class="st16" d="M299.5,423.2c-0.8-0.3-0.7-0.7-1-0.3c-0.3,0.4-0.6,2.7-1,4.3c-0.4,1.6-0.8,5.1,1.4,5.1c2.2,0,2.8-1.8,3-3.3
		c0.1-1.6,0.8-5.6,0.4-5.7C301.9,423,300.4,423.5,299.5,423.2z"/>
	<path class="st15" d="M298.8,414.5c0,0,0,4.3,0.2,5.1c0.1,0.8-0.5,3.6-0.3,4.6c0.2,1,3,1.2,3.3,0.2c0.4-1,0-3.6-0.2-5.3
		c-0.2-1.7-0.7-4.4-1.1-5.6c-0.2-0.6,0.2-3.7-2.1-4.1c-1.2-0.2-1.9,0.1-1.7,1.6C297.3,412.5,298.6,414.3,298.8,414.5z"/>
</g>
</svg>
