<svg id="Layer_1" data-name="Layer 1" xmlns="http://www.w3.org/2000/svg" xmlns:xlink="http://www.w3.org/1999/xlink" viewBox="0 0 576 576"><defs><style>.cls-1{fill:none;}.cls-2{opacity:0.2;}.cls-3{isolation:isolate;}.cls-4{clip-path:url(#clip-path);}.cls-5{fill:#2b2424;}.cls-6{fill:#b3ad99;}.cls-7{fill:#e1dbc1;}.cls-8{fill:#d1ae40;}.cls-9{fill:#aa8f35;}.cls-10{fill:#f1e8cd;}.cls-11{fill:#e97e80;}.cls-12{fill:#c4bda6;}.cls-13{fill:#d9d9ce;}.cls-14{fill:#efc94d;}.cls-15{fill:#80828a;}.cls-16{fill:#bc383d;}.cls-17{fill:#cf4041;}.cls-18{opacity:0.1;}.cls-19{fill:#e2f4fd;}.cls-20{fill:#f5bca1;}.cls-21{fill:#18a24d;}.cls-22{fill:#674b3f;}.cls-23{fill:#d8a78e;}.cls-24{fill:#f6bda2;}.cls-25{fill:#7e5c4a;}</style><clipPath id="clip-path"><polygon class="cls-1" points="275.64 515.46 319.84 482.94 395.25 492.2 351.05 524.72 275.64 515.46"/></clipPath></defs><title>Artboard 1</title><g class="cls-2"><g class="cls-3"><g class="cls-4"><path class="cls-5" d="M357.56,487.57c-1.34-.16-2.74-.3-4.19-.41a121.47,121.47,0,0,0-13.69-.32c-3.25.1-6.47.34-9.6.68q-3.68.41-7.15,1a79.29,79.29,0,0,0-11.27,2.79h0l-.55.19-.42.15h0c-.58.2-1.13.41-1.68.63l-.12.05-.67.28-.5.21-.06,0a28.91,28.91,0,0,0-4.74,2.57l-.51.36a11.21,11.21,0,0,0-1.74,1.56,6.58,6.58,0,0,0-1.78,4.19,8.77,8.77,0,0,0,2.64,6l.11.16,1.63,2.55.2.31,1.14,1.79,1.14,1.79-2.26,1.66c-1.92,1.41,2.5,3.3,9.88,4.2s14.91.49,16.83-.92l2.26-1.67,4.81-1,5-1.08,7.5-1.63.68-.15c3.71-.63,7.37-1.38,10.78-2.22a71.67,71.67,0,0,0,13.3-4.39,20.57,20.57,0,0,0,3.32-1.92l.4-.31c2-1.57,3.12-3.17,3.39-4.74a4.65,4.65,0,0,0-.39-2.79,11,11,0,0,0-4.82-4.5c-.66-.36-1.35-.71-2.11-1a46,46,0,0,0-8.06-2.61q-1.53-.36-3.21-.67c-.64-.12-1.29-.24-2-.35-1.08-.19-2.23-.36-3.42-.5"/></g></g></g><polygon class="cls-6" points="306.57 463.74 344.26 441.98 344.26 463.66 306.57 485.42 306.57 463.74"/><polygon class="cls-7" points="269.16 441.98 306.57 420.38 344.26 441.98 306.57 463.74 269.16 441.98"/><polygon class="cls-8" points="322.38 451.02 338.17 441.9 306.59 423.81 275.25 441.91 290.92 451.02 306.59 441.98 322.38 451.02"/><polygon class="cls-9" points="322.38 451.02 306.59 441.98 290.92 451.02 306.59 460.14 322.38 451.02"/><polygon class="cls-10" points="269.16 463.66 269.16 441.98 306.57 463.74 306.57 485.42 269.16 463.66"/><path class="cls-11" d="M270.29,451.79a3.76,3.76,0,1,1-7.13-2.39c.66-2,6.43-7.34,6.43-7.34S271,449.82,270.29,451.79Z"/><path class="cls-11" d="M343.59,451.79a3.76,3.76,0,0,0,7.13-2.39c-.66-2-6.43-7.34-6.43-7.34S342.92,449.82,343.59,451.79Z"/><path class="cls-11" d="M309.54,472.89a3.76,3.76,0,0,1-7.46-1c.28-2.06,4.94-8.41,4.94-8.41S309.83,470.83,309.54,472.89Z"/><polygon class="cls-12" points="323.28 467.34 319.68 469.95 319.68 463.74 323.28 461.12 323.28 467.34"/><polygon class="cls-12" points="331.46 462.92 327.86 465.54 327.86 459.32 331.46 456.7 331.46 462.92"/><path class="cls-13" d="M240.07,344.41l1.79,2.42c-.3-.76-.62-1.52-.91-2.28Z"/><ellipse class="cls-14" cx="306.57" cy="374.73" rx="44.35" ry="24.92"/><rect class="cls-14" x="262.22" y="358.53" width="88.7" height="16.2"/><rect class="cls-15" x="265.98" y="379.07" width="0.59" height="63.16" transform="translate(-41.6 30.19) rotate(-6.02)"/><path class="cls-16" d="M273.28,374.12C217.46,348.33,168,234,168,234,130,119.56,190.25,96.23,190.25,96.23H422.76S483,119.56,445.06,234c0,0-49.51,114.21-105.33,140Z"/><path class="cls-17" d="M273.15,374.7l-.12-.05c-29-13.38-56.15-50.88-73.85-80a559.6,559.6,0,0,1-31.77-60.48c-10.86-32.77-20.19-78.8-3.05-112.25,10.3-20.1,25.52-26.18,25.68-26.24l.21,0H422.87l.1,0c.15.06,15.38,6.14,25.68,26.24,17.14,33.46,7.81,79.48-3,112.21a557.52,557.52,0,0,1-31.79,60.45c-17.7,29.06-44.88,66.51-73.85,79.9l-.24.05ZM190.37,96.82c-1.3.55-15.35,6.82-25,25.73-16.9,33.09-7.62,78.75,3.15,111.22.48,1.09,50,114.26,104.9,139.77l66.2-.17C394.54,347.86,444,234.86,444.53,233.72c10.75-32.43,20-78.08,3.13-111.17-9.66-18.91-23.7-25.18-25-25.73Z"/><path class="cls-14" d="M245.49,64s-96.76-2.92-58.05,162.92c0,0,20.54,78.13,92.42,150.65h53.3C405,305,425.58,226.91,425.58,226.91,464.28,61.07,367.76,63.58,367.76,63.58l-123.24.22"/><path class="cls-17" d="M287.36,378.81S191,236.65,211.93,134.71s74.29-80.37,74.29-80.37l41.24.14s52.7-21.79,73.63,80.15-75.44,244.19-75.44,244.19Z"/><path class="cls-17" d="M326,379.4H287.06l-.17-.26a607.17,607.17,0,0,1-45.62-83.91c-19.63-44.13-40.75-107.82-29.91-160.64,14.78-72,45.8-82.75,63-82.75a35.48,35.48,0,0,1,12,1.91l41,.14a34.87,34.87,0,0,1,12-2c16.93,0,47.54,10.73,62.29,82.57,10.84,52.81-10.28,116.53-29.91,160.68a607.8,607.8,0,0,1-45.62,84Zm-38.29-1.17h37.66a609.65,609.65,0,0,0,45.35-83.54c19.56-44,40.6-107.45,29.82-159.95-14.59-71-44.57-81.64-61.15-81.64A33.78,33.78,0,0,0,327.69,55l-.22,0-41.35-.14-.11,0A34.4,34.4,0,0,0,274.33,53c-16.81,0-47.21,10.63-61.82,81.81-10.78,52.51,10.27,116,29.83,159.93A608.87,608.87,0,0,0,287.68,378.23Z"/><path class="cls-14" d="M306.74,45.66c-4.57-.17-52.3,1.08-43.27,130.67,9.48,136,43.65,204.61,43.65,204.61v1.62s33.34-70.19,42.82-206.23C359.36,41.32,307.53,45.59,306.74,45.66Z"/><rect class="cls-15" x="313.8" y="408.06" width="67.57" height="0.58" transform="translate(-92.78 714.37) rotate(-84.39)"/><rect class="cls-15" x="307.72" y="419.92" width="56.19" height="0.58" transform="translate(-111.13 719.53) rotate(-85.18)"/><rect class="cls-15" x="278.05" y="392.01" width="0.58" height="57.53" transform="translate(-47.47 35.59) rotate(-6.74)"/><rect class="cls-15" x="291.36" y="394.6" width="0.58" height="61.23" transform="translate(-53.33 41.99) rotate(-7.55)"/><rect class="cls-15" x="291.93" y="427.48" width="61.23" height="0.58" transform="translate(-133.59 708.79) rotate(-84.62)"/><rect class="cls-15" x="306.27" y="399.65" width="0.58" height="64.08"/><g class="cls-18"><path class="cls-19" d="M422.76,97.48h-.84c-19.44-35-54.17-35-54.17-35h-.14C347.94,45.8,328.52,53.62,327.5,54c-10.44-9.8-20.42-8.14-20.76-8.11-1.88-.07-11-.08-20.47,9.92h-.05s-20.16-10-40.56,6.67h-1.14l1,.4s-34.83-.4-54.34,34.61h-.9s-40.33,16-34.19,86.25c52.8-12.18,113.61-15.23,150.92,17.78,43.52,38.51,100.3,35.65,141.47,26.2C479.13,119.47,422.76,97.48,422.76,97.48Z"/></g><path class="cls-11" d="M262.4,367.82c2,8.76,21.19,15.64,44.57,15.64,22.83,0,41.65-6.55,44.4-15C325.19,381.05,285.74,382.7,262.4,367.82Z"/><path class="cls-20" d="M288.1,425.78s-.47-3.69-.59-6.78c-.07-1.79-.06-3.86,0-4.32,0-1.15.17-3.52.17-3.52a14.79,14.79,0,0,0-.27-1.59c-.39-1.24-.82-3.56,1.22-4.12,1.73-.48,1.45,2.37,1,4.59-.08.37.35,2.48.53,4.2.21,2,.08,2.5.32,4.73a42.13,42.13,0,0,0,1.3,6.15Z"/><path class="cls-21" d="M291.29,420.9a3.18,3.18,0,0,1-2,1.34c-1.18.08-1.62-1.09-1.94-.6s0,7.1,1.46,7.75,3-1.08,3-1.08l.59-2.2S291.5,421.2,291.29,420.9Z"/><path class="cls-22" d="M288.84,447.48s0,2.66.94,3.1,3.59,2.09,3.59,2.09l1.09-5Z"/><path class="cls-22" d="M294.47,447.63s-.44,5.51.48,6.16,5.19,2.82,5.19,2.82l.37-8.82Z"/><path class="cls-21" d="M296,426.72s4.85.51,5,4.11.2,16.57.2,17.06-1.74,2.68-7.06,2.4c-5.07-.27-5.76-1.71-5.76-2.59,0-1.08.36-6.39.5-11.19.1-3.35-.67-6.78-.39-8C288.88,426.59,293.81,426.08,296,426.72Z"/><path class="cls-23" d="M292.94,424.44s0,3.95.44,4.26,2.85-.1,2.85-1.46,0-3.15,0-3.15Z"/><path class="cls-24" d="M290.42,418.69s-.36,7.92,2.2,8.3c1.92.29,4.55-.59,4.63-3.21s.92-6.46-.9-6.47S290.21,416.92,290.42,418.69Z"/><path class="cls-25" d="M298.53,418.23s.15,2.65.1,3.83-1.4,2.44-1.87,2-.26-4.8-.26-4.8Z"/><path class="cls-25" d="M293.81,415.81s-2.68,0-3.64,1.66-.44,3.25.23,3.14a4.41,4.41,0,0,0,1.13-.4,15.24,15.24,0,0,0,1.43-.89s-.14.46-.32,1.18a4.15,4.15,0,0,0,2.32-1.64c.08-.16.64,4.28,1.66,3.32s2.7-2.58,1.58-5S293.81,415.81,293.81,415.81Z"/><path class="cls-24" d="M296.4,422.48s.54-1.38,1.37-.79.16,2.88-.86,2.48S296.4,422.48,296.4,422.48Z"/><path class="cls-20" d="M287.17,408s1.11-2,2.22-1.81.81,2.71.29,3.28a6,6,0,0,1-2,1.28C287.37,410.8,286.89,408.54,287.17,408Z"/><path class="cls-21" d="M299.54,423.19c-.83-.35-.72-.71-1-.28s-.58,2.7-1,4.26-.76,5.11,1.42,5.13,2.84-1.76,3-3.32.78-5.58.37-5.75S300.37,423.53,299.54,423.19Z"/><path class="cls-20" d="M298.85,414.45s0,4.32.18,5.08-.51,3.57-.29,4.62,3,1.17,3.33.22,0-3.59-.17-5.25a33.24,33.24,0,0,0-1.1-5.6c-.22-.64.2-3.66-2.06-4.09-1.22-.23-1.93.14-1.71,1.6A7.05,7.05,0,0,0,298.85,414.45Z"/></svg>