<?xml version="1.0" encoding="UTF-8" standalone="no"?>
<!-- Generator: Adobe Illustrator 21.1.0, SVG Export Plug-In . SVG Version: 6.00 Build 0)  -->

<svg
   xmlns:dc="http://purl.org/dc/elements/1.1/"
   xmlns:cc="http://creativecommons.org/ns#"
   xmlns:rdf="http://www.w3.org/1999/02/22-rdf-syntax-ns#"
   xmlns:svg="http://www.w3.org/2000/svg"
   xmlns="http://www.w3.org/2000/svg"
   xmlns:sodipodi="http://sodipodi.sourceforge.net/DTD/sodipodi-0.dtd"
   xmlns:inkscape="http://www.inkscape.org/namespaces/inkscape"
   version="1.1"
   id="Layer_1"
   x="0px"
   y="0px"
   viewBox="0 44.1 302.23904 484.71408"
   xml:space="preserve"
   sodipodi:docname="hotairballoon.svg"
   width="302.23904"
   height="484.71408"
   inkscape:version="0.92.2 (5c3e80d, 2017-08-06)"><metadata
     id="metadata189"><rdf:RDF><cc:Work
         rdf:about=""><dc:format>image/svg+xml</dc:format><dc:type
           rdf:resource="http://purl.org/dc/dcmitype/StillImage" /><dc:title></dc:title></cc:Work></rdf:RDF></metadata><defs
     id="defs187" /><sodipodi:namedview
     pagecolor="#ffffff"
     bordercolor="#666666"
     borderopacity="1"
     objecttolerance="10"
     gridtolerance="10"
     guidetolerance="10"
     inkscape:pageopacity="0"
     inkscape:pageshadow="2"
     inkscape:window-width="640"
     inkscape:window-height="480"
     id="namedview185"
     showgrid="false"
     fit-margin-top="0"
     fit-margin-left="0"
     fit-margin-right="0"
     fit-margin-bottom="0"
     inkscape:zoom="2.3177389"
     inkscape:cx="159.58082"
     inkscape:cy="429.73274"
     inkscape:window-x="748"
     inkscape:window-y="160"
     inkscape:window-maximized="0"
     inkscape:current-layer="Layer_1"
     viewbox-y="44.1" /><style
     type="text/css"
     id="style2">
	.st0{fill:#B3AD99;}
	.st1{fill:#E1DBC1;}
	.st2{fill:#D1AE40;}
	.st3{fill:#AA8F35;}
	.st4{fill:#F1E8CD;}
	.st5{fill:#EDCC5F;}
	.st6{fill:#C4BDA6;}
	.st7{fill:#D9D9CE;}
	.st8{fill:#8AB8BC;}
	.st9{fill:#80828A;}
	.st10{fill:#59A7C1;}
	.st11{fill:#71ACBC;}
	.st12{fill:#80ADB7;}
	.st13{fill:#69A8B7;}
	.st14{opacity:0.1;}
	.st15{fill:#E2F4FD;}
	.st16{fill:none;stroke:#EDCC5F;stroke-width:4;stroke-miterlimit:10;}
	.st17{fill:#8D6E63;}
	.st18{fill:#6D4C41;}
	.st19{fill:#F4EAD7;}
	.st20{fill:#DBD2C1;}
	.st21{fill:#A1887F;}
	.st22{fill:#C9C1B1;}
	.st23{fill:#F4987F;}
	.st24{fill:#FFAB91;}
	.st25{fill:#7C4738;}
	.st26{fill:#EEEEEE;}
	.st27{fill:#703E33;}
	.st28{fill:#EBE1CF;}
	.st29{fill:#FF8A65;}
	.st30{fill:#602F28;}
	.st31{fill:#3E2723;}
	.st32{fill:#FFFFFF;}
	.st33{fill:#E0E0E0;}
</style><polygon
     class="st0"
     points="325.3,431 325.3,452.7 287.6,474.4 287.6,452.7 "
     id="polygon4"
     style="fill:#b3ad99"
     transform="translate(-136.41924,10.114095)" /><polygon
     class="st1"
     points="287.6,409.4 325.3,431.2 287.6,453.1 250.2,431.2 "
     id="polygon6"
     style="fill:#e1dbc1"
     transform="translate(-136.41924,10.114095)" /><polygon
     class="st2"
     points="287.6,431 303.4,440 319.2,430.9 287.6,412.8 256.2,430.9 271.9,440 "
     id="polygon8"
     style="fill:#d1ae40"
     transform="translate(-136.41924,10.114095)" /><polygon
     class="st3"
     points="287.6,431 271.9,440 287.6,449.1 303.4,440 "
     id="polygon10"
     style="fill:#aa8f35"
     transform="translate(-136.41924,10.114095)" /><polygon
     class="st4"
     points="250.2,431.2 287.6,452.9 287.6,474.6 250.2,452.9 "
     id="polygon12"
     style="fill:#f1e8cd"
     transform="translate(-136.41924,10.114095)" /><path
     class="st5"
     d="m 114.88076,450.9141 c -0.7,2 -2.8,3 -4.7,2.4 -2,-0.7 -3,-2.8 -2.4,-4.7 v 0 c 0.7,-2 6.4,-7.3 6.4,-7.3 0,0 1.4,7.6 0.7,9.6 z"
     id="path14"
     inkscape:connector-curvature="0"
     style="fill:#edcc5f" /><path
     class="st5"
     d="m 188.18076,450.9141 c 0.7,2 2.8,3 4.8,2.3 2,-0.7 3,-2.8 2.4,-4.7 -0.7,-2 -6.4,-7.3 -6.4,-7.3 0,0 -1.5,7.7 -0.8,9.7 z"
     id="path16"
     inkscape:connector-curvature="0"
     style="fill:#edcc5f" /><path
     class="st5"
     d="m 154.08076,472.0141 c -0.3,2.1 -2.2,3.5 -4.2,3.2 -2.1,-0.3 -3.5,-2.2 -3.2,-4.2 0.3,-2.1 4.9,-8.4 4.9,-8.4 0,0 2.8,7.3 2.5,9.4 z"
     id="path18"
     inkscape:connector-curvature="0"
     style="fill:#edcc5f" /><polygon
     class="st6"
     points="300.7,459 300.7,452.7 304.3,450.1 304.3,456.3 "
     id="polygon20"
     style="fill:#c4bda6"
     transform="translate(-136.41924,10.114095)" /><polygon
     class="st6"
     points="308.9,454.5 308.9,448.3 312.5,445.7 312.5,451.9 "
     id="polygon22"
     style="fill:#c4bda6"
     transform="translate(-136.41924,10.114095)" /><path
     class="st7"
     d="m 84.680763,343.5141 1.8,2.4 c -0.3,-0.8 -0.6,-1.5 -0.9,-2.3 z"
     id="path24"
     inkscape:connector-curvature="0"
     style="fill:#d9d9ce" /><ellipse
     class="st8"
     cx="151.18077"
     cy="372.81412"
     rx="44.400002"
     ry="24.9"
     id="ellipse26"
     style="fill:#8ab8bc" /><rect
     x="106.78076"
     y="357.61411"
     class="st8"
     width="88.699997"
     height="16.200001"
     id="rect28"
     style="fill:#8ab8bc" /><polygon
     class="st9"
     points="244.3,364.6 250.9,431.1 250.3,431.2 243.7,364.6 "
     id="polygon30"
     style="fill:#80828a"
     transform="translate(-136.41924,10.114095)" /><path
     class="st10"
     d="m 117.88076,373.2141 c -55.799997,-25.8 -105.299997,-140.1 -105.299997,-140.1 -38,-114.40001 22.2,-137.800005 22.2,-137.800005 H 267.28076 c 0,0 60.2,23.299995 22.3,137.800005 0,0 -49.5,114.2 -105.3,140 z"
     id="path32"
     inkscape:connector-curvature="0"
     style="fill:#59a7c1" /><path
     class="st11"
     d="m 90.080763,63.114095 c 0,0 -96.7999996,-2.9 -58.1,162.900005 0,0 20.5,78.1 92.399997,150.7 h 53.3 c 71.8,-72.6 92.4,-150.7 92.4,-150.7 38.7,-165.800005 -57.8,-163.300005 -57.8,-163.300005 l -123.199997,0.2"
     id="path34"
     inkscape:connector-curvature="0"
     style="fill:#71acbc" /><path
     class="st12"
     d="m 131.98076,377.9141 c 0,0 -96.399997,-142.2 -75.399997,-244.10001 21,-101.899995 74.299997,-80.399995 74.299997,-80.399995 l 41.2,0.1 c 0,0 52.7,-21.8 73.6,80.199995 20.9,102.00001 -75.4,244.20001 -75.4,244.20001 z"
     id="path36"
     inkscape:connector-curvature="0"
     style="fill:#80adb7" /><path
     class="st13"
     d="m 170.58076,378.5141 h -38.9 l -0.2,-0.3 c -17.4,-26.7 -32.599997,-54.8 -45.599997,-83.9 -19.6,-44.1 -40.8,-107.8 -29.9,-160.60001 14.8,-71.999995 45.799997,-82.799995 62.999997,-82.799995 4.1,-0.1 8.1,0.6 12,1.9 l 41,0.1 c 3.9,-1.4 7.9,-2 12,-2 16.9,0 47.5,10.7 62.3,82.599995 10.8,52.80001 -10.3,116.50001 -29.9,160.70001 -13,29.2 -28.2,57.2 -45.6,84 z m -38.3,-1.2 h 37.7 c 17.3,-26.6 32.4,-54.6 45.4,-83.5 19.6,-44 40.6,-107.4 29.8,-159.90001 -14.6,-70.999995 -44.6,-81.599995 -61.1,-81.599995 -4,-0.1 -7.9,0.6 -11.7,1.9 h -0.2 l -41.4,-0.1 h -0.2 c -3.8,-1.3 -7.7,-1.9 -11.7,-1.9 -16.8,0 -47.199997,10.6 -61.799997,81.799995 -10.8,52.50001 10.3,116.00001 29.8,159.90001 13,28.9 28.099997,56.8 45.399997,83.4 z"
     id="path38"
     inkscape:connector-curvature="0"
     style="fill:#69a8b7" /><path
     class="st8"
     d="m 151.28076,44.814095 c -4.6,-0.2 -52.299997,1.1 -43.3,130.700005 9.5,136 43.6,204.6 43.6,204.6 v 1.6 c 0,0 33.3,-70.2 42.8,-206.2 9.6,-135.100005 -42.3,-130.800005 -43.1,-130.700005 z"
     id="path40"
     inkscape:connector-curvature="0"
     style="fill:#8ab8bc" /><rect
     x="-420.61475"
     y="230.84531"
     transform="rotate(-84.389827)"
     class="st9"
     width="67.599312"
     height="0.59999394"
     id="rect42"
     style="fill:#80828a;stroke-width:0.99998987" /><polygon
     class="st9"
     points="318.9,379.6 319.4,379.7 314.7,437.2 314.2,437.2 "
     id="polygon44"
     style="fill:#80828a"
     transform="translate(-136.41924,10.114095)" /><polygon
     class="st9"
     points="256.8,379.6 263,438.3 262.4,438.3 256.3,379.7 "
     id="polygon46"
     style="fill:#80828a"
     transform="translate(-136.41924,10.114095)" /><path
     class="st5"
     d="m 106.98076,365.9141 c 2,8.8 21.2,15.6 44.6,15.6 22.8,0 41.6,-6.5 44.4,-15 -26.2,12.6 -65.7,14.3 -89,-0.6 z"
     id="path48"
     inkscape:connector-curvature="0"
     style="fill:#edcc5f" /><g
     class="st14"
     id="g52"
     style="opacity:0.1"
     transform="translate(-136.41924,10.114095)"><path
       class="st15"
       d="M 403.8,86.5 H 403 c -19.4,-35 -54.2,-35 -54.2,-35 h -0.1 C 329,34.8 309.6,42.6 308.6,43 c -10.4,-9.8 -20.4,-8.1 -20.8,-8.1 -1.9,-0.1 -11,-0.1 -20.5,9.9 v 0 c 0,0 -20.2,-10 -40.6,6.7 h -1.1 l 1,0.4 c 0,0 -34.8,-0.4 -54.3,34.6 h -0.9 c 0,0 -40.3,16 -34.2,86.2 52.8,-12.2 113.6,-15.2 150.9,17.8 43.5,38.5 100.3,35.6 141.5,26.2 C 460.1,108.5 403.8,86.5 403.8,86.5 Z"
       id="path50"
       inkscape:connector-curvature="0"
       style="fill:#e2f4fd" /></g><polygon
     class="st16"
     points="263.4,244.5 282.1,234 282.2,131.6 263.3,142 263.4,186 244.5,197 244.1,153.2 225.4,165.3 225.1,265.4 244.3,254.9 244.2,219.6 262.9,208.9 "
     id="polygon54"
     style="fill:none;stroke:#edcc5f;stroke-width:4;stroke-miterlimit:10"
     transform="translate(-136.41924,10.114095)" /><path
     class="st16"
     d="m 88.980763,175.4141 41.399997,23.9 c 0,0 33.2,15.2 42.5,48.4 0,0 10.4,33.9 -6.2,51.5 0,0 -13.5,15.6 -32.8,3.5 l -46.299997,-25.9 19.599997,-12.2 48.9,28 c 0,0 22.8,11.2 36.3,-15.8 0,0 11,-28.8 -7.3,-57.1 0,0 -7.9,-15 -52.1,-40.9 l -24.6,-16.8"
     id="path56"
     inkscape:connector-curvature="0"
     style="fill:none;stroke:#edcc5f;stroke-width:4;stroke-miterlimit:10" /><rect
     x="82.380768"
     y="270.01407"
     class="st12"
     width="4.1999998"
     height="9.6999998"
     id="rect58"
     style="fill:#80adb7" /><path
     class="st16"
     d="m 126.88076,152.1141 c 0,0 61.3,32.4 70.6,46.1 0,0 18.6,21.7 16,50.1 0,0 1.5,49.7 -44.5,31 l -42.5,-24 19.3,-11.3 c 0,0 52.5,35.1 60.7,30.3 0,0 5.1,0.5 13.4,-4.6 10,-6.1 12.9,-17.8 12.7,-33 0,0 3.9,-27.6 -19.8,-51.2 0,0 -17.5,-15 -38.3,-27.4 l -27.9,-17.80001"
     id="path60"
     inkscape:connector-curvature="0"
     style="fill:none;stroke:#edcc5f;stroke-width:4;stroke-miterlimit:10" /><rect
     x="120.68077"
     y="249.7141"
     class="st8"
     width="4.1999998"
     height="9.6999998"
     id="rect62"
     style="fill:#8ab8bc" /><rect
     x="-164.16006"
     y="233.40756"
     transform="rotate(-59.999272)"
     class="st8"
     width="4.1999073"
     height="9.6997862"
     id="rect64"
     style="fill:#8ab8bc;stroke-width:0.99997801" /><rect
     x="-202.16313"
     y="211.43269"
     transform="rotate(-59.999272)"
     class="st12"
     width="4.1999073"
     height="4.1999073"
     id="rect66"
     style="fill:#80adb7;stroke-width:0.99997801" /><path
     class="st17"
     d="m 156.58076,445.8141 0.5,-1 c -0.3,0.3 -0.7,0.5 -1.2,0.5 0.5,-0.8 0.7,-1.2 0.9,-1.9 0,0 1.4,-0.6 2.3,0.3 0,0.1 0,0.2 0,0.2 0.3,2.2 -1.8,2 -2.5,1.9 z"
     id="path68"
     inkscape:connector-curvature="0"
     style="fill:#8d6e63" /><path
     class="st18"
     d="m 155.88076,445.3141 c 0,0 1.1,-0.4 1.3,-0.9 l -0.2,0.4 c 0.1,0 -0.4,0.6 -1.1,0.5 z"
     id="path70"
     inkscape:connector-curvature="0"
     style="fill:#6d4c41" /><path
     class="st18"
     d="m 156.58076,445.8141 c 0,0 2.4,-0.3 2.6,-1.8 0.2,2.1 -1.9,1.9 -2.6,1.8 z"
     id="path72"
     inkscape:connector-curvature="0"
     style="fill:#6d4c41" /><path
     class="st17"
     d="m 162.18076,448.9141 0.5,-1 c -0.3,0.3 -0.7,0.5 -1.2,0.5 0.5,-0.8 0.7,-1.2 0.9,-1.9 0,0 1.5,-0.8 2.3,0.3 0,0.1 0,0.2 0,0.2 0.4,2.2 -1.8,2 -2.5,1.9 z"
     id="path74"
     inkscape:connector-curvature="0"
     style="fill:#8d6e63" /><path
     class="st18"
     d="m 161.58076,448.4141 c 0,0 1.1,-0.4 1.3,-0.9 l -0.2,0.4 c 0.1,0 -0.5,0.6 -1.1,0.5 z"
     id="path76"
     inkscape:connector-curvature="0"
     style="fill:#6d4c41" /><path
     class="st18"
     d="m 162.18076,448.9141 c 0,0 2.4,-0.3 2.6,-1.8 0.3,2.1 -1.9,1.9 -2.6,1.8 z"
     id="path78"
     inkscape:connector-curvature="0"
     style="fill:#6d4c41" /><path
     class="st17"
     d="m 132.58076,459.7141 0.5,-1 c -0.3,0.3 -0.7,0.5 -1.2,0.5 0.5,-0.8 0.7,-1.2 0.9,-1.9 0,0 1.5,-0.1 2.3,0.3 0,0.1 0,0.2 0,0.2 0.3,2.2 -1.8,2 -2.5,1.9 z"
     id="path80"
     inkscape:connector-curvature="0"
     style="fill:#8d6e63" /><path
     class="st18"
     d="m 131.88076,459.2141 c 0,0 1.1,-0.4 1.3,-0.9 l -0.2,0.4 c 0.1,0 -0.4,0.6 -1.1,0.5 z"
     id="path82"
     inkscape:connector-curvature="0"
     style="fill:#6d4c41" /><path
     class="st18"
     d="m 132.58076,459.7141 c 0,0 2.4,-0.3 2.6,-1.8 0.2,2.1 -1.9,1.9 -2.6,1.8 z"
     id="path84"
     inkscape:connector-curvature="0"
     style="fill:#6d4c41" /><path
     class="st19"
     d="m 122.88076,436.3141 c 0,0 -0.6,-2 -1.4,-2.5 -0.9,-0.5 -3.3,-0.2 -3.3,0.4 0,0.6 1.4,3.1 4.3,2.7 z"
     id="path86"
     inkscape:connector-curvature="0"
     style="fill:#f4ead7" /><path
     class="st20"
     d="m 121.48076,435.1141 c -0.4,-0.4 -0.8,-0.8 -2.2,-0.8 -0.2,0 -0.3,0.2 -0.2,0.4 0.3,0.5 1,1.4 1.9,1.5 0.6,0.1 0.9,-0.7 0.5,-1.1 z"
     id="path88"
     inkscape:connector-curvature="0"
     style="fill:#dbd2c1" /><path
     class="st21"
     d="m 123.08076,434.6141 -1.1,1.3 c 0,0 -1.1,-0.8 -1.3,-2.2 0,-0.1 0,-0.3 0,-0.4 0,-0.3 0,-0.6 0.1,-0.9 0.1,-0.2 0.4,-0.3 0.5,-0.1 0.1,0.3 0.3,0.6 0.6,0.9 0.3,0.4 0.6,0.8 0.8,1 0.1,0.2 0.3,0.3 0.4,0.4 z"
     id="path90"
     inkscape:connector-curvature="0"
     style="fill:#a1887f" /><path
     class="st17"
     d="m 123.08076,434.6141 -1.1,1.3 c 0,0 -1.1,-0.8 -1.3,-2.2 0.1,0.2 0.9,2 2,0.6 0.1,0.1 0.3,0.2 0.4,0.3 z"
     id="path92"
     inkscape:connector-curvature="0"
     style="fill:#8d6e63" /><path
     class="st22"
     d="m 158.88076,433.0141 c -0.1,1 -0.1,1.8 0.2,2.1 0.4,0.6 0.4,1 0.2,2 -0.6,3.9 -0.1,3.8 -0.1,4.5 0,0.7 -0.3,1 0,2.1 0,0 -2.6,1 -2.3,-0.3 0.7,-2.9 0.3,-4.5 -0.1,-5.7 -0.7,-2.1 -2.2,-2.4 -3,-5.5 -0.6,-2.4 -0.7,-5.1 -0.7,-5.1 0.5,-3.1 3.6,-4.3 5.5,-3.9 0.1,0 0.1,0 0.2,0.1 0.9,0.3 1.4,1.8 1.4,1.8 v 0.1 c -0.2,0.9 -0.3,1.9 -0.5,3 -0.4,1.8 -0.6,3.5 -0.8,4.8 z"
     id="path94"
     inkscape:connector-curvature="0"
     style="fill:#c9c1b1" /><path
     class="st22"
     d="m 130.88076,443.3141 c 0,0 1.5,5.9 1.5,7.1 0,1.2 -0.3,1.5 0.4,2.5 0.6,1 0,4.5 0,4.5 0,0 0.7,1.1 2.3,0.3 -0.1,-0.8 0.3,-1.1 0.3,-1.8 0,-0.7 -0.6,-0.5 -0.4,-3 0.1,-1.1 0.6,-2.2 0,-3.1 -0.5,-0.7 0.2,-8.3 0.2,-8.3 -2,-0.5 -3.4,0.1 -4.3,1.8 z"
     id="path96"
     inkscape:connector-curvature="0"
     style="fill:#c9c1b1" /><path
     class="st23"
     d="m 159.38076,440.1141 c -0.4,0.1 -0.5,-0.5 -0.6,-1 -0.1,-0.5 -0.1,-1 -0.1,-1 l 0.9,-0.7 c 0,0 0.1,0.6 0.1,1.3 0.1,0.7 0,1.4 -0.3,1.4 z"
     id="path98"
     inkscape:connector-curvature="0"
     style="fill:#f4987f" /><path
     class="st23"
     d="m 158.18076,437.7141 c 0,0 -0.2,0.8 -0.4,1.5 -0.2,0.5 -0.5,0.9 -0.7,0.9 -0.3,-0.1 -0.3,-0.6 -0.2,-1.1 0.1,-0.5 0.3,-0.9 0.3,-0.9 z"
     id="path100"
     inkscape:connector-curvature="0"
     style="fill:#f4987f" /><path
     class="st23"
     d="m 156.68076,437.3141 c 0,0 -0.4,0.7 -0.8,1.2 -0.4,0.5 -0.8,0.8 -1,0.7 -0.3,-0.2 -0.1,-0.7 0.2,-1.2 0.2,-0.4 0.5,-0.7 0.5,-0.7 z"
     id="path102"
     inkscape:connector-curvature="0"
     style="fill:#f4987f" /><path
     class="st17"
     d="m 138.18076,462.8141 0.5,-1 c -0.3,0.3 -0.7,0.5 -1.2,0.5 0.5,-0.8 0.7,-1.2 0.9,-1.9 0,0 1.4,-0.7 2.3,0.3 0,0.1 0,0.2 0,0.2 0.4,2.2 -1.7,2 -2.5,1.9 z"
     id="path104"
     inkscape:connector-curvature="0"
     style="fill:#8d6e63" /><path
     class="st24"
     d="m 161.88076,436.0141 c -0.5,1.3 -1.1,2.1 -1.8,2.6 -2.8,2.1 -6.3,-1.7 -6.3,-1.7 -0.7,-2.4 1.7,-4.2 4.1,-4.8 2.7,-0.6 5.4,0.4 4,3.9 z"
     id="path106"
     inkscape:connector-curvature="0"
     style="fill:#ffab91" /><path
     class="st23"
     d="m 161.88076,436.0141 c -0.5,1.3 -1.1,2.1 -1.8,2.6 -0.6,-0.8 -1.3,-2.4 -4.1,-0.8 -1,0.6 2,-4.7 1.9,-5.7 2.7,-0.6 5.4,0.4 4,3.9 z"
     id="path108"
     inkscape:connector-curvature="0"
     style="fill:#f4987f" /><path
     class="st19"
     d="m 165.78076,428.3141 v 0 c 0,0.1 0,0.1 0,0 0,0.3 -0.1,0.4 -0.1,0.6 -0.6,2.1 -1.4,3.5 -2.2,4.4 0,0.1 -0.1,0.1 -0.1,0.2 -1.3,1.4 -2.7,1.6 -3.9,1.9 -0.7,0.2 -1.4,0.4 -1.8,0.9 -1.7,1.7 -8.5,8.4 -16.7,10.1 h -0.1 c -0.3,0.1 -0.6,0.1 -0.9,0.2 0,0 0,0.1 -0.2,0.3 -0.3,0.5 -1,1.6 -2.2,2.3 -0.1,0 -0.1,0.1 -0.2,0.1 v 0 c -0.6,0.3 -1.4,0.6 -2.3,0.6 -2.7,0 -3.4,-2.9 -5.8,-4.4 v 0 c -0.2,-0.1 -0.5,-0.3 -0.7,-0.4 v 0 0 c -0.3,-0.1 -0.6,-0.2 -1,-0.3 -0.1,0 -0.3,-0.1 -0.4,-0.1 -0.1,0 -0.3,0 -0.4,0 -0.4,0 -0.8,-0.1 -1.1,-0.3 -1.3,-0.6 -2,-2 -2.4,-3.5 -0.1,-0.2 -0.1,-0.4 -0.1,-0.7 -0.4,-2.5 0.6,-5.7 0.7,-6 v 0 c 0,0 2.9,-0.4 5.5,-2.2 0.4,-0.3 0.8,-0.6 1.1,-0.9 0.3,-0.3 0.5,-0.5 0.7,-0.8 1,-1.8 5.8,-4.1 10.6,-6 0.5,-0.2 1.1,-0.4 1.6,-0.6 1.4,-0.6 2.8,-1.1 4.1,-1.6 0.3,-0.1 0.6,-0.2 0.9,-0.4 3.2,-1.4 5.6,-3.8 7.3,-5.4 1.2,-1.1 2,-2 2.6,-2 1.6,-0.1 3.8,2 4.5,2 0.7,0 1.5,-0.2 1.9,1.5 0.1,0.2 0.1,0.5 0.2,0.9 0.2,0.8 0.5,1.9 0.7,3.1 0.1,0.4 0.2,0.9 0.2,1.3 0.2,1.6 0.3,3.6 0,5.2 z"
     id="path110"
     inkscape:connector-curvature="0"
     style="fill:#f4ead7" /><path
     class="st19"
     d="m 165.78076,428.3141 c 0,0 0,0.1 0,0 -0.2,1 -0.3,2 -0.5,3.1 -0.3,1.6 -0.5,3.4 -0.7,4.7 -0.1,1 -0.1,1.8 0.2,2.1 0.4,0.6 0.3,1 0.2,2 -0.6,3.9 -0.1,3.8 -0.1,4.5 0,0.7 -0.3,1 0,2.1 0,0 -2.6,1 -2.3,-0.3 0.7,-2.9 0.3,-4.5 -0.1,-5.7 -0.7,-2.1 -2.2,-2.4 -3,-5.5 -0.6,-2.4 -0.7,-5.1 -0.7,-5.1 0.1,-0.5 0.2,-1 0.5,-1.4 0.6,-1.1 1.5,-1.9 2.6,-2.3 0.9,-0.3 1.8,-0.4 2.5,-0.2 0.1,0 0.1,0 0.2,0.1 0.6,0.4 1.2,1.9 1.2,1.9 z"
     id="path112"
     inkscape:connector-curvature="0"
     style="fill:#f4ead7" /><path
     class="st19"
     d="m 140.78076,460.7141 v 0 c -0.1,0.1 -0.1,0.1 -0.2,0.1 -0.1,0 -0.1,0.1 -0.2,0.1 -0.5,0.2 -0.9,0.2 -1.2,0.1 v 0 c -0.5,-0.2 -0.7,-0.5 -0.7,-0.5 0,0 0.6,-3.4 0,-4.5 -0.6,-1 -0.4,-1.3 -0.4,-2.5 0,-0.6 -0.4,-2.5 -0.8,-4.2 -0.4,-1.5 -0.7,-2.9 -0.7,-2.9 0.5,-1.1 1.3,-1.7 2.3,-1.9 0.6,-0.1 1.2,0 1.9,0.2 0,0 -0.1,0.7 -0.1,1.7 -0.2,2.3 -0.3,6.1 0,6.5 0.6,0.9 0.1,1.9 0,3.1 -0.2,2.4 0.4,2.3 0.4,3 0,0.6 -0.4,0.9 -0.3,1.7 z"
     id="path114"
     inkscape:connector-curvature="0"
     style="fill:#f4ead7" /><path
     class="st19"
     d="m 129.28076,442.4141 c 0,1 -0.3,1.9 -0.9,2.6 -0.8,1 -1.9,1.7 -3.1,1.8 -1.1,0.2 -2.1,0.6 -2.9,1.1 v 0 c -0.6,0.4 -1,0.7 -1.3,0.9 -0.5,0.4 -2.8,-2.1 -3.3,-3.8 0.8,-1 1.1,-1.7 1.4,-2.3 0.2,-0.3 0.3,-0.7 0.5,-1.1 0.8,-1.7 1.1,-3.1 1.6,-4.5 0.1,-0.1 0.1,-0.3 0.2,-0.5 0.2,-0.6 0.5,-1.2 0.9,-1.8 0.3,-0.6 0.7,-0.8 1.2,-0.9 2.1,-0.3 5,5.1 5.6,7.7 0.1,0.4 0.1,0.6 0.1,0.8 z"
     id="path116"
     inkscape:connector-curvature="0"
     style="fill:#f4ead7" /><path
     class="st25"
     d="m 145.28076,435.2141 c -0.2,1.4 1.3,2.2 1,3.6 -0.4,2 -2.5,2 -4.1,2 -2.1,0 -3,1.1 -4.5,2.4 -0.9,0.8 -2.4,2 -3.7,1.8 -1.1,-0.2 -2.1,-0.9 -3,-1.6 -0.6,-0.4 -1.2,-1 -1.9,-0.9 -0.8,0.1 -1.6,0.5 -2.3,1 -0.8,0.6 -1.8,1.2 -2.7,1.7 -0.5,0.3 -1.5,0.8 -2.1,0.3 -0.3,-0.3 -0.4,-0.9 -0.5,-1.2 -0.1,-0.5 -0.2,-0.9 -0.2,-1.4 0.1,-1.3 0.7,-3 1.9,-3.8 0.8,-0.6 1.8,-0.8 2.9,-0.7 0.5,0.1 1,0.2 1.6,0.2 1.3,0 2.2,-0.6 3.4,-1 0.9,-0.3 1.9,-0.6 1.6,-1.8 -0.1,-0.7 -0.7,-1 -0.5,-1.8 0.2,-0.6 0.9,-1.2 0.9,-1.9 0,-1.1 -1.8,-1.3 -2.5,-1.2 h -0.1 c 0.3,-0.3 0.5,-0.5 0.7,-0.8 1,-1.8 5.8,-4.1 10.6,-6 0.3,0.9 0.6,1.6 1.1,2.3 0.3,0.4 0.8,0.8 1.3,1.2 0.5,0.3 1,0.5 1.4,0.8 1,0.6 1.9,2.4 1.7,3.6 -0.4,1.3 -1.8,2 -2,3.2 z"
     id="path118"
     inkscape:connector-curvature="0"
     style="fill:#7c4738" /><path
     class="st24"
     d="m 121.28076,448.6141 c -0.3,0.5 -1.2,1.6 -3.1,0.5 -1.9,-1.1 -1.5,-3.4 -0.4,-4 0.7,-0.4 0.5,0.4 1.4,1 0.3,0.2 1.5,0.1 1.8,0.3 0.6,0.6 0.7,1.7 0.3,2.2 z"
     id="path120"
     inkscape:connector-curvature="0"
     style="fill:#ffab91" /><path
     class="st25"
     d="m 161.58076,426.7141 c -0.1,1 -0.6,2 -1.7,2.6 -0.3,0.2 -0.7,0.2 -1.1,0.3 -0.3,0 -0.7,0.1 -1,0.2 -0.9,0.5 -1.1,1.4 -1.6,2.1 -0.9,1 -2.3,1.1 -3.3,-0.1 -0.9,-1.1 0.5,-3.3 1,-4.7 0.4,-1.4 0.5,-3 -0.7,-4.1 -1.6,-1.4 -4.2,0.1 -5.1,-1.5 3.2,-1.4 5.6,-3.8 7.3,-5.4 0.3,0.4 0.6,0.8 1,1.1 0.5,0.4 1.5,0.5 2,1 0.6,0.6 0.6,1.4 0.7,2.2 0.2,1.6 0.4,1.7 1.5,2.9 0.8,1 1.2,2.2 1,3.4 z"
     id="path122"
     inkscape:connector-curvature="0"
     style="fill:#7c4738" /><path
     class="st25"
     d="m 165.78076,428.3141 v 0 c 0,0.1 0,0.1 0,0 -0.2,1 -0.3,2 -0.5,3.1 -0.2,0.6 -0.4,1.2 -0.6,1.8 -0.1,0.3 -0.1,0.9 -0.6,0.8 -0.3,-0.1 -0.5,-0.5 -0.7,-0.8 -0.3,-0.5 -0.6,-1 -0.8,-1.5 -0.3,-0.8 -0.2,-1.6 0.3,-2.3 0.5,-0.7 1.5,-1.3 1.5,-2.2 0,-0.3 0,-0.6 0,-0.8 -0.2,-1.1 -0.8,-2.1 -0.9,-3.2 -0.1,-0.8 -0.2,-1.6 0.4,-2.2 0.5,-0.5 1.2,-0.3 1.5,0.3 0,0.1 0.1,0.1 0.1,0.2 0.1,0.4 0.2,0.9 0.2,1.3 0.3,1.9 0.4,3.9 0.1,5.5 z"
     id="path124"
     inkscape:connector-curvature="0"
     style="fill:#7c4738" /><g
     id="g128"
     transform="translate(-136.41924,10.114095)"><path
       class="st26"
       d="m 302.2,418.2 v 0 c 0,0.1 0,0.1 0,0 -0.2,1 -0.3,2 -0.5,3.1 -0.3,1.6 -0.5,3.4 -0.7,4.7 -0.1,1 -0.1,1.8 0.2,2.1 0.4,0.6 0.3,1 0.2,2 -0.6,3.9 -0.1,3.8 -0.1,4.5 0,0.7 -0.3,1 0,2.1 0,0 -2.6,1 -2.3,-0.3 0.7,-2.9 0.3,-4.5 -0.1,-5.7 -0.7,-2.1 -2.2,-2.4 -3,-5.5 -0.7,0.2 -1.4,0.4 -1.8,0.9 -1.7,1.7 -8.5,8.4 -16.7,10.1 h -0.1 c -0.2,2.3 -0.3,6.1 0,6.5 0.6,0.9 0.1,1.9 0,3.1 -0.2,2.4 0.4,2.3 0.4,3 0,0.6 -0.4,1 -0.3,1.7 v 0 c -0.1,0 -0.1,0.1 -0.2,0.1 -0.1,0 -0.1,0.1 -0.2,0.1 -0.5,0.2 -0.9,0.2 -1.2,0.1 0.5,0.1 1.2,-0.6 1.2,-1.2 0.1,-0.8 -0.4,-1.5 -0.4,-2.3 -0.1,-1.2 0.7,-2.3 0.7,-3.4 0,-1 -0.5,-1.9 -0.7,-2.8 -0.2,-1.1 0,-2.3 -0.1,-3.4 0,-0.3 -0.1,-0.6 -0.2,-0.9 -0.2,-0.8 -0.5,-1.6 -0.8,-2.4 -0.3,-1 -0.4,-1.9 0,-3 0.7,-1.7 2.1,-1.6 3.8,-1.6 1.6,0 3.2,0 4.8,-0.3 1.6,-0.3 2.9,-1.8 4,-2.9 1.1,-1 1.9,-1.8 2.6,-3.2 0.7,-1.3 1.3,-2.6 1.7,-4 0.3,-1.2 0.4,-4.4 2.3,-2.9 0.5,0.4 0.7,1.2 0.9,1.8 0,0.1 0.1,0.3 0.2,0.5 0.3,0.9 0.8,2.2 1.5,2.2 0.6,0 0.9,-0.7 1.1,-1.2 0.3,-1 0.2,-2.2 0,-3.3 0,-0.1 -0.1,-0.3 -0.1,-0.4 -0.3,-1.2 -1.5,-2.5 -1.1,-3.8 0.1,-0.4 0.4,-0.8 0.7,-1.2 0.6,-0.7 1.3,-0.8 2,-1.3 0.5,-0.4 0.8,-1.2 1.4,-1.5 0.1,0 0.1,0 0.2,0 0.2,0.8 0.5,1.9 0.7,3.1 0.1,0.4 0.2,0.9 0.2,1.3 0,1.9 0.1,3.9 -0.2,5.5 z"
       id="path126"
       inkscape:connector-curvature="0"
       style="fill:#eeeeee" /></g><g
     id="g132"
     transform="translate(-136.41924,10.114095)"><path
       class="st26"
       d="m 273,436.3 c 0,0.1 0.8,2.8 0.7,2.9 -0.6,0.3 -1.4,0.6 -2.3,0.6 -2.7,0 -3.4,-2.9 -5.8,-4.4 v 0 c -0.2,-0.1 -0.5,-0.3 -0.7,-0.4 v 0 c -0.8,1 -1.9,1.7 -3.1,1.8 -1.1,0.2 -2.1,0.6 -2.9,1.1 0.6,-0.6 1.6,-0.8 2.4,-1.2 1.2,-0.6 2,-0.7 2.6,-2 1.1,-2.4 2.1,-2.2 4,-1.6 0.8,0.2 1.5,0.3 2.3,0.2 0.4,-0.1 0.8,-0.1 1.1,-0.1 0.8,0 1.2,0.7 1.5,1.4 0.1,0.3 0.2,0.7 0.2,1 0,0 0,0.1 0,0.7 z"
       id="path130"
       inkscape:connector-curvature="0"
       style="fill:#eeeeee" /></g><path
     class="st25"
     d="m 149.78076,433.3141 c -0.2,-0.1 -0.5,-0.2 -0.7,-0.3 -0.4,-0.1 -0.8,0 -1.1,0.2 -0.7,0.5 -0.9,1.5 -0.7,2.2 0.2,0.7 1,1 1.4,1.5 0.4,0.6 0.3,1.4 1.2,1.6 0.9,0.2 1.5,-1 1.4,-1.7 0,-0.4 -0.3,-0.8 -0.1,-1.2 0.2,-0.4 0.5,-0.7 0.7,-1.1 0.2,-0.6 -0.1,-1.1 -0.7,-1.2 -0.3,-0.1 -0.6,0 -0.9,0 -0.2,0.1 -0.4,0 -0.5,0 z"
     id="path134"
     inkscape:connector-curvature="0"
     style="fill:#7c4738" /><path
     class="st25"
     d="m 146.78076,425.3141 c -0.1,1.6 1.5,1.1 2.4,1.6 0.3,0.2 0.6,0.5 0.7,0.8 0.2,0.4 0.1,0.8 0.3,1.1 0.1,0.2 0.4,0.4 0.7,0.4 1.6,-0.2 3,-4 1.4,-4.8 -1.1,-0.5 -2.2,0.3 -3.2,0.3 -0.6,-0.1 -2.3,-1.2 -2.3,0.6 z"
     id="path136"
     inkscape:connector-curvature="0"
     style="fill:#7c4738" /><path
     class="st21"
     d="m 129.78076,435.7141 c 0,0.3 -0.1,0.7 -0.3,1 v 0 c -0.3,0.4 -0.8,0.8 -1.7,1.1 -0.5,0.2 -1,-0.4 -1,-0.9 0,-0.3 0.1,-0.5 0.4,-0.6 0,0 0,0 0.1,0 0.8,-0.2 1.7,-0.5 2.1,-1.2 0.1,-0.2 0.4,-0.2 0.4,0 -0.1,0.2 0,0.4 0,0.6 z"
     id="path138"
     inkscape:connector-curvature="0"
     style="fill:#a1887f" /><path
     class="st27"
     d="m 127.78076,439.6141 c 0,-0.3 0.2,-0.6 0.5,-0.7 0.8,-0.1 2.3,-0.2 2.9,0.2 0.8,0.4 1.3,1.9 1.4,2.4 0,0.1 0,0.2 -0.1,0.3 -0.4,0.3 -1.8,1.2 -3.8,-0.4 -0.5,-0.4 -0.8,-1 -0.9,-1.8 z"
     id="path140"
     inkscape:connector-curvature="0"
     style="fill:#703e33" /><path
     class="st25"
     d="m 121.28076,439.9141 c 0,0.1 -0.1,0.2 -0.1,0.3 -0.2,0.6 -0.6,1 -1,1.5 -0.3,0.4 -0.6,0.8 -0.9,1.1 0,0 0,0 -0.1,0 0.2,-0.3 0.3,-0.7 0.5,-1.1 0.8,-1.7 1.1,-3.1 1.6,-4.5 0.3,0.8 0.2,1.8 0,2.7 z"
     id="path142"
     inkscape:connector-curvature="0"
     style="fill:#7c4738" /><path
     class="st28"
     d="m 168.18076,428.6141 c -1.8,2.4 -4.4,0.9 -8.6,2.5 -0.9,0.1 -0.4,-0.5 -0.3,-0.9 0.5,-0.2 1,-0.3 1.4,-0.4 3.7,-0.9 4.9,0.1 6.6,-1.6 1.1,-1.1 0.6,-2.8 -0.4,-4.4 -0.4,-0.6 -0.9,-1.2 -1.4,-1.7 l -0.5,-2.6 v 0 c 0.4,0.4 0.8,0.8 1.1,1.2 3.6,3.8 3.4,6.3 2.1,7.9 z"
     id="path144"
     inkscape:connector-curvature="0"
     style="fill:#ebe1cf" /><path
     class="st29"
     d="m 118.98076,447.7141 c -0.4,-0.6 0.8,-0.1 1.2,-0.3 0.8,-0.4 0.1,1.9 -1.2,0.3 z"
     id="path146"
     inkscape:connector-curvature="0"
     style="fill:#ff8a65" /><path
     class="st29"
     d="m 117.98076,447.2141 c 0.7,-0.1 -0.2,-0.6 -0.3,-1.1 -0.2,-0.9 -1.2,1.3 0.3,1.1 z"
     id="path148"
     inkscape:connector-curvature="0"
     style="fill:#ff8a65" /><path
     class="st30"
     d="m 125.58076,441.4141 c 0,0 -0.2,0.7 -0.6,0.7 -0.4,0 -0.5,-0.2 -0.8,-0.1 0.1,-0.1 0.1,-0.2 0.2,-0.4 0.1,-0.3 0.2,-0.5 0.5,-0.7 0.4,0.1 0.6,0.3 0.7,0.5 z"
     id="path150"
     inkscape:connector-curvature="0"
     style="fill:#602f28" /><path
     class="st31"
     d="m 125.48076,441.4141 c -0.1,0.4 -0.4,0.7 -0.7,0.7 -0.2,0 -0.4,-0.1 -0.5,-0.3 0.1,-0.3 0.2,-0.5 0.5,-0.7 0.5,-0.1 0.7,0.1 0.7,0.3 z"
     id="path152"
     inkscape:connector-curvature="0"
     style="fill:#3e2723" /><circle
     class="st32"
     cx="125.08076"
     cy="441.41409"
     r="0.1"
     id="circle154"
     style="fill:#ffffff" /><path
     class="st30"
     d="m 159.68076,430.1141 c -2.3,0.5 -2.6,1.7 -4,2.6 -0.2,0.1 0.4,0.1 1,-0.5 -0.7,1 -1.3,1.1 -1.3,1.1 -0.5,0.2 0,0.1 0.6,0 -0.2,0.2 -0.5,0.4 -0.5,0.4 0.4,-0.1 0.5,-0.2 0.7,-0.3 -0.5,0.4 -1,0.7 -1.8,0.7 -0.5,0 1.7,0.4 2.5,-1.1 -0.3,0.6 -0.6,1.2 -1.2,1.4 v 0.1 c 0.5,-0.1 0.9,-0.4 1.2,-0.7 -0.1,0.1 -0.1,0.3 -0.2,0.4 0,0.1 0,0.1 0.1,0.1 0.7,-0.6 0.9,-1.6 1.7,-2.5 -0.3,0.5 -0.5,1.1 -0.7,1.6 0,0.1 0.1,0.1 0.1,0.1 0.5,-0.9 0.8,-1.9 2,-2.4 0,0 -0.4,0 -0.3,-0.2 0.1,-0.1 0.7,-0.4 0.6,-0.5 0,-0.1 -0.9,0.2 -1,0.2 -0.1,-0.1 0.5,-0.5 0.5,-0.5 z"
     id="path156"
     inkscape:connector-curvature="0"
     style="fill:#602f28" /><path
     class="st17"
     d="m 129.38076,436.7141 c -0.3,0.4 -0.8,0.8 -1.7,1.1 -0.5,0.2 -1,-0.4 -1,-0.9 0.4,0.7 1.6,0.8 2.7,-0.2 z"
     id="path158"
     inkscape:connector-curvature="0"
     style="fill:#8d6e63" /><path
     class="st30"
     d="m 129.18076,439.9141 c 1,0.4 1.7,-0.4 2.8,1.3 0.1,0.1 0,0.3 -0.1,0.4 -0.7,0.2 -2.5,0.6 -3.2,-1.1 -0.2,-0.4 0.2,-0.8 0.5,-0.6 z"
     id="path160"
     inkscape:connector-curvature="0"
     style="fill:#602f28" /><path
     class="st18"
     d="m 137.58076,462.3141 c 0,0 1.1,-0.4 1.3,-0.9 l -0.2,0.4 c 0.1,0 -0.5,0.6 -1.1,0.5 z"
     id="path162"
     inkscape:connector-curvature="0"
     style="fill:#6d4c41" /><path
     class="st18"
     d="m 138.18076,462.8141 c 0,0 2.4,-0.3 2.6,-1.8 0.3,2.1 -1.8,1.9 -2.6,1.8 z"
     id="path164"
     inkscape:connector-curvature="0"
     style="fill:#6d4c41" /><path
     class="st20"
     d="m 159.38076,435.4141 c -0.7,0.2 -1.4,0.4 -1.8,0.9 -1.7,1.7 -8.5,8.4 -16.7,10.1 v -2.4 c 0,0 8.2,1.4 16.1,-9.1 0.6,-1 2,-0.7 2.4,0.5 0,-0.1 0,-0.1 0,0 z"
     id="path166"
     inkscape:connector-curvature="0"
     style="fill:#dbd2c1" /><path
     class="st20"
     d="M 128.38076,445.0141 Z"
     id="path168"
     inkscape:connector-curvature="0"
     style="fill:#dbd2c1" /><path
     class="st20"
     d="m 137.28076,449.2141 v 0 c 0,0.1 0,0.1 0,0 -0.6,0.3 -1.4,0.6 -2.3,0.6 -2.7,0 -3.4,-2.9 -5.8,-4.4 1.8,0.9 6,2.7 7.4,1 z"
     id="path170"
     inkscape:connector-curvature="0"
     style="fill:#dbd2c1" /><path
     class="st33"
     d="m 167.98076,427.9141 c -1.3,2.7 -4.1,1.4 -7.3,1.9 3.7,-0.9 4.9,0.1 6.6,-1.6 1.1,-1.1 0.6,-2.8 -0.4,-4.4 -0.4,-0.6 -0.9,-1.2 -1.4,-1.7 l -0.5,-2.6 v 0 c 0.5,0.5 4.4,5.5 3,8.4 z"
     id="path172"
     inkscape:connector-curvature="0"
     style="fill:#e0e0e0" /><polygon
     class="st4"
     points="284.6,451 280.3,465.4 262.8,457.5 265.6,439.3 "
     id="polygon174"
     style="fill:#f1e8cd"
     transform="translate(-136.41924,10.114095)" /><polygon
     class="st1"
     points="266.5,436.8 262.9,438 286.7,452.1 282.7,446.4 "
     id="polygon176"
     style="fill:#e1dbc1"
     transform="translate(-136.41924,10.114095)" /><polygon
     class="st9"
     points="305.8,385.1 306.4,385.2 301.2,445.2 300.7,445.1 "
     id="polygon178"
     style="fill:#80828a"
     transform="translate(-136.41924,10.114095)" /><rect
     x="150.88075"
     y="397.71411"
     class="st9"
     width="0.60000002"
     height="65.099998"
     id="rect180"
     style="fill:#80828a" /><polygon
     class="st9"
     points="271.4,385.5 277,444.5 276.6,444.6 271,385.6 "
     id="polygon182"
     style="fill:#80828a"
     transform="translate(-136.41924,10.114095)" /></svg>