<?xml version="1.0" encoding="UTF-8" standalone="no"?>
<!-- Generator: Adobe Illustrator 21.1.0, SVG Export Plug-In . SVG Version: 6.00 Build 0)  -->

<svg
   xmlns:dc="http://purl.org/dc/elements/1.1/"
   xmlns:cc="http://creativecommons.org/ns#"
   xmlns:rdf="http://www.w3.org/1999/02/22-rdf-syntax-ns#"
   xmlns:svg="http://www.w3.org/2000/svg"
   xmlns="http://www.w3.org/2000/svg"
   xmlns:xlink="http://www.w3.org/1999/xlink"
   xmlns:sodipodi="http://sodipodi.sourceforge.net/DTD/sodipodi-0.dtd"
   xmlns:inkscape="http://www.inkscape.org/namespaces/inkscape"
   version="1.1"
   id="Layer_1"
   x="0px"
   y="0px"
   viewBox="0 0 302.23904 484.71408"
   xml:space="preserve"
   sodipodi:docname="hotairballoon_wshadow.svg"
   width="302.23904"
   height="484.71408"
   inkscape:version="0.92.2 (5c3e80d, 2017-08-06)"><metadata
     id="metadata211"><rdf:RDF><cc:Work
         rdf:about=""><dc:format>image/svg+xml</dc:format><dc:type
           rdf:resource="http://purl.org/dc/dcmitype/StillImage" /><dc:title>Artboard 1</dc:title></cc:Work></rdf:RDF></metadata><defs
     id="defs209" /><sodipodi:namedview
     pagecolor="#ffffff"
     bordercolor="#666666"
     borderopacity="1"
     objecttolerance="10"
     gridtolerance="10"
     guidetolerance="10"
     inkscape:pageopacity="0"
     inkscape:pageshadow="2"
     inkscape:window-width="640"
     inkscape:window-height="480"
     id="namedview207"
     showgrid="false"
     fit-margin-top="0"
     fit-margin-left="0"
     fit-margin-right="0"
     fit-margin-bottom="0"
     inkscape:zoom="0.40972222"
     inkscape:cx="98.580763"
     inkscape:cy="232.58056"
     inkscape:window-x="0"
     inkscape:window-y="0"
     inkscape:window-maximized="0"
     inkscape:current-layer="Layer_1" /><style
     type="text/css"
     id="style2">
	.st0{opacity:0.2;}
	.st1{clip-path:url(#SVGID_2_);}
	.st2{fill:#2B2424;}
	.st3{fill:#B3AD99;}
	.st4{fill:#E1DBC1;}
	.st5{fill:#D1AE40;}
	.st6{fill:#AA8F35;}
	.st7{fill:#F1E8CD;}
	.st8{fill:#EDCC5F;}
	.st9{fill:#C4BDA6;}
	.st10{fill:#D9D9CE;}
	.st11{fill:#8AB8BC;}
	.st12{fill:#80828A;}
	.st13{fill:#59A7C1;}
	.st14{fill:#71ACBC;}
	.st15{fill:#80ADB7;}
	.st16{fill:#69A8B7;}
	.st17{opacity:0.1;}
	.st18{fill:#E2F4FD;}
	.st19{fill:none;stroke:#EDCC5F;stroke-width:4;stroke-miterlimit:10;}
	.st20{fill:#8D6E63;}
	.st21{fill:#6D4C41;}
	.st22{fill:#F4EAD7;}
	.st23{fill:#DBD2C1;}
	.st24{fill:#A1887F;}
	.st25{fill:#C9C1B1;}
	.st26{fill:#F4987F;}
	.st27{fill:#FFAB91;}
	.st28{fill:#7C4738;}
	.st29{fill:#EEEEEE;}
	.st30{fill:#703E33;}
	.st31{fill:#EBE1CF;}
	.st32{fill:#FF8A65;}
	.st33{fill:#602F28;}
	.st34{fill:#3E2723;}
	.st35{fill:#FFFFFF;}
	.st36{fill:#E0E0E0;}
</style><title
     id="title4">Artboard 1</title><g
     class="st0"
     id="g24"
     style="opacity:0.2"
     transform="translate(-189.41924,-35.866483)"><g
       id="g22"><g
         id="g20"><g
           id="g18"><g
             id="g16"><defs
               id="defs7"><polygon
                 id="SVGID_1_"
                 points="395.2,492.2 351,524.7 275.6,515.5 319.8,482.9 " /></defs><clipPath
               id="SVGID_2_"><use
                 xlink:href="#SVGID_1_"
                 style="overflow:visible"
                 id="use9"
                 x="0"
                 y="0"
                 width="100%"
                 height="100%" /></clipPath><g
               class="st1"
               clip-path="url(#SVGID_2_)"
               id="g14"><path
                 class="st2"
                 d="m 357.6,487.6 c -1.3,-0.2 -2.7,-0.3 -4.2,-0.4 -4.6,-0.4 -9.1,-0.5 -13.7,-0.3 -3.2,0.1 -6.5,0.3 -9.6,0.7 -2.5,0.3 -4.8,0.6 -7.1,1 -3.8,0.7 -7.6,1.6 -11.3,2.8 v 0 l -0.5,0.2 -0.4,0.1 v 0 c -0.6,0.2 -1.1,0.4 -1.7,0.6 H 309 l -0.7,0.3 -0.5,0.2 h -0.1 c -1.7,0.7 -3.2,1.6 -4.7,2.6 l -0.5,0.4 c -0.6,0.5 -1.2,1 -1.7,1.6 -1.1,1.1 -1.7,2.6 -1.8,4.2 0.1,2.3 1,4.4 2.6,6 l 0.1,0.2 1.6,2.5 0.2,0.3 1.1,1.8 1.1,1.8 -2.3,1.7 c -1.9,1.4 2.5,3.3 9.9,4.2 7.4,0.9 14.9,0.5 16.8,-0.9 l 2.3,-1.7 4.8,-1 5,-1.1 7.5,-1.6 0.7,-0.2 c 3.7,-0.6 7.4,-1.4 10.8,-2.2 4.6,-1 9,-2.5 13.3,-4.4 1.2,-0.5 2.3,-1.2 3.3,-1.9 l 0.4,-0.3 c 2,-1.6 3.1,-3.2 3.4,-4.7 0.2,-0.9 0,-1.9 -0.4,-2.8 -1.1,-2 -2.8,-3.5 -4.8,-4.5 -0.7,-0.4 -1.4,-0.7 -2.1,-1 -2.6,-1.1 -5.3,-2 -8.1,-2.6 -1,-0.2 -2.1,-0.5 -3.2,-0.7 -0.6,-0.1 -1.3,-0.2 -2,-0.4 -1,-0.3 -2.2,-0.5 -3.4,-0.5"
                 id="path12"
                 inkscape:connector-curvature="0"
                 style="fill:#2b2424" /></g></g></g></g></g></g><polygon
     class="st3"
     points="378.3,453.9 340.6,475.6 340.6,453.9 378.3,432.2 "
     id="polygon26"
     style="fill:#b3ad99"
     transform="translate(-189.41924,-35.866483)" /><polygon
     class="st4"
     points="378.3,432.4 340.6,454.3 303.2,432.4 340.6,410.6 "
     id="polygon28"
     style="fill:#e1dbc1"
     transform="translate(-189.41924,-35.866483)" /><polygon
     class="st5"
     points="340.6,414 309.2,432.1 324.9,441.2 340.6,432.2 356.4,441.2 372.2,432.1 "
     id="polygon30"
     style="fill:#d1ae40"
     transform="translate(-189.41924,-35.866483)" /><polygon
     class="st6"
     points="324.9,441.2 340.6,450.3 356.4,441.2 340.6,432.2 "
     id="polygon32"
     style="fill:#aa8f35"
     transform="translate(-189.41924,-35.866483)" /><polygon
     class="st7"
     points="340.6,454.1 340.6,475.8 303.2,454.1 303.2,432.4 "
     id="polygon34"
     style="fill:#f1e8cd"
     transform="translate(-189.41924,-35.866483)" /><path
     class="st8"
     d="m 114.88076,406.13352 c -0.7,2 -2.8,3 -4.7,2.4 -2,-0.7 -3,-2.8 -2.4,-4.7 v 0 c 0.7,-2 6.4,-7.3 6.4,-7.3 0,0 1.4,7.6 0.7,9.6 z"
     id="path36"
     inkscape:connector-curvature="0"
     style="fill:#edcc5f" /><path
     class="st8"
     d="m 188.18076,406.13352 c 0.7,2 2.8,3 4.8,2.3 2,-0.7 3,-2.8 2.4,-4.7 -0.7,-2 -6.4,-7.3 -6.4,-7.3 0,0 -1.5,7.7 -0.8,9.7 z"
     id="path38"
     inkscape:connector-curvature="0"
     style="fill:#edcc5f" /><path
     class="st8"
     d="m 154.08076,427.23352 c -0.3,2.1 -2.2,3.5 -4.2,3.2 -2.1,-0.3 -3.5,-2.2 -3.2,-4.2 0.3,-2.1 4.9,-8.4 4.9,-8.4 0,0 2.8,7.3 2.5,9.4 z"
     id="path40"
     inkscape:connector-curvature="0"
     style="fill:#edcc5f" /><polygon
     class="st9"
     points="353.7,453.9 357.3,451.3 357.3,457.5 353.7,460.2 "
     id="polygon42"
     style="fill:#c4bda6"
     transform="translate(-189.41924,-35.866483)" /><polygon
     class="st9"
     points="361.9,449.5 365.5,446.9 365.5,453.1 361.9,455.7 "
     id="polygon44"
     style="fill:#c4bda6"
     transform="translate(-189.41924,-35.866483)" /><path
     class="st10"
     d="m 84.680763,298.73352 1.8,2.4 c -0.3,-0.8 -0.6,-1.5 -0.9,-2.3 z"
     id="path46"
     inkscape:connector-curvature="0"
     style="fill:#d9d9ce" /><ellipse
     class="st11"
     cx="151.18077"
     cy="328.03351"
     rx="44.400002"
     ry="24.9"
     id="ellipse48"
     style="fill:#8ab8bc" /><rect
     x="106.78078"
     y="312.83353"
     class="st11"
     width="88.699997"
     height="16.200001"
     id="rect50"
     style="fill:#8ab8bc" /><polygon
     class="st12"
     points="303.9,432.3 303.3,432.3 296.7,365.8 297.3,365.7 "
     id="polygon52"
     style="fill:#80828a"
     transform="translate(-189.41924,-35.866483)" /><path
     class="st13"
     d="m 117.88076,328.43352 c -55.799997,-25.8 -105.299997,-140.1 -105.299997,-140.1 -38,-114.400003 22.2,-137.800003 22.2,-137.800003 H 267.28076 c 0,0 60.2,23.3 22.3,137.800003 0,0 -49.5,114.2 -105.3,140 z"
     id="path54"
     inkscape:connector-curvature="0"
     style="fill:#59a7c1" /><path
     class="st14"
     d="m 90.080763,18.333517 c 0,0 -96.7999996,-2.9 -58.1,162.900003 0,0 20.5,78.1 92.399997,150.7 h 53.3 c 71.8,-72.6 92.4,-150.7 92.4,-150.7 38.7,-165.800003 -57.8,-163.300003 -57.8,-163.300003 l -123.199997,0.2"
     id="path56"
     inkscape:connector-curvature="0"
     style="fill:#71acbc" /><path
     class="st15"
     d="m 131.98076,333.13352 c 0,0 -96.399997,-142.2 -75.399997,-244.100003 21,-101.9 74.299997,-80.4000001 74.299997,-80.4000001 l 41.2,0.1 c 0,0 52.7,-21.7999999 73.6,80.2000001 20.9,102.000003 -75.4,244.200003 -75.4,244.200003 z"
     id="path58"
     inkscape:connector-curvature="0"
     style="fill:#80adb7" /><path
     class="st16"
     d="m 170.58076,333.73352 h -38.9 l -0.2,-0.3 c -17.4,-26.7 -32.599997,-54.8 -45.599997,-83.9 -19.6,-44.1 -40.8,-107.8 -29.9,-160.600003 14.8,-72 45.799997,-82.8000001 62.999997,-82.8000001 4.1,-0.1 8.1,0.6 12,1.9 l 41,0.1 c 3.9,-1.4 7.9,-2 12,-2 16.9,0 47.5,10.7000001 62.3,82.6000001 10.8,52.800003 -10.3,116.500003 -29.9,160.700003 -13,29.2 -28.2,57.2 -45.6,84 z m -38.3,-1.2 h 37.7 c 17.3,-26.6 32.4,-54.6 45.4,-83.5 19.6,-44 40.6,-107.4 29.8,-159.900003 -14.6,-71 -44.6,-81.6000001 -61.1,-81.6000001 -4,-0.1 -7.9,0.6 -11.7,1.9 h -0.2 l -41.4,-0.1 h -0.2 c -3.8,-1.3 -7.7,-1.9 -11.7,-1.9 -16.8,0 -47.199997,10.6000001 -61.799997,81.8000001 -10.8,52.500003 10.3,116.000003 29.8,159.900003 13,28.9 28.099997,56.8 45.399997,83.4 z"
     id="path60"
     inkscape:connector-curvature="0"
     style="fill:#69a8b7" /><path
     class="st11"
     d="m 151.28076,0.0335169 c -4.6,-0.2 -52.299997,1.1 -43.3,130.7000031 9.5,136 43.6,204.6 43.6,204.6 v 1.6 c 0,0 33.3,-70.2 42.8,-206.2 9.6,-135.1000031 -42.3,-130.8000031 -43.1,-130.7000031 z"
     id="path62"
     inkscape:connector-curvature="0"
     style="fill:#8ab8bc" /><rect
     x="-375.9913"
     y="226.39957"
     transform="rotate(-84.389827)"
     class="st12"
     width="67.599312"
     height="0.59999394"
     id="rect64"
     style="fill:#80828a;stroke-width:0.99998987" /><polygon
     class="st12"
     points="372.4,380.9 367.7,438.4 367.1,438.4 371.8,380.8 "
     id="polygon66"
     style="fill:#80828a"
     transform="translate(-189.41924,-35.866483)" /><polygon
     class="st12"
     points="316,439.4 315.4,439.5 309.3,380.9 309.8,380.8 "
     id="polygon68"
     style="fill:#80828a"
     transform="translate(-189.41924,-35.866483)" /><path
     class="st8"
     d="m 106.98076,321.13352 c 2,8.8 21.2,15.6 44.6,15.6 22.8,0 41.6,-6.5 44.4,-15 -26.2,12.6 -65.7,14.3 -89,-0.6 z"
     id="path70"
     inkscape:connector-curvature="0"
     style="fill:#edcc5f" /><g
     class="st17"
     id="g74"
     style="opacity:0.1"
     transform="translate(-189.41924,-35.866483)"><path
       class="st18"
       d="M 456.8,87.7 H 456 c -19.4,-35 -54.2,-35 -54.2,-35 h -0.1 C 382,36 362.6,43.8 361.6,44.2 351.2,34.4 341.2,36.1 340.8,36.1 338.9,36 329.8,36 320.3,46 v 0 c 0,0 -20.2,-10 -40.6,6.7 h -1.1 l 1,0.4 c 0,0 -34.8,-0.4 -54.3,34.6 h -0.9 c 0,0 -40.3,16 -34.2,86.2 52.8,-12.2 113.6,-15.2 150.9,17.8 43.5,38.5 100.3,35.6 141.5,26.2 C 513.1,109.7 456.8,87.7 456.8,87.7 Z"
       id="path72"
       inkscape:connector-curvature="0"
       style="fill:#e2f4fd" /></g><polygon
     class="st19"
     points="297.3,256.1 297.2,220.8 315.9,210.1 316.4,245.7 335.1,235.2 335.2,132.8 316.3,143.2 316.4,187.2 297.5,198.2 297.1,154.4 278.4,166.5 278.1,266.6 "
     id="polygon76"
     style="fill:none;stroke:#edcc5f;stroke-width:4;stroke-miterlimit:10"
     transform="translate(-189.41924,-35.866483)" /><path
     class="st19"
     d="m 88.980763,130.63352 41.399997,23.9 c 0,0 33.2,15.2 42.5,48.4 0,0 10.4,33.9 -6.2,51.5 0,0 -13.5,15.6 -32.8,3.5 l -46.299997,-25.9 19.599997,-12.2 48.9,28 c 0,0 22.8,11.2 36.3,-15.8 0,0 11,-28.8 -7.3,-57.1 0,0 -7.9,-15 -52.1,-40.9 l -24.6,-16.8"
     id="path78"
     inkscape:connector-curvature="0"
     style="fill:none;stroke:#edcc5f;stroke-width:4;stroke-miterlimit:10" /><rect
     x="82.380753"
     y="225.23352"
     class="st15"
     width="4.1999998"
     height="9.6999998"
     id="rect80"
     style="fill:#80adb7" /><path
     class="st19"
     d="m 126.88076,107.33352 c 0,0 61.3,32.4 70.6,46.1 0,0 18.6,21.7 16,50.1 0,0 1.5,49.7 -44.5,31 l -42.5,-24 19.3,-11.3 c 0,0 52.5,35.1 60.7,30.3 0,0 5.1,0.5 13.4,-4.6 10,-6.1 12.9,-17.8 12.7,-33 0,0 3.9,-27.6 -19.8,-51.2 0,0 -17.5,-15 -38.3,-27.4 l -27.9,-17.800003"
     id="path82"
     inkscape:connector-curvature="0"
     style="fill:none;stroke:#edcc5f;stroke-width:4;stroke-miterlimit:10" /><rect
     x="120.68077"
     y="204.93352"
     class="st11"
     width="4.1999998"
     height="9.6999998"
     id="rect84"
     style="fill:#8ab8bc" /><rect
     x="-125.3619"
     y="210.8838"
     transform="rotate(-59.999272)"
     class="st11"
     width="4.1999073"
     height="9.6997862"
     id="rect86"
     style="fill:#8ab8bc;stroke-width:0.99997801" /><rect
     x="-163.35147"
     y="189.05888"
     transform="rotate(-59.999272)"
     class="st15"
     width="4.1999073"
     height="4.1999073"
     id="rect88"
     style="fill:#80adb7;stroke-width:0.99997801" /><path
     class="st20"
     d="m 156.48076,401.03352 0.5,-1 c -0.3,0.3 -0.7,0.5 -1.2,0.5 0.5,-0.8 0.7,-1.2 0.9,-1.9 0,0 1.4,-0.6 2.3,0.3 0,0.1 0,0.2 0,0.2 0.4,2.2 -1.7,2 -2.5,1.9 z"
     id="path90"
     inkscape:connector-curvature="0"
     style="fill:#8d6e63" /><path
     class="st21"
     d="m 155.88076,400.53352 c 0,0 1.1,-0.4 1.3,-0.9 l -0.2,0.4 c 0.1,0 -0.5,0.5 -1.1,0.5 z"
     id="path92"
     inkscape:connector-curvature="0"
     style="fill:#6d4c41" /><path
     class="st21"
     d="m 156.48076,401.03352 c 0,0 2.4,-0.3 2.6,-1.8 0.3,2.1 -1.8,1.9 -2.6,1.8 z"
     id="path94"
     inkscape:connector-curvature="0"
     style="fill:#6d4c41" /><path
     class="st20"
     d="m 162.18076,404.13352 0.5,-1 c -0.3,0.3 -0.7,0.5 -1.2,0.5 0.5,-0.8 0.7,-1.2 0.9,-1.9 0,0 1.5,-0.8 2.3,0.3 0,0.1 0,0.2 0,0.2 0.3,2.2 -1.8,1.9 -2.5,1.9 z"
     id="path96"
     inkscape:connector-curvature="0"
     style="fill:#8d6e63" /><path
     class="st21"
     d="m 161.58076,403.63352 c 0,0 1.1,-0.4 1.3,-0.9 l -0.2,0.4 c 0,0 -0.5,0.5 -1.1,0.5 z"
     id="path98"
     inkscape:connector-curvature="0"
     style="fill:#6d4c41" /><path
     class="st21"
     d="m 162.18076,404.13352 c 0,0 2.4,-0.3 2.6,-1.8 0.2,2.1 -1.9,1.8 -2.6,1.8 z"
     id="path100"
     inkscape:connector-curvature="0"
     style="fill:#6d4c41" /><path
     class="st20"
     d="m 132.48076,414.93352 0.5,-1 c -0.3,0.3 -0.7,0.5 -1.2,0.5 0.5,-0.8 0.7,-1.2 0.9,-1.9 0,0 1.5,-0.1 2.3,0.3 0,0.1 0,0.2 0,0.2 0.4,2.2 -1.7,2 -2.5,1.9 z"
     id="path102"
     inkscape:connector-curvature="0"
     style="fill:#8d6e63" /><path
     class="st21"
     d="m 131.88076,414.43352 c 0,0 1.1,-0.4 1.3,-0.9 l -0.2,0.4 c 0.1,0 -0.4,0.5 -1.1,0.5 z"
     id="path104"
     inkscape:connector-curvature="0"
     style="fill:#6d4c41" /><path
     class="st21"
     d="m 132.48076,414.93352 c 0,0 2.4,-0.3 2.6,-1.8 0.3,2.1 -1.8,1.9 -2.6,1.8 z"
     id="path106"
     inkscape:connector-curvature="0"
     style="fill:#6d4c41" /><path
     class="st22"
     d="m 122.88076,391.53352 c 0,0 -0.6,-2 -1.4,-2.5 -0.9,-0.5 -3.3,-0.2 -3.3,0.4 0,0.6 1.4,3.1 4.3,2.7 z"
     id="path108"
     inkscape:connector-curvature="0"
     style="fill:#f4ead7" /><path
     class="st23"
     d="m 121.38076,390.33352 c -0.4,-0.4 -0.8,-0.8 -2.2,-0.8 -0.2,0 -0.3,0.2 -0.2,0.4 0.3,0.5 1,1.4 1.9,1.5 0.6,0.1 1,-0.7 0.5,-1.1 z"
     id="path110"
     inkscape:connector-curvature="0"
     style="fill:#dbd2c1" /><path
     class="st24"
     d="m 123.08076,389.83352 -1.1,1.3 c 0,0 -1.1,-0.8 -1.3,-2.2 0,-0.1 0,-0.3 0,-0.4 0,-0.3 0,-0.6 0.1,-0.9 0.1,-0.2 0.4,-0.3 0.5,-0.1 0.1,0.3 0.3,0.6 0.6,0.9 0.3,0.4 0.6,0.8 0.8,1 0.1,0.2 0.2,0.3 0.4,0.4 z"
     id="path112"
     inkscape:connector-curvature="0"
     style="fill:#a1887f" /><path
     class="st20"
     d="m 123.08076,389.83352 -1.1,1.3 c 0,0 -1.1,-0.8 -1.3,-2.2 0.1,0.2 0.9,2 2,0.6 0.1,0.1 0.2,0.2 0.4,0.3 z"
     id="path114"
     inkscape:connector-curvature="0"
     style="fill:#8d6e63" /><path
     class="st25"
     d="m 158.88076,388.23352 c -0.1,1 -0.1,1.8 0.2,2.1 0.4,0.6 0.4,1 0.2,2 -0.6,3.9 -0.1,3.8 -0.1,4.5 0,0.7 -0.3,1 0,2.1 0,0 -2.6,1 -2.3,-0.3 0.7,-2.9 0.3,-4.5 -0.1,-5.7 -0.7,-2.1 -2.2,-2.4 -3,-5.5 -0.6,-2.4 -0.7,-5.1 -0.7,-5.1 0.5,-3.1 3.6,-4.3 5.5,-3.9 0.1,0 0.1,0 0.2,0.1 0.9,0.3 1.4,1.8 1.4,1.8 v 0.1 c -0.2,0.9 -0.3,1.9 -0.5,3 -0.4,1.7 -0.7,3.5 -0.8,4.8 z"
     id="path116"
     inkscape:connector-curvature="0"
     style="fill:#c9c1b1" /><path
     class="st25"
     d="m 130.88076,398.53352 c 0,0 1.5,5.9 1.5,7.1 0,1.2 -0.3,1.5 0.4,2.5 0.6,1 0,4.5 0,4.5 0,0 0.7,1.1 2.3,0.3 -0.1,-0.8 0.3,-1.1 0.3,-1.8 0,-0.7 -0.6,-0.5 -0.4,-3 0.1,-1.1 0.6,-2.2 0,-3.1 -0.5,-0.7 0.2,-8.3 0.2,-8.3 -2.1,-0.6 -3.4,0.1 -4.3,1.8 z"
     id="path118"
     inkscape:connector-curvature="0"
     style="fill:#c9c1b1" /><path
     class="st26"
     d="m 159.38076,395.33352 c -0.4,0.1 -0.5,-0.5 -0.6,-1 -0.1,-0.5 -0.1,-1 -0.1,-1 l 0.9,-0.7 c 0,0 0.1,0.6 0.1,1.3 0.1,0.7 0,1.4 -0.3,1.4 z"
     id="path120"
     inkscape:connector-curvature="0"
     style="fill:#f4987f" /><path
     class="st26"
     d="m 158.18076,392.93352 c 0,0 -0.2,0.8 -0.4,1.5 -0.2,0.5 -0.5,0.9 -0.7,0.9 -0.3,-0.1 -0.3,-0.6 -0.2,-1.1 0.1,-0.5 0.3,-0.9 0.3,-0.9 z"
     id="path122"
     inkscape:connector-curvature="0"
     style="fill:#f4987f" /><path
     class="st26"
     d="m 156.68076,392.53352 c 0,0 -0.4,0.7 -0.8,1.2 -0.4,0.5 -0.8,0.8 -1,0.7 -0.3,-0.2 -0.1,-0.7 0.2,-1.2 0.2,-0.4 0.5,-0.7 0.5,-0.7 z"
     id="path124"
     inkscape:connector-curvature="0"
     style="fill:#f4987f" /><path
     class="st20"
     d="m 138.18076,418.03352 0.5,-1 c -0.3,0.3 -0.7,0.5 -1.2,0.5 0.5,-0.8 0.7,-1.2 0.9,-1.9 0,0 1.4,-0.7 2.3,0.3 0,0.1 0,0.2 0,0.2 0.3,2.2 -1.8,1.9 -2.5,1.9 z"
     id="path126"
     inkscape:connector-curvature="0"
     style="fill:#8d6e63" /><path
     class="st27"
     d="m 161.78076,391.23352 c -0.5,1.3 -1.1,2.1 -1.8,2.6 -2.8,2.1 -6.3,-1.7 -6.3,-1.7 -0.7,-2.4 1.7,-4.2 4.1,-4.8 2.7,-0.6 5.5,0.4 4,3.9 z"
     id="path128"
     inkscape:connector-curvature="0"
     style="fill:#ffab91" /><path
     class="st26"
     d="m 161.78076,391.23352 c -0.5,1.3 -1.1,2.1 -1.8,2.6 -0.6,-0.8 -1.3,-2.4 -4.1,-0.8 -1,0.6 2,-4.7 1.9,-5.7 2.7,-0.6 5.5,0.4 4,3.9 z"
     id="path130"
     inkscape:connector-curvature="0"
     style="fill:#f4987f" /><path
     class="st22"
     d="m 165.68076,383.53352 v 0 c 0,0 0,0.1 0,0 0,0.3 -0.1,0.4 -0.1,0.6 -0.6,2.1 -1.4,3.5 -2.2,4.4 0,0.1 -0.1,0.1 -0.1,0.2 -1.3,1.4 -2.7,1.6 -3.9,1.9 -0.7,0.2 -1.4,0.4 -1.8,0.9 -1.7,1.7 -8.5,8.4 -16.7,10.1 h -0.1 c -0.3,0.1 -0.6,0.1 -0.9,0.2 0,0 0,0.1 -0.2,0.3 -0.3,0.5 -1,1.6 -2.2,2.3 -0.1,0 -0.1,0.1 -0.2,0.1 v 0 c -0.6,0.3 -1.4,0.6 -2.3,0.6 -2.7,0 -3.4,-2.9 -5.8,-4.4 v 0 c -0.2,-0.1 -0.5,-0.3 -0.7,-0.4 v 0 0 c -0.3,-0.1 -0.6,-0.2 -1,-0.3 -0.1,0 -0.3,-0.1 -0.4,-0.1 -0.1,0 -0.3,0 -0.4,0 -0.4,0 -0.8,-0.1 -1.1,-0.3 -1.3,-0.6 -2,-2 -2.4,-3.5 -0.1,-0.2 -0.1,-0.4 -0.1,-0.7 -0.4,-2.5 0.6,-5.7 0.7,-6 v 0 c 0,0 2.9,-0.4 5.5,-2.2 0.4,-0.3 0.8,-0.6 1.1,-0.9 0.3,-0.3 0.5,-0.5 0.7,-0.8 1,-1.8 5.8,-4.1 10.6,-6 0.5,-0.2 1.1,-0.4 1.6,-0.6 1.4,-0.6 2.8,-1.1 4.1,-1.6 0.3,-0.1 0.6,-0.2 0.9,-0.4 3.2,-1.4 5.6,-3.8 7.3,-5.4 1.2,-1.1 2,-2 2.6,-2 1.6,-0.1 3.8,2 4.5,2 0.7,0 1.5,-0.2 1.9,1.5 0.1,0.2 0.1,0.5 0.2,0.9 0.2,0.8 0.5,1.9 0.7,3.1 0.1,0.4 0.2,0.9 0.2,1.3 0.2,1.6 0.4,3.6 0,5.2 z"
     id="path132"
     inkscape:connector-curvature="0"
     style="fill:#f4ead7" /><path
     class="st22"
     d="m 165.68076,383.53352 v 0 c -0.2,1 -0.3,2 -0.5,3.1 -0.3,1.6 -0.5,3.4 -0.7,4.7 -0.1,1 -0.1,1.8 0.2,2.1 0.4,0.6 0.3,1 0.2,2 -0.6,3.9 -0.1,3.8 -0.1,4.5 0,0.7 -0.3,1 0,2.1 0,0 -2.6,1 -2.3,-0.3 0.7,-2.9 0.3,-4.5 -0.1,-5.7 -0.7,-2.1 -2.2,-2.4 -3,-5.5 -0.6,-2.4 -0.7,-5.1 -0.7,-5.1 0.1,-0.5 0.2,-1 0.5,-1.4 0.6,-1.1 1.5,-1.9 2.6,-2.3 0.9,-0.3 1.8,-0.4 2.5,-0.2 0.1,0 0.1,0 0.2,0.1 0.7,0.4 1.2,1.9 1.2,1.9 z"
     id="path134"
     inkscape:connector-curvature="0"
     style="fill:#f4ead7" /><path
     class="st22"
     d="m 140.78076,415.93352 v 0 c -0.1,0.1 -0.1,0.1 -0.2,0.1 -0.1,0 -0.1,0.1 -0.2,0.1 -0.5,0.2 -0.9,0.2 -1.2,0.1 v 0 c -0.5,-0.2 -0.7,-0.5 -0.7,-0.5 0,0 0.6,-3.4 0,-4.5 -0.6,-1 -0.4,-1.3 -0.4,-2.5 0,-0.6 -0.4,-2.5 -0.8,-4.2 -0.4,-1.5 -0.7,-2.9 -0.7,-2.9 0.5,-1.1 1.3,-1.7 2.3,-1.9 0.6,-0.1 1.2,0 1.9,0.2 0,0 -0.1,0.7 -0.1,1.7 -0.2,2.3 -0.3,6.1 0,6.5 0.6,0.9 0.1,1.9 0,3.1 -0.2,2.4 0.4,2.3 0.4,3 0,0.6 -0.4,0.9 -0.3,1.7 z"
     id="path136"
     inkscape:connector-curvature="0"
     style="fill:#f4ead7" /><path
     class="st22"
     d="m 129.28076,397.63352 c 0,1 -0.3,1.9 -0.9,2.6 -0.8,1 -1.9,1.7 -3.1,1.8 -1.1,0.2 -2.1,0.6 -2.9,1.1 v 0 c -0.6,0.4 -1,0.7 -1.3,0.9 -0.5,0.4 -2.8,-2.1 -3.3,-3.8 0.8,-1 1.1,-1.7 1.4,-2.3 0.2,-0.3 0.3,-0.7 0.5,-1.1 0.8,-1.7 1.1,-3.1 1.6,-4.5 0.1,-0.1 0.1,-0.3 0.2,-0.5 0.2,-0.6 0.5,-1.2 0.9,-1.8 0.3,-0.6 0.7,-0.8 1.2,-0.9 2.1,-0.3 5,5.1 5.6,7.7 0,0.4 0.1,0.6 0.1,0.8 z"
     id="path138"
     inkscape:connector-curvature="0"
     style="fill:#f4ead7" /><path
     class="st28"
     d="m 145.28076,390.43352 c -0.2,1.4 1.3,2.2 1,3.6 -0.4,2 -2.5,2 -4.1,2 -2.1,0 -3,1.1 -4.5,2.4 -0.9,0.8 -2.4,2 -3.7,1.8 -1.1,-0.2 -2.1,-0.9 -3,-1.6 -0.6,-0.4 -1.2,-1 -1.9,-0.9 -0.8,0.1 -1.6,0.5 -2.3,1 -0.8,0.6 -1.8,1.2 -2.7,1.7 -0.5,0.3 -1.5,0.8 -2.1,0.3 -0.3,-0.3 -0.4,-0.9 -0.5,-1.2 -0.1,-0.5 -0.2,-0.9 -0.2,-1.4 0.1,-1.3 0.7,-3 1.8,-3.8 0.8,-0.6 1.8,-0.8 2.9,-0.7 0.5,0.1 1,0.2 1.6,0.2 1.3,0 2.2,-0.6 3.4,-1 0.9,-0.3 1.9,-0.6 1.6,-1.8 -0.1,-0.7 -0.7,-1 -0.5,-1.8 0.2,-0.6 0.9,-1.2 0.9,-1.9 0,-1.1 -1.8,-1.3 -2.5,-1.2 h -0.1 c 0.3,-0.3 0.5,-0.5 0.7,-0.8 1,-1.8 5.8,-4.1 10.6,-6 0.3,0.9 0.6,1.6 1.1,2.3 0.3,0.4 0.8,0.8 1.3,1.2 0.5,0.3 1,0.5 1.4,0.8 1,0.6 1.9,2.4 1.7,3.6 -0.3,1.2 -1.8,1.9 -1.9,3.2 z"
     id="path140"
     inkscape:connector-curvature="0"
     style="fill:#7c4738" /><path
     class="st27"
     d="m 121.28076,403.83352 c -0.3,0.5 -1.2,1.6 -3.1,0.5 -1.9,-1.1 -1.5,-3.4 -0.4,-4 0.7,-0.4 0.5,0.4 1.4,1 0.3,0.2 1.5,0.1 1.8,0.3 0.6,0.6 0.6,1.7 0.3,2.2 z"
     id="path142"
     inkscape:connector-curvature="0"
     style="fill:#ffab91" /><path
     class="st28"
     d="m 161.58076,381.93352 c -0.1,1 -0.6,2 -1.7,2.6 -0.3,0.2 -0.7,0.2 -1.1,0.3 -0.3,0 -0.7,0.1 -1,0.2 -0.9,0.5 -1.1,1.4 -1.6,2.1 -0.9,1 -2.3,1.1 -3.3,-0.1 -0.9,-1.1 0.5,-3.3 1,-4.7 0.4,-1.4 0.5,-3 -0.7,-4.1 -1.6,-1.4 -4.2,0.1 -5.1,-1.5 3.2,-1.4 5.6,-3.8 7.3,-5.4 0.3,0.4 0.6,0.8 1,1.1 0.5,0.4 1.5,0.5 2,1 0.6,0.6 0.6,1.4 0.7,2.2 0.2,1.6 0.4,1.7 1.5,2.9 0.8,1 1.1,2.2 1,3.4 z"
     id="path144"
     inkscape:connector-curvature="0"
     style="fill:#7c4738" /><path
     class="st28"
     d="m 165.68076,383.53352 v 0 c 0,0 0,0.1 0,0 -0.2,1 -0.3,2 -0.5,3.1 -0.2,0.6 -0.4,1.2 -0.6,1.8 -0.1,0.3 -0.1,0.9 -0.6,0.8 -0.3,-0.1 -0.5,-0.5 -0.7,-0.8 -0.3,-0.5 -0.6,-1 -0.8,-1.5 -0.3,-0.8 -0.2,-1.6 0.3,-2.3 0.5,-0.7 1.5,-1.3 1.5,-2.2 0,-0.3 0,-0.6 0,-0.8 -0.2,-1.1 -0.8,-2.1 -0.9,-3.2 -0.1,-0.8 -0.2,-1.6 0.4,-2.2 0.5,-0.5 1.2,-0.3 1.5,0.3 0,0.1 0.1,0.1 0.1,0.2 0.1,0.4 0.2,0.9 0.2,1.3 0.3,1.9 0.5,3.9 0.1,5.5 z"
     id="path146"
     inkscape:connector-curvature="0"
     style="fill:#7c4738" /><g
     id="g150"
     transform="translate(-189.41924,-35.866483)"><path
       class="st29"
       d="m 355.1,419.4 v 0 c 0,0 0,0.1 0,0 -0.2,1 -0.3,2 -0.5,3.1 -0.3,1.6 -0.5,3.4 -0.7,4.7 -0.1,1 -0.1,1.8 0.2,2.1 0.4,0.6 0.3,1 0.2,2 -0.6,3.9 -0.1,3.8 -0.1,4.5 0,0.7 -0.3,1 0,2.1 0,0 -2.6,1 -2.3,-0.3 0.7,-2.9 0.3,-4.5 -0.1,-5.7 -0.7,-2.1 -2.2,-2.4 -3,-5.5 -0.7,0.2 -1.4,0.4 -1.8,0.9 -1.7,1.7 -8.5,8.4 -16.7,10.1 h -0.1 c -0.2,2.3 -0.3,6.1 0,6.5 0.6,0.9 0.1,1.9 0,3.1 -0.2,2.4 0.4,2.3 0.4,3 0,0.6 -0.4,1 -0.3,1.7 v 0 c -0.1,0 -0.1,0.1 -0.2,0.1 -0.1,0 -0.1,0.1 -0.2,0.1 -0.5,0.2 -0.9,0.2 -1.2,0.1 0.5,0.1 1.2,-0.6 1.2,-1.2 0.1,-0.8 -0.4,-1.5 -0.4,-2.3 -0.1,-1.2 0.7,-2.3 0.7,-3.4 0,-1 -0.5,-1.9 -0.7,-2.8 -0.2,-1.1 0,-2.3 -0.1,-3.4 0,-0.3 -0.1,-0.6 -0.2,-0.9 -0.2,-0.8 -0.5,-1.6 -0.8,-2.4 -0.3,-1 -0.4,-1.9 0,-3 0.7,-1.7 2.1,-1.6 3.8,-1.6 1.6,0 3.2,0 4.8,-0.3 1.6,-0.3 2.9,-1.8 4,-2.9 1.1,-1 1.9,-1.8 2.7,-3.2 0.7,-1.3 1.3,-2.6 1.7,-4 0.3,-1.2 0.4,-4.4 2.3,-2.9 0.5,0.4 0.7,1.2 0.9,1.8 0,0.1 0.1,0.3 0.2,0.5 0.3,0.9 0.8,2.2 1.5,2.2 0.6,0 0.9,-0.7 1.1,-1.2 0.3,-1 0.2,-2.2 0,-3.3 0,-0.1 -0.1,-0.3 -0.1,-0.4 -0.3,-1.2 -1.5,-2.5 -1.1,-3.8 0.1,-0.4 0.4,-0.8 0.7,-1.2 0.6,-0.7 1.3,-0.8 2,-1.3 0.5,-0.4 0.8,-1.2 1.4,-1.5 0.1,0 0.1,0 0.2,0 0.2,0.8 0.5,1.9 0.7,3.1 0.1,0.4 0.2,0.9 0.2,1.3 -0.1,1.9 0.1,3.9 -0.3,5.5 z"
       id="path148"
       inkscape:connector-curvature="0"
       style="fill:#eeeeee" /></g><g
     id="g154"
     transform="translate(-189.41924,-35.866483)"><path
       class="st29"
       d="m 326,437.5 c 0,0.1 0.8,2.8 0.7,2.9 -0.6,0.3 -1.4,0.6 -2.3,0.6 -2.7,0 -3.4,-2.9 -5.8,-4.4 v 0 c -0.2,-0.1 -0.5,-0.3 -0.7,-0.4 v 0 c -0.8,1 -1.9,1.7 -3.1,1.8 -1.1,0.2 -2.1,0.6 -2.9,1.1 0.6,-0.6 1.6,-0.8 2.4,-1.2 1.2,-0.6 2,-0.7 2.6,-2 1.1,-2.4 2.1,-2.2 4,-1.6 0.8,0.2 1.5,0.3 2.3,0.2 0.4,-0.1 0.8,-0.1 1.1,-0.1 0.8,0 1.2,0.7 1.5,1.4 0.1,0.3 0.2,0.7 0.2,1 0,0 0,0.1 0,0.7 z"
       id="path152"
       inkscape:connector-curvature="0"
       style="fill:#eeeeee" /></g><path
     class="st28"
     d="m 149.78076,388.53352 c -0.2,-0.1 -0.5,-0.2 -0.7,-0.3 -0.4,-0.1 -0.8,0 -1.1,0.2 -0.7,0.5 -0.9,1.5 -0.7,2.2 0.2,0.7 1,1 1.4,1.5 0.4,0.6 0.3,1.4 1.2,1.6 0.9,0.2 1.5,-1 1.4,-1.7 0,-0.4 -0.3,-0.8 -0.1,-1.2 0.2,-0.4 0.5,-0.7 0.7,-1.1 0.2,-0.6 -0.1,-1.1 -0.7,-1.2 -0.3,-0.1 -0.6,0 -0.9,0 -0.3,0 -0.4,0 -0.5,0 z"
     id="path156"
     inkscape:connector-curvature="0"
     style="fill:#7c4738" /><path
     class="st28"
     d="m 146.78076,380.43352 c -0.1,1.6 1.5,1.1 2.4,1.6 0.3,0.2 0.6,0.5 0.7,0.8 0.2,0.4 0.1,0.8 0.3,1.1 0.1,0.2 0.4,0.4 0.7,0.4 1.6,-0.2 3,-4 1.4,-4.8 -1.1,-0.5 -2.2,0.3 -3.2,0.3 -0.7,-0.1 -2.4,-1.1 -2.3,0.6 z"
     id="path158"
     inkscape:connector-curvature="0"
     style="fill:#7c4738" /><path
     class="st24"
     d="m 129.68076,390.93352 c 0,0.3 -0.1,0.7 -0.3,1 v 0 c -0.3,0.4 -0.8,0.8 -1.7,1.1 -0.5,0.2 -1,-0.4 -1,-0.9 0,-0.3 0.1,-0.5 0.4,-0.6 0,0 0,0 0.1,0 0.8,-0.2 1.7,-0.5 2.1,-1.2 0.1,-0.2 0.4,-0.2 0.4,0 0,0.2 0,0.4 0,0.6 z"
     id="path160"
     inkscape:connector-curvature="0"
     style="fill:#a1887f" /><path
     class="st30"
     d="m 127.78076,394.83352 c 0,-0.3 0.2,-0.6 0.5,-0.7 0.8,-0.1 2.3,-0.2 2.9,0.2 0.8,0.4 1.3,1.9 1.4,2.4 0,0.1 0,0.2 -0.1,0.3 -0.4,0.3 -1.8,1.2 -3.8,-0.4 -0.5,-0.4 -0.8,-1.1 -0.9,-1.8 z"
     id="path162"
     inkscape:connector-curvature="0"
     style="fill:#703e33" /><path
     class="st28"
     d="m 121.18076,395.03352 c 0,0.1 -0.1,0.2 -0.1,0.3 -0.2,0.6 -0.6,1 -1,1.5 -0.3,0.4 -0.6,0.8 -0.9,1.1 0,0 0,0 -0.1,0 0.2,-0.3 0.3,-0.7 0.5,-1.1 0.8,-1.7 1.1,-3.1 1.6,-4.5 0.4,0.9 0.3,1.9 0,2.7 z"
     id="path164"
     inkscape:connector-curvature="0"
     style="fill:#7c4738" /><path
     class="st31"
     d="m 168.18076,383.83352 c -1.8,2.4 -4.4,0.9 -8.6,2.5 -0.9,0.1 -0.4,-0.5 -0.3,-0.9 0.5,-0.2 1,-0.3 1.4,-0.4 3.7,-0.9 4.9,0.1 6.6,-1.6 1.1,-1.1 0.6,-2.8 -0.4,-4.4 -0.4,-0.6 -0.9,-1.2 -1.4,-1.7 l -0.5,-2.6 v 0 c 0.4,0.4 0.8,0.8 1.1,1.2 3.5,3.8 3.3,6.3 2.1,7.9 z"
     id="path166"
     inkscape:connector-curvature="0"
     style="fill:#ebe1cf" /><path
     class="st32"
     d="m 118.98076,402.93352 c -0.4,-0.6 0.8,-0.1 1.2,-0.3 0.7,-0.5 0,1.9 -1.2,0.3 z"
     id="path168"
     inkscape:connector-curvature="0"
     style="fill:#ff8a65" /><path
     class="st32"
     d="m 117.98076,402.43352 c 0.7,-0.1 -0.2,-0.6 -0.3,-1.1 -0.2,-0.9 -1.3,1.3 0.3,1.1 z"
     id="path170"
     inkscape:connector-curvature="0"
     style="fill:#ff8a65" /><path
     class="st33"
     d="m 125.48076,396.63352 c 0,0 -0.2,0.7 -0.6,0.7 -0.4,0 -0.5,-0.2 -0.8,-0.1 0.1,-0.1 0.1,-0.2 0.2,-0.4 0.1,-0.3 0.2,-0.5 0.5,-0.7 0.4,0.1 0.6,0.3 0.7,0.5 z"
     id="path172"
     inkscape:connector-curvature="0"
     style="fill:#602f28" /><path
     class="st34"
     d="m 125.48076,396.53352 c -0.1,0.4 -0.4,0.7 -0.7,0.7 -0.2,0 -0.4,-0.1 -0.5,-0.3 0.1,-0.3 0.2,-0.5 0.5,-0.7 0.4,0 0.6,0.2 0.7,0.3 z"
     id="path174"
     inkscape:connector-curvature="0"
     style="fill:#3e2723" /><circle
     class="st35"
     cx="125.08076"
     cy="396.63351"
     r="0.1"
     id="circle176"
     style="fill:#ffffff" /><path
     class="st33"
     d="m 159.58076,385.33352 c -2.3,0.5 -2.6,1.7 -4,2.6 -0.2,0.1 0.4,0.1 1,-0.5 -0.7,1 -1.3,1.1 -1.3,1.1 -0.5,0.2 0,0.1 0.6,0 -0.2,0.2 -0.5,0.4 -0.5,0.4 0.4,-0.1 0.5,-0.2 0.7,-0.3 -0.5,0.4 -1,0.7 -1.8,0.7 -0.5,0 1.7,0.4 2.5,-1.1 -0.3,0.6 -0.6,1.2 -1.2,1.4 v 0.1 c 0.5,-0.1 0.9,-0.4 1.2,-0.7 -0.1,0.1 -0.1,0.3 -0.2,0.4 0,0.1 0,0.1 0.1,0.1 0.7,-0.6 0.9,-1.6 1.7,-2.5 -0.3,0.5 -0.5,1.1 -0.7,1.6 0,0.1 0.1,0.1 0.1,0.1 0.5,-0.9 0.8,-1.9 2,-2.4 0,0 -0.4,0 -0.3,-0.2 0.1,-0.1 0.7,-0.4 0.6,-0.5 0,-0.1 -0.9,0.2 -1,0.2 0,-0.1 0.6,-0.5 0.5,-0.5 z"
     id="path178"
     inkscape:connector-curvature="0"
     style="fill:#602f28" /><path
     class="st20"
     d="m 129.38076,391.93352 c -0.3,0.4 -0.8,0.8 -1.7,1.1 -0.5,0.2 -1,-0.4 -1,-0.9 0.4,0.7 1.6,0.8 2.7,-0.2 z"
     id="path180"
     inkscape:connector-curvature="0"
     style="fill:#8d6e63" /><path
     class="st33"
     d="m 129.18076,395.03352 c 1,0.4 1.7,-0.4 2.8,1.3 0.1,0.1 0,0.3 -0.1,0.4 -0.7,0.2 -2.5,0.6 -3.2,-1.1 -0.2,-0.3 0.1,-0.7 0.5,-0.6 z"
     id="path182"
     inkscape:connector-curvature="0"
     style="fill:#602f28" /><path
     class="st21"
     d="m 137.58076,417.53352 c 0,0 1.1,-0.4 1.3,-0.9 l -0.2,0.4 c 0,0 -0.5,0.5 -1.1,0.5 z"
     id="path184"
     inkscape:connector-curvature="0"
     style="fill:#6d4c41" /><path
     class="st21"
     d="m 138.18076,418.03352 c 0,0 2.4,-0.3 2.6,-1.8 0.2,2.1 -1.9,1.8 -2.6,1.8 z"
     id="path186"
     inkscape:connector-curvature="0"
     style="fill:#6d4c41" /><path
     class="st23"
     d="m 159.38076,390.63352 c -0.7,0.2 -1.4,0.4 -1.8,0.9 -1.7,1.7 -8.5,8.4 -16.7,10.1 v -2.5 c 0,0 8.2,1.4 16.1,-9.1 0.6,-0.9 2,-0.6 2.4,0.6 0,-0.1 0,-0.1 0,0 z"
     id="path188"
     inkscape:connector-curvature="0"
     style="fill:#dbd2c1" /><path
     class="st23"
     d="M 128.38076,400.23352 Z"
     id="path190"
     inkscape:connector-curvature="0"
     style="fill:#dbd2c1" /><path
     class="st23"
     d="m 137.28076,404.43352 v 0 0 c -0.6,0.3 -1.4,0.6 -2.3,0.6 -2.7,0 -3.4,-2.9 -5.8,-4.4 1.8,0.9 6,2.7 7.4,1 z"
     id="path192"
     inkscape:connector-curvature="0"
     style="fill:#dbd2c1" /><path
     class="st36"
     d="m 167.98076,383.03352 c -1.3,2.7 -4.1,1.4 -7.3,1.9 3.7,-0.9 4.9,0.1 6.6,-1.6 1.1,-1.1 0.6,-2.8 -0.4,-4.4 -0.4,-0.6 -0.9,-1.2 -1.4,-1.7 l -0.5,-2.6 v 0 c 0.5,0.6 4.4,5.5 3,8.4 z"
     id="path194"
     inkscape:connector-curvature="0"
     style="fill:#e0e0e0" /><polygon
     class="st7"
     points="333.2,466.6 315.8,458.6 318.5,440.5 337.6,452.2 "
     id="polygon196"
     style="fill:#f1e8cd"
     transform="translate(-189.41924,-35.866483)" /><polygon
     class="st4"
     points="315.9,439.2 339.6,453.2 335.7,447.6 319.5,438 "
     id="polygon198"
     style="fill:#e1dbc1"
     transform="translate(-189.41924,-35.866483)" /><polygon
     class="st12"
     points="359.3,386.4 354.1,446.4 353.7,446.3 358.8,386.3 "
     id="polygon200"
     style="fill:#80828a"
     transform="translate(-189.41924,-35.866483)" /><rect
     x="150.88075"
     y="352.9335"
     class="st12"
     width="0.60000002"
     height="65.099998"
     id="rect202"
     style="fill:#80828a" /><polygon
     class="st12"
     points="330,445.7 329.6,445.7 324,386.7 324.4,386.7 "
     id="polygon204"
     style="fill:#80828a"
     transform="translate(-189.41924,-35.866483)" /></svg>