<?xml version="1.0" encoding="utf-8"?>
<!-- Generator: Adobe Illustrator 19.1.0, SVG Export Plug-In . SVG Version: 6.00 Build 0)  -->
<svg version="1.0" id="Layer_1" xmlns="http://www.w3.org/2000/svg" xmlns:xlink="http://www.w3.org/1999/xlink" x="0px" y="0px"
	 viewBox="0 0 217 195" style="enable-background:new 0 0 217 195;" xml:space="preserve">
<style type="text/css">
	.st0{fill:url(#SVGID_1_);}
	.st1{clip-path:url(#SVGID_3_);}
	.st2{clip-path:url(#SVGID_5_);fill:#FFFFFF;}
	.st3{clip-path:url(#SVGID_7_);fill:#00AEEF;}
	.st4{clip-path:url(#SVGID_7_);fill:#00AEEE;}
	.st5{clip-path:url(#SVGID_7_);fill:#00ADED;}
	.st6{clip-path:url(#SVGID_7_);fill:#00ADEB;}
	.st7{clip-path:url(#SVGID_7_);fill:#00ADEA;}
	.st8{clip-path:url(#SVGID_7_);fill:#00ADE9;}
	.st9{clip-path:url(#SVGID_7_);fill:#00ADE8;}
	.st10{clip-path:url(#SVGID_7_);fill:#00ADE7;}
	.st11{clip-path:url(#SVGID_7_);fill:#00ADE6;}
	.st12{clip-path:url(#SVGID_7_);fill:#00ADE5;}
	.st13{clip-path:url(#SVGID_7_);fill:#00ADE4;}
	.st14{clip-path:url(#SVGID_7_);fill:#00ADE3;}
	.st15{clip-path:url(#SVGID_7_);fill:#00ADE2;}
	.st16{clip-path:url(#SVGID_7_);fill:#00ADE1;}
	.st17{clip-path:url(#SVGID_7_);fill:#00ADE0;}
	.st18{clip-path:url(#SVGID_7_);fill:#00ADDF;}
	.st19{clip-path:url(#SVGID_7_);fill:#00ADDE;}
	.st20{clip-path:url(#SVGID_7_);fill:#00ACDD;}
	.st21{clip-path:url(#SVGID_7_);fill:#00ACDC;}
	.st22{clip-path:url(#SVGID_7_);fill:#00ACDB;}
	.st23{clip-path:url(#SVGID_7_);fill:#00ACDA;}
	.st24{clip-path:url(#SVGID_7_);fill:#00ACD9;}
	.st25{clip-path:url(#SVGID_7_);fill:#00ACD8;}
	.st26{clip-path:url(#SVGID_7_);fill:#00ACD7;}
	.st27{clip-path:url(#SVGID_7_);fill:#00ACD6;}
	.st28{clip-path:url(#SVGID_7_);fill:#00ACD5;}
	.st29{clip-path:url(#SVGID_7_);fill:#00ACD4;}
	.st30{clip-path:url(#SVGID_7_);fill:#00ACD3;}
	.st31{clip-path:url(#SVGID_7_);fill:#00ACD2;}
	.st32{clip-path:url(#SVGID_7_);fill:#00ACD1;}
	.st33{clip-path:url(#SVGID_7_);fill:#00ACD0;}
	.st34{clip-path:url(#SVGID_7_);fill:#00ACCF;}
	.st35{clip-path:url(#SVGID_7_);fill:#00ACCE;}
	.st36{clip-path:url(#SVGID_7_);fill:#00ACCD;}
	.st37{clip-path:url(#SVGID_7_);fill:#00ACCC;}
	.st38{clip-path:url(#SVGID_7_);fill:#00ACCB;}
	.st39{clip-path:url(#SVGID_7_);fill:#00ACCA;}
	.st40{clip-path:url(#SVGID_7_);fill:#00ACC9;}
	.st41{clip-path:url(#SVGID_7_);fill:#00ACC8;}
	.st42{clip-path:url(#SVGID_7_);fill:#00ACC7;}
	.st43{clip-path:url(#SVGID_7_);fill:#00ACC6;}
	.st44{clip-path:url(#SVGID_7_);fill:#00ACC5;}
	.st45{clip-path:url(#SVGID_7_);fill:#00ACC4;}
	.st46{clip-path:url(#SVGID_7_);fill:#00ACC3;}
	.st47{clip-path:url(#SVGID_7_);fill:#00ACC2;}
	.st48{clip-path:url(#SVGID_7_);fill:#00ACC1;}
	.st49{clip-path:url(#SVGID_7_);fill:#00ACC0;}
	.st50{clip-path:url(#SVGID_7_);fill:#00ACBF;}
	.st51{clip-path:url(#SVGID_7_);fill:#00ACBE;}
	.st52{clip-path:url(#SVGID_7_);fill:#00ACBD;}
	.st53{clip-path:url(#SVGID_7_);fill:#00ACBC;}
	.st54{clip-path:url(#SVGID_7_);fill:#00ACBB;}
	.st55{clip-path:url(#SVGID_7_);fill:#00ACBA;}
	.st56{clip-path:url(#SVGID_7_);fill:#00ACB9;}
	.st57{clip-path:url(#SVGID_7_);fill:#00ACB8;}
	.st58{clip-path:url(#SVGID_7_);fill:#00ACB7;}
	.st59{clip-path:url(#SVGID_7_);fill:#00ACB6;}
	.st60{clip-path:url(#SVGID_7_);fill:#00ACB5;}
	.st61{clip-path:url(#SVGID_7_);fill:#00ACB4;}
	.st62{clip-path:url(#SVGID_7_);fill:#00ACB3;}
	.st63{clip-path:url(#SVGID_7_);fill:#00ACB2;}
	.st64{clip-path:url(#SVGID_7_);fill:#00ACB1;}
	.st65{clip-path:url(#SVGID_7_);fill:#00ACB0;}
	.st66{clip-path:url(#SVGID_7_);fill:#00ACAF;}
	.st67{clip-path:url(#SVGID_7_);fill:#00ACAE;}
	.st68{clip-path:url(#SVGID_7_);fill:#00ACAD;}
	.st69{clip-path:url(#SVGID_7_);fill:#00ACAC;}
	.st70{clip-path:url(#SVGID_7_);fill:#00ACAB;}
	.st71{clip-path:url(#SVGID_7_);fill:#00ACAA;}
	.st72{clip-path:url(#SVGID_7_);fill:#00ACA9;}
	.st73{clip-path:url(#SVGID_7_);fill:#00ACA8;}
	.st74{clip-path:url(#SVGID_7_);fill:#00ACA7;}
	.st75{clip-path:url(#SVGID_7_);fill:#00ACA6;}
	.st76{clip-path:url(#SVGID_7_);fill:#00ACA5;}
	.st77{clip-path:url(#SVGID_7_);fill:#00ACA4;}
	.st78{clip-path:url(#SVGID_7_);fill:#00ACA3;}
	.st79{clip-path:url(#SVGID_7_);fill:#00ACA2;}
	.st80{clip-path:url(#SVGID_7_);fill:#00ACA1;}
	.st81{clip-path:url(#SVGID_7_);fill:#00ACA0;}
	.st82{clip-path:url(#SVGID_7_);fill:#00AC9F;}
	.st83{clip-path:url(#SVGID_7_);fill:#00AC9E;}
	.st84{clip-path:url(#SVGID_7_);fill:#00AC9D;}
	.st85{clip-path:url(#SVGID_7_);fill:#00AC9C;}
	.st86{clip-path:url(#SVGID_7_);fill:#00AC9B;}
	.st87{clip-path:url(#SVGID_7_);fill:#00AC9A;}
	.st88{clip-path:url(#SVGID_7_);fill:#00AC99;}
	.st89{clip-path:url(#SVGID_7_);fill:#00AC98;}
	.st90{clip-path:url(#SVGID_7_);fill:#00AC97;}
	.st91{clip-path:url(#SVGID_7_);fill:#00AC96;}
	.st92{clip-path:url(#SVGID_7_);fill:#00AC95;}
	.st93{clip-path:url(#SVGID_7_);fill:#00AC94;}
	.st94{clip-path:url(#SVGID_7_);fill:#00AC93;}
	.st95{clip-path:url(#SVGID_7_);fill:#00AC92;}
	.st96{clip-path:url(#SVGID_7_);fill:#00AC91;}
	.st97{clip-path:url(#SVGID_7_);fill:#00AC90;}
	.st98{clip-path:url(#SVGID_7_);fill:#00AC8F;}
	.st99{clip-path:url(#SVGID_7_);fill:#00AC8E;}
	.st100{clip-path:url(#SVGID_7_);fill:#02AC8E;}
	.st101{clip-path:url(#SVGID_7_);fill:#07AC8D;}
	.st102{clip-path:url(#SVGID_7_);fill:#0BAC8D;}
	.st103{clip-path:url(#SVGID_7_);fill:#0FAC8C;}
	.st104{clip-path:url(#SVGID_7_);fill:#12AC8B;}
	.st105{clip-path:url(#SVGID_7_);fill:#15AC8B;}
	.st106{clip-path:url(#SVGID_7_);fill:#18AC8A;}
	.st107{clip-path:url(#SVGID_7_);fill:#1AAC89;}
	.st108{clip-path:url(#SVGID_7_);fill:#1CAC89;}
	.st109{clip-path:url(#SVGID_7_);fill:#1EAC88;}
	.st110{clip-path:url(#SVGID_7_);fill:#20AC88;}
	.st111{clip-path:url(#SVGID_7_);fill:#22AC87;}
	.st112{clip-path:url(#SVGID_7_);fill:#24AC86;}
	.st113{clip-path:url(#SVGID_7_);fill:#25AC86;}
	.st114{clip-path:url(#SVGID_7_);fill:#27AC85;}
	.st115{clip-path:url(#SVGID_7_);fill:#29AC84;}
	.st116{clip-path:url(#SVGID_7_);fill:#2AAC84;}
	.st117{clip-path:url(#SVGID_7_);fill:#2CAC83;}
	.st118{clip-path:url(#SVGID_7_);fill:#2DAC82;}
	.st119{clip-path:url(#SVGID_7_);fill:#2EAC82;}
	.st120{clip-path:url(#SVGID_7_);fill:#30AC81;}
	.st121{clip-path:url(#SVGID_7_);fill:#31AC81;}
	.st122{clip-path:url(#SVGID_7_);fill:#32AC80;}
	.st123{clip-path:url(#SVGID_7_);fill:#33AC7F;}
	.st124{clip-path:url(#SVGID_7_);fill:#35AC7F;}
	.st125{clip-path:url(#SVGID_7_);fill:#36AC7E;}
	.st126{clip-path:url(#SVGID_7_);fill:#37AC7D;}
	.st127{clip-path:url(#SVGID_7_);fill:#38AC7D;}
	.st128{clip-path:url(#SVGID_7_);fill:#39AC7C;}
	.st129{clip-path:url(#SVGID_7_);fill:#3AAC7B;}
	.st130{clip-path:url(#SVGID_7_);fill:#3BAC7B;}
	.st131{clip-path:url(#SVGID_7_);fill:#3CAC7A;}
	.st132{clip-path:url(#SVGID_7_);fill:#3DAC79;}
	.st133{clip-path:url(#SVGID_7_);fill:#3EAD78;}
	.st134{clip-path:url(#SVGID_7_);fill:#3FAD78;}
	.st135{clip-path:url(#SVGID_7_);fill:#40AD77;}
	.st136{clip-path:url(#SVGID_7_);fill:#41AD76;}
	.st137{clip-path:url(#SVGID_7_);fill:#42AD76;}
	.st138{clip-path:url(#SVGID_7_);fill:#43AD75;}
	.st139{clip-path:url(#SVGID_7_);fill:#44AD74;}
	.st140{clip-path:url(#SVGID_7_);fill:#45AD73;}
	.st141{clip-path:url(#SVGID_7_);fill:#46AD73;}
	.st142{clip-path:url(#SVGID_7_);fill:#46AD72;}
	.st143{clip-path:url(#SVGID_7_);fill:#47AD71;}
	.st144{clip-path:url(#SVGID_7_);fill:#48AD70;}
	.st145{clip-path:url(#SVGID_7_);fill:#49AD70;}
	.st146{clip-path:url(#SVGID_7_);fill:#4AAD6F;}
	.st147{clip-path:url(#SVGID_7_);fill:#4BAD6E;}
	.st148{clip-path:url(#SVGID_7_);fill:#4CAD6E;}
	.st149{clip-path:url(#SVGID_7_);fill:#4CAD6D;}
	.st150{clip-path:url(#SVGID_7_);fill:#4DAD6C;}
	.st151{clip-path:url(#SVGID_7_);fill:#4EAD6B;}
	.st152{clip-path:url(#SVGID_7_);fill:#4FAD6B;}
	.st153{clip-path:url(#SVGID_7_);fill:#4FAD6A;}
	.st154{clip-path:url(#SVGID_7_);fill:#50AD69;}
	.st155{clip-path:url(#SVGID_7_);fill:#51AD68;}
	.st156{clip-path:url(#SVGID_7_);fill:#52AD68;}
	.st157{clip-path:url(#SVGID_7_);fill:#52AD67;}
	.st158{clip-path:url(#SVGID_7_);fill:#53AD66;}
	.st159{clip-path:url(#SVGID_7_);fill:#54AD65;}
	.st160{clip-path:url(#SVGID_7_);fill:#55AD64;}
	.st161{clip-path:url(#SVGID_7_);fill:#56AD63;}
	.st162{clip-path:url(#SVGID_7_);fill:#56AD62;}
	.st163{clip-path:url(#SVGID_7_);fill:#57AD62;}
	.st164{clip-path:url(#SVGID_7_);fill:#58AD61;}
	.st165{clip-path:url(#SVGID_7_);fill:#58AD60;}
	.st166{clip-path:url(#SVGID_7_);fill:#59AD5F;}
	.st167{clip-path:url(#SVGID_7_);fill:#5AAD5F;}
	.st168{clip-path:url(#SVGID_7_);fill:#5AAD5E;}
	.st169{clip-path:url(#SVGID_7_);fill:#5BAD5D;}
	.st170{clip-path:url(#SVGID_7_);fill:#5BAD5C;}
	.st171{clip-path:url(#SVGID_7_);fill:#5CAD5C;}
	.st172{clip-path:url(#SVGID_7_);fill:#5DAD5B;}
	.st173{clip-path:url(#SVGID_7_);fill:#5DAD5A;}
	.st174{clip-path:url(#SVGID_7_);fill:#5EAD5A;}
	.st175{clip-path:url(#SVGID_7_);fill:#5FAD59;}
	.st176{clip-path:url(#SVGID_7_);fill:#5FAD58;}
	.st177{clip-path:url(#SVGID_7_);fill:#60AD57;}
	.st178{fill:#FFFFFF;}
</style>
<g>
	<g>
		<linearGradient id="SVGID_1_" gradientUnits="userSpaceOnUse" x1="26.5674" y1="118.9279" x2="184.5978" y2="70.8736">
			<stop  offset="0" style="stop-color:#00AEEF"/>
			<stop  offset="0.9144" style="stop-color:#60AD57"/>
		</linearGradient>
		<path class="st0" d="M105.6,177.5c-45.5,0-82.6-37-82.6-82.6s37-82.6,82.6-82.6s82.6,37,82.6,82.6S151.1,177.5,105.6,177.5z
			 M105.6,13.9c-44.7,0-81,36.4-81,81s36.4,81,81,81s81-36.4,81-81S150.3,13.9,105.6,13.9z"/>
	</g>
	<g>
		<defs>
			<circle id="SVGID_2_" cx="105.6" cy="94.9" r="78.1"/>
		</defs>
		<clipPath id="SVGID_3_">
			<use xlink:href="#SVGID_2_"  style="overflow:visible;"/>
		</clipPath>
		<g class="st1">
			<g>
				<defs>
					<circle id="SVGID_4_" cx="105.6" cy="94.9" r="78.2"/>
				</defs>
				<use xlink:href="#SVGID_4_"  style="overflow:visible;fill:#FFFFFF;"/>
				<clipPath id="SVGID_5_">
					<use xlink:href="#SVGID_4_"  style="overflow:visible;"/>
				</clipPath>
				<polygon class="st2" points="27.3,118.6 43.9,173.1 27.3,173.1 				"/>
				<polygon class="st2" points="27.3,116.4 44.6,173.1 43.9,173.1 27.3,118.6 				"/>
				<polygon class="st2" points="27.3,114.2 45.3,173.1 44.6,173.1 27.3,116.4 				"/>
				<polygon class="st2" points="27.3,112.1 45.9,173.1 45.3,173.1 27.3,114.2 				"/>
				<polygon class="st2" points="27.3,109.9 46.6,173.1 45.9,173.1 27.3,112.1 				"/>
				<polygon class="st2" points="27.3,107.7 47.2,173.1 46.6,173.1 27.3,109.9 				"/>
				<polygon class="st2" points="27.3,105.5 47.9,173.1 47.2,173.1 27.3,107.7 				"/>
				<polygon class="st2" points="27.3,103.3 48.6,173.1 47.9,173.1 27.3,105.5 				"/>
				<polygon class="st2" points="27.3,101.1 49.2,173.1 48.6,173.1 27.3,103.3 				"/>
				<polygon class="st2" points="27.3,98.9 49.9,173.1 49.2,173.1 27.3,101.1 				"/>
				<polygon class="st2" points="27.3,96.8 50.6,173.1 49.9,173.1 27.3,98.9 				"/>
				<polygon class="st2" points="27.3,94.6 51.2,173.1 50.6,173.1 27.3,96.8 				"/>
				<polygon class="st2" points="27.3,92.4 51.9,173.1 51.2,173.1 27.3,94.6 				"/>
				<polygon class="st2" points="27.3,90.2 52.6,173.1 51.9,173.1 27.3,92.4 				"/>
				<polygon class="st2" points="27.3,88 53.2,173.1 52.6,173.1 27.3,90.2 				"/>
				<polygon class="st2" points="27.3,85.8 53.9,173.1 53.2,173.1 27.3,88 				"/>
				<polygon class="st2" points="27.3,83.6 54.6,173.1 53.9,173.1 27.3,85.8 				"/>
				<polygon class="st2" points="27.3,81.5 55.2,173.1 54.6,173.1 27.3,83.6 				"/>
				<polygon class="st2" points="27.3,79.3 55.9,173.1 55.2,173.1 27.3,81.5 				"/>
				<polygon class="st2" points="27.3,77.1 56.6,173.1 55.9,173.1 27.3,79.3 				"/>
				<polygon class="st2" points="27.3,74.9 57.2,173.1 56.6,173.1 27.3,77.1 				"/>
				<polygon class="st2" points="27.3,72.7 57.9,173.1 57.2,173.1 27.3,74.9 				"/>
				<polygon class="st2" points="27.3,70.5 58.6,173.1 57.9,173.1 27.3,72.7 				"/>
				<polygon class="st2" points="27.3,68.3 59.2,173.1 58.6,173.1 27.3,70.5 				"/>
				<polygon class="st2" points="27.3,66.1 59.9,173.1 59.2,173.1 27.3,68.3 				"/>
				<polygon class="st2" points="27.3,64 60.5,173.1 59.9,173.1 27.3,66.1 				"/>
				<polygon class="st2" points="27.3,61.8 61.2,173.1 60.5,173.1 27.3,64 				"/>
				<polygon class="st2" points="27.3,59.6 61.9,173.1 61.2,173.1 27.3,61.8 				"/>
				<polygon class="st2" points="27.3,57.4 62.5,173.1 61.9,173.1 27.3,59.6 				"/>
				<polygon class="st2" points="27.3,55.2 63.2,173.1 62.5,173.1 27.3,57.4 				"/>
				<polygon class="st2" points="27.3,53 63.9,173.1 63.2,173.1 27.3,55.2 				"/>
				<polygon class="st2" points="27.3,50.8 64.5,173.1 63.9,173.1 27.3,53 				"/>
				<polygon class="st2" points="27.3,48.7 65.2,173.1 64.5,173.1 27.3,50.8 				"/>
				<polygon class="st2" points="27.3,46.5 65.9,173.1 65.2,173.1 27.3,48.7 				"/>
				<polygon class="st2" points="27.3,44.3 66.5,173.1 65.9,173.1 27.3,46.5 				"/>
				<polygon class="st2" points="27.3,42.1 67.2,173.1 66.5,173.1 27.3,44.3 				"/>
				<polygon class="st2" points="27.3,39.9 67.9,173.1 67.2,173.1 27.3,42.1 				"/>
				<polygon class="st2" points="27.3,37.7 68.5,173.1 67.9,173.1 27.3,39.9 				"/>
				<polygon class="st2" points="27.3,35.5 69.2,173.1 68.5,173.1 27.3,37.7 				"/>
				<polygon class="st2" points="27.3,33.4 69.9,173.1 69.2,173.1 27.3,35.5 				"/>
				<polygon class="st2" points="27.3,31.2 70.5,173.1 69.9,173.1 27.3,33.4 				"/>
				<polygon class="st2" points="27.3,29 71.2,173.1 70.5,173.1 27.3,31.2 				"/>
				<polygon class="st2" points="27.3,26.8 71.8,173.1 71.2,173.1 27.3,29 				"/>
				<polygon class="st2" points="27.3,24.6 72.5,173.1 71.8,173.1 27.3,26.8 				"/>
				<polygon class="st2" points="27.3,24.1 27.8,24 73.2,173.1 72.5,173.1 27.3,24.6 				"/>
				<polygon class="st2" points="27.8,24 28.4,23.8 73.8,173.1 73.2,173.1 				"/>
				<polygon class="st2" points="28.4,23.8 29,23.6 74.5,173.1 73.8,173.1 				"/>
				<polygon class="st2" points="29,23.6 29.6,23.4 75.2,173.1 74.5,173.1 				"/>
				<polygon class="st2" points="29.6,23.4 30.2,23.2 75.8,173.1 75.2,173.1 				"/>
				<polygon class="st2" points="30.2,23.2 30.9,23 76.5,173.1 75.8,173.1 				"/>
				<polygon class="st2" points="30.9,23 31.5,22.8 77.2,173.1 76.5,173.1 				"/>
				<polygon class="st2" points="31.5,22.8 32.1,22.7 77.8,173.1 77.2,173.1 				"/>
				<polygon class="st2" points="32.1,22.7 32.7,22.5 78.5,173.1 77.8,173.1 				"/>
				<polygon class="st2" points="32.7,22.5 33.3,22.3 79.2,173.1 78.5,173.1 				"/>
				<polygon class="st2" points="33.3,22.3 33.9,22.1 79.8,173.1 79.2,173.1 				"/>
				<polygon class="st2" points="33.9,22.1 34.5,21.9 80.5,173.1 79.8,173.1 				"/>
				<polygon class="st2" points="34.5,21.9 35.1,21.7 81.2,173.1 80.5,173.1 				"/>
				<polygon class="st2" points="35.1,21.7 35.7,21.6 81.8,173.1 81.2,173.1 				"/>
				<polygon class="st2" points="35.7,21.6 36.3,21.4 82.5,173.1 81.8,173.1 				"/>
				<polygon class="st2" points="36.3,21.4 36.9,21.2 83.1,173.1 82.5,173.1 				"/>
				<polygon class="st2" points="36.9,21.2 37.6,21 83.8,173.1 83.1,173.1 				"/>
				<polygon class="st2" points="37.6,21 38.2,20.8 84.5,173.1 83.8,173.1 				"/>
				<polygon class="st2" points="38.2,20.8 38.8,20.6 85.1,173.1 84.5,173.1 				"/>
				<polygon class="st2" points="38.8,20.6 39.4,20.4 85.8,173.1 85.1,173.1 				"/>
				<polygon class="st2" points="39.4,20.4 40,20.3 86.5,173.1 85.8,173.1 				"/>
				<polygon class="st2" points="40,20.3 40.6,20.1 87.1,173.1 86.5,173.1 				"/>
				<polygon class="st2" points="40.6,20.1 41.2,19.9 87.8,173.1 87.1,173.1 				"/>
				<polygon class="st2" points="41.2,19.9 41.8,19.7 88.5,173.1 87.8,173.1 				"/>
				<polygon class="st2" points="41.8,19.7 42.4,19.5 89.1,173.1 88.5,173.1 				"/>
				<polygon class="st2" points="42.4,19.5 43,19.3 89.8,173.1 89.1,173.1 				"/>
				<polygon class="st2" points="43,19.3 43.6,19.1 90.5,173.1 89.8,173.1 				"/>
				<polygon class="st2" points="43.6,19.1 44.2,19 91.1,173.1 90.5,173.1 				"/>
				<polygon class="st2" points="44.2,19 44.9,18.8 91.8,173.1 91.1,173.1 				"/>
				<polygon class="st2" points="44.9,18.8 45.5,18.6 92.5,173.1 91.8,173.1 				"/>
				<polygon class="st2" points="45.5,18.6 46.1,18.4 93.1,173.1 92.5,173.1 				"/>
				<polygon class="st2" points="46.1,18.4 46.7,18.2 93.8,173.1 93.1,173.1 				"/>
				<polygon class="st2" points="46.7,18.2 47.3,18 94.5,173.1 93.8,173.1 				"/>
				<polygon class="st2" points="47.3,18 47.9,17.8 95.1,173.1 94.5,173.1 				"/>
				<polygon class="st2" points="47.9,17.8 48.5,17.7 95.8,173.1 95.1,173.1 				"/>
				<polygon class="st2" points="48.5,17.7 49.1,17.5 96.4,173.1 95.8,173.1 				"/>
				<polygon class="st2" points="49.1,17.5 49.7,17.3 97.1,173.1 96.4,173.1 				"/>
				<polygon class="st2" points="49.7,17.3 50.3,17.1 97.8,173.1 97.1,173.1 				"/>
				<polygon class="st2" points="50.3,17.1 50.9,16.9 98.4,173.1 97.8,173.1 				"/>
				<polygon class="st2" points="50.9,16.9 51.5,16.7 99.1,173.1 98.4,173.1 				"/>
				<polygon class="st2" points="51.5,16.7 51.8,16.7 52.2,16.7 99.8,173.1 99.1,173.1 				"/>
				<polygon class="st2" points="52.9,16.7 100.4,173.1 99.8,173.1 52.2,16.7 				"/>
				<polygon class="st2" points="53.5,16.7 101.1,173.1 100.4,173.1 52.9,16.7 				"/>
				<polygon class="st2" points="54.2,16.7 101.8,173.1 101.1,173.1 53.5,16.7 				"/>
				<polygon class="st2" points="54.8,16.7 102.4,173.1 101.8,173.1 54.2,16.7 				"/>
				<polygon class="st2" points="55.5,16.7 103.1,173.1 102.4,173.1 54.8,16.7 				"/>
				<polygon class="st2" points="56.2,16.7 103.8,173.1 103.1,173.1 55.5,16.7 				"/>
				<polygon class="st2" points="56.8,16.7 104.4,173.1 103.8,173.1 56.2,16.7 				"/>
				<polygon class="st2" points="57.5,16.7 105.1,173.1 104.4,173.1 56.8,16.7 				"/>
				<polygon class="st2" points="58.2,16.7 105.8,173.1 105.1,173.1 57.5,16.7 				"/>
				<polygon class="st2" points="58.8,16.7 106.4,173.1 105.8,173.1 58.2,16.7 				"/>
				<polygon class="st2" points="59.5,16.7 107.1,173.1 106.4,173.1 58.8,16.7 				"/>
				<polygon class="st2" points="60.2,16.7 107.7,173.1 107.1,173.1 59.5,16.7 				"/>
				<polygon class="st2" points="60.8,16.7 108.4,173.1 107.7,173.1 60.2,16.7 				"/>
				<polygon class="st2" points="61.5,16.7 109.1,173.1 108.4,173.1 60.8,16.7 				"/>
				<polygon class="st2" points="62.2,16.7 109.7,173.1 109.1,173.1 61.5,16.7 				"/>
				<polygon class="st2" points="62.8,16.7 110.4,173.1 109.7,173.1 62.2,16.7 				"/>
				<polygon class="st2" points="63.5,16.7 111.1,173.1 110.4,173.1 62.8,16.7 				"/>
				<polygon class="st2" points="64.2,16.7 111.7,173.1 111.1,173.1 63.5,16.7 				"/>
				<polygon class="st2" points="64.8,16.7 112.4,173.1 111.7,173.1 64.2,16.7 				"/>
				<polygon class="st2" points="65.5,16.7 113.1,173.1 112.4,173.1 64.8,16.7 				"/>
				<polygon class="st2" points="66.1,16.7 113.7,173.1 113.1,173.1 65.5,16.7 				"/>
				<polygon class="st2" points="66.8,16.7 114.4,173.1 113.7,173.1 66.1,16.7 				"/>
				<polygon class="st2" points="67.5,16.7 115.1,173.1 114.4,173.1 66.8,16.7 				"/>
				<polygon class="st2" points="68.1,16.7 115.7,173.1 115.1,173.1 67.5,16.7 				"/>
				<polygon class="st2" points="68.8,16.7 116.4,173.1 115.7,173.1 68.1,16.7 				"/>
				<polygon class="st2" points="69.5,16.7 117.1,173.1 116.4,173.1 68.8,16.7 				"/>
				<polygon class="st2" points="70.1,16.7 117.7,173.1 117.1,173.1 69.5,16.7 				"/>
				<polygon class="st2" points="70.8,16.7 118.4,173.1 117.7,173.1 70.1,16.7 				"/>
				<polygon class="st2" points="71.5,16.7 119,173.1 118.4,173.1 70.8,16.7 				"/>
				<polygon class="st2" points="72.1,16.7 119.7,173.1 119,173.1 71.5,16.7 				"/>
				<polygon class="st2" points="72.8,16.7 120.4,173.1 119.7,173.1 72.1,16.7 				"/>
				<polygon class="st2" points="73.5,16.7 121,173.1 120.4,173.1 72.8,16.7 				"/>
				<polygon class="st2" points="74.1,16.7 121.7,173.1 121,173.1 73.5,16.7 				"/>
				<polygon class="st2" points="74.8,16.7 122.4,173.1 121.7,173.1 74.1,16.7 				"/>
				<polygon class="st2" points="75.5,16.7 123,173.1 122.4,173.1 74.8,16.7 				"/>
				<polygon class="st2" points="76.1,16.7 123.7,173.1 123,173.1 75.5,16.7 				"/>
				<polygon class="st2" points="76.8,16.7 124.4,173.1 123.7,173.1 76.1,16.7 				"/>
				<polygon class="st2" points="77.5,16.7 125,173.1 124.4,173.1 76.8,16.7 				"/>
				<polygon class="st2" points="78.1,16.7 125.7,173.1 125,173.1 77.5,16.7 				"/>
				<polygon class="st2" points="78.8,16.7 126.4,173.1 125.7,173.1 78.1,16.7 				"/>
				<polygon class="st2" points="79.4,16.7 127,173.1 126.4,173.1 78.8,16.7 				"/>
				<polygon class="st2" points="80.1,16.7 127.7,173.1 127,173.1 79.4,16.7 				"/>
				<polygon class="st2" points="80.8,16.7 128.4,173.1 127.7,173.1 80.1,16.7 				"/>
				<polygon class="st2" points="81.4,16.7 129,173.1 128.4,173.1 80.8,16.7 				"/>
				<polygon class="st2" points="82.1,16.7 129.7,173.1 129,173.1 81.4,16.7 				"/>
				<polygon class="st2" points="82.8,16.7 130.4,173.1 129.7,173.1 82.1,16.7 				"/>
				<polygon class="st2" points="83.4,16.7 131,173.1 130.4,173.1 82.8,16.7 				"/>
				<polygon class="st2" points="84.1,16.7 131.7,173.1 131,173.1 83.4,16.7 				"/>
				<polygon class="st2" points="84.8,16.7 132.3,173.1 131.7,173.1 84.1,16.7 				"/>
				<polygon class="st2" points="85.4,16.7 133,173.1 132.3,173.1 84.8,16.7 				"/>
				<polygon class="st2" points="86.1,16.7 133.7,173.1 133,173.1 85.4,16.7 				"/>
				<polygon class="st2" points="86.8,16.7 134.3,173.1 133.7,173.1 86.1,16.7 				"/>
				<polygon class="st2" points="87.4,16.7 135,173.1 134.3,173.1 86.8,16.7 				"/>
				<polygon class="st2" points="88.1,16.7 135.7,173.1 135,173.1 87.4,16.7 				"/>
				<polygon class="st2" points="88.8,16.7 136.3,173.1 135.7,173.1 88.1,16.7 				"/>
				<polygon class="st2" points="89.4,16.7 137,173.1 136.3,173.1 88.8,16.7 				"/>
				<polygon class="st2" points="90.1,16.7 137.7,173.1 137,173.1 89.4,16.7 				"/>
				<polygon class="st2" points="90.7,16.7 138.3,173.1 137.7,173.1 90.1,16.7 				"/>
				<polygon class="st2" points="91.4,16.7 139,173.1 138.3,173.1 90.7,16.7 				"/>
				<polygon class="st2" points="92.1,16.7 139.7,173.1 139,173.1 91.4,16.7 				"/>
				<polygon class="st2" points="92.7,16.7 140.3,173.1 139.7,173.1 92.1,16.7 				"/>
				<polygon class="st2" points="93.4,16.7 141,173.1 140.3,173.1 92.7,16.7 				"/>
				<polygon class="st2" points="94.1,16.7 141.7,173.1 141,173.1 93.4,16.7 				"/>
				<polygon class="st2" points="94.7,16.7 142.3,173.1 141.7,173.1 94.1,16.7 				"/>
				<polygon class="st2" points="95.4,16.7 143,173.1 142.3,173.1 94.7,16.7 				"/>
				<polygon class="st2" points="96.1,16.7 143.6,173.1 143,173.1 95.4,16.7 				"/>
				<polygon class="st2" points="96.7,16.7 144.3,173.1 143.6,173.1 96.1,16.7 				"/>
				<polygon class="st2" points="97.4,16.7 145,173.1 144.3,173.1 96.7,16.7 				"/>
				<polygon class="st2" points="98.1,16.7 145.6,173.1 145,173.1 97.4,16.7 				"/>
				<polygon class="st2" points="98.7,16.7 146.3,173.1 145.6,173.1 98.1,16.7 				"/>
				<polygon class="st2" points="99.4,16.7 147,173.1 146.3,173.1 98.7,16.7 				"/>
				<polygon class="st2" points="100.1,16.7 147.6,173.1 147,173.1 99.4,16.7 				"/>
				<polygon class="st2" points="100.7,16.7 148.3,173.1 147.6,173.1 100.1,16.7 				"/>
				<polygon class="st2" points="101.4,16.7 149,173.1 148.3,173.1 100.7,16.7 				"/>
				<polygon class="st2" points="102,16.7 149.6,173.1 149,173.1 101.4,16.7 				"/>
				<polygon class="st2" points="102.7,16.7 150.3,173.1 149.6,173.1 102,16.7 				"/>
				<polygon class="st2" points="103.4,16.7 151,173.1 150.3,173.1 102.7,16.7 				"/>
				<polygon class="st2" points="104,16.7 151.6,173.1 151,173.1 103.4,16.7 				"/>
				<polygon class="st2" points="104.7,16.7 152.3,173.1 151.6,173.1 104,16.7 				"/>
				<polygon class="st2" points="105.4,16.7 153,173.1 152.3,173.1 104.7,16.7 				"/>
				<polygon class="st2" points="106,16.7 153.6,173.1 153,173.1 105.4,16.7 				"/>
				<polygon class="st2" points="106.7,16.7 154.3,173.1 153.6,173.1 106,16.7 				"/>
				<polygon class="st2" points="107.4,16.7 154.9,173.1 154.3,173.1 106.7,16.7 				"/>
				<polygon class="st2" points="108,16.7 155.6,173.1 154.9,173.1 107.4,16.7 				"/>
				<polygon class="st2" points="108.7,16.7 156.3,173.1 155.6,173.1 108,16.7 				"/>
				<polygon class="st2" points="109.4,16.7 156.9,173.1 156.3,173.1 108.7,16.7 				"/>
				<polygon class="st2" points="110,16.7 157.6,173.1 156.9,173.1 109.4,16.7 				"/>
				<polygon class="st2" points="110.7,16.7 158.3,173.1 157.6,173.1 110,16.7 				"/>
				<polygon class="st2" points="111.4,16.7 158.9,173.1 158.3,173.1 110.7,16.7 				"/>
				<polygon class="st2" points="112,16.7 159.6,173.1 159.4,173.1 158.9,173.1 111.4,16.7 				"/>
				<polygon class="st2" points="112.7,16.7 160.2,172.9 159.6,173.1 112,16.7 				"/>
				<polygon class="st2" points="113.4,16.7 160.8,172.7 160.2,172.9 112.7,16.7 				"/>
				<polygon class="st2" points="114,16.7 161.4,172.5 160.8,172.7 113.4,16.7 				"/>
				<polygon class="st2" points="114.7,16.7 162,172.3 161.4,172.5 114,16.7 				"/>
				<polygon class="st2" points="115.3,16.7 162.6,172.1 162,172.3 114.7,16.7 				"/>
				<polygon class="st2" points="116,16.7 163.2,172 162.6,172.1 115.3,16.7 				"/>
				<polygon class="st2" points="116.7,16.7 163.8,171.8 163.2,172 116,16.7 				"/>
				<polygon class="st2" points="117.3,16.7 164.5,171.6 163.8,171.8 116.7,16.7 				"/>
				<polygon class="st2" points="118,16.7 165.1,171.4 164.5,171.6 117.3,16.7 				"/>
				<polygon class="st2" points="118.7,16.7 165.7,171.2 165.1,171.4 118,16.7 				"/>
				<polygon class="st2" points="119.3,16.7 166.3,171 165.7,171.2 118.7,16.7 				"/>
				<polygon class="st2" points="120,16.7 166.9,170.9 166.3,171 119.3,16.7 				"/>
				<polygon class="st2" points="120.7,16.7 167.5,170.7 166.9,170.9 120,16.7 				"/>
				<polygon class="st2" points="121.3,16.7 168.1,170.5 167.5,170.7 120.7,16.7 				"/>
				<polygon class="st2" points="122,16.7 168.7,170.3 168.1,170.5 121.3,16.7 				"/>
				<polygon class="st2" points="122.7,16.7 169.3,170.1 168.7,170.3 122,16.7 				"/>
				<polygon class="st2" points="123.3,16.7 169.9,169.9 169.3,170.1 122.7,16.7 				"/>
				<polygon class="st2" points="124,16.7 170.5,169.7 169.9,169.9 123.3,16.7 				"/>
				<polygon class="st2" points="124.7,16.7 171.1,169.6 170.5,169.7 124,16.7 				"/>
				<polygon class="st2" points="125.3,16.7 171.8,169.4 171.1,169.6 124.7,16.7 				"/>
				<polygon class="st2" points="126,16.7 172.4,169.2 171.8,169.4 125.3,16.7 				"/>
				<polygon class="st2" points="126.6,16.7 173,169 172.4,169.2 126,16.7 				"/>
				<polygon class="st2" points="127.3,16.7 173.6,168.8 173,169 126.6,16.7 				"/>
				<polygon class="st2" points="128,16.7 174.2,168.6 173.6,168.8 127.3,16.7 				"/>
				<polygon class="st2" points="128.6,16.7 174.8,168.4 174.2,168.6 128,16.7 				"/>
				<polygon class="st2" points="129.3,16.7 175.4,168.3 174.8,168.4 128.6,16.7 				"/>
				<polygon class="st2" points="130,16.7 176,168.1 175.4,168.3 129.3,16.7 				"/>
				<polygon class="st2" points="130.6,16.7 176.6,167.9 176,168.1 130,16.7 				"/>
				<polygon class="st2" points="131.3,16.7 177.2,167.7 176.6,167.9 130.6,16.7 				"/>
				<polygon class="st2" points="132,16.7 177.8,167.5 177.2,167.7 131.3,16.7 				"/>
				<polygon class="st2" points="132.6,16.7 178.4,167.3 177.8,167.5 132,16.7 				"/>
				<polygon class="st2" points="133.3,16.7 179.1,167.2 178.4,167.3 132.6,16.7 				"/>
				<polygon class="st2" points="134,16.7 179.7,167 179.1,167.2 133.3,16.7 				"/>
				<polygon class="st2" points="134.6,16.7 180.3,166.8 179.7,167 134,16.7 				"/>
				<polygon class="st2" points="135.3,16.7 180.9,166.6 180.3,166.8 134.6,16.7 				"/>
				<polygon class="st2" points="136,16.7 181.5,166.4 180.9,166.6 135.3,16.7 				"/>
				<polygon class="st2" points="136.6,16.7 182.1,166.2 181.5,166.4 136,16.7 				"/>
				<polygon class="st2" points="137.3,16.7 182.7,166 182.1,166.2 136.6,16.7 				"/>
				<polygon class="st2" points="137.9,16.7 183.3,165.9 182.7,166 137.3,16.7 				"/>
				<polygon class="st2" points="138.6,16.7 183.8,165.3 183.8,165.7 183.3,165.9 137.9,16.7 				"/>
				<polygon class="st2" points="139.3,16.7 183.8,163.1 183.8,165.3 138.6,16.7 				"/>
				<polygon class="st2" points="139.9,16.7 183.8,161 183.8,163.1 139.3,16.7 				"/>
				<polygon class="st2" points="140.6,16.7 183.8,158.8 183.8,161 139.9,16.7 				"/>
				<polygon class="st2" points="141.3,16.7 183.8,156.6 183.8,158.8 140.6,16.7 				"/>
				<polygon class="st2" points="141.9,16.7 183.8,154.4 183.8,156.6 141.3,16.7 				"/>
				<polygon class="st2" points="142.6,16.7 183.8,152.2 183.8,154.4 141.9,16.7 				"/>
				<polygon class="st2" points="143.3,16.7 183.8,150 183.8,152.2 142.6,16.7 				"/>
				<polygon class="st2" points="143.9,16.7 183.8,147.8 183.8,150 143.3,16.7 				"/>
				<polygon class="st2" points="144.6,16.7 183.8,145.6 183.8,147.8 143.9,16.7 				"/>
				<polygon class="st2" points="145.3,16.7 183.8,143.5 183.8,145.6 144.6,16.7 				"/>
				<polygon class="st2" points="145.9,16.7 183.8,141.3 183.8,143.5 145.3,16.7 				"/>
				<polygon class="st2" points="183.8,141.3 145.9,16.7 183.8,16.7 				"/>
			</g>
		</g>
		<g class="st1">
			<g>
				<defs>
					<circle id="SVGID_6_" cx="105.6" cy="94.9" r="78.2"/>
				</defs>
				<clipPath id="SVGID_7_">
					<use xlink:href="#SVGID_6_"  style="overflow:visible;"/>
				</clipPath>
				<polygon class="st3" points="27.3,118.6 43.9,173.1 27.3,173.1 				"/>
				<polygon class="st3" points="27.3,116.4 44.6,173.1 43.9,173.1 27.3,118.6 				"/>
				<polygon class="st4" points="27.3,114.2 45.3,173.1 44.6,173.1 27.3,116.4 				"/>
				<polygon class="st5" points="27.3,112.1 45.9,173.1 45.3,173.1 27.3,114.2 				"/>
				<polygon class="st6" points="27.3,109.9 46.6,173.1 45.9,173.1 27.3,112.1 				"/>
				<polygon class="st7" points="27.3,107.7 47.2,173.1 46.6,173.1 27.3,109.9 				"/>
				<polygon class="st7" points="27.3,105.5 47.9,173.1 47.2,173.1 27.3,107.7 				"/>
				<polygon class="st8" points="27.3,103.3 48.6,173.1 47.9,173.1 27.3,105.5 				"/>
				<polygon class="st9" points="27.3,101.1 49.2,173.1 48.6,173.1 27.3,103.3 				"/>
				<polygon class="st10" points="27.3,98.9 49.9,173.1 49.2,173.1 27.3,101.1 				"/>
				<polygon class="st11" points="27.3,96.8 50.6,173.1 49.9,173.1 27.3,98.9 				"/>
				<polygon class="st11" points="27.3,94.6 51.2,173.1 50.6,173.1 27.3,96.8 				"/>
				<polygon class="st12" points="27.3,92.4 51.9,173.1 51.2,173.1 27.3,94.6 				"/>
				<polygon class="st13" points="27.3,90.2 52.6,173.1 51.9,173.1 27.3,92.4 				"/>
				<polygon class="st13" points="27.3,88 53.2,173.1 52.6,173.1 27.3,90.2 				"/>
				<polygon class="st14" points="27.3,85.8 53.9,173.1 53.2,173.1 27.3,88 				"/>
				<polygon class="st15" points="27.3,83.6 54.6,173.1 53.9,173.1 27.3,85.8 				"/>
				<polygon class="st16" points="27.3,81.5 55.2,173.1 54.6,173.1 27.3,83.6 				"/>
				<polygon class="st16" points="27.3,79.3 55.9,173.1 55.2,173.1 27.3,81.5 				"/>
				<polygon class="st17" points="27.3,77.1 56.6,173.1 55.9,173.1 27.3,79.3 				"/>
				<polygon class="st18" points="27.3,74.9 57.2,173.1 56.6,173.1 27.3,77.1 				"/>
				<polygon class="st18" points="27.3,72.7 57.9,173.1 57.2,173.1 27.3,74.9 				"/>
				<polygon class="st19" points="27.3,70.5 58.6,173.1 57.9,173.1 27.3,72.7 				"/>
				<polygon class="st20" points="27.3,68.3 59.2,173.1 58.6,173.1 27.3,70.5 				"/>
				<polygon class="st20" points="27.3,66.1 59.9,173.1 59.2,173.1 27.3,68.3 				"/>
				<polygon class="st21" points="27.3,64 60.5,173.1 59.9,173.1 27.3,66.1 				"/>
				<polygon class="st22" points="27.3,61.8 61.2,173.1 60.5,173.1 27.3,64 				"/>
				<polygon class="st22" points="27.3,59.6 61.9,173.1 61.2,173.1 27.3,61.8 				"/>
				<polygon class="st23" points="27.3,57.4 62.5,173.1 61.9,173.1 27.3,59.6 				"/>
				<polygon class="st24" points="27.3,55.2 63.2,173.1 62.5,173.1 27.3,57.4 				"/>
				<polygon class="st25" points="27.3,53 63.9,173.1 63.2,173.1 27.3,55.2 				"/>
				<polygon class="st25" points="27.3,50.8 64.5,173.1 63.9,173.1 27.3,53 				"/>
				<polygon class="st26" points="27.3,48.7 65.2,173.1 64.5,173.1 27.3,50.8 				"/>
				<polygon class="st27" points="27.3,46.5 65.9,173.1 65.2,173.1 27.3,48.7 				"/>
				<polygon class="st27" points="27.3,44.3 66.5,173.1 65.9,173.1 27.3,46.5 				"/>
				<polygon class="st28" points="27.3,42.1 67.2,173.1 66.5,173.1 27.3,44.3 				"/>
				<polygon class="st28" points="27.3,39.9 67.9,173.1 67.2,173.1 27.3,42.1 				"/>
				<polygon class="st29" points="27.3,37.7 68.5,173.1 67.9,173.1 27.3,39.9 				"/>
				<polygon class="st30" points="27.3,35.5 69.2,173.1 68.5,173.1 27.3,37.7 				"/>
				<polygon class="st30" points="27.3,33.4 69.9,173.1 69.2,173.1 27.3,35.5 				"/>
				<polygon class="st31" points="27.3,31.2 70.5,173.1 69.9,173.1 27.3,33.4 				"/>
				<polygon class="st32" points="27.3,29 71.2,173.1 70.5,173.1 27.3,31.2 				"/>
				<polygon class="st32" points="27.3,26.8 71.8,173.1 71.2,173.1 27.3,29 				"/>
				<polygon class="st33" points="27.3,24.6 72.5,173.1 71.8,173.1 27.3,26.8 				"/>
				<polygon class="st34" points="27.3,24.1 27.8,24 73.2,173.1 72.5,173.1 27.3,24.6 				"/>
				<polygon class="st34" points="27.8,24 28.4,23.8 73.8,173.1 73.2,173.1 				"/>
				<polygon class="st35" points="28.4,23.8 29,23.6 74.5,173.1 73.8,173.1 				"/>
				<polygon class="st36" points="29,23.6 29.6,23.4 75.2,173.1 74.5,173.1 				"/>
				<polygon class="st36" points="29.6,23.4 30.2,23.2 75.8,173.1 75.2,173.1 				"/>
				<polygon class="st37" points="30.2,23.2 30.9,23 76.5,173.1 75.8,173.1 				"/>
				<polygon class="st38" points="30.9,23 31.5,22.8 77.2,173.1 76.5,173.1 				"/>
				<polygon class="st38" points="31.5,22.8 32.1,22.7 77.8,173.1 77.2,173.1 				"/>
				<polygon class="st39" points="32.1,22.7 32.7,22.5 78.5,173.1 77.8,173.1 				"/>
				<polygon class="st39" points="32.7,22.5 33.3,22.3 79.2,173.1 78.5,173.1 				"/>
				<polygon class="st40" points="33.3,22.3 33.9,22.1 79.8,173.1 79.2,173.1 				"/>
				<polygon class="st41" points="33.9,22.1 34.5,21.9 80.5,173.1 79.8,173.1 				"/>
				<polygon class="st41" points="34.5,21.9 35.1,21.7 81.2,173.1 80.5,173.1 				"/>
				<polygon class="st42" points="35.1,21.7 35.7,21.6 81.8,173.1 81.2,173.1 				"/>
				<polygon class="st43" points="35.7,21.6 36.3,21.4 82.5,173.1 81.8,173.1 				"/>
				<polygon class="st43" points="36.3,21.4 36.9,21.2 83.1,173.1 82.5,173.1 				"/>
				<polygon class="st44" points="36.9,21.2 37.6,21 83.8,173.1 83.1,173.1 				"/>
				<polygon class="st45" points="37.6,21 38.2,20.8 84.5,173.1 83.8,173.1 				"/>
				<polygon class="st45" points="38.2,20.8 38.8,20.6 85.1,173.1 84.5,173.1 				"/>
				<polygon class="st46" points="38.8,20.6 39.4,20.4 85.8,173.1 85.1,173.1 				"/>
				<polygon class="st47" points="39.4,20.4 40,20.3 86.5,173.1 85.8,173.1 				"/>
				<polygon class="st47" points="40,20.3 40.6,20.1 87.1,173.1 86.5,173.1 				"/>
				<polygon class="st48" points="40.6,20.1 41.2,19.9 87.8,173.1 87.1,173.1 				"/>
				<polygon class="st49" points="41.2,19.9 41.8,19.7 88.5,173.1 87.8,173.1 				"/>
				<polygon class="st49" points="41.8,19.7 42.4,19.5 89.1,173.1 88.5,173.1 				"/>
				<polygon class="st50" points="42.4,19.5 43,19.3 89.8,173.1 89.1,173.1 				"/>
				<polygon class="st50" points="43,19.3 43.6,19.1 90.5,173.1 89.8,173.1 				"/>
				<polygon class="st51" points="43.6,19.1 44.2,19 91.1,173.1 90.5,173.1 				"/>
				<polygon class="st52" points="44.2,19 44.9,18.8 91.8,173.1 91.1,173.1 				"/>
				<polygon class="st52" points="44.9,18.8 45.5,18.6 92.5,173.1 91.8,173.1 				"/>
				<polygon class="st53" points="45.5,18.6 46.1,18.4 93.1,173.1 92.5,173.1 				"/>
				<polygon class="st54" points="46.1,18.4 46.7,18.2 93.8,173.1 93.1,173.1 				"/>
				<polygon class="st54" points="46.7,18.2 47.3,18 94.5,173.1 93.8,173.1 				"/>
				<polygon class="st55" points="47.3,18 47.9,17.8 95.1,173.1 94.5,173.1 				"/>
				<polygon class="st56" points="47.9,17.8 48.5,17.7 95.8,173.1 95.1,173.1 				"/>
				<polygon class="st56" points="48.5,17.7 49.1,17.5 96.4,173.1 95.8,173.1 				"/>
				<polygon class="st57" points="49.1,17.5 49.7,17.3 97.1,173.1 96.4,173.1 				"/>
				<polygon class="st58" points="49.7,17.3 50.3,17.1 97.8,173.1 97.1,173.1 				"/>
				<polygon class="st58" points="50.3,17.1 50.9,16.9 98.4,173.1 97.8,173.1 				"/>
				<polygon class="st59" points="50.9,16.9 51.5,16.7 99.1,173.1 98.4,173.1 				"/>
				<polygon class="st60" points="51.5,16.7 51.8,16.7 52.2,16.7 99.8,173.1 99.1,173.1 				"/>
				<polygon class="st60" points="52.9,16.7 100.4,173.1 99.8,173.1 52.2,16.7 				"/>
				<polygon class="st61" points="53.5,16.7 101.1,173.1 100.4,173.1 52.9,16.7 				"/>
				<polygon class="st62" points="54.2,16.7 101.8,173.1 101.1,173.1 53.5,16.7 				"/>
				<polygon class="st62" points="54.8,16.7 102.4,173.1 101.8,173.1 54.2,16.7 				"/>
				<polygon class="st63" points="55.5,16.7 103.1,173.1 102.4,173.1 54.8,16.7 				"/>
				<polygon class="st64" points="56.2,16.7 103.8,173.1 103.1,173.1 55.5,16.7 				"/>
				<polygon class="st64" points="56.8,16.7 104.4,173.1 103.8,173.1 56.2,16.7 				"/>
				<polygon class="st65" points="57.5,16.7 105.1,173.1 104.4,173.1 56.8,16.7 				"/>
				<polygon class="st66" points="58.2,16.7 105.8,173.1 105.1,173.1 57.5,16.7 				"/>
				<polygon class="st66" points="58.8,16.7 106.4,173.1 105.8,173.1 58.2,16.7 				"/>
				<polygon class="st67" points="59.5,16.7 107.1,173.1 106.4,173.1 58.8,16.7 				"/>
				<polygon class="st68" points="60.2,16.7 107.7,173.1 107.1,173.1 59.5,16.7 				"/>
				<polygon class="st68" points="60.8,16.7 108.4,173.1 107.7,173.1 60.2,16.7 				"/>
				<polygon class="st69" points="61.5,16.7 109.1,173.1 108.4,173.1 60.8,16.7 				"/>
				<polygon class="st69" points="62.2,16.7 109.7,173.1 109.1,173.1 61.5,16.7 				"/>
				<polygon class="st70" points="62.8,16.7 110.4,173.1 109.7,173.1 62.2,16.7 				"/>
				<polygon class="st71" points="63.5,16.7 111.1,173.1 110.4,173.1 62.8,16.7 				"/>
				<polygon class="st71" points="64.2,16.7 111.7,173.1 111.1,173.1 63.5,16.7 				"/>
				<polygon class="st72" points="64.8,16.7 112.4,173.1 111.7,173.1 64.2,16.7 				"/>
				<polygon class="st73" points="65.5,16.7 113.1,173.1 112.4,173.1 64.8,16.7 				"/>
				<polygon class="st73" points="66.1,16.7 113.7,173.1 113.1,173.1 65.5,16.7 				"/>
				<polygon class="st74" points="66.8,16.7 114.4,173.1 113.7,173.1 66.1,16.7 				"/>
				<polygon class="st75" points="67.5,16.7 115.1,173.1 114.4,173.1 66.8,16.7 				"/>
				<polygon class="st75" points="68.1,16.7 115.7,173.1 115.1,173.1 67.5,16.7 				"/>
				<polygon class="st76" points="68.8,16.7 116.4,173.1 115.7,173.1 68.1,16.7 				"/>
				<polygon class="st77" points="69.5,16.7 117.1,173.1 116.4,173.1 68.8,16.7 				"/>
				<polygon class="st77" points="70.1,16.7 117.7,173.1 117.1,173.1 69.5,16.7 				"/>
				<polygon class="st78" points="70.8,16.7 118.4,173.1 117.7,173.1 70.1,16.7 				"/>
				<polygon class="st79" points="71.5,16.7 119,173.1 118.4,173.1 70.8,16.7 				"/>
				<polygon class="st79" points="72.1,16.7 119.7,173.1 119,173.1 71.5,16.7 				"/>
				<polygon class="st80" points="72.8,16.7 120.4,173.1 119.7,173.1 72.1,16.7 				"/>
				<polygon class="st80" points="73.5,16.7 121,173.1 120.4,173.1 72.8,16.7 				"/>
				<polygon class="st81" points="74.1,16.7 121.7,173.1 121,173.1 73.5,16.7 				"/>
				<polygon class="st82" points="74.8,16.7 122.4,173.1 121.7,173.1 74.1,16.7 				"/>
				<polygon class="st82" points="75.5,16.7 123,173.1 122.4,173.1 74.8,16.7 				"/>
				<polygon class="st83" points="76.1,16.7 123.7,173.1 123,173.1 75.5,16.7 				"/>
				<polygon class="st84" points="76.8,16.7 124.4,173.1 123.7,173.1 76.1,16.7 				"/>
				<polygon class="st84" points="77.5,16.7 125,173.1 124.4,173.1 76.8,16.7 				"/>
				<polygon class="st85" points="78.1,16.7 125.7,173.1 125,173.1 77.5,16.7 				"/>
				<polygon class="st86" points="78.8,16.7 126.4,173.1 125.7,173.1 78.1,16.7 				"/>
				<polygon class="st86" points="79.4,16.7 127,173.1 126.4,173.1 78.8,16.7 				"/>
				<polygon class="st87" points="80.1,16.7 127.7,173.1 127,173.1 79.4,16.7 				"/>
				<polygon class="st87" points="80.8,16.7 128.4,173.1 127.7,173.1 80.1,16.7 				"/>
				<polygon class="st88" points="81.4,16.7 129,173.1 128.4,173.1 80.8,16.7 				"/>
				<polygon class="st89" points="82.1,16.7 129.7,173.1 129,173.1 81.4,16.7 				"/>
				<polygon class="st89" points="82.8,16.7 130.4,173.1 129.7,173.1 82.1,16.7 				"/>
				<polygon class="st90" points="83.4,16.7 131,173.1 130.4,173.1 82.8,16.7 				"/>
				<polygon class="st91" points="84.1,16.7 131.7,173.1 131,173.1 83.4,16.7 				"/>
				<polygon class="st91" points="84.8,16.7 132.3,173.1 131.7,173.1 84.1,16.7 				"/>
				<polygon class="st92" points="85.4,16.7 133,173.1 132.3,173.1 84.8,16.7 				"/>
				<polygon class="st92" points="86.1,16.7 133.7,173.1 133,173.1 85.4,16.7 				"/>
				<polygon class="st93" points="86.8,16.7 134.3,173.1 133.7,173.1 86.1,16.7 				"/>
				<polygon class="st94" points="87.4,16.7 135,173.1 134.3,173.1 86.8,16.7 				"/>
				<polygon class="st94" points="88.1,16.7 135.7,173.1 135,173.1 87.4,16.7 				"/>
				<polygon class="st95" points="88.8,16.7 136.3,173.1 135.7,173.1 88.1,16.7 				"/>
				<polygon class="st95" points="89.4,16.7 137,173.1 136.3,173.1 88.8,16.7 				"/>
				<polygon class="st96" points="90.1,16.7 137.7,173.1 137,173.1 89.4,16.7 				"/>
				<polygon class="st97" points="90.7,16.7 138.3,173.1 137.7,173.1 90.1,16.7 				"/>
				<polygon class="st97" points="91.4,16.7 139,173.1 138.3,173.1 90.7,16.7 				"/>
				<polygon class="st98" points="92.1,16.7 139.7,173.1 139,173.1 91.4,16.7 				"/>
				<polygon class="st99" points="92.7,16.7 140.3,173.1 139.7,173.1 92.1,16.7 				"/>
				<polygon class="st100" points="93.4,16.7 141,173.1 140.3,173.1 92.7,16.7 				"/>
				<polygon class="st101" points="94.1,16.7 141.7,173.1 141,173.1 93.4,16.7 				"/>
				<polygon class="st102" points="94.7,16.7 142.3,173.1 141.7,173.1 94.1,16.7 				"/>
				<polygon class="st103" points="95.4,16.7 143,173.1 142.3,173.1 94.7,16.7 				"/>
				<polygon class="st104" points="96.1,16.7 143.6,173.1 143,173.1 95.4,16.7 				"/>
				<polygon class="st105" points="96.7,16.7 144.3,173.1 143.6,173.1 96.1,16.7 				"/>
				<polygon class="st106" points="97.4,16.7 145,173.1 144.3,173.1 96.7,16.7 				"/>
				<polygon class="st107" points="98.1,16.7 145.6,173.1 145,173.1 97.4,16.7 				"/>
				<polygon class="st108" points="98.7,16.7 146.3,173.1 145.6,173.1 98.1,16.7 				"/>
				<polygon class="st109" points="99.4,16.7 147,173.1 146.3,173.1 98.7,16.7 				"/>
				<polygon class="st110" points="100.1,16.7 147.6,173.1 147,173.1 99.4,16.7 				"/>
				<polygon class="st111" points="100.7,16.7 148.3,173.1 147.6,173.1 100.1,16.7 				"/>
				<polygon class="st112" points="101.4,16.7 149,173.1 148.3,173.1 100.7,16.7 				"/>
				<polygon class="st113" points="102,16.7 149.6,173.1 149,173.1 101.4,16.7 				"/>
				<polygon class="st114" points="102.7,16.7 150.3,173.1 149.6,173.1 102,16.7 				"/>
				<polygon class="st115" points="103.4,16.7 151,173.1 150.3,173.1 102.7,16.7 				"/>
				<polygon class="st116" points="104,16.7 151.6,173.1 151,173.1 103.4,16.7 				"/>
				<polygon class="st117" points="104.7,16.7 152.3,173.1 151.6,173.1 104,16.7 				"/>
				<polygon class="st118" points="105.4,16.7 153,173.1 152.3,173.1 104.7,16.7 				"/>
				<polygon class="st119" points="106,16.7 153.6,173.1 153,173.1 105.4,16.7 				"/>
				<polygon class="st120" points="106.7,16.7 154.3,173.1 153.6,173.1 106,16.7 				"/>
				<polygon class="st121" points="107.4,16.7 154.9,173.1 154.3,173.1 106.7,16.7 				"/>
				<polygon class="st122" points="108,16.7 155.6,173.1 154.9,173.1 107.4,16.7 				"/>
				<polygon class="st123" points="108.7,16.7 156.3,173.1 155.6,173.1 108,16.7 				"/>
				<polygon class="st124" points="109.4,16.7 156.9,173.1 156.3,173.1 108.7,16.7 				"/>
				<polygon class="st125" points="110,16.7 157.6,173.1 156.9,173.1 109.4,16.7 				"/>
				<polygon class="st126" points="110.7,16.7 158.3,173.1 157.6,173.1 110,16.7 				"/>
				<polygon class="st127" points="111.4,16.7 158.9,173.1 158.3,173.1 110.7,16.7 				"/>
				<polygon class="st128" points="112,16.7 159.6,173.1 159.4,173.1 158.9,173.1 111.4,16.7 				"/>
				<polygon class="st129" points="112.7,16.7 160.2,172.9 159.6,173.1 112,16.7 				"/>
				<polygon class="st130" points="113.4,16.7 160.8,172.7 160.2,172.9 112.7,16.7 				"/>
				<polygon class="st131" points="114,16.7 161.4,172.5 160.8,172.7 113.4,16.7 				"/>
				<polygon class="st132" points="114.7,16.7 162,172.3 161.4,172.5 114,16.7 				"/>
				<polygon class="st133" points="115.3,16.7 162.6,172.1 162,172.3 114.7,16.7 				"/>
				<polygon class="st134" points="116,16.7 163.2,172 162.6,172.1 115.3,16.7 				"/>
				<polygon class="st135" points="116.7,16.7 163.8,171.8 163.2,172 116,16.7 				"/>
				<polygon class="st136" points="117.3,16.7 164.5,171.6 163.8,171.8 116.7,16.7 				"/>
				<polygon class="st137" points="118,16.7 165.1,171.4 164.5,171.6 117.3,16.7 				"/>
				<polygon class="st138" points="118.7,16.7 165.7,171.2 165.1,171.4 118,16.7 				"/>
				<polygon class="st139" points="119.3,16.7 166.3,171 165.7,171.2 118.7,16.7 				"/>
				<polygon class="st140" points="120,16.7 166.9,170.9 166.3,171 119.3,16.7 				"/>
				<polygon class="st141" points="120.7,16.7 167.5,170.7 166.9,170.9 120,16.7 				"/>
				<polygon class="st142" points="121.3,16.7 168.1,170.5 167.5,170.7 120.7,16.7 				"/>
				<polygon class="st143" points="122,16.7 168.7,170.3 168.1,170.5 121.3,16.7 				"/>
				<polygon class="st144" points="122.7,16.7 169.3,170.1 168.7,170.3 122,16.7 				"/>
				<polygon class="st145" points="123.3,16.7 169.9,169.9 169.3,170.1 122.7,16.7 				"/>
				<polygon class="st146" points="124,16.7 170.5,169.7 169.9,169.9 123.3,16.7 				"/>
				<polygon class="st147" points="124.7,16.7 171.1,169.6 170.5,169.7 124,16.7 				"/>
				<polygon class="st148" points="125.3,16.7 171.8,169.4 171.1,169.6 124.7,16.7 				"/>
				<polygon class="st149" points="126,16.7 172.4,169.2 171.8,169.4 125.3,16.7 				"/>
				<polygon class="st150" points="126.6,16.7 173,169 172.4,169.2 126,16.7 				"/>
				<polygon class="st151" points="127.3,16.7 173.6,168.8 173,169 126.6,16.7 				"/>
				<polygon class="st152" points="128,16.7 174.2,168.6 173.6,168.8 127.3,16.7 				"/>
				<polygon class="st153" points="128.6,16.7 174.8,168.4 174.2,168.6 128,16.7 				"/>
				<polygon class="st154" points="129.3,16.7 175.4,168.3 174.8,168.4 128.6,16.7 				"/>
				<polygon class="st155" points="130,16.7 176,168.1 175.4,168.3 129.3,16.7 				"/>
				<polygon class="st156" points="130.6,16.7 176.6,167.9 176,168.1 130,16.7 				"/>
				<polygon class="st157" points="131.3,16.7 177.2,167.7 176.6,167.9 130.6,16.7 				"/>
				<polygon class="st158" points="132,16.7 177.8,167.5 177.2,167.7 131.3,16.7 				"/>
				<polygon class="st159" points="132.6,16.7 178.4,167.3 177.8,167.5 132,16.7 				"/>
				<polygon class="st159" points="133.3,16.7 179.1,167.2 178.4,167.3 132.6,16.7 				"/>
				<polygon class="st160" points="134,16.7 179.7,167 179.1,167.2 133.3,16.7 				"/>
				<polygon class="st161" points="134.6,16.7 180.3,166.8 179.7,167 134,16.7 				"/>
				<polygon class="st162" points="135.3,16.7 180.9,166.6 180.3,166.8 134.6,16.7 				"/>
				<polygon class="st163" points="136,16.7 181.5,166.4 180.9,166.6 135.3,16.7 				"/>
				<polygon class="st164" points="136.6,16.7 182.1,166.2 181.5,166.4 136,16.7 				"/>
				<polygon class="st165" points="137.3,16.7 182.7,166 182.1,166.2 136.6,16.7 				"/>
				<polygon class="st166" points="137.9,16.7 183.3,165.9 182.7,166 137.3,16.7 				"/>
				<polygon class="st167" points="138.6,16.7 183.8,165.3 183.8,165.7 183.3,165.9 137.9,16.7 				"/>
				<polygon class="st168" points="139.3,16.7 183.8,163.1 183.8,165.3 138.6,16.7 				"/>
				<polygon class="st169" points="139.9,16.7 183.8,161 183.8,163.1 139.3,16.7 				"/>
				<polygon class="st170" points="140.6,16.7 183.8,158.8 183.8,161 139.9,16.7 				"/>
				<polygon class="st171" points="141.3,16.7 183.8,156.6 183.8,158.8 140.6,16.7 				"/>
				<polygon class="st172" points="141.9,16.7 183.8,154.4 183.8,156.6 141.3,16.7 				"/>
				<polygon class="st173" points="142.6,16.7 183.8,152.2 183.8,154.4 141.9,16.7 				"/>
				<polygon class="st174" points="143.3,16.7 183.8,150 183.8,152.2 142.6,16.7 				"/>
				<polygon class="st175" points="143.9,16.7 183.8,147.8 183.8,150 143.3,16.7 				"/>
				<polygon class="st176" points="144.6,16.7 183.8,145.6 183.8,147.8 143.9,16.7 				"/>
				<polygon class="st177" points="145.3,16.7 183.8,143.5 183.8,145.6 144.6,16.7 				"/>
				<polygon class="st177" points="145.9,16.7 183.8,141.3 183.8,143.5 145.3,16.7 				"/>
				<polygon class="st177" points="183.8,141.3 145.9,16.7 183.8,16.7 				"/>
			</g>
		</g>
		<g class="st1">
			<g>
				<path class="st178" d="M57.1,96.9c-3.2,0-5.8-2.6-5.8-5.8s2.6-5.8,5.8-5.8c3.2,0,5.8,2.6,5.8,5.8S60.3,96.9,57.1,96.9z
					 M57.1,86.8c-2.4,0-4.3,1.9-4.3,4.3c0,2.4,1.9,4.3,4.3,4.3c2.4,0,4.3-1.9,4.3-4.3C61.4,88.8,59.5,86.8,57.1,86.8z"/>
			</g>
			<g>
				<path class="st178" d="M48.2,57c-6.5,0-11.8-5.3-11.8-11.8s5.3-11.8,11.8-11.8c6.5,0,11.8,5.3,11.8,11.8S54.7,57,48.2,57z
					 M48.2,35C42.6,35,38,39.6,38,45.2s4.6,10.2,10.2,10.2c5.6,0,10.2-4.6,10.2-10.2S53.8,35,48.2,35z"/>
			</g>
			<g>
				
					<rect x="37.1" y="70.1" transform="matrix(0.1762 0.9844 -0.9844 0.1762 113.0432 6.68)" class="st178" width="30.8" height="1.5"/>
			</g>
			<g>
				<polygon class="st178" points="61.7,90.6 61.6,89.1 111.1,85.4 111.2,86.9 				"/>
			</g>
			<g>
				
					<rect x="54.9" y="105" transform="matrix(0.6711 0.7414 -0.7414 0.6711 101.2875 -16.7398)" class="st178" width="29.2" height="1.5"/>
			</g>
			<g>
				
					<rect x="102.3" y="84.3" transform="matrix(0.774 0.6332 -0.6332 0.774 88.9643 -41.8007)" class="st178" width="1.5" height="38.7"/>
			</g>
			<g>
				<path class="st178" d="M155.5,88.6c-3.2,0-5.8-2.6-5.8-5.8c0-3.2,2.6-5.8,5.8-5.8c3.2,0,5.8,2.6,5.8,5.8
					C161.3,86,158.7,88.6,155.5,88.6z M155.5,78.5c-2.4,0-4.3,1.9-4.3,4.3c0,2.4,1.9,4.3,4.3,4.3c2.4,0,4.3-1.9,4.3-4.3
					C159.8,80.4,157.8,78.5,155.5,78.5z"/>
			</g>
			<g>
				<path class="st178" d="M139.1,62.1c-4.8,0-8.7-3.9-8.7-8.7s3.9-8.7,8.7-8.7s8.7,3.9,8.7,8.7S143.9,62.1,139.1,62.1z M139.1,46.3
					c-3.9,0-7.1,3.2-7.1,7.1s3.2,7.1,7.1,7.1c3.9,0,7.1-3.2,7.1-7.1S143,46.3,139.1,46.3z"/>
			</g>
			<g>
				<path class="st178" d="M160.4,157.8c-7.2,0-13-5.9-13-13s5.9-13,13-13c7.2,0,13,5.9,13,13S167.6,157.8,160.4,157.8z
					 M160.4,133.2c-6.3,0-11.5,5.2-11.5,11.5s5.2,11.5,11.5,11.5c6.3,0,11.5-5.2,11.5-11.5S166.8,133.2,160.4,133.2z"/>
			</g>
			<g>
				<path class="st178" d="M91.9,61.2c-3,0-5.4-2.4-5.4-5.4s2.4-5.4,5.4-5.4c3,0,5.4,2.4,5.4,5.4S94.9,61.2,91.9,61.2z M91.9,51.9
					c-2.2,0-3.9,1.7-3.9,3.9s1.7,3.9,3.9,3.9c2.2,0,3.9-1.7,3.9-3.9S94.1,51.9,91.9,51.9z"/>
			</g>
			<g>
				<path class="st178" d="M108.2,157.6c-2.6,0-4.8-2.1-4.8-4.8s2.1-4.8,4.8-4.8c2.6,0,4.8,2.1,4.8,4.8S110.8,157.6,108.2,157.6z
					 M108.2,149.6c-1.8,0-3.2,1.5-3.2,3.2c0,1.8,1.5,3.2,3.2,3.2c1.8,0,3.2-1.5,3.2-3.2C111.4,151,110,149.6,108.2,149.6z"/>
			</g>
			<g>
				<path class="st178" d="M56.6,191.7c-13.1,0-23.7-10.6-23.7-23.7c0-13.1,10.6-23.7,23.7-23.7s23.7,10.6,23.7,23.7
					C80.3,181,69.7,191.7,56.6,191.7z M56.6,145.8c-12.2,0-22.2,9.9-22.2,22.2c0,12.2,9.9,22.2,22.2,22.2s22.2-9.9,22.2-22.2
					C78.7,155.8,68.8,145.8,56.6,145.8z"/>
			</g>
			<g>
				
					<rect x="75.2" y="128.8" transform="matrix(0.8736 0.4866 -0.4866 0.8736 77.6643 -19.3093)" class="st178" width="1.5" height="22.2"/>
			</g>
			<g>
				
					<rect x="90.5" y="144.3" transform="matrix(0.2577 0.9662 -0.9662 0.2577 220.2222 28.9291)" class="st178" width="1.5" height="26.9"/>
			</g>
			<g>
				
					<rect x="128.9" y="130.5" transform="matrix(0.1425 0.9898 -0.9898 0.1425 258.1601 -1.081)" class="st178" width="1.5" height="35.9"/>
			</g>
			<g>
				
					<rect x="91.2" y="131.3" transform="matrix(0.9665 0.2566 -0.2566 0.9665 37.9367 -26.5604)" class="st178" width="59" height="1.5"/>
			</g>
			<g>
				
					<rect x="136.1" y="109.1" transform="matrix(7.659476e-02 0.9971 -0.9971 7.659476e-02 256.1173 -56.7453)" class="st178" width="45.2" height="1.5"/>
			</g>
			<g>
				<polygon class="st178" points="126.1,84.9 126.1,83.4 150.5,83.2 150.5,84.7 				"/>
			</g>
			<g>
				
					<rect x="138.5" y="68.5" transform="matrix(0.4679 0.8838 -0.8838 0.4679 140.523 -94.9281)" class="st178" width="21.1" height="1.5"/>
			</g>
			<g>
				
					<rect x="112.8" y="37.2" transform="matrix(8.207510e-02 0.9966 -0.9966 8.207510e-02 158.9715 -62.8245)" class="st178" width="1.5" height="35.3"/>
			</g>
			<g>
				<polygon class="st178" points="110.8,79.7 94.9,58.8 95.9,58 111.8,78.9 				"/>
			</g>
			<g>
				
					<rect x="74" y="53" transform="matrix(0.6933 0.7206 -0.7206 0.6933 75.6104 -31.5041)" class="st178" width="1.5" height="40.1"/>
			</g>
			<g>
				<path class="st178" d="M112.4,31.7c-7.5,0-13.6-6.1-13.6-13.6s6.1-13.6,13.6-13.6S126,10.6,126,18.1S119.9,31.7,112.4,31.7z
					 M112.4,6c-6.6,0-12.1,5.4-12.1,12.1s5.4,12.1,12.1,12.1c6.6,0,12.1-5.4,12.1-12.1S119,6,112.4,6z"/>
			</g>
			<g>
				
					<rect x="98.6" y="27" transform="matrix(0.8836 0.4682 -0.4682 0.8836 30.2781 -41.8937)" class="st178" width="1.5" height="26"/>
			</g>
			<g>
				
					<rect x="115.3" y="36.6" transform="matrix(0.5678 0.8232 -0.8232 0.5678 85.7468 -88.6619)" class="st178" width="24" height="1.5"/>
			</g>
			<g>
				<polygon class="st178" points="150.6,136.5 120.5,91.1 121.7,90.3 151.8,135.7 				"/>
			</g>
			<g>
				
					<rect x="83" y="139.2" transform="matrix(0.6635 0.7482 -0.7482 0.6635 137.3199 -25.2804)" class="st178" width="27.5" height="1.5"/>
			</g>
			<g>
				
					<rect x="58" y="50.6" transform="matrix(0.9759 0.2184 -0.2184 0.9759 12.9714 -14.6531)" class="st178" width="29.6" height="1.5"/>
			</g>
			<g>
				
					<rect x="79.1" y="10.4" transform="matrix(0.3592 0.9332 -0.9332 0.3592 81.969 -53.3719)" class="st178" width="1.5" height="45.3"/>
			</g>
			<g>
				<path class="st178" d="M176.2,71c-3.5,0-6.3-2.8-6.3-6.3c0-3.5,2.8-6.3,6.3-6.3s6.3,2.8,6.3,6.3C182.5,68.2,179.7,71,176.2,71z
					 M176.2,60c-2.6,0-4.7,2.1-4.7,4.7c0,2.6,2.1,4.7,4.7,4.7s4.7-2.1,4.7-4.7C180.9,62.1,178.8,60,176.2,60z"/>
			</g>
			<g>
				<path class="st178" d="M156.9,39.4c-2.2,0-4-1.8-4-4c0-2.2,1.8-4,4-4c2.2,0,4,1.8,4,4C160.8,37.7,159.1,39.4,156.9,39.4z
					 M156.9,33c-1.3,0-2.4,1.1-2.4,2.4c0,1.3,1.1,2.4,2.4,2.4c1.3,0,2.4-1.1,2.4-2.4C159.3,34.1,158.2,33,156.9,33z"/>
			</g>
			<g>
				<path class="st178" d="M27.7,94.1c-4.2,0-7.6-3.4-7.6-7.6c0-4.2,3.4-7.6,7.6-7.6c4.2,0,7.6,3.4,7.6,7.6
					C35.2,90.8,31.8,94.1,27.7,94.1z M27.7,80.6c-3.3,0-6,2.7-6,6c0,3.3,2.7,6,6,6c3.3,0,6-2.7,6-6C33.7,83.3,31,80.6,27.7,80.6z"/>
			</g>
			<g>
				<path class="st178" d="M43.5,121.4c-1.6,0-2.9-1.3-2.9-2.9c0-1.6,1.3-2.9,2.9-2.9c1.6,0,2.9,1.3,2.9,2.9
					C46.4,120.1,45.1,121.4,43.5,121.4z M43.5,117.1c-0.7,0-1.4,0.6-1.4,1.4c0,0.8,0.6,1.4,1.4,1.4c0.8,0,1.4-0.6,1.4-1.4
					C44.9,117.7,44.3,117.1,43.5,117.1z"/>
			</g>
			<g>
				
					<rect x="34.3" y="88.9" transform="matrix(0.9912 0.1327 -0.1327 0.9912 12.2731 -4.9169)" class="st178" width="17.4" height="1.5"/>
			</g>
			<g>
				
					<rect x="24.4" y="103.6" transform="matrix(0.4008 0.9162 -0.9162 0.4008 118.0959 28.2324)" class="st178" width="26.1" height="1.5"/>
			</g>
			<g>
				
					<rect x="45.4" y="120.6" transform="matrix(0.989 0.1479 -0.1479 0.989 18.6196 -7.6817)" class="st178" width="31.2" height="1.5"/>
			</g>
			<g>
				
					<rect x="35.1" y="132.5" transform="matrix(0.2922 0.9564 -0.9564 0.2922 161.3367 48.4545)" class="st178" width="25.6" height="1.5"/>
			</g>
			<g>
				
					<rect x="164.8" y="65.4" transform="matrix(0.7129 0.7012 -0.7012 0.7129 99.5303 -94.8358)" class="st178" width="1.5" height="17.5"/>
			</g>
			<g>
				
					<rect x="145.8" y="59.6" transform="matrix(0.9565 0.2919 -0.2919 0.9565 24.5331 -43.6638)" class="st178" width="25.7" height="1.5"/>
			</g>
			<g>
				
					<rect x="149.5" y="36.6" transform="matrix(0.8177 0.5757 -0.5757 0.8177 52.4572 -78.5816)" class="st178" width="1.5" height="13.8"/>
			</g>
			<g>
				<path class="st178" d="M184.2,111.1c-2.5,0-4.5-2-4.5-4.5c0-2.5,2-4.5,4.5-4.5s4.5,2,4.5,4.5
					C188.7,109.1,186.7,111.1,184.2,111.1z M184.2,103.7c-1.6,0-2.9,1.3-2.9,2.9s1.3,2.9,2.9,2.9s2.9-1.3,2.9-2.9
					S185.8,103.7,184.2,103.7z"/>
			</g>
			<g>
				
					<rect x="162.5" y="85.8" transform="matrix(0.1543 0.988 -0.988 0.1543 237.4965 -104.245)" class="st178" width="34.3" height="1.5"/>
			</g>
			<g>
				
					<rect x="173.3" y="106.9" transform="matrix(0.8812 0.4728 -0.4728 0.8812 78.1127 -67.8752)" class="st178" width="1.5" height="29.2"/>
			</g>
			<g>
				
					<rect x="36.2" y="53.6" transform="matrix(0.8944 0.4472 -0.4472 0.8944 34.2609 -9.3552)" class="st178" width="1.5" height="28.5"/>
			</g>
			<g>
				
					<rect x="152.8" y="48.4" transform="matrix(0.5935 0.8048 -0.8048 0.5935 106.8828 -113.3576)" class="st178" width="25.8" height="1.5"/>
			</g>
			<g>
				
					<rect x="123.3" y="28.3" transform="matrix(0.9318 0.363 -0.363 0.9318 20.0211 -48.4851)" class="st178" width="31.4" height="1.5"/>
			</g>
			<g>
				<path class="st178" d="M122,180.6c-4.9,0-8.8-4-8.8-8.8c0-4.9,4-8.8,8.8-8.8c4.9,0,8.8,4,8.8,8.8
					C130.8,176.6,126.8,180.6,122,180.6z M122,164.4c-4,0-7.3,3.3-7.3,7.3c0,4,3.3,7.3,7.3,7.3c4,0,7.3-3.3,7.3-7.3
					C129.3,167.7,126,164.4,122,164.4z"/>
			</g>
			<g>
				
					<rect x="79" y="168.2" transform="matrix(0.9937 0.1117 -0.1117 0.9937 19.4768 -9.6991)" class="st178" width="34.5" height="1.5"/>
			</g>
			<g>
				
					<rect x="139" y="146.3" transform="matrix(0.5766 0.817 -0.817 0.5766 189.7268 -46.4937)" class="st178" width="1.5" height="27.1"/>
			</g>
			<g>
				
					<rect x="108.5" y="159.4" transform="matrix(0.6203 0.7843 -0.7843 0.6203 168.967 -28.6201)" class="st178" width="11.1" height="1.5"/>
			</g>
			<g>
				<path class="st178" d="M84.3,131.3c-4.6,0-8.4-3.8-8.4-8.4c0-4.6,3.8-8.4,8.4-8.4s8.4,3.8,8.4,8.4
					C92.7,127.5,89,131.3,84.3,131.3z M84.3,116c-3.8,0-6.9,3.1-6.9,6.9c0,3.8,3.1,6.9,6.9,6.9s6.9-3.1,6.9-6.9
					C91.2,119.1,88.1,116,84.3,116z"/>
			</g>
			<g id="RuU5bd_6_">
				<g>
					<path class="st178" d="M121.6,102.8c-3.5-5.4-9.5-6.8-14.7-10c-5.1-3.1-5.4-9.4-1.8-13.9c1.7-2.1,4.5-3.2,7.1-2.8
						c2.6,0.4,5,2.2,6.1,4.7c0.9-3,3.4-5.6,6.4-6.4c3.1-0.8,6.7,0.5,8.2,3.3c3,5.5-2.1,10.8-4.9,15.1c-1.4,2.2-2.8,4.4-4.2,6.6
						C123.7,99.6,121.5,102.6,121.6,102.8z"/>
				</g>
			</g>
		</g>
	</g>
</g>
</svg>
