<svg id="Layer_1" data-name="Layer 1" xmlns="http://www.w3.org/2000/svg" xmlns:xlink="http://www.w3.org/1999/xlink" viewBox="0 0 720 720"><defs><style>.cls-1{fill:none;}.cls-2{clip-path:url(#clip-path);}.cls-3{fill:#95a3a6;}.cls-4{fill:#7c8690;}.cls-5{fill:#605d70;}</style><clipPath id="clip-path"><rect class="cls-1" x="-5.73" y="43.59" width="723.04" height="588.41"/></clipPath></defs><title>Artboard 1</title><g class="cls-2"><path class="cls-3" d="M-9.11,236.32c.19-2.37,7.09,2.8,10.65,3.49s9.26-.49,16-1.38,12-6.91,21.41-11.68a127.18,127.18,0,0,0,31.43-21.52c5.74-5.35,17.75-8.35,27.31-7.48s22.17,4.93,33.5,10.19,22.2,14.09,33.25,21.92,15.69,20.7,24.4,29.28c3.56,3.51,13,.57,18.82-.63s11.43-5.28,18-8.23,11.77-9.45,17.39-11.2,8.57,6.56,11.7,9c11.83,9.05,25.35,14.32,33.59,22.34s10.9,18.49,17.62,24.47,20.25,3.14,27.55,6.07,13.28,10.74,23.22,9.62c3.23-.36,21-17.1,24.62-21.93s1.88-12.5,5.94-14.84,5.71,1.51,10.34,4.78a70.31,70.31,0,0,0,18.19,9.18c5.64,1.69,12.09-7.33,17.2-8s8.36,1,12.07-2.38,10.48-6.09,11.91-12.44c1.54-6.83,24.65,6.38,32.59,14s10.44,22.37,20.14,26.31,21.88-1.31,32.38-8.3,20-7,27.26-7,16-1.69,21.23,2.23,9.13,10.28,13.69,15.16,7.11,10.66,12.23,13.49c14.63,8.09,29.41,14.2,41.62,12s18.5-15.5,27.46-22.54,18.21-12.92,23.1-19.22,4.27-15.56,6.86-9.7c2.68,6.07-2.6,6.17-2.08,12.61s6.91,6.1,7.43,12.54-2.61,6.61-2.09,13.05,1,6.36,1.12,12.81c.23,12.49,1.7,12.47,1.52,25s6.44,12.55,6.27,25-6.42,12.43-6.6,24.92-6.14,12.43-6.32,24.92,7.67,12.56,7.49,25-.9,12.48-1.07,25-7.92,12.42-8.09,24.9-.56,12.48-.73,25,7.95,12.56,7.78,25.05-6.85,12.43-7,24.91,1.32,12.5,1.15,25,10,13-.76,21.91c-10.57,8.69-11.18,2.73-26.19,2.73s-15,4.48-30,4.48-15-.64-30-.64-15-2.36-30-2.36-15-5-30-5-15,2.41-30,2.41-15,2-30,2-15,4.45-30,4.45-15-3.85-30-3.85-15,2.07-30,2.07-15-8.75-30-8.75-15,11.12-30,11.12-15-4.47-30-4.47-15,4.82-30,4.82-15-3.78-30-3.78-15-4-30-4-15-2.13-30-2.13-15,.63-30,.63-15,.22-30,.22-15-1.73-30-1.73-15,4.18-30,4.18-15-2.28-30-2.28-15-.51-30-.51S6.25,641.4-4.32,632.71s-.75-13.06-.75-25.42,3.91-12.35,3.91-24.71-6.63-12.36-6.63-24.71-1.45-12.36-1.45-24.71,6.69-12.36,6.69-24.71S-6,496.09-6,483.73.73,471.38.73,459s-2.16-12.36-2.16-24.71S-4.17,422-4.17,409.6s-2.37-12.35-2.37-24.71.3-12.36.3-24.71.52-12.36.52-24.71,7.47-12.36,7.47-24.71S-8.61,298.4-8.61,286s10.2-12.82,8-25C-2.84,248.31-10.09,248.65-9.11,236.32Z"/><path class="cls-4" d="M720.87,342.37c-12.3-7.1-15.72,12-29.47,17s-12.46,7.38-26.21,12.41-15.31,4.62-30.38,4.82c-17.42.23-13.13-5.91-27.83-17.16-7.64-5.84-13-15.29-23.33-20.92a154.67,154.67,0,0,0-31-12.34c-10.93-3.19-21.68-2.13-33.42-1.65-10.94.45-21.62-.12-32.69,4.93-9,4.12-16.93,10.25-25.7,18.25-8.05,7.35-15.41,13.53-22.16,17.36-10.65,6-22,9.82-30.21,9.21-9.77-.73-17.48-9.22-25.35-15.37-6.88-5.37-12.7-12.37-19.31-18.8s-10.51-16.5-18.07-21.14c-15.42-9.45-29.56-2.22-39.43,5.3-8.1,6.17-19.26,11.32-31.45,17.85-10.88,5.83-13.4,9.42-25.57,4.92-6.9-2.55-15.58-6.41-27.76-12.12-7.67-3.59-20.43-2.29-31.33-7.09-9.05-4-15.62-8.73-25.43-7.38-9.28,1.28-18.57-1.42-28.42-1.62-8.74-.17-14.95.31-24-5.54-6.17-4-17.61-5.56-23.92-13.77-5.84-7.61-6.21-18.42-13-23.63-8-6.11-18.65-10-27-13.47-10-4.19-21.69-3.47-30.37-5C.54,254.36-9.2,242.26-14.84,253.76s7,13.39,7,25.86-8.25,12.47-8.25,24.94S-6.29,317-6.2,329.47c.1,13.62-12.58,13.71-12.39,27.34s10,13.53,10.15,27.16-9,13.71-8.77,27.33,3,13.6,3.24,27.22,9.29,13.54,9.48,27.16.16,13.62.35,27.25S-6,506.56-5.84,520.18s-.59,13.63-.4,27.25-6.53,13.69-6.34,27.31S-14.09,588.39-13.9,602s-7.46,18.92,4.31,28.6c11.53,9.48,18.12,2,34.5,2s16.38-1.26,32.76-1.26,16.38-4.73,32.76-4.73,16.38,2.66,32.76,2.66,16.38,3.84,32.76,3.84,16.38-7.58,32.76-7.58,16.38,6.61,32.76,6.61,16.38,1.18,32.76,1.18,16.38-7.82,32.76-7.82S303.35,630,319.73,630,336.11,634,352.49,634s16.38-.12,32.76-.12,16.38-7.79,32.76-7.79,16.38-2.23,32.76-2.23,16.38.76,32.76.76,16.38,2.19,32.76,2.19,16.38,4,32.76,4,16.38-2.6,32.76-2.6,16.38,6.57,32.77,6.57,16.38-2.58,32.76-2.58,16.38-2.28,32.77-2.28,25.17,12.16,37,3c11.43-8.86,1.91-16.46,2.11-29.31s-3.19-12.89-3-25.74-1.72-12.87-1.52-25.72-.72-12.86-.52-25.71,3.9-12.81,4.11-25.66S714,487.83,714.16,475s-1.38-12.87-1.18-25.72,9-12.76,9.22-25.61-11-13-10.77-25.82,3.88-12.65,8.3-25C725.31,357.26,733.74,349.8,720.87,342.37Z"/><path class="cls-5" d="M-3.4,632c-8.47-8.35,4.86-11.87,4.8-23.77s-8.18-11.86-8.24-23.75S.76,572.49.71,560.6s-9.44-11.85-9.5-23.74S-4.22,524.93-4.28,513s7-11.93,6.94-23.83S0,477.33,0,465.43s-4.9-11.87-5-23.77,4.4-11.92,4.35-23.82S-6.77,406-6.83,394.07s-2.64-11.89-2.7-23.79-6.73-20.52,4.72-23.76c12.22-3.46,12.88,5.51,21.27,15s8.27,9.65,16.66,19.19,7,10.78,15.38,20.33S53.66,413.48,62.05,423s3,18,14.16,24.14c11.74,6.45,10.11-15,23.56-22.91a165.87,165.87,0,0,0,21.31-14.53,108.05,108.05,0,0,0,17.5-18.19c5.55-7,16.44-12.23,23.68-13.85,7.39-1.65,17,3,25,4.2s15,8.05,22.31,9.29c8.88,1.5,18.61,1.28,24.83-1.53,8.16-3.69,17.42-3.56,23.16-6.92,8.19-4.79,12.25-13.12,17.36-16.77,7.81-5.59,12-10.12,19.05-11.42,5.82-1.08,12.83-6.4,23-3.33,11.53,1.09,9,1.89,22.26-.33,6.9-1.15,15.18-.32,23.17-2,8.52-1.8,9.56-13,15-17.36,6-4.79,15.59-10.77,24-11.39,5.69-.42,11.2,12.2,20.42,16.55,5.62,2.65,10.25,7.82,17.77,12.94,5.5,3.75,19.76-2.89,26.48,2.43,5.41,4.28,6.19,15.41,12.49,20.82,5.34,4.59,15.65,4.46,21.69,9.94,5.27,4.78,11,7.76,18.48,11.86,6.45,3.54,12.54,7.28,20.19,10.34,7,2.8,10.12,17.58,17.8,20,7.32,2.3,17.42-3.92,25.09-1.95s14.24,7.81,21.87,9.45,14.83,7,22.39,8.34c7.92,1.45,16.88-3.91,24.32-2.75,8.18,1.27,16.84-4.21,24.06-3.26,8.71,1.15,15.74,8.39,22.43,9.11,14.4,1.56,24.33-10,28.3,1s-9,13.33-9.21,24.9,6.69,11.68,6.51,23.25.34,11.58.16,23.16-3.56,11.52-3.74,23.1-3,11.53-3.19,23.11S711.16,574,711,585.58s11.19,11.75,11,23.33,5.66,17.16-2.74,25.13c-8.71,8.27-14,2.39-26,2.39s-12-4.28-24-4.28-12,4.05-24,4.05-12-3-24-3-12-7.79-24-7.79-12,10.51-24,10.51-12-8.24-24-8.24-12,5.63-24,5.63-12-6.36-24-6.36-12,5-24,5-12,.9-24,.9-12-5.31-24-5.31-12,5.39-24,5.39-12,2.55-24,2.55-12,1.76-24,1.76-12-7-24-7-12-3-24-3-12-1.82-24-1.82-12,7.62-24,7.62-12,5.49-24,5.49-12-12.74-24-12.74-12,12.19-24,12.19-12-7.49-24-7.49-12-1.59-24-1.59-12,3.15-24,3.15-12,.43-24,.43-12,2.79-24,2.79-12,.36-24,.36-11,.21-22.71,2.71C9.4,640.86,5.16,640.38-3.4,632Z"/></g></svg>