<svg id="Layer_1" data-name="Layer 1" xmlns="http://www.w3.org/2000/svg" xmlns:xlink="http://www.w3.org/1999/xlink" viewBox="0 0 152.17 66.16"><defs><style>.cls-1{fill:none;}.cls-2{clip-path:url(#clip-path);}.cls-3{fill:#605d70;}.cls-4{opacity:0.48;}</style><clipPath id="clip-path"><rect class="cls-1" x="-13.23" y="-53.29" width="204.32" height="166.27"/></clipPath></defs><title>Artboard 1</title><g class="cls-2"><path class="cls-3" d="M.7,62.29c-9.29-11,.92-14.37.85-28.74S-12.4,11.36.09,4.25C11.22-2.08,6,17.94,16.83,24.78c6.84,4.33,8.06-4.61,12.8-10.63s14.33.78,18.7-1.2C58.86,8.19,57.65,5.81,64.92,8c4.62.64,4.86-1.08,9.56-2.07,7-1.47,4.7-13.19,26.92,7,4.41,4,12.88,7.61,21.49,9.47,11.78,2.54,18-7.81,23.89,2.41,4.67,8.07.44,9.56.29,18.89s6.15,13-1.26,18.62c-9.62,7.33-12.09,1.22-24.18,1.22s-12.09,0-24.19,0-12.09-.38-24.19-.38-12.09-.87-24.19-.87-12.67-3.8-24.46-1.11C11.89,64,8.51,71.52.7,62.29Z"/></g></svg>