<svg id="Layer_1" data-name="Layer 1" preserveAspectRatio="none" xmlns="http://www.w3.org/2000/svg" xmlns:xlink="http://www.w3.org/1999/xlink" viewBox="0 0 110.93 66.16"><defs><style>.cls-1{fill:none;}.cls-2{clip-path:url(#clip-path);}.cls-3{fill:#7c8690;}.cls-4{opacity:0.48;}</style><clipPath id="clip-path"><rect class="cls-1" x="-21.48" y="-53.29" width="204.32" height="166.27"/></clipPath></defs><title>Artboard 1</title><g class="cls-2"><path class="cls-3" d="M109,23.08c-1.79-1-2.29,1.74-4.28,2.47s-1.81,1.07-3.81,1.8a9.35,9.35,0,0,1-4.42.7c-2.53,0-1.91-.86-4-2.49-1.11-.85-1.9-2.22-3.39-3a22.49,22.49,0,0,0-4.5-1.79,14.76,14.76,0,0,0-4.86-.24,11.8,11.8,0,0,0-4.75.72,14.58,14.58,0,0,0-3.74,2.65,19.41,19.41,0,0,1-3.22,2.52,8.62,8.62,0,0,1-4.39,1.34c-1.42-.11-2.54-1.34-3.69-2.23a37.25,37.25,0,0,1-2.81-2.73c-1-.95-1.53-2.4-2.63-3.07-2.24-1.37-4.3-.32-5.73.77a37.06,37.06,0,0,1-4.57,2.6c-1.58.85-1.95,1.37-3.72.72-1-.37-2.26-.93-4-1.76-1.11-.52-3-.33-4.55-1-1.32-.58-2.27-1.27-3.7-1.07A27.35,27.35,0,0,1,24,19.67a5.55,5.55,0,0,1-3.5-.81c-.9-.58-2.56-.81-3.48-2s-.9-2.68-1.9-3.44a17.75,17.75,0,0,0-3.92-2c-1.46-.61-3.15-.5-4.42-.73-2.54-.45-4-2.21-4.77-.54S3,12.15,3,14s-1.2,1.81-1.2,3.63,1.43,1.81,1.44,3.62c0,2-1.83,2-1.8,4s1.45,2,1.48,3.95-1.3,2-1.28,4,.44,2,.47,4S3.49,39,3.52,41s0,2,.05,4-.27,2-.25,4-.09,2-.06,4-.95,2-.92,4-.22,2-.19,4S1.07,63.58,2.78,65s2.63.29,5,.29,2.38-.18,4.76-.18,2.38-.69,4.76-.69,2.38.39,4.76.39,2.38.56,4.76.56,2.38-1.1,4.76-1.1,2.38,1,4.76,1,2.38.17,4.76.17,2.38-1.14,4.76-1.14,2.38.65,4.76.65,2.38.59,4.76.59l4.76,0c2.38,0,2.38-1.13,4.76-1.13S67.32,64,69.71,64s2.38.11,4.76.11,2.38.32,4.76.32S81.61,65,84,65s2.38-.38,4.76-.38,2.38,1,4.76,1,2.38-.38,4.76-.38,2.38-.33,4.76-.33,3.66,1.77,5.39.43.28-2.39.31-4.26-.46-1.87-.43-3.74-.25-1.87-.22-3.74-.1-1.87-.08-3.74.57-1.86.6-3.73-.64-1.88-.61-3.74-.2-1.87-.17-3.74,1.31-1.86,1.34-3.72-1.59-1.89-1.57-3.75.56-1.84,1.21-3.63C109.62,25.25,110.84,24.16,109,23.08Z"/></g></svg>