<svg id="Layer_1" preserveAspectRatio="none" data-name="Layer 1" xmlns="http://www.w3.org/2000/svg" xmlns:xlink="http://www.w3.org/1999/xlink" viewBox="0 0 216 76.45"><defs><style>.cls-1{fill:#8bb5d6;}.cls-2{fill:#f4e8e2;}.cls-3{fill:#f3e8e3;}.cls-4{fill:url(#Безымянный_градиент_21);}.cls-5{fill:#709fc6;}.cls-6{fill:url(#Безымянный_градиент_22);}.cls-7{fill:url(#Безымянный_градиент_23);}.cls-8{fill:#f1e9e5;}.cls-9{fill:url(#Безымянный_градиент_24);}.cls-10{fill:url(#Безымянный_градиент_25);}.cls-11{fill:url(#Безымянный_градиент_26);}.cls-12{fill:#7fa9d1;}.cls-13{fill:#feead3;}.cls-14{fill:#71a1ce;}.cls-15{fill:#88b0d5;}.cls-16{fill:#9cc6dd;}.cls-17{fill:#90bcd9;}.cls-18{fill:#6393c0;}.cls-19{fill:#729dc7;}.cls-20{fill:#7dacd3;}.cls-21{fill:#93bdda;}.cls-22{fill:#82b3d4;}.cls-23{fill:url(#Безымянный_градиент_27);}.cls-24{fill:#5481be;}.cls-25{fill:#6997c2;}.cls-26{fill:#6698cf;}.cls-27{fill:#6692bf;}.cls-28{fill:#84aacb;}.cls-29{fill:#cec0c4;}.cls-30{fill:#c9c8ca;}.cls-31{fill:#e7e0e2;}.cls-32{fill:#ddd3d6;}.cls-33{fill:#d9cec8;}.cls-34{fill:url(#Безымянный_градиент_28);}.cls-35{fill:#5d8cd0;}.cls-36{fill:#628fbe;}.cls-37{fill:#618fbe;}.cls-38{fill:url(#Безымянный_градиент_29);}.cls-39{fill:#6490bf;}.cls-40{fill:#5d8bbc;}</style><linearGradient id="Безымянный_градиент_21" x1="95.5" y1="-578.09" x2="92.83" y2="-580.44" gradientTransform="matrix(1.2, 0.1, 0.14, -1.63, 78.19, -925.83)" gradientUnits="userSpaceOnUse"><stop offset="0" stop-color="#77a3c8"/><stop offset="1" stop-color="#8bb5d6"/></linearGradient><linearGradient id="Безымянный_градиент_22" x1="95.08" y1="-579.47" x2="85.73" y2="-573.09" gradientTransform="matrix(1.2, 0.1, 0.14, -1.63, 78.19, -925.83)" gradientUnits="userSpaceOnUse"><stop offset="0" stop-color="#f4e8e2"/><stop offset="1" stop-color="#8bb5d6"/></linearGradient><linearGradient id="Безымянный_градиент_23" x1="91.96" y1="-579.99" x2="89.55" y2="-582.28" gradientTransform="matrix(1.2, 0.1, 0.14, -1.63, 78.19, -925.83)" gradientUnits="userSpaceOnUse"><stop offset="0" stop-color="#77a3c8"/><stop offset="1" stop-color="#92b4cf"/></linearGradient><radialGradient id="Безымянный_градиент_24" cx="532.61" cy="-353" r="3.69" gradientTransform="matrix(0.05, 0.66, 1.92, -0.4, 761.98, -465.65)" xlink:href="#Безымянный_градиент_21"/><linearGradient id="Безымянный_градиент_25" x1="90.75" y1="-582.97" x2="94.18" y2="-582.55" gradientTransform="matrix(1.2, 0.1, 0.14, -1.63, 78.19, -925.83)" gradientUnits="userSpaceOnUse"><stop offset="0" stop-color="#f1e9e5"/><stop offset="1" stop-color="#8bb5d6"/></linearGradient><linearGradient id="Безымянный_градиент_26" x1="208.73" y1="17.85" x2="77.88" y2="14.11" gradientTransform="matrix(1.09, 0, 0, -1.62, -23.5, 72.84)" gradientUnits="userSpaceOnUse"><stop offset="0" stop-color="#5a91c3"/><stop offset="0.46" stop-color="#76a4d0"/><stop offset="1" stop-color="#98bce1"/></linearGradient><linearGradient id="Безымянный_градиент_27" x1="176.99" y1="-740.43" x2="208.6" y2="-740.09" gradientTransform="matrix(1, 0, 0, -1.35, 0, -953.27)" gradientUnits="userSpaceOnUse"><stop offset="0" stop-color="#5d8fbe"/><stop offset="1" stop-color="#4e85b8"/></linearGradient><linearGradient id="Безымянный_градиент_28" x1="80.85" y1="-53.77" x2="98.41" y2="-63.12" gradientTransform="matrix(1, 0, 0, -1.4, 4.1, -47.96)" gradientUnits="userSpaceOnUse"><stop offset="0" stop-color="#dfd1d1"/><stop offset="1" stop-color="#6698cf"/></linearGradient><linearGradient id="Безымянный_градиент_29" x1="108.09" y1="-791.66" x2="98.18" y2="-787.34" gradientTransform="matrix(0.96, 0, 0, -0.96, 8.18, -712.7)" gradientUnits="userSpaceOnUse"><stop offset="0" stop-color="#6698cf"/><stop offset="1" stop-color="#9fbdd7"/></linearGradient></defs><title>Artboard 1</title><g id="g9930"><g id="g4945"><g id="g5166"><path id="path4863" class="cls-1" d="M129.38,28.88c-9.85-4.59-7.06-6-9.85-4.59-1.35-.24-2.77-.76-4-1-.4-.43-.71-.8-1-1.14a2.67,2.67,0,0,0-1.65.21c-.48-.4-.44-.21-.91-.43-.11-.33-.34-.11-.5-.16s-.29-.57-.37-.73c-.25-.19-.48,0-.69.06-1-1.27-1.31-1.78-2.71-1.4-.58-1.11-.52-1.38-1.61-1.19-1.82-.19-1.78-1.31-3.54-1.7-.36-.29-.6.18-.88.27-2.89,1.53-6.78,3.47-8.19,4.29-2.32-.09-4.34,2.06-6.14,3.42C90.73,39.18,113.76,55,122.8,37.95c1.55-2.92,12.35-2.81,10-4.92Z"/><path id="path4888" class="cls-2" d="M111,20.87a1.64,1.64,0,0,1-.87.16c.28.6.53,1.22.79,1.81.37-.15.64.22.92.31.9,1.21,1.34,2.29,2.48,3.12-.88-1.56-1.62-2.15-1.43-4.31-.3-.32-1.34,0-1.35,0C110.94,21.79,111.23,21.23,111,20.87Z"/><path id="path4884" class="cls-3" d="M115,23a5.28,5.28,0,0,0,1.2,2,9.84,9.84,0,0,1,1,.43,19,19,0,0,0,2.3,2.18,19.64,19.64,0,0,1-1.62-3c-.72-.21-.67-.76-.78-.88A3,3,0,0,1,115,23Z"/><path id="path4927" class="cls-4" d="M107.16,19.1c.21.84.55,1.63.74,2.44a2.05,2.05,0,0,0,.69-1.22c.6-.17.79.14,1.2.5.45,1.58,1.51,2.09,2.38,2.87,1,1.75,2.54,2.43,4.06,4.72-2.72,1.25-13.7-6.41-9.06-9.31Z"/><path id="path4900" class="cls-5" d="M117,26.17c-.09.62,1,3.31.95,3.92-.59.32-3.44-2-3.63-2.23,1.38-1,1.95-1.65,2.68-1.69Z"/><path id="path4902" class="cls-5" d="M102.23,16.85c0,.65.22,1,.22,1.69,2.13,1.47,3.18,4.12,4.79,6.06.25.72,1.74,3,1.89,3.37-1-1.39-3.7-3.12-4.85-4,1.56-2.12-.42-2.88-1.6-3.28.07-.55-.29-.19-.41-.27-.37-.06-.47-.66-.61-.87-3-.21-5.77,1.69-8.49,1.82,2.82-.76,6.48-4.78,9.07-4.56Z"/><path id="path4904" class="cls-5" d="M99.91,22.7a11.12,11.12,0,0,0,2.53-1.27c1.32,3.17,1.73,2.57,3,5.1-.88.63-2.61-.26-9.49,4.8-.4-.23,5.43-5.69,5.14-6l.05-.58c-1.43.23-2.49,1.41-3.73,2.35.77-2.09,1.94-2.36,3.29-3.2.22-.14.09-.38.14-.57-2.45.27-4.58,1.67-6.78,2.9,1.83-1.89,3.63-3.75,5.89-3.56Z"/><path id="path4890" class="cls-6" d="M102.12,16.89c-.16,1.13,1.3,4.1,4.31,7,1.1,2,2.77,5,4.55,4.93.12-.06,1.35.33,1.75.38l.5-1c-2.23-2-5.56-4.8-8-6.93-.25-.81-.09-1.88-.65-2.5Z"/><path id="path4906" class="cls-7" d="M105.29,26.35c2.2,1,2.64,1.65,3.29,3.25-1.58.09-4.19-.56-7.38-1.58a7.84,7.84,0,0,0,4.09-1.67Z"/><path id="path4886" class="cls-8" d="M102.42,21.52a23.94,23.94,0,0,1-.17,3.94c.21-.38.49-.27.72-.4l.69,1a8.29,8.29,0,0,0,1.67.49,10,10,0,0,1,3,2.82l1,.09a22.73,22.73,0,0,0-4.88-5.08c-.41.18-.55-.4-.73-.53A6.16,6.16,0,0,0,102.42,21.52Z"/><path id="path4878" class="cls-9" d="M108.31,29.83c1.7-.17,3.58-1.81,4.68-2.5.48.13.65.53.86,1,.84,1.59,2.12,2.37,3.18,3.88-2.67.4-4.17-.74-6.81-.71-1.63-.57-1.65-.57-1.91-1.68Z"/><path id="path4882" class="cls-2" d="M117.19,26.53c-.8.52.66,2.51.85,3.1-2.27-1.31-3.53-1.42-4.7-2.27l.32.26a19.76,19.76,0,0,0,3.81,4.52A16.14,16.14,0,0,0,121.35,30c-.52-1.94-1.83-1.89-2.85-2.81A4,4,0,0,0,117.19,26.53Z"/><path id="path4865" class="cls-10" d="M104.28,28.51a3.29,3.29,0,0,0-.66,0l-2.81-.25c.76.92,1.24,2,2.29,2.29.85,1,2.12,1.29,3.16,2.14.74,1.21,1.52,1.93,2.31,3.11a16.25,16.25,0,0,0,.3-3.46c-1.07-.86,1.44-2.26-2.81-3.27A8.24,8.24,0,0,0,104.28,28.51Z"/></g></g><g id="g4734"><path id="path4685" class="cls-11" d="M197.33,23.52c-3.41,0-6.65,3.78-9.85,5.29-2.24-1.13-4.36-1.06-5.39-2.8-2.85,1.11-4.49,5.08-11.23,7.46a20.56,20.56,0,0,0-7.18.62,23.5,23.5,0,0,1-3.9-1.86c-2.16.25-4.34,0-6.36,1.24-4.44-1.05-8.44-4.06-13.8-6.16-1,.68-1.1-.57-2.08.54a14.12,14.12,0,0,1-3.36,3.57c-.57-.39-4.93-.83-4.93-.83-3.29-.5-5,4.16-8.66,4.44-1.28.18-2.45.19-3.69,1.55a28.42,28.42,0,0,0-2.67-2.48c-1.78.62-3.5,1.67-5.33,2.17-.78-.64-1.2-2.09-2.26-1.86-1.55.24-3.29.28-4.92.62-1.25.17-4.13,5.66-5.6,5,0,0-1.71-1.36-3.28-.93-2.79,0-5.18-3.26-8.55-2.87-.48-.1-1,.33-1.44-.31-2.88,0-5.88-.43-8.21,1.55a16.82,16.82,0,0,1-3.69-1.86c-1.6-.48-3.13-.86-4.72.62-1.35-.61-2.21-1.47-3.69-.31-1.28.32-4.58,2-6.56.93-1.16,4.53-3.79,8.89-5.54,12.42C77.33,46.37,98.81,57,125.69,57c12.16,0,34.17-.54,44.08,2.93,3.11-.22,5.84-3.24,8.89-2.88,2.86.33,32.41,7.52,37.76,6.94V33c-6.19-2.79-12.84-7.16-19.09-9.49Z"/><path id="path4742" class="cls-2" d="M140,28.38c.07.88,1.19,4.8,1.39,5.56.13.52,3.65-2,3.7-1.4a16,16,0,0,1-1.15,2.58l8.58-1.34C150.8,32.5,141.27,28,140,28.38Z"/><path id="path4754" class="cls-12" d="M197.57,27.47a19.37,19.37,0,0,1,.85,2.51c1.44,1.61.28-.12.42-.18.28,1,.77,1.15,1.21,1.8,0,1.48-.29,2.86-.36,4.31A4,4,0,0,1,201.25,34c.61-.12,1.22-.9,1.81-1.26A7.94,7.94,0,0,1,205.24,34a6.89,6.89,0,0,0,.48-.81A47.42,47.42,0,0,1,216.41,33c-2.59-.74-18.48-10-19.09-9.36A5.92,5.92,0,0,0,197.57,27.47Z"/><path id="path4756" class="cls-13" d="M185.14,30.34a13.34,13.34,0,0,1-1.92,1.76,4.16,4.16,0,0,1-1.92,1.69,7.19,7.19,0,0,0,.39-1.25,15.27,15.27,0,0,0,.1-2.79,4.58,4.58,0,0,0,.49-2.5,4.89,4.89,0,0,1,0-1,1.38,1.38,0,0,1,1.58.22c.45.11.82.33,1.23.44.44,0,.84.29,1.23.51a2.15,2.15,0,0,1,1,1.43c-.81.5-1.55,1-2.27,1.5Z"/><path id="path4758" class="cls-14" d="M173.44,33.08a11.15,11.15,0,0,0,2.76-2.16A41.29,41.29,0,0,1,179.78,28a9.77,9.77,0,0,0-.59,3.7,8.62,8.62,0,0,0-1.35.51c-.23.23-.49.43-.7.62.38-.82-.19-.34-.23-.41a2.2,2.2,0,0,0-.88.21,2.1,2.1,0,0,1-2.58.41Z"/><path id="path4762" class="cls-14" d="M171.81,33.41a4.07,4.07,0,0,0-1,.81c-.49.13-.89.82-1.25,1.24-.81,1.68-2.14,2.51-3.3,3.54-.35.18-.78.36-1.09.5-.78,1.29-1.49,2.78-2.3,4,.48-.32,1-.82,1.42-1.18a8.32,8.32,0,0,0,1.21-.87,8.87,8.87,0,0,1,.5,2.49,2.49,2.49,0,0,0,.5-1.74c.09-.73.28-.89.67-1.12a12.84,12.84,0,0,1,.84-1.43,1.16,1.16,0,0,1,1.09-.68c.45.24.79,1,1.09,1.62a17.07,17.07,0,0,0,1.3-3.29c.13-.67.47-1.39.67-2.05a11.93,11.93,0,0,1,2.09-1.68,12.18,12.18,0,0,1-2.38-.12Z"/><path id="path4764" class="cls-15" d="M181.16,33.66a3.48,3.48,0,0,1-1.87.35h-1.48l-1.24,1a13.88,13.88,0,0,1-1,1.39c-.56.86-1.06,1.85-1.56,2.78.75-.53,1.46-1.26,2.18-1.74a3.46,3.46,0,0,1,1.71-.93c1.58-.33,2.44-1.48,3.27-2.89Z"/><path id="path4768" class="cls-16" d="M114.34,34.33c.35.38.13.9.2,1.35a9,9,0,0,1-.2,2.51c0,.75-.11,2.1-.13,2.51a4.66,4.66,0,0,1,.72-2.13,31.39,31.39,0,0,1,2.15-2.32,20.7,20.7,0,0,0-2.73-1.93Z"/><path id="path4770" class="cls-17" d="M129.19,30.74l.7,2,1,3.14a12.94,12.94,0,0,0,1.28-2.19c.17-.38,1.87-2,1.94-2.33C133.59,30.73,129.86,30.84,129.19,30.74Z"/><path id="path4772" class="cls-18" d="M152.36,52.9c.8-1.55,1.79-2.87,2.65-4.33a15.2,15.2,0,0,1,3.57-2.46c.94-.55,2-1.58,2.91-2,.91-1.25,1.94-2.36,2.85-3.54a8.79,8.79,0,0,1,2.32-3.35c-.57.3-1.2.63-1.79,1s-.31-3.48-1-3.26a41.37,41.37,0,0,0-1.35,5.72,15.23,15.23,0,0,1-2.18,2.17c-.44.86-.13-1.1-.77-.67-.56-.63-2.11.69-2.47-.12-.05-.43-1.21-3.13-1.21-3.13,0,1-9.41,4.59-9.56,5.47l5.92.6c-1.1.64.4,2-.57,2.64-1,1.31-.88,2.58-1.79,3.76-1.46.53-2.83,1.71-4.37,2.17,2.17-1.09,4.75.26,6.88-.69Z"/><path id="path4774" class="cls-19" d="M130.17,37.12c-1.88,1.37-.6,1-1,1.79a54.1,54.1,0,0,0-3.69,4.73,28.79,28.79,0,0,0-4,3.45,12.23,12.23,0,0,1-2.15.51,50.52,50.52,0,0,0-4.12,4.73,13.07,13.07,0,0,0-2.32.13,6,6,0,0,1,2.06-2c.55-.51,1.22-1.16,1.63-1.53h-1.12c.86-1.57,2.55-1.69,3.87-2.56.53-.11,3.46-2.27,4-2.34,2-1.72-.28-4.91-.28-4.91s5.78-.74,7.24-1.94Z"/><path id="path4810" class="cls-17" d="M119.19,35.64a2,2,0,0,1,1.91,1,7.46,7.46,0,0,1,.83,1.11,3.61,3.61,0,0,0,1.34,1c.25-.43.66-.51,1-.7,1.37-1.48,3-.26,4.59-.14-1.24-.58-2.49-1.12-3.71-1.67h-1.7c-1.46-.29-2.93-.45-4.23-.63Z"/><path id="path4836" class="cls-20" d="M142.67,38.14c-.69,3.37.32,2,.68,4.12,1.19-.09,1.86,1.25,2.72,1.83a29.68,29.68,0,0,0-.68-4.12c.09-2.13,1.64-3.48,2.38-5-2.4.8-3.08,1.69-5.1,3.21Z"/><path id="path4838" class="cls-21" d="M107.31,47.9c0-.06-.86-1.58-1.27-1.71a10.63,10.63,0,0,0-.71.85c-.32,0-.63-.14-1-.21a20.11,20.11,0,0,0-4,3.74,8.81,8.81,0,0,1-2.06,1.28c.92-.29,1.79-.76,2.69-1.07.85.06,1.5-.68,2.06-1.28.46-.27.72.06,1.11.21s.48-.14.71-.21c.25,1.34-.28,2.59-.55,4a13.82,13.82,0,0,1,1.35-2.78,6.19,6.19,0,0,0,.48-1.28,4.87,4.87,0,0,0,1.19-1.5Z"/><path id="path4847" class="cls-22" d="M128.05,46.84c2,1.74,2.45,3.41,3.4,6,1.12,1.06,2.58-.77,3.06-.92-.83-.64-.23-1.53-.34-2.29C131.41,48.24,130.36,48.08,128.05,46.84Z"/><path id="path4887" class="cls-23" d="M187.83,32.63,175.42,42.4l-1.3-1.58.39,3.86-.13,5.62-2.22.35-3-3.51.13,4.92-2.4,1.62a10.35,10.35,0,0,0,.58-.88c-.1-.21-2.2-4.64-4.08-5-.69.27-4.85,2.81-6.8,2.75a35,35,0,0,1-3.74,5.5c4.73,1.28,10.45,2.39,13.94-2.2l9.14-.35,35.32,1.69.54-16.87-10,5.42.9-7.56L189.9,46.33l-3.81-3.92Z"/><path id="path5294" class="cls-24" d="M196,34.55l-2.74,8.17,9.22-6L201.75,44l10.1-5.59,1.84,12.9-18,1.06-4.08.92-5-5,3-2.2-2.95-1.6,4.25-4.5-.11,3.52Z"/><path id="path5364" class="cls-25" d="M134.51,54.17c.86-1.44.23-3.06.34-4.58.81-1-.95-2.55-1-2.75h4.42c.75,3.19-1.84,4.54-2,5,1.69,0,2.22.9,3.4,1.37,1.65-1.22,1.32-3,2-4.58,1.43,4.34,2.84,4.84,5.1,6.87-4.65,2.07-8.89.63-12.24-1.37Z"/><path id="path5465" class="cls-13" d="M197.38,23.48a102,102,0,0,1,9.18,8.7c2.23-.19,4.15-.46,6.46-.46-5.38-3.92-10-6.73-15.63-8.25Z"/></g><g id="g9880"><g id="g5408"><path id="path4931" class="cls-26" d="M128.17,68H-.75l.21-46.69A6.59,6.59,0,0,0,4.56,19.6c1-.28,1.75-.83,2.92-.44,1.89.48,3.12,1.4,5.11,1.75.79-.62,1.12-1.2,2.19-1h.63c.31-.44.7-1.06,1.25-1.17.27.44.12.86.63,1a20.53,20.53,0,0,1,2.81-2.63c.19,0,.86.36,1.36,0a4.12,4.12,0,0,0,2-1A19.61,19.61,0,0,1,27.08,13a4.31,4.31,0,0,1,2.19-1.31,10.47,10.47,0,0,1,1.25.15c1.4.2,2.87.82,4.27.29A23.72,23.72,0,0,1,38,8.8h2.19a8.75,8.75,0,0,0,1.25,1.46c1.58,0,3.06-.52,4.69-.29a18.58,18.58,0,0,1,1.56-2c1.11,0,1.17.79,2.18,1.67a7.83,7.83,0,0,1,1.67-1.38c1.05-1.15,1.86-1.74,2.81-2.63,1.33-.31,2.1.45,3,1,0,.51.35.79.52,1.17a8.31,8.31,0,0,0,2.4,0c.65-.13.87.37,1.36.58.78.14,1.6.18,2.4.29.57.32.66.83,1,1.31h1.25a2.84,2.84,0,0,1,1.67.88h2a6.26,6.26,0,0,0,2.61,2.33,3.87,3.87,0,0,0,1.46.15c1,.36,2.32,1.89,3,2.48,2.29,1.46,2,1.46,2.29,1.46,2.24,1.68,3,3.16,5.32,5a24.66,24.66,0,0,0,8.44,5c1.79,3.83,6.44,6.75,9.49,8C113,46,131,52,138.41,58.21Z"/><path id="path5074" class="cls-27" d="M69.1,28.47c1.42-.67,3-4,3.18-4.16,3-3,5.82,1.28,8.27,3.56,3.46,2.63,5.82,1.66,7.21,6.53-2.69.44-4-1.33-6.15-3-.27.85.14,1.6.21,2.37-1.41-1.6-2.25-3-3.61-4.45-.42,2.08.06,2.77.42,4.45a10.2,10.2,0,0,1-2.12-4.45C79.44,45.6,69.1,31.38,69.1,28.47Z"/><path id="path5076" class="cls-27" d="M41.95,9.77a15.43,15.43,0,0,1,3.61.3c1-1.78,1.5-1.3,3-1.48.24,3.1,2.67,3,4.45,4.16.14,1.7-.36.85-.64,1.48a4.8,4.8,0,0,0,3.82,2.08,11,11,0,0,0,5.94,3.56c.73.27,1.38,1.69,1.91,2.67a9.78,9.78,0,0,0,3,2.08,9.83,9.83,0,0,1-1.48.89,18.84,18.84,0,0,0,5.09,5c3.39,2.58,3.83,4,5.3,8.61-1.62,1.41-3.17.78-4.88.3-2-3.84-3.38-5-6.15-6.53,0-1.83-.81-3.85-1.06-5a9.44,9.44,0,0,0-4.24-2.08,32.51,32.51,0,0,0,2.76,8c-2.89.16-4.28-3.28-5.73-5-.27-1.69-1.83-3.92-2.12-4.45-2.83-3.58,2.11.88,4,2.08-2.86-2.64-3.71-3.93-5.51-7.72-.8-8.19-7.66-3.52-11-8.9Z"/><path id="path5078" class="cls-27" d="M43.65,19.27c1.52,2.86,3.75,5.54,4.88,7.72a12.4,12.4,0,0,0,3.39,3.56,15.1,15.1,0,0,0,4.45,3.27C58.78,38,63,39.1,65.28,43.31a31.69,31.69,0,0,0-5.51.89C57,42,54.53,38.13,52.13,35.89,48.2,30.66,46,25.25,43.65,19.27Z"/><path id="path5080" class="cls-28" d="M54.87,5.52a2.71,2.71,0,0,0-.47.07c-1,.89-1.76,1.48-2.81,2.63A7.83,7.83,0,0,0,49.9,9.59l-.19-.18a3,3,0,0,1-.23.36c3.26-.17,4.95,3,6.89,5.34.42,3,1.92,3.57,3.82,5.34a8.75,8.75,0,0,1,2.76-.59,19.36,19.36,0,0,1,4,4.75c2,1,3.87-.08,5.09-.59,1.23-.32,2.3.17,3.39.3A44.9,44.9,0,0,0,91.15,34.7a25,25,0,0,0,7-2,15,15,0,0,1-5-5.49,24.66,24.66,0,0,1-8.44-5c-2.32-1.8-3.07-3.28-5.32-5-.34,0,0,0-2.29-1.46-.7-.59-2.05-2.12-3-2.48a3.87,3.87,0,0,1-1.46-.15A6.26,6.26,0,0,1,70,10.84H68A2.84,2.84,0,0,0,66.38,10H65.13c-.39-.49-.47-1-1-1.31-.8-.11-1.62-.16-2.4-.29-.49-.21-.7-.71-1.35-.58a8.31,8.31,0,0,1-2.4,0c-.17-.38-.49-.66-.52-1.17A4.32,4.32,0,0,0,54.87,5.52Z"/><g id="g5017"><path id="path4960" class="cls-29" d="M38.6,15.46A3.65,3.65,0,0,1,40,16.89l-.43.36a8.12,8.12,0,0,0,0,1.25,2.71,2.71,0,0,0,.94,1.13c-.28.36-.61.31-1,.42a2.88,2.88,0,0,1-.3-.89c-.09-.27-.25-.24-.38-.36a3,3,0,0,1,.13-1,3,3,0,0,0-.43-2.38Z"/><path id="path4962" class="cls-29" d="M43.91,26.41a28.83,28.83,0,0,0-1.49-3l-.55-.12A4,4,0,0,0,41,21.06a5.31,5.31,0,0,0-1.4.42,3.23,3.23,0,0,1,.6,1.78,1.45,1.45,0,0,1,.89.83,1.68,1.68,0,0,1,.64.77v2a2.27,2.27,0,0,0,2.21-.42Z"/><path id="path4966" class="cls-29" d="M44,29.15a5.06,5.06,0,0,0-.64-1.67c.21-.39.34-.34.64-.42a17.08,17.08,0,0,1,1.57,2.2,33.2,33.2,0,0,1,3.15,5.24A3.87,3.87,0,0,0,46.63,33,6.62,6.62,0,0,0,45.4,30.7c0,.58,0,1.14,0,1.73-.65-.52-1.3-1-1.87-1.49a18.85,18.85,0,0,0-1.66-3.87,7.79,7.79,0,0,0,1.11.83c.43.51.62.94,1.11,1.25Z"/><path id="path4968" class="cls-29" d="M42.3,12.31a13.81,13.81,0,0,1,2,2.74,2.6,2.6,0,0,1-.77-.06,14.1,14.1,0,0,1-1.11-2,5.81,5.81,0,0,0-.17-.89Z"/><path id="path4970" class="cls-29" d="M42,15.33c.47-1,.74.4,1,1.14a9.28,9.28,0,0,1,1.57,3.75H43.36C42.67,19.3,42.41,17.42,42,15.33Z"/><path id="path4976" class="cls-29" d="M46,24c.48-.07,1,.38,1.45.65,1.52,1.16,2.78,3.56,3.87,5.3-.45-.06-1-.81-1.23-1a9.72,9.72,0,0,1-1.45-1.13c-.36-.59-.72-1.37-1-1.84A4.9,4.9,0,0,0,46,24Z"/><path id="path4978" class="cls-29" d="M51.27,23.73a7.74,7.74,0,0,1,1.19.65c.66.74,1.1,1.72,1.74,2.62s1.59,1.26,2.21,2A5.13,5.13,0,0,0,53.9,27.9a20.51,20.51,0,0,0-1.23-1.67,3.59,3.59,0,0,0-.43-1A12.27,12.27,0,0,0,51.27,23.73Z"/><path id="path4980" class="cls-29" d="M48.67,16.06a6.16,6.16,0,0,0,1.58,2.09,30.22,30.22,0,0,0,5.45,8.36c-1,.15-2.24-.69-2.81-1a11,11,0,0,1-2.37-3.32,17,17,0,0,0-.88-3.44,10.78,10.78,0,0,0-1-2.71Z"/><path id="path4982" class="cls-30" d="M47.78,8.32l1.28,1.78c.82,1.06,1.9,1.65,2.55,2.56a1.22,1.22,0,0,0,.3.77,16.93,16.93,0,0,0,2.76,1A3.26,3.26,0,0,0,53,12.67c-.55-.63-1.19-1.18-1.66-1.67a7.41,7.41,0,0,0-1.4-1.49,4.06,4.06,0,0,0-2.13-1.19Z"/><path id="path4984" class="cls-29" d="M54.71,15.76c.43.43,1.19,1.05,1.49,1.37a4.15,4.15,0,0,0,1.45.3,4.65,4.65,0,0,0-.85-.89,9,9,0,0,0-.89-1.19,2.33,2.33,0,0,0-1.19.42Z"/><path id="path4986" class="cls-29" d="M54.07,19.51a7.13,7.13,0,0,0,1.87,1.31,2.42,2.42,0,0,1,.6,1.13,5,5,0,0,1,1.32.71,24.51,24.51,0,0,1,1.4,3.09A12.45,12.45,0,0,0,57,23.68a3.26,3.26,0,0,1-1.45-1.61C54.87,21.41,54.61,20.26,54.07,19.51Z"/><path id="path4988" class="cls-29" d="M57.56,31.11a6.65,6.65,0,0,1,1.32,1.25c.16.35.25.67.38,1A5.42,5.42,0,0,1,60.7,34.8c-.69-.34-1.34-.61-2-1-.13-.47-.46-1.29-.51-1.43C58,31.93,57.77,31.56,57.56,31.11Z"/><path id="path4990" class="cls-31" d="M61.55,35.75a6.73,6.73,0,0,0,.77,1.73,2.71,2.71,0,0,0-1.66-.59c-.72-.4-1.71-1.55-2.59-2.08s-1.8-2.23-2.89-2.8a6.78,6.78,0,0,0-2.68-.83,10.1,10.1,0,0,0,3.06,2.44,10.52,10.52,0,0,0,2.64,3.27A3.57,3.57,0,0,1,60.58,38a29.39,29.39,0,0,1,2.64,2.26c.79.73,1.7,1.86,2.38,2.38a28.38,28.38,0,0,0,3-1.37c-1-.47-2-.61-3.06-1.19a15.13,15.13,0,0,1-1.25-1.58c-.75-.84-1.56-2.31-2.74-2.71Z"/><path id="path4992" class="cls-32" d="M53.73,6.3c.45.54.83,1.17,1.23,1.73A7.25,7.25,0,0,0,56.2,9c.65.86,1.3,1.76,1.87,2.56l.77.24c-.74-1.73-2-3.79-3.27-4.58a2.28,2.28,0,0,1,1.11-.12c.46.43,1,1.06,1.32,1.43a4,4,0,0,0,1.74,1.73,18.17,18.17,0,0,0,2.55,1.25,10.26,10.26,0,0,0,2,1.84,7.45,7.45,0,0,0-1.45-2.26,4.68,4.68,0,0,1-1.11-.71A6.68,6.68,0,0,1,60.53,8C59.69,8.07,58.86,8,58,8a10.7,10.7,0,0,1-.72-1.49,4.71,4.71,0,0,0-2.64-1.19c-.89.07-.89.68-.94,1Z"/><path id="path4994" class="cls-33" d="M70.27,23.79c-1.72-1.33-2.81-3.37-4.59-5.06a1.82,1.82,0,0,0-1.15-.54,5.62,5.62,0,0,1-.6-1.61,1.35,1.35,0,0,1-.81,0,9.21,9.21,0,0,0-.85-1.19c.32-.51.7-.77.55-1.61-.24-.38-.63-1-1.06-1.13a2,2,0,0,0-.47.06,12.92,12.92,0,0,1,.81,1.78c-.08.17-.08.43-.26.54-.45-.55-1-1.49-1.66-1.67a11.9,11.9,0,0,0-1.62-.71,30.74,30.74,0,0,1,2.81,3.51A23.42,23.42,0,0,0,63,18c2.33,1.93,5,4.78,7.14,6.31.29,0,.18.33.26.48a3,3,0,0,0,1.74-.48,7.42,7.42,0,0,1,.47-.89,12.23,12.23,0,0,0,2.34,0c-.19-1.16-1.44-1.34-2-2-.05-.28-.08-.51-.13-.77-1.5-.88-2.83-2.83-3.91-4.34A34.3,34.3,0,0,1,67,12.49c-1-.88-1.79-2.19-2.76-3.09a28.54,28.54,0,0,0,2.38,5.24c.61.05.9.8,1.28,1.19.48,1.07,1.3,2,1.74,3.09a14.11,14.11,0,0,1-1.74-1.73,8.12,8.12,0,0,0-2.47-2.74,10.51,10.51,0,0,1,.77,2,19.52,19.52,0,0,1,4.12,5.24c-.36,0-.54-.31-.81-.48-.72-2.23-2.29-2.95-3.53-4.11.43,2,1.78,2.43,2.55,3.51a8.45,8.45,0,0,0,1.74,2.14q0,.54,0,1.07Z"/><path id="path4996" class="cls-29" d="M61.47,19a8,8,0,0,1,1.83.71,6.5,6.5,0,0,0,1.36,1.73c.94,1.23,2.09,1.55,2.93,2.74a5,5,0,0,1-2.64-1,2.68,2.68,0,0,0-1-.36,12.38,12.38,0,0,0-1.23-1.37A9.92,9.92,0,0,0,61.47,19Z"/><path id="path5002" class="cls-29" d="M63.68,23.38a3.31,3.31,0,0,1,.85.12,6.89,6.89,0,0,1,1.91,1.19c.16.28.32.55.47.83-.5-.19-1.18-.54-1.45-.65s-.21.11-.34.18a5.42,5.42,0,0,1-.81-.71c-.29-.41-.41-.58-.64-1Z"/><path id="path5004" class="cls-29" d="M59.73,20.88A6.85,6.85,0,0,1,61,23.2c.69.86,1.4,1.09,1.74,2a3,3,0,0,0-1.57-.71,9.67,9.67,0,0,0-1.06-2c-.44-.59-.95-1.17-1.3-1.61Z"/><path id="path5006" class="cls-29" d="M64.49,32.24c.88.28,1.6,1.08,2.42,1.43a5.14,5.14,0,0,0,1.74,2.56,9,9,0,0,1-1.57-.36,7,7,0,0,1-1.28-2.14,12.94,12.94,0,0,0-1.32-1.49Z"/><path id="path5008" class="cls-29" d="M68.53,37a5.71,5.71,0,0,1,.94.48c.45.58.72,1.18,1.06,1.67a5,5,0,0,1,1.23,1,1.51,1.51,0,0,1-1.19,0,3.69,3.69,0,0,1-1.28-2.26C69,37.48,68.81,37.3,68.53,37Z"/><path id="path5010" class="cls-34" d="M68.95,10.84l-.41.4a6.77,6.77,0,0,0,2.28,1.55c.67,2.31,2.59,3.54,3.82,5.27a5.2,5.2,0,0,0,3.76.86c.35-.11.68.15,1,.35a7.64,7.64,0,0,0,1.11,2.25c1.67,1.54,3.9,1.91,5.24,4.06a10.62,10.62,0,0,0,1.3.52c.35,1.28,1.34,2,1.91,2.94-1.46,0-2.89.26-4.32.26a20.13,20.13,0,0,0-3-2.25c-2.44-.49-4.24-2.47-6.54-3.54.89,2,2.67,2.16,3.82,3.37a8.24,8.24,0,0,0,.56,2.5,10.21,10.21,0,0,1,3.58.69,10.08,10.08,0,0,1,2.59.35,14.54,14.54,0,0,1,1,1.73,5.7,5.7,0,0,1,2,.17,13.58,13.58,0,0,1-2.16.6c-1.39-1-2.25-2-3.89-2.42,1.14.39,1.76,2,2.53,3.11A13.94,13.94,0,0,0,89,33.52a4.3,4.3,0,0,1,1.54,1c-.84-.15-.91-.09-2.16.43,2.63.64,5-.66,7.28-1.3.17,0,10.9,6.28,12.44,6.18-2.43-1.53-13.75-10.12-15-12.69a24.66,24.66,0,0,1-8.44-5c-2.32-1.8-3.07-3.28-5.32-5-.34,0,0,0-2.29-1.46-.7-.59-2.05-2.12-3-2.48a3.86,3.86,0,0,1-1.46-.15A6.27,6.27,0,0,1,70,10.84Z"/><path id="path5015" class="cls-29" d="M64.59,26.28c.53,1.59,1.76,1.67,2.52,2.47a2.48,2.48,0,0,0,.17-.82c1,.38,1.68,1.32,2.69,1.88-.29.11-.48.23-.76.35a4.32,4.32,0,0,0,1.93,2.7l.08-.47c.79.06.93.71,1.51,1.53a4.76,4.76,0,0,0,.5-.94C74.88,34.74,76.43,36.44,78,38c-.87.33,11.54,9.55,11.07,10.13C87.78,48,73.82,38.11,73,37.1c-.47-.43-.38-.91-.59-1.41-1.18-.38-1.63-1.42-2.18-2.82a3.21,3.21,0,0,0-2-1.41,8.88,8.88,0,0,0-.34-1.18c-.15.26-.28.55-.42.82-1.68-.8-2.43-2.61-2.86-4.82Z"/></g><g id="g5394"><g id="g5380"><path id="path5336" class="cls-35" d="M6.67,19a8,8,0,0,0-2.11.58A6.59,6.59,0,0,1-.54,21.35L-.75,68h2C2.81,66.5,4,63.49,5.57,61.1c3.24-5,4.92-3.84,1.62-9.08a29.55,29.55,0,0,1,5.08-10.75c-3.07,2.39-6.68,5.8-10.6,6.36a59.65,59.65,0,0,0,6.06-11.2c-.54.28-1.11.36-1.62.61a11.74,11.74,0,0,1,2.81-4.09C10,31.23,11.2,30,12.39,28.41c-1.87.78-4.63,1.21-2.16-2.57,1.88-.88,2.93-.41,3.68-3,1.28-1.19,3-1.7,4.43-3l-.84-.25-.21.22a.56.56,0,0,1-.4-.4h0l-.81-.27a5.6,5.6,0,0,0-.66.82h-.63c-1.07-.18-1.39.4-2.19,1-2-.35-3.21-1.27-5.11-1.75A2.47,2.47,0,0,0,6.67,19Z"/><g id="g5064"><g id="g5053"><path id="path5043" class="cls-35" d="M11.82,35.22a17.51,17.51,0,0,0,1.76-4c.57-2.2,1.84-2.47,3-3.76a22.07,22.07,0,0,1,1.76-4.12h.84a7.91,7.91,0,0,0,2.69-4.82c1.24-3.42,3.72-3.83,5.88-5.17a19,19,0,0,0-2.69,3.76,2.27,2.27,0,0,0,.17.71c.44.13.68-.16,1-.24a13.7,13.7,0,0,1,0,2.23,15.64,15.64,0,0,1-2.35.47A8.22,8.22,0,0,0,20,23.22c.56.51.42,1,.42,1.88a16.79,16.79,0,0,1-2.27,3.65,3.23,3.23,0,0,0,.42,1.76c-.48,2.62-2.1,4.7-2.77,7.06a28.51,28.51,0,0,1,.17-6.35c-.5-.27-.9,0-1.34.12C14.15,33.26,12.69,34,11.82,35.22Z"/><path id="path5045" class="cls-35" d="M33.24,30a14.65,14.65,0,0,0,2.35-3.41c.61-1.32,1.28-2.66,1.76-3.88a12.09,12.09,0,0,0,2.1-2c-.8,1.86-1.36,3.6-2.18,5.41A82.49,82.49,0,0,0,32.91,35c.31-2,1.08-3.16,1.51-5.17C33.86,30.42,33.85,30.13,33.24,30Z"/><path id="path5047" class="cls-35" d="M34,36a43.44,43.44,0,0,0,3-4.7,10.06,10.06,0,0,0,1.85-3.41,28.07,28.07,0,0,0,2-2.35c-.48,1-.72,1.93-1.09,2.7.78-.45,1.13-.9,1.76-1.29,0,.37-.11.71-.17,1.06C38.68,29.9,35.21,35.7,34,36Z"/><path id="path5049" class="cls-35" d="M38.37,9.34c0,1.18,0,2.35-.08,3.53.17.56.3,1.08.42,1.65-3.13,2.58-4.64,6-5.8,8.47-.4,1.27-.82,2.26-1.09,3.53-2.41,2.3-3.34,6.21-5.29,8.94a9.06,9.06,0,0,0-2.35,4.23c.12.66.54.83.76,1.18,1.78,1.27-4.08,5.15-5.29,6,1-1.94,2-3.82,2.77-5.29.47-1.25,1-2.23,1.43-3.53.46-.14.17-.64.25-.94a16.8,16.8,0,0,0,2.77-4.7c1.58-2,2.51-5.45,3.11-8.23a6.63,6.63,0,0,0-2.27,2.59c.89-3.38,4-4.44,5.29-6.94a4.29,4.29,0,0,0-1.18-1.88c-1.57,2.38-5.52,5.53-6.89,8,2-3.88,5-7,6.05-8.7C33.83,15.82,35.57,8.17,38.37,9.34Z"/><path id="path5051" class="cls-35" d="M20.56,31.1c1.21-1.48,2.22-3.79,3.7-4.7a28.45,28.45,0,0,1-1.51,3.76c-1.94,2.51-3.58,5.61-5.25,7.82C18.46,35.27,19.25,32.75,20.56,31.1Z"/></g><path id="path5060" class="cls-35" d="M18.12,39.45a59,59,0,0,0,5.21-6.7c-.38,1.58-1,2.59-1.26,4,.69-.58,1.29-1.27,1.93-1.76-1.82,3.48-2.11,7.39-4.71,9.41a5.54,5.54,0,0,0,.25,2.23c-2.7,3.24-6.22,4.31-8.74,7.06,2-2.1,4-4.61,5.71-6.47a42.1,42.1,0,0,0,2.35-4.47,7.59,7.59,0,0,1-.08-1.65,10,10,0,0,0-2.69,3.41c.88-1.66,1.35-3.45,2-5.06Z"/><path id="path5062" class="cls-35" d="M13.16,42.39c1.72-.93,2.54-2.85,3.78-4.59a8.49,8.49,0,0,1-.67,3.65,5.58,5.58,0,0,0-2,3.18,14.17,14.17,0,0,0-2.86,3.53C11.89,46.19,12.63,44,13.16,42.39Z"/></g></g><path id="path5392" class="cls-35" d="M24.63,28.79c.15,1.54.55,1.25,1.33,1.86a81.91,81.91,0,0,0-2.66,8.28c2.94-6.2,8-10.22,5.84-15.32-1.44,2.25-3.13,3.25-4.51,5.17Z"/></g></g><g id="g5100"><path id="path5484" class="cls-36" d="M94,38a31.85,31.85,0,0,0,3.76-.83c1.5,5.17-1.21,7.42-1.67,12.93-.9.72-2,.28-2.92.42-.74-1.32-.28-2.78-.42-4.17h2.09c.18-3.44-.53-5.3-.84-8.34Z"/><path id="path5486" class="cls-37" d="M92.33,36.22c-.16,1.66.64,2.14,1,3.26a62.93,62.93,0,0,0-1.63,6.84V40.77c0-3.05-1-3.26-2.94-5Z"/><path id="path5488" class="cls-38" d="M101.14,37.52a18.24,18.24,0,0,1,4.24,2.61c1.47,1.1,2.9,1.12,4.24,1.63,1.41,3,1,4.48,1.63,7.49-2.79-1-3.4-2.32-4.89-4.56-2.38-2-3.78-5-5.22-7.16Z"/><path id="path7340" class="cls-39" d="M78.14,49.55a33.53,33.53,0,0,1,3.92.51,4.75,4.75,0,0,1,1,.05c.21-2.69-1.42-5.07-2.94-7.15a2.55,2.55,0,0,1,.57-1.34,23.47,23.47,0,0,1,2.94,2.06c1.18.79,1.91,2.1,3.09,3,1.84,1.38,4.56,1.75,6.34,3.09-.21,1.51.31,3,.46,4.48a65.46,65.46,0,0,1-9.8-8.49A6.17,6.17,0,0,0,82.52,45l-.21.21A103.23,103.23,0,0,0,88,55C85.19,52.86,81.61,50.18,78.14,49.55Z"/><path id="path7342" class="cls-40" d="M104.62,43.2a27,27,0,0,0-1.79-2.28c-.81-.93-1.46-2.39-2.38-3,.52,4-2.13,8-2.13,11.86,1.48-2,1.53-5.22,3.15-7.07a5.59,5.59,0,0,1,2.18.58c.07,3.58-1.94,7-2.28,10.36,2.21-2,3.54-4.58,4.95-7.12A18.18,18.18,0,0,1,109.67,49c.09,1.73,0,3.49,0,5.23a10.68,10.68,0,0,1,1.79-1.55c0-1.26-.39-2.25-.39-3.49l-1.7-.77c-1.91-1.35-3.08-3.68-4.8-5.18Z"/></g></g></g></svg>