<?xml version="1.0" encoding="utf-8"?>
<!-- Generator: Adobe Illustrator 21.1.0, SVG Export Plug-In . SVG Version: 6.00 Build 0)  -->
<svg version="1.1" preserveAspectRatio="none" id="Layer_1" xmlns="http://www.w3.org/2000/svg" xmlns:xlink="http://www.w3.org/1999/xlink" x="0px" y="0px"
	 viewBox="0 0 720 444.4" style="enable-background:new 0 0 720 444.4;" xml:space="preserve">
<style type="text/css">
	.st0{clip-path:url(#SVGID_2_);}
	.st1{fill:#95A3A6;}
	.st2{fill:#7C8690;}
	.st3{fill:#605D70;}
</style>
<title>Artboard 1</title>
<g>
	<defs>
		<rect id="SVGID_1_" x="-5.7" y="-144.8" width="723" height="588.4"/>
	</defs>
	<clipPath id="SVGID_2_">
		<use xlink:href="#SVGID_1_"  style="overflow:visible;"/>
	</clipPath>
	<g class="st0">
		<path class="st1" d="M-9.1,48c0.2-2.4,7.1,2.8,10.6,3.5s9.3-0.5,16-1.4s12-6.9,21.4-11.7C50.4,32.8,61,25.6,70.4,16.9
			c5.7-5.4,17.8-8.4,27.3-7.5s22.2,4.9,33.5,10.2s22.2,14.1,33.2,21.9s15.7,20.7,24.4,29.3c3.6,3.5,13,0.6,18.8-0.6s11.4-5.3,18-8.2
			s11.8-9.4,17.4-11.2s8.6,6.6,11.7,9c11.8,9,25.4,14.3,33.6,22.3s10.9,18.5,17.6,24.5s20.2,3.1,27.5,6.1s13.3,10.7,23.2,9.6
			c3.2-0.4,21-17.1,24.6-21.9s1.9-12.5,5.9-14.8s5.7,1.5,10.3,4.8c5.6,3.9,11.7,7,18.2,9.2c5.6,1.7,12.1-7.3,17.2-8s8.4,1,12.1-2.4
			s10.5-6.1,11.9-12.4c1.5-6.8,24.6,6.4,32.6,14s10.4,22.4,20.1,26.3c9.7,3.9,21.9-1.3,32.4-8.3s20-7,27.3-7s16-1.7,21.2,2.2
			s9.1,10.3,13.7,15.2s7.1,10.7,12.2,13.5c14.6,8.1,29.4,14.2,41.6,12s18.5-15.5,27.5-22.5c9-7,18.2-12.9,23.1-19.2
			s4.3-15.6,6.9-9.7c2.7,6.1-2.6,6.2-2.1,12.6s6.9,6.1,7.4,12.5s-2.6,6.6-2.1,13c0.5,6.4,1,6.4,1.1,12.8c0.2,12.5,1.7,12.5,1.5,25
			s6.4,12.5,6.3,25s-6.4,12.4-6.6,24.9s-6.1,12.4-6.3,24.9c-0.2,12.5,7.7,12.6,7.5,25s-0.9,12.5-1.1,25s-7.9,12.4-8.1,24.9
			s-0.6,12.5-0.7,25s8,12.6,7.8,25s-6.8,12.4-7,24.9s1.3,12.5,1.2,25s10,13-0.8,21.9c-10.6,8.7-11.2,2.7-26.2,2.7s-15,4.5-30,4.5
			s-15-0.6-30-0.6s-15-2.4-30-2.4s-15-5-30-5s-15,2.4-30,2.4s-15,2-30,2s-15,4.5-30,4.5s-15-3.8-30-3.8s-15,2.1-30,2.1
			s-15-8.8-30-8.8s-15,11.1-30,11.1s-15-4.5-30-4.5s-15,4.8-30,4.8s-15-3.8-30-3.8s-15-4-30-4s-15-2.1-30-2.1s-15,0.6-30,0.6
			s-15,0.2-30,0.2s-15-1.7-30-1.7s-15,4.2-30,4.2s-15-2.3-30-2.3s-15-0.5-30-0.5S6.2,453-4.3,444.4s-0.8-13.1-0.8-25.4
			s3.9-12.3,3.9-24.7s-6.6-12.4-6.6-24.7s-1.4-12.4-1.4-24.7s6.7-12.4,6.7-24.7S-6,307.7-6,295.4s6.7-12.4,6.7-24.7
			s-2.2-12.4-2.2-24.7c0-12.4-2.7-12.3-2.7-24.7s-2.4-12.4-2.4-24.7s0.3-12.4,0.3-24.7s0.5-12.4,0.5-24.7s7.5-12.4,7.5-24.7
			S-8.6,110-8.6,97.6s10.2-12.8,8-25C-2.8,60-10.1,60.3-9.1,48z"/>
		<path class="st2" d="M720.9,154c-12.3-7.1-15.7,12-29.5,17s-12.5,7.4-26.2,12.4s-15.3,4.6-30.4,4.8c-17.4,0.2-13.1-5.9-27.8-17.2
			c-7.6-5.8-13-15.3-23.3-20.9c-9.9-5.2-20.3-9.4-31-12.3c-10.9-3.2-21.7-2.1-33.4-1.6c-10.9,0.5-21.6-0.1-32.7,4.9
			c-9,4.1-16.9,10.2-25.7,18.2c-8,7.4-15.4,13.5-22.2,17.4c-10.6,6-22,9.8-30.2,9.2c-9.8-0.7-17.5-9.2-25.4-15.4
			c-6.9-5.4-12.7-12.4-19.3-18.8s-10.5-16.5-18.1-21.1c-15.4-9.5-29.6-2.2-39.4,5.3c-8.1,6.2-19.3,11.3-31.5,17.9
			c-10.9,5.8-13.4,9.4-25.6,4.9c-6.9-2.5-15.6-6.4-27.8-12.1c-7.7-3.6-20.4-2.3-31.3-7.1c-9.1-4-15.6-8.7-25.4-7.4
			c-9.3,1.3-18.6-1.4-28.4-1.6c-8.7-0.2-14.9,0.3-24-5.5c-6.2-4-17.6-5.6-23.9-13.8c-5.8-7.6-6.2-18.4-13-23.6
			c-8-6.1-18.7-10-27-13.5c-10-4.2-21.7-3.5-30.4-5C0.5,66-9.2,53.9-14.8,65.4c-5.6,11.5,7,13.4,7,25.9s-8.2,12.5-8.2,24.9
			s9.8,12.4,9.9,24.9c0.1,13.6-12.6,13.7-12.4,27.3s10,13.5,10.1,27.2s-9,13.7-8.8,27.3s3,13.6,3.2,27.2c0.2,13.6,9.3,13.5,9.5,27.2
			s0.2,13.6,0.3,27.2s-1.9,13.6-1.7,27.2s-0.6,13.6-0.4,27.2s-6.5,13.7-6.3,27.3s-1.5,13.7-1.3,27.3s-7.5,18.9,4.3,28.6
			c11.5,9.5,18.1,2,34.5,2s16.4-1.3,32.8-1.3s16.4-4.7,32.8-4.7s16.4,2.7,32.8,2.7s16.4,3.8,32.8,3.8s16.4-7.6,32.8-7.6
			s16.4,6.6,32.8,6.6s16.4,1.2,32.8,1.2s16.4-7.8,32.8-7.8s16.4,4.5,32.7,4.5s16.4,4,32.8,4s16.4-0.1,32.8-0.1s16.4-7.8,32.8-7.8
			s16.4-2.2,32.8-2.2s16.4,0.8,32.8,0.8s16.4,2.2,32.8,2.2s16.4,4,32.8,4s16.4-2.6,32.8-2.6s16.4,6.6,32.8,6.6s16.4-2.6,32.8-2.6
			s16.4-2.3,32.8-2.3s25.2,12.2,37,3c11.4-8.9,1.9-16.5,2.1-29.3s-3.2-12.9-3-25.7s-1.7-12.9-1.5-25.7s-0.7-12.9-0.5-25.7
			s3.9-12.8,4.1-25.7s-4.3-13-4.1-25.8s-1.4-12.9-1.2-25.7c0.2-12.8,9-12.8,9.2-25.6s-11-13-10.8-25.8s3.9-12.6,8.3-25
			C725.3,168.9,733.7,161.4,720.9,154z"/>
		<path class="st3" d="M-3.4,443.6c-8.5-8.3,4.9-11.9,4.8-23.8s-8.2-11.9-8.2-23.8s7.6-12,7.5-23.9s-9.4-11.8-9.5-23.7
			s4.6-11.9,4.5-23.9s7-11.9,6.9-23.8S0,289,0,277.1s-4.9-11.9-5-23.8c-0.1-11.9,4.4-11.9,4.3-23.8s-6.1-11.8-6.2-23.8
			s-2.6-11.9-2.7-23.8s-6.7-20.5,4.7-23.8c12.2-3.5,12.9,5.5,21.3,15s8.3,9.6,16.7,19.2s7,10.8,15.4,20.3s5.2,12.4,13.5,22
			s3,18,14.2,24.1c11.7,6.5,10.1-15,23.6-22.9c7.5-4.3,14.6-9.1,21.3-14.5c6.5-5.4,12.4-11.5,17.5-18.2c5.6-7,16.4-12.2,23.7-13.9
			c7.4-1.6,17,3,25,4.2s15,8,22.3,9.3c8.9,1.5,18.6,1.3,24.8-1.5c8.2-3.7,17.4-3.6,23.2-6.9c8.2-4.8,12.2-13.1,17.4-16.8
			c7.8-5.6,12-10.1,19-11.4c5.8-1.1,12.8-6.4,23-3.3c11.5,1.1,9,1.9,22.3-0.3c6.9-1.1,15.2-0.3,23.2-2c8.5-1.8,9.6-13,15-17.4
			c6-4.8,15.6-10.8,24-11.4c5.7-0.4,11.2,12.2,20.4,16.5c5.6,2.6,10.2,7.8,17.8,12.9c5.5,3.8,19.8-2.9,26.5,2.4
			c5.4,4.3,6.2,15.4,12.5,20.8c5.3,4.6,15.6,4.5,21.7,9.9c5.3,4.8,11,7.8,18.5,11.9c6.5,3.5,12.5,7.3,20.2,10.3
			c7,2.8,10.1,17.6,17.8,20c7.3,2.3,17.4-3.9,25.1-2s14.2,7.8,21.9,9.5s14.8,7,22.4,8.3c7.9,1.5,16.9-3.9,24.3-2.8
			c8.2,1.3,16.8-4.2,24.1-3.3c8.7,1.1,15.7,8.4,22.4,9.1c14.4,1.6,24.3-10,28.3,1c4,11-9,13.3-9.2,24.9s6.7,11.7,6.5,23.2
			s0.3,11.6,0.2,23.2s-3.6,11.5-3.7,23.1s-3,11.5-3.2,23.1s-4.5,11.6-4.7,23.1s11.2,11.8,11,23.3s5.7,17.2-2.7,25.1
			c-8.7,8.3-14,2.4-26,2.4s-12-4.3-24-4.3s-12,4-24,4s-12-3-24-3s-12-7.8-24-7.8s-12,10.5-24,10.5s-12-8.2-24-8.2s-12,5.6-24,5.6
			s-12-6.4-24-6.4s-12,5-24,5s-12,0.9-24,0.9s-12-5.3-24-5.3s-12,5.4-24,5.4s-12,2.5-24,2.5s-12,1.8-24,1.8s-12-7-24-7s-12-3-24-3
			s-12-1.8-24-1.8s-12,7.6-24,7.6s-12,5.5-24,5.5s-12-12.7-24-12.7s-12,12.2-24,12.2s-12-7.5-24-7.5s-12-1.6-24-1.6s-12,3.2-24,3.2
			s-12,0.4-24,0.4s-12,2.8-24,2.8s-12,0.4-24,0.4s-11,0.2-22.7,2.7C9.4,452.5,5.2,452-3.4,443.6z"/>
	</g>
</g>
</svg>
