<?xml version="1.0" encoding="UTF-8" standalone="no"?>
<!-- Generator: Adobe Illustrator 21.1.0, SVG Export Plug-In . SVG Version: 6.00 Build 0)  -->

<svg
   xmlns:dc="http://purl.org/dc/elements/1.1/"
   xmlns:cc="http://creativecommons.org/ns#"
   xmlns:rdf="http://www.w3.org/1999/02/22-rdf-syntax-ns#"
   xmlns:svg="http://www.w3.org/2000/svg"
   xmlns="http://www.w3.org/2000/svg"
   xmlns:sodipodi="http://sodipodi.sourceforge.net/DTD/sodipodi-0.dtd"
   xmlns:inkscape="http://www.inkscape.org/namespaces/inkscape"
   version="1.1"
   id="Layer_1"
   x="0px"
   y="0px"
   viewBox="0 0 553.3219 231.91702"
   xml:space="preserve"
   sodipodi:docname="scheduleplane.svg"
   width="553.3219"
   height="231.91702"
   inkscape:version="0.92.2 (5c3e80d, 2017-08-06)"><metadata
     id="metadata133"><rdf:RDF><cc:Work
         rdf:about=""><dc:format>image/svg+xml</dc:format><dc:type
           rdf:resource="http://purl.org/dc/dcmitype/StillImage" /><dc:title></dc:title></cc:Work></rdf:RDF></metadata><defs
     id="defs131" /><sodipodi:namedview
     pagecolor="#ffffff"
     bordercolor="#666666"
     borderopacity="1"
     objecttolerance="10"
     gridtolerance="10"
     guidetolerance="10"
     inkscape:pageopacity="0"
     inkscape:pageshadow="2"
     inkscape:window-width="640"
     inkscape:window-height="480"
     id="namedview129"
     showgrid="false"
     fit-margin-top="0"
     fit-margin-left="0"
     fit-margin-right="0"
     fit-margin-bottom="0"
     inkscape:zoom="0.40972222"
     inkscape:cx="282.12188"
     inkscape:cy="130.7635"
     inkscape:window-x="0"
     inkscape:window-y="0"
     inkscape:window-maximized="0"
     inkscape:current-layer="Layer_1" /><style
     type="text/css"
     id="style2">
	.st0{fill-rule:evenodd;clip-rule:evenodd;fill:#404041;}
	.st1{fill-rule:evenodd;clip-rule:evenodd;fill:#C96C38;}
	.st2{fill-rule:evenodd;clip-rule:evenodd;fill:#A15641;}
	.st3{fill-rule:evenodd;clip-rule:evenodd;fill:#DCEFE2;}
	.st4{fill-rule:evenodd;clip-rule:evenodd;fill:#E6E7E8;}
	.st5{fill-rule:evenodd;clip-rule:evenodd;fill:#FDCF9D;}
	.st6{fill-rule:evenodd;clip-rule:evenodd;fill:#C16F4A;}
	.st7{fill-rule:evenodd;clip-rule:evenodd;fill:#B46538;}
	.st8{fill-rule:evenodd;clip-rule:evenodd;fill:#58595B;}
	.st9{fill-rule:evenodd;clip-rule:evenodd;fill:#DCE2D0;}
	.st10{fill-rule:evenodd;clip-rule:evenodd;fill:#9AA08D;}
	.st11{fill-rule:evenodd;clip-rule:evenodd;fill:#929497;}
	.st12{fill-rule:evenodd;clip-rule:evenodd;fill:#A6A8AB;}
	.st13{fill-rule:evenodd;clip-rule:evenodd;fill:#6D6E70;}
	.st14{fill-rule:evenodd;clip-rule:evenodd;fill:#5A666E;}
	.st15{fill-rule:evenodd;clip-rule:evenodd;fill:#43525A;}
	.st16{fill-rule:evenodd;clip-rule:evenodd;fill:#F2F2F2;}
	.st17{fill:#E3302A;}
	.st18{fill:#393E4B;}
	.st19{fill:#D8A78E;}
	.st20{fill:#F6BDA2;}
	.st21{fill:#F5BCA1;}
	.st22{fill:#B5BCAD;}
</style><path
     class="st0"
     d="m 155.02188,143.55353 c -1.9,-1.1 -15.5,-3.1 -15.5,-3.1 -8.7,1.9 -11.9,10.4 -10.9,17.7 -12.8,0.8 -20,3.4 -28.999996,-7.9 0,0 -2.6,5.8 1.699996,12.7 4.4,6.9 12.5,14.7 30.4,11 17.9,-3.8 32.7,-5.5 33.2,-13.9 0.5,-8.3 -9.9,-16.5 -9.9,-16.5 z"
     id="path4"
     inkscape:connector-curvature="0"
     style="clip-rule:evenodd;fill:#404041;fill-rule:evenodd" /><g
     id="g16"
     transform="translate(-5.8781164,-186.84647)"><ellipse
       transform="matrix(0.9264,-0.3764,0.3764,0.9264,-144.2447,81.7644)"
       class="st0"
       cx="137.10001"
       cy="410"
       rx="9.8000002"
       ry="8.6000004"
       id="ellipse6"
       style="clip-rule:evenodd;fill:#404041;fill-rule:evenodd" /><path
       class="st1"
       d="m 151.3,404.6 c 1.1,2.4 -3.9,6.1 -9.7,10.2 -5.8,4.2 -17,3.6 -18,-3.9 -1,-7.5 3.8,-12.7 10.8,-14.1 10,-1.9 16.9,7.8 16.9,7.8 z"
       id="path8"
       inkscape:connector-curvature="0"
       style="clip-rule:evenodd;fill:#c96c38;fill-rule:evenodd" /><path
       class="st2"
       d="m 123.6,410.9 c -1,-7.5 3.8,-12.7 10.8,-14.1 5.1,-1 9.4,1 12.4,3.3 -13.8,-5.6 -19.3,11.7 -17.1,16.9 -3.2,-0.7 -5.7,-2.7 -6.1,-6.1 z"
       id="path10"
       inkscape:connector-curvature="0"
       style="clip-rule:evenodd;fill:#a15641;fill-rule:evenodd" /><path
       class="st1"
       d="m 133.9,373.1 c -0.3,4.5 0,12.7 3.1,25.5 -3.5,3.5 -6.8,0.9 -6.8,0.9 L 121,376.3 Z"
       id="path12"
       inkscape:connector-curvature="0"
       style="clip-rule:evenodd;fill:#c96c38;fill-rule:evenodd" /><path
       class="st2"
       d="m 128.4,374.5 c 0.6,6.2 1.9,17 5.3,25.9 -2,0.3 -3.5,-0.9 -3.5,-0.9 -4.6,-9.4 -7.2,-16.4 -9.4,-23.2 z"
       id="path14"
       inkscape:connector-curvature="0"
       style="clip-rule:evenodd;fill:#a15641;fill-rule:evenodd" /></g><path
     class="st3"
     d="m 104.52188,155.05353 c -4,-2.6 -5.999996,-3.7 -5.999996,-3.7 0,0 8.499996,-9.4 15.299996,-8.4 3.5,0.4 7.3,1.7 10.8,4.4 11.2,8.7 4.2,17.1 4.2,17.1 h -2.2 c -9.8,-0.2 -18.3,-7 -22.1,-9.4 z"
     id="path18"
     inkscape:connector-curvature="0"
     style="clip-rule:evenodd;fill:#dcefe2;fill-rule:evenodd" /><path
     class="st2"
     d="m 211.62188,130.75353 c -5.3,-1.8 -12.1,-4.5 -18.6,-4.9 -6.5,-0.5 -13.1,-0.2 -7.7,6.2 5.4,6.5 13.4,11.3 18.5,12.3 5.1,0.9 7.8,-13.6 7.8,-13.6 z"
     id="path20"
     inkscape:connector-curvature="0"
     style="clip-rule:evenodd;fill:#a15641;fill-rule:evenodd" /><path
     class="st1"
     d="m 208.42188,140.65353 c -6.8,-2.8 -7.8,-2.7 -15.9,-7.5 -8.1,-4.8 -8.3,-6.6 -5.9,-7.3 1.8,-0.2 4,-0.2 6.3,0 6.5,0.5 13.4,3.1 18.6,4.9 0.1,0 -1,5.9 -3.1,9.9 z"
     id="path22"
     inkscape:connector-curvature="0"
     style="clip-rule:evenodd;fill:#c96c38;fill-rule:evenodd" /><path
     class="st1"
     d="m 42.521884,145.05353 c -2.9,-0.5 -22,-2.3 -42.30000043,7.2 -5.39999997,2.5 111.59999643,31.8 126.29999643,33 15.3,-1.4 32.3,-9.8 36.4,-12.3 -46.7,-12.6 -99.599996,-24 -120.399996,-27.9 z"
     id="path24"
     inkscape:connector-curvature="0"
     style="clip-rule:evenodd;fill:#c96c38;fill-rule:evenodd" /><path
     class="st2"
     d="m 3.8218836,150.75353 c -0.9,0.3 -2.90000003,0.9 -3.70000003,1.6 -4.39999997,4 111.69999643,31.7 126.39999643,32.9 16.9,-1.4 31.2,-8.8 36.4,-12.3 -16.2,1.7 -26.6,5.7 -36.5,9.8 z"
     id="path26"
     inkscape:connector-curvature="0"
     style="clip-rule:evenodd;fill:#a15641;fill-rule:evenodd" /><g
     id="g38"
     transform="translate(-5.8781164,-186.84647)"><ellipse
       transform="matrix(0.1616,-0.9869,0.9869,0.1616,-308.9244,423.441)"
       class="st0"
       cx="94.699997"
       cy="393.5"
       rx="7.5999999"
       ry="8.6999998"
       id="ellipse28"
       style="clip-rule:evenodd;fill:#404041;fill-rule:evenodd" /><path
       class="st1"
       d="m 107.9,396 c -0.3,2.3 -5.7,2.8 -12,3.3 -6.3,0.5 -14.5,-5.1 -11.8,-11.2 2.7,-6.1 8.7,-7.8 14.6,-5.7 8.5,3.1 9.2,13.6 9.2,13.6 z"
       id="path30"
       inkscape:connector-curvature="0"
       style="clip-rule:evenodd;fill:#c96c38;fill-rule:evenodd" /><path
       class="st2"
       d="m 84.1,388 c 2.7,-6.1 8.7,-7.8 14.6,-5.7 4.3,1.6 6.6,5.1 7.8,8.2 -7.8,-10.6 -19.9,-0.1 -20.7,4.9 -1.9,-2 -2.9,-4.6 -1.7,-7.4 z"
       id="path32"
       inkscape:connector-curvature="0"
       style="clip-rule:evenodd;fill:#a15641;fill-rule:evenodd" /><path
       class="st1"
       d="m 109.3,364.2 c -2.3,3.3 -5.9,9.6 -9.4,20.7 -4.2,1 -5.5,-2.5 -5.5,-2.5 l 3.8,-21.8 z"
       id="path34"
       inkscape:connector-curvature="0"
       style="clip-rule:evenodd;fill:#c96c38;fill-rule:evenodd" /><path
       class="st2"
       d="m 104.5,362.7 c -2.4,4.9 -6.4,13.7 -7.9,22 -1.7,-0.7 -2.3,-2.3 -2.3,-2.3 0.9,-9.2 2.1,-15.7 3.5,-21.8 z"
       id="path36"
       inkscape:connector-curvature="0"
       style="clip-rule:evenodd;fill:#a15641;fill-rule:evenodd" /></g><rect
     x="220.37936"
     y="179.2021"
     transform="rotate(-7.3943556)"
     class="st4"
     width="51.200836"
     height="2.2000358"
     id="rect40"
     style="clip-rule:evenodd;fill:#e6e7e8;fill-rule:evenodd;stroke-width:1.00001633" /><polygon
     class="st4"
     points="244.7,324.4 274.1,283.7 275.9,284.9 246.5,325.7 "
     id="polygon42"
     style="clip-rule:evenodd;fill:#e6e7e8;fill-rule:evenodd"
     transform="translate(-5.8781164,-186.84647)" /><path
     class="st2"
     d="m 179.02188,152.35353 c 13.8,-3.4 23.4,-9 29.3,-20 5.9,-11 10.5,-20 18.7,-23.9 8.2,-3.9 17.9,-3.9 18.6,2.5 0.7,6.4 6,36.6 -8.5,45 -41.9,17 -53.8,33.1 -101.8,39.5 -24,3.2 -42.799996,7.8 -47.399996,6.4 4.4,-4.9 7.1,-15.8 4.1,-27.4 -2.9,-11.6 -15.2,-18.9 -17.5,-19.5 6.3,-1.2 23.2,-4.6 25.1,-4.5 15.799996,2.1 18.199996,15.7 33.999996,12.2 12.7,-2.9 45.4,-10.3 45.4,-10.3 z"
     id="path44"
     inkscape:connector-curvature="0"
     style="clip-rule:evenodd;fill:#a15641;fill-rule:evenodd" /><path
     class="st2"
     d="m 95.021884,150.95353 c 2.4,-0.4 4.1,-0.7 4.6,-0.6 15.799996,2.1 18.199996,15.7 33.999996,12.2 6.3,-1.4 17.4,-3.9 27,-6 0.5,2 0.3,3.5 -1.3,3.8 -1.9,0.4 -19.6,5 -25.2,6 -5.6,1 -10.5,1.2 -14.3,-1.7 -11,-8.7 -14,-10.1 -24.799996,-13.7 z"
     id="path46"
     inkscape:connector-curvature="0"
     style="clip-rule:evenodd;fill:#a15641;fill-rule:evenodd" /><path
     class="st5"
     d="m 95.021884,150.95353 c 2.4,-0.4 4.6,-1.1 5.099996,-1 15.8,2.1 17.7,16.1 33.5,12.6 6.3,-1.4 17.4,-3.9 27,-6 0.5,2 0.3,3.5 -1.3,3.8 -1.9,0.4 -19.6,5 -25.2,6 -5.6,1 -10.5,1.2 -14.3,-1.7 -11,-8.7 -14,-10.1 -24.799996,-13.7 z"
     id="path48"
     inkscape:connector-curvature="0"
     style="clip-rule:evenodd;fill:#fdcf9d;fill-rule:evenodd" /><path
     class="st2"
     d="m 245.42188,144.55353 c -4,-1.4 -13.2,-2.5 -21.5,-1.5 -8.3,1 -13.2,1.4 -12.5,3.6 0.6,2.1 26.5,11.1 38.7,12.4 12.3,1.3 22.9,-3.8 15.3,-7.2 -7.2,-3.3 -20,-7.3 -20,-7.3 z"
     id="path50"
     inkscape:connector-curvature="0"
     style="clip-rule:evenodd;fill:#a15641;fill-rule:evenodd" /><path
     class="st6"
     d="m 81.821884,153.15353 c 0,0 13.5,3.1 18.599996,21.4 5.1,18.3 -4.599996,25.7 -6.799996,27.6 0,0 -16.6,3.5 -24.4,3.8 -7.7,0.3 -19.8,-5.2 -23.3,-19.4 -3.5,-14.2 2,-25.1 13.1,-28.4 11.2,-3.3 22.8,-5 22.8,-5 z"
     id="path52"
     inkscape:connector-curvature="0"
     style="clip-rule:evenodd;fill:#c16f4a;fill-rule:evenodd" /><path
     class="st7"
     d="m 53.821884,200.35353 c 5.5,-7.1 15.1,-18 22.5,-18.7 8.8,-0.8 20.3,-4.5 24.499996,-5.9 4.4,17.5 -4.899996,24.6 -7.099996,26.4 0,0 -16.6,3.5 -24.4,3.8 -4.4,0.2 -10.4,-1.6 -15.5,-5.6 z"
     id="path54"
     inkscape:connector-curvature="0"
     style="clip-rule:evenodd;fill:#b46538;fill-rule:evenodd" /><path
     class="st8"
     d="m 46.021884,186.55353 c -3.3,-13.6 1.2,-25.2 11.8,-27.9 7,-1.8 17,1.9 21.8,17.4 4.2,13.7 2.1,27.5 -9.1,29.8 -5.5,1.2 -20.2,-1.8 -24.5,-19.3 z"
     id="path56"
     inkscape:connector-curvature="0"
     style="clip-rule:evenodd;fill:#58595b;fill-rule:evenodd" /><path
     class="st9"
     d="m 56.121884,165.05353 c 7.5,-1.6 15.4,10.1 15.8,20.5 0.4,10.3 -9.3,19.1 -17.1,9.2 -7.7,-9.9 -6.3,-21.4 -4.6,-24.9 1.7,-3.5 5.9,-4.8 5.9,-4.8 z"
     id="path58"
     inkscape:connector-curvature="0"
     style="clip-rule:evenodd;fill:#dce2d0;fill-rule:evenodd" /><ellipse
     transform="rotate(-12.439315)"
     class="st8"
     cx="26.477747"
     cy="192.06079"
     rx="1.3999646"
     ry="2.1999445"
     id="ellipse60"
     style="clip-rule:evenodd;fill:#58595b;fill-rule:evenodd;stroke-width:0.99997473" /><path
     class="st8"
     d="m 53.821884,169.65353 c 0.1,1 0.6,1.7 1.2,1.6 0.6,-0.1 1,-0.9 1,-1.9 -0.1,-1 -0.6,-1.7 -1.2,-1.6 -0.6,0.1 -1.1,1 -1,1.9 z"
     id="path62"
     inkscape:connector-curvature="0"
     style="clip-rule:evenodd;fill:#58595b;fill-rule:evenodd" /><ellipse
     transform="rotate(-12.43372)"
     class="st10"
     cx="18.063402"
     cy="204.21112"
     rx="1.599925"
     ry="1.7999157"
     id="ellipse64"
     style="clip-rule:evenodd;fill:#9aa08d;fill-rule:evenodd;stroke-width:0.99995315" /><path
     class="st11"
     d="m 47.821884,179.45353 c 0,0 -16.2,-21.9 -17.6,-28.7 -1.3,-6.8 7.6,-11.7 13.2,2.6 5.6,14.3 8.4,22.6 8.4,22.6 0,0 -3.8,0.5 -4,3.5 z"
     id="path66"
     inkscape:connector-curvature="0"
     style="clip-rule:evenodd;fill:#929497;fill-rule:evenodd" /><path
     class="st12"
     d="m 30.721884,146.75353 c 1.9,-4 8.4,-4.6 12.7,6.6 5.6,14.3 8.4,22.6 8.4,22.6 0,0 -1.1,0.2 -2.1,0.8 -3.1,-10.1 -9.6,-29.1 -16.9,-30.2 -0.7,-0.1 -1.4,0 -2.1,0.2 z"
     id="path68"
     inkscape:connector-curvature="0"
     style="clip-rule:evenodd;fill:#a6a8ab;fill-rule:evenodd" /><path
     class="st1"
     d="m 189.32188,150.05353 c -3.1,0.8 -15.3,4 -19.7,5 l -2.8,-1.8 c 16.8,-2.9 32.3,-3.9 41.4,-20.9 5.9,-11 10.5,-20 18.7,-23.9 7.2,-3.4 15.6,-3.9 18,0.5 -32.7,-10.100001 -26.9,34.1 -55.6,41.1 z"
     id="path70"
     inkscape:connector-curvature="0"
     style="clip-rule:evenodd;fill:#c96c38;fill-rule:evenodd" /><path
     class="st8"
     d="m 55.821884,172.75353 c 0,0 5.3,2 6.4,8 1.2,6 -1.7,9.4 -3.7,10.9 -7,2.1 -18,-1.7 -18.2,-6.2 -0.4,-8.1 15.5,-12.7 15.5,-12.7 z"
     id="path72"
     inkscape:connector-curvature="0"
     style="clip-rule:evenodd;fill:#58595b;fill-rule:evenodd" /><path
     class="st13"
     d="m 55.821884,172.75353 c 0,0 3.5,1.3 5.4,5 -4.7,3.8 -11.1,6.9 -18.5,8.5 -0.7,0.1 -1.4,0.3 -2,0.4 -0.2,-0.4 -0.3,-0.8 -0.3,-1.3 -0.5,-8 15.4,-12.6 15.4,-12.6 z"
     id="path74"
     inkscape:connector-curvature="0"
     style="clip-rule:evenodd;fill:#6d6e70;fill-rule:evenodd" /><path
     class="st11"
     d="m 58.021884,188.15353 c 0,0 18.3,24.8 19.8,32.5 1.5,7.7 -8.6,13.2 -14.9,-3 -6.3,-16.2 -9.5,-25.5 -9.5,-25.5 0,0 3.6,-1.6 4.6,-4 z"
     id="path76"
     inkscape:connector-curvature="0"
     style="clip-rule:evenodd;fill:#929497;fill-rule:evenodd" /><path
     class="st1"
     d="m 173.12188,175.55353 c -2.9,-0.5 -36.9,-3.1 -49.6,8.7 -4.4,4.1 113.4,31 128.1,32.2 15.3,-1.4 32.3,-9.8 36.4,-12.3 -46.6,-12.7 -94.1,-24.8 -114.9,-28.6 z"
     id="path78"
     inkscape:connector-curvature="0"
     style="clip-rule:evenodd;fill:#c96c38;fill-rule:evenodd" /><path
     class="st2"
     d="m 125.32188,182.75353 c -0.7,0.5 -1,0.7 -1.8,1.5 -4.4,4 113.4,31 128.1,32.2 16.9,-1.4 31.2,-8.8 36.4,-12.3 -16.2,1.7 -26.6,5.7 -36.5,9.8 z"
     id="path80"
     inkscape:connector-curvature="0"
     style="clip-rule:evenodd;fill:#a15641;fill-rule:evenodd" /><path
     class="st12"
     d="m 73.321884,225.45353 c -5.2,1.1 -10.6,-11 -14.4,-21.7 0,0 0,-0.1 0,-0.1 0,-0.1 -0.1,-0.3 -0.1,-0.4 -0.8,-2.2 -1.5,-4.4 -2.1,-6.3 -0.1,-0.2 -0.1,-0.4 -0.2,-0.6 -0.5,-1.6 -1,-3 -1.3,-4.1 -0.1,-0.3 -0.2,-0.5 -0.3,-0.8 -0.7,0.4 -1.3,0.7 -1.3,0.7 0,0 0,0 0,0.1 0.1,0.2 0.2,0.6 0.4,1.2 0.3,1 0.9,2.6 1.7,4.7 0.4,1.2 1,2.6 1.5,4.2 0.1,0.2 0.1,0.4 0.2,0.6 v 0 c 1.5,3.9 3.3,8.9 5.6,14.7 6.1,15.5 15.6,11.1 15,3.9 -0.1,-0.6 -0.1,-0.9 -0.1,-0.9 0,0 -1.4,4.2 -4.6,4.8 z"
     id="path82"
     inkscape:connector-curvature="0"
     style="clip-rule:evenodd;fill:#a6a8ab;fill-rule:evenodd" /><path
     class="st2"
     d="m 139.52188,140.55353 c 15.4,-1.6 30.2,4.9 39.5,11.9 0.4,0.6 -4.2,2.6 -9,3.7 -5.3,1.1 -12,2.3 -13,2.5 0,-10.6 -10.2,-17.3 -17.5,-18.1 z"
     id="path84"
     inkscape:connector-curvature="0"
     style="clip-rule:evenodd;fill:#a15641;fill-rule:evenodd" /><path
     class="st5"
     d="m 139.52188,140.55353 c 3.3,-0.3 6.5,-0.3 9.7,0 1.1,0.7 2.1,1.5 2.9,2.2 2.3,1.9 8.5,10.7 8.8,15.1 -2,0.4 -3.5,0.6 -3.9,0.7 0,-10.5 -10.2,-17.2 -17.5,-18 z"
     id="path86"
     inkscape:connector-curvature="0"
     style="clip-rule:evenodd;fill:#fdcf9d;fill-rule:evenodd" /><path
     class="st1"
     d="m 216.92188,144.05353 c 2,-0.4 4.4,-0.8 6.9,-1 8.3,-1 17.6,0.1 21.5,1.5 0,0 12.8,4 20,7.2 1.2,0.5 1.9,1.1 2.3,1.6 -2.3,0.6 -3.1,0.8 -4.9,1.1 -1.8,0.3 -15.3,1 -21.8,-1.2 -5.9,-2.1 -17.6,-6.7 -24,-9.2 z"
     id="path88"
     inkscape:connector-curvature="0"
     style="clip-rule:evenodd;fill:#c96c38;fill-rule:evenodd" /><path
     class="st14"
     d="m 152.72188,158.25353 c 0.2,-1.9 0.6,-3.9 -1.3,-6.7 -1.9,-2.8 -7.9,-2.3 -10,-2.8 -5.4,0.1 -6.7,-0.4 -7.7,0.2 -1.2,0.7 -2.6,2.4 -3.9,4.6 2,4.1 0.8,7.7 -0.1,9.6 1.2,-0.1 2.5,-0.2 3.9,-0.5 4.6,-1.2 11.8,-2.8 19.1,-4.4 z"
     id="path90"
     inkscape:connector-curvature="0"
     style="clip-rule:evenodd;fill:#5a666e;fill-rule:evenodd" /><path
     class="st15"
     d="m 144.62188,160.05353 0.7,-0.2 c 0.4,-1.4 0.8,-2.4 1,-3.8 z"
     id="path92"
     inkscape:connector-curvature="0"
     style="clip-rule:evenodd;fill:#43525a;fill-rule:evenodd" /><path
     class="st16"
     d="m 110.12188,145.15353 c 0,0 16.3,7.4 18.1,15 1.3,-8.9 -13.9,-17 -18.1,-15 z"
     id="path94"
     inkscape:connector-curvature="0"
     style="clip-rule:evenodd;fill:#f2f2f2;fill-rule:evenodd" /><rect
     x="194.36111"
     y="202.31004"
     transform="rotate(-26.552239)"
     class="st15"
     width="3.2998998"
     height="62.998085"
     id="rect96"
     style="clip-rule:evenodd;fill:#43525a;fill-rule:evenodd;stroke-width:0.9999696" /><g
     id="g120"
     transform="translate(-5.8781164,-186.84647)"><path
       class="st17"
       d="m 141.2,319.5 c 0,0 -3.5,-0.1 -6.1,3.5 -2.4,3.4 -2.7,10.2 -1.9,11.2 0.7,1 3.7,1.3 4.5,1.2 0.8,0 3.9,-11.4 3.5,-15.9 z"
       id="path98"
       inkscape:connector-curvature="0"
       style="fill:#e3302a" /><path
       class="st17"
       d="m 144.6,318.9 c -2.9,0 -6,0.4 -6.9,3 -0.9,2.6 -2.4,8.7 -1.3,10.4 1.1,1.7 1.7,10.4 1.6,13.2 -0.2,2.7 1.5,3.9 -1.3,4.3 -24.1,3.9 0,0 0,0 0,0 2.6,-1.4 10.2,-0.9 10.4,0.6 12.5,-4.2 10.4,-3.5 -8.2,2.8 -1.4,2.1 -2.5,-2.3 -1.1,-4.4 0.8,-4.4 0.6,-8 -0.2,-3.7 1.5,-10.1 -1.8,-13 -4.1,-3.6 -6.1,-3.2 -9,-3.2 z"
       id="path100"
       inkscape:connector-curvature="0"
       style="fill:#e3302a" /><g
       id="g112"><path
         class="st18"
         d="m 136.7,302.3 c 0,0 0.1,3.9 -0.1,9 -0.1,4.7 -0.9,6.9 0.7,6.9 1.6,0.1 5.1,0.9 5.9,-3 1.5,-7.2 -2.2,-16.8 -1.5,-13.8 z"
         id="path102"
         inkscape:connector-curvature="0"
         style="fill:#393e4b" /><path
         class="st19"
         d="m 142.1,312.9 c 0,0 0.6,7.6 1.4,8.2 0.8,0.6 4.9,-0.2 4.9,-2.8 0,-2.6 -0.3,-6 -0.3,-6 z"
         id="path104"
         inkscape:connector-curvature="0"
         style="fill:#d8a78e" /><path
         class="st20"
         d="m 137.3,301.9 c 0,0 -0.7,15.2 4.2,16 3.7,0.5 8.5,-2.5 8.7,-7.5 0.2,-5 2,-11.1 -1.5,-11.1 -3.5,-0.1 -11.8,-0.8 -11.4,2.6 z"
         id="path106"
         inkscape:connector-curvature="0"
         style="fill:#f6bda2" /><path
         class="st18"
         d="m 152.9,301 c 2.2,3.7 1.3,11.5 1.2,13.8 -0.1,2.3 -4.8,5 -5.6,4.1 -0.9,-0.9 0.6,-16 0.6,-16 0,0 1.6,-5.6 3.8,-1.9 z"
         id="path108"
         inkscape:connector-curvature="0"
         style="fill:#393e4b" /><path
         class="st18"
         d="m 143.8,296.3 c 0,0 -5.2,0 -7,3.2 -1.7,2.9 -0.9,5.9 0.4,6 1.4,0.2 9.9,2.1 11.8,0.2 2,-1.8 5.3,-2.2 3.2,-6.8 -2.1,-4.6 -8.4,-2.6 -8.4,-2.6 z"
         id="path110"
         inkscape:connector-curvature="0"
         style="fill:#393e4b" /></g><g
       id="g118"><path
         class="st21"
         d="m 159.7,336.4 c 0,0 1.4,8 0.8,9.1 -0.6,1.1 -4.4,3.7 -7.4,4.8 -3,1.1 -5.4,1.3 -6.6,1.8 -1.2,0.5 -2.8,1.2 -4.4,0.1 -1.6,-1.1 -3.2,-4.1 -1.4,-5.2 1.8,-1.1 3.6,-0.6 4.8,0.1 1.2,0.7 1.9,0.4 2.9,0.1 0.9,-0.2 3.5,-2.8 6.5,-4.2 l -1.5,-5.3 z"
         id="path114"
         inkscape:connector-curvature="0"
         style="fill:#f5bca1" /><path
         class="st17"
         d="m 156.2,323 c -1.5,-1.6 -4.8,-1.9 -5.9,1.5 -1.1,3.4 1.5,13.8 3,14.3 0.9,0.3 2.2,0.3 3.8,-0.1 2,-0.4 2.6,-2.1 3,-2.9 0.6,-1.1 -1.4,-10 -3.9,-12.8 z"
         id="path116"
         inkscape:connector-curvature="0"
         style="fill:#e3302a" /></g></g><polygon
     class="st21"
     points="137.7,335.5 134.2,334.9 138.3,349 "
     id="polygon122"
     style="fill:#f5bca1"
     transform="translate(-5.8781164,-186.84647)" /><path
     class="st21"
     d="M 171.52188,128.85353"
     id="path124"
     inkscape:connector-curvature="0"
     style="fill:#f5bca1" /><path
     class="st22"
     d="m 270.02188,99.353529 c 0,0 152.9,-20.2 208.2,-66.1 0,0 21.4,-34.8000004 50.6,-33.20000041 l -16.6,23.40000041 h 41.1 l -30,26.2 c 0,0 -146,102.000001 -231,93.100001 z"
     id="path126"
     inkscape:connector-curvature="0"
     style="fill:#b5bcad" /></svg>