<?xml version="1.0" encoding="utf-8"?>
<!-- Generator: Adobe Illustrator 21.1.0, SVG Export Plug-In . SVG Version: 6.00 Build 0)  -->
<svg version="1.1" id="Layer_1" xmlns="http://www.w3.org/2000/svg" xmlns:xlink="http://www.w3.org/1999/xlink" x="0px" y="0px"
	 viewBox="0 0 576 576" style="enable-background:new 0 0 576 576;" xml:space="preserve">
<style type="text/css">
	.st0{fill-rule:evenodd;clip-rule:evenodd;fill:#404041;}
	.st1{fill-rule:evenodd;clip-rule:evenodd;fill:#C96C38;}
	.st2{fill-rule:evenodd;clip-rule:evenodd;fill:#A15641;}
	.st3{fill-rule:evenodd;clip-rule:evenodd;fill:#DCEFE2;}
	.st4{fill-rule:evenodd;clip-rule:evenodd;fill:#E6E7E8;}
	.st5{fill-rule:evenodd;clip-rule:evenodd;fill:#FDCF9D;}
	.st6{fill-rule:evenodd;clip-rule:evenodd;fill:#C16F4A;}
	.st7{fill-rule:evenodd;clip-rule:evenodd;fill:#B46538;}
	.st8{fill-rule:evenodd;clip-rule:evenodd;fill:#58595B;}
	.st9{fill-rule:evenodd;clip-rule:evenodd;fill:#DCE2D0;}
	.st10{fill-rule:evenodd;clip-rule:evenodd;fill:#9AA08D;}
	.st11{fill-rule:evenodd;clip-rule:evenodd;fill:#929497;}
	.st12{fill-rule:evenodd;clip-rule:evenodd;fill:#A6A8AB;}
	.st13{fill-rule:evenodd;clip-rule:evenodd;fill:#6D6E70;}
	.st14{fill-rule:evenodd;clip-rule:evenodd;fill:#5A666E;}
	.st15{fill-rule:evenodd;clip-rule:evenodd;fill:#43525A;}
	.st16{fill-rule:evenodd;clip-rule:evenodd;fill:#F2F2F2;}
	.st17{fill:#E3302A;}
	.st18{fill:#393E4B;}
	.st19{fill:#D8A78E;}
	.st20{fill:#F6BDA2;}
	.st21{fill:#F5BCA1;}
	.st22{fill:#B5BCAD;}
</style>
<path class="st0" d="M160.9,330.4c-1.9-1.1-15.5-3.1-15.5-3.1c-8.7,1.9-11.9,10.4-10.9,17.7c-12.8,0.8-20,3.4-29-7.9
	c0,0-2.6,5.8,1.7,12.7c4.4,6.9,12.5,14.7,30.4,11c17.9-3.8,32.7-5.5,33.2-13.9C171.3,338.6,160.9,330.4,160.9,330.4z"/>
<g>
	<ellipse transform="matrix(0.9264 -0.3764 0.3764 0.9264 -144.2447 81.7644)" class="st0" cx="137.1" cy="410" rx="9.8" ry="8.6"/>
	<path class="st1" d="M151.3,404.6c1.1,2.4-3.9,6.1-9.7,10.2c-5.8,4.2-17,3.6-18-3.9c-1-7.5,3.8-12.7,10.8-14.1
		C144.4,394.9,151.3,404.6,151.3,404.6z"/>
	<path class="st2" d="M123.6,410.9c-1-7.5,3.8-12.7,10.8-14.1c5.1-1,9.4,1,12.4,3.3c-13.8-5.6-19.3,11.7-17.1,16.9
		C126.5,416.3,124,414.3,123.6,410.9z"/>
	<path class="st1" d="M133.9,373.1c-0.3,4.5,0,12.7,3.1,25.5c-3.5,3.5-6.8,0.9-6.8,0.9l-9.2-23.2L133.9,373.1z"/>
	<path class="st2" d="M128.4,374.5c0.6,6.2,1.9,17,5.3,25.9c-2,0.3-3.5-0.9-3.5-0.9c-4.6-9.4-7.2-16.4-9.4-23.2L128.4,374.5z"/>
</g>
<path class="st3" d="M110.4,341.9c-4-2.6-6-3.7-6-3.7s8.5-9.4,15.3-8.4c3.5,0.4,7.3,1.7,10.8,4.4c11.2,8.7,4.2,17.1,4.2,17.1l-2.2,0
	C122.7,351.1,114.2,344.3,110.4,341.9z"/>
<path class="st2" d="M217.5,317.6c-5.3-1.8-12.1-4.5-18.6-4.9c-6.5-0.5-13.1-0.2-7.7,6.2c5.4,6.5,13.4,11.3,18.5,12.3
	C214.8,332.1,217.5,317.6,217.5,317.6z"/>
<path class="st1" d="M214.3,327.5c-6.8-2.8-7.8-2.7-15.9-7.5c-8.1-4.8-8.3-6.6-5.9-7.3c1.8-0.2,4-0.2,6.3,0
	c6.5,0.5,13.4,3.1,18.6,4.9C217.5,317.6,216.4,323.5,214.3,327.5z"/>
<path class="st1" d="M48.4,331.9c-2.9-0.5-22-2.3-42.3,7.2c-5.4,2.5,111.6,31.8,126.3,33c15.3-1.4,32.3-9.8,36.4-12.3
	C122.1,347.2,69.2,335.8,48.4,331.9z"/>
<path class="st2" d="M9.7,337.6c-0.9,0.3-2.9,0.9-3.7,1.6c-4.4,4,111.7,31.7,126.4,32.9c16.9-1.4,31.2-8.8,36.4-12.3
	c-16.2,1.7-26.6,5.7-36.5,9.8L9.7,337.6z"/>
<g>
	
		<ellipse transform="matrix(0.1616 -0.9869 0.9869 0.1616 -308.9244 423.441)" class="st0" cx="94.7" cy="393.5" rx="7.6" ry="8.7"/>
	<path class="st1" d="M107.9,396c-0.3,2.3-5.7,2.8-12,3.3c-6.3,0.5-14.5-5.1-11.8-11.2c2.7-6.1,8.7-7.8,14.6-5.7
		C107.2,385.5,107.9,396,107.9,396z"/>
	<path class="st2" d="M84.1,388c2.7-6.1,8.7-7.8,14.6-5.7c4.3,1.6,6.6,5.1,7.8,8.2c-7.8-10.6-19.9-0.1-20.7,4.9
		C83.9,393.4,82.9,390.8,84.1,388z"/>
	<path class="st1" d="M109.3,364.2c-2.3,3.3-5.9,9.6-9.4,20.7c-4.2,1-5.5-2.5-5.5-2.5l3.8-21.8L109.3,364.2z"/>
	<path class="st2" d="M104.5,362.7c-2.4,4.9-6.4,13.7-7.9,22c-1.7-0.7-2.3-2.3-2.3-2.3c0.9-9.2,2.1-15.7,3.5-21.8L104.5,362.7z"/>
</g>
<rect x="247.4" y="332.9" transform="matrix(0.9917 -0.1287 0.1287 0.9917 -40.7031 37.8994)" class="st4" width="51.2" height="2.2"/>
<polygon class="st4" points="275.9,284.9 246.5,325.7 244.7,324.4 274.1,283.7 "/>
<path class="st2" d="M184.9,339.2c13.8-3.4,23.4-9,29.3-20c5.9-11,10.5-20,18.7-23.9c8.2-3.9,17.9-3.9,18.6,2.5
	c0.7,6.4,6,36.6-8.5,45c-41.9,17-53.8,33.1-101.8,39.5c-24,3.2-42.8,7.8-47.4,6.4c4.4-4.9,7.1-15.8,4.1-27.4
	c-2.9-11.6-15.2-18.9-17.5-19.5c6.3-1.2,23.2-4.6,25.1-4.5c15.8,2.1,18.2,15.7,34,12.2C152.2,346.6,184.9,339.2,184.9,339.2z"/>
<path class="st2" d="M100.9,337.8c2.4-0.4,4.1-0.7,4.6-0.6c15.8,2.1,18.2,15.7,34,12.2c6.3-1.4,17.4-3.9,27-6c0.5,2,0.3,3.5-1.3,3.8
	c-1.9,0.4-19.6,5-25.2,6c-5.6,1-10.5,1.2-14.3-1.7C114.7,342.8,111.7,341.4,100.9,337.8z"/>
<path class="st5" d="M100.9,337.8c2.4-0.4,4.6-1.1,5.1-1c15.8,2.1,17.7,16.1,33.5,12.6c6.3-1.4,17.4-3.9,27-6c0.5,2,0.3,3.5-1.3,3.8
	c-1.9,0.4-19.6,5-25.2,6c-5.6,1-10.5,1.2-14.3-1.7C114.7,342.8,111.7,341.4,100.9,337.8z"/>
<path class="st2" d="M251.3,331.4c-4-1.4-13.2-2.5-21.5-1.5c-8.3,1-13.2,1.4-12.5,3.6c0.6,2.1,26.5,11.1,38.7,12.4
	c12.3,1.3,22.9-3.8,15.3-7.2C264.1,335.4,251.3,331.4,251.3,331.4z"/>
<path class="st6" d="M87.7,340c0,0,13.5,3.1,18.6,21.4c5.1,18.3-4.6,25.7-6.8,27.6c0,0-16.6,3.5-24.4,3.8
	c-7.7,0.3-19.8-5.2-23.3-19.4c-3.5-14.2,2-25.1,13.1-28.4C76.1,341.7,87.7,340,87.7,340z"/>
<path class="st7" d="M59.7,387.2c5.5-7.1,15.1-18,22.5-18.7c8.8-0.8,20.3-4.5,24.5-5.9c4.4,17.5-4.9,24.6-7.1,26.4
	c0,0-16.6,3.5-24.4,3.8C70.8,393,64.8,391.2,59.7,387.2z"/>
<path class="st8" d="M51.9,373.4c-3.3-13.6,1.2-25.2,11.8-27.9c7-1.8,17,1.9,21.8,17.4c4.2,13.7,2.1,27.5-9.1,29.8
	C70.9,393.9,56.2,390.9,51.9,373.4z"/>
<path class="st9" d="M62,351.9c7.5-1.6,15.4,10.1,15.8,20.5c0.4,10.3-9.3,19.1-17.1,9.2c-7.7-9.9-6.3-21.4-4.6-24.9
	C57.8,353.2,62,351.9,62,351.9z"/>
<ellipse transform="matrix(0.9765 -0.2154 0.2154 0.9765 -77.6949 24.4053)" class="st8" cx="73.1" cy="368.7" rx="1.4" ry="2.2"/>
<path class="st8" d="M59.7,356.5c0.1,1,0.6,1.7,1.2,1.6c0.6-0.1,1-0.9,1-1.9c-0.1-1-0.6-1.7-1.2-1.6
	C60.1,354.7,59.6,355.6,59.7,356.5z"/>
<ellipse transform="matrix(0.9765 -0.2153 0.2153 0.9765 -80.7579 23.4979)" class="st10" cx="67.5" cy="382.4" rx="1.6" ry="1.8"/>
<path class="st11" d="M53.7,366.3c0,0-16.2-21.9-17.6-28.7c-1.3-6.8,7.6-11.7,13.2,2.6c5.6,14.3,8.4,22.6,8.4,22.6
	S53.9,363.3,53.7,366.3z"/>
<path class="st12" d="M36.6,333.6c1.9-4,8.4-4.6,12.7,6.6c5.6,14.3,8.4,22.6,8.4,22.6s-1.1,0.2-2.1,0.8
	c-3.1-10.1-9.6-29.1-16.9-30.2C38,333.3,37.3,333.4,36.6,333.6z"/>
<path class="st1" d="M195.2,336.9c-3.1,0.8-15.3,4-19.7,5l-2.8-1.8c16.8-2.9,32.3-3.9,41.4-20.9c5.9-11,10.5-20,18.7-23.9
	c7.2-3.4,15.6-3.9,18,0.5C218.1,285.7,223.9,329.9,195.2,336.9z"/>
<path class="st8" d="M61.7,359.6c0,0,5.3,2,6.4,8c1.2,6-1.7,9.4-3.7,10.9c-7,2.1-18-1.7-18.2-6.2C45.8,364.2,61.7,359.6,61.7,359.6z
	"/>
<path class="st13" d="M61.7,359.6c0,0,3.5,1.3,5.4,5c-4.7,3.8-11.1,6.9-18.5,8.5c-0.7,0.1-1.4,0.3-2,0.4c-0.2-0.4-0.3-0.8-0.3-1.3
	C45.8,364.2,61.7,359.6,61.7,359.6z"/>
<path class="st11" d="M63.9,375c0,0,18.3,24.8,19.8,32.5c1.5,7.7-8.6,13.2-14.9-3c-6.3-16.2-9.5-25.5-9.5-25.5S62.9,377.4,63.9,375z
	"/>
<path class="st1" d="M179,362.4c-2.9-0.5-36.9-3.1-49.6,8.7c-4.4,4.1,113.4,31,128.1,32.2c15.3-1.4,32.3-9.8,36.4-12.3
	C247.3,378.3,199.8,366.2,179,362.4z"/>
<path class="st2" d="M131.2,369.6c-0.7,0.5-1,0.7-1.8,1.5c-4.4,4,113.4,31,128.1,32.2c16.9-1.4,31.2-8.8,36.4-12.3
	c-16.2,1.7-26.6,5.7-36.5,9.8L131.2,369.6z"/>
<path class="st12" d="M79.2,412.3c-5.2,1.1-10.6-11-14.4-21.7c0,0,0-0.1,0-0.1c0-0.1-0.1-0.3-0.1-0.4c-0.8-2.2-1.5-4.4-2.1-6.3
	c-0.1-0.2-0.1-0.4-0.2-0.6c-0.5-1.6-1-3-1.3-4.1c-0.1-0.3-0.2-0.5-0.3-0.8c-0.7,0.4-1.3,0.7-1.3,0.7s0,0,0,0.1
	c0.1,0.2,0.2,0.6,0.4,1.2c0.3,1,0.9,2.6,1.7,4.7c0.4,1.2,1,2.6,1.5,4.2c0.1,0.2,0.1,0.4,0.2,0.6l0,0c1.5,3.9,3.3,8.9,5.6,14.7
	c6.1,15.5,15.6,11.1,15,3.9c-0.1-0.6-0.1-0.9-0.1-0.9S82.4,411.7,79.2,412.3z"/>
<path class="st2" d="M145.4,327.4c15.4-1.6,30.2,4.9,39.5,11.9c0.4,0.6-4.2,2.6-9,3.7c-5.3,1.1-12,2.3-13,2.5
	C162.9,334.9,152.7,328.2,145.4,327.4z"/>
<path class="st5" d="M145.4,327.4c3.3-0.3,6.5-0.3,9.7,0c1.1,0.7,2.1,1.5,2.9,2.2c2.3,1.9,8.5,10.7,8.8,15.1c-2,0.4-3.5,0.6-3.9,0.7
	C162.9,334.9,152.7,328.2,145.4,327.4z"/>
<path class="st1" d="M222.8,330.9c2-0.4,4.4-0.8,6.9-1c8.3-1,17.6,0.1,21.5,1.5c0,0,12.8,4,20,7.2c1.2,0.5,1.9,1.1,2.3,1.6
	c-2.3,0.6-3.1,0.8-4.9,1.1c-1.8,0.3-15.3,1-21.8-1.2C240.9,338,229.2,333.4,222.8,330.9z"/>
<path class="st14" d="M158.6,345.1c0.2-1.9,0.6-3.9-1.3-6.7c-1.9-2.8-7.9-2.3-10-2.8c-5.4,0.1-6.7-0.4-7.7,0.2
	c-1.2,0.7-2.6,2.4-3.9,4.6c2,4.1,0.8,7.7-0.1,9.6c1.2-0.1,2.5-0.2,3.9-0.5C144.1,348.3,151.3,346.7,158.6,345.1z"/>
<path class="st15" d="M150.5,346.9l0.7-0.2c0.4-1.4,0.8-2.4,1-3.8L150.5,346.9z"/>
<path class="st16" d="M116,332c0,0,16.3,7.4,18.1,15C135.4,338.1,120.2,330,116,332z"/>
<rect x="284.1" y="276.9" transform="matrix(0.8945 -0.447 0.447 0.8945 -107.727 160.2419)" class="st15" width="3.3" height="63"/>
<g>
	<path class="st17" d="M141.2,319.5c0,0-3.5-0.1-6.1,3.5c-2.4,3.4-2.7,10.2-1.9,11.2c0.7,1,3.7,1.3,4.5,1.2
		C138.5,335.4,141.6,324,141.2,319.5z"/>
	<path class="st17" d="M144.6,318.9c-2.9,0-6,0.4-6.9,3c-0.9,2.6-2.4,8.7-1.3,10.4c1.1,1.7,1.7,10.4,1.6,13.2
		c-0.2,2.7,1.5,3.9-1.3,4.3c-24.1,3.9,0,0,0,0s2.6-1.4,10.2-0.9c10.4,0.6,12.5-4.2,10.4-3.5c-8.2,2.8-1.4,2.1-2.5-2.3
		c-1.1-4.4,0.8-4.4,0.6-8c-0.2-3.7,1.5-10.1-1.8-13C149.5,318.5,147.5,318.9,144.6,318.9z"/>
	<g>
		<path class="st18" d="M136.7,302.3c0,0,0.1,3.9-0.1,9c-0.1,4.7-0.9,6.9,0.7,6.9c1.6,0.1,5.1,0.9,5.9-3c1.5-7.2-2.2-16.8-1.5-13.8
			L136.7,302.3z"/>
		<path class="st19" d="M142.1,312.9c0,0,0.6,7.6,1.4,8.2c0.8,0.6,4.9-0.2,4.9-2.8c0-2.6-0.3-6-0.3-6L142.1,312.9z"/>
		<path class="st20" d="M137.3,301.9c0,0-0.7,15.2,4.2,16c3.7,0.5,8.5-2.5,8.7-7.5c0.2-5,2-11.1-1.5-11.1
			C145.2,299.2,136.9,298.5,137.3,301.9z"/>
		<path class="st18" d="M152.9,301c2.2,3.7,1.3,11.5,1.2,13.8c-0.1,2.3-4.8,5-5.6,4.1c-0.9-0.9,0.6-16,0.6-16S150.7,297.3,152.9,301
			z"/>
		<path class="st18" d="M143.8,296.3c0,0-5.2,0-7,3.2c-1.7,2.9-0.9,5.9,0.4,6c1.4,0.2,9.9,2.1,11.8,0.2c2-1.8,5.3-2.2,3.2-6.8
			C150.1,294.3,143.8,296.3,143.8,296.3z"/>
	</g>
	<g>
		<path class="st21" d="M159.7,336.4c0,0,1.4,8,0.8,9.1c-0.6,1.1-4.4,3.7-7.4,4.8c-3,1.1-5.4,1.3-6.6,1.8c-1.2,0.5-2.8,1.2-4.4,0.1
			c-1.6-1.1-3.2-4.1-1.4-5.2c1.8-1.1,3.6-0.6,4.8,0.1c1.2,0.7,1.9,0.4,2.9,0.1c0.9-0.2,3.5-2.8,6.5-4.2l-1.5-5.3L159.7,336.4z"/>
		<path class="st17" d="M156.2,323c-1.5-1.6-4.8-1.9-5.9,1.5c-1.1,3.4,1.5,13.8,3,14.3c0.9,0.3,2.2,0.3,3.8-0.1c2-0.4,2.6-2.1,3-2.9
			C160.7,334.7,158.7,325.8,156.2,323z"/>
	</g>
</g>
<polygon class="st21" points="134.2,334.9 138.3,349 137.7,335.5 "/>
<path class="st21" d="M177.4,315.7"/>
<path class="st22" d="M275.9,286.2c0,0,152.9-20.2,208.2-66.1c0,0,21.4-34.8,50.6-33.2l-16.6,23.4h41.1l-30,26.2
	c0,0-146,102-231,93.1L275.9,286.2z"/>
</svg>
