<svg id="Layer_1" data-name="Layer 1" xmlns="http://www.w3.org/2000/svg" xmlns:xlink="http://www.w3.org/1999/xlink" viewBox="0 0 52.62 43.05"><defs><style>.cls-1,.cls-8{fill:none;}.cls-2{fill:#3e5161;}.cls-3{clip-path:url(#clip-path);}.cls-4{fill:#43455b;}.cls-5{fill:#f3cf00;}.cls-6{clip-path:url(#clip-path-2);}.cls-7{fill:#edb212;}.cls-8{stroke:#43455b;stroke-miterlimit:10;stroke-width:3px;}.cls-9{fill:#a1a1a1;}.cls-10{fill:#494848;}.cls-11{fill:#d66d11;}.cls-12{fill:#f98846;}</style><clipPath id="clip-path"><rect class="cls-1" x="28.93" y="4.33" width="2.09" height="36.76" transform="translate(1.2 46.93) rotate(-77.23)"/></clipPath><clipPath id="clip-path-2"><rect class="cls-1" x="5.13" y="10.45" width="16.98" height="16.98" rx="1.46" ry="1.46" transform="translate(-8 10.18) rotate(-32.23)"/></clipPath></defs><title>Artboard 1</title><rect class="cls-2" x="28.93" y="4.33" width="2.09" height="36.76" transform="translate(1.2 46.93) rotate(-77.23)"/><g class="cls-3"><rect class="cls-4" x="20.28" y="-10.04" width="14.26" height="49.71" transform="translate(6.9 38.27) rotate(-77.23)"/></g><rect class="cls-5" x="5.13" y="10.45" width="16.98" height="16.98" rx="1.46" ry="1.46" transform="translate(-8 10.18) rotate(-32.23)"/><g class="cls-6"><rect class="cls-7" x="22.57" y="-13.7" width="14.26" height="58.09" transform="translate(8.18 40.92) rotate(-77.23)"/></g><rect class="cls-8" x="6.28" y="11.6" width="14.67" height="14.67" rx="1.26" ry="1.26" transform="translate(-8 10.18) rotate(-32.23)"/><circle class="cls-9" cx="5.69" cy="17.17" r="0.48" transform="translate(-12.32 18.92) rotate(-77.23)"/><circle class="cls-9" cx="21.92" cy="20.85" r="0.48" transform="translate(-3.26 37.61) rotate(-77.23)"/><path class="cls-10" d="M9.46,20.26l-.14.62L8.75,21l.66-3,.42-.06,1.48,2.7-.58.09-.3-.55Zm.25-1.52h0l-.15,1.06.66-.1Z"/><path class="cls-10" d="M12,20.47l-.54.08-.42-2.78.74-.11c.58-.09,1,.09,1.09.72a.8.8,0,0,1-.76,1l-.27,0ZM11.79,19l.11,0c.32,0,.48-.14.43-.51s-.27-.38-.57-.33h-.1Z"/><path class="cls-10" d="M14,20.18l-.54.08L13,17.48l.74-.11c.58-.09,1,.09,1.09.72a.8.8,0,0,1-.76,1l-.27,0Zm-.22-1.49.11,0c.32,0,.48-.14.43-.51s-.27-.38-.57-.33h-.1Z"/><path class="cls-10" d="M15.84,19.42l.77-.12.07.47-1.31.2L15,17.19l.54-.08Z"/><path class="cls-10" d="M16.17,17l.63-.09.63.89.39-1,.63-.1-.65,1.64L18,19.58l-.54.08-.19-1.28Z"/><path class="cls-11" d="M34,19.93a.34.34,0,0,0-.4-.25A1.76,1.76,0,0,0,33,20l-.23.2-.12.1-.06,0-.05,0-.1.06-.07,0,0,0-.14,0h-.11l-.08,0,0,0,0,0-.1-.11a4.19,4.19,0,0,0-.39-.47,1.38,1.38,0,0,0-.73-.33,1.13,1.13,0,0,0-.72.11,3.38,3.38,0,0,0-.52.45l-.12.1-.07.05,0,0-.28.16,0,0h0l-.15,0h-.26l-.08,0-.08,0h0l-.17-.1,0,0,0,0L28,20.22h0l0,0-.05-.1,0-.05h0a2.31,2.31,0,0,1-.11-.48v0h0s0-.09,0-.14,0-.18,0-.28,0-.47,0-.7a1.16,1.16,0,0,0-.06-.27c0-.06-.1-.14-.17-.12a.34.34,0,0,0-.16.16,1,1,0,0,0-.14.39c0,.18,0,.36-.06.55a3,3,0,0,0,.18,1.2,1.38,1.38,0,0,0,1,.84,1.71,1.71,0,0,0,1.45-.44c.18-.14.33-.31.51-.45h0l.06,0h0l.07,0h.24l.15,0,0,0,0,0,.1.07,0,0,.07.08,0,.05,0,0,.12.16a2.18,2.18,0,0,0,.18.23,1,1,0,0,0,.62.31,1.21,1.21,0,0,0,.72-.18,3.6,3.6,0,0,0,.54-.42l.12-.1.06,0h0l.13-.08.07,0h.08A.34.34,0,0,0,34,19.93Z"/><path class="cls-12" d="M27.59,19.07h.15c0-.23,0-.47,0-.7a1.16,1.16,0,0,0-.06-.27c0-.06-.1-.14-.17-.12a.34.34,0,0,0-.16.16,1,1,0,0,0-.14.39c0,.16,0,.32-.05.48A1.46,1.46,0,0,0,27.59,19.07Z"/><path class="cls-12" d="M28.63,21.14a1.84,1.84,0,0,0,.08-.36,2.33,2.33,0,0,0,0-.26h-.25l-.08,0-.08,0h0l-.17-.1,0,0,0,0L28,20.22h0v0a1.6,1.6,0,0,1-.57.22,1.39,1.39,0,0,0,.9.68A1.27,1.27,0,0,0,28.63,21.14Z"/><path class="cls-12" d="M29.87,19.75c-.14.11-.26.24-.39.36l-.12.1-.07.05,0,0-.28.16,0,0h0a2.48,2.48,0,0,1,0,.33,2.25,2.25,0,0,1-.06.32,2.12,2.12,0,0,0,.93-.45c.11-.09.22-.19.32-.29A1.69,1.69,0,0,0,29.87,19.75Z"/><path class="cls-12" d="M30.84,20.23l0,0,.1.07,0,0,.07.08a1.51,1.51,0,0,0,.3-.6,1.39,1.39,0,0,0-.67-.28,1.14,1.14,0,0,0-.71.11,1.84,1.84,0,0,1,.23.59l0,0h0l.06,0h0l.07,0h.24l.15,0Z"/><path class="cls-12" d="M32.21,21.22a1.47,1.47,0,0,0,.08-.62v-.06l-.1,0h-.11l-.08,0,0,0,0,0-.1-.11c-.11-.13-.19-.27-.31-.39a1.7,1.7,0,0,1-.34.61l.07.1a2.18,2.18,0,0,0,.18.23,1,1,0,0,0,.62.31Z"/><path class="cls-12" d="M33.48,20.48a1.89,1.89,0,0,0-.17-.67A2.26,2.26,0,0,0,33,20l-.23.2-.12.1-.06,0-.05,0-.07,0c0,.06,0,.12,0,.18a1.7,1.7,0,0,1-.06.55,1.57,1.57,0,0,0,.37-.16,3.6,3.6,0,0,0,.54-.42l.12-.1Z"/><path class="cls-12" d="M34,19.93a.34.34,0,0,0-.4-.25l-.16.05a2.1,2.1,0,0,1,.18.64l0,0h.08A.34.34,0,0,0,34,19.93Z"/><path class="cls-12" d="M27.9,20.05v0h0a2.31,2.31,0,0,1-.11-.48v0h0s0-.09,0-.14v-.1h-.16a1.74,1.74,0,0,1-.44-.06,2.93,2.93,0,0,0,.18,1.07A1.36,1.36,0,0,0,27.9,20.05Z"/></svg>