<svg id="Layer_1" data-name="Layer 1" xmlns="http://www.w3.org/2000/svg" xmlns:xlink="http://www.w3.org/1999/xlink" viewBox="0 0 52.62 43.05"><defs><style>.cls-1{fill:none;}.cls-2{clip-path:url(#clip-path);}.cls-3{fill:#3e5161;}.cls-4{fill:#43455b;}.cls-5{fill:#f3cf00;}.cls-6{fill:#edb212;}.cls-7{fill:#333;}.cls-8{fill:#3a3a3a;}.cls-9{fill:#f9f9f9;}</style><clipPath id="clip-path"><rect class="cls-1" x="-0.12" y="-11.34" width="81.19" height="66.07"/></clipPath></defs><title>Artboard 1</title><g class="cls-2"><path class="cls-3" d="M45.81,6.32s0,.06,0,.07h0l-44.68,30L2.28,38.1,48.89,6.84A2.3,2.3,0,0,0,45.81,6.32Z"/><path class="cls-4" d="M48.37,10.13A2.31,2.31,0,0,0,49,6.94l-.07-.1L2.28,38.1l1.36,2,44.68-30h0Z"/><polygon class="cls-5" points="37.85 4.47 30.25 1.74 29.88 9.81 34.41 16.56 42.37 11.22 37.85 4.47"/><polygon class="cls-6" points="43.1 20.91 50.7 23.64 42.37 11.22 34.41 16.56 42.74 28.98 43.1 20.91"/><polygon class="cls-6" points="26.29 32.17 33.9 34.9 34.26 26.83 29.55 19.82 21.59 25.16 26.29 32.17"/><polygon class="cls-5" points="21.04 15.74 13.44 13.01 21.59 25.16 29.55 19.82 21.4 7.67 21.04 15.74"/><path class="cls-7" d="M35,9.19l-.66.11-.31-.52,3.2-.58.23.38-2,2.53-.32-.53.42-.52Zm1.58-.37h0l-1.09.28.36.6Z"/><path class="cls-7" d="M38.11,9.73l.37.62c.28.47.27.87-.23,1.18a.68.68,0,0,1-.62.07.7.7,0,0,1-.37.82A.82.82,0,0,1,36,12l-.47-.78Zm-.76,1.13,0,.06c.15.24.29.32.55.16s.24-.34.11-.55l0-.06Zm-1.08.65.06.1c.16.27.33.47.66.27s.18-.48,0-.72l0-.08Z"/><path class="cls-7" d="M37.31,14.29a1.56,1.56,0,1,1,2.09.45A1.45,1.45,0,0,1,37.31,14.29ZM39.49,13a1,1,0,1,0-.38,1.24A.91.91,0,0,0,39.49,13Z"/><path class="cls-7" d="M40.8,14.21l.3.49-1.42.86c-.31.19-.74.48-.48.9s.71.18,1,0l1.42-.86.3.49L40.42,17a1.08,1.08,0,0,1-1.65-.29c-.41-.68-.1-1.22.52-1.6Z"/><path class="cls-7" d="M40.11,18.79l-.3-.49L41.92,17l-.31-.51.43-.26L43,17.77l-.43.26-.31-.51Z"/><path class="cls-8" d="M22.52,16a.34.34,0,0,0,0-.32.22.22,0,0,0-.3-.08c-.27.16.23.73-.3,1.05a.59.59,0,0,1-.86-.19.66.66,0,0,1,0-.68l.32.08a.38.38,0,0,0-.06.43.25.25,0,0,0,.36.06c.16-.1.12-.28.09-.44a.53.53,0,0,1,.22-.62.54.54,0,0,1,.76.17.77.77,0,0,1,.09.54Z"/><path class="cls-8" d="M23.32,17.43a.54.54,0,0,0,0-.45.64.64,0,0,0-1.09.66.57.57,0,0,0,.38.25l-.37.23a1,1,0,0,1-.32-.3,1,1,0,0,1,1.68-1,.87.87,0,0,1,.12.41Z"/><path class="cls-8" d="M23.78,18.65l.63-.38.19.31-1.59,1-.19-.31.71-.44-.35-.57-.71.44-.19-.31,1.59-1,.19.31-.63.38Z"/><path class="cls-8" d="M24.66,19.28l-.35.21.3.49-.27.17-.3-.49-.43.26.31.51-.27.17-.5-.82,1.59-1,.5.82-.27.17Z"/><path class="cls-8" d="M25.37,19.83l.27.44a.93.93,0,0,1-1.59,1l-.27-.44ZM24.23,21l0,.05a.62.62,0,1,0,1.05-.64l0-.05Z"/><path class="cls-8" d="M26.19,21.19l.19.31-.89.55c-.2.12-.46.31-.3.57s.45.11.64,0l.89-.55.19.31L26,23a.68.68,0,0,1-1-.17c-.26-.43-.07-.77.32-1Z"/><path class="cls-8" d="M25.92,23.71l.27.44-.27.17-.46-.75,1.59-1,.19.31Z"/><path class="cls-8" d="M27.49,23.91l-.35.21.3.49-.27.17-.3-.49-.43.26.31.51-.27.17-.5-.82,1.59-1,.5.82-.27.17Z"/><path class="cls-8" d="M28.44,26l-.42.25.25.42-.25.15-.25-.42-.42.25-.15-.25.42-.25-.25-.42.25-.15.25.42.42-.25Z"/><path class="cls-8" d="M29.61,27.38l-.35.21.28.45-.27.17L29,27.76l-.7.43-.19-.31,1.59-1,.48.79-.27.17Z"/><path class="cls-8" d="M29.23,29l-.42.07-.2-.33,2-.38.15.24-1.27,1.6-.2-.33.26-.33Zm1-.24h0l-.69.18.23.38Z"/><path class="cls-8" d="M30.25,31.54l.07-.19A.84.84,0,0,1,30,31a1,1,0,1,1,1.32.27,1.1,1.1,0,0,1-.69.16l-.12.38Zm.46-.47a.65.65,0,0,0,.39-.1.55.55,0,1,0-.6-.92.56.56,0,0,0-.24.79.4.4,0,0,0,.15.13l.14-.45.22.31Z"/></g><rect class="cls-9" x="39.67" y="11.58" width="2.69" height="0.21" rx="0.11" ry="0.11"/><rect class="cls-9" x="40.69" y="11.26" width="1.75" height="0.17" rx="0.09" ry="0.09" transform="translate(9.49 -17.42) rotate(26.61)"/></svg>