<svg xmlns="http://www.w3.org/2000/svg" preserveAspectRatio="none" xmlns:xlink="http://www.w3.org/1999/xlink" viewBox="0 0 1440 294.01"><defs><style>.cls-1{isolation:isolate;}.cls-2{fill:url(#radial-gradient);}.cls-3{fill:url(#radial-gradient-2);}.cls-4{fill:url(#linear-gradient);}.cls-5{fill:url(#linear-gradient-2);}.cls-6{fill:url(#linear-gradient-3);}.cls-12,.cls-7{opacity:0.4;mix-blend-mode:screen;}.cls-7{fill:url(#linear-gradient-4);}.cls-8{fill:url(#linear-gradient-5);}.cls-9{fill:url(#linear-gradient-6);}.cls-10{fill:url(#linear-gradient-7);}.cls-11{fill:url(#linear-gradient-8);}.cls-12{fill:url(#linear-gradient-9);}.cls-13{fill:url(#linear-gradient-10);}</style><radialGradient id="radial-gradient" cx="2323.65" cy="63.32" r="18.19" gradientTransform="matrix(-0.9, 0, 0, 1.45, 2565.28, -63.1)" gradientUnits="userSpaceOnUse"><stop offset="0.31" stop-color="#dce58c"/><stop offset="0.62" stop-color="#becb5f"/><stop offset="1" stop-color="#6b7e3c"/></radialGradient><radialGradient id="radial-gradient-2" cx="2543.46" cy="62.66" r="18.2" xlink:href="#radial-gradient"/><linearGradient id="linear-gradient" x1="359.95" y1="111.85" x2="359.95" y2="234.71" gradientUnits="userSpaceOnUse"><stop offset="0.35" stop-color="#6c391c"/><stop offset="1" stop-color="#452a0f"/></linearGradient><linearGradient id="linear-gradient-2" x1="359.95" y1="107.12" x2="359.95" y2="181.9" gradientUnits="userSpaceOnUse"><stop offset="0.12" stop-color="#7b4626"/><stop offset="0.53" stop-color="#6c391e"/><stop offset="0.88" stop-color="#6e3b1c"/></linearGradient><linearGradient id="linear-gradient-3" x1="359.95" y1="31.48" x2="359.95" y2="113.22" gradientUnits="userSpaceOnUse"><stop offset="0.18" stop-color="#9c673f"/><stop offset="0.69" stop-color="#8b5531"/></linearGradient><linearGradient id="linear-gradient-4" x1="359.96" y1="32.72" x2="359.96" y2="119.43" xlink:href="#linear-gradient-3"/><linearGradient id="linear-gradient-5" x1="1.92" y1="252.78" x2="720.06" y2="252.78" gradientUnits="userSpaceOnUse"><stop offset="0.35" stop-color="#53391c"/><stop offset="1" stop-color="#3c1f0f"/></linearGradient><linearGradient id="linear-gradient-6" x1="1078.47" y1="112.35" x2="1078.47" y2="235.21" xlink:href="#linear-gradient"/><linearGradient id="linear-gradient-7" x1="1078.47" y1="107.62" x2="1078.47" y2="182.4" xlink:href="#linear-gradient-2"/><linearGradient id="linear-gradient-8" x1="1078.47" y1="31.99" x2="1078.47" y2="113.72" xlink:href="#linear-gradient-3"/><linearGradient id="linear-gradient-9" x1="1078.48" y1="33.22" x2="1078.48" y2="119.93" xlink:href="#linear-gradient-3"/><linearGradient id="linear-gradient-10" x1="-31.71" y1="256.7" x2="826.81" y2="256.7" gradientTransform="matrix(-0.85, 0, 0, 1, 1412.4, 0)" xlink:href="#linear-gradient-5"/></defs><title>Artboard 1</title><g class="cls-1"><g id="Layer_1" data-name="Layer 1"><path class="cls-2" d="M489.34,30.88c0,.75,3.79,1.36,8.47,1.36s8.46-.61,8.46-1.36-3.78-1.35-8.46-1.35S489.34,30.13,489.34,30.88Z"/><path class="cls-3" d="M291.52,29.92c0,.76,3.8,1.37,8.47,1.37s8.47-.61,8.47-1.37-3.79-1.34-8.47-1.34S291.52,29.18,291.52,29.92Z"/><path class="cls-4" d="M716.83,16c-.52-.23-1-1.86-2.39-.9-.67.46-.41.42-1.15.28s-1.52.72-1.9,1.22-1.52-.45-3.43-.32c-.65-1.86-2.94-2.75-4.9-3a2.81,2.81,0,0,0-3,1.53c-.4.57-.62.51-2.56.77S693.75,16,693,15s-1.87-1-3.73.77c-2.47,1.66-5.46-.13-7.93-1A2.41,2.41,0,0,0,678,16.3c-.26.51-1.69.25-2.86,0s-2.35-1.54-3.77-2.24c-2.21-.9-4.9,2-5.59,2.75s-2.82.45-5.29.76a24.66,24.66,0,0,1-7.15-.25c-2.25-1.85-3.38-1.2-4.67-.45s-1.74.7-3.21.25-3.59-.18-4.5-.77a5.09,5.09,0,0,0-4.42,0c-1-.89-2.17-2.74-4.51-2.87s-2.47.32-5.5,3.13c-.09-1.15-1.69-1.66-2.29-1.91s-2,2.87-2,2.87c-2.33-1.35-3.81.77-4.28,1s-2.52-1.54-4.9-3.06a2.71,2.71,0,0,0-1.93-.5,2.76,2.76,0,0,0-.47-1c-.44-.51-2.21.25-2.81.9a2.38,2.38,0,0,1-2.26.44c-.73-.12-1.51.72-1.91,1.22s-1.51-.45-3.42-.32c-.64-1.86-2.94-2.75-4.89-3a2.83,2.83,0,0,0-3,1.53c-.4.57-.6.51-2.56.77S586,16,585.23,15s-1.86-1-3.73.77c-2.47,1.66-5.46-.13-7.92-1a2.42,2.42,0,0,0-3.39,1.48c-.26.51-1.68.25-2.86,0s-2.33-1.54-3.77-2.24c-2.21-.9-4.9,2-5.59,2.75s-2.81.45-5.29.76a24.6,24.6,0,0,1-7.14-.25c-2.26-1.85-3.38-1.2-4.69-.45s-1.73.7-3.2.25-3.59-.18-4.5-.77a5.09,5.09,0,0,0-4.42,0c-1-.89-2.16-2.74-4.5-2.87s-2.48.32-5.51,3.13c-.09-1.15-1.69-1.66-2.29-1.91s-2,2.87-2,2.87c-2.35-1.35-3.81.77-4.29,1s-2.51-1.54-4.9-3.06a2.55,2.55,0,0,0-3.16,0,3.21,3.21,0,0,0-.59-1.52c-.43-.51-2.2.25-2.82.9a2.37,2.37,0,0,1-2.26.44c-.73-.12-1.51.72-1.9,1.22s-1.52-.45-3.43-.32c-.65-1.86-2.94-2.75-4.9-3a2.83,2.83,0,0,0-3,1.53c-.4.57-.61.51-2.55.77s-3.74.38-4.47-.58-1.86-1-3.73.77c-2.47,1.66-5.45-.13-7.93-1a2.41,2.41,0,0,0-3.38,1.48c-.26.51-1.69.25-2.85,0s-2.35-1.54-3.78-2.24c-2.21-.9-4.9,2-5.59,2.75s-2.82.45-5.29.76a24.65,24.65,0,0,1-7.15-.25c-2.26-1.85-3.38-1.2-4.68-.45s-1.74.7-3.22.25-3.6-.18-4.5-.77a5.09,5.09,0,0,0-4.42,0c-1-.89-2.18-2.74-4.5-2.87-2-.1-2.38.19-4.28,2a4.41,4.41,0,0,1-.5-.07,1.46,1.46,0,0,0-1.1.39,5.3,5.3,0,0,0-1.91-1.09c-.34-.14-.94.79-1.41,1.62a7.7,7.7,0,0,0-.91,0c-.65-1.86-3-2.75-4.9-3a2.84,2.84,0,0,0-3,1.53c-.27.4-.45.49-1.18.59a2.56,2.56,0,0,0-3.17.35c-1.19.05-2.16-.09-2.66-.75-.74-1-1.86-1-3.73.77-2.47,1.66-5.45-.13-7.93-1A2.41,2.41,0,0,0,375,16.3c-.25.51-1.69.25-2.86,0s-2.34-1.54-3.77-2.24c-2.21-.9-4.9,2-5.6,2.75s-2.8.45-5.27.76a24.67,24.67,0,0,1-7.16-.25c-2.25-1.85-3.38-1.2-4.68-.45s-1.74.7-3.21.25-3.6-.18-4.51-.77a5.08,5.08,0,0,0-4.42,0c-1-.89-2.16-2.74-4.51-2.87s-2.47.32-5.5,3.13c-.09-1.15-1.68-1.66-2.3-1.91s-2,2.87-2,2.87c-2.34-1.35-3.82.77-4.29,1s-2.51-1.54-4.9-3.06a2.54,2.54,0,0,0-3.15,0,3.29,3.29,0,0,0-.59-1.52c-.42-.51-2.21.25-2.81.9a2.37,2.37,0,0,1-2.26.44c-.74-.12-1.51.72-1.9,1.22s-1.52-.45-3.43-.32c-.65-1.86-2.95-2.75-4.9-3a2.82,2.82,0,0,0-3,1.53c-.38.57-.61.51-2.55.77s-3.74.38-4.47-.58-1.87-1-3.74.77c-2.46,1.66-5.45-.13-7.93-1a2.41,2.41,0,0,0-3.38,1.48c-.26.51-1.69.25-2.86,0s-2.33-1.54-3.77-2.24c-2.21-.9-4.89,2-5.59,2.75s-2.82.45-5.29.76a24.57,24.57,0,0,1-7.14-.25c-2.26-1.85-3.38-1.2-4.68-.45s-1.74.7-3.2.25-3.61-.18-4.51-.77a5.11,5.11,0,0,0-4.43,0c-1-.89-2.16-2.74-4.5-2.87-2-.1-2.36.19-4.22,1.93a3.18,3.18,0,0,1-1.43,0,1.11,1.11,0,0,0-.58.08,6.75,6.75,0,0,0-1.57-.77c-.36-.16-1,.88-1.47,1.75a5.39,5.39,0,0,0-1.71-.15c-.65-1.86-2.95-2.75-4.89-3a2.81,2.81,0,0,0-3,1.53,1.08,1.08,0,0,1-.56.47,2.54,2.54,0,0,0-2.86.4c-1.6.17-3,.14-3.61-.68s-1.86-1-3.72.77c-2.47,1.66-5.45-.13-7.93-1a2.4,2.4,0,0,0-3.38,1.48c-.26.51-1.7.25-2.86,0s-2.34-1.54-3.77-2.24c-2.21-.9-4.89,2-5.59,2.75s-2.81.45-5.28.76a24.71,24.71,0,0,1-7.16-.25c-2.24-1.85-3.37-1.2-4.68-.45s-1.73.7-3.2.25-3.6-.18-4.52-.77a5.08,5.08,0,0,0-4.42,0c-1-.89-2.15-2.74-4.49-2.87s-2.48.32-5.51,3.13c-.09-1.15-1.69-1.66-2.3-1.91s-2,2.87-2,2.87c-2.35-1.35-3.81.77-4.3,1s-2.5-1.54-4.89-3.06a2.56,2.56,0,0,0-3.16,0,3.37,3.37,0,0,0-.57-1.52c-.44-.51-2.22.25-2.83.9a2.36,2.36,0,0,1-2.25.44c-.73-.12-1.51.72-1.91,1.22s-1.51-.45-3.42-.32c-.65-1.86-2.94-2.75-4.9-3a2.81,2.81,0,0,0-3,1.53c-.4.57-.62.51-2.56.77S85.55,16,84.82,15s-1.86-1-3.72.77c-2.47,1.66-5.46-.13-7.94-1a2.41,2.41,0,0,0-3.38,1.48c-.26.51-1.69.25-2.86,0s-2.34-1.54-3.77-2.24c-2.22-.9-4.91,2-5.58,2.75s-2.83.45-5.3.76a24.68,24.68,0,0,1-7.15-.25c-2.24-1.85-3.38-1.2-4.67-.45s-1.74.7-3.21.25-3.6-.18-4.51-.77a5.07,5.07,0,0,0-4.41,0c-1-.89-2.18-2.74-4.52-2.87s-2.46.32-5.49,3.13c-.09-1.15-1.7-1.66-2.3-1.91s-2,2.87-2,2.87c-2.34-1.35-3.8.77-4.29,1s-2.16-2.31-4.75-2.31c-2.43,0-4,.06-4,.06V234.42H719V16.35A5.71,5.71,0,0,1,716.83,16Z"/><path class="cls-5" d="M717.13,16.22c-.55-.14-1.3-1.84-2.14-1.43s-1,.75-1.7.61-1.52.72-1.9,1.22-1.52-.45-3.43-.32c-.65-1.86-2.94-2.75-4.9-3a2.81,2.81,0,0,0-3,1.53c-.4.57-.62.51-2.56.77S693.75,16,693,15s-1.87-1-3.73.77c-2.47,1.66-5.46-.13-7.93-1A2.41,2.41,0,0,0,678,16.3c-.26.51-1.69.25-2.86,0s-2.35-1.54-3.77-2.24c-2.21-.9-4.9,2-5.59,2.75s-2.82.45-5.29.76a24.66,24.66,0,0,1-7.15-.25c-2.25-1.85-3.38-1.2-4.67-.45s-1.74.7-3.21.25-3.59-.18-4.5-.77a5.09,5.09,0,0,0-4.42,0c-1-.89-2.17-2.74-4.51-2.87s-2.47.32-5.5,3.13c-.09-1.15-1.69-1.66-2.29-1.91s-2,2.87-2,2.87c-2.33-1.35-3.81.77-4.28,1s-2.52-1.54-4.9-3.06a2.71,2.71,0,0,0-1.93-.5,2.76,2.76,0,0,0-.47-1c-.44-.51-2.21.25-2.81.9a2.38,2.38,0,0,1-2.26.44c-.73-.12-1.51.72-1.91,1.22s-1.51-.45-3.42-.32c-.64-1.86-2.94-2.75-4.89-3a2.83,2.83,0,0,0-3,1.53c-.4.57-.6.51-2.56.77S586,16,585.23,15s-1.86-1-3.73.77c-2.47,1.66-5.46-.13-7.92-1a2.42,2.42,0,0,0-3.39,1.48c-.26.51-1.68.25-2.86,0s-2.33-1.54-3.77-2.24c-2.21-.9-4.9,2-5.59,2.75s-2.81.45-5.29.76a24.6,24.6,0,0,1-7.14-.25c-2.26-1.85-3.38-1.2-4.69-.45s-1.73.7-3.2.25-3.59-.18-4.5-.77a5.09,5.09,0,0,0-4.42,0c-1-.89-2.16-2.74-4.5-2.87s-2.48.32-5.51,3.13c-.09-1.15-1.69-1.66-2.29-1.91s-2,2.87-2,2.87c-2.35-1.35-3.81.77-4.29,1s-2.51-1.54-4.9-3.06a2.55,2.55,0,0,0-3.16,0,3.21,3.21,0,0,0-.59-1.52c-.43-.51-2.2.25-2.82.9a2.37,2.37,0,0,1-2.26.44c-.73-.12-1.51.72-1.9,1.22s-1.52-.45-3.43-.32c-.65-1.86-2.94-2.75-4.9-3a2.83,2.83,0,0,0-3,1.53c-.4.57-.61.51-2.55.77s-3.74.38-4.47-.58-1.86-1-3.73.77c-2.47,1.66-5.45-.13-7.93-1a2.41,2.41,0,0,0-3.38,1.48c-.26.51-1.69.25-2.85,0s-2.35-1.54-3.78-2.24c-2.21-.9-4.9,2-5.59,2.75s-2.82.45-5.29.76a24.65,24.65,0,0,1-7.15-.25c-2.26-1.85-3.38-1.2-4.68-.45s-1.74.7-3.22.25-3.6-.18-4.5-.77a5.09,5.09,0,0,0-4.42,0c-1-.89-2.18-2.74-4.5-2.87-2-.1-2.38.19-4.28,2a4.41,4.41,0,0,1-.5-.07,1.46,1.46,0,0,0-1.1.39,5.3,5.3,0,0,0-1.91-1.09c-.34-.14-.94.79-1.41,1.62a7.7,7.7,0,0,0-.91,0c-.65-1.86-3-2.75-4.9-3a2.84,2.84,0,0,0-3,1.53c-.27.4-.45.49-1.18.59a2.56,2.56,0,0,0-3.17.35c-1.19.05-2.16-.09-2.66-.75-.74-1-1.86-1-3.73.77-2.47,1.66-5.45-.13-7.93-1A2.41,2.41,0,0,0,375,16.3c-.25.51-1.69.25-2.86,0s-2.34-1.54-3.77-2.24c-2.21-.9-4.9,2-5.6,2.75s-2.8.45-5.27.76a24.67,24.67,0,0,1-7.16-.25c-2.25-1.85-3.38-1.2-4.68-.45s-1.74.7-3.21.25-3.6-.18-4.51-.77a5.08,5.08,0,0,0-4.42,0c-1-.89-2.16-2.74-4.51-2.87s-2.47.32-5.5,3.13c-.09-1.15-1.68-1.66-2.3-1.91s-2,2.87-2,2.87c-2.34-1.35-3.82.77-4.29,1s-2.51-1.54-4.9-3.06a2.54,2.54,0,0,0-3.15,0,3.29,3.29,0,0,0-.59-1.52c-.42-.51-2.21.25-2.81.9a2.37,2.37,0,0,1-2.26.44c-.74-.12-1.51.72-1.9,1.22s-1.52-.45-3.43-.32c-.65-1.86-2.95-2.75-4.9-3a2.82,2.82,0,0,0-3,1.53c-.38.57-.61.51-2.55.77s-3.74.38-4.47-.58-1.87-1-3.74.77c-2.46,1.66-5.45-.13-7.93-1a2.41,2.41,0,0,0-3.38,1.48c-.26.51-1.69.25-2.86,0s-2.33-1.54-3.77-2.24c-2.21-.9-4.89,2-5.59,2.75s-2.82.45-5.29.76a24.57,24.57,0,0,1-7.14-.25c-2.26-1.85-3.38-1.2-4.68-.45s-1.74.7-3.2.25-3.61-.18-4.51-.77a5.11,5.11,0,0,0-4.43,0c-1-.89-2.16-2.74-4.5-2.87-2-.1-2.36.19-4.22,1.93a3.18,3.18,0,0,1-1.43,0,1.11,1.11,0,0,0-.58.08,6.75,6.75,0,0,0-1.57-.77c-.36-.16-1,.88-1.47,1.75a5.39,5.39,0,0,0-1.71-.15c-.65-1.86-2.95-2.75-4.89-3a2.81,2.81,0,0,0-3,1.53,1.08,1.08,0,0,1-.56.47,2.54,2.54,0,0,0-2.86.4c-1.6.17-3,.14-3.61-.68s-1.86-1-3.72.77c-2.47,1.66-5.45-.13-7.93-1a2.4,2.4,0,0,0-3.38,1.48c-.26.51-1.7.25-2.86,0s-2.34-1.54-3.77-2.24c-2.21-.9-4.89,2-5.59,2.75s-2.81.45-5.28.76a24.71,24.71,0,0,1-7.16-.25c-2.24-1.85-3.37-1.2-4.68-.45s-1.73.7-3.2.25-3.6-.18-4.52-.77a5.08,5.08,0,0,0-4.42,0c-1-.89-2.15-2.74-4.49-2.87s-2.48.32-5.51,3.13c-.09-1.15-1.69-1.66-2.3-1.91s-2,2.87-2,2.87c-2.35-1.35-3.81.77-4.3,1s-2.5-1.54-4.89-3.06a2.56,2.56,0,0,0-3.16,0,3.37,3.37,0,0,0-.57-1.52c-.44-.51-2.22.25-2.83.9a2.36,2.36,0,0,1-2.25.44c-.73-.12-1.51.72-1.91,1.22s-1.51-.45-3.42-.32c-.65-1.86-2.94-2.75-4.9-3a2.81,2.81,0,0,0-3,1.53c-.4.57-.62.51-2.56.77S85.55,16,84.82,15s-1.86-1-3.72.77c-2.47,1.66-5.46-.13-7.94-1a2.41,2.41,0,0,0-3.38,1.48c-.26.51-1.69.25-2.86,0s-2.34-1.54-3.77-2.24c-2.22-.9-4.91,2-5.58,2.75s-2.83.45-5.3.76a24.68,24.68,0,0,1-7.15-.25c-2.24-1.85-3.38-1.2-4.67-.45s-1.74.7-3.21.25-3.6-.18-4.51-.77a5.07,5.07,0,0,0-4.41,0c-1-.89-2.18-2.74-4.52-2.87s-2.46.32-5.49,3.13c-.09-1.15-1.7-1.66-2.3-1.91s-2,2.87-2,2.87c-2.34-1.35-3.8.77-4.29,1s-2.16-2.31-4.75-2.31c-2.43,0-4,.06-4,.06v155.3c1.75,0,2.81.17,3.54-.15,1.14-.49,1.34.82,3.5.82s4.36.3,4.89-.49,1.62-.29,3.29.39,3,.31,4.23,1.1,3.15.69,4.29,1.19,1.81-1.48,4.3-1.4,6.45.7,7.45-.09,1.28-1.4,3.49-1a37.1,37.1,0,0,0,8.8.89c4.09-.11,6.37-1.59,8.32-.89s4.1.78,7.18.69a21.25,21.25,0,0,0,6.58-1c1.2-.49,1.88,0,3,.4s1.88-.59,4,.1,3.22.4,4.9.4,2.89-1.19,4.64-.6,4.56,2.07,6.31,1.19,2.61-1.19,3.68-.88a6.55,6.55,0,0,0,3.89.09c1.34-.5,3.16-.8,4.17-.3a6.13,6.13,0,0,0,4.68-.07v1.27c1.13.69,2.82,1.59,3.54,1.27A6.24,6.24,0,0,1,117,174c2.15,0,4.37.3,4.91-.49a2.63,2.63,0,0,1,3.28-1.29c1.68.69,3,.31,4.23,1.1s3.16.69,4.3,1.19,1.81-1.48,4.3-1.4,6.44.7,7.45-.09,1.28-1.4,3.49-1a37.19,37.19,0,0,0,8.79.89c4.1-.11,6.38-1.59,8.33-.89s4.09.78,7.18.69a21.27,21.27,0,0,0,6.58-1c1.21-.49,1.88,0,3,.4s1.87-.59,4,.1,3.23.4,4.91.4,2.89-1.19,4.63-.6l.56.2v1.1c1.13.69,2.82,1.59,3.54,1.27A6.21,6.21,0,0,1,204,174c2.15,0,4.37.3,4.9-.49a4,4,0,0,1,.82-.92,4.17,4.17,0,0,0,.58-.17,9.3,9.3,0,0,1,1.29-.37,3.26,3.26,0,0,1,.6.17c1.69.69,3,.31,4.24,1.1s3.15.69,4.29,1.19,1.81-1.48,4.29-1.4,6.45.7,7.45-.09,1.28-1.4,3.49-1a37.21,37.21,0,0,0,8.8.89c4.1-.11,6.38-1.59,8.33-.89s4.09.78,7.18.69a21.11,21.11,0,0,0,6.57-1c1.21-.49,1.88,0,3,.4s1.87-.59,4,.1,3.23.4,4.91.4,2.89-1.19,4.63-.6,4.56,2.07,6.31,1.19,2.62-1.19,3.69-.88a6.53,6.53,0,0,0,3.89.09c1.35-.5,3.15-.8,4.16-.3a6.14,6.14,0,0,0,4.68-.07v1.27c1.12.69,2.82,1.59,3.55,1.27a6.19,6.19,0,0,1,3.49-.6c2.15,0,4.36.3,4.9-.49a2.64,2.64,0,0,1,3.29-1.29c1.68.69,3,.31,4.23,1.1s3.16.69,4.3,1.19,1.81-1.48,4.3-1.4,6.44.7,7.45-.09,1.27-1.4,3.5-1a37.08,37.08,0,0,0,8.78.89c4.1-.11,6.38-1.59,8.33-.89s4.09.78,7.19.69a21.32,21.32,0,0,0,6.58-1c1.2-.49,1.88,0,2.94.4s1.89-.59,4,.1,3.22.4,4.89.4,2.75-1.06,4.33-.69v1.39c1.12.69,2.81,1.59,3.54,1.27a6.24,6.24,0,0,1,3.49-.6c2.14,0,4.37.3,4.9-.49a4.18,4.18,0,0,1,.71-.83,4.38,4.38,0,0,0,1.55-.26c.26-.09.55-.18.84-.26l.19.06c1.68.69,3,.31,4.22,1.1s3.15.69,4.3,1.19,1.81-1.48,4.29-1.4,6.44.7,7.46-.09,1.27-1.4,3.49-1a37.14,37.14,0,0,0,8.79.89c4.09-.11,6.38-1.59,8.33-.89s4.09.78,7.18.69a21.1,21.1,0,0,0,6.57-1c1.22-.49,1.88,0,3,.4s1.89-.59,4,.1,3.22.4,4.89.4,2.89-1.19,4.64-.6,4.57,2.07,6.32,1.19,2.62-1.19,3.69-.88a6.53,6.53,0,0,0,3.89.09c1.34-.5,3.16-.8,4.16-.3a6.14,6.14,0,0,0,4.69-.07v1.27c1.12.69,2.81,1.59,3.54,1.27a6.19,6.19,0,0,1,3.49-.6c2.15,0,4.37.3,4.91-.49a2.63,2.63,0,0,1,3.28-1.29c1.69.69,3,.31,4.23,1.1s3.15.69,4.29,1.19,1.81-1.48,4.29-1.4,6.45.7,7.46-.09,1.27-1.4,3.48-1a37.19,37.19,0,0,0,8.8.89c4.1-.11,6.38-1.59,8.33-.89s4.09.78,7.18.69a21.15,21.15,0,0,0,6.57-1c1.21-.49,1.89,0,3,.4s1.88-.59,4,.1,3.22.4,4.9.4,2.89-1.19,4.63-.6,4.56,2.07,6.31,1.19,2.62-1.19,3.7-.88a6.55,6.55,0,0,0,3.89.09c1.34-.5,3.14-.8,4.16-.3a5.85,5.85,0,0,0,3.34.33v.87c1.13.69,2.82,1.59,3.55,1.27a6.21,6.21,0,0,1,3.49-.6c2.15,0,4.37.3,4.9-.49a2.65,2.65,0,0,1,3.29-1.29c1.68.69,3,.31,4.24,1.1s3.16.69,4.3,1.19,1.81-1.48,4.29-1.4,6.45.7,7.45-.09,1.28-1.4,3.49-1a37.09,37.09,0,0,0,8.79.89c4.1-.11,6.37-1.59,8.32-.89s4.1.78,7.18.69a21.17,21.17,0,0,0,6.58-1c1.21-.49,1.88,0,2.94.4s1.89-.59,4,.1,3.22.4,4.9.4,2.89-1.19,4.63-.6,4.58,2.07,6.32,1.19,2.62-1.19,3.69-.88a6.54,6.54,0,0,0,3.89.09c1.35-.5,3.16-.8,4.17-.3s2.75-.47,5.5-.47V16.35A4.57,4.57,0,0,1,717.13,16.22Z"/><path class="cls-6" d="M716.27,16.08c-.43-.5-.72-1.12-1.27-.92-.72.27-1,.8-1.7.67s-1.52.7-1.9,1.22-1.52-.44-3.43-.32c-.65-1.84-2.94-2.74-4.9-3a2.8,2.8,0,0,0-3,1.54c-.4.57-.62.51-2.56.76s-3.74.38-4.47-.57-1.87-1-3.73.76c-2.47,1.66-5.46-.13-7.93-1A2.4,2.4,0,0,0,678,16.72c-.26.52-1.69.27-2.86,0s-2.35-1.53-3.77-2.24c-2.21-.89-4.9,2-5.59,2.76s-2.82.44-5.29.77a25.26,25.26,0,0,1-7.15-.26c-2.25-1.85-3.38-1.22-4.67-.45s-1.74.71-3.21.25-3.59-.19-4.5-.76a5,5,0,0,0-4.42,0c-1-.9-2.17-2.76-4.51-2.88s-2.47.32-5.5,3.13c-.09-1.15-1.69-1.66-2.29-1.92s-2,2.89-2,2.89c-2.33-1.34-3.81.75-4.28,1S615.36,17.5,613,16a2.79,2.79,0,0,0-1.93-.49,2.74,2.74,0,0,0-.47-1c-.44-.5-2.21.26-2.81.9a2.43,2.43,0,0,1-2.26.44c-.73-.12-1.51.7-1.91,1.22s-1.51-.44-3.42-.32c-.64-1.84-2.94-2.74-4.89-3a2.82,2.82,0,0,0-3,1.54c-.4.57-.6.51-2.56.76s-3.72.38-4.47-.57-1.86-1-3.73.76c-2.47,1.66-5.46-.13-7.92-1a2.41,2.41,0,0,0-3.39,1.47c-.26.52-1.68.27-2.86,0s-2.33-1.53-3.77-2.24c-2.21-.89-4.9,2-5.59,2.76s-2.81.44-5.29.77a25.2,25.2,0,0,1-7.14-.26c-2.26-1.85-3.38-1.22-4.69-.45s-1.73.71-3.2.25-3.59-.19-4.5-.76a5,5,0,0,0-4.42,0c-1-.9-2.16-2.76-4.5-2.88s-2.48.32-5.51,3.13c-.09-1.15-1.69-1.66-2.29-1.92s-2,2.89-2,2.89c-2.35-1.34-3.81.75-4.29,1s-2.51-1.54-4.9-3.07A2.56,2.56,0,0,0,502,16a3.34,3.34,0,0,0-.59-1.52c-.43-.5-2.2.26-2.82.9a2.41,2.41,0,0,1-2.26.44c-.73-.12-1.51.7-1.9,1.22s-1.52-.44-3.43-.32c-.65-1.84-2.94-2.74-4.9-3a2.82,2.82,0,0,0-3,1.54c-.4.57-.61.51-2.55.76s-3.74.38-4.47-.57-1.86-1-3.73.76c-2.47,1.66-5.45-.13-7.93-1a2.41,2.41,0,0,0-3.38,1.47c-.26.52-1.69.27-2.85,0s-2.35-1.53-3.78-2.24c-2.21-.89-4.9,2-5.59,2.76s-2.82.44-5.29.77a25.25,25.25,0,0,1-7.15-.26c-2.26-1.85-3.38-1.22-4.68-.45s-1.74.71-3.22.25-3.6-.19-4.5-.76a5,5,0,0,0-4.42,0c-1-.9-2.18-2.76-4.5-2.88-2-.11-2.38.19-4.28,2a4.63,4.63,0,0,1-.5-.07,1.48,1.48,0,0,0-1.1.39,5.74,5.74,0,0,0-1.91-1.09c-.34-.14-.94.78-1.41,1.62a6.1,6.1,0,0,0-.91,0c-.65-1.84-3-2.74-4.9-3a2.83,2.83,0,0,0-3,1.54c-.27.39-.45.49-1.18.59a2.55,2.55,0,0,0-3.17.35c-1.19.05-2.16-.1-2.66-.75-.74-1-1.86-1-3.73.76-2.47,1.66-5.45-.13-7.93-1A2.41,2.41,0,0,0,375,16.72c-.25.52-1.69.27-2.86,0s-2.34-1.53-3.77-2.24c-2.21-.89-4.9,2-5.6,2.76s-2.8.44-5.27.77a25.27,25.27,0,0,1-7.16-.26c-2.25-1.85-3.38-1.22-4.68-.45s-1.74.71-3.21.25-3.6-.19-4.51-.76a5,5,0,0,0-4.42,0c-1-.9-2.16-2.76-4.51-2.88s-2.47.32-5.5,3.13c-.09-1.15-1.68-1.66-2.3-1.92s-2,2.89-2,2.89c-2.34-1.34-3.82.75-4.29,1S312.37,17.5,310,16a2.55,2.55,0,0,0-3.15,0,3.42,3.42,0,0,0-.59-1.52c-.42-.5-2.21.26-2.81.9a2.42,2.42,0,0,1-2.26.44c-.74-.12-1.51.7-1.9,1.22s-1.52-.44-3.43-.32c-.65-1.84-2.95-2.74-4.9-3a2.81,2.81,0,0,0-3,1.54c-.38.57-.61.51-2.55.76s-3.74.38-4.47-.57-1.87-1-3.74.76c-2.46,1.66-5.45-.13-7.93-1a2.41,2.41,0,0,0-3.38,1.47c-.26.52-1.69.27-2.86,0s-2.33-1.53-3.77-2.24c-2.21-.89-4.89,2-5.59,2.76s-2.82.44-5.29.77a25.17,25.17,0,0,1-7.14-.26c-2.26-1.85-3.38-1.22-4.68-.45s-1.74.71-3.2.25-3.61-.19-4.51-.76a5,5,0,0,0-4.43,0c-1-.9-2.16-2.76-4.5-2.88-2-.11-2.36.19-4.22,1.93a3.6,3.6,0,0,1-1.43,0,1.09,1.09,0,0,0-.58.07,8.07,8.07,0,0,0-1.57-.77c-.36-.15-1,.88-1.47,1.76a5.94,5.94,0,0,0-1.71-.16c-.65-1.84-2.95-2.74-4.89-3a2.81,2.81,0,0,0-3,1.54,1,1,0,0,1-.56.46,2.52,2.52,0,0,0-2.86.41c-1.6.18-3,.14-3.61-.68-.73-1-1.86-1-3.72.76-2.47,1.66-5.45-.13-7.93-1a2.4,2.4,0,0,0-3.38,1.47c-.26.52-1.7.27-2.86,0s-2.34-1.53-3.77-2.24c-2.21-.89-4.89,2-5.59,2.76s-2.81.44-5.28.77a25.32,25.32,0,0,1-7.16-.26c-2.24-1.85-3.37-1.22-4.68-.45s-1.73.71-3.2.25-3.6-.19-4.52-.76a5,5,0,0,0-4.42,0c-1-.9-2.15-2.76-4.49-2.88s-2.48.32-5.51,3.13c-.09-1.15-1.69-1.66-2.3-1.92s-2,2.89-2,2.89c-2.35-1.34-3.81.75-4.3,1s-2.5-1.54-4.89-3.07a2.57,2.57,0,0,0-3.16,0,3.5,3.5,0,0,0-.57-1.52c-.44-.5-2.22.26-2.83.9a2.41,2.41,0,0,1-2.25.44c-.73-.12-1.51.7-1.91,1.22s-1.51-.44-3.42-.32c-.65-1.84-2.94-2.74-4.9-3a2.8,2.8,0,0,0-3,1.54c-.4.57-.62.51-2.56.76s-3.73.38-4.47-.57-1.86-1-3.72.76c-2.47,1.66-5.46-.13-7.94-1a2.41,2.41,0,0,0-3.38,1.47c-.26.52-1.69.27-2.86,0s-2.34-1.53-3.77-2.24c-2.22-.89-4.91,2-5.58,2.76s-2.83.44-5.3.77a25.28,25.28,0,0,1-7.15-.26c-2.24-1.85-3.38-1.22-4.67-.45s-1.74.71-3.21.25-3.6-.19-4.51-.76a4.94,4.94,0,0,0-4.41,0c-1-.9-2.18-2.76-4.52-2.88s-2.46.32-5.49,3.13c-.09-1.15-1.7-1.66-2.3-1.92S14,18,14,18c-2.34-1.34-3.8.75-4.29,1S7.39,16.9,4.79,16.9s-3.9-.11-3.9-.11V123.88c1.93,0,2.38-.59,3.26-.24a4.76,4.76,0,0,0,3.23-.5,2.8,2.8,0,0,1,3-.57c1.56.67,2.35.77,3.08-.14s2.13-.11,3.25.46,2.93.39,3.66.71,2,2.4,4.3,2,2.19-.41,3.14.25,1.68.33,2.9.09,1.85-1.47,2.52-.75,1.74.75,4.25.66,7-1.48,8.34-1S48,126.48,48.36,126a3.71,3.71,0,0,1,3.19-1.32c1.9,0,4.76.17,5.59-.24a6.53,6.53,0,0,1,4.36.08c1.45.57,1.18,1,2.8.73a21.79,21.79,0,0,1,4.65-.08c2,.08,5-1.57,6.48-1.9a3.56,3.56,0,0,1,3.08.42c1.17.57,2.06,1.06,3,.66s1.24-.25,4.26.17a19.56,19.56,0,0,0,6.77-.08c.9-.34,1.35-1.41,3.2-.75s1.83.08,2.67-.26a6.28,6.28,0,0,1,3.7.08c1.11.42,2.68.26,4.25.83a9.86,9.86,0,0,0,3.7.05v2.35c.25-.33.5-.66.68-.89.58-.68.74-1.12,1.61-.76a3.26,3.26,0,0,0,1.83.09c.49,0,.89.9,1.5.54s1.24-2,2.8-1.3,2.46.65,3.19-.26,2-.4,3.07.18,1.56,1.23,2.63,1.23,1.46.58,2.18.9,2-.49,4.31-.9,2.17-.41,3.13.25,1.68.33,2.91.09,1.85-1.47,2.52-.75,1.74.75,4.25.66,7-1.48,8.34-1,2.18,1.64,2.51,1.15a3.71,3.71,0,0,1,3.19-1.32c1.91,0,4.76.17,5.6-.24a6.51,6.51,0,0,1,4.36.08c1.46.57,1.18,1,2.8.73a21.72,21.72,0,0,1,4.64-.08c2,.08,5-1.57,6.49-1.9a3.55,3.55,0,0,1,3.08.42c1.17.57,2.06,1.06,3,.66s1.24-.25,4.25.17c.72.09,1.43.16,2.1.19v2c.25-.33.5-.66.69-.89.57-.68.73-1.12,1.62-.76a3.24,3.24,0,0,0,1.82.09c.49,0,.88.9,1.49.54s1.24-2,2.81-1.3,2.46.65,3.19-.26,2-.4,3.08.18,1.56,1.23,2.62,1.23,1.46.58,2.18.9,2-.49,4.31-.9,2.18-.41,3.13.25,1.68.33,2.91.09,1.85-1.47,2.52-.75,1.73.75,4.25.66,7-1.48,8.33-1,2.18,1.64,2.52,1.15a3.71,3.71,0,0,1,3.19-1.32c1.89,0,4.76.17,5.59-.24a6.55,6.55,0,0,1,4.37.08c1.45.57,1.17,1,2.79.73a21.8,21.8,0,0,1,4.65-.08c2,.08,5-1.57,6.48-1.9a3.56,3.56,0,0,1,3.08.42c1.18.57,2.08,1.06,3,.66s1.22-.25,4.25.17a19.55,19.55,0,0,0,6.77-.08c.89-.34,1.34-1.41,3.19-.75s1.85.08,2.68-.26a6.25,6.25,0,0,1,3.69.08c1.13.42,2.69.26,4.25.83a9.88,9.88,0,0,0,3.7.05v2.35c.25-.33.49-.66.69-.89.58-.68.74-1.12,1.62-.76a3.24,3.24,0,0,0,1.82.09c.49,0,.88.9,1.51.54s1.23-2,2.79-1.3,2.46.65,3.19-.26,2-.4,3.08.18,1.57,1.23,2.63,1.23,1.46.58,2.18.9,2-.49,4.3-.9,2.19-.41,3.14.25,1.68.33,2.91.09,1.85-1.47,2.52-.75,1.73.75,4.24.66,7.05-1.48,8.34-1,2.18,1.64,2.51,1.15a3.74,3.74,0,0,1,3.19-1.32c1.9,0,4.75.17,5.59-.24a6.55,6.55,0,0,1,4.37.08c1.45.57,1.17,1,2.79.73a21.73,21.73,0,0,1,4.64-.08c2,.08,5-1.57,6.5-1.9a3.56,3.56,0,0,1,3.08.42c1.17.57,2.06,1.06,3,.66s1.22-.25,4.26.17c.41.05.82.11,1.23.13v2.11c.25-.33.49-.66.68-.89.59-.68.73-1.12,1.61-.76a3.3,3.3,0,0,0,1.84.09c.48,0,.89.9,1.49.54s1.24-2,2.81-1.3,2.46.65,3.18-.26,2-.4,3.08.18,1.57,1.23,2.63,1.23,1.45.58,2.18.9,2-.49,4.31-.9,2.18-.41,3.14.25,1.68.33,2.91.09,1.85-1.47,2.52-.75,1.73.75,4.25.66,7-1.48,8.33-1,2.19,1.64,2.53,1.15a3.67,3.67,0,0,1,3.18-1.32c1.9,0,4.75.17,5.6-.24a6.53,6.53,0,0,1,4.36.08c1.44.57,1.17,1,2.79.73a21.8,21.8,0,0,1,4.65-.08c2,.08,5-1.57,6.49-1.9a3.52,3.52,0,0,1,3.07.42c1.18.57,2.08,1.06,3,.66s1.23-.25,4.25.17a19.55,19.55,0,0,0,6.77-.08c.9-.34,1.35-1.41,3.19-.75s1.85.08,2.69-.26a6.29,6.29,0,0,1,3.7.08c1.11.42,2.67.26,4.24.83a9.88,9.88,0,0,0,3.7.05v2.35c.26-.33.5-.66.68-.89.58-.68.74-1.12,1.61-.76a3.29,3.29,0,0,0,1.84.09c.5,0,.88.9,1.49.54s1.24-2,2.8-1.3,2.46.65,3.19-.26,2-.4,3.08.18,1.57,1.23,2.63,1.23,1.45.58,2.18.9,2-.49,4.31-.9,2.18-.41,3.14.25,1.67.33,2.9.09,1.85-1.47,2.52-.75,1.73.75,4.25.66,7.05-1.48,8.34-1,2.18,1.64,2.51,1.15a3.72,3.72,0,0,1,3.19-1.32c1.91,0,4.76.17,5.6-.24a6.5,6.5,0,0,1,4.36.08c1.47.57,1.18,1,2.8.73a21.81,21.81,0,0,1,4.65-.08c2,.08,5-1.57,6.49-1.9a3.56,3.56,0,0,1,3.08.42c1.17.57,2.06,1.06,3,.66s1.23-.25,4.25.17c3.68.49,7.19-1.07,10.84-.73,1.4.13,2.75-.6,4.18-.49,1.72.14,3.43.59,5.15.76,1.13.11,2.67.3,2.88,2.37,1.89-.76,3.75-.57,5.63-1.21a6.28,6.28,0,0,1,2.94-.67,10.44,10.44,0,0,0,4-.47c1.65-.38,3,1.5,4.62,1.5,1.07,0,1.45.58,2.18.9s2-.49,4.31-.9,2.18-.41,3.13.25,1.68.33,2.92.09,1.84-1.47,2.51-.75,1.73.75,4.25.66,7-1.48,8.34-1,2.18,1.64,2.52,1.15a3.7,3.7,0,0,1,3.19-1.32c1.9,0,4.76.17,5.59-.24a6.53,6.53,0,0,1,4.36.08c1.46.57,1.17,1,2.79.73a21.88,21.88,0,0,1,4.65-.08c2,.08,5-1.57,6.48-1.9a3.55,3.55,0,0,1,3.08.42c1.18.57,2.07,1.06,3,.66s1.24-.25,4.27.17a19.53,19.53,0,0,0,6.76-.08c.89-.34,1.34-1.41,3.19-.75s1.84.08,2.69-.26a6.25,6.25,0,0,1,3.69.08c1.12.42,2.68.26,4.24.83,1,.38,3.12-.27,4.51-.47V16.79C717.79,16.67,716.7,16.61,716.27,16.08Z"/><path class="cls-7" d="M716.79,16.7c-.93,0-.6-.94-1.43-1.15s-1.51.57-2.25.43-1.52.7-1.91,1.22-1.51-.45-3.43-.32c-.64-1.85-2.94-2.75-4.89-3a2.81,2.81,0,0,0-3,1.54c-.4.56-.61.51-2.56.75s-3.72.39-4.46-.57-1.87-1-3.72.77c-2.48,1.66-5.46-.13-7.93-1a2.41,2.41,0,0,0-3.38,1.46c-.26.52-1.68.26-2.86,0s-2.34-1.53-3.77-2.23c-2.21-.9-4.9,2-5.59,2.75s-2.8.45-5.29.76a24.86,24.86,0,0,1-7.14-.25c-2.26-1.84-3.37-1.22-4.68-.45s-1.72.7-3.2.25-3.6-.18-4.52-.76a5,5,0,0,0-4.41,0c-1-.89-2.17-2.75-4.5-2.88s-2.47.32-5.5,3.13c-.09-1.14-1.69-1.65-2.3-1.91s-2,2.86-2,2.86c-2.34-1.34-3.81.76-4.29,1s-2.5-1.52-4.89-3.06a2.81,2.81,0,0,0-1.93-.5,2.84,2.84,0,0,0-.47-1c-.43-.52-2.21.25-2.82.9a2.39,2.39,0,0,1-2.24.43c-.74-.13-1.52.7-1.91,1.22s-1.52-.45-3.43-.32c-.64-1.85-2.94-2.75-4.89-3a2.82,2.82,0,0,0-3,1.54c-.39.56-.6.51-2.56.75s-3.72.39-4.46-.57-1.86-1-3.73.77c-2.46,1.66-5.45-.13-7.92-1a2.41,2.41,0,0,0-3.38,1.46c-.26.52-1.69.26-2.86,0s-2.33-1.53-3.77-2.23c-2.21-.9-4.9,2-5.59,2.75s-2.81.45-5.28.76a24.89,24.89,0,0,1-7.15-.25c-2.25-1.84-3.38-1.22-4.68-.45s-1.73.7-3.2.25-3.6-.18-4.5-.76a5,5,0,0,0-4.42,0c-1-.89-2.17-2.75-4.5-2.88s-2.47.32-5.51,3.13c-.09-1.14-1.68-1.65-2.29-1.91s-2,2.86-2,2.86c-2.34-1.34-3.81.76-4.29,1s-2.51-1.52-4.9-3.06a2.52,2.52,0,0,0-3.16.05,3.29,3.29,0,0,0-.59-1.53c-.44-.52-2.21.25-2.81.9a2.42,2.42,0,0,1-2.26.43c-.73-.13-1.52.7-1.9,1.22s-1.52-.45-3.43-.32c-.64-1.85-2.94-2.75-4.89-3a2.82,2.82,0,0,0-3,1.54c-.39.56-.61.51-2.56.75s-3.72.39-4.46-.57-1.87-1-3.72.77c-2.48,1.66-5.46-.13-7.93-1a2.42,2.42,0,0,0-3.39,1.46c-.26.52-1.68.26-2.85,0s-2.34-1.53-3.78-2.23c-2.21-.9-4.9,2-5.58,2.75s-2.82.45-5.28.76a24.93,24.93,0,0,1-7.15-.25c-2.25-1.84-3.37-1.22-4.67-.45s-1.74.7-3.21.25-3.59-.18-4.5-.76a5,5,0,0,0-4.41,0c-1-.89-2.18-2.75-4.52-2.88-2-.1-2.38.19-4.28,2l-.5-.08a1.48,1.48,0,0,0-1.1.39,5.1,5.1,0,0,0-1.91-1.08c-.35-.15-.94.77-1.41,1.61a4.45,4.45,0,0,0-.92,0c-.65-1.85-2.94-2.75-4.9-3a2.82,2.82,0,0,0-3,1.54c-.26.39-.46.48-1.18.59a2.56,2.56,0,0,0-3.17.34c-1.19.05-2.17-.1-2.66-.75-.74-1-1.87-1-3.73.77-2.47,1.66-5.46-.13-7.93-1a2.4,2.4,0,0,0-3.38,1.46c-.26.52-1.69.26-2.86,0s-2.33-1.53-3.77-2.23c-2.21-.9-4.89,2-5.59,2.75s-2.81.45-5.28.76a25,25,0,0,1-7.16-.25c-2.24-1.84-3.38-1.22-4.67-.45s-1.74.7-3.21.25-3.59-.18-4.5-.76a5,5,0,0,0-4.42,0c-1-.89-2.15-2.75-4.5-2.88s-2.47.32-5.5,3.13c-.09-1.14-1.69-1.65-2.3-1.91s-2,2.86-2,2.86c-2.34-1.34-3.81.76-4.28,1s-2.52-1.52-4.9-3.06a2.53,2.53,0,0,0-3.16.05,3.38,3.38,0,0,0-.59-1.53c-.43-.52-2.21.25-2.82.9a2.39,2.39,0,0,1-2.24.43c-.75-.13-1.52.7-1.91,1.22s-1.52-.45-3.43-.32c-.65-1.85-2.94-2.75-4.89-3a2.83,2.83,0,0,0-3,1.54c-.39.56-.6.51-2.55.75s-3.73.39-4.47-.57-1.86-1-3.72.77c-2.47,1.66-5.45-.13-7.92-1a2.42,2.42,0,0,0-3.39,1.46c-.26.52-1.69.26-2.85,0s-2.34-1.53-3.78-2.23c-2.21-.9-4.89,2-5.58,2.75s-2.82.45-5.29.76a24.86,24.86,0,0,1-7.14-.25c-2.25-1.84-3.38-1.22-4.68-.45s-1.74.7-3.21.25-3.6-.18-4.51-.76a5,5,0,0,0-4.41,0c-1-.89-2.17-2.75-4.51-2.88-2-.1-2.36.19-4.23,1.94a3.39,3.39,0,0,1-1.42,0,1,1,0,0,0-.58.09,6.24,6.24,0,0,0-1.57-.77c-.36-.17-1,.88-1.48,1.73a6.23,6.23,0,0,0-1.71-.15c-.65-1.85-2.94-2.75-4.89-3a2.81,2.81,0,0,0-3,1.54,1,1,0,0,1-.55.45,2.51,2.51,0,0,0-2.86.43c-1.6.16-3,.12-3.6-.69s-1.87-1-3.73.77c-2.47,1.66-5.46-.13-7.93-1a2.41,2.41,0,0,0-3.38,1.46c-.25.52-1.69.26-2.85,0s-2.35-1.53-3.77-2.23c-2.21-.9-4.9,2-5.59,2.75s-2.82.45-5.29.76a24.86,24.86,0,0,1-7.14-.25c-2.26-1.84-3.39-1.22-4.69-.45s-1.72.7-3.2.25-3.59-.18-4.51-.76a5,5,0,0,0-4.42,0c-1-.89-2.16-2.75-4.5-2.88s-2.46.32-5.51,3.13c-.08-1.14-1.68-1.65-2.29-1.91s-2,2.86-2,2.86c-2.35-1.34-3.82.76-4.29,1s-2.51-1.52-4.9-3.06a2.53,2.53,0,0,0-3.16.05,3.22,3.22,0,0,0-.58-1.53c-.43-.52-2.2.25-2.82.9a2.41,2.41,0,0,1-2.25.43c-.73-.13-1.51.7-1.91,1.22s-1.5-.45-3.41-.32c-.65-1.85-2.94-2.75-4.9-3a2.82,2.82,0,0,0-3,1.54c-.4.56-.61.51-2.55.75s-3.73.39-4.47-.57-1.85-1-3.71.77c-2.47,1.66-5.46-.13-7.93-1a2.41,2.41,0,0,0-3.38,1.46c-.26.52-1.69.26-2.85,0s-2.34-1.53-3.77-2.23c-2.21-.9-4.9,2-5.59,2.75s-2.81.45-5.29.76a24.89,24.89,0,0,1-7.15-.25c-2.24-1.84-3.38-1.22-4.67-.45s-1.74.7-3.21.25-3.61-.18-4.51-.76a5,5,0,0,0-4.42,0c-1-.89-2.16-2.75-4.51-2.88s-2.47.32-5.51,3.13c-.09-1.14-1.68-1.65-2.3-1.91s-2,2.86-2,2.86c-2.34-1.34-3.81.76-4.29,1S7.52,17.3,4.93,17.3c-2.29,0-4-.15-4-.15V62.64C9,62.64,11,67.38,18,66.42c12.08-1.65,10.36,7.66,27.58,2S60.53,63,75.54,69c7.51,3,9.58-.83,16.57-3,4.62-1.44,9.93.37,14.72-.61,1.9-.39,2.91-2.18,4.88-1.91,1.74.25,4.54,3.86,6.49,4.7,10,4.28,26.29,3.64,36.52.31,17.23-5.6,14.92-5.42,29.92.52h0c5.13,2,7.9.74,13-.81,3.82-1.19,4.41-.78,8.56.4,11.29,3.19,24.24,3.56,35.49-.11,17.22-5.6,14.91-5.42,29.9.52,4.44,1.76,7.6,2,11.82.15,5.2-2.23,8.87-2.27,14.49-2.75,2.68-.24,6.69-3.79,8.87-3.52,3.17.39,6.77,5.46,10.34,6.25s7.34-.28,11,0c4.8.39,9.26,2,14.12,1.46,7.67-.9,15-5.79,22.67-6.16,5.43-.25,10.62,2.49,15.79,4.55,11.91,4.72,11.1-1.19,16.11-2.82A15.65,15.65,0,0,0,408.1,69.3c12.08-1.64,11.48,4.78,28.7-.83S451.71,63,466.72,69c4.46,1.76,7.54,1.91,11.81.15,5.76-2.35,10.45-1.67,16.4-2.94,5.79-1.26,5.87-2.79,11.47.33,11.91,6.63,27.2,6,39.5,1.95,17.24-5.6,14.92-5.42,29.91.52s9.84-4.94,21.47-3c6.1,1,10-.12,12.94-2.77,3.48,3.51,8.55,6.9,14.74,6.05,12.08-1.64,11.47,4.78,28.7-.83S668.58,63,683.57,69,693.42,64,705,66c6.7,1.13,6.73-3.37,13.93-3.37l0-45.49C717.62,17.15,717.35,16.7,716.79,16.7Z"/><path class="cls-8" d="M717.83,226.81c-.93,0-.6-.94-1.43-1.15s-1.51.57-2.25.43-1.52.7-1.91,1.22-1.51-.45-3.43-.32c-.64-1.85-2.94-2.75-4.89-3a2.81,2.81,0,0,0-3,1.54c-.4.56-.61.51-2.56.75s-3.72.39-4.46-.57-1.87-1-3.72.77c-2.48,1.66-5.46-.13-7.93-1a2.41,2.41,0,0,0-3.38,1.46c-.26.52-1.68.26-2.86,0s-2.34-1.53-3.77-2.23c-2.21-.9-4.9,2-5.59,2.75s-2.8.45-5.29.76a24.86,24.86,0,0,1-7.14-.25c-2.26-1.84-3.37-1.22-4.68-.45s-1.72.7-3.2.25-3.6-.18-4.52-.76a5,5,0,0,0-4.41,0c-1-.89-2.17-2.75-4.5-2.88s-2.47.32-5.5,3.13c-.09-1.14-1.69-1.65-2.3-1.91s-2,2.86-2,2.86c-2.34-1.34-3.81.76-4.29,1s-2.5-1.52-4.89-3.06a1.84,1.84,0,0,1-2.4-1.48c-.43-.52-2.21.25-2.82.9a2.39,2.39,0,0,1-2.24.43c-.74-.13-1.52.7-1.91,1.22s-1.52-.45-3.43-.32c-.64-1.85-2.94-2.75-4.89-3a2.82,2.82,0,0,0-3,1.54c-.39.56-.6.51-2.56.75s-3.72.39-4.46-.57-1.86-1-3.73.77c-2.46,1.66-5.45-.13-7.92-1a2.41,2.41,0,0,0-3.38,1.46c-.26.52-1.69.26-2.86,0s-2.33-1.53-3.77-2.23c-2.21-.9-4.9,2-5.59,2.75s-2.81.45-5.28.76a24.89,24.89,0,0,1-7.15-.25c-2.25-1.84-3.38-1.22-4.68-.45s-1.73.7-3.2.25-3.6-.18-4.5-.76a5,5,0,0,0-4.42,0c-1-.89-2.17-2.75-4.5-2.88s-2.47.32-5.51,3.13c-.09-1.14-1.68-1.65-2.29-1.91s-2,2.86-2,2.86c-2.34-1.34-3.81.76-4.29,1s-2.51-1.52-4.9-3.06a2.52,2.52,0,0,0-3.16.05,3.29,3.29,0,0,0-.59-1.53c-.44-.52-2.21.25-2.81.9a2.42,2.42,0,0,1-2.26.43c-.73-.13-1.52.7-1.9,1.22s-1.52-.45-3.43-.32c-.64-1.85-2.94-2.75-4.89-3a2.82,2.82,0,0,0-3,1.54c-.39.56-.61.51-2.56.75s-3.72.39-4.46-.57-1.87-1-3.72.77c-2.48,1.66-5.46-.13-7.93-1A2.42,2.42,0,0,0,462,227c-.26.52-1.68.26-2.85,0s-2.34-1.53-3.78-2.23c-2.21-.9-4.9,2-5.58,2.75s-2.82.45-5.28.76a24.93,24.93,0,0,1-7.15-.25c-2.25-1.84-3.37-1.22-4.67-.45s-1.74.7-3.21.25-3.59-.18-4.5-.76a5,5,0,0,0-4.41,0c-1-.89-2.18-2.75-4.52-2.88-2-.1-2.38.19-4.28,2l-.5-.08a1.48,1.48,0,0,0-1.1.39,5.1,5.1,0,0,0-1.91-1.08c-.35-.15-.94.77-1.41,1.61a4.45,4.45,0,0,0-.92,0c-.65-1.85-2.94-2.75-4.9-3a2.82,2.82,0,0,0-3,1.54c-.26.39-.46.48-1.18.59a2.56,2.56,0,0,0-3.17.34c-1.19.05-2.17-.1-2.66-.75-.74-1-1.87-1-3.73.77-2.47,1.66-5.46-.13-7.93-1a2.4,2.4,0,0,0-3.38,1.46c-.26.52-1.69.26-2.86,0s-2.33-1.53-3.77-2.23c-2.21-.9-4.89,2-5.59,2.75s-2.81.45-5.28.76a25,25,0,0,1-7.16-.25c-2.24-1.84-3.38-1.22-4.67-.45s-1.74.7-3.21.25-3.59-.18-4.5-.76a5,5,0,0,0-4.42,0c-1-.89-2.15-2.75-4.5-2.88s-2.47.32-5.5,3.13c-.09-1.14-1.69-1.65-2.3-1.91s-2,2.86-2,2.86c-2.34-1.34-3.81.76-4.28,1s-2.52-1.52-4.9-3.06a2.53,2.53,0,0,0-3.16.05,3.38,3.38,0,0,0-.59-1.53c-.43-.52-2.21.25-2.82.9a2.39,2.39,0,0,1-2.24.43c-.75-.13-1.52.7-1.91,1.22s-1.52-.45-3.43-.32c-.65-1.85-2.94-2.75-4.89-3a2.83,2.83,0,0,0-3,1.54c-.39.56-.6.51-2.55.75s-3.73.39-4.47-.57-1.86-1-3.72.77c-2.47,1.66-5.45-.13-7.92-1a2.42,2.42,0,0,0-3.39,1.46c-.26.52-1.69.26-2.85,0s-2.34-1.53-3.78-2.23c-2.21-.9-4.89,2-5.58,2.75s-2.82.45-5.29.76a24.86,24.86,0,0,1-7.14-.25c-2.25-1.84-3.38-1.22-4.68-.45s-1.74.7-3.21.25-3.6-.18-4.51-.76a5,5,0,0,0-4.41,0c-1-.89-2.17-2.75-4.51-2.88-2-.1-2.36.19-4.23,1.94a3.39,3.39,0,0,1-1.42,0,1,1,0,0,0-.58.09,6.24,6.24,0,0,0-1.57-.77c-.36-.17-1,.88-1.48,1.73a6.23,6.23,0,0,0-1.71-.15c-.65-1.85-2.94-2.75-4.89-3a2.81,2.81,0,0,0-3,1.54,1,1,0,0,1-.55.45,2.51,2.51,0,0,0-2.86.43c-1.6.16-3,.12-3.6-.69s-1.87-1-3.73.77c-2.47,1.66-5.46-.13-7.93-1A2.41,2.41,0,0,0,179.9,227c-.25.52-1.69.26-2.85,0s-2.35-1.53-3.77-2.23c-2.21-.9-4.9,2-5.59,2.75s-2.82.45-5.29.76a24.86,24.86,0,0,1-7.14-.25c-2.26-1.84-3.39-1.22-4.69-.45s-1.72.7-3.2.25-3.59-.18-4.51-.76a5,5,0,0,0-4.42,0c-1-.89-2.16-2.75-4.5-2.88s-2.46.32-5.51,3.13c-.08-1.14-1.68-1.65-2.29-1.91s-2,2.86-2,2.86c-2.35-1.34-3.82.76-4.29,1s-2.51-1.52-4.9-3.06a2.53,2.53,0,0,0-3.16.05,3.22,3.22,0,0,0-.58-1.53c-.43-.52-2.2.25-2.82.9a2.41,2.41,0,0,1-2.25.43c-.73-.13-1.51.7-1.91,1.22s-1.5-.45-3.41-.32c-.65-1.85-2.94-2.75-4.9-3a2.82,2.82,0,0,0-3,1.54c-.4.56-.61.51-2.55.75s-3.73.39-4.47-.57-1.85-1-3.71.77c-2.47,1.66-5.46-.13-7.93-1A2.41,2.41,0,0,0,70.8,227c-.26.52-1.69.26-2.85,0s-2.34-1.53-3.77-2.23c-2.21-.9-4.9,2-5.59,2.75s-2.81.45-5.29.76a24.89,24.89,0,0,1-7.15-.25c-2.24-1.84-3.38-1.22-4.67-.45s-1.74.7-3.21.25-3.61-.18-4.51-.76a5,5,0,0,0-4.42,0c-1-.89-2.16-2.75-4.51-2.88s-2.47.32-5.51,3.13c-.09-1.14-1.68-1.65-2.3-1.91s-2,2.86-2,2.86c-2.34-1.34-3.81.76-4.29,1S8.55,227.41,6,227.41c-2.29,0-4-.15-4-.15v45.49c8.12,0,10.13,4.73,17.15,3.78,12.08-1.65,10.36,7.66,27.58,2s14.92-5.42,29.92.52c7.51,3,9.58-.83,16.57-3,4.62-1.44,9.93.37,14.72-.61,1.9-.39,2.91-2.18,4.88-1.91,1.74.25,4.54,3.86,6.49,4.7,10,4.28,26.29,3.64,36.52.31,17.23-5.6,14.92-5.42,29.92.52h0c5.13,2,7.9.74,13-.81,3.82-1.19,4.41-.78,8.56.4,11.29,3.19,24.24,3.56,35.49-.11,17.22-5.6,14.91-5.42,29.9.52,4.44,1.76,7.6,2,11.82.15,5.2-2.23,8.87-2.27,14.49-2.75,2.68-.24,6.69-3.79,8.87-3.52,3.17.39,6.77,5.46,10.34,6.25s7.34-.28,11,0c4.8.39,9.26,2,14.12,1.46,7.67-.9,15-5.79,22.67-6.16,5.43-.25,10.62,2.49,15.79,4.55,11.91,4.72,11.1-1.19,16.11-2.82a15.65,15.65,0,0,0,11.33,3.13c12.08-1.64,11.48,4.78,28.7-.83s14.92-5.42,29.92.52c4.46,1.76,7.54,1.91,11.81.15,5.76-2.35,10.45-1.67,16.4-2.94,5.79-1.26,5.87-2.79,11.47.33,11.91,6.63,27.2,6,39.5,1.95,17.24-5.6,14.92-5.42,29.91.52s9.84-4.94,21.47-3c6.1,1,10-.12,12.94-2.77,3.48,3.51,8.55,6.9,14.74,6.05,12.08-1.64,11.47,4.78,28.7-.83s14.93-5.42,29.91.52,9.85-4.94,21.48-3c6.7,1.13,6.73-3.37,13.93-3.37l0-45.49C718.65,227.27,718.39,226.81,717.83,226.81Z"/><path class="cls-9" d="M1437.11,16.52c-.53-.23-1-1.86-2.4-.9-.68.46-.41.42-1.15.28s-1.53.72-1.91,1.22-1.52-.45-3.44-.32c-.65-1.86-3-2.75-4.93-3a2.82,2.82,0,0,0-3,1.53c-.4.57-.62.51-2.57.77s-3.75.38-4.49-.58-1.88-1-3.75.77c-2.48,1.66-5.49-.13-8-1a2.42,2.42,0,0,0-3.39,1.48c-.26.51-1.7.25-2.88,0s-2.36-1.54-3.79-2.24c-2.22-.9-4.93,2-5.62,2.75s-2.83.45-5.31.76a24.9,24.9,0,0,1-7.19-.25c-2.26-1.85-3.39-1.2-4.7-.45s-1.74.7-3.23.25-3.61-.18-4.53-.77a5.14,5.14,0,0,0-4.44,0c-1-.89-2.18-2.74-4.53-2.87s-2.48.32-5.53,3.13c-.09-1.15-1.7-1.66-2.3-1.91s-2.06,2.87-2.06,2.87c-2.35-1.35-3.83.77-4.3,1s-2.53-1.54-4.92-3.06a2.73,2.73,0,0,0-1.94-.5,2.75,2.75,0,0,0-.48-1c-.44-.51-2.22.25-2.82.9a2.4,2.4,0,0,1-2.27.44c-.74-.12-1.52.72-1.92,1.22s-1.52-.45-3.44-.32c-.65-1.86-3-2.75-4.92-3a2.85,2.85,0,0,0-3,1.53c-.4.57-.6.51-2.57.77s-3.74.38-4.49-.58-1.87-1-3.74.77c-2.48,1.66-5.48-.13-8-1a2.43,2.43,0,0,0-3.41,1.48c-.26.51-1.69.25-2.87,0s-2.35-1.54-3.78-2.24c-2.23-.9-4.92,2-5.62,2.75s-2.83.45-5.32.76a24.84,24.84,0,0,1-7.18-.25c-2.27-1.85-3.39-1.2-4.71-.45s-1.74.7-3.22.25-3.61-.18-4.53-.77a5.14,5.14,0,0,0-4.44,0c-1-.89-2.17-2.74-4.52-2.87s-2.49.32-5.54,3.13c-.09-1.15-1.7-1.66-2.3-1.91s-2,2.87-2,2.87c-2.36-1.35-3.83.77-4.31,1s-2.52-1.54-4.92-3.06a2.57,2.57,0,0,0-3.17,0,3.21,3.21,0,0,0-.59-1.52c-.44-.51-2.21.25-2.83.9a2.39,2.39,0,0,1-2.27.44c-.73-.12-1.52.72-1.91,1.22s-1.53-.45-3.44-.32c-.66-1.86-3-2.75-4.92-3a2.85,2.85,0,0,0-3,1.53c-.4.57-.61.51-2.56.77s-3.76.38-4.5-.58-1.87-1-3.74.77c-2.48,1.66-5.48-.13-8-1a2.43,2.43,0,0,0-3.39,1.48c-.26.51-1.7.25-2.86,0s-2.36-1.54-3.8-2.24c-2.22-.9-4.92,2-5.61,2.75s-2.83.45-5.31.76a24.89,24.89,0,0,1-7.19-.25c-2.27-1.85-3.4-1.2-4.7-.45s-1.75.7-3.23.25-3.62-.18-4.53-.77a5.13,5.13,0,0,0-4.44,0c-1-.89-2.19-2.74-4.53-2.87-2-.1-2.39.19-4.3,2a4.46,4.46,0,0,1-.5-.07,1.47,1.47,0,0,0-1.11.39,5.34,5.34,0,0,0-1.92-1.09c-.34-.14-.95.79-1.41,1.62a7.77,7.77,0,0,0-.92,0c-.65-1.86-3-2.75-4.92-3a2.86,2.86,0,0,0-3,1.53c-.27.4-.45.49-1.19.59a2.58,2.58,0,0,0-3.19.35c-1.19.05-2.17-.09-2.68-.75-.74-1-1.87-1-3.75.77-2.48,1.66-5.48-.13-8-1a2.42,2.42,0,0,0-3.39,1.48c-.25.51-1.69.25-2.87,0s-2.35-1.54-3.78-2.24c-2.22-.9-4.93,2-5.63,2.75s-2.82.45-5.3.76a24.91,24.91,0,0,1-7.19-.25c-2.26-1.85-3.39-1.2-4.7-.45s-1.75.7-3.22.25-3.61-.18-4.53-.77a5.13,5.13,0,0,0-4.44,0c-1-.89-2.18-2.74-4.53-2.87s-2.48.32-5.53,3.13c-.09-1.15-1.69-1.66-2.32-1.91s-2,2.87-2,2.87c-2.35-1.35-3.83.77-4.31,1s-2.52-1.54-4.92-3.06a2.57,2.57,0,0,0-3.17,0,3.28,3.28,0,0,0-.59-1.52c-.42-.51-2.22.25-2.83.9a2.39,2.39,0,0,1-2.27.44c-.74-.12-1.52.72-1.91,1.22s-1.53-.45-3.44-.32c-.65-1.86-3-2.75-4.92-3a2.84,2.84,0,0,0-3,1.53c-.39.57-.61.51-2.57.77s-3.75.38-4.49-.58-1.88-1-3.75.77c-2.47,1.66-5.48-.13-8-1a2.42,2.42,0,0,0-3.39,1.48c-.27.51-1.7.25-2.88,0s-2.35-1.54-3.78-2.24c-2.23-.9-4.92,2-5.62,2.75s-2.83.45-5.32.76a24.81,24.81,0,0,1-7.18-.25c-2.27-1.85-3.4-1.2-4.71-.45s-1.75.7-3.22.25-3.62-.18-4.53-.77a5.16,5.16,0,0,0-4.45,0c-1-.89-2.17-2.74-4.52-2.87-2-.1-2.37.19-4.24,1.93a3.21,3.21,0,0,1-1.44,0,1.12,1.12,0,0,0-.58.08,6.8,6.8,0,0,0-1.57-.77c-.36-.16-1,.88-1.48,1.75a5.44,5.44,0,0,0-1.72-.15c-.65-1.86-3-2.75-4.92-3a2.83,2.83,0,0,0-3,1.53,1.08,1.08,0,0,1-.56.47,2.56,2.56,0,0,0-2.87.4c-1.6.17-3,.14-3.63-.68s-1.87-1-3.74.77c-2.48,1.66-5.48-.13-8-1a2.42,2.42,0,0,0-3.39,1.48c-.26.51-1.7.25-2.88,0s-2.35-1.54-3.79-2.24c-2.22-.9-4.91,2-5.62,2.75s-2.83.45-5.31.76a25,25,0,0,1-7.19-.25c-2.26-1.85-3.38-1.2-4.7-.45s-1.74.7-3.21.25-3.62-.18-4.54-.77a5.13,5.13,0,0,0-4.44,0c-1-.89-2.16-2.74-4.51-2.87s-2.49.32-5.54,3.13c-.09-1.15-1.7-1.66-2.31-1.91s-2,2.87-2,2.87c-2.36-1.35-3.83.77-4.32,1s-2.52-1.54-4.92-3.06a2.58,2.58,0,0,0-3.17,0,3.36,3.36,0,0,0-.58-1.52c-.44-.51-2.23.25-2.85.9a2.38,2.38,0,0,1-2.26.44c-.73-.12-1.51.72-1.92,1.22s-1.52-.45-3.44-.32c-.65-1.86-3-2.75-4.93-3a2.82,2.82,0,0,0-3,1.53c-.4.57-.62.51-2.58.77s-3.75.38-4.49-.58-1.87-1-3.74.77c-2.48,1.66-5.49-.13-8-1a2.43,2.43,0,0,0-3.4,1.48c-.26.51-1.7.25-2.87,0s-2.35-1.54-3.78-2.24c-2.23-.9-4.93,2-5.61,2.75s-2.85.45-5.32.76a24.92,24.92,0,0,1-7.19-.25c-2.26-1.85-3.39-1.2-4.69-.45s-1.75.7-3.23.25-3.62-.18-4.53-.77a5.11,5.11,0,0,0-4.43,0c-1-.89-2.19-2.74-4.54-2.87s-2.47.32-5.52,3.13c-.09-1.15-1.71-1.66-2.32-1.91s-2.05,2.87-2.05,2.87c-2.35-1.35-3.82.77-4.31,1s-2.17-2.31-4.77-2.31c-2.44,0-4.06.06-4.06.06V234.92h721.67V16.86A5.77,5.77,0,0,1,1437.11,16.52Z"/><path class="cls-10" d="M1437.41,16.72c-.55-.14-1.31-1.84-2.15-1.43s-1,.75-1.71.61-1.53.72-1.91,1.22-1.52-.45-3.44-.32c-.65-1.86-3-2.75-4.93-3a2.82,2.82,0,0,0-3,1.53c-.4.57-.62.51-2.57.77s-3.75.38-4.49-.58-1.88-1-3.75.77c-2.48,1.66-5.49-.13-8-1a2.42,2.42,0,0,0-3.39,1.48c-.26.51-1.7.25-2.88,0s-2.36-1.54-3.79-2.24c-2.22-.9-4.93,2-5.62,2.75s-2.83.45-5.31.76a24.9,24.9,0,0,1-7.19-.25c-2.26-1.85-3.39-1.2-4.7-.45s-1.74.7-3.23.25-3.61-.18-4.53-.77a5.14,5.14,0,0,0-4.44,0c-1-.89-2.18-2.74-4.53-2.87s-2.48.32-5.53,3.13c-.09-1.15-1.7-1.66-2.3-1.91s-2.06,2.87-2.06,2.87c-2.35-1.35-3.83.77-4.3,1s-2.53-1.54-4.92-3.06a2.73,2.73,0,0,0-1.94-.5,2.75,2.75,0,0,0-.48-1c-.44-.51-2.22.25-2.82.9a2.4,2.4,0,0,1-2.27.44c-.74-.12-1.52.72-1.92,1.22s-1.52-.45-3.44-.32c-.65-1.86-3-2.75-4.92-3a2.85,2.85,0,0,0-3,1.53c-.4.57-.6.51-2.57.77s-3.74.38-4.49-.58-1.87-1-3.74.77c-2.48,1.66-5.48-.13-8-1a2.43,2.43,0,0,0-3.41,1.48c-.26.51-1.69.25-2.87,0s-2.35-1.54-3.78-2.24c-2.23-.9-4.92,2-5.62,2.75s-2.83.45-5.32.76a24.84,24.84,0,0,1-7.18-.25c-2.27-1.85-3.39-1.2-4.71-.45s-1.74.7-3.22.25-3.61-.18-4.53-.77a5.14,5.14,0,0,0-4.44,0c-1-.89-2.17-2.74-4.52-2.87s-2.49.32-5.54,3.13c-.09-1.15-1.7-1.66-2.3-1.91s-2,2.87-2,2.87c-2.36-1.35-3.83.77-4.31,1s-2.52-1.54-4.92-3.06a2.57,2.57,0,0,0-3.17,0,3.21,3.21,0,0,0-.59-1.52c-.44-.51-2.21.25-2.83.9a2.39,2.39,0,0,1-2.27.44c-.73-.12-1.52.72-1.91,1.22s-1.53-.45-3.44-.32c-.66-1.86-3-2.75-4.92-3a2.85,2.85,0,0,0-3,1.53c-.4.57-.61.51-2.56.77s-3.76.38-4.5-.58-1.87-1-3.74.77c-2.48,1.66-5.48-.13-8-1a2.43,2.43,0,0,0-3.39,1.48c-.26.51-1.7.25-2.86,0s-2.36-1.54-3.8-2.24c-2.22-.9-4.92,2-5.61,2.75s-2.83.45-5.31.76a24.89,24.89,0,0,1-7.19-.25c-2.27-1.85-3.4-1.2-4.7-.45s-1.75.7-3.23.25-3.62-.18-4.53-.77a5.13,5.13,0,0,0-4.44,0c-1-.89-2.19-2.74-4.53-2.87-2-.1-2.39.19-4.3,2a4.46,4.46,0,0,1-.5-.07,1.47,1.47,0,0,0-1.11.39,5.34,5.34,0,0,0-1.92-1.09c-.34-.14-.95.79-1.41,1.62a7.77,7.77,0,0,0-.92,0c-.65-1.86-3-2.75-4.92-3a2.86,2.86,0,0,0-3,1.53c-.27.4-.45.49-1.19.59a2.58,2.58,0,0,0-3.19.35c-1.19.05-2.17-.09-2.68-.75-.74-1-1.87-1-3.75.77-2.48,1.66-5.48-.13-8-1a2.42,2.42,0,0,0-3.39,1.48c-.25.51-1.69.25-2.87,0s-2.35-1.54-3.78-2.24c-2.22-.9-4.93,2-5.63,2.75s-2.82.45-5.3.76a24.91,24.91,0,0,1-7.19-.25c-2.26-1.85-3.39-1.2-4.7-.45s-1.75.7-3.22.25-3.61-.18-4.53-.77a5.13,5.13,0,0,0-4.44,0c-1-.89-2.18-2.74-4.53-2.87s-2.48.32-5.53,3.13c-.09-1.15-1.69-1.66-2.32-1.91s-2,2.87-2,2.87c-2.35-1.35-3.83.77-4.31,1s-2.52-1.54-4.92-3.06a2.57,2.57,0,0,0-3.17,0,3.28,3.28,0,0,0-.59-1.52c-.42-.51-2.22.25-2.83.9a2.39,2.39,0,0,1-2.27.44c-.74-.12-1.52.72-1.91,1.22s-1.53-.45-3.44-.32c-.65-1.86-3-2.75-4.92-3a2.84,2.84,0,0,0-3,1.53c-.39.57-.61.51-2.57.77s-3.75.38-4.49-.58-1.88-1-3.75.77c-2.47,1.66-5.48-.13-8-1a2.42,2.42,0,0,0-3.39,1.48c-.27.51-1.7.25-2.88,0s-2.35-1.54-3.78-2.24c-2.23-.9-4.92,2-5.62,2.75s-2.83.45-5.32.76a24.81,24.81,0,0,1-7.18-.25c-2.27-1.85-3.4-1.2-4.71-.45s-1.75.7-3.22.25-3.62-.18-4.53-.77a5.16,5.16,0,0,0-4.45,0c-1-.89-2.17-2.74-4.52-2.87-2-.1-2.37.19-4.24,1.93a3.21,3.21,0,0,1-1.44,0,1.12,1.12,0,0,0-.58.08,6.8,6.8,0,0,0-1.57-.77c-.36-.16-1,.88-1.48,1.75a5.44,5.44,0,0,0-1.72-.15c-.65-1.86-3-2.75-4.92-3a2.83,2.83,0,0,0-3,1.53,1.08,1.08,0,0,1-.56.47,2.56,2.56,0,0,0-2.87.4c-1.6.17-3,.14-3.63-.68s-1.87-1-3.74.77c-2.48,1.66-5.48-.13-8-1a2.42,2.42,0,0,0-3.39,1.48c-.26.51-1.7.25-2.88,0s-2.35-1.54-3.79-2.24c-2.22-.9-4.91,2-5.62,2.75s-2.83.45-5.31.76a25,25,0,0,1-7.19-.25c-2.26-1.85-3.38-1.2-4.7-.45s-1.74.7-3.21.25-3.62-.18-4.54-.77a5.13,5.13,0,0,0-4.44,0c-1-.89-2.16-2.74-4.51-2.87s-2.49.32-5.54,3.13c-.09-1.15-1.7-1.66-2.31-1.91s-2,2.87-2,2.87c-2.36-1.35-3.83.77-4.32,1s-2.52-1.54-4.92-3.06a2.58,2.58,0,0,0-3.17,0,3.36,3.36,0,0,0-.58-1.52c-.44-.51-2.23.25-2.85.9a2.38,2.38,0,0,1-2.26.44c-.73-.12-1.51.72-1.92,1.22s-1.52-.45-3.44-.32c-.65-1.86-3-2.75-4.93-3a2.82,2.82,0,0,0-3,1.53c-.4.57-.62.51-2.58.77s-3.75.38-4.49-.58-1.87-1-3.74.77c-2.48,1.66-5.49-.13-8-1a2.43,2.43,0,0,0-3.4,1.48c-.26.51-1.7.25-2.87,0s-2.35-1.54-3.78-2.24c-2.23-.9-4.93,2-5.61,2.75s-2.85.45-5.32.76a24.92,24.92,0,0,1-7.19-.25c-2.26-1.85-3.39-1.2-4.69-.45s-1.75.7-3.23.25-3.62-.18-4.53-.77a5.11,5.11,0,0,0-4.43,0c-1-.89-2.19-2.74-4.54-2.87s-2.47.32-5.52,3.13c-.09-1.15-1.71-1.66-2.32-1.91s-2.05,2.87-2.05,2.87c-2.35-1.35-3.82.77-4.31,1s-2.17-2.31-4.77-2.31c-2.44,0-4.06.06-4.06.06v155.3c1.76,0,2.82.17,3.56-.15,1.15-.49,1.35.82,3.51.82s4.39.3,4.92-.49,1.62-.29,3.3.39,3,.31,4.25,1.1,3.16.69,4.31,1.19,1.82-1.48,4.32-1.4,6.48.7,7.49-.09,1.29-1.4,3.51-1a37.46,37.46,0,0,0,8.84.89c4.11-.11,6.4-1.59,8.36-.89s4.12.78,7.22.69a21.45,21.45,0,0,0,6.61-1c1.2-.49,1.88,0,3,.4s1.89-.59,4,.1,3.24.4,4.92.4,2.91-1.19,4.66-.6,4.58,2.07,6.34,1.19,2.63-1.19,3.7-.88a6.61,6.61,0,0,0,3.91.09c1.34-.5,3.18-.8,4.19-.3a6.19,6.19,0,0,0,4.7-.07v1.27c1.13.69,2.83,1.59,3.55,1.27a6.3,6.3,0,0,1,3.51-.6c2.16,0,4.39.3,4.93-.49a2.64,2.64,0,0,1,3.3-1.29c1.69.69,3,.31,4.25,1.1s3.18.69,4.32,1.19,1.82-1.48,4.32-1.4,6.47.7,7.49-.09,1.28-1.4,3.5-1a37.55,37.55,0,0,0,8.84.89c4.12-.11,6.41-1.59,8.37-.89s4.11.78,7.22.69a21.47,21.47,0,0,0,6.61-1c1.21-.49,1.88,0,3,.4s1.88-.59,4,.1,3.24.4,4.93.4,2.9-1.19,4.65-.6l.56.2v1.1c1.14.69,2.83,1.59,3.56,1.27a6.27,6.27,0,0,1,3.51-.6c2.16,0,4.39.3,4.93-.49a4,4,0,0,1,.82-.92,4.21,4.21,0,0,0,.58-.17,9.38,9.38,0,0,1,1.29-.37,3.28,3.28,0,0,1,.6.17c1.7.69,3,.31,4.26,1.1s3.17.69,4.31,1.19,1.82-1.48,4.31-1.4,6.48.7,7.49-.09,1.29-1.4,3.51-1a37.57,37.57,0,0,0,8.84.89c4.12-.11,6.41-1.59,8.37-.89s4.11.78,7.22.69a21.31,21.31,0,0,0,6.61-1c1.22-.49,1.89,0,3,.4s1.88-.59,4,.1,3.25.4,4.93.4,2.91-1.19,4.65-.6,4.59,2.07,6.35,1.19,2.63-1.19,3.71-.88a6.59,6.59,0,0,0,3.91.09c1.36-.5,3.16-.8,4.18-.3a6.2,6.2,0,0,0,4.71-.07v1.27c1.13.69,2.83,1.59,3.57,1.27a6.25,6.25,0,0,1,3.51-.6c2.16,0,4.38.3,4.92-.49a2.65,2.65,0,0,1,3.3-1.29c1.68.69,3,.31,4.25,1.1s3.17.69,4.32,1.19,1.82-1.48,4.32-1.4,6.47.7,7.49-.09,1.28-1.4,3.51-1a37.44,37.44,0,0,0,8.82.89c4.12-.11,6.41-1.59,8.37-.89s4.11.78,7.22.69a21.52,21.52,0,0,0,6.61-1c1.2-.49,1.89,0,3,.4s1.9-.59,4.05.1,3.23.4,4.92.4,2.76-1.06,4.36-.69v1.39c1.12.69,2.83,1.59,3.56,1.27a6.29,6.29,0,0,1,3.51-.6c2.15,0,4.39.3,4.93-.49a4.19,4.19,0,0,1,.71-.83,4.42,4.42,0,0,0,1.56-.26c.27-.09.55-.18.84-.26l.19.06c1.69.69,3,.31,4.25,1.1s3.16.69,4.32,1.19,1.82-1.48,4.31-1.4,6.47.7,7.49-.09,1.28-1.4,3.5-1a37.5,37.5,0,0,0,8.83.89c4.11-.11,6.41-1.59,8.37-.89s4.11.78,7.22.69a21.3,21.3,0,0,0,6.61-1c1.22-.49,1.89,0,3,.4s1.9-.59,4.06.1,3.24.4,4.92.4,2.91-1.19,4.66-.6,4.59,2.07,6.35,1.19,2.63-1.19,3.7-.88a6.6,6.6,0,0,0,3.91.09c1.35-.5,3.17-.8,4.19-.3a6.2,6.2,0,0,0,4.71-.07v1.27c1.13.69,2.83,1.59,3.56,1.27a6.25,6.25,0,0,1,3.5-.6c2.16,0,4.39.3,4.93-.49a2.65,2.65,0,0,1,3.3-1.29c1.7.69,3,.31,4.25,1.1s3.17.69,4.31,1.19,1.82-1.48,4.31-1.4,6.48.7,7.5-.09,1.27-1.4,3.5-1a37.55,37.55,0,0,0,8.84.89c4.12-.11,6.41-1.59,8.37-.89s4.11.78,7.22.69a21.35,21.35,0,0,0,6.61-1c1.22-.49,1.9,0,3,.4s1.89-.59,4,.1,3.24.4,4.93.4,2.9-1.19,4.65-.6,4.59,2.07,6.34,1.19,2.63-1.19,3.72-.88a6.61,6.61,0,0,0,3.91.09c1.35-.5,3.16-.8,4.18-.3a5.91,5.91,0,0,0,3.36.33v.87c1.13.69,2.83,1.59,3.57,1.27a6.26,6.26,0,0,1,3.51-.6c2.16,0,4.39.3,4.92-.49a2.66,2.66,0,0,1,3.3-1.29c1.69.69,3,.31,4.26,1.1s3.18.69,4.32,1.19,1.82-1.48,4.31-1.4,6.48.7,7.49-.09,1.29-1.4,3.51-1a37.45,37.45,0,0,0,8.83.89c4.12-.11,6.4-1.59,8.36-.89s4.12.78,7.22.69a21.37,21.37,0,0,0,6.61-1c1.22-.49,1.89,0,3,.4s1.9-.59,4.05.1,3.24.4,4.93.4,2.9-1.19,4.65-.6,4.6,2.07,6.35,1.19,2.63-1.19,3.7-.88a6.6,6.6,0,0,0,3.91.09c1.36-.5,3.17-.8,4.19-.3s2.77-.47,5.53-.47V16.86A4.61,4.61,0,0,1,1437.41,16.72Z"/><path class="cls-11" d="M1436.54,16.58c-.44-.5-.73-1.12-1.28-.92-.73.27-1,.8-1.71.67s-1.53.7-1.91,1.22-1.52-.44-3.44-.32c-.65-1.84-3-2.74-4.93-3a2.82,2.82,0,0,0-3,1.54c-.4.57-.62.51-2.57.76s-3.75.38-4.49-.57-1.88-1-3.75.76c-2.48,1.66-5.49-.13-8-1a2.42,2.42,0,0,0-3.39,1.47c-.26.52-1.7.27-2.88,0s-2.36-1.53-3.79-2.24c-2.22-.89-4.93,2-5.62,2.76s-2.83.44-5.31.77a25.51,25.51,0,0,1-7.19-.26c-2.26-1.85-3.39-1.22-4.7-.45s-1.74.71-3.23.25-3.61-.19-4.53-.76a5,5,0,0,0-4.44,0c-1-.9-2.18-2.76-4.53-2.88s-2.48.32-5.53,3.13c-.09-1.15-1.7-1.66-2.3-1.92s-2.06,2.89-2.06,2.89c-2.35-1.34-3.83.75-4.3,1s-2.53-1.54-4.92-3.07a2.81,2.81,0,0,0-1.94-.49,2.73,2.73,0,0,0-.48-1c-.44-.5-2.22.26-2.82.9a2.45,2.45,0,0,1-2.27.44c-.74-.12-1.52.7-1.92,1.22s-1.52-.44-3.44-.32c-.65-1.84-3-2.74-4.92-3a2.84,2.84,0,0,0-3,1.54c-.4.57-.6.51-2.57.76s-3.74.38-4.49-.57-1.87-1-3.74.76c-2.48,1.66-5.48-.13-8-1a2.43,2.43,0,0,0-3.41,1.47c-.26.52-1.69.27-2.87,0s-2.35-1.53-3.78-2.24c-2.23-.89-4.92,2-5.62,2.76s-2.83.44-5.32.77a25.45,25.45,0,0,1-7.18-.26c-2.27-1.85-3.39-1.22-4.71-.45s-1.74.71-3.22.25-3.61-.19-4.53-.76a5,5,0,0,0-4.44,0c-1-.9-2.17-2.76-4.52-2.88s-2.49.32-5.54,3.13c-.09-1.15-1.7-1.66-2.3-1.92s-2,2.89-2,2.89c-2.36-1.34-3.83.75-4.31,1s-2.52-1.54-4.92-3.07a2.58,2.58,0,0,0-3.17,0,3.33,3.33,0,0,0-.59-1.52c-.44-.5-2.21.26-2.83.9a2.44,2.44,0,0,1-2.27.44c-.73-.12-1.52.7-1.91,1.22s-1.53-.44-3.44-.32c-.66-1.84-3-2.74-4.92-3a2.84,2.84,0,0,0-3,1.54c-.4.57-.61.51-2.56.76s-3.76.38-4.5-.57-1.87-1-3.74.76c-2.48,1.66-5.48-.13-8-1a2.42,2.42,0,0,0-3.39,1.47c-.26.52-1.7.27-2.86,0s-2.36-1.53-3.8-2.24c-2.22-.89-4.92,2-5.61,2.76s-2.83.44-5.31.77a25.5,25.5,0,0,1-7.19-.26c-2.27-1.85-3.4-1.22-4.7-.45s-1.75.71-3.23.25-3.62-.19-4.53-.76a5,5,0,0,0-4.44,0c-1-.9-2.19-2.76-4.53-2.88-2-.11-2.39.19-4.3,2a4.67,4.67,0,0,1-.5-.07,1.49,1.49,0,0,0-1.11.39,5.78,5.78,0,0,0-1.92-1.09c-.34-.14-.95.78-1.41,1.62a6.16,6.16,0,0,0-.92,0c-.65-1.84-3-2.74-4.92-3a2.85,2.85,0,0,0-3,1.54c-.27.39-.45.49-1.19.59a2.57,2.57,0,0,0-3.19.35c-1.19.05-2.17-.1-2.68-.75-.74-1-1.87-1-3.75.76-2.48,1.66-5.48-.13-8-1a2.42,2.42,0,0,0-3.39,1.47c-.25.52-1.69.27-2.87,0s-2.35-1.53-3.78-2.24c-2.22-.89-4.93,2-5.63,2.76s-2.82.44-5.3.77a25.52,25.52,0,0,1-7.19-.26c-2.26-1.85-3.39-1.22-4.7-.45s-1.75.71-3.22.25-3.61-.19-4.53-.76a5,5,0,0,0-4.44,0c-1-.9-2.18-2.76-4.53-2.88s-2.48.32-5.53,3.13c-.09-1.15-1.69-1.66-2.32-1.92s-2,2.89-2,2.89c-2.35-1.34-3.83.75-4.31,1s-2.52-1.54-4.92-3.07a2.58,2.58,0,0,0-3.17,0,3.41,3.41,0,0,0-.59-1.52c-.42-.5-2.22.26-2.83.9a2.44,2.44,0,0,1-2.27.44c-.74-.12-1.52.7-1.91,1.22s-1.53-.44-3.44-.32c-.65-1.84-3-2.74-4.92-3a2.83,2.83,0,0,0-3,1.54c-.39.57-.61.51-2.57.76s-3.75.38-4.49-.57-1.88-1-3.75.76c-2.47,1.66-5.48-.13-8-1a2.42,2.42,0,0,0-3.39,1.47c-.27.52-1.7.27-2.88,0s-2.35-1.53-3.78-2.24c-2.23-.89-4.92,2-5.62,2.76s-2.83.44-5.32.77a25.42,25.42,0,0,1-7.18-.26c-2.27-1.85-3.4-1.22-4.71-.45s-1.75.71-3.22.25-3.62-.19-4.53-.76a5,5,0,0,0-4.45,0c-1-.9-2.17-2.76-4.52-2.88-2-.11-2.37.19-4.24,1.93a3.63,3.63,0,0,1-1.44,0,1.1,1.1,0,0,0-.58.07,8.12,8.12,0,0,0-1.57-.77c-.36-.15-1,.88-1.48,1.76a6,6,0,0,0-1.72-.16c-.65-1.84-3-2.74-4.92-3a2.82,2.82,0,0,0-3,1.54,1,1,0,0,1-.56.46,2.54,2.54,0,0,0-2.87.41c-1.6.18-3,.14-3.63-.68-.74-1-1.87-1-3.74.76-2.48,1.66-5.48-.13-8-1a2.41,2.41,0,0,0-3.39,1.47c-.26.52-1.7.27-2.88,0s-2.35-1.53-3.79-2.24c-2.22-.89-4.91,2-5.62,2.76s-2.83.44-5.31.77a25.57,25.57,0,0,1-7.19-.26c-2.26-1.85-3.38-1.22-4.7-.45s-1.74.71-3.21.25-3.62-.19-4.54-.76a5,5,0,0,0-4.44,0c-1-.9-2.16-2.76-4.51-2.88s-2.49.32-5.54,3.13c-.09-1.15-1.7-1.66-2.31-1.92s-2,2.89-2,2.89c-2.36-1.34-3.83.75-4.32,1s-2.52-1.54-4.92-3.07a2.59,2.59,0,0,0-3.17,0,3.49,3.49,0,0,0-.58-1.52c-.44-.5-2.23.26-2.85.9a2.43,2.43,0,0,1-2.26.44c-.73-.12-1.51.7-1.92,1.22s-1.52-.44-3.44-.32c-.65-1.84-3-2.74-4.93-3a2.82,2.82,0,0,0-3,1.54c-.4.57-.62.51-2.58.76s-3.75.38-4.49-.57-1.87-1-3.74.76c-2.48,1.66-5.49-.13-8-1a2.42,2.42,0,0,0-3.4,1.47c-.26.52-1.7.27-2.87,0s-2.35-1.53-3.78-2.24c-2.23-.89-4.93,2-5.61,2.76s-2.85.44-5.32.77a25.53,25.53,0,0,1-7.19-.26c-2.26-1.85-3.39-1.22-4.69-.45s-1.75.71-3.23.25-3.62-.19-4.53-.76a5,5,0,0,0-4.43,0c-1-.9-2.19-2.76-4.54-2.88s-2.47.32-5.52,3.13c-.09-1.15-1.71-1.66-2.32-1.92s-2.05,2.89-2.05,2.89c-2.35-1.34-3.82.75-4.31,1s-2.3-2.13-4.92-2.13-3.92-.11-3.92-.11V124.38c1.94,0,2.39-.59,3.28-.24a4.8,4.8,0,0,0,3.25-.5,2.82,2.82,0,0,1,3-.57c1.57.67,2.36.77,3.1-.14s2.15-.11,3.27.46,2.94.39,3.67.71,2,2.4,4.33,2,2.2-.41,3.15.25,1.68.33,2.92.09,1.85-1.47,2.53-.75,1.75.75,4.28.66,7.08-1.48,8.38-1,2.19,1.64,2.53,1.15a3.73,3.73,0,0,1,3.2-1.32c1.91,0,4.78.17,5.62-.24a6.59,6.59,0,0,1,4.39.08c1.46.57,1.19,1,2.81.73a22,22,0,0,1,4.67-.08c2,.08,5-1.57,6.52-1.9a3.59,3.59,0,0,1,3.1.42c1.18.57,2.07,1.06,3,.66s1.24-.25,4.28.17a19.75,19.75,0,0,0,6.8-.08c.9-.34,1.35-1.41,3.21-.75s1.84.08,2.69-.26a6.34,6.34,0,0,1,3.72.08c1.12.42,2.69.26,4.27.83a10,10,0,0,0,3.72.05v2.35c.25-.33.5-.66.69-.89.59-.68.74-1.12,1.62-.76a3.29,3.29,0,0,0,1.84.09c.5,0,.89.9,1.51.54s1.24-2,2.82-1.3,2.48.65,3.2-.26,2-.4,3.09.18,1.57,1.23,2.64,1.23,1.46.58,2.19.9,2-.49,4.33-.9,2.18-.41,3.14.25,1.68.33,2.92.09,1.86-1.47,2.53-.75,1.74.75,4.27.66,7.08-1.48,8.38-1,2.19,1.64,2.53,1.15a3.74,3.74,0,0,1,3.2-1.32c1.92,0,4.78.17,5.62-.24a6.58,6.58,0,0,1,4.38.08c1.46.57,1.19,1,2.82.73a21.94,21.94,0,0,1,4.66-.08c2,.08,5-1.57,6.52-1.9a3.59,3.59,0,0,1,3.09.42c1.17.57,2.07,1.06,3,.66s1.24-.25,4.27.17c.72.09,1.44.16,2.12.19v2c.25-.33.51-.66.69-.89.58-.68.73-1.12,1.63-.76a3.27,3.27,0,0,0,1.83.09c.49,0,.89.9,1.5.54s1.25-2,2.82-1.3,2.47.65,3.2-.26,2-.4,3.1.18,1.57,1.23,2.64,1.23,1.46.58,2.19.9,2-.49,4.33-.9,2.19-.41,3.14.25,1.69.33,2.93.09,1.86-1.47,2.53-.75,1.74.75,4.28.66,7.08-1.48,8.38-1,2.19,1.64,2.53,1.15a3.74,3.74,0,0,1,3.21-1.32c1.9,0,4.78.17,5.61-.24a6.61,6.61,0,0,1,4.39.08c1.46.57,1.18,1,2.81.73a22,22,0,0,1,4.67-.08c2,.08,5-1.57,6.51-1.9a3.59,3.59,0,0,1,3.1.42c1.19.57,2.09,1.06,3,.66s1.23-.25,4.27.17a19.74,19.74,0,0,0,6.8-.08c.9-.34,1.35-1.41,3.21-.75s1.85.08,2.69-.26a6.31,6.31,0,0,1,3.71.08c1.13.42,2.7.26,4.27.83a10,10,0,0,0,3.72.05v2.35c.25-.33.5-.66.69-.89.58-.68.74-1.12,1.63-.76a3.27,3.27,0,0,0,1.83.09c.5,0,.89.9,1.51.54s1.24-2,2.81-1.3,2.47.65,3.21-.26,2-.4,3.09.18,1.58,1.23,2.65,1.23,1.46.58,2.19.9,2-.49,4.33-.9,2.2-.41,3.15.25,1.68.33,2.92.09,1.86-1.47,2.53-.75,1.74.75,4.27.66,7.09-1.48,8.39-1,2.19,1.64,2.52,1.15a3.76,3.76,0,0,1,3.21-1.32c1.91,0,4.78.17,5.62-.24a6.61,6.61,0,0,1,4.39.08c1.45.57,1.18,1,2.81.73a21.94,21.94,0,0,1,4.66-.08c2,.08,5-1.57,6.53-1.9a3.59,3.59,0,0,1,3.1.42c1.17.57,2.07,1.06,3,.66s1.23-.25,4.28.17c.41.05.83.11,1.24.13v2.11c.25-.33.5-.66.68-.89.59-.68.74-1.12,1.62-.76a3.34,3.34,0,0,0,1.85.09c.48,0,.89.9,1.5.54s1.24-2,2.82-1.3,2.47.65,3.2-.26,2-.4,3.09.18,1.57,1.23,2.65,1.23,1.46.58,2.19.9,2-.49,4.33-.9,2.19-.41,3.15.25,1.68.33,2.92.09,1.85-1.47,2.53-.75,1.74.75,4.27.66,7.08-1.48,8.37-1,2.2,1.64,2.55,1.15a3.7,3.7,0,0,1,3.19-1.32c1.91,0,4.78.17,5.62-.24a6.59,6.59,0,0,1,4.39.08c1.45.57,1.18,1,2.81.73a22,22,0,0,1,4.67-.08c2,.08,5-1.57,6.52-1.9a3.55,3.55,0,0,1,3.08.42c1.19.57,2.09,1.06,3,.66s1.23-.25,4.27.17a19.74,19.74,0,0,0,6.8-.08c.9-.34,1.35-1.41,3.2-.75s1.86.08,2.7-.26a6.35,6.35,0,0,1,3.72.08c1.12.42,2.69.26,4.26.83a10,10,0,0,0,3.72.05v2.35c.26-.33.5-.66.68-.89.59-.68.74-1.12,1.62-.76a3.32,3.32,0,0,0,1.85.09c.5,0,.89.9,1.5.54s1.24-2,2.82-1.3,2.47.65,3.21-.26,2-.4,3.09.18,1.57,1.23,2.65,1.23,1.45.58,2.19.9,2-.49,4.33-.9,2.19-.41,3.16.25,1.68.33,2.91.09,1.86-1.47,2.54-.75,1.74.75,4.27.66,7.09-1.48,8.38-1,2.19,1.64,2.52,1.15a3.75,3.75,0,0,1,3.21-1.32c1.92,0,4.78.17,5.62-.24a6.57,6.57,0,0,1,4.38.08c1.48.57,1.19,1,2.82.73a22,22,0,0,1,4.67-.08c2,.08,5-1.57,6.52-1.9a3.6,3.6,0,0,1,3.1.42c1.18.57,2.07,1.06,3,.66s1.23-.25,4.27.17c3.69.49,7.22-1.07,10.89-.73,1.41.13,2.77-.6,4.2-.49,1.73.14,3.44.59,5.18.76,1.14.11,2.68.3,2.89,2.37,1.9-.76,3.77-.57,5.65-1.21a6.34,6.34,0,0,1,3-.67,10.54,10.54,0,0,0,4-.47c1.66-.38,3,1.5,4.64,1.5,1.07,0,1.46.58,2.19.9s2-.49,4.33-.9,2.19-.41,3.15.25,1.69.33,2.93.09,1.85-1.47,2.52-.75,1.74.75,4.27.66,7.08-1.48,8.38-1,2.19,1.64,2.53,1.15a3.73,3.73,0,0,1,3.2-1.32c1.91,0,4.78.17,5.62-.24a6.59,6.59,0,0,1,4.39.08c1.47.57,1.17,1,2.8.73a22.1,22.1,0,0,1,4.68-.08c2,.08,5-1.57,6.52-1.9a3.59,3.59,0,0,1,3.09.42c1.18.57,2.08,1.06,3,.66s1.24-.25,4.29.17a19.72,19.72,0,0,0,6.8-.08c.89-.34,1.34-1.41,3.2-.75s1.85.08,2.7-.26a6.31,6.31,0,0,1,3.71.08c1.13.42,2.69.26,4.27.83,1,.38,3.14-.27,4.54-.47V17.3C1438.07,17.17,1437,17.11,1436.54,16.58Z"/><path class="cls-12" d="M1437.07,17.2c-.93,0-.6-.94-1.44-1.15s-1.51.57-2.26.43-1.53.7-1.92,1.22-1.52-.45-3.44-.32c-.65-1.85-3-2.75-4.91-3a2.82,2.82,0,0,0-3,1.54c-.4.56-.61.51-2.57.75s-3.74.39-4.48-.57-1.88-1-3.74.77c-2.49,1.66-5.49-.13-8-1a2.43,2.43,0,0,0-3.4,1.46c-.26.52-1.69.26-2.87,0s-2.35-1.53-3.79-2.23c-2.22-.9-4.92,2-5.62,2.75s-2.82.45-5.31.76a25.1,25.1,0,0,1-7.18-.25c-2.27-1.84-3.39-1.22-4.7-.45s-1.73.7-3.21.25-3.62-.18-4.54-.76a5,5,0,0,0-4.43,0c-1-.89-2.18-2.75-4.53-2.88s-2.48.32-5.53,3.13c-.09-1.14-1.7-1.65-2.31-1.91s-2,2.86-2,2.86c-2.35-1.34-3.83.76-4.31,1s-2.52-1.52-4.92-3.06a2.83,2.83,0,0,0-1.94-.5,2.83,2.83,0,0,0-.47-1c-.43-.52-2.22.25-2.83.9a2.42,2.42,0,0,1-2.26.43c-.75-.13-1.53.7-1.92,1.22s-1.52-.45-3.44-.32c-.65-1.85-3-2.75-4.92-3a2.83,2.83,0,0,0-3,1.54c-.39.56-.61.51-2.57.75s-3.74.39-4.48-.57-1.87-1-3.75.77c-2.47,1.66-5.48-.13-8-1a2.42,2.42,0,0,0-3.4,1.46c-.26.52-1.7.26-2.88,0s-2.34-1.53-3.78-2.23c-2.22-.9-4.92,2-5.62,2.75s-2.83.45-5.3.76a25.13,25.13,0,0,1-7.19-.25c-2.26-1.84-3.4-1.22-4.7-.45s-1.74.7-3.22.25-3.61-.18-4.52-.76a5.05,5.05,0,0,0-4.45,0c-1-.89-2.18-2.75-4.53-2.88s-2.48.32-5.54,3.13c-.09-1.14-1.69-1.65-2.3-1.91s-2,2.86-2,2.86c-2.35-1.34-3.83.76-4.31,1s-2.52-1.52-4.92-3.06a2.54,2.54,0,0,0-3.17.05,3.28,3.28,0,0,0-.59-1.53c-.44-.52-2.23.25-2.82.9a2.44,2.44,0,0,1-2.27.43c-.73-.13-1.53.7-1.91,1.22s-1.53-.45-3.44-.32c-.65-1.85-3-2.75-4.91-3a2.84,2.84,0,0,0-3,1.54c-.39.56-.61.51-2.57.75s-3.74.39-4.48-.57-1.88-1-3.74.77c-2.49,1.66-5.49-.13-8-1a2.43,2.43,0,0,0-3.4,1.46c-.26.52-1.69.26-2.86,0s-2.35-1.53-3.8-2.23c-2.22-.9-4.93,2-5.61,2.75s-2.83.45-5.31.76a25.17,25.17,0,0,1-7.19-.25c-2.26-1.84-3.39-1.22-4.7-.45s-1.75.7-3.23.25-3.61-.18-4.53-.76a5,5,0,0,0-4.43,0c-1-.89-2.19-2.75-4.54-2.88-2-.1-2.39.19-4.3,2l-.5-.08a1.49,1.49,0,0,0-1.11.39,5.13,5.13,0,0,0-1.92-1.08c-.35-.15-.95.77-1.41,1.61a4.5,4.5,0,0,0-.92,0c-.65-1.85-3-2.75-4.92-3a2.83,2.83,0,0,0-3,1.54c-.27.39-.46.48-1.18.59a2.58,2.58,0,0,0-3.19.34c-1.2.05-2.18-.1-2.68-.75-.75-1-1.88-1-3.75.77-2.48,1.66-5.49-.13-8-1a2.42,2.42,0,0,0-3.39,1.46c-.27.52-1.7.26-2.88,0s-2.35-1.53-3.79-2.23c-2.22-.9-4.92,2-5.62,2.75s-2.83.45-5.3.76a25.19,25.19,0,0,1-7.19-.25c-2.26-1.84-3.39-1.22-4.7-.45s-1.74.7-3.23.25-3.61-.18-4.53-.76a5,5,0,0,0-4.44,0c-1-.89-2.16-2.75-4.52-2.88s-2.49.32-5.53,3.13c-.09-1.14-1.7-1.65-2.31-1.91s-2,2.86-2,2.86c-2.35-1.34-3.83.76-4.31,1s-2.53-1.52-4.92-3.06a2.55,2.55,0,0,0-3.18.05,3.37,3.37,0,0,0-.59-1.53c-.44-.52-2.22.25-2.83.9a2.41,2.41,0,0,1-2.26.43c-.75-.13-1.53.7-1.92,1.22s-1.53-.45-3.44-.32c-.65-1.85-3-2.75-4.92-3a2.85,2.85,0,0,0-3.05,1.54c-.39.56-.61.51-2.56.75s-3.75.39-4.49-.57-1.87-1-3.74.77c-2.49,1.66-5.48-.13-8-1a2.43,2.43,0,0,0-3.4,1.46c-.26.52-1.7.26-2.87,0s-2.35-1.53-3.8-2.23c-2.22-.9-4.92,2-5.6,2.75s-2.83.45-5.32.76a25.1,25.1,0,0,1-7.18-.25c-2.26-1.84-3.4-1.22-4.7-.45s-1.75.7-3.22.25-3.61-.18-4.53-.76a5,5,0,0,0-4.44,0c-1-.89-2.18-2.75-4.53-2.88-2-.1-2.37.19-4.25,1.94a3.42,3.42,0,0,1-1.43,0,1,1,0,0,0-.58.09,6.28,6.28,0,0,0-1.57-.77c-.36-.17-1,.88-1.48,1.73a6.29,6.29,0,0,0-1.72-.15c-.65-1.85-3-2.75-4.92-3a2.82,2.82,0,0,0-3,1.54,1,1,0,0,1-.56.45,2.53,2.53,0,0,0-2.87.43c-1.61.16-3,.12-3.62-.69s-1.88-1-3.75.77c-2.49,1.66-5.48-.13-8-1a2.42,2.42,0,0,0-3.39,1.46c-.25.52-1.7.26-2.86,0s-2.36-1.53-3.79-2.23c-2.23-.9-4.93,2-5.62,2.75s-2.83.45-5.31.76a25.11,25.11,0,0,1-7.18-.25c-2.27-1.84-3.41-1.22-4.71-.45s-1.73.7-3.21.25-3.61-.18-4.53-.76a5,5,0,0,0-4.44,0c-1-.89-2.18-2.75-4.53-2.88s-2.47.32-5.53,3.13c-.08-1.14-1.69-1.65-2.3-1.91s-2,2.86-2,2.86c-2.36-1.34-3.84.76-4.31,1s-2.52-1.52-4.92-3.06a2.55,2.55,0,0,0-3.17.05,3.21,3.21,0,0,0-.58-1.53c-.44-.52-2.21.25-2.83.9a2.43,2.43,0,0,1-2.26.43c-.74-.13-1.52.7-1.92,1.22s-1.51-.45-3.43-.32c-.65-1.85-3-2.75-4.92-3a2.84,2.84,0,0,0-3,1.54c-.4.56-.62.51-2.57.75s-3.75.39-4.5-.57-1.86-1-3.73.77c-2.48,1.66-5.49-.13-8-1a2.43,2.43,0,0,0-3.4,1.46c-.27.52-1.7.26-2.87,0s-2.35-1.53-3.79-2.23c-2.23-.9-4.92,2-5.62,2.75s-2.83.45-5.32.76a25.14,25.14,0,0,1-7.18-.25c-2.26-1.84-3.39-1.22-4.69-.45s-1.74.7-3.22.25-3.62-.18-4.53-.76a5,5,0,0,0-4.44,0c-1-.89-2.18-2.75-4.53-2.88s-2.48.32-5.53,3.13c-.09-1.14-1.69-1.65-2.31-1.91s-2,2.86-2,2.86c-2.35-1.34-3.83.76-4.31,1s-2.17-1.87-4.77-1.87c-2.3,0-4.06-.15-4.06-.15V63.14c8.16,0,10.18,4.73,17.23,3.78,12.14-1.65,10.41,7.66,27.72,2s15-5.42,30.07.52c7.55,3,9.63-.83,16.65-3,4.64-1.44,10,.37,14.79-.61C826,65.47,827,63.69,829,64c1.74.25,4.56,3.86,6.52,4.7,10,4.28,26.41,3.64,36.7.31,17.32-5.6,15-5.42,30.07.52h0c5.15,2,7.94.74,13-.81,3.84-1.19,4.44-.78,8.6.4,11.35,3.19,24.36,3.56,35.67-.11,17.31-5.6,15-5.42,30.05.52,4.46,1.76,7.64,2,11.88.15,5.22-2.23,8.91-2.27,14.56-2.75,2.69-.24,6.72-3.79,8.92-3.52,3.18.39,6.81,5.46,10.39,6.25s7.37-.28,11.05,0c4.83.39,9.31,2,14.19,1.46,7.71-.9,15.07-5.79,22.79-6.16,5.46-.25,10.67,2.49,15.87,4.55,12,4.72,11.16-1.19,16.19-2.82a15.78,15.78,0,0,0,11.39,3.13c12.14-1.64,11.54,4.78,28.84-.83s15-5.42,30.07.52c4.48,1.76,7.57,1.91,11.87.15,5.79-2.35,10.5-1.67,16.48-2.94,5.82-1.26,5.9-2.79,11.53.33,12,6.63,27.34,6,39.69,1.95,17.32-5.6,15-5.42,30.06.52s9.88-4.94,21.58-3c6.13,1,10-.12,13-2.77,3.5,3.51,8.59,6.9,14.81,6.05,12.14-1.64,11.53,4.78,28.84-.83s15-5.42,30.06.52,9.9-4.94,21.59-3c6.73,1.13,6.76-3.37,14-3.37l0-45.49C1437.9,17.66,1437.63,17.2,1437.07,17.2Z"/><path class="cls-13" d="M715.33,230.73c.94,0,.61-.94,1.45-1.15s1.52.57,2.27.43,1.53.7,1.93,1.22,1.53-.45,3.46-.32c.65-1.85,3-2.75,4.94-3a2.84,2.84,0,0,1,3.07,1.54c.4.56.61.51,2.59.75s3.76.39,4.51-.57,1.89-1,3.76.77c2.51,1.66,5.52-.13,8-1a2.44,2.44,0,0,1,3.42,1.46c.26.52,1.7.26,2.89,0s2.36-1.53,3.81-2.23c2.23-.9,5,2,5.65,2.75s2.83.45,5.35.76a25.41,25.41,0,0,0,7.22-.25c2.28-1.84,3.41-1.22,4.73-.45s1.74.7,3.23.25,3.64-.18,4.57-.76a5.08,5.08,0,0,1,4.46,0c1-.89,2.19-2.75,4.55-2.88s2.5.32,5.56,3.13c.09-1.14,1.71-1.65,2.32-1.91s2.06,2.86,2.06,2.86c2.37-1.34,3.86.76,4.34,1s2.53-1.52,4.95-3.06a2.87,2.87,0,0,1,2-.5,2.82,2.82,0,0,1,.47-1c.43-.52,2.23.25,2.85.9A2.44,2.44,0,0,0,828,230c.75-.13,1.54.7,1.93,1.22s1.53-.45,3.46-.32c.65-1.85,3-2.75,4.95-3a2.85,2.85,0,0,1,3.06,1.54c.4.56.61.51,2.59.75s3.76.39,4.51-.57,1.88-1,3.77.77c2.49,1.66,5.51-.13,8-1a2.44,2.44,0,0,1,3.42,1.46c.26.52,1.71.26,2.89,0s2.36-1.53,3.81-2.23c2.23-.9,5,2,5.65,2.75s2.84.45,5.33.76a25.44,25.44,0,0,0,7.23-.25c2.27-1.84,3.42-1.22,4.73-.45s1.75.7,3.24.25,3.64-.18,4.55-.76a5.11,5.11,0,0,1,4.47,0c1-.89,2.2-2.75,4.55-2.88s2.5.32,5.57,3.13c.09-1.14,1.7-1.65,2.32-1.91s2.06,2.86,2.06,2.86c2.37-1.34,3.85.76,4.34,1s2.54-1.52,5-3.06a2.57,2.57,0,0,1,3.19.05,3.26,3.26,0,0,1,.59-1.53c.44-.52,2.24.25,2.84.9a2.47,2.47,0,0,0,2.28.43c.74-.13,1.54.7,1.93,1.22s1.53-.45,3.47-.32c.65-1.85,3-2.75,4.94-3a2.86,2.86,0,0,1,3.07,1.54c.4.56.61.51,2.59.75s3.77.39,4.51-.57,1.89-1,3.76.77c2.51,1.66,5.53-.13,8-1a2.45,2.45,0,0,1,3.42,1.46c.26.52,1.7.26,2.88,0s2.37-1.53,3.82-2.23c2.23-.9,5,2,5.65,2.75s2.85.45,5.34.76a25.48,25.48,0,0,0,7.23-.25c2.28-1.84,3.41-1.22,4.72-.45s1.76.7,3.25.25,3.63-.18,4.55-.76a5.08,5.08,0,0,1,4.46,0c1-.89,2.2-2.75,4.57-2.88,2-.1,2.4.19,4.33,2l.51-.08a1.51,1.51,0,0,1,1.11.39,5.17,5.17,0,0,1,1.93-1.08c.35-.15,1,.77,1.42,1.61a4.55,4.55,0,0,1,.93,0c.66-1.85,3-2.75,5-3a2.85,2.85,0,0,1,3.06,1.54c.27.39.46.48,1.19.59a2.61,2.61,0,0,1,3.21.34c1.21.05,2.19-.1,2.69-.75.75-1,1.89-1,3.77.77,2.49,1.66,5.52-.13,8-1a2.44,2.44,0,0,1,3.42,1.46c.27.52,1.71.26,2.89,0s2.36-1.53,3.81-2.23c2.23-.9,4.95,2,5.65,2.75s2.84.45,5.33.76a25.5,25.5,0,0,0,7.24-.25c2.27-1.84,3.42-1.22,4.73-.45s1.75.7,3.25.25,3.63-.18,4.55-.76a5.1,5.1,0,0,1,4.47,0c1-.89,2.18-2.75,4.55-2.88s2.5.32,5.56,3.13c.09-1.14,1.71-1.65,2.32-1.91s2.06,2.86,2.06,2.86c2.37-1.34,3.86.76,4.33,1s2.54-1.52,5-3.06a2.58,2.58,0,0,1,3.19.05,3.36,3.36,0,0,1,.59-1.53c.44-.52,2.24.25,2.85.9a2.44,2.44,0,0,0,2.27.43c.75-.13,1.54.7,1.93,1.22s1.53-.45,3.47-.32c.66-1.85,3-2.75,4.95-3a2.87,2.87,0,0,1,3.07,1.54c.39.56.61.51,2.58.75s3.77.39,4.52-.57,1.88-1,3.77.77c2.5,1.66,5.51-.13,8-1a2.45,2.45,0,0,1,3.42,1.46c.26.52,1.71.26,2.89,0s2.37-1.53,3.82-2.23c2.23-.9,4.95,2,5.64,2.75s2.85.45,5.35.76a25.41,25.41,0,0,0,7.22-.25c2.27-1.84,3.42-1.22,4.73-.45s1.76.7,3.24.25,3.64-.18,4.56-.76a5.09,5.09,0,0,1,4.46,0c1-.89,2.2-2.75,4.56-2.88,2-.1,2.39.19,4.28,1.94a3.46,3.46,0,0,0,1.44,0,1.06,1.06,0,0,1,.59.09,6.34,6.34,0,0,1,1.58-.77c.37-.17,1,.88,1.49,1.73a6.37,6.37,0,0,1,1.73-.15c.66-1.85,3-2.75,4.95-3a2.84,2.84,0,0,1,3.06,1.54,1.05,1.05,0,0,0,.56.45,2.55,2.55,0,0,1,2.89.43c1.62.16,3,.12,3.64-.69s1.89-1,3.77.77c2.5,1.66,5.52-.13,8-1a2.44,2.44,0,0,1,3.42,1.46c.26.52,1.71.26,2.88,0s2.37-1.53,3.82-2.23c2.24-.9,5,2,5.65,2.75s2.85.45,5.35.76a25.41,25.41,0,0,0,7.22-.25c2.28-1.84,3.43-1.22,4.74-.45s1.74.7,3.23.25,3.63-.18,4.56-.76a5.1,5.1,0,0,1,4.47,0c1-.89,2.19-2.75,4.55-2.88s2.49.32,5.57,3.13c.08-1.14,1.7-1.65,2.32-1.91s2.06,2.86,2.06,2.86c2.37-1.34,3.86.76,4.34,1s2.54-1.52,5-3.06a2.58,2.58,0,0,1,3.19.05,3.2,3.2,0,0,1,.59-1.53c.44-.52,2.23.25,2.85.9a2.45,2.45,0,0,0,2.28.43c.74-.13,1.53.7,1.93,1.22s1.52-.45,3.45-.32c.66-1.85,3-2.75,5-3a2.86,2.86,0,0,1,3.07,1.54c.4.56.62.51,2.58.75s3.77.39,4.52-.57,1.87-1,3.75.77c2.5,1.66,5.53-.13,8-1a2.44,2.44,0,0,1,3.42,1.46c.27.52,1.71.26,2.89,0s2.37-1.53,3.81-2.23c2.24-.9,5,2,5.65,2.75s2.84.45,5.35.76a25.45,25.45,0,0,0,7.23-.25c2.27-1.84,3.41-1.22,4.72-.45s1.76.7,3.24.25,3.65-.18,4.56-.76a5.1,5.1,0,0,1,4.47,0c1-.89,2.19-2.75,4.56-2.88s2.5.32,5.57,3.13c.09-1.14,1.7-1.65,2.33-1.91s2.05,2.86,2.05,2.86c2.36-1.34,3.85.76,4.34,1s2.18-1.87,4.8-1.87c2.32,0,4.09-.15,4.09-.15v45.49c-8.21,0-10.24,4.73-17.34,3.78-12.22-1.65-10.48,7.66-27.89,2s-15.09-5.42-30.26.52c-7.59,3-9.69-.83-16.75-3-4.67-1.44-10,.37-14.88-.61-1.92-.39-2.94-2.18-4.93-1.91-1.76.25-4.59,3.86-6.56,4.7-10.09,4.28-26.58,3.64-36.93.31-17.42-5.6-15.09-5.42-30.25.52h0c-5.19,2-8,.74-13.1-.81-3.86-1.19-4.46-.78-8.66.4-11.42,3.19-24.51,3.56-35.89-.11-17.41-5.6-15.08-5.42-30.24.52-4.49,1.76-7.68,2-12,.15-5.25-2.23-9-2.27-14.65-2.75-2.71-.24-6.77-3.79-9-3.52-3.2.39-6.85,5.46-10.45,6.25s-7.42-.28-11.12,0c-4.86.39-9.36,2-14.28,1.46-7.76-.9-15.16-5.79-22.93-6.16-5.49-.25-10.74,2.49-16,4.55-12,4.72-11.23-1.19-16.29-2.82a16,16,0,0,1-11.46,3.13c-12.21-1.64-11.61,4.78-29-.83s-15.08-5.42-30.25.52c-4.51,1.76-7.62,1.91-11.94.15-5.82-2.35-10.57-1.67-16.59-2.94-5.86-1.26-5.93-2.79-11.6.33-12,6.63-27.51,6-39.94,1.95-17.43-5.6-15.09-5.42-30.25.52s-9.95-4.94-21.71-3c-6.17,1-10.1-.12-13.08-2.77-3.52,3.51-8.64,6.9-14.9,6.05-12.21-1.64-11.6,4.78-29-.83s-15.09-5.42-30.24.52-10-4.94-21.72-3c-6.77,1.13-6.8-3.37-14.09-3.37l0-45.49C714.5,231.19,714.76,230.73,715.33,230.73Z"/></g></g></svg>