<?xml version="1.0" encoding="utf-8"?>
<!-- Generator: Adobe Illustrator 21.1.0, SVG Export Plug-In . SVG Version: 6.00 Build 0)  -->
<svg version="1.1" id="Layer_1" xmlns="http://www.w3.org/2000/svg" xmlns:xlink="http://www.w3.org/1999/xlink" x="0px" y="0px"
	 viewBox="0 0 720 477.7" style="enable-background:new 0 0 720 477.7;" xml:space="preserve">
<style type="text/css">
	.st0{fill:url(#SVGID_1_);}
	.st1{fill:url(#SVGID_2_);}
	.st2{fill:url(#SVGID_3_);}
	.st3{fill:url(#SVGID_4_);}
	.st4{fill:url(#SVGID_5_);}
	.st5{opacity:0.4;fill:url(#SVGID_6_);enable-background:new    ;}
	.st6{fill:url(#SVGID_7_);}
	.st7{fill:url(#SVGID_8_);}
	.st8{fill:url(#SVGID_9_);}
	.st9{opacity:0.4;fill:url(#SVGID_10_);enable-background:new    ;}
	.st10{fill:url(#SVGID_11_);}
	.st11{fill:url(#SVGID_12_);}
	.st12{fill:url(#SVGID_13_);}
	.st13{fill:#C53C02;}
	.st14{fill:#C95B35;}
	.st15{fill:none;}
	.st16{fill:#DAD9D4;}
	.st17{fill:#FFFEF7;}
	.st18{fill:#D5D8DA;}
	.st19{fill:#3E5161;}
	.st20{fill:#CAC9C5;}
	.st21{fill:#6E7B81;}
	.st22{fill:#5C686C;}
	.st23{fill:#F9F9F7;}
	.st24{fill:#F9F9F9;}
</style>
<title>Artboard 1</title>
<g id="Layer_1-2">
	
		<radialGradient id="SVGID_1_" cx="2359.9102" cy="-366.6177" r="9.09" gradientTransform="matrix(-0.9 0 0 1.47 2367.49 553.2609)" gradientUnits="userSpaceOnUse">
		<stop  offset="0.31" style="stop-color:#DCE58C"/>
		<stop  offset="0.62" style="stop-color:#BECB5F"/>
		<stop  offset="1" style="stop-color:#6B7E3C"/>
	</radialGradient>
	<ellipse class="st0" cx="249" cy="14.5" rx="4.2" ry="0.7"/>
	
		<radialGradient id="SVGID_2_" cx="1937.8199" cy="-447.5092" r="9.1" gradientTransform="matrix(1 0 0 1 0 504)" gradientUnits="userSpaceOnUse">
		<stop  offset="0.31" style="stop-color:#DCE58C"/>
		<stop  offset="0.62" style="stop-color:#BECB5F"/>
		<stop  offset="1" style="stop-color:#6B7E3C"/>
	</radialGradient>
	<path class="st1" d="M145.5,14c0,0.4,1.9,0.7,4.2,0.7s4.2-0.3,4.2-0.7s-1.9-0.7-4.2-0.7S145.5,13.7,145.5,14z"/>
	
		<linearGradient id="SVGID_3_" gradientUnits="userSpaceOnUse" x1="179.86" y1="-448.5492" x2="179.86" y2="-386.4592" gradientTransform="matrix(1 0 0 1 0 504)">
		<stop  offset="0.35" style="stop-color:#6C391C"/>
		<stop  offset="1" style="stop-color:#452A0F"/>
	</linearGradient>
	<path class="st2" d="M359,7c-0.3-0.1-0.5-0.9-1.2-0.5c-0.3,0.2-0.2,0.2-0.6,0.1s-0.8,0.4-1,0.6s-0.8-0.2-1.7-0.2
		c-0.5-0.9-1.4-1.5-2.5-1.5c-0.6-0.1-1.2,0.2-1.5,0.8c-0.2,0.3-0.3,0.3-1.3,0.4S347.4,7,347,6.5s-0.9-0.5-1.9,0.4
		c-1.2,0.8-2.7-0.1-4-0.5c-0.6-0.3-1.3-0.1-1.6,0.5c0,0.1-0.1,0.1-0.1,0.2c-0.1,0.3-0.9,0.1-1.4,0s-1.2-0.8-1.9-1.1
		c-1.1-0.4-2.5,1-2.8,1.4s-1.4,0.2-2.6,0.4c-1.2,0.1-2.4,0.1-3.6-0.1c-0.6-0.7-1.6-0.8-2.3-0.2c0,0,0,0,0,0l0,0
		c-0.5,0.4-1.1,0.4-1.6,0.1c-0.7-0.2-1.8-0.1-2.3-0.4c-0.7-0.3-1.5-0.3-2.2,0c-0.5-0.4-1.1-1.4-2.3-1.4s-1.2,0.2-2.8,1.6
		c0-0.6-0.9-0.8-1.1-1s-1,1.4-1,1.4c-1.2-0.7-1.9,0.4-2.1,0.5s-1.3-0.8-2.5-1.6c-0.3-0.2-0.6-0.3-1-0.2c0-0.2-0.1-0.3-0.2-0.5
		c-0.2-0.3-1.1,0.1-1.4,0.4c-0.3,0.3-0.7,0.3-1.1,0.2c-0.4-0.1-0.8,0.4-1,0.6s-0.8-0.2-1.7-0.2c-0.5-0.9-1.4-1.5-2.5-1.5
		c-0.6-0.1-1.2,0.2-1.5,0.8c-0.2,0.3-0.3,0.3-1.3,0.4s-1.9,0.2-2.2-0.3S291.9,6,291,6.9c-1.2,0.8-2.7-0.1-4-0.5
		c-0.6-0.3-1.3-0.1-1.6,0.5c0,0.1-0.1,0.1-0.1,0.2c-0.1,0.3-0.8,0.1-1.4,0S282.7,6.3,282,6c-1.1-0.4-2.5,1-2.8,1.4s-1.4,0.2-2.7,0.4
		c-1.2,0.1-2.4,0.1-3.6-0.1c-0.6-0.7-1.6-0.8-2.4-0.2c-0.5,0.4-1.1,0.4-1.6,0.1c-0.7-0.2-1.8-0.1-2.3-0.4c-0.7-0.3-1.5-0.3-2.2,0
		c-0.5-0.4-1.1-1.4-2.3-1.4s-1.2,0.2-2.8,1.6c0-0.6-0.9-0.8-1.1-1s-1,1.4-1,1.4c-1.2-0.7-1.9,0.4-2.2,0.5s-1.3-0.8-2.5-1.6
		c-0.5-0.4-1.1-0.4-1.6,0c0-0.3-0.1-0.5-0.3-0.8c-0.2-0.3-1.1,0.1-1.4,0.4c-0.3,0.3-0.7,0.3-1.1,0.2c-0.4-0.1-0.8,0.4-1,0.6
		s-0.8-0.2-1.7-0.2c-0.5-0.9-1.4-1.5-2.5-1.5c-0.6-0.1-1.2,0.2-1.5,0.8c-0.2,0.3-0.3,0.3-1.3,0.4s-1.9,0.2-2.2-0.3s-0.9-0.5-1.9,0.4
		c-1.2,0.8-2.7-0.1-4-0.5c-0.6-0.3-1.3-0.1-1.6,0.5c0,0.1-0.1,0.1-0.1,0.2c-0.1,0.3-0.9,0.1-1.4,0s-1.2-0.8-1.9-1.1
		c-1.1-0.4-2.5,1-2.8,1.4s-1.4,0.2-2.6,0.4c-1.2,0.1-2.4,0.1-3.6-0.1c-0.6-0.7-1.6-0.8-2.3-0.2c0,0,0,0,0,0l0,0
		c-0.5,0.4-1.1,0.4-1.6,0.1c-0.7-0.2-1.8-0.1-2.3-0.4c-0.7-0.3-1.5-0.3-2.2,0c-0.5-0.4-1.1-1.4-2.3-1.4c-1,0-1.2,0.1-2.1,1H205
		c-0.2,0-0.4,0.1-0.6,0.2c-0.3-0.3-0.6-0.4-1-0.6c-0.2-0.1-0.5,0.4-0.7,0.8h-0.5c-0.5-0.9-1.4-1.5-2.5-1.5c-0.6-0.1-1.2,0.2-1.5,0.8
		c-0.1,0.2-0.2,0.2-0.6,0.3c-0.5-0.3-1.2-0.2-1.6,0.2c-0.5,0.1-1,0-1.3-0.4c-0.4-0.5-0.9-0.5-1.9,0.4c-1.2,0.8-2.7-0.1-4-0.5
		c-0.6-0.3-1.3-0.1-1.6,0.5c0,0.1-0.1,0.1-0.1,0.2c-0.1,0.3-0.9,0.1-1.4,0s-1.2-0.8-1.9-1.1c-1.1-0.4-2.5,1-2.8,1.4
		s-1.4,0.2-2.6,0.4c-1.2,0.1-2.4,0.1-3.6-0.1c-0.6-0.7-1.6-0.8-2.3-0.2c0,0,0,0,0,0l0,0c-0.5,0.4-1.1,0.4-1.6,0.1
		c-0.7-0.2-1.8-0.1-2.3-0.4c-0.7-0.3-1.5-0.3-2.2,0c-0.5-0.4-1.1-1.4-2.3-1.4s-1.2,0.2-2.8,1.6c0-0.6-0.9-0.8-1.2-1s-1,1.4-1,1.4
		c-1.2-0.7-1.9,0.4-2.2,0.5s-1.3-0.8-2.5-1.6c-0.5-0.4-1.1-0.4-1.6,0c0-0.3-0.1-0.5-0.3-0.8c-0.2-0.3-1.1,0.1-1.4,0.4
		c-0.3,0.3-0.7,0.3-1.1,0.2c-0.4-0.1-0.8,0.4-1,0.6S148.4,7,147.5,7C147,6.1,146,5.5,145,5.5c-0.6-0.1-1.2,0.2-1.5,0.8
		c-0.2,0.3-0.3,0.3-1.3,0.4s-1.9,0.2-2.2-0.3s-0.9-0.5-1.9,0.4c-1.2,0.8-2.7-0.1-4-0.5c-0.6-0.3-1.3-0.1-1.6,0.5
		c0,0.1-0.1,0.1-0.1,0.2c-0.1,0.3-0.9,0.1-1.4,0s-1.2-0.8-1.9-1.1c-1.1-0.4-2.5,1-2.8,1.4s-1.4,0.2-2.7,0.4
		c-1.2,0.1-2.4,0.1-3.6-0.1c-0.6-0.7-1.6-0.8-2.3-0.2c-0.5,0.4-1.1,0.4-1.6,0.1c-0.7-0.2-1.8-0.1-2.3-0.4c-0.7-0.3-1.5-0.3-2.2,0
		c-0.5-0.4-1.1-1.4-2.3-1.4c-1,0-1.2,0.1-2.1,1c-0.2,0.1-0.5,0.1-0.7,0c-0.1,0-0.2,0-0.3,0c-0.2-0.2-0.5-0.3-0.8-0.4
		c-0.2-0.1-0.5,0.4-0.7,0.9C104.3,7,104.1,7,103.8,7c-0.5-0.9-1.4-1.5-2.5-1.5c-0.6-0.1-1.2,0.2-1.5,0.8c-0.1,0.1-0.2,0.2-0.3,0.2
		c-0.5-0.2-1-0.2-1.4,0.2c-0.8,0.1-1.5,0.1-1.8-0.3s-0.9-0.5-1.9,0.4c-1.2,0.8-2.7-0.1-4-0.5c-0.6-0.3-1.3-0.1-1.6,0.5
		c0,0.1-0.1,0.1-0.1,0.2c-0.1,0.3-0.8,0.1-1.4,0S86,6.2,85.3,5.9c-1.1-0.4-2.4,1-2.8,1.4s-1.4,0.2-2.7,0.4c-1.2,0.1-2.4,0.1-3.6-0.1
		c-0.6-0.7-1.6-0.8-2.3-0.2c0,0,0,0,0,0l0,0c-0.5,0.4-1.1,0.4-1.6,0.1c-0.7-0.2-1.8-0.1-2.3-0.4c-0.7-0.3-1.5-0.3-2.2,0
		c-0.5-0.4-1.1-1.4-2.3-1.4s-1.2,0.2-2.8,1.6c0-0.6-0.8-0.8-1.2-1s-1,1.4-1,1.4C59.5,7,58.7,8,58.5,8.2S57.2,7.4,56,6.6
		c-0.5-0.4-1.1-0.4-1.6,0c0-0.3-0.1-0.5-0.3-0.8C53.9,5.6,53,6,52.7,6.3c-0.3,0.3-0.7,0.3-1.1,0.2c-0.4-0.1-0.8,0.4-1,0.6
		S49.8,6.9,48.9,7c-0.5-0.9-1.4-1.5-2.5-1.5c-0.6-0.1-1.2,0.2-1.5,0.8c-0.2,0.3-0.3,0.3-1.3,0.4s-1.9,0.2-2.2-0.3s-0.9-0.5-1.9,0.4
		c-1.2,0.8-2.7-0.1-4-0.5c-0.6-0.3-1.3-0.1-1.6,0.5c0,0.1-0.1,0.1-0.1,0.2c-0.1,0.3-0.8,0.1-1.4,0s-1.2-0.8-1.9-1.1
		c-1.1-0.4-2.5,1-2.8,1.4S26.3,7.5,25,7.6c-1.2,0.1-2.4,0.1-3.6-0.1c-0.6-0.7-1.6-0.8-2.3-0.2c0,0,0,0,0,0l0,0
		c-0.5,0.4-1.1,0.4-1.6,0.1c-0.7-0.2-1.8-0.1-2.3-0.4c-0.7-0.3-1.5-0.3-2.2,0c-0.5-0.4-1.1-1.4-2.3-1.4S9.5,5.7,8,7.1
		c0-0.6-0.8-0.8-1.2-1s-1,1.4-1,1.4C5,7.1,4.2,8.2,4,8.3S2.9,7.1,1.6,7.1h-2v110.3h360.5V7.2C359.7,7.2,359.3,7.1,359,7z"/>
	
		<linearGradient id="SVGID_4_" gradientUnits="userSpaceOnUse" x1="179.9251" y1="-450.9492" x2="179.9251" y2="-413.1491" gradientTransform="matrix(1 0 0 1 0 504)">
		<stop  offset="0.12" style="stop-color:#7B4626"/>
		<stop  offset="0.53" style="stop-color:#6C391E"/>
		<stop  offset="0.88" style="stop-color:#6E3B1C"/>
	</linearGradient>
	<path class="st3" d="M359.1,7.1c-0.3-0.1-0.6-0.9-1.1-0.7s-0.5,0.4-0.9,0.3s-0.8,0.4-1,0.6s-0.8-0.2-1.7-0.2
		c-0.5-0.9-1.4-1.5-2.5-1.5c-0.6-0.1-1.2,0.2-1.5,0.8c-0.2,0.3-0.3,0.3-1.3,0.4S347.4,7,347,6.5s-0.9-0.5-1.9,0.4
		c-1.2,0.8-2.7-0.1-4-0.5c-0.6-0.3-1.3-0.1-1.6,0.5c0,0.1-0.1,0.1-0.1,0.2c-0.1,0.3-0.9,0.1-1.4,0s-1.2-0.8-1.9-1.1
		c-1.1-0.4-2.5,1-2.8,1.4s-1.4,0.2-2.6,0.4c-1.2,0.1-2.4,0.1-3.6-0.1c-0.6-0.7-1.6-0.8-2.3-0.2c0,0,0,0,0,0l0,0
		c-0.5,0.4-1.1,0.4-1.6,0.1c-0.7-0.2-1.8-0.1-2.3-0.4c-0.7-0.3-1.5-0.3-2.2,0c-0.5-0.4-1.1-1.4-2.3-1.4s-1.2,0.2-2.8,1.6
		c0-0.6-0.9-0.8-1.1-1s-1,1.4-1,1.4c-1.2-0.7-1.9,0.4-2.1,0.5s-1.3-0.8-2.5-1.6c-0.3-0.2-0.6-0.3-1-0.2c0-0.2-0.1-0.3-0.2-0.5
		c-0.2-0.3-1.1,0.1-1.4,0.4c-0.3,0.3-0.7,0.3-1.1,0.2c-0.4-0.1-0.8,0.4-1,0.6s-0.8-0.2-1.7-0.2c-0.5-0.9-1.4-1.5-2.5-1.5
		c-0.6-0.1-1.2,0.2-1.5,0.8c-0.2,0.3-0.3,0.3-1.3,0.4s-1.9,0.2-2.2-0.3S291.9,6,291,6.9c-1.2,0.8-2.7-0.1-4-0.5
		c-0.6-0.3-1.3-0.1-1.6,0.5c0,0.1-0.1,0.1-0.1,0.2c-0.1,0.3-0.8,0.1-1.4,0s-1.2-0.8-1.9-1.1c-1.1-0.4-2.5,1-2.8,1.4
		s-1.4,0.2-2.7,0.4c-1.2,0.1-2.4,0.1-3.6-0.1c-0.6-0.7-1.6-0.8-2.4-0.2c-0.5,0.4-1.1,0.4-1.6,0.1c-0.7-0.2-1.8-0.1-2.3-0.4
		c-0.7-0.3-1.5-0.3-2.2,0c-0.5-0.4-1.1-1.4-2.3-1.4s-1.2,0.2-2.8,1.6c0-0.6-0.9-0.8-1.1-1s-1,1.4-1,1.4c-1.2-0.7-1.9,0.4-2.2,0.5
		s-1.3-0.8-2.5-1.6c-0.5-0.4-1.1-0.4-1.6,0c0-0.3-0.1-0.5-0.3-0.8c-0.2-0.3-1.1,0.1-1.4,0.4c-0.3,0.3-0.7,0.3-1.1,0.2
		c-0.4-0.1-0.8,0.4-1,0.6s-0.8-0.2-1.7-0.2c-0.5-0.9-1.4-1.5-2.5-1.5c-0.6-0.1-1.2,0.2-1.5,0.8c-0.2,0.3-0.3,0.3-1.3,0.4
		s-1.9,0.2-2.2-0.3s-0.9-0.5-1.9,0.4c-1.2,0.8-2.7-0.1-4-0.5c-0.6-0.3-1.3-0.1-1.6,0.5c0,0.1-0.1,0.1-0.1,0.2
		c-0.1,0.3-0.9,0.1-1.4,0s-1.2-0.8-1.9-1.1c-1.1-0.4-2.5,1-2.8,1.4s-1.4,0.2-2.6,0.4c-1.2,0.1-2.4,0.1-3.6-0.1
		c-0.6-0.7-1.6-0.8-2.3-0.2c0,0,0,0,0,0l0,0c-0.5,0.4-1.1,0.4-1.6,0.1c-0.7-0.2-1.8-0.1-2.3-0.4c-0.7-0.3-1.5-0.3-2.2,0
		c-0.5-0.4-1.1-1.4-2.3-1.4c-1,0-1.2,0.1-2.1,1H205c-0.2,0-0.4,0.1-0.6,0.2c-0.3-0.3-0.6-0.4-1-0.6c-0.2-0.1-0.5,0.4-0.7,0.8h-0.5
		c-0.5-0.9-1.4-1.5-2.5-1.5c-0.6-0.1-1.2,0.2-1.5,0.8c-0.1,0.2-0.2,0.2-0.6,0.3c-0.5-0.3-1.2-0.2-1.6,0.2c-0.5,0.1-1,0-1.3-0.4
		c-0.4-0.5-0.9-0.5-1.9,0.4c-1.2,0.8-2.7-0.1-4-0.5c-0.6-0.3-1.3-0.1-1.6,0.5c0,0.1-0.1,0.1-0.1,0.2c-0.1,0.3-0.9,0.1-1.4,0
		s-1.2-0.8-1.9-1.1c-1.1-0.4-2.5,1-2.8,1.4s-1.4,0.2-2.6,0.4c-1.2,0.1-2.4,0.1-3.6-0.1c-0.6-0.7-1.6-0.8-2.3-0.2c0,0,0,0,0,0l0,0
		c-0.5,0.4-1.1,0.4-1.6,0.1c-0.7-0.2-1.8-0.1-2.3-0.4c-0.7-0.3-1.5-0.3-2.2,0c-0.5-0.4-1.1-1.4-2.3-1.4s-1.2,0.2-2.8,1.6
		c0-0.6-0.9-0.8-1.2-1s-1,1.4-1,1.4C158,7,157.3,8.1,157,8.2s-1.3-0.8-2.5-1.6c-0.5-0.4-1.1-0.4-1.6,0c0-0.3-0.1-0.5-0.3-0.8
		c-0.2-0.3-1.1,0.1-1.4,0.4c-0.3,0.3-0.7,0.3-1.1,0.2c-0.4-0.1-0.8,0.4-1,0.6S148.4,7,147.4,7c-0.5-0.9-1.4-1.5-2.5-1.5
		c-0.6-0.1-1.2,0.2-1.5,0.8c-0.2,0.3-0.3,0.3-1.3,0.4s-1.9,0.2-2.2-0.3S139,5.9,138,6.8c-1.2,0.8-2.7-0.1-4-0.5
		c-0.6-0.3-1.3-0.1-1.6,0.5c0,0.1-0.1,0.1-0.1,0.2c-0.1,0.3-0.9,0.1-1.4,0s-1.2-0.8-1.9-1.1c-1.1-0.4-2.5,1-2.8,1.4
		s-1.4,0.2-2.7,0.4c-1.2,0.1-2.4,0.1-3.6-0.1c-0.6-0.7-1.6-0.8-2.3-0.2c-0.5,0.4-1.1,0.4-1.6,0.1c-0.7-0.2-1.8-0.1-2.3-0.4
		c-0.7-0.3-1.5-0.3-2.2,0c-0.5-0.4-1.1-1.4-2.3-1.4c-1,0-1.2,0.1-2.1,1c-0.2,0.1-0.5,0.1-0.7,0c-0.1,0-0.2,0-0.3,0
		c-0.2-0.2-0.5-0.3-0.8-0.4c-0.2-0.1-0.5,0.4-0.7,0.9C104.3,7,104,7,103.7,7c-0.5-0.9-1.4-1.5-2.5-1.5c-0.6-0.1-1.2,0.2-1.5,0.8
		c-0.1,0.1-0.2,0.2-0.3,0.2c-0.5-0.2-1-0.2-1.4,0.2c-0.8,0.1-1.5,0.1-1.8-0.3s-0.9-0.5-1.9,0.4c-1.2,0.8-2.7-0.1-4-0.5
		C89.8,6,89,6.2,88.7,6.8c0,0.1-0.1,0.1-0.1,0.2c-0.1,0.3-0.8,0.1-1.4,0s-1.2-0.8-1.9-1.1c-1.1-0.4-2.4,1-2.8,1.4s-1.4,0.2-2.7,0.4
		c-1.2,0.1-2.4,0.1-3.6-0.1c-0.6-0.7-1.6-0.8-2.3-0.2c0,0,0,0,0,0l0,0c-0.5,0.4-1.1,0.4-1.6,0.1c-0.7-0.2-1.8-0.1-2.3-0.4
		c-0.7-0.3-1.5-0.3-2.2,0c-0.5-0.4-1.1-1.4-2.3-1.4s-1.2,0.2-2.8,1.6c0-0.6-0.8-0.8-1.2-1s-1,1.4-1,1.4c-1.2-0.7-1.9,0.4-2.2,0.5
		S57.2,7.4,56,6.6c-0.5-0.4-1.1-0.4-1.6,0c0-0.3-0.1-0.5-0.3-0.8c-0.2-0.3-1.1,0.1-1.4,0.4c-0.3,0.3-0.7,0.3-1.1,0.2
		c-0.4-0.1-0.8,0.4-1,0.6S49.9,6.9,48.9,7c-0.5-0.9-1.4-1.5-2.5-1.5c-0.6-0.1-1.2,0.2-1.5,0.8c-0.2,0.3-0.3,0.3-1.3,0.4
		s-1.9,0.2-2.2-0.3s-0.9-0.5-1.9,0.4c-1.2,0.8-2.7-0.1-4-0.5c-0.6-0.3-1.3-0.1-1.6,0.5c0,0.1-0.1,0.1-0.1,0.2
		c-0.1,0.3-0.8,0.1-1.4,0s-1.2-0.8-1.9-1.1c-1.1-0.4-2.5,1-2.8,1.4S26.3,7.4,25,7.6c-1.2,0.1-2.4,0.1-3.6-0.1
		c-0.6-0.7-1.6-0.8-2.3-0.2c0,0,0,0,0,0l0,0c-0.5,0.4-1.1,0.4-1.6,0.1c-0.7-0.2-1.8-0.1-2.3-0.4c-0.7-0.3-1.5-0.3-2.2,0
		c-0.5-0.4-1.1-1.4-2.3-1.4S9.5,5.7,8,7.1c0-0.6-0.8-0.8-1.2-1s-1,1.4-1,1.4C5,7.1,4.3,8.2,4,8.3S3,7.1,1.7,7.1h-2v78.5
		c0.6,0.1,1.2,0,1.8-0.1c0.6-0.2,0.7,0.4,1.8,0.4s2.2,0.1,2.5-0.2s0.8-0.1,1.7,0.2s1.5,0.2,2.1,0.5c0.7,0.3,1.4,0.5,2.2,0.6
		c0.6,0.2,0.9-0.8,2.2-0.7s3.2,0.4,3.7,0c0.4-0.5,1.1-0.7,1.8-0.5c1.4,0.3,2.9,0.5,4.4,0.5c2,0,3.2-0.8,4.2-0.5
		c1.2,0.3,2.4,0.5,3.6,0.4c1.1,0,2.2-0.2,3.3-0.5c0.6-0.2,0.9,0,1.5,0.2s0.9-0.3,2,0c0.8,0.2,1.6,0.3,2.5,0.2c0.8,0,1.5-0.6,2.3-0.3
		s2.3,1,3.2,0.6s1.3-0.6,1.8-0.4c0.7,0.2,1.3,0.2,2,0c0.6-0.2,1.3-0.3,2-0.1c0.8,0.3,1.6,0.3,2.3,0v0.6c0.6,0.4,1.4,0.8,1.8,0.6
		c0.5-0.3,1.1-0.4,1.8-0.3c1.1,0,2.2,0.1,2.5-0.2c0.3-0.6,1-0.9,1.7-0.6c0.8,0.4,1.5,0.2,2.1,0.5c0.7,0.3,1.4,0.5,2.2,0.6
		c0.6,0.2,0.9-0.8,2.2-0.7s3.2,0.4,3.7,0c0.4-0.5,1.1-0.7,1.8-0.5c1.4,0.3,2.9,0.5,4.4,0.5c2.1,0,3.2-0.8,4.2-0.5
		c1.2,0.3,2.4,0.5,3.6,0.4c1.1,0,2.2-0.2,3.3-0.5c0.6-0.2,0.9,0,1.5,0.2s0.9-0.3,2,0c0.8,0.2,1.6,0.3,2.5,0.2c0.8,0,1.4-0.6,2.3-0.3
		l0.3,0.1v0.5c0.6,0.4,1.4,0.8,1.8,0.6c0.5-0.3,1.1-0.4,1.8-0.3c1.1,0,2.2,0.1,2.5-0.2c0.1-0.2,0.2-0.3,0.4-0.5l0.3-0.1
		c0.2-0.1,0.4-0.1,0.7-0.2c0.1,0,0.2,0,0.3,0.1c0.8,0.4,1.5,0.2,2.1,0.5c0.7,0.3,1.4,0.5,2.2,0.6c0.6,0.2,0.9-0.8,2.2-0.7
		s3.2,0.4,3.7,0c0.4-0.5,1.1-0.7,1.8-0.5c1.4,0.3,2.9,0.5,4.4,0.5c2.1,0,3.2-0.8,4.2-0.5c1.2,0.3,2.4,0.5,3.6,0.4
		c1.1,0,2.2-0.2,3.3-0.5c0.6-0.2,0.9,0,1.5,0.2s0.9-0.3,2,0c0.8,0.2,1.6,0.3,2.5,0.2c0.9,0,1.4-0.6,2.3-0.3s2.3,1,3.2,0.6
		s1.3-0.6,1.9-0.4c0.7,0.2,1.3,0.2,2,0c0.7-0.3,1.4-0.4,2.1-0.1c0.8,0.3,1.6,0.3,2.4,0v0.6c0.6,0.4,1.4,0.8,1.8,0.6
		c0.5-0.3,1.1-0.4,1.8-0.3c1.1,0,2.2,0.1,2.5-0.2c0.3-0.6,1-0.9,1.6-0.6c0.8,0.4,1.5,0.2,2.1,0.5c0.7,0.3,1.4,0.5,2.2,0.6
		c0.6,0.2,0.9-0.8,2.2-0.7s3.2,0.4,3.7,0c0.4-0.5,1.1-0.7,1.8-0.5c1.4,0.3,2.9,0.5,4.4,0.5c2.1,0,3.2-0.8,4.2-0.5
		c1.2,0.3,2.4,0.5,3.6,0.4c1.1,0,2.2-0.2,3.3-0.5c0.6-0.2,0.9,0,1.5,0.2s0.9-0.3,2,0c0.8,0.2,1.6,0.3,2.5,0.2c0.8,0,1.4-0.5,2.2-0.4
		v0.7c0.6,0.4,1.4,0.8,1.8,0.6c0.5-0.3,1.1-0.4,1.8-0.3c1.1,0,2.2,0.1,2.5-0.2c0.1-0.2,0.2-0.3,0.4-0.4c0.3,0,0.5,0,0.8-0.1l0.4-0.1
		h0.1c0.8,0.4,1.5,0.2,2.1,0.5c0.7,0.3,1.4,0.5,2.2,0.6c0.6,0.2,0.9-0.8,2.2-0.7s3.2,0.4,3.7,0c0.4-0.5,1.1-0.7,1.8-0.5
		c1.4,0.3,2.9,0.5,4.4,0.5c2.1,0,3.2-0.8,4.2-0.5c1.2,0.3,2.4,0.5,3.6,0.4c1.1,0,2.2-0.2,3.3-0.5c0.6-0.2,0.9,0,1.5,0.2s0.9-0.3,2,0
		c0.8,0.2,1.6,0.3,2.5,0.2c0.8,0,1.4-0.6,2.3-0.3s2.3,1,3.2,0.6s1.3-0.6,1.9-0.4c0.7,0.2,1.3,0.2,2,0c0.7-0.3,1.4-0.4,2.1-0.1
		c0.8,0.3,1.6,0.3,2.4,0v0.6c0.6,0.4,1.4,0.8,1.8,0.6c0.5-0.3,1.1-0.4,1.8-0.3c1.1,0,2.2,0.1,2.5-0.2c0.3-0.6,1-0.9,1.6-0.6
		c0.9,0.4,1.5,0.2,2.1,0.5c0.7,0.3,1.4,0.5,2.2,0.6c0.6,0.2,0.9-0.8,2.2-0.7s3.2,0.4,3.8,0c0.4-0.5,1.1-0.7,1.8-0.5
		c1.4,0.3,2.9,0.5,4.4,0.5c2.1,0,3.2-0.8,4.2-0.5c1.2,0.3,2.4,0.5,3.6,0.4c1.1,0,2.2-0.2,3.3-0.5c0.6-0.2,1,0,1.5,0.2s1-0.3,2,0
		c0.8,0.2,1.6,0.3,2.5,0.2c0.8,0,1.5-0.6,2.3-0.3s2.3,1,3.2,0.6s1.3-0.6,1.9-0.4c0.7,0.2,1.3,0.2,2,0c0.7-0.3,1.4-0.4,2.1-0.1
		c0.5,0.2,1.1,0.3,1.7,0.2v0.4c0.6,0.4,1.4,0.8,1.8,0.6c0.5-0.3,1.1-0.4,1.8-0.3c1.1,0,2.2,0.1,2.5-0.2c0.3-0.6,1-0.9,1.6-0.6
		c0.8,0.4,1.5,0.2,2.1,0.5c0.7,0.3,1.4,0.5,2.2,0.6c0.6,0.2,0.9-0.8,2.2-0.7s3.2,0.4,3.7,0c0.4-0.5,1.1-0.7,1.8-0.5
		c1.4,0.3,2.9,0.5,4.4,0.5c2.1,0,3.2-0.8,4.2-0.5c1.2,0.3,2.4,0.5,3.6,0.4c1.1,0,2.2-0.2,3.3-0.5c0.6-0.2,1,0,1.5,0.2s1-0.3,2,0
		c0.8,0.2,1.6,0.3,2.5,0.2c0.8,0,1.5-0.6,2.3-0.3s2.3,1,3.2,0.6s1.3-0.6,1.9-0.4c0.7,0.2,1.3,0.2,2,0c0.7-0.3,1.4-0.3,2.1-0.1
		c0.4,0.2,1.4-0.2,2.8-0.2V7.2C359.8,7.3,359.5,7.2,359.1,7.1z"/>
	
		<linearGradient id="SVGID_5_" gradientUnits="userSpaceOnUse" x1="179.4601" y1="-489.1692" x2="179.4601" y2="-447.8592" gradientTransform="matrix(1 0 0 1 0 504)">
		<stop  offset="0.18" style="stop-color:#9C673F"/>
		<stop  offset="0.69" style="stop-color:#8B5531"/>
	</linearGradient>
	<path class="st4" d="M358.7,7c-0.2-0.2-0.4-0.6-0.6-0.5s-0.5,0.4-0.9,0.3s-0.8,0.4-1,0.6s-0.8-0.2-1.7-0.2
		c-0.5-0.9-1.4-1.5-2.5-1.5c-0.6-0.1-1.2,0.2-1.5,0.8c-0.2,0.3-0.3,0.3-1.3,0.4s-1.9,0.2-2.2-0.3s-0.9-0.5-1.9,0.4
		c-1.2,0.8-2.7-0.1-4-0.5c-0.6-0.3-1.3-0.1-1.6,0.5c0,0.1-0.1,0.1-0.1,0.2c-0.1,0.3-0.9,0.1-1.4,0c-0.7-0.3-1.3-0.7-1.9-1.2
		c-1.1-0.4-2.5,1-2.8,1.4s-1.4,0.2-2.6,0.4c-1.2,0.1-2.4,0.1-3.6-0.1c-1.1-0.9-1.7-0.6-2.4-0.2c-0.5,0.4-1.1,0.4-1.6,0.1
		c-0.7-0.2-1.8-0.1-2.3-0.4c-0.7-0.3-1.5-0.3-2.2,0c-0.5-0.4-1.1-1.4-2.3-1.5s-1.2,0.2-2.8,1.6c0-0.6-0.9-0.8-1.1-1s-1,1.5-1,1.5
		c-1.2-0.7-1.9,0.4-2.1,0.5s-1.3-0.8-2.5-1.6c-0.5,0.2-1-0.1-1.2-0.6c0-0.1,0-0.1,0-0.2c-0.2-0.2-1.1,0.1-1.4,0.5
		c-0.3,0.3-0.7,0.3-1.1,0.2c-0.4-0.1-0.8,0.4-1,0.6s-0.8-0.2-1.7-0.2c-0.5-0.9-1.4-1.5-2.5-1.5c-0.6-0.1-1.2,0.2-1.5,0.8
		c-0.2,0.3-0.3,0.3-1.3,0.4s-1.9,0.2-2.2-0.3s-0.9-0.5-1.9,0.4c-1.2,0.8-2.7-0.1-4-0.5c-0.6-0.3-1.3-0.1-1.6,0.5
		c0,0.1-0.1,0.1-0.1,0.2c-0.1,0.3-0.8,0.1-1.4,0s-1.2-0.8-1.9-1.1c-1.1-0.4-2.5,1-2.8,1.4s-1.4,0.2-2.7,0.4
		c-1.2,0.1-2.4,0.1-3.6-0.1c-1.1-0.9-1.7-0.6-2.4-0.2c-0.5,0.4-1.1,0.4-1.6,0.1c-0.7-0.2-1.8-0.1-2.3-0.4c-0.7-0.3-1.5-0.3-2.2,0
		c-0.5-0.4-1.1-1.4-2.3-1.5S261,6,259.4,7.5c0-0.6-0.9-0.8-1.1-1s-1,1.5-1,1.5c-1.2-0.7-1.9,0.4-2.2,0.5s-1.3-0.8-2.5-1.6
		c-0.5-0.4-1.1-0.4-1.6,0c0-0.3-0.1-0.5-0.3-0.8c-0.2-0.2-1.1,0.1-1.4,0.5c-0.3,0.3-0.7,0.3-1.1,0.2c-0.4-0.1-0.8,0.4-1,0.6
		s-0.8-0.2-1.7-0.2c-0.5-0.9-1.4-1.5-2.5-1.5c-0.6-0.1-1.2,0.2-1.5,0.8c-0.2,0.3-0.3,0.3-1.3,0.4s-1.9,0.2-2.2-0.3s-0.9-0.5-1.9,0.4
		c-1.2,0.8-2.7-0.1-4-0.5c-0.6-0.3-1.3-0.1-1.6,0.5c0,0.1-0.1,0.1-0.1,0.2c-0.1,0.3-0.9,0.1-1.4,0c-0.7-0.3-1.3-0.7-1.9-1.1
		c-1.1-0.4-2.5,1-2.8,1.4s-1.4,0.2-2.6,0.4c-1.2,0.1-2.4,0.1-3.6-0.1c-1.1-0.9-1.7-0.6-2.4-0.2c-0.5,0.4-1.1,0.4-1.6,0.1
		c-0.7-0.2-1.8-0.1-2.3-0.4c-0.7-0.3-1.5-0.3-2.2,0c-0.5-0.4-1.1-1.4-2.3-1.5c-1-0.1-1.2,0.1-2.1,1H205c-0.2,0-0.4,0.1-0.6,0.2
		c-0.3-0.2-0.6-0.4-1-0.6c-0.2-0.1-0.5,0.4-0.7,0.8c-0.2,0-0.3,0-0.5,0c-0.5-0.9-1.4-1.5-2.5-1.5c-0.6-0.1-1.2,0.2-1.5,0.8
		c-0.1,0.2-0.2,0.2-0.6,0.3c-0.5-0.3-1.2-0.2-1.6,0.2c-0.5,0.1-1,0-1.3-0.4c-0.4-0.5-0.9-0.5-1.9,0.4c-1.2,0.8-2.7-0.1-4-0.5
		c-0.6-0.3-1.3-0.1-1.6,0.5c0,0.1-0.1,0.1-0.1,0.2c-0.1,0.3-0.9,0.1-1.4,0c-0.7-0.3-1.3-0.7-1.9-1.1c-1.1-0.4-2.5,1-2.8,1.4
		s-1.4,0.2-2.6,0.4c-1.2,0.1-2.4,0.1-3.6-0.1c-1.1-0.9-1.7-0.6-2.4-0.2c-0.5,0.4-1.1,0.4-1.6,0.1c-0.7-0.2-1.8-0.1-2.3-0.4
		c-0.7-0.4-1.5-0.4-2.2,0c-0.5-0.4-1.1-1.4-2.3-1.5s-1.2,0.2-2.8,1.6c0-0.6-0.9-0.8-1.2-1s-1,1.5-1,1.5c-1.2-0.7-1.9,0.4-2.2,0.5
		s-1.3-0.8-2.5-1.6c-0.5-0.4-1.1-0.4-1.6,0c0-0.3-0.1-0.5-0.3-0.8c-0.2-0.2-1.1,0.1-1.4,0.5c-0.3,0.3-0.7,0.3-1.1,0.2
		c-0.4-0.1-0.8,0.4-1,0.6s-0.8-0.2-1.7-0.2C147,6.3,146,5.8,145,5.7c-0.6-0.1-1.2,0.2-1.5,0.8c-0.2,0.3-0.3,0.3-1.3,0.4
		s-1.9,0.2-2.2-0.3S139,6.1,138.1,7c-1.2,0.8-2.7-0.1-4-0.5c-0.6-0.3-1.3-0.1-1.6,0.5c0,0.1-0.1,0.1-0.1,0.2c-0.1,0.3-0.9,0.1-1.4,0
		s-1.2-0.8-1.9-1.1c-1.1-0.4-2.5,1-2.8,1.4s-1.4,0.2-2.7,0.4C122.4,8,121.2,8,120,7.8c-1.1-0.9-1.7-0.6-2.3-0.2
		c-0.5,0.4-1.1,0.4-1.6,0.1c-0.7-0.2-1.8-0.1-2.3-0.4c-0.7-0.4-1.5-0.4-2.2,0c-0.5-0.4-1.1-1.4-2.3-1.5c-1-0.1-1.2,0.1-2.1,1
		c-0.2,0-0.5,0-0.7,0c-0.1,0-0.2,0-0.3,0c-0.2-0.2-0.5-0.3-0.8-0.4c-0.2-0.1-0.5,0.4-0.7,0.9c-0.3-0.1-0.6-0.1-0.9-0.1
		c-0.5-0.9-1.4-1.5-2.5-1.5c-0.6-0.1-1.2,0.2-1.5,0.8c-0.1,0.1-0.2,0.2-0.3,0.2c-0.5-0.2-1-0.2-1.4,0.2C97.3,7,96.6,7,96.3,6.6
		S95.3,6.1,94.4,7c-1.2,0.8-2.7-0.1-4-0.5c-0.6-0.3-1.3-0.1-1.6,0.5c0,0.1-0.1,0.1-0.1,0.2c-0.1,0.3-0.8,0.1-1.4,0s-1.2-0.8-1.9-1.1
		c-1.1-0.4-2.4,1-2.8,1.4s-1.4,0.2-2.7,0.4C78.7,8,77.5,8,76.3,7.8c-1.1-0.9-1.7-0.6-2.3-0.2c-0.5,0.4-1.1,0.4-1.6,0.1
		c-0.7-0.2-1.8-0.1-2.3-0.4c-0.7-0.4-1.5-0.4-2.2,0c-0.5-0.4-1.1-1.4-2.3-1.5S64.4,6,62.8,7.4c0-0.6-0.8-0.8-1.2-1s-1,1.5-1,1.5
		c-1.2-0.7-1.9,0.4-2.2,0.5s-1.3-0.8-2.5-1.6c-0.5-0.4-1.1-0.4-1.6,0c0-0.3-0.1-0.5-0.3-0.8c-0.2-0.2-1.1,0.1-1.4,0.5
		c-0.3,0.3-0.7,0.3-1.1,0.2c-0.4-0.1-0.8,0.4-1,0.6s-0.8-0.2-1.7-0.2c-0.5-0.9-1.4-1.5-2.5-1.5c-0.6-0.1-1.2,0.2-1.5,0.8
		c-0.2,0.3-0.3,0.3-1.3,0.4S41.8,7,41.4,6.6s-0.9-0.5-1.9,0.4c-1.2,0.8-2.7-0.1-4-0.5c-0.6-0.3-1.3-0.1-1.6,0.5
		c0,0.1-0.1,0.1-0.1,0.2c-0.1,0.3-0.8,0.1-1.4,0c-0.7-0.3-1.3-0.7-1.9-1.1c-1.1-0.4-2.5,1-2.8,1.4S26.3,7.7,25,7.9
		c-1.2,0.1-2.4,0.1-3.6-0.1c-1.1-0.9-1.7-0.6-2.3-0.2c-0.5,0.4-1.1,0.4-1.6,0.1c-0.7-0.2-1.8-0.1-2.3-0.4c-0.7-0.3-1.5-0.3-2.2,0
		c-0.5-0.4-1.1-1.4-2.3-1.5S9.5,5.9,8,7.4c0-0.6-0.8-0.8-1.2-1s-1,1.5-1,1.5C4.7,7.1,3.9,8.2,3.7,8.3S2.5,7.2,1.2,7.2s-2-0.1-2-0.1
		v54.1c1,0,1.2-0.3,1.6-0.1c0.6,0.1,1.1,0,1.6-0.2c0.4-0.4,1-0.5,1.5-0.2c0.8,0.3,1.2,0.4,1.6-0.1s1.1-0.1,1.6,0.2s1.5,0.2,1.8,0.4
		s1,1.2,2.2,1s1.1-0.2,1.6,0.1s0.8,0.2,1.5,0s0.9-0.8,1.3-0.4s0.9,0.4,2.1,0.3s3.5-0.8,4.2-0.5s1.1,0.8,1.3,0.6
		c0.4-0.5,1-0.7,1.6-0.7c0.9,0.1,1.9,0,2.8-0.1c0.7-0.3,1.5-0.3,2.2,0c0.7,0.3,0.6,0.5,1.4,0.4c0.8-0.1,1.6-0.1,2.3,0
		c1.1-0.2,2.2-0.5,3.3-1c0.5-0.2,1.1-0.1,1.5,0.2c0.6,0.3,1,0.5,1.5,0.3s0.6-0.1,2.1,0.1c1.1,0.2,2.3,0.2,3.4,0
		c0.5-0.2,0.7-0.7,1.6-0.4s0.9,0,1.3-0.1c0.6-0.2,1.3-0.2,1.9,0c0.6,0.2,1.3,0.1,2.1,0.4c0.6,0.1,1.2,0.1,1.9,0v1.2l0.3-0.5
		c0.3-0.3,0.4-0.6,0.8-0.4c0.3,0.1,0.6,0.1,0.9,0c0.2,0,0.4,0.5,0.8,0.3s0.6-1,1.4-0.7s1.2,0.3,1.6-0.1s1-0.2,1.5,0.1
		s0.8,0.6,1.3,0.6s0.7,0.3,1.1,0.5c0.4,0.2,1-0.2,2.2-0.5s1.1-0.2,1.6,0.1s0.8,0.2,1.5,0s0.9-0.8,1.3-0.4s0.9,0.4,2.1,0.3
		s3.5-0.8,4.2-0.5s1.1,0.8,1.3,0.6c0.4-0.5,1-0.7,1.6-0.7c0.9,0.1,1.9,0,2.8-0.1c0.7-0.3,1.5-0.3,2.2,0c0.7,0.3,0.6,0.5,1.4,0.4
		c0.8-0.1,1.6-0.1,2.3,0c1.1-0.2,2.2-0.5,3.3-1c0.5-0.2,1.1-0.1,1.5,0.2c0.6,0.3,1,0.5,1.5,0.3s0.6-0.1,2.1,0.1
		c0.4,0,0.7,0.1,1.1,0.1v1L98,62c0.3-0.3,0.4-0.6,0.8-0.4c0.3,0.1,0.6,0.1,0.9,0c0.2,0,0.4,0.5,0.8,0.3s0.6-1,1.4-0.7
		s1.2,0.3,1.6-0.1s1-0.2,1.6,0.1s0.8,0.6,1.3,0.6s0.7,0.3,1.1,0.5s1-0.2,2.2-0.5s1.1-0.2,1.6,0.1s0.8,0.2,1.5,0s0.9-0.8,1.3-0.4
		s0.9,0.4,2.1,0.3s3.5-0.8,4.2-0.5s1.1,0.8,1.3,0.6c0.4-0.5,1-0.7,1.6-0.7c0.9,0.1,1.9,0,2.8-0.1c0.7-0.3,1.5-0.3,2.2,0
		c0.7,0.3,0.6,0.5,1.4,0.4c0.8-0.1,1.6-0.1,2.3,0c1.1-0.2,2.2-0.5,3.2-1c0.5-0.2,1.1-0.1,1.6,0.2c0.6,0.3,1,0.5,1.5,0.3
		s0.6-0.1,2.1,0.1c1.1,0.2,2.3,0.2,3.4,0c0.4-0.2,0.7-0.7,1.6-0.4s0.9,0,1.4-0.1c0.6-0.2,1.2-0.2,1.9,0c0.6,0.2,1.4,0.1,2.1,0.4
		c0.6,0.1,1.2,0.1,1.9,0v1.1c0.1-0.2,0.2-0.3,0.3-0.5c0.3-0.3,0.4-0.6,0.8-0.4c0.3,0.1,0.6,0.1,0.9,0c0.2,0,0.4,0.5,0.8,0.3
		s0.6-1,1.4-0.7s1.2,0.3,1.6-0.1s1-0.2,1.5,0.1s0.8,0.6,1.3,0.6s0.7,0.3,1.1,0.5s1-0.2,2.2-0.5s1.1-0.2,1.6,0.1s0.8,0.2,1.5,0
		s0.9-0.8,1.3-0.4s0.9,0.4,2.1,0.3s3.5-0.8,4.2-0.5s1.1,0.8,1.3,0.6c0.4-0.5,1-0.7,1.6-0.7c0.9,0.1,1.9,0,2.8-0.1
		c0.7-0.3,1.5-0.3,2.2,0c0.7,0.3,0.6,0.5,1.4,0.4c0.8-0.1,1.6-0.1,2.3,0c1.1-0.2,2.2-0.5,3.3-1c0.5-0.2,1.1-0.1,1.6,0.2
		c0.6,0.3,1,0.5,1.5,0.3s0.6-0.1,2.1,0.1l0.6,0.1v1.1l0.3-0.5c0.3-0.3,0.4-0.6,0.8-0.4c0.3,0.1,0.6,0.1,0.9,0c0.2,0,0.4,0.5,0.8,0.3
		s0.6-1,1.4-0.7s1.2,0.3,1.6-0.1s1-0.2,1.5,0.1s0.8,0.6,1.3,0.6s0.7,0.3,1.1,0.5s1-0.2,2.2-0.5s1.1-0.2,1.6,0.1s0.8,0.2,1.5,0
		s0.9-0.8,1.3-0.4s0.9,0.4,2.1,0.3s3.5-0.8,4.2-0.5s1.1,0.8,1.3,0.6c0.4-0.5,1-0.7,1.6-0.7c0.9,0.1,1.9,0,2.8-0.1
		c0.7-0.3,1.5-0.3,2.2,0c0.7,0.3,0.6,0.5,1.4,0.4c0.8-0.1,1.6-0.1,2.3,0c1.1-0.2,2.2-0.5,3.3-1c0.5-0.2,1.1-0.1,1.5,0.2
		c0.6,0.3,1,0.5,1.5,0.3s0.6-0.1,2.1,0.1c1.1,0.2,2.3,0.2,3.4,0c0.4-0.2,0.7-0.7,1.6-0.4s0.9,0,1.4-0.1c0.6-0.2,1.3-0.2,1.9,0
		c0.6,0.2,1.3,0.1,2.1,0.4c0.6,0.1,1.2,0.1,1.9,0v1.2l0.3-0.5c0.3-0.3,0.4-0.6,0.8-0.4c0.3,0.1,0.6,0.1,0.9,0c0.2,0,0.4,0.5,0.8,0.3
		s0.6-1,1.4-0.7s1.2,0.3,1.6-0.1c0.4-0.5,1-0.2,1.5,0.1s0.8,0.6,1.3,0.6s0.7,0.3,1.1,0.5s1-0.2,2.2-0.5s1.1-0.2,1.6,0.1
		s0.8,0.2,1.5,0s0.9-0.8,1.3-0.4s0.9,0.4,2.1,0.3s3.5-0.8,4.2-0.5s1.1,0.8,1.3,0.6c0.4-0.5,1-0.7,1.6-0.7c0.9,0.1,1.9,0,2.8-0.1
		c0.7-0.3,1.5-0.3,2.2,0c0.7,0.3,0.6,0.5,1.4,0.4c0.8-0.1,1.6-0.1,2.3,0c1.1-0.2,2.2-0.5,3.3-1c0.5-0.2,1.1-0.1,1.5,0.2
		c0.6,0.3,1,0.5,1.5,0.3s0.6-0.1,2.1,0.1c1.9,0.2,3.6-0.5,5.4-0.4c0.7,0.1,1.4-0.3,2.1-0.2s1.7,0.3,2.6,0.4c0.6,0.1,1.3,0.1,1.5,1.2
		c1-0.4,1.9-0.3,2.8-0.6c0.5-0.2,1-0.3,1.5-0.3c0.7,0.1,1.4,0,2-0.2c0.8-0.2,1.5,0.8,2.3,0.8c0.5,0,0.7,0.3,1.1,0.5s1-0.2,2.2-0.5
		s1.1-0.2,1.6,0.1s0.9,0.2,1.5,0s0.9-0.8,1.3-0.4s0.9,0.4,2.1,0.3s3.5-0.8,4.2-0.5s1.1,0.8,1.3,0.6c0.4-0.5,1-0.7,1.6-0.7
		c0.9,0.1,1.9,0,2.8-0.1c0.7-0.3,1.5-0.3,2.2,0c0.7,0.3,0.6,0.5,1.4,0.4c0.8-0.1,1.6-0.1,2.3,0c1.1-0.2,2.2-0.5,3.3-1
		c0.5-0.2,1.1-0.1,1.5,0.2c0.6,0.3,1,0.5,1.5,0.3s0.6-0.1,2.1,0.1c1.1,0.2,2.3,0.2,3.4,0c0.4-0.2,0.7-0.7,1.6-0.4s0.9,0,1.4-0.1
		c0.6-0.2,1.2-0.2,1.9,0c0.6,0.2,1.4,0.1,2.1,0.4c0.8,0.1,1.5,0,2.3-0.2V7.4C359.5,7.3,358.9,7.3,358.7,7z"/>
	
		<linearGradient id="SVGID_6_" gradientUnits="userSpaceOnUse" x1="179.82" y1="-488.5492" x2="179.82" y2="-444.7191" gradientTransform="matrix(1 0 0 1 0 504)">
		<stop  offset="0.18" style="stop-color:#9C673F"/>
		<stop  offset="0.69" style="stop-color:#8B5531"/>
	</linearGradient>
	<path class="st5" d="M359,7.4c-0.5,0-0.3-0.5-0.7-0.6s-0.8,0.3-1.1,0.2s-0.8,0.4-1,0.6s-0.8-0.2-1.7-0.2C353.9,6.5,353,6,352,5.9
		c-0.6-0.1-1.2,0.2-1.5,0.8c-0.2,0.3-0.3,0.3-1.3,0.4s-1.9,0.2-2.2-0.3s-0.9-0.5-1.9,0.4c-1.2,0.8-2.7-0.1-4-0.5
		c-0.6-0.3-1.3-0.1-1.6,0.5c0,0.1-0.1,0.1-0.1,0.2c-0.1,0.3-0.8,0.1-1.4,0s-1.2-0.8-1.9-1.1c-1.1-0.4-2.5,1-2.8,1.4
		s-1.4,0.2-2.6,0.4c-1.2,0.1-2.4,0.1-3.6-0.1c-1.1-0.9-1.7-0.6-2.4-0.2c-0.5,0.3-1.1,0.4-1.6,0.1c-0.7-0.2-1.8-0.1-2.3-0.4
		c-0.7-0.3-1.5-0.3-2.2,0C318,7,317.5,6.1,316.3,6s-1.2,0.2-2.8,1.6c0-0.6-0.9-0.8-1.1-1s-1,1.4-1,1.4c-1.2-0.7-1.9,0.4-2.2,0.5
		S308,7.8,306.8,7c-0.3-0.2-0.6-0.3-1-0.2c0-0.2-0.1-0.3-0.2-0.5c-0.2-0.3-1.1,0.1-1.4,0.5C303.8,7,303.4,7.1,303,7
		c-0.4-0.1-0.8,0.4-1,0.6s-0.8-0.2-1.7-0.2c-0.5-0.9-1.4-1.5-2.5-1.5c-0.6-0.1-1.2,0.2-1.5,0.8C296.1,7,296,7,295,7.1
		s-1.9,0.2-2.2-0.3s-0.9-0.5-1.9,0.4c-1.2,0.8-2.7-0.1-4-0.5c-0.6-0.3-1.3-0.1-1.6,0.5c0,0.1-0.1,0.1-0.1,0.2
		c-0.1,0.3-0.9,0.1-1.4,0s-1.2-0.8-1.9-1.1c-1.1-0.4-2.5,1-2.8,1.4s-1.4,0.2-2.6,0.4c-1.2,0.1-2.4,0.1-3.6-0.1
		c-1.1-0.9-1.7-0.6-2.4-0.2c-0.5,0.4-1.1,0.4-1.6,0.1c-0.7-0.2-1.8-0.1-2.3-0.4c-0.7-0.3-1.5-0.3-2.2,0c-0.5-0.4-1.1-1.4-2.3-1.5
		s-1.2,0.2-2.8,1.6c0-0.6-0.8-0.8-1.1-1s-1,1.4-1,1.4c-1.2-0.7-1.9,0.4-2.2,0.5s-1.3-0.8-2.5-1.5c-0.5-0.4-1.1-0.4-1.6,0
		c0-0.3-0.1-0.5-0.3-0.8c-0.2-0.3-1.1,0.1-1.4,0.5C249,7,248.5,7,248.1,6.9c-0.4-0.1-0.8,0.4-1,0.6s-0.8-0.2-1.7-0.2
		c-0.5-0.9-1.4-1.5-2.4-1.5c-0.6-0.1-1.2,0.2-1.5,0.8c-0.2,0.3-0.3,0.3-1.3,0.4s-1.9,0.2-2.2-0.3s-0.9-0.5-1.9,0.4
		c-1.2,0.8-2.7-0.1-4-0.5c-0.6-0.3-1.3-0.1-1.6,0.5c0,0.1-0.1,0.1-0.1,0.2c-0.1,0.3-0.8,0.1-1.4,0s-1.2-0.8-1.9-1.1
		c-1.1-0.4-2.5,1-2.8,1.4s-1.4,0.2-2.6,0.4c-1.2,0.1-2.4,0.1-3.6-0.1c-1.1-0.9-1.7-0.6-2.4-0.2c-0.5,0.3-1.1,0.4-1.6,0.1
		c-0.7-0.2-1.8-0.1-2.3-0.4c-0.7-0.3-1.5-0.3-2.2,0C209.1,7,208.5,6,207.3,6c-1,0-1.2,0.1-2.1,1h-0.2c-0.2,0-0.4,0.1-0.6,0.2
		c-0.3-0.3-0.6-0.4-1-0.6c-0.2-0.1-0.5,0.4-0.7,0.8c-0.2,0-0.3,0-0.5,0c-0.5-0.9-1.4-1.5-2.5-1.5c-0.6-0.1-1.2,0.2-1.5,0.8
		c-0.1,0.2-0.2,0.2-0.6,0.3c-0.5-0.3-1.2-0.2-1.6,0.2c-0.5,0.1-1,0-1.3-0.4c-0.4-0.5-0.9-0.5-1.9,0.4c-1.2,0.8-2.7-0.1-4-0.5
		c-0.6-0.3-1.3-0.1-1.6,0.5c0,0.1-0.1,0.1-0.1,0.2c-0.1,0.3-0.9,0.1-1.4,0s-1.2-0.8-1.9-1.1c-1.1-0.4-2.5,1-2.8,1.4
		s-1.4,0.2-2.6,0.4c-1.2,0.1-2.4,0.1-3.6-0.1c-1.1-0.9-1.7-0.6-2.4-0.2c-0.5,0.3-1.1,0.4-1.6,0.1c-0.7-0.2-1.8-0.1-2.3-0.4
		c-0.7-0.3-1.5-0.3-2.2,0c-0.5-0.4-1.1-1.4-2.3-1.5s-1.2,0.2-2.8,1.6c0-0.6-0.9-0.8-1.1-1s-1,1.4-1,1.4c-1.2-0.7-1.9,0.4-2.1,0.5
		s-1.3-0.8-2.5-1.5c-0.5-0.4-1.1-0.4-1.6,0c0-0.3-0.1-0.5-0.3-0.8c-0.2-0.3-1.1,0.1-1.4,0.5c-0.3,0.3-0.7,0.3-1.1,0.2
		c-0.4-0.1-0.8,0.4-1,0.6s-0.8-0.2-1.7-0.2c-0.5-0.9-1.4-1.5-2.5-1.5c-0.6-0.1-1.3,0.2-1.5,0.8c-0.2,0.3-0.3,0.3-1.3,0.4
		s-1.9,0.2-2.2-0.3s-0.9-0.5-1.9,0.4c-1.2,0.8-2.7-0.1-4-0.5c-0.6-0.3-1.3-0.1-1.6,0.5c0,0.1-0.1,0.1-0.1,0.2
		c-0.1,0.3-0.9,0.1-1.4,0s-1.2-0.8-1.9-1.1c-1.1-0.4-2.5,1-2.8,1.4s-1.4,0.2-2.7,0.4c-1.2,0.1-2.4,0.1-3.6-0.1
		c-1.1-0.9-1.7-0.6-2.3-0.2c-0.5,0.3-1.1,0.4-1.6,0.1c-0.7-0.2-1.8-0.1-2.3-0.4c-0.7-0.3-1.5-0.3-2.2,0C111,7,110.4,6.1,109.2,6
		c-1,0-1.2,0.1-2.1,1c-0.2,0.1-0.5,0.1-0.7,0c-0.1,0-0.2,0-0.3,0c-0.2-0.2-0.5-0.3-0.8-0.4c-0.2-0.1-0.5,0.4-0.7,0.9
		c-0.3-0.1-0.6-0.1-0.9-0.1c-0.5-0.9-1.4-1.5-2.5-1.5c-0.6-0.1-1.2,0.2-1.5,0.8c-0.1,0.1-0.2,0.2-0.3,0.2c-0.5-0.2-1-0.1-1.4,0.2
		c-0.8,0.1-1.5,0.1-1.8-0.4s-0.9-0.5-1.9,0.4c-1.2,0.8-2.7-0.1-4-0.5c-0.6-0.3-1.3-0.1-1.6,0.5c0,0.1-0.1,0.1-0.1,0.2
		c-0.1,0.3-0.8,0.1-1.4,0S86,6.6,85.3,6.2c-1.1-0.4-2.5,1-2.8,1.4S81.1,7.8,79.8,8c-1.2,0.1-2.4,0.1-3.6-0.1
		c-1.1-0.9-1.7-0.6-2.3-0.2C73.4,8,72.8,8,72.3,7.8c-0.7-0.2-1.8-0.1-2.3-0.4c-0.7-0.3-1.5-0.3-2.2,0c-0.5-0.4-1.1-1.4-2.3-1.5
		s-1.2,0.2-2.8,1.6c0-0.6-0.8-0.8-1.2-1s-1,1.4-1,1.4c-1.2-0.7-1.9,0.4-2.2,0.5S57.2,7.7,56,6.9c-0.5-0.4-1.1-0.4-1.6,0
		c0-0.3-0.1-0.5-0.3-0.8c-0.2-0.3-1.1,0.1-1.4,0.5c-0.3,0.3-0.7,0.3-1.1,0.2c-0.4-0.1-0.8,0.4-1,0.6s-0.8-0.2-1.7-0.2
		c-0.5-0.9-1.4-1.5-2.5-1.5c-0.6-0.1-1.2,0.2-1.5,0.8c-0.2,0.3-0.3,0.3-1.3,0.4s-1.9,0.2-2.2-0.3S40.5,6.2,39.5,7
		c-1.2,0.8-2.7-0.1-4-0.5c-0.6-0.3-1.3-0.1-1.6,0.5c0,0.1-0.1,0.1-0.1,0.2c-0.1,0.3-0.8,0.1-1.4,0s-1.2-0.8-1.9-1.1
		c-1.1-0.4-2.5,1-2.8,1.4S26.3,7.8,25,7.9c-1.2,0.1-2.4,0.1-3.6-0.1c-1.1-0.9-1.7-0.6-2.3-0.2C18.6,7.9,18,8,17.5,7.7
		c-0.7-0.2-1.8-0.1-2.3-0.4C14.5,7,13.7,7,13,7.3c-0.5-0.4-1.1-1.4-2.3-1.5S9.8,6.2,8.3,7.6c0-0.6-0.8-0.8-1.2-1S6.1,8,6.1,8
		C5,7.4,4.2,8.4,4,8.5S2.9,7.6,1.6,7.6c-1.1,0-2-0.1-2-0.1v23c4.1,0,5.1,2.4,8.6,1.9c6.1-0.8,5.2,3.9,13.9,1s7.5-2.7,15,0.3
		c3.8,1.5,4.8-0.4,8.3-1.5c2.3-0.7,5,0.2,7.4-0.3c1-0.2,1.5-1.1,2.5-1s2.3,2,3.3,2.4c5,2.2,13.2,1.8,18.3,0.2
		c8.7-2.8,7.5-2.7,15,0.3l0,0c2.6,1,4,0.4,6.5-0.4c1.9-0.6,2.2-0.4,4.3,0.2c5.8,1.7,12,1.7,17.8-0.1c8.6-2.8,7.5-2.7,15,0.3
		c1.9,0.9,4,1,5.9,0.1c2.6-1.1,4.4-1.1,7.3-1.4c1.4-0.1,3.4-1.9,4.4-1.8c1.6,0.2,3.4,2.8,5.2,3.2s3.7-0.1,5.5,0
		c2.4,0.2,4.6,1,7.1,0.7c3.9-0.4,7.5-2.9,11.4-3.1c2.7-0.1,5.3,1.3,7.9,2.3c6,2.4,5.6-0.6,8.1-1.4c1.6,1.3,3.7,1.8,5.7,1.6
		c6.1-0.8,5.8,2.4,14.4-0.4s7.5-2.7,15,0.3c1.9,0.9,4,0.9,5.9,0.1c2.9-1.2,5.2-0.8,8.2-1.5s2.9-1.4,5.8,0.2c6,3.4,13.7,3,19.8,1
		c8.6-2.8,7.5-2.7,15,0.3s4.9-2.5,10.8-1.5c3.1,0.5,5-0.1,6.5-1.4c1.8,1.8,4.3,3.5,7.4,3.1c6.1-0.8,5.8,2.4,14.4-0.4s7.5-2.7,15,0.3
		s5-2.5,10.8-1.5c3.4,0.6,3.4-1.7,7-1.7v-23C359.4,7.6,359.2,7.4,359,7.4z"/>
	
		<linearGradient id="SVGID_7_" gradientUnits="userSpaceOnUse" x1="540.47" y1="-448.2992" x2="540.47" y2="-386.1992" gradientTransform="matrix(1 0 0 1 0 504)">
		<stop  offset="0.35" style="stop-color:#6C391C"/>
		<stop  offset="1" style="stop-color:#452A0F"/>
	</linearGradient>
	<path class="st6" d="M720.6,7.3c-0.3-0.1-0.5-0.9-1.2-0.5C719,7,719.2,7,718.8,7s-0.8,0.4-1,0.6s-0.8-0.2-1.7-0.2
		c-0.5-0.9-1.4-1.5-2.5-1.5c-0.6-0.1-1.2,0.2-1.5,0.8c-0.2,0.3-0.3,0.3-1.3,0.4s-1.9,0.2-2.2-0.3s-0.9-0.5-1.9,0.4
		c-1.2,0.8-2.8-0.1-4-0.5c-0.6-0.3-1.3-0.1-1.6,0.5c0,0.1-0.1,0.1-0.1,0.2c-0.1,0.3-0.8,0.1-1.4,0s-1.2-0.8-1.9-1.1
		c-1.1-0.4-2.5,1-2.8,1.4s-1.4,0.2-2.7,0.4c-1.2,0.1-2.4,0.1-3.6-0.1c-0.6-0.7-1.6-0.8-2.4-0.2c-0.5,0.4-1.1,0.4-1.6,0.1
		c-0.7-0.2-1.8-0.1-2.3-0.4c-0.7-0.3-1.5-0.3-2.2,0C679.5,7,679,6.1,677.8,6s-1.2,0.2-2.8,1.6c0-0.6-0.8-0.8-1.2-1s-1,1.4-1,1.4
		c-1.2-0.7-1.9,0.4-2.2,0.5s-1.3-0.8-2.5-1.6c-0.3-0.2-0.6-0.3-1-0.2c0-0.2-0.1-0.4-0.2-0.5c-0.2-0.3-1.1,0.1-1.4,0.4
		c-0.3,0.3-0.7,0.3-1.1,0.2c-0.4-0.1-0.8,0.4-1,0.6s-0.8-0.2-1.7-0.2c-0.5-0.9-1.4-1.5-2.5-1.5c-0.6-0.1-1.2,0.2-1.5,0.8
		c-0.2,0.3-0.3,0.3-1.3,0.4s-1.9,0.2-2.2-0.3s-0.9-0.5-1.9,0.4c-1.2,0.8-2.8-0.1-4-0.5c-0.6-0.3-1.3,0-1.6,0.6
		c0,0.1-0.1,0.1-0.1,0.2c-0.1,0.3-0.8,0.1-1.4,0s-1.2-0.8-1.9-1.1c-1.1-0.4-2.5,1-2.8,1.4S639,7.8,637.8,8c-1.2,0.1-2.4,0.1-3.6-0.1
		c-0.6-0.7-1.6-0.8-2.4-0.2c-0.5,0.4-1.1,0.4-1.6,0.1c-0.7-0.2-1.8-0.1-2.3-0.4c-0.7-0.3-1.5-0.3-2.2,0c-0.5-0.4-1.1-1.4-2.3-1.4
		s-1.2,0.2-2.8,1.6c0-0.6-0.8-0.8-1.2-1s-1,1.4-1,1.4c-1.2-0.7-1.9,0.4-2.2,0.5s-1.3-0.8-2.5-1.6c-0.5-0.4-1.1-0.4-1.6,0
		c0-0.3-0.1-0.5-0.3-0.8c-0.2-0.3-1.1,0.1-1.4,0.4c-0.3,0.3-0.7,0.3-1.1,0.2c-0.4-0.1-0.8,0.4-1,0.6s-0.8-0.2-1.7-0.2
		c-0.5-0.9-1.4-1.5-2.5-1.5c-0.6-0.1-1.2,0.2-1.5,0.8c-0.2,0.3-0.3,0.3-1.3,0.4s-1.9,0.2-2.3-0.3s-0.9-0.5-1.9,0.4
		c-1.2,0.8-2.8-0.1-4-0.5c-0.6-0.3-1.3,0-1.6,0.6c0,0.1-0.1,0.1-0.1,0.2c-0.1,0.3-0.8,0.1-1.4,0s-1.2-0.8-1.9-1.1
		c-1.1-0.4-2.5,1-2.8,1.4s-1.4,0.2-2.7,0.4c-1.2,0.1-2.4,0.1-3.6-0.1c-0.6-0.7-1.6-0.8-2.4-0.2c-0.5,0.4-1.1,0.4-1.6,0.1
		c-0.7-0.2-1.8-0.1-2.3-0.4c-0.7-0.3-1.5-0.3-2.2,0c-0.5-0.4-1.1-1.4-2.3-1.4c-1,0-1.2,0.1-2.2,1h-0.2c-0.2,0-0.4,0.1-0.5,0.2
		c-0.3-0.3-0.6-0.4-1-0.6c-0.2-0.1-0.5,0.4-0.7,0.8h-0.5c-0.5-0.9-1.4-1.5-2.5-1.5c-0.6-0.1-1.2,0.2-1.5,0.8
		c-0.1,0.2-0.2,0.2-0.6,0.3c-0.5-0.3-1.2-0.2-1.6,0.2c-0.5,0.1-1,0-1.3-0.4c-0.4-0.5-0.9-0.5-1.9,0.4c-1.2,0.8-2.8-0.1-4-0.5
		c-0.6-0.3-1.3,0-1.6,0.6c0,0.1-0.1,0.1-0.1,0.2c-0.1,0.3-0.8,0.1-1.4,0s-1.2-0.8-1.9-1.1c-1.1-0.4-2.5,1-2.8,1.4s-1.4,0.2-2.7,0.4
		c-1.2,0.1-2.4,0.1-3.6-0.1C535,7.1,534,7,533.3,7.6c-0.5,0.4-1.1,0.4-1.6,0.1c-0.7-0.2-1.8-0.1-2.3-0.4c-0.7-0.3-1.5-0.3-2.2,0
		c-0.5-0.4-1.1-1.4-2.3-1.4s-1.2,0.2-2.8,1.6c0-0.6-0.8-0.8-1.2-1s-1,1.4-1,1.4c-1.2-0.7-1.9,0.4-2.2,0.5s-1.3-0.8-2.5-1.6
		c-0.5-0.4-1.1-0.4-1.6,0c0-0.3-0.1-0.5-0.3-0.8c-0.2-0.3-1.1,0.1-1.4,0.4c-0.3,0.3-0.7,0.3-1.1,0.2c-0.4-0.1-0.8,0.4-1,0.6
		s-0.8-0.2-1.7-0.2c-0.5-0.9-1.4-1.5-2.5-1.5c-0.6-0.1-1.2,0.2-1.5,0.8c-0.2,0.3-0.3,0.3-1.3,0.4s-1.9,0.2-2.2-0.3s-0.9-0.5-1.9,0.4
		c-1.2,0.8-2.8-0.1-4-0.5c-0.6-0.3-1.3,0-1.6,0.6c0,0.1-0.1,0.1-0.1,0.2c-0.1,0.3-0.9,0.1-1.4,0s-1.2-0.8-1.9-1.1
		c-1.1-0.4-2.5,1-2.8,1.4s-1.4,0.2-2.7,0.4c-1.2,0.1-2.4,0.1-3.6-0.1c-0.6-0.7-1.6-0.8-2.4-0.2c-0.5,0.4-1.1,0.4-1.6,0.1
		c-0.7-0.2-1.8-0.1-2.3-0.4c-0.7-0.3-1.5-0.3-2.2,0c-0.5-0.4-1.1-1.4-2.3-1.4c-1,0-1.2,0.1-2.1,1c-0.2,0.1-0.5,0.1-0.7,0
		c-0.1,0-0.2,0-0.3,0c-0.2-0.2-0.5-0.3-0.8-0.4c-0.2-0.1-0.5,0.4-0.7,0.9c-0.3-0.1-0.6-0.1-0.9-0.1c-0.5-0.9-1.4-1.5-2.5-1.5
		c-0.6-0.1-1.2,0.2-1.5,0.8c-0.1,0.1-0.2,0.2-0.3,0.2c-0.5-0.2-1-0.2-1.4,0.2c-0.8,0.1-1.5,0.1-1.8-0.3s-0.9-0.5-1.9,0.4
		c-1.2,0.8-2.8-0.1-4-0.5c-0.6-0.3-1.3-0.1-1.6,0.5c0,0.1-0.1,0.1-0.1,0.2c-0.1,0.3-0.9,0.1-1.4,0s-1.2-0.8-1.9-1.1
		c-1.1-0.4-2.5,1-2.8,1.4s-1.4,0.2-2.7,0.4c-1.2,0.1-2.4,0.1-3.6-0.1c-0.6-0.7-1.6-0.8-2.4-0.2c-0.5,0.4-1.1,0.4-1.6,0.1
		c-0.7-0.2-1.8-0.1-2.3-0.4c-0.7-0.3-1.5-0.3-2.2,0c-0.5-0.4-1.1-1.4-2.3-1.4s-1.2,0.2-2.8,1.6c0-0.6-0.9-0.8-1.2-1s-1,1.4-1,1.4
		c-1.2-0.7-1.9,0.4-2.2,0.5s-1.3-0.8-2.5-1.6c-0.5-0.4-1.1-0.4-1.6,0c0-0.3-0.1-0.5-0.3-0.8c-0.2-0.3-1.1,0.1-1.4,0.4
		c-0.3,0.3-0.7,0.3-1.1,0.2c-0.4-0.1-0.8,0.4-1,0.6s-0.8-0.2-1.7-0.2c-0.5-0.9-1.4-1.5-2.5-1.5c-0.6-0.1-1.2,0.2-1.5,0.8
		c-0.2,0.3-0.3,0.3-1.3,0.4S402,7,401.7,6.6s-0.9-0.5-1.9,0.4c-1.2,0.8-2.8-0.1-4-0.5c-0.6-0.3-1.3-0.1-1.7,0.5
		C394.1,7,394,7.1,394,7.2c-0.1,0.3-0.9,0.1-1.4,0s-1.2-0.8-1.9-1.1c-1.1-0.4-2.5,1-2.8,1.4s-1.4,0.2-2.7,0.4
		c-1.2,0.1-2.4,0.1-3.6-0.1c-0.6-0.7-1.6-0.8-2.3-0.2c0,0,0,0,0,0l0,0c-0.5,0.4-1.1,0.4-1.6,0.1c-0.8-0.2-1.8-0.1-2.3-0.4
		c-0.7-0.3-1.5-0.3-2.2,0c-0.5-0.4-1.1-1.4-2.3-1.4s-1.2,0.2-2.8,1.6c0-0.6-0.9-0.8-1.2-1s-1,1.4-1,1.4c-1.2-0.7-1.9,0.4-2.2,0.5
		s-1.1-1.2-2.4-1.2h-2v110.5h362.3V7.4C721.3,7.4,720.9,7.4,720.6,7.3z"/>
	
		<linearGradient id="SVGID_8_" gradientUnits="userSpaceOnUse" x1="540.4749" y1="-450.6891" x2="540.4749" y2="-412.8892" gradientTransform="matrix(1 0 0 1 0 504)">
		<stop  offset="0.12" style="stop-color:#7B4626"/>
		<stop  offset="0.53" style="stop-color:#6C391E"/>
		<stop  offset="0.88" style="stop-color:#6E3B1C"/>
	</linearGradient>
	<path class="st7" d="M720.7,7.4c-0.3-0.1-0.7-0.9-1.1-0.7S719.2,7,718.8,7s-0.8,0.4-1,0.6s-0.8-0.2-1.7-0.2
		c-0.5-0.9-1.4-1.5-2.5-1.5c-0.6-0.1-1.2,0.2-1.5,0.8c-0.2,0.3-0.3,0.3-1.3,0.4s-1.9,0.2-2.2-0.3s-0.9-0.5-1.9,0.4
		c-1.2,0.8-2.8-0.1-4-0.5c-0.6-0.3-1.3-0.1-1.6,0.5c0,0.1-0.1,0.1-0.1,0.2c-0.1,0.3-0.8,0.1-1.4,0s-1.2-0.8-1.9-1.1
		c-1.1-0.4-2.5,1-2.8,1.4s-1.4,0.2-2.7,0.4c-1.2,0.1-2.4,0.1-3.6-0.1c-0.6-0.7-1.6-0.8-2.4-0.2c-0.5,0.4-1.1,0.4-1.6,0.1
		c-0.7-0.2-1.8-0.1-2.3-0.4c-0.7-0.3-1.5-0.3-2.2,0C679.5,7,679,6.1,677.8,6s-1.2,0.2-2.8,1.6c0-0.6-0.8-0.8-1.2-1s-1,1.4-1,1.4
		c-1.2-0.7-1.9,0.4-2.2,0.5s-1.3-0.8-2.5-1.6c-0.3-0.2-0.6-0.3-1-0.2c0-0.2-0.1-0.4-0.2-0.5c-0.2-0.3-1.1,0.1-1.4,0.4
		c-0.3,0.3-0.7,0.3-1.1,0.2c-0.4-0.1-0.8,0.4-1,0.6s-0.8-0.2-1.7-0.2c-0.5-0.9-1.4-1.5-2.5-1.5c-0.6-0.1-1.2,0.2-1.5,0.8
		c-0.2,0.3-0.3,0.3-1.3,0.4s-1.9,0.2-2.2-0.3s-0.9-0.5-1.9,0.4c-1.2,0.8-2.8-0.1-4-0.5c-0.6-0.3-1.3,0-1.6,0.6
		c0,0.1-0.1,0.1-0.1,0.2c-0.1,0.3-0.8,0.1-1.4,0s-1.2-0.8-1.9-1.1c-1.1-0.4-2.5,1-2.8,1.4S639,7.8,637.8,8c-1.2,0.1-2.4,0.1-3.6-0.1
		c-0.6-0.7-1.6-0.8-2.4-0.2c-0.5,0.4-1.1,0.4-1.6,0.1c-0.7-0.2-1.8-0.1-2.3-0.4c-0.7-0.3-1.5-0.3-2.2,0c-0.5-0.4-1.1-1.4-2.3-1.4
		s-1.2,0.2-2.8,1.6c0-0.6-0.8-0.8-1.2-1s-1,1.4-1,1.4c-1.2-0.7-1.9,0.4-2.2,0.5s-1.3-0.8-2.5-1.6c-0.5-0.4-1.1-0.4-1.6,0
		c0-0.3-0.1-0.5-0.3-0.8c-0.2-0.3-1.1,0.1-1.4,0.4c-0.3,0.3-0.7,0.3-1.1,0.2c-0.4-0.1-0.8,0.4-1,0.6s-0.8-0.2-1.7-0.2
		c-0.5-0.9-1.4-1.5-2.5-1.5c-0.6-0.1-1.2,0.2-1.5,0.8c-0.2,0.3-0.3,0.3-1.3,0.4s-1.9,0.2-2.3-0.3s-0.9-0.5-1.9,0.4
		c-1.2,0.8-2.8-0.1-4-0.5c-0.6-0.3-1.3,0-1.6,0.6c0,0.1-0.1,0.1-0.1,0.2c-0.1,0.3-0.8,0.1-1.4,0s-1.2-0.8-1.9-1.1
		c-1.1-0.4-2.5,1-2.8,1.4s-1.4,0.2-2.7,0.4c-1.2,0.1-2.4,0.1-3.6-0.1c-0.6-0.7-1.6-0.8-2.4-0.2c-0.5,0.4-1.1,0.4-1.6,0.1
		c-0.7-0.2-1.8-0.1-2.3-0.4c-0.7-0.3-1.5-0.3-2.2,0c-0.5-0.4-1.1-1.4-2.3-1.4c-1,0-1.2,0.1-2.2,1h-0.2c-0.2,0-0.4,0.1-0.5,0.2
		c-0.3-0.3-0.6-0.4-1-0.6c-0.2-0.1-0.5,0.4-0.7,0.8h-0.5c-0.5-0.9-1.4-1.5-2.5-1.5c-0.6-0.1-1.2,0.2-1.5,0.8
		c-0.1,0.2-0.2,0.2-0.6,0.3c-0.5-0.3-1.2-0.2-1.6,0.2c-0.5,0.1-1,0-1.3-0.4c-0.4-0.5-0.9-0.5-1.9,0.4c-1.2,0.8-2.8-0.1-4-0.5
		c-0.6-0.3-1.3,0-1.6,0.6c0,0.1-0.1,0.1-0.1,0.2c-0.1,0.3-0.8,0.1-1.4,0s-1.2-0.8-1.9-1.1c-1.1-0.4-2.5,1-2.8,1.4s-1.4,0.2-2.7,0.4
		c-1.2,0.1-2.4,0.1-3.6-0.1C535,7.1,534,7,533.3,7.6c-0.5,0.4-1.1,0.4-1.6,0.1c-0.7-0.2-1.8-0.1-2.3-0.4c-0.7-0.3-1.5-0.3-2.2,0
		c-0.5-0.4-1.1-1.4-2.3-1.4s-1.2,0.2-2.8,1.6c0-0.6-0.8-0.8-1.2-1s-1,1.4-1,1.4c-1.2-0.7-1.9,0.4-2.2,0.5s-1.3-0.8-2.5-1.6
		c-0.5-0.4-1.1-0.4-1.6,0c0-0.3-0.1-0.5-0.3-0.8c-0.2-0.3-1.1,0.1-1.4,0.4c-0.3,0.3-0.7,0.3-1.1,0.2c-0.4-0.1-0.8,0.4-1,0.6
		s-0.8-0.2-1.7-0.2c-0.5-0.9-1.4-1.5-2.5-1.5c-0.6-0.1-1.2,0.2-1.5,0.8c-0.2,0.3-0.3,0.3-1.3,0.4s-1.9,0.2-2.2-0.3s-0.9-0.5-1.9,0.4
		c-1.2,0.8-2.8-0.1-4-0.5c-0.6-0.3-1.3,0-1.6,0.6c0,0.1-0.1,0.1-0.1,0.2c-0.1,0.3-0.9,0.1-1.4,0s-1.2-0.8-1.9-1.1
		c-1.1-0.4-2.5,1-2.8,1.4s-1.4,0.2-2.7,0.4c-1.2,0.1-2.4,0.1-3.6-0.1c-0.6-0.7-1.6-0.8-2.4-0.2c-0.5,0.4-1.1,0.4-1.6,0.1
		c-0.7-0.2-1.8-0.1-2.3-0.4c-0.7-0.3-1.5-0.3-2.2,0c-0.5-0.4-1.1-1.4-2.3-1.4c-1,0-1.2,0.1-2.1,1c-0.2,0.1-0.5,0.1-0.7,0
		c-0.1,0-0.2,0-0.3,0c-0.2-0.2-0.5-0.3-0.8-0.4c-0.2-0.1-0.5,0.4-0.7,0.9c-0.3-0.1-0.6-0.1-0.9-0.1c-0.5-0.9-1.4-1.5-2.5-1.5
		c-0.6-0.1-1.2,0.2-1.5,0.8c-0.1,0.1-0.2,0.2-0.3,0.2c-0.5-0.2-1-0.2-1.4,0.2c-0.8,0.1-1.5,0.1-1.8-0.3s-0.9-0.5-1.9,0.4
		c-1.2,0.8-2.8-0.1-4-0.5c-0.6-0.3-1.3-0.1-1.6,0.5c0,0.1-0.1,0.1-0.1,0.2c-0.1,0.3-0.9,0.1-1.4,0s-1.2-0.8-1.9-1.1
		c-1.1-0.4-2.5,1-2.8,1.4s-1.4,0.2-2.7,0.4c-1.2,0.1-2.4,0.1-3.6-0.1c-0.6-0.7-1.6-0.8-2.4-0.2c-0.5,0.4-1.1,0.4-1.6,0.1
		c-0.7-0.2-1.8-0.1-2.3-0.4c-0.7-0.3-1.5-0.3-2.2,0c-0.5-0.4-1.1-1.4-2.3-1.4s-1.2,0.2-2.8,1.6c0-0.6-0.9-0.8-1.2-1s-1,1.4-1,1.4
		c-1.2-0.7-1.9,0.4-2.2,0.5s-1.3-0.8-2.5-1.6c-0.5-0.4-1.1-0.4-1.6,0c0-0.3-0.1-0.5-0.3-0.8c-0.2-0.3-1.1,0.1-1.4,0.4
		c-0.3,0.3-0.7,0.3-1.1,0.2c-0.4-0.1-0.8,0.4-1,0.6s-0.8-0.2-1.7-0.2c-0.5-0.9-1.4-1.5-2.5-1.5c-0.6-0.1-1.2,0.2-1.5,0.8
		c-0.2,0.3-0.3,0.3-1.3,0.4S402,7,401.7,6.6s-0.9-0.5-1.9,0.4c-1.2,0.8-2.8-0.1-4-0.5c-0.6-0.3-1.3-0.1-1.7,0.5
		C394.1,7,394,7.1,394,7.2c-0.1,0.3-0.9,0.1-1.4,0s-1.2-0.8-1.9-1.1c-1.1-0.4-2.5,1-2.8,1.4s-1.4,0.2-2.7,0.4
		c-1.2,0.1-2.4,0.1-3.6-0.1c-0.6-0.7-1.6-0.8-2.3-0.2c0,0,0,0,0,0l0,0c-0.5,0.4-1.1,0.4-1.6,0.1c-0.8-0.2-1.8-0.1-2.3-0.4
		c-0.7-0.3-1.5-0.3-2.2,0c-0.5-0.4-1.1-1.4-2.3-1.4s-1.2,0.2-2.8,1.6c0-0.6-0.9-0.8-1.2-1s-1,1.4-1,1.4c-1.2-0.7-1.9,0.4-2.2,0.5
		s-1.1-1.2-2.4-1.2h-2v78.5c0.6,0.1,1.2,0,1.8-0.1c0.6-0.2,0.7,0.4,1.8,0.4s2.2,0.1,2.5-0.2s0.8-0.1,1.7,0.2s1.5,0.2,2.1,0.5
		c0.7,0.3,1.4,0.5,2.2,0.6c0.6,0.2,0.9-0.8,2.2-0.7s3.2,0.4,3.8,0c0.4-0.5,1.1-0.7,1.8-0.5c1.5,0.3,2.9,0.5,4.4,0.5
		c2.1,0,3.2-0.8,4.2-0.5c1.2,0.3,2.4,0.5,3.6,0.4c1.1,0,2.2-0.2,3.3-0.5c0.6-0.2,1,0,1.5,0.2s1-0.3,2,0c0.8,0.2,1.6,0.3,2.5,0.2
		c0.9,0,1.5-0.6,2.3-0.3s2.3,1,3.2,0.6s1.3-0.6,1.9-0.4c0.7,0.2,1.3,0.2,2,0c0.7-0.3,1.4-0.3,2.1-0.1c0.8,0.3,1.6,0.3,2.4,0v0.6
		c0.6,0.4,1.4,0.8,1.8,0.6c0.5-0.3,1.2-0.4,1.8-0.3c1.1,0,2.2,0.1,2.5-0.2c0.3-0.6,1-0.9,1.7-0.6c0.9,0.4,1.5,0.2,2.1,0.5
		c0.7,0.3,1.4,0.5,2.2,0.6c0.6,0.2,0.9-0.8,2.2-0.7s3.2,0.4,3.8,0c0.4-0.5,1.1-0.7,1.8-0.5c1.5,0.3,2.9,0.5,4.4,0.5
		c2.1,0,3.2-0.8,4.2-0.5c1.2,0.3,2.4,0.5,3.6,0.4c1.1,0,2.2-0.2,3.3-0.5c0.6-0.2,1,0,1.5,0.2s1-0.3,2,0c0.8,0.2,1.6,0.3,2.5,0.2
		c0.9,0,1.5-0.6,2.3-0.3l0.3,0.1v0.5c0.6,0.4,1.4,0.8,1.8,0.6c0.5-0.3,1.2-0.4,1.8-0.3c1.1,0,2.2,0.1,2.5-0.2
		c0.1-0.2,0.2-0.3,0.4-0.5l0.3-0.1c0.2-0.1,0.4-0.1,0.6-0.2c0.1,0,0.2,0,0.3,0.1c0.9,0.4,1.5,0.2,2.1,0.5c0.7,0.3,1.4,0.5,2.2,0.6
		c0.6,0.2,0.9-0.8,2.2-0.7s3.2,0.4,3.8,0c0.4-0.5,1.1-0.7,1.8-0.5c1.5,0.3,2.9,0.5,4.4,0.5c2.1,0,3.2-0.8,4.2-0.5
		c1.2,0.3,2.4,0.5,3.6,0.4c1.1,0,2.2-0.2,3.3-0.5c0.6-0.2,1,0,1.5,0.2s0.9-0.3,2,0c0.8,0.2,1.6,0.3,2.5,0.2c0.9,0,1.5-0.6,2.3-0.3
		s2.3,1,3.2,0.6s1.3-0.6,1.9-0.4c0.7,0.2,1.3,0.2,2,0c0.7-0.2,1.5-0.1,2.2,0.3c0.8,0.3,1.6,0.3,2.4,0v0.6c0.6,0.4,1.4,0.8,1.8,0.6
		c0.5-0.3,1.2-0.4,1.8-0.3c1.1,0,2.2,0.1,2.5-0.2c0.3-0.6,1-0.9,1.6-0.7c0.8,0.4,1.5,0.2,2.1,0.5c0.7,0.3,1.4,0.5,2.2,0.6
		c0.6,0.2,0.9-0.8,2.2-0.7s3.2,0.4,3.8,0c0.4-0.5,1.1-0.7,1.8-0.5c1.5,0.3,2.9,0.5,4.4,0.5c2.1,0,3.2-0.8,4.2-0.5
		c1.2,0.3,2.4,0.5,3.6,0.4c1.1,0,2.2-0.2,3.3-0.5c0.6-0.2,1,0,1.5,0.2s1-0.3,2,0c0.8,0.2,1.6,0.3,2.5,0.2c0.8,0,1.4-0.5,2.2-0.4v0.7
		c0.6,0.4,1.4,0.8,1.8,0.6c0.5-0.3,1.2-0.4,1.8-0.3c1.1,0,2.2,0.1,2.5-0.2c0.1-0.2,0.2-0.3,0.4-0.4c0.3,0,0.5,0,0.8-0.1l0.4-0.1h0.1
		c0.8,0.4,1.5,0.2,2.1,0.5c0.7,0.3,1.4,0.5,2.2,0.6c0.6,0.2,0.9-0.8,2.2-0.7s3.2,0.4,3.8,0c0.4-0.5,1.1-0.7,1.8-0.5
		c1.5,0.3,2.9,0.5,4.4,0.5c2.1,0,3.2-0.8,4.2-0.5c1.2,0.3,2.4,0.5,3.6,0.4c1.1,0,2.2-0.2,3.3-0.5c0.6-0.2,1,0,1.5,0.2s1-0.3,2,0
		c0.8,0.2,1.6,0.3,2.5,0.2c0.8,0,1.5-0.6,2.3-0.3s2.3,1,3.2,0.6s1.3-0.6,1.9-0.4c0.7,0.2,1.3,0.2,2,0c0.7-0.3,1.4-0.3,2.1-0.1
		c0.8,0.3,1.6,0.3,2.4,0v0.6c0.6,0.4,1.4,0.8,1.8,0.6c0.5-0.3,1.2-0.4,1.8-0.3c1.1,0,2.2,0.1,2.5-0.2c0.3-0.6,1-0.9,1.7-0.6
		c0.8,0.4,1.5,0.2,2.1,0.5c0.7,0.3,1.4,0.5,2.2,0.6c0.6,0.2,0.9-0.8,2.2-0.7s3.2,0.4,3.8,0c0.4-0.5,1.1-0.7,1.8-0.5
		c1.5,0.3,2.9,0.5,4.4,0.5c2.1,0,3.2-0.8,4.2-0.5c1.2,0.3,2.4,0.5,3.6,0.4c1.1,0,2.2-0.2,3.3-0.5c0.5-0.2,1.1-0.1,1.5,0.2
		c0.5,0.2,1-0.3,2,0c0.8,0.2,1.6,0.3,2.5,0.2c0.8,0,1.5-0.6,2.3-0.3s2.3,1,3.2,0.6s1.3-0.6,1.9-0.4c0.7,0.2,1.3,0.2,2,0
		c0.7-0.3,1.4-0.3,2.1-0.1c0.5,0.2,1.1,0.3,1.7,0.2v0.4c0.6,0.4,1.4,0.8,1.8,0.6c0.5-0.3,1.2-0.4,1.8-0.3c1.1,0,2.2,0.1,2.5-0.2
		c0.3-0.6,1-0.9,1.7-0.6c0.8,0.4,1.5,0.2,2.1,0.5c0.7,0.3,1.4,0.5,2.2,0.6c0.6,0.2,0.9-0.8,2.2-0.7s3.2,0.4,3.8,0
		c0.4-0.5,1.1-0.7,1.8-0.5c1.5,0.3,2.9,0.5,4.4,0.5c2.1,0,3.2-0.8,4.2-0.5c1.2,0.3,2.4,0.5,3.6,0.4c1.1,0,2.2-0.2,3.3-0.5
		c0.5-0.2,1.1-0.1,1.5,0.2c0.5,0.2,1-0.3,2,0c0.8,0.2,1.6,0.3,2.5,0.2c0.8,0,1.5-0.6,2.3-0.3s2.3,1,3.2,0.6s1.3-0.6,1.9-0.4
		c0.7,0.2,1.3,0.2,2,0c0.7-0.3,1.4-0.3,2.1-0.1c0.4,0.2,1.4-0.2,2.8-0.2V7.4C721.3,7.5,721,7.4,720.7,7.4z"/>
	
		<linearGradient id="SVGID_9_" gradientUnits="userSpaceOnUse" x1="540.54" y1="-488.9192" x2="540.54" y2="-447.6092" gradientTransform="matrix(1 0 0 1 0 504)">
		<stop  offset="0.18" style="stop-color:#9C673F"/>
		<stop  offset="0.69" style="stop-color:#8B5531"/>
	</linearGradient>
	<path class="st8" d="M720.3,7.3c-0.2-0.2-0.4-0.6-0.6-0.5s-0.5,0.4-0.9,0.3s-0.8,0.4-1,0.6s-0.8-0.2-1.7-0.2
		c-0.5-0.9-1.4-1.5-2.5-1.5c-0.6-0.1-1.2,0.2-1.5,0.8c-0.2,0.3-0.3,0.3-1.3,0.4s-1.9,0.2-2.2-0.3s-0.9-0.5-1.9,0.4
		c-1.2,0.8-2.8-0.1-4-0.5c-0.6-0.3-1.3-0.1-1.6,0.5c0,0.1-0.1,0.1-0.1,0.2c-0.1,0.3-0.8,0.1-1.4,0c-0.7-0.3-1.3-0.7-1.9-1.1
		c-1.1-0.4-2.5,1-2.8,1.4s-1.4,0.2-2.7,0.4c-1.2,0.1-2.4,0.1-3.6-0.1c-0.6-0.7-1.6-0.8-2.3-0.2c0,0,0,0,0,0
		c-0.5,0.4-1.1,0.4-1.6,0.1c-0.7-0.2-1.8-0.1-2.3-0.4c-0.7-0.3-1.5-0.3-2.2,0c-0.5-0.4-1.1-1.4-2.3-1.5s-1.2,0.2-2.8,1.6
		c0-0.6-0.8-0.8-1.2-1s-1,1.5-1,1.5c-1.2-0.7-1.9,0.4-2.2,0.5s-1.3-0.8-2.5-1.6c-0.3-0.2-0.6-0.3-1-0.2c0-0.2-0.1-0.4-0.2-0.5
		c-0.2-0.2-1.1,0.1-1.4,0.5c-0.3,0.3-0.7,0.3-1.1,0.2c-0.4-0.1-0.8,0.4-1,0.6s-0.8-0.2-1.7-0.2c-0.5-0.9-1.4-1.5-2.5-1.5
		c-0.6-0.1-1.3,0.2-1.5,0.8c-0.2,0.3-0.3,0.3-1.3,0.4s-1.9,0.2-2.2-0.3s-0.9-0.5-1.9,0.4c-1.2,0.8-2.8-0.1-4-0.5
		c-0.6-0.3-1.3-0.1-1.6,0.6c0,0.1-0.1,0.1-0.1,0.2c-0.1,0.3-0.8,0.1-1.4,0c-0.7-0.3-1.3-0.7-1.9-1.1c-1.1-0.4-2.5,1-2.8,1.4
		s-1.4,0.2-2.7,0.4c-1.2,0.1-2.4,0.1-3.6-0.1c-1.1-0.9-1.7-0.6-2.4-0.2c-0.5,0.4-1.1,0.4-1.6,0.1c-0.7-0.2-1.8-0.1-2.3-0.4
		c-0.7-0.3-1.5-0.3-2.2,0c-0.5-0.4-1.1-1.4-2.3-1.5s-1.2,0.2-2.8,1.6c0-0.6-0.8-0.8-1.2-1s-1,1.5-1,1.5c-1.2-0.7-1.9,0.4-2.2,0.5
		S615,8,613.8,7.2c-0.5-0.4-1.1-0.4-1.6,0c0-0.3-0.1-0.5-0.3-0.8c-0.2-0.2-1.1,0.1-1.4,0.5c-0.3,0.3-0.7,0.3-1.1,0.2
		c-0.4-0.1-0.8,0.4-1,0.6s-0.8-0.2-1.7-0.2c-0.5-0.9-1.4-1.5-2.5-1.5c-0.6-0.1-1.3,0.2-1.5,0.8c-0.2,0.3-0.3,0.3-1.3,0.4
		s-1.9,0.2-2.3-0.3s-0.9-0.5-1.9,0.4c-1.2,0.8-2.8-0.1-4-0.5c-0.6-0.3-1.3-0.1-1.6,0.5c0,0.1-0.1,0.1-0.1,0.2
		c-0.1,0.3-0.8,0.1-1.4,0c-0.7-0.3-1.3-0.7-1.9-1.1c-1.1-0.4-2.5,1-2.8,1.4s-1.4,0.2-2.7,0.4c-1.2,0.1-2.4,0.1-3.6-0.1
		c-1.1-0.9-1.7-0.6-2.4-0.2c-0.5,0.4-1.1,0.4-1.6,0.1c-0.7-0.2-1.8-0.1-2.3-0.4c-0.7-0.3-1.5-0.3-2.2,0c-0.5-0.4-1.1-1.4-2.3-1.5
		c-1-0.1-1.2,0.1-2.2,1h-0.2c-0.2,0-0.4,0.1-0.5,0.2c-0.3-0.2-0.6-0.4-1-0.6c-0.2-0.1-0.5,0.4-0.7,0.8c-0.2,0-0.3,0-0.5,0
		c-0.5-0.9-1.4-1.5-2.5-1.5c-0.6-0.1-1.3,0.2-1.5,0.8c-0.1,0.2-0.2,0.2-0.6,0.3c-0.5-0.3-1.2-0.2-1.6,0.2c-0.5,0.1-1,0-1.3-0.4
		c-0.4-0.5-0.9-0.5-1.9,0.4c-1.2,0.8-2.8-0.1-4-0.5c-0.6-0.3-1.3-0.1-1.6,0.5c0,0.1-0.1,0.1-0.1,0.2c-0.1,0.3-0.8,0.1-1.4,0
		c-0.7-0.3-1.3-0.7-1.9-1.1c-1.1-0.4-2.5,1-2.8,1.4s-1.4,0.2-2.7,0.4c-1.2,0.1-2.4,0.1-3.6-0.1c-0.6-0.7-1.6-0.8-2.3-0.2
		c0,0,0,0,0,0c-0.5,0.4-1.1,0.4-1.6,0.1c-0.7-0.2-1.8-0.1-2.3-0.4c-0.7-0.3-1.5-0.3-2.2,0c-0.5-0.4-1.1-1.4-2.3-1.5
		s-1.2,0.2-2.8,1.6c0-0.6-0.8-0.8-1.2-1s-1,1.5-1,1.5c-1.2-0.7-1.9,0.4-2.2,0.5s-1.3-0.8-2.5-1.6c-0.5-0.4-1.1-0.4-1.6,0
		c0-0.3-0.1-0.5-0.3-0.8c-0.2-0.2-1.1,0.1-1.4,0.5c-0.3,0.3-0.7,0.3-1.1,0.2c-0.4-0.1-0.8,0.4-1,0.6s-0.8-0.2-1.7-0.2
		c-0.5-0.9-1.4-1.5-2.5-1.5c-0.6-0.1-1.3,0.2-1.5,0.8c-0.2,0.3-0.3,0.3-1.3,0.4s-1.9,0.2-2.2-0.3s-0.9-0.5-1.9,0.4
		c-1.2,0.8-2.8-0.1-4-0.5c-0.6-0.3-1.3-0.1-1.6,0.5c0,0.1-0.1,0.1-0.1,0.2c-0.1,0.3-0.9,0.1-1.4,0c-0.7-0.3-1.3-0.7-1.9-1.1
		c-1.1-0.4-2.5,1-2.8,1.4s-1.4,0.2-2.7,0.4c-1.2,0.1-2.4,0.1-3.6-0.1c-1.1-0.9-1.7-0.6-2.4-0.2c-0.5,0.4-1.1,0.4-1.6,0.1
		c-0.7-0.2-1.8-0.1-2.3-0.4c-0.7-0.4-1.5-0.4-2.2,0c-0.5-0.4-1.1-1.4-2.3-1.5c-1-0.1-1.2,0.1-2.1,1c-0.2,0-0.5,0-0.7,0
		c-0.1,0-0.2,0-0.3,0c-0.2-0.2-0.5-0.3-0.8-0.4c-0.2-0.1-0.5,0.4-0.7,0.9c-0.3-0.1-0.6-0.1-0.9-0.1c-0.5-0.9-1.4-1.5-2.5-1.5
		c-0.6-0.1-1.3,0.2-1.5,0.8C460.2,6.9,460.1,7,460,7c-0.5-0.2-1.1-0.2-1.4,0.2c-0.8,0.1-1.5,0.1-1.8-0.3s-0.9-0.5-1.9,0.4
		c-1.2,0.8-2.8-0.1-4-0.5c-0.6-0.3-1.3-0.1-1.6,0.5c0,0.1-0.1,0.1-0.1,0.2c-0.1,0.3-0.9,0.1-1.4,0c-0.7-0.3-1.3-0.7-1.9-1.1
		c-1.1-0.4-2.5,1-2.8,1.4s-1.4,0.2-2.7,0.4c-1.2,0.1-2.4,0.1-3.6-0.1c-0.6-0.7-1.6-0.8-2.3-0.2c0,0,0,0,0,0l0,0
		c-0.5,0.4-1.1,0.4-1.6,0.1c-0.7-0.2-1.8-0.1-2.3-0.4c-0.7-0.3-1.5-0.3-2.2,0c-0.5-0.4-1.1-1.4-2.3-1.5s-1.2,0.2-2.8,1.6
		c0-0.6-0.9-0.8-1.2-1s-1,1.5-1,1.5c-1.2-0.7-1.9,0.4-2.2,0.5s-1.3-0.8-2.5-1.6c-0.5-0.4-1.1-0.4-1.6,0c0-0.3-0.1-0.5-0.3-0.8
		c-0.2-0.2-1.1,0.1-1.4,0.5c-0.3,0.3-0.6,0.4-1,0.4c-0.4-0.1-0.8,0.4-1,0.6s-0.8-0.2-1.7-0.2c-0.5-0.9-1.4-1.5-2.5-1.5
		c-0.6-0.1-1.2,0.2-1.5,0.8c-0.2,0.3-0.3,0.3-1.3,0.4s-1.9,0.2-2.2-0.3s-0.9-0.5-1.9,0.4c-1.2,0.8-2.8-0.1-4-0.5
		c-0.6-0.3-1.3-0.1-1.6,0.6c0,0.1-0.1,0.1-0.1,0.2c-0.1,0.3-0.9,0.1-1.4,0c-0.7-0.3-1.3-0.7-1.9-1.1c-1.1-0.4-2.5,1-2.8,1.4
		s-1.4,0.2-2.7,0.4c-1.2,0.1-2.4,0.1-3.6-0.1c-0.6-0.7-1.6-0.8-2.3-0.2c0,0,0,0,0,0c-0.5,0.4-1.1,0.4-1.6,0.1
		C377,7.9,376,8,375.5,7.7c-0.7-0.3-1.5-0.3-2.2,0c-0.5-0.4-1.1-1.4-2.3-1.5s-1.2,0.2-2.8,1.6c0-0.6-0.9-0.8-1.2-1s-1,1.5-1,1.5
		c-1.2-0.7-1.9,0.4-2.2,0.5s-1.2-1.1-2.5-1.1s-2-0.1-2-0.1v54.1c1,0,1.2-0.3,1.6-0.1c0.6,0.1,1.1,0,1.6-0.2c0.4-0.4,1-0.5,1.5-0.3
		c0.8,0.3,1.2,0.4,1.6-0.1s1.1-0.1,1.6,0.2s1.5,0.2,1.8,0.4s1,1.2,2.2,1s1.1-0.2,1.6,0.1s0.9,0.2,1.5,0s0.9-0.8,1.3-0.4
		s0.9,0.4,2.1,0.3s3.5-0.8,4.2-0.5s1.1,0.8,1.3,0.6c0.4-0.5,1-0.7,1.6-0.7c0.9,0.1,1.9,0,2.8-0.1c0.7-0.3,1.5-0.3,2.2,0
		c0.7,0.3,0.6,0.5,1.4,0.4c0.8-0.1,1.6-0.1,2.3,0c1.1-0.2,2.2-0.5,3.3-1c0.5-0.2,1.1-0.1,1.5,0.2c0.6,0.3,1,0.5,1.5,0.3
		s0.6-0.1,2.1,0.1c1.1,0.2,2.3,0.2,3.4,0c0.5-0.2,0.7-0.7,1.6-0.4s0.9,0,1.4-0.1c0.6-0.2,1.3-0.2,1.9,0c0.6,0.2,1.4,0.1,2.1,0.4
		c0.6,0.1,1.3,0.1,1.9,0v1.3l0.3-0.5c0.3-0.3,0.4-0.6,0.8-0.4c0.3,0.1,0.6,0.1,0.9,0c0.2,0,0.5,0.5,0.8,0.3s0.6-1,1.4-0.7
		s1.2,0.3,1.6-0.1s1-0.2,1.5,0.1s0.8,0.6,1.3,0.6s0.7,0.3,1.1,0.5s1-0.2,2.2-0.5s1.1-0.2,1.6,0.1s0.9,0.2,1.5,0s0.9-0.8,1.3-0.4
		s0.9,0.4,2.1,0.3s3.6-0.8,4.2-0.5s1.1,0.8,1.3,0.6c0.4-0.4,1-0.6,1.5-0.5c0.9,0.1,1.9,0,2.8-0.1c0.7-0.3,1.5-0.3,2.2,0
		c0.7,0.3,0.6,0.5,1.4,0.4c0.8-0.1,1.6-0.1,2.3,0c1.1-0.2,2.2-0.5,3.3-1c0.5-0.2,1.1-0.1,1.5,0.2c0.6,0.3,1,0.5,1.5,0.3
		s0.6-0.1,2.1,0.1c0.4,0,0.7,0.1,1.1,0.1v1l0.4-0.5c0.3-0.3,0.4-0.6,0.8-0.4c0.3,0.1,0.6,0.1,0.9,0c0.2,0,0.4,0.5,0.8,0.3
		s0.6-1,1.4-0.7s1.2,0.3,1.6-0.1s1-0.2,1.5,0.1s0.8,0.6,1.3,0.6s0.7,0.3,1.1,0.5s1-0.2,2.2-0.5s1.1-0.2,1.6,0.1s0.9,0.2,1.5,0
		s0.9-0.8,1.3-0.4s0.9,0.4,2.1,0.3s3.6-0.8,4.2-0.5s1.1,0.8,1.3,0.6c0.4-0.5,1-0.7,1.6-0.7c0.9,0.1,1.9,0,2.8-0.1
		c0.7-0.3,1.5-0.3,2.2,0c0.7,0.3,0.6,0.5,1.4,0.4c0.8-0.1,1.6-0.1,2.3,0c1.1-0.2,2.2-0.5,3.3-1c0.5-0.2,1.1-0.1,1.5,0.2
		c0.6,0.3,1,0.5,1.5,0.3s0.6-0.1,2.1,0.1c1.1,0.2,2.3,0.2,3.4,0c0.5-0.2,0.7-0.7,1.6-0.4s0.9,0,1.4-0.1c0.6-0.2,1.3-0.2,1.9,0
		c0.6,0.2,1.4,0.1,2.1,0.4c0.6,0.1,1.3,0.1,1.9,0v1.4l0.3-0.5c0.3-0.3,0.4-0.6,0.8-0.4c0.3,0.1,0.6,0.1,0.9,0c0.2,0,0.4,0.5,0.8,0.3
		s0.6-1,1.4-0.7s1.2,0.3,1.6-0.1s1-0.2,1.5,0.1s0.8,0.6,1.3,0.6s0.7,0.3,1.1,0.5s1-0.2,2.2-0.5s1.1-0.2,1.6,0.1s0.8,0.2,1.5,0
		s0.9-0.8,1.3-0.4s0.9,0.4,2.1,0.3s3.6-0.8,4.2-0.5s1.1,0.8,1.3,0.6c0.4-0.5,1-0.7,1.6-0.7c0.9,0.1,1.9,0,2.8-0.1
		c0.7-0.3,1.5-0.3,2.2,0c0.7,0.3,0.6,0.5,1.4,0.4c0.8-0.1,1.6-0.1,2.3,0c1.1-0.2,2.2-0.5,3.3-1c0.5-0.2,1.1-0.1,1.5,0.2
		c0.6,0.3,1,0.5,1.5,0.3s0.6-0.1,2.2,0.1l0.6,0.1v1.2l0.3-0.5c0.3-0.3,0.4-0.6,0.8-0.4c0.3,0.1,0.6,0.1,0.9,0c0.2,0,0.5,0.5,0.8,0.3
		s0.6-1,1.4-0.7s1.2,0.3,1.6-0.1s1-0.2,1.5,0.1s0.8,0.6,1.3,0.6s0.7,0.3,1.1,0.5s1-0.2,2.2-0.5s1.1-0.2,1.6,0.1s0.8,0.2,1.5,0
		s0.9-0.8,1.3-0.4s0.9,0.4,2.2,0.3s3.6-0.8,4.2-0.5s1.1,0.8,1.3,0.6c0.4-0.5,1-0.7,1.6-0.7c0.9,0.1,1.9,0,2.8-0.1
		c0.7-0.3,1.5-0.3,2.2,0c0.7,0.3,0.6,0.5,1.4,0.4c0.8-0.1,1.6-0.1,2.3,0c1.1-0.2,2.2-0.5,3.3-1c0.5-0.2,1.1-0.1,1.5,0.2
		c0.6,0.3,1,0.5,1.5,0.3s0.6-0.1,2.1,0.1c1.1,0.2,2.3,0.2,3.4,0c0.5-0.2,0.7-0.7,1.6-0.4s0.9,0,1.3-0.1c0.6-0.2,1.3-0.2,1.9,0
		c0.6,0.2,1.3,0.1,2.1,0.4c0.6,0.1,1.3,0.1,1.9,0v1.4l0.3-0.5c0.3-0.3,0.4-0.6,0.8-0.4c0.3,0.1,0.6,0.1,0.9,0c0.2,0,0.4,0.5,0.8,0.3
		s0.6-1,1.4-0.7s1.2,0.3,1.6-0.1s1-0.2,1.5,0.1s0.8,0.6,1.3,0.6s0.7,0.3,1.1,0.5s1-0.2,2.2-0.5s1.1-0.2,1.6,0.1s0.8,0.2,1.5,0
		s0.9-0.8,1.3-0.4s0.9,0.4,2.1,0.3s3.6-0.8,4.2-0.5s1.1,0.8,1.3,0.6c0.4-0.5,1-0.7,1.6-0.7c0.9,0.1,1.9,0,2.8-0.1
		c0.7-0.3,1.5-0.3,2.2,0c0.7,0.3,0.6,0.5,1.4,0.4c0.8-0.1,1.6-0.1,2.3,0c1.1-0.2,2.2-0.5,3.3-1c0.5-0.2,1.1-0.1,1.5,0.2
		c0.6,0.3,1,0.5,1.5,0.3s0.6-0.1,2.2,0.1c1.8,0.2,3.6-0.5,5.5-0.4c0.7,0.1,1.4-0.3,2.1-0.2s1.7,0.3,2.6,0.4c0.6,0.1,1.3,0.1,1.5,1.2
		c1-0.4,1.9-0.3,2.8-0.6c0.5-0.2,1-0.3,1.5-0.3c0.7,0,1.4,0,2-0.2c0.8-0.2,1.5,0.8,2.3,0.8c0.5,0,0.7,0.3,1.1,0.5s1-0.2,2.2-0.5
		s1.1-0.2,1.6,0.1s0.8,0.2,1.5,0s0.9-0.8,1.3-0.4s0.9,0.4,2.2,0.3s3.6-0.8,4.2-0.5s1.1,0.8,1.3,0.6c0.4-0.5,1-0.7,1.6-0.7
		c0.9,0.1,1.9,0,2.8-0.1c0.7-0.3,1.5-0.3,2.2,0c0.7,0.3,0.6,0.5,1.4,0.4c0.8-0.1,1.6-0.1,2.3,0c1.1-0.2,2.2-0.5,3.3-1
		c0.5-0.2,1.1-0.1,1.5,0.2c0.6,0.3,1,0.5,1.5,0.3s0.6-0.1,2.2,0.1c1.1,0.2,2.3,0.2,3.4,0c0.5-0.2,0.7-0.7,1.6-0.4s0.9,0,1.4-0.1
		c0.6-0.2,1.3-0.2,1.9,0c0.6,0.2,1.3,0.1,2.1,0.4c0.8,0.1,1.5,0,2.3-0.2V7.7C721.1,7.6,720.5,7.6,720.3,7.3z"/>
	
		<linearGradient id="SVGID_10_" gradientUnits="userSpaceOnUse" x1="540.645" y1="-488.2892" x2="540.645" y2="-444.4691" gradientTransform="matrix(1 0 0 1 0 504)">
		<stop  offset="0.18" style="stop-color:#9C673F"/>
		<stop  offset="0.69" style="stop-color:#8B5531"/>
	</linearGradient>
	<path class="st9" d="M720.6,7.6c-0.5,0-0.3-0.5-0.7-0.6s-0.8,0.3-1.1,0.2s-0.8,0.4-1,0.6S717,7.6,716,7.7c-0.5-0.9-1.4-1.5-2.5-1.5
		c-0.6-0.1-1.3,0.2-1.5,0.8c-0.2,0.3-0.3,0.3-1.3,0.4s-1.9,0.2-2.2-0.3s-0.9-0.5-1.9,0.4c-1.2,0.8-2.8-0.1-4-0.5
		c-0.6-0.3-1.3-0.1-1.6,0.6c0,0.1-0.1,0.1-0.1,0.2c-0.1,0.3-0.8,0.1-1.4,0s-1.2-0.8-1.9-1.1c-1.1-0.4-2.5,1-2.8,1.4
		s-1.4,0.2-2.7,0.4c-1.2,0.1-2.4,0.1-3.6-0.1c-1.1-0.9-1.7-0.6-2.4-0.2c-0.5,0.3-1.1,0.4-1.6,0.1c-0.7-0.2-1.8-0.1-2.3-0.4
		c-0.7-0.3-1.5-0.3-2.2,0c-0.5-0.4-1.1-1.4-2.3-1.5s-1.2,0.2-2.8,1.6c0-0.6-0.8-0.8-1.2-1s-1,1.4-1,1.4c-1.2-0.7-1.9,0.4-2.2,0.5
		s-1.3-0.8-2.5-1.5c-0.3-0.2-0.6-0.3-1-0.2c0-0.2-0.1-0.3-0.2-0.5c-0.2-0.3-1.1,0.1-1.4,0.5c-0.3,0.3-0.7,0.3-1.1,0.2
		c-0.4-0.1-0.8,0.4-1,0.6s-0.8-0.2-1.7-0.2c-0.5-0.9-1.4-1.5-2.5-1.5c-0.6-0.1-1.3,0.2-1.5,0.8c-0.2,0.3-0.3,0.3-1.3,0.4
		s-1.9,0.2-2.2-0.3s-0.9-0.5-1.9,0.4c-1.2,0.8-2.8-0.1-4-0.5c-0.6-0.3-1.3-0.1-1.6,0.6c0,0.1-0.1,0.1-0.1,0.2
		c-0.1,0.3-0.8,0.1-1.4,0s-1.2-0.8-1.9-1.1c-1.1-0.4-2.5,1-2.8,1.4s-1.4,0.2-2.7,0.4c-1.2,0.1-2.4,0.1-3.6-0.1
		c-0.6-0.7-1.6-0.8-2.4-0.2c-0.5,0.4-1.1,0.4-1.6,0.1c-0.8-0.2-1.8-0.1-2.3-0.4c-0.7-0.3-1.5-0.3-2.2,0c-0.5-0.4-1.1-1.4-2.3-1.5
		s-1.2,0.2-2.8,1.6c0-0.6-0.8-0.8-1.2-1s-1,1.4-1,1.4c-1.2-0.7-1.9,0.4-2.2,0.5s-1.3-0.8-2.5-1.5c-0.5-0.4-1.1-0.4-1.6,0
		c0-0.3-0.1-0.5-0.3-0.8c-0.2-0.3-1.1,0.1-1.4,0.5c-0.3,0.3-0.7,0.3-1.1,0.2c-0.4-0.1-0.8,0.4-1,0.6s-0.8-0.2-1.7-0.2
		c-0.5-0.9-1.4-1.5-2.5-1.5c-0.6-0.1-1.3,0.2-1.5,0.8c-0.2,0.3-0.3,0.3-1.3,0.4S599.3,7.5,599,7s-0.9-0.5-1.9,0.4
		c-1.2,0.8-2.8-0.1-4-0.5c-0.6-0.3-1.3-0.1-1.6,0.6c0,0.1-0.1,0.1-0.1,0.2c-0.1,0.3-0.8,0.1-1.4,0s-1.2-0.8-1.9-1.1
		c-1.1-0.4-2.5,1-2.8,1.4s-1.4,0.2-2.7,0.4c-1.2,0.1-2.4,0.1-3.6-0.1c-1.1-0.9-1.7-0.6-2.4-0.2c-0.5,0.4-1.1,0.4-1.6,0.1
		c-0.7-0.2-1.8-0.1-2.3-0.4c-0.7-0.3-1.5-0.3-2.2,0c-0.5-0.4-1.1-1.4-2.3-1.5c-1,0-1.2,0.1-2.2,1h-0.2c-0.2,0-0.4,0.1-0.5,0.2
		c-0.3-0.3-0.6-0.4-1-0.6c-0.2-0.1-0.5,0.4-0.7,0.8c-0.2,0-0.3,0-0.5,0c-0.5-0.9-1.4-1.5-2.5-1.5c-0.6-0.1-1.3,0.2-1.5,0.8
		c-0.1,0.2-0.2,0.2-0.6,0.3c-0.5-0.3-1.2-0.3-1.6,0.2c-0.5,0.1-1,0-1.3-0.4c-0.4-0.5-0.9-0.5-1.9,0.4c-1.2,0.8-2.8-0.1-4-0.5
		c-0.6-0.3-1.3-0.1-1.6,0.5c0,0.1-0.1,0.1-0.1,0.2c-0.1,0.3-0.8,0.1-1.4,0s-1.2-0.8-1.9-1.1c-1.1-0.4-2.5,1-2.8,1.4
		s-1.4,0.2-2.7,0.4c-1.2,0.1-2.4,0.1-3.6-0.1c-0.6-0.7-1.6-0.8-2.3-0.2c0,0,0,0,0,0l0,0c-0.5,0.4-1.1,0.4-1.6,0.1
		c-0.7-0.2-1.8-0.1-2.3-0.4c-0.7-0.3-1.5-0.3-2.2,0c-0.5-0.4-1.1-1.4-2.3-1.5s-1.2,0.2-2.8,1.6c0-0.6-0.8-0.8-1.2-1s-1,1.4-1,1.4
		c-1.2-0.7-1.9,0.4-2.2,0.5s-1.3-0.8-2.5-1.5c-0.5-0.4-1.1-0.4-1.6,0c0-0.3-0.1-0.5-0.3-0.8c-0.2-0.3-1.1,0.1-1.4,0.5
		c-0.3,0.3-0.7,0.3-1.1,0.2c-0.4-0.1-0.8,0.4-1,0.6S509,7.5,508,7.6c-0.5-0.9-1.4-1.5-2.5-1.5c-0.6-0.1-1.3,0.2-1.5,0.8
		c-0.2,0.3-0.3,0.3-1.3,0.4s-1.9,0.2-2.2-0.3s-0.9-0.5-1.9,0.4c-1.2,0.8-2.8-0.1-4-0.5c-0.6-0.3-1.3-0.1-1.6,0.6
		c0,0.1-0.1,0.1-0.1,0.2c-0.1,0.3-0.9,0.1-1.4,0s-1.2-0.8-1.9-1.1c-1.1-0.4-2.5,1-2.8,1.4s-1.4,0.2-2.7,0.4
		c-1.2,0.1-2.4,0.1-3.6-0.1c-0.6-0.7-1.6-0.8-2.4-0.2c-0.5,0.4-1.1,0.4-1.6,0.1c-0.7-0.2-1.8-0.1-2.3-0.4c-0.7-0.3-1.5-0.3-2.2,0
		c-0.5-0.4-1.1-1.4-2.3-1.5c-1,0-1.2,0.1-2.1,1c-0.2,0.1-0.5,0.1-0.7,0c-0.1,0-0.2,0-0.3,0c-0.2-0.2-0.5-0.3-0.8-0.4
		c-0.2-0.1-0.5,0.4-0.7,0.9c-0.3-0.1-0.6-0.1-0.9-0.1c-0.5-0.9-1.4-1.5-2.5-1.5c-0.6-0.1-1.3,0.2-1.5,0.8C460.1,7,460,7,459.9,7.1
		c-0.5-0.2-1.1-0.2-1.4,0.2c-0.8,0.1-1.5,0.1-1.8-0.4s-0.9-0.5-1.9,0.4c-1.2,0.8-2.8-0.1-4-0.5c-0.6-0.3-1.3,0-1.6,0.6
		c0,0.1-0.1,0.1-0.1,0.2c-0.1,0.3-0.9,0.1-1.4,0s-1.2-0.8-1.9-1.1c-1.1-0.4-2.5,1-2.8,1.4s-1.4,0.2-2.7,0.4
		c-1.2,0.1-2.4,0.1-3.6-0.1c-0.6-0.7-1.6-0.8-2.4-0.2l0,0c-0.5,0.3-1.1,0.4-1.6,0.1c-0.7-0.2-1.8-0.1-2.3-0.4
		c-0.7-0.3-1.5-0.3-2.2,0c-0.5-0.4-1.1-1.4-2.3-1.5s-1.2,0.2-2.8,1.6c0-0.6-0.9-0.8-1.2-1s-1,1.4-1,1.4c-1.2-0.7-1.9,0.4-2.2,0.5
		s-1.3-0.8-2.5-1.5c-0.5-0.4-1.1-0.4-1.6,0c0-0.3-0.1-0.5-0.3-0.8c-0.2-0.3-1.1,0.1-1.4,0.5c-0.3,0.3-0.6,0.4-1,0.3
		c-0.4-0.1-0.8,0.4-1,0.6s-0.8-0.2-1.7-0.2c-0.5-0.9-1.5-1.4-2.5-1.4c-0.6-0.1-1.3,0.2-1.5,0.8c-0.2,0.3-0.3,0.3-1.3,0.4
		s-1.9,0.2-2.3-0.3s-0.9-0.5-1.9,0.4c-1.2,0.8-2.8-0.1-4-0.5c-0.6-0.3-1.3-0.1-1.6,0.6c0,0.1-0.1,0.1-0.1,0.2
		c-0.1,0.3-0.9,0.1-1.4,0s-1.2-0.8-1.9-1.1c-1.1-0.4-2.5,1-2.8,1.4s-1.4,0.2-2.7,0.4c-1.2,0.1-2.4,0.1-3.6-0.1
		c-0.6-0.7-1.6-0.8-2.4-0.2c-0.5,0.4-1.1,0.4-1.6,0.1c-0.7-0.2-1.8-0.1-2.3-0.4c-0.7-0.3-1.5-0.3-2.2,0c-0.5-0.4-1.1-1.4-2.3-1.5
		s-1.2,0.2-2.8,1.6c0-0.6-0.9-0.8-1.2-1s-1,1.4-1,1.4c-1.2-0.7-1.9,0.4-2.2,0.5s-1.1-0.9-2.4-0.9s-2-0.1-2-0.1v23
		c4.1,0,5.1,2.4,8.6,1.9c6.1-0.8,5.2,3.9,13.9,1s7.5-2.7,15.1,0.3c3.8,1.5,4.8-0.4,8.4-1.5c2.3-0.7,5,0.2,7.4-0.3
		c1-0.2,1.5-1.1,2.5-1s2.3,2,3.3,2.4c5,2.2,13.3,1.8,18.4,0.2c8.7-2.8,7.5-2.7,15.1,0.3l0,0c2.6,1,4,0.4,6.5-0.4
		c1.9-0.6,2.2-0.4,4.3,0.2c5.8,1.7,12.1,1.7,17.9-0.1c8.7-2.8,7.5-2.7,15.1,0.3c1.9,0.9,4.1,1,6,0.1c2.6-1.1,4.5-1.1,7.3-1.4
		c1.4-0.1,3.4-1.9,4.5-1.8c1.6,0.2,3.4,2.8,5.2,3.2s3.7-0.1,5.5,0c2.4,0.2,4.7,1,7.1,0.7c3.9-0.4,7.6-2.9,11.4-3.1
		c2.7-0.1,5.4,1.3,8,2.3c6,2.4,5.6-0.6,8.1-1.4c1.6,1.3,3.7,1.8,5.7,1.6c6.1-0.8,5.8,2.4,14.5-0.4s7.5-2.7,15.1,0.3
		c1.9,0.9,4.1,1,6,0.1c2.9-1.2,5.3-0.8,8.3-1.5s3-1.4,5.8,0.2c6,3.4,13.7,3,19.9,1c8.7-2.8,7.5-2.7,15.1,0.3s5-2.5,10.8-1.5
		c3.1,0.5,5-0.1,6.5-1.4c1.8,1.8,4.3,3.5,7.4,3.1c6.1-0.8,5.8,2.4,14.5-0.4s7.5-2.7,15.1,0.3s5-2.5,10.8-1.5c3.4,0.6,3.4-1.7,7-1.7
		v-23C721.4,7.8,721,7.7,720.6,7.6z"/>
	
		<linearGradient id="SVGID_11_" gradientUnits="userSpaceOnUse" x1="-1.07" y1="-209.7191" x2="720.62" y2="-209.7191" gradientTransform="matrix(1 0 0 1 0 504)">
		<stop  offset="0.35" style="stop-color:#6C391C"/>
		<stop  offset="1" style="stop-color:#452A0F"/>
	</linearGradient>
	<path class="st10" d="M101.8,312.6c0,0-15.5,7.7-16.2,16.2l-6.8,7.5c0,0,1.3,5.1,3.1,5.4l2.3,4.9l1.4,1.1l1.1,3l-0.6,3.1
		c0,0-2,12-1.3,12s-10.1,7.6-2.6,11l0.2,2.6c0,0-4.8,9.8-3.3,11.6l-20.9,22l-6.3,0.9l-2.4-0.9l-19.5,14.5l0.6,5.2l-1.7,1.8
		c0,0-5.9,5.4-9.2,4.9l-2.7,6.6l-2.2,1.8c-5.7-1-11.5,0.5-16,4l1.1-314.9l720.5,1.2v127l-6.2-3.7c0,0-3.6-2.8-2.7-6.6
		c0,0-3.6-3.5-1.4-5.5c0,0-2-5-0.8-5c0,0-5.1-2.2-6.2-6.6c0,0-2.5,0.5-2.6-1.4l-5.5-3.9L691,231l0.3-3.9c0,0-3.8-4.4-2-5.5
		c0,0-8.9-8.1-11.2-14.1c0,0-2,8.3-0.8,9l-0.2,4.5l-0.8,3.2l-1,0.2l-0.8,3c0,0-1.9,0.7-0.6-3.9l0.4-2.4l-0.6-3.4l-1.3-7.7l-3.2-7.6
		l-4.6,11.7l-1.5,14l-1.8,9.7l-1.7,4.9l-0.9,8.9l1.3,8.5l-1.2,1.3l-0.1,1.9h-1l-0.3-6.2l-2.1-4.3l-0.2-6.1l-5.5-27.9l-2.5-11.6
		l-3.6-5.8l-3-2.3c0,0-5.3-6.5-4.1-11.3l-2.5-3.4c0,0-14.1-2.6-14.7-1.6l-2.7-1.9l-1.4-5.8l-3.8-5l-4.6-1c0,0-2.8,3-5.4-1.5l-4.2-1
		l-1.1-1.3l-1.8-1.4l-1.8,0.6l-1.5-1l-1.5,0.3c0,0-3.8,16.5-3.4,19.4l-0.6,8.5l-0.9,0.6l-0.2,2.5l-0.6,1.4c0,0-3-24.8-5-25.7
		l-3,16.1l-1.3-3.3l-1.6-10.1l-1.2-3.6l-2.2-5.7l-0.6-2.6c0,0-4.2-0.2-4.2-1.9l-1.3,2.2l-1.5,4.2l-1.7,20.9l1.2,1l-0.9,2.4
		l-0.6,12.1l1,1.3l-1,1.8l0.4,1l-0.5,0.6l-0.9,1l-1.5-3.3c0,0-3.8-9.8-3.3-17.1l-2.1-14.9l-6.2-18.7l-1.4-2.2l-4.9,1.1l-7.4,2
		l-4.2,10.2l-0.9,23.1l-1.1-0.5l0.9,2l-3.8-14.5c0,0-3.9-7.9-2.8-11.4l-4.5-5.2l-7.7,2.3l-5,3.8l-0.8,2l-6.5-2.3l-12.4,0.6l-2.7,6.7
		l-1.2,16.3l-1.1-5.8l-2.5-7.1l-1.5-6.5l-2.7,8.4l-5.8,11.9l0.2,3.6l-1,0.7v4.4l-0.8,6.1l-0.9,0.8v1.7l-1.7-0.4l-1.7-25.9
		c0,0-4.3-9.8-4.7-14.9c0,0-8.1-4.1-9.7,1.4l-1.4,1.3l-1.6,11.1l-1,1.1l0.2,1.8l-1.7-0.2l-1-6.5l-1.5-10.2l-2.9-3.6l-15.7-2.5
		L418,156l-14.9,7l-0.6,2.8l-3.6,0.4l-2.6,8.6l-1,9.2l-0.6,7.2l-0.8,4.4l-0.4,3.8l-2.4-17.9l-6.4-15.7l-12.5-2.4l-4.8,3.4l-14.7,9.2
		c0,0-5.2,7.2-5.2,9.2s1.6,1.6,1.6,1.6l-0.4,2l-1.6,0.6l-0.2,7l-0.2,5.6l-2,0.6l1.8,3.4l-1,1.6l-0.6,2.2l-1.6,0.6v3.2h-1.8l-1-25.5
		l-1.8-1.4l-2.6-3.8l-12.1,6.1l-7-0.2c0,0-3.6,8.2-3.2,9.4l0.2,2.6l-1.2,2c0,0-2-8.8-4.2-9.6l-3.6,4.6l-2.6,1l-4.8,9.2l0.4,4
		l-1.8,2.4l-3,20.7l-4-12.5l-2.8-6L283,205l-3.7-1.7l-16.6-1.8l-1.2,5.1l-2.4-4.7c0,0-1,10-2.4,10l-0.8-6.3l-1.8-1.6l-0.2-3.5
		l-4.1,1.5l-4.7,8.2l-2.1,16.6l2.7,4.3l-2.7,2.4l-4.5-9.4l-3.1-12.1l-7-16.8l-3.7,1.6c0,0-1,14.1-3.9,14.3l-1.8-17l-2.1,5.5
		l-1.2,4.1h-1.4l-0.6-9.6l-7.4-0.2c0,0-12.8,23.3-16.2,23.3c0,0,2,20.4-3.3,21.3l-2.4,10.8c0,0,3.1,8.8-1.4,9l0.4,2.4l-0.8,2.4
		l-2,3.1c0,0-4.9-25.6-5.5-31.3l-2.9-5.3l-5.3,1.6c0,0,0.2,7-3.1,7l0.4,5.5h-2.3l-0.2-9.2l-3.5,6.5l0.4,3.9L155,255l-1.4,4.3l-1.2-7
		l-1.8-10l-2.9-5.1l-2.1,1.8l-0.2,3.3l-7.2,9.2l0.6,7.2l-2.7,0.6l-0.8-7.4l-2.1-2.5l-28,14.5l-0.6,4.1l-0.4,7.4
		c0,0,2.9,8.2,2.2,12.1l2.9,5.1c0,0-2.7,15.1-4.9,15.5C104.3,308,104.6,311.9,101.8,312.6z"/>
	
		<linearGradient id="SVGID_12_" gradientUnits="userSpaceOnUse" x1="581.7531" y1="-376.1144" x2="1011.3431" y2="-376.1144" gradientTransform="matrix(-0.85 0 0 1 1214.1 504)">
		<stop  offset="0.35" style="stop-color:#53391C"/>
		<stop  offset="1" style="stop-color:#3C1F0F"/>
	</linearGradient>
	<path class="st11" d="M357.4,115.1c0.5,0,0.3-0.5,0.7-0.6s0.8,0.3,1.1,0.2s0.8,0.4,1,0.6s0.8-0.2,1.7-0.2c0.5-0.9,1.4-1.5,2.5-1.5
		c0.6-0.1,1.2,0.2,1.5,0.8c0.2,0.3,0.3,0.2,1.3,0.4s1.9,0.2,2.3-0.3s1-0.5,1.9,0.4c1.2,0.8,2.8-0.1,4-0.5c0.6-0.3,1.3-0.1,1.6,0.5
		c0,0.1,0.1,0.1,0.1,0.2c0.1,0.3,0.9,0.1,1.5,0s1.2-0.8,1.9-1.1c1.1-0.5,2.5,1,2.8,1.4s1.4,0.2,2.7,0.4c1.2,0.1,2.4,0.1,3.6-0.1
		c0.6-0.7,1.7-0.8,2.4-0.2c0.5,0.3,1.1,0.4,1.6,0.1c0.8-0.2,1.8-0.1,2.3-0.4c0.7-0.3,1.5-0.3,2.2,0c0.5-0.4,1.1-1.4,2.3-1.4
		s1.2,0.2,2.8,1.6c0-0.6,0.9-0.8,1.2-1s1,1.4,1,1.4c0.8-0.4,1.7-0.2,2.2,0.5c0.2,0.1,1.3-0.8,2.5-1.5c0.3-0.2,0.6-0.3,1-0.2
		c0-0.2,0.1-0.3,0.2-0.5c0.2-0.3,1.1,0.1,1.4,0.5c0.3,0.3,0.7,0.3,1.1,0.2c0.4-0.1,0.8,0.4,1,0.6s0.8-0.2,1.7-0.2
		c0.5-0.9,1.4-1.5,2.5-1.5c0.6-0.1,1.2,0.2,1.5,0.8c0.2,0.3,0.3,0.2,1.3,0.4s1.9,0.2,2.3-0.3s0.9-0.5,1.9,0.4c1.2,0.8,2.8-0.1,4-0.5
		c0.6-0.3,1.3-0.1,1.6,0.5c0,0.1,0.1,0.1,0.1,0.2c0.1,0.3,0.9,0.1,1.5,0s1.2-0.8,1.9-1.1c1.1-0.5,2.5,1,2.8,1.4s1.4,0.2,2.7,0.4
		c1.2,0.1,2.4,0.1,3.6-0.1c0.6-0.7,1.7-0.8,2.4-0.2c0.5,0.3,1.1,0.4,1.6,0.1c0.8-0.2,1.8-0.1,2.3-0.4c0.7-0.3,1.5-0.3,2.2,0
		c0.5-0.4,1.1-1.4,2.3-1.4s1.2,0.2,2.8,1.6c0-0.6,0.9-0.8,1.2-1s1,1.4,1,1.4c0.8-0.4,1.7-0.2,2.2,0.5c0.2,0.1,1.3-0.8,2.5-1.5
		c0.5-0.4,1.1-0.4,1.6,0c0-0.3,0.1-0.5,0.3-0.8c0.2-0.3,1.1,0.1,1.4,0.5c0.3,0.3,0.7,0.3,1.1,0.2c0.4-0.1,0.8,0.4,1,0.6
		s0.8-0.2,1.7-0.2c0.5-0.9,1.4-1.5,2.5-1.5c0.6-0.1,1.3,0.2,1.5,0.8c0.2,0.3,0.3,0.2,1.3,0.4s1.9,0.2,2.3-0.3s1-0.5,1.9,0.4
		c1.3,0.8,2.8-0.1,4-0.5c0.6-0.3,1.3,0,1.6,0.6c0,0.1,0,0.1,0.1,0.2c0.1,0.3,0.9,0.1,1.4,0s1.2-0.8,1.9-1.1c1.1-0.5,2.5,1,2.8,1.4
		s1.4,0.2,2.7,0.4c1.2,0.1,2.4,0.1,3.6-0.1c0.6-0.7,1.6-0.8,2.4-0.2c0.5,0.3,1.1,0.4,1.6,0.1c0.7-0.2,1.8-0.1,2.3-0.4
		c0.7-0.3,1.5-0.3,2.2,0c0.5-0.4,1.1-1.4,2.3-1.4c1,0,1.2,0.1,2.2,1h0.2c0.2,0,0.4,0.1,0.6,0.2c0.3-0.3,0.6-0.4,1-0.5
		c0.2-0.1,0.5,0.4,0.7,0.8c0.2,0,0.3,0,0.5,0c0.5-0.9,1.4-1.5,2.5-1.5c0.6-0.1,1.2,0.2,1.5,0.8c0.1,0.2,0.2,0.2,0.6,0.3
		c0.5-0.3,1.2-0.3,1.6,0.2c0.5,0.1,1,0,1.3-0.4c0.4-0.5,1-0.5,1.9,0.4c1.2,0.8,2.8-0.1,4-0.5c0.6-0.3,1.3-0.1,1.6,0.5
		c0,0.1,0.1,0.1,0.1,0.2c0.1,0.3,0.9,0.1,1.5,0s1.2-0.8,1.9-1.1c1.1-0.5,2.5,1,2.8,1.4s1.4,0.2,2.7,0.4c1.2,0.1,2.4,0.1,3.6-0.1
		c0.6-0.7,1.6-0.8,2.4-0.2c0.5,0.3,1.1,0.4,1.6,0.1c0.7-0.2,1.8-0.1,2.3-0.4c0.7-0.3,1.5-0.3,2.2,0c0.5-0.4,1.1-1.4,2.3-1.4
		s1.2,0.2,2.8,1.6c0-0.6,0.9-0.8,1.2-1s1,1.4,1,1.4c0.8-0.4,1.7-0.2,2.2,0.5c0.2,0.1,1.3-0.8,2.5-1.5c0.5-0.4,1.1-0.4,1.6,0
		c0-0.3,0.1-0.5,0.3-0.8c0.2-0.3,1.1,0.1,1.4,0.5c0.3,0.3,0.7,0.3,1.1,0.2c0.4-0.1,0.8,0.4,1,0.6s0.8-0.2,1.7-0.2
		c0.5-0.9,1.4-1.5,2.5-1.5c0.6-0.1,1.3,0.2,1.5,0.8c0.2,0.3,0.3,0.2,1.3,0.4s1.9,0.2,2.3-0.3s0.9-0.5,1.9,0.4c1.2,0.8,2.8-0.1,4-0.5
		c0.6-0.3,1.3-0.1,1.6,0.5c0,0.1,0.1,0.1,0.1,0.2c0.1,0.3,0.9,0.1,1.4,0c0.7-0.3,1.3-0.7,1.9-1.1c1.1-0.5,2.5,1,2.8,1.4
		s1.4,0.2,2.7,0.4c1.2,0.1,2.4,0.1,3.6-0.1c0.6-0.7,1.7-0.8,2.4-0.2c0.5,0.3,1.1,0.4,1.6,0.1c0.7-0.2,1.8-0.1,2.3-0.4
		c0.7-0.3,1.5-0.3,2.2,0c0.5-0.4,1.1-1.4,2.3-1.4c1,0,1.2,0.1,2.1,1c0.2,0.1,0.5,0.1,0.7,0c0.1,0,0.2,0,0.3,0
		c0.2-0.2,0.5-0.3,0.8-0.4c0.2-0.1,0.5,0.4,0.8,0.9c0.3-0.1,0.6-0.1,0.9-0.1c0.5-0.9,1.4-1.5,2.5-1.5c0.6-0.1,1.2,0.2,1.5,0.8
		c0.1,0.1,0.2,0.2,0.3,0.2c0.5-0.2,1.1-0.2,1.5,0.2c0.8,0.1,1.5,0.1,1.8-0.4s1-0.5,1.9,0.4c1.2,0.8,2.8-0.1,4-0.5
		c0.6-0.3,1.3-0.1,1.6,0.5c0,0.1,0.1,0.1,0.1,0.2c0.1,0.3,0.9,0.1,1.4,0c0.7-0.3,1.3-0.7,1.9-1.1c1.1-0.5,2.5,1,2.8,1.4
		s1.4,0.2,2.7,0.4c1.2,0.1,2.4,0.1,3.6-0.1c0.6-0.7,1.7-0.8,2.4-0.2c0.5,0.3,1.1,0.4,1.6,0.1c0.7-0.2,1.8-0.1,2.3-0.4
		c0.7-0.3,1.5-0.3,2.2,0c0.5-0.4,1.1-1.4,2.3-1.4s1.2,0.2,2.8,1.6c0-0.6,0.8-0.8,1.2-1s1,1.4,1,1.4c0.8-0.4,1.7-0.1,2.2,0.5
		c0.2,0.1,1.3-0.8,2.5-1.5c0.5-0.4,1.1-0.4,1.6,0c0-0.3,0.1-0.5,0.3-0.8c0.2-0.3,1.1,0.1,1.4,0.5c0.3,0.3,0.7,0.3,1.1,0.2
		c0.4-0.1,0.8,0.4,1,0.6s0.8-0.2,1.7-0.2c0.5-0.9,1.4-1.5,2.5-1.5c0.6-0.1,1.3,0.2,1.5,0.8c0.2,0.3,0.3,0.2,1.3,0.4s1.9,0.2,2.3-0.3
		s0.9-0.5,1.9,0.4c1.2,0.8,2.8-0.1,4-0.5c0.6-0.3,1.3-0.1,1.6,0.5c0,0.1,0.1,0.1,0.1,0.2c0.1,0.3,0.9,0.1,1.4,0
		c0.7-0.3,1.3-0.7,1.9-1.1c1.1-0.5,2.5,1,2.8,1.4s1.4,0.2,2.7,0.4c1.2,0.1,2.4,0.1,3.6-0.1c0.6-0.7,1.6-0.8,2.4-0.2
		c0.5,0.3,1.1,0.4,1.6,0.1c0.8-0.2,1.8-0.1,2.3-0.4c0.7-0.3,1.5-0.3,2.2,0c0.5-0.4,1.1-1.4,2.3-1.4s1.2,0.2,2.8,1.6
		c0-0.6,0.8-0.8,1.2-1s1,1.4,1,1.4c1.2-0.7,1.9,0.4,2.2,0.5s1.1-0.9,2.4-0.9c1.2,0,2-0.1,2-0.1v22.8c-4.1,0-5.1,2.4-8.7,1.9
		c-6.1-0.8-5.2,3.8-14,1s-7.5-2.7-15.1,0.3c-3.8,1.5-4.8-0.4-8.4-1.5c-2.3-0.7-5,0.2-7.5-0.3c-1-0.2-1.5-1.1-2.5-1s-2.3,1.9-3.3,2.4
		c-5,2.1-13.3,1.8-18.5,0.1c-8.7-2.8-7.5-2.7-15.1,0.3l0,0c-2.6,1-4,0.4-6.6-0.4c-1.9-0.6-2.2-0.4-4.3,0.2c-5.9,1.7-12.1,1.7-18-0.1
		c-8.7-2.8-7.5-2.7-15.1,0.3c-1.9,0.9-4.1,0.9-6,0.1c-2.6-1.1-4.5-1.1-7.3-1.4c-1.4-0.1-3.4-1.9-4.5-1.8c-1.6,0.2-3.4,2.7-5.2,3.1
		s-3.7-0.1-5.6,0c-2.4,0.2-4.7,1-7.2,0.7c-3.9-0.5-7.6-2.9-11.5-3.1c-2.8-0.1-5.4,1.2-8,2.3c-6,2.4-5.6-0.6-8.2-1.4
		c-1.6,1.2-3.7,1.8-5.7,1.6c-6.1-0.8-5.8,2.4-14.5-0.4s-7.5-2.7-15.1,0.3c-1.9,0.9-4.1,0.9-6,0.1c-2.9-1.2-5.3-0.8-8.3-1.5
		s-3-1.4-5.8,0.2c-6,3.3-13.8,3-20,1c-8.7-2.8-7.5-2.7-15.1,0.3s-5-2.5-10.9-1.5c-3.1,0.5-5-0.1-6.5-1.4c-1.8,1.8-4.3,3.5-7.5,3
		c-6.1-0.8-5.8,2.4-14.5-0.4s-7.5-2.7-15.1,0.3s-5-2.5-10.9-1.5c-3.4,0.6-3.4-1.7-7-1.7V115C356.6,115.2,357,115.2,357.4,115.1z"/>
	
		<linearGradient id="SVGID_13_" gradientUnits="userSpaceOnUse" x1="-14.8823" y1="178.5606" x2="414.7177" y2="178.5606" gradientTransform="matrix(0.85 0 0 -1 9.65 306.0317)">
		<stop  offset="0.35" style="stop-color:#53391C"/>
		<stop  offset="1" style="stop-color:#3C1F0F"/>
	</linearGradient>
	<path class="st12" d="M359.2,140.4c-0.5,0-0.3,0.5-0.7,0.6s-0.8-0.3-1.1-0.2s-0.8-0.4-1-0.6s-0.8,0.2-1.7,0.2
		c-0.5,0.9-1.4,1.5-2.5,1.5c-0.6,0.1-1.2-0.2-1.5-0.8c-0.2-0.3-0.3-0.2-1.3-0.4s-1.9-0.2-2.3,0.3s-1,0.5-1.9-0.4
		c-1.2-0.8-2.8,0.1-4,0.5c-0.6,0.3-1.3,0.1-1.6-0.5c0-0.1-0.1-0.1-0.1-0.2c-0.1-0.3-0.9-0.1-1.5,0s-1.2,0.8-1.9,1.1
		c-1.1,0.5-2.5-1-2.8-1.4s-1.4-0.2-2.7-0.4c-1.2-0.1-2.4-0.1-3.6,0.1c-0.6,0.7-1.7,0.8-2.4,0.2c-0.5-0.3-1.1-0.4-1.6-0.1
		c-0.8,0.2-1.8,0.1-2.3,0.4c-0.7,0.3-1.5,0.3-2.2,0c-0.5,0.4-1.1,1.4-2.3,1.4s-1.2-0.2-2.8-1.6c0,0.6-0.9,0.8-1.2,1s-1-1.4-1-1.4
		c-0.8,0.4-1.7,0.2-2.2-0.5c-0.2-0.1-1.3,0.8-2.5,1.5c-0.3,0.2-0.6,0.3-1,0.2c0,0.2-0.1,0.3-0.2,0.5c-0.2,0.3-1.1-0.1-1.4-0.5
		c-0.3-0.3-0.7-0.3-1.1-0.2c-0.4,0.1-0.8-0.4-1-0.6s-0.8,0.2-1.7,0.2c-0.5,0.9-1.4,1.5-2.5,1.5c-0.6,0.1-1.2-0.2-1.5-0.8
		c-0.2-0.3-0.3-0.2-1.3-0.4s-1.9-0.2-2.3,0.3s-0.9,0.5-1.9-0.4c-1.2-0.8-2.8,0.1-4,0.5c-0.6,0.3-1.3,0.1-1.6-0.5
		c0-0.1-0.1-0.1-0.1-0.2c-0.1-0.3-0.9-0.1-1.5,0s-1.2,0.8-1.9,1.1c-1.1,0.5-2.5-1-2.8-1.4s-1.4-0.2-2.7-0.4
		c-1.2-0.1-2.4-0.1-3.6,0.1c-0.6,0.7-1.7,0.8-2.4,0.2c-0.5-0.3-1.1-0.4-1.6-0.1c-0.8,0.2-1.8,0.1-2.3,0.4c-0.7,0.3-1.5,0.3-2.2,0
		c-0.5,0.4-1.1,1.4-2.3,1.4s-1.2-0.2-2.8-1.6c0,0.6-0.9,0.8-1.2,1s-1-1.4-1-1.4c-0.8,0.4-1.7,0.2-2.2-0.5c-0.2-0.1-1.3,0.8-2.5,1.5
		c-0.5,0.4-1.1,0.4-1.6,0c0,0.3-0.1,0.5-0.3,0.8c-0.2,0.3-1.1-0.1-1.4-0.5c-0.3-0.3-0.7-0.3-1.1-0.2c-0.4,0.1-0.8-0.4-1-0.6
		s-0.8,0.2-1.7,0.2c-0.5,0.9-1.4,1.5-2.5,1.5c-0.6,0.1-1.3-0.2-1.5-0.8c-0.2-0.3-0.3-0.2-1.3-0.4s-1.9-0.2-2.3,0.3s-0.9,0.5-1.9-0.4
		c-1.3-0.8-2.8,0.1-4,0.5c-0.6,0.3-1.3,0-1.6-0.6c0-0.1,0-0.1-0.1-0.2c-0.1-0.3-0.9-0.1-1.4,0s-1.2,0.8-1.9,1.1
		c-1.1,0.5-2.5-1-2.8-1.4s-1.4-0.2-2.7-0.4c-1.2-0.1-2.4-0.1-3.6,0.1c-0.6,0.7-1.6,0.8-2.4,0.2c-0.5-0.3-1.1-0.4-1.6-0.1
		c-0.7,0.2-1.8,0.1-2.3,0.4c-0.7,0.3-1.5,0.3-2.2,0c-0.5,0.4-1.1,1.4-2.3,1.4c-1,0-1.2-0.1-2.2-1h-0.2c-0.2,0-0.4-0.1-0.6-0.2
		c-0.3,0.3-0.6,0.4-1,0.5c-0.2,0.1-0.5-0.4-0.7-0.8c-0.2,0-0.3,0-0.5,0c-0.5,0.9-1.4,1.5-2.5,1.5c-0.6,0.1-1.2-0.2-1.5-0.8
		c-0.1-0.2-0.2-0.2-0.6-0.3c-0.5,0.3-1.2,0.3-1.6-0.2c-0.5-0.1-1,0-1.4,0.4c-0.4,0.5-0.9,0.5-1.9-0.4c-1.2-0.8-2.8,0.1-4,0.5
		c-0.6,0.3-1.3,0.1-1.6-0.5c0-0.1-0.1-0.1-0.1-0.2c-0.1-0.3-0.9-0.1-1.4,0s-1.2,0.8-1.9,1.1c-1.1,0.5-2.5-1-2.8-1.4
		s-1.4-0.2-2.7-0.4c-1.2-0.1-2.4-0.1-3.6,0.1c-0.6,0.7-1.6,0.8-2.4,0.2c-0.5-0.3-1.1-0.4-1.6-0.1c-0.7,0.2-1.8,0.1-2.3,0.4
		c-0.7,0.3-1.5,0.3-2.2,0c-0.5,0.4-1.1,1.4-2.3,1.4s-1.2-0.2-2.8-1.6c0,0.6-0.9,0.8-1.2,1s-1-1.4-1-1.4c-0.8,0.4-1.7,0.2-2.2-0.5
		c-0.2-0.1-1.3,0.8-2.5,1.5c-0.5,0.4-1.1,0.4-1.6,0c0,0.3-0.1,0.5-0.3,0.8c-0.2,0.3-1.1-0.1-1.4-0.5c-0.3-0.3-0.7-0.3-1.1-0.2
		c-0.4,0.1-0.8-0.4-1-0.6s-0.8,0.2-1.7,0.2c-0.5,0.9-1.4,1.5-2.5,1.5c-0.6,0.1-1.3-0.2-1.5-0.8c-0.2-0.3-0.3-0.2-1.3-0.4
		s-1.9-0.2-2.3,0.3s-0.9,0.5-1.9-0.4c-1.2-0.8-2.8,0.1-4,0.5c-0.6,0.3-1.3,0.1-1.6-0.5c0-0.1-0.1-0.1-0.1-0.2
		c-0.1-0.3-0.9-0.1-1.4,0c-0.7,0.3-1.3,0.7-1.9,1.1c-1.1,0.5-2.5-1-2.8-1.4s-1.4-0.2-2.7-0.4c-1.2-0.1-2.4-0.1-3.6,0.1
		c-0.6,0.7-1.7,0.8-2.4,0.2c-0.5-0.3-1.1-0.4-1.6-0.1c-0.7,0.2-1.8,0.1-2.3,0.4c-0.7,0.3-1.5,0.3-2.2,0c-0.5,0.4-1.1,1.4-2.3,1.4
		c-1,0-1.2-0.1-2.1-1c-0.2-0.1-0.5-0.1-0.7,0c-0.1,0-0.2,0-0.3,0c-0.2,0.2-0.5,0.3-0.8,0.4c-0.2,0.1-0.5-0.4-0.8-0.9
		c-0.3,0.1-0.6,0.1-0.9,0.1c-0.5,0.9-1.4,1.5-2.5,1.5c-0.6,0.1-1.2-0.2-1.5-0.8c-0.1-0.1-0.2-0.2-0.3-0.2c-0.5,0.2-1.1,0.2-1.4-0.2
		c-0.8-0.1-1.5-0.1-1.8,0.4s-0.9,0.5-1.9-0.4c-1.2-0.8-2.8,0.1-4,0.5c-0.6,0.3-1.3,0.1-1.6-0.5c0-0.1-0.1-0.1-0.1-0.2
		c-0.1-0.3-0.9-0.1-1.4,0c-0.7,0.3-1.3,0.7-1.9,1.1c-1.1,0.5-2.5-1-2.8-1.4s-1.4-0.2-2.7-0.4c-1.2-0.1-2.4-0.1-3.6,0.1
		c-0.6,0.7-1.7,0.8-2.4,0.2c-0.5-0.3-1.1-0.4-1.6-0.1c-0.7,0.2-1.8,0.1-2.3,0.4c-0.7,0.3-1.5,0.3-2.2,0c-0.5,0.4-1.1,1.4-2.3,1.4
		s-1.2-0.2-2.8-1.6c0,0.6-0.8,0.8-1.2,1s-1-1.4-1-1.4c-0.8,0.4-1.7,0.2-2.2-0.5c-0.2-0.1-1.3,0.8-2.5,1.5c-0.5,0.4-1.1,0.4-1.6,0
		c0,0.3-0.1,0.5-0.3,0.8c-0.2,0.3-1.1-0.1-1.4-0.5c-0.3-0.3-0.7-0.3-1.1-0.2c-0.4,0.1-0.8-0.4-1-0.6s-0.8,0.2-1.7,0.2
		c-0.5,0.9-1.4,1.5-2.5,1.5c-0.6,0.1-1.3-0.2-1.5-0.8c-0.2-0.3-0.3-0.2-1.3-0.4s-1.9-0.2-2.3,0.3s-0.9,0.5-1.9-0.4
		c-1.2-0.8-2.8,0.1-4,0.5c-0.6,0.3-1.3,0.1-1.6-0.5c0-0.1-0.1-0.1-0.1-0.2c-0.1-0.3-0.9-0.1-1.4,0c-0.7,0.3-1.3,0.7-1.9,1.1
		c-1.1,0.5-2.5-1-2.8-1.4s-1.4-0.2-2.7-0.4c-1.2-0.1-2.4-0.1-3.6,0.1c-0.6,0.7-1.6,0.8-2.4,0.2c-0.5-0.3-1.1-0.4-1.6-0.1
		c-0.8,0.2-1.8,0.1-2.3,0.4c-0.7,0.3-1.5,0.3-2.2,0c-0.5,0.4-1.1,1.4-2.3,1.4s-1.2-0.2-2.8-1.6c0,0.6-0.8,0.8-1.2,1s-1-1.4-1-1.4
		c-1.2,0.7-1.9-0.4-2.2-0.5s-1.1,0.9-2.4,0.9c-1.2,0-2,0.1-2,0.1v-23c4.1,0,5.1-2.4,8.7-1.9c6.1,0.8,5.2-3.8,14-1s7.6,2.8,15.2-0.2
		c3.8-1.5,4.8,0.4,8.4,1.5c2.3,0.7,5-0.2,7.5,0.3c1,0.2,1.5,1.1,2.5,1s2.3-1.9,3.3-2.4c5-2.1,13.3-1.8,18.5-0.1
		c8.7,2.7,7.5,2.7,15.1-0.3l0,0c2.6-1,4-0.4,6.6,0.4c1.9,0.6,2.2,0.4,4.3-0.2c5.9-1.7,12.1-1.7,18,0.1c8.7,2.8,7.5,2.7,15.1-0.3
		c1.9-0.9,4.1-0.9,6-0.1c2.6,1.1,4.5,1.1,7.3,1.4c1.4,0.1,3.4,1.9,4.5,1.8c1.6-0.2,3.4-2.7,5.2-3.1s3.7,0.1,5.6,0
		c2.4-0.2,4.7-1,7.1-0.7c3.9,0.5,7.6,2.9,11.5,3.1c2.8,0.1,5.4-1.2,8-2.3c6-2.4,5.6,0.6,8.1,1.4c1.6-1.2,3.7-1.8,5.7-1.6
		c6.1,0.8,5.8-2.4,14.5,0.4s7.6,2.7,15.1-0.3c1.9-0.9,4.1-0.9,6-0.1c2.9,1.2,5.3,0.8,8.3,1.5s3,1.4,5.8-0.2c6-3.3,13.8-3,20-1
		c8.7,2.8,7.5,2.7,15.1-0.3s5,2.5,10.9,1.5c3.1-0.5,5,0.1,6.5,1.4c1.8-1.8,4.3-3.5,7.5-3c6.1,0.8,5.8-2.4,14.5,0.4s7.6,2.7,15.1-0.3
		s5,2.5,10.9,1.5c3.4-0.6,3.4,1.7,7,1.7v22.8C360,140.2,359.6,140.3,359.2,140.4z"/>
</g>
<path class="st13" d="M31.8,427.1c-2.7,0.3-4.7,2.8-4.3,5.5c0,0,0,0,0,0l3.4,29.9c0.3,2.7,2.7,4.7,5.3,4.4c0,0,0,0,0.1,0l30.5-3.5
	v-40.3L31.8,427.1z"/>
<path class="st14" d="M110.5,453.4l-3.5-29.9c-0.4-2.7-2.9-4.7-5.6-4.4l-34.6,4v40.3l39.3-4.5C108.7,458.6,110.7,456.1,110.5,453.4z
	"/>
<path class="st15" d="M106,456.4c1.6-0.2,2.8-1.6,2.6-3.2l-3.4-29.8c-0.2-1.6-1.7-2.7-3.3-2.5l-35.2,4v36L106,456.4z"/>
<path class="st15" d="M29.9,432l3.4,29.8c0.1,1.5,1.5,2.7,3,2.5c0,0,0.1,0,0.1,0l30.3-3.5v-36l-34.4,4
	C30.8,429.1,29.8,430.4,29.9,432z"/>
<path class="st16" d="M112.9,452.8l-3.4-29.5c-0.5-3.9-4.1-6.7-8-6.2l-34.8,4v3.9l35.2-4c1.6-0.2,3,0.9,3.2,2.5l3.5,29.8
	c0.1,1.6-1,3-2.6,3.2l-39.2,4.5v4.3l39.8-4.5C110.5,460.2,113.3,456.7,112.9,452.8z"/>
<path class="st17" d="M36.4,464.3c-1.5,0.2-2.9-0.9-3.1-2.5c0,0,0,0,0-0.1L29.9,432c-0.2-1.5,0.9-3,2.4-3.2c0,0,0,0,0,0l34.4-4v-3.9
	l-34.9,4c-3.8,0.4-6.6,3.9-6.2,7.7c0,0,0,0.1,0,0.1l3.4,29.5c0.4,3.8,3.8,6.6,7.7,6.2c0,0,0.1,0,0.1,0l29.9-3.4v-4.3L36.4,464.3z"/>
<ellipse transform="matrix(0.9935 -0.1137 0.1137 0.9935 -46.8317 13.4432)" class="st17" cx="94.4" cy="417.2" rx="3.1" ry="3.1"/>
<ellipse transform="matrix(0.9935 -0.1137 0.1137 0.9935 -46.8316 13.4454)" class="st18" cx="94.4" cy="417.2" rx="1.5" ry="1.5"/>
<ellipse transform="matrix(0.9935 -0.1137 0.1137 0.9935 -47.9091 7.2018)" class="st17" cx="39.2" cy="423.5" rx="3.1" ry="3.1"/>
<ellipse transform="matrix(0.9935 -0.1137 0.1137 0.9935 -47.9103 7.2007)" class="st18" cx="39.2" cy="423.5" rx="1.5" ry="1.5"/>
<polygon class="st19" points="39.4,423.7 38.8,423.4 66.9,374.3 94.7,417 94.1,417.4 67,375.6 "/>
<path class="st17" d="M62.2,375c0,2.6,2,4.7,4.6,4.8v-9.6C64.2,370.3,62.2,372.4,62.2,375z"/>
<path class="st20" d="M67.1,370.2c-0.1,0-0.2,0-0.4,0v9.6c0.1,0,0.2,0,0.4,0c2.7,0,4.8-2.2,4.8-4.8S69.8,370.2,67.1,370.2
	L67.1,370.2z"/>
<path class="st21" d="M63.1,375c0.1,2,1.7,3.7,3.7,3.9v-7.8C64.8,371.3,63.2,373,63.1,375z"/>
<path class="st22" d="M67.1,371.1h-0.4v7.8h0.4c2.2,0,3.9-1.8,3.9-3.9S69.3,371,67.1,371.1L67.1,371.1z"/>
<rect x="63.2" y="374.8" transform="matrix(0.6828 -0.7306 0.7306 0.6828 -252.6605 168.0222)" class="st19" width="7.9" height="0.3"/>
<rect x="67" y="371" transform="matrix(0.7306 -0.6828 0.6828 0.7306 -237.8666 146.8746)" class="st19" width="0.3" height="7.9"/>
<path class="st23" d="M39.8,434.8L39.8,434.8c-0.3-0.3-0.7-0.5-1.1-0.4c-0.7,0.1-1.1,0.7-1,1.4c0,0.7,0.6,1.1,1.3,1.1c0,0,0,0,0,0
	c0.4-0.1,0.8-0.3,1-0.7l0,0l0.1,0.8c-0.3,0.3-0.6,0.4-1,0.5c-1,0.1-1.8-0.5-2-1.5c0,0,0-0.1,0-0.1c-0.1-1,0.6-1.9,1.5-2c0,0,0,0,0,0
	c0.4,0,0.8,0,1.1,0.2L39.8,434.8z"/>
<path class="st23" d="M41.6,436.9L41,437l-0.7-5.9l0.6-0.1L41.6,436.9z"/>
<path class="st23" d="M42.9,432.1c0,0.2-0.1,0.4-0.3,0.5c-0.2,0-0.4-0.1-0.5-0.3c0,0,0-0.1,0-0.1c0-0.2,0.1-0.4,0.3-0.5
	C42.6,431.7,42.8,431.8,42.9,432.1C42.9,432,42.9,432.1,42.9,432.1z M43.3,436.7l-0.6,0.1l-0.4-3.4l0.6-0.1L43.3,436.7z"/>
<path class="st23" d="M46.7,433.9L46.7,433.9c-0.3-0.3-0.7-0.5-1.1-0.4c-0.7,0.1-1.1,0.7-1,1.4c0,0.7,0.6,1.1,1.3,1.1c0,0,0,0,0,0
	c0.4-0.1,0.8-0.3,1-0.7l0,0L47,436c-0.3,0.3-0.6,0.4-1,0.5c-1,0.1-1.8-0.5-2-1.5c0,0,0-0.1,0-0.1c-0.1-1,0.6-1.9,1.5-2c0,0,0,0,0,0
	c0.4,0,0.8,0,1.1,0.2L46.7,433.9z"/>
<path class="st23" d="M48.2,434l1.1-1.4l0.8-0.1l-1.3,1.6l1.9,1.7l-0.8,0.1l-1.5-1.4l-0.1,0.2l0.2,1.4l-0.6,0.1l-0.7-5.9l0.6-0.1
	L48.2,434z"/>
<path class="st23" d="M53.3,429.6l0.3,2.9l0,0c0.2-0.3,0.5-0.6,0.9-0.6c0.9-0.1,1.2,0.5,1.3,1.3l0.2,2l-0.6,0.1l-0.2-1.9
	c-0.1-0.5-0.2-1-0.8-0.9s-0.8,0.8-0.7,1.4l0.2,1.6l-0.6,0.1l-0.7-5.9L53.3,429.6z"/>
<path class="st23" d="M57.3,433.5c0.1,0.6,0.6,1.1,1.2,1c0,0,0,0,0,0c0.4-0.1,0.8-0.4,0.9-0.8l0.5,0.2c-0.2,0.6-0.8,1.1-1.4,1.1
	c-0.9,0.1-1.7-0.5-1.8-1.4c0,0,0-0.1,0-0.1c-0.2-0.9,0.3-1.8,1.2-2c0.9-0.2,1.8,0.3,2,1.2c0,0.2,0.1,0.3,0,0.5L57.3,433.5z
	 M59.3,432.7c-0.1-0.5-0.6-0.8-1.1-0.8c-0.5,0.1-0.9,0.5-0.9,1L59.3,432.7z"/>
<path class="st23" d="M61.1,431.6L61.1,431.6c0.1-0.3,0.4-0.5,0.7-0.5c0.2,0,0.4,0,0.5,0.1l-0.2,0.5c-0.1-0.1-0.2-0.1-0.4-0.1
	c-0.6,0.1-0.6,0.9-0.5,1.3l0.2,1.7l-0.6,0.1l-0.4-3.4l0.6-0.1L61.1,431.6z"/>
<path class="st23" d="M63.4,432.7c0.1,0.6,0.6,1.1,1.2,1c0,0,0,0,0,0c0.4-0.1,0.8-0.4,0.9-0.8l0.5,0.2c-0.2,0.6-0.8,1.1-1.4,1.1
	c-0.9,0.1-1.7-0.5-1.8-1.4c0,0,0-0.1,0-0.1c-0.2-0.9,0.3-1.8,1.2-2c0.9-0.2,1.8,0.3,2,1.2c0,0.2,0.1,0.3,0,0.5L63.4,432.7z
	 M65.4,432c-0.1-0.5-0.6-0.9-1.1-0.8c-0.5,0.1-0.9,0.5-0.9,1L65.4,432z"/>
<path class="st23" d="M69.8,433.6l-0.6,0.1l-0.3-2.8h-0.3l-0.1-0.5h0.3l-0.2-1.3c-0.1-0.3-0.1-0.6,0-0.9c0.2-0.3,0.5-0.5,0.8-0.5
	c0.1,0,0.3,0,0.4,0l0.1,0.6c-0.1,0-0.3,0-0.4,0c-0.5,0.1-0.4,0.4-0.3,1l0.1,1.1l0.8-0.1l0.1,0.5l-0.8,0.1L69.8,433.6z"/>
<path class="st23" d="M70.7,431.8c-0.1-1,0.6-1.9,1.6-2s1.9,0.6,2,1.6c0.1,1-0.6,1.9-1.5,2C71.7,433.4,70.8,432.8,70.7,431.8
	C70.7,431.8,70.7,431.8,70.7,431.8z M71.2,431.7c0.1,0.7,0.7,1.1,1.4,1c0.7-0.1,1.1-0.7,1-1.4c-0.1-0.7-0.7-1.1-1.4-1
	C71.6,430.4,71.1,431,71.2,431.7C71.2,431.7,71.2,431.7,71.2,431.7L71.2,431.7z"/>
<path class="st23" d="M75.4,429.9L75.4,429.9c0.1-0.3,0.4-0.5,0.7-0.5c0.2,0,0.4,0,0.5,0.1l-0.2,0.5c-0.1-0.1-0.2-0.1-0.4-0.1
	c-0.6,0.1-0.6,0.9-0.5,1.3l0.2,1.7l-0.6,0.1l-0.4-3.4l0.6-0.1L75.4,429.9z"/>
<path class="st24" d="M61.3,443.9l0.4,3.3l4.2-0.5l0.3,2.5l-4.2,0.5l0.7,6.5l-2.9,0.3l-1.7-14.9l7.4-0.8l0.3,2.5L61.3,443.9z"/>
<path class="st24" d="M71.6,452.1l-0.9,3.3l-3.1,0.3l4.1-15.9l2.2-0.2l7.4,14.6l-3.1,0.3l-1.5-3L71.6,452.1z M73.3,444L73.3,444
	l-1,5.6l3.5-0.4L73.3,444z"/>
<path class="st24" d="M93.7,453.4l-1.2-1.1c-1,0.8-2.2,1.3-3.5,1.4c-4.3,0.5-7.8-2.8-8.2-7s2.1-8.2,6.5-8.6s7.8,2.8,8.2,7
	c0.2,1.9-0.2,3.9-1.2,5.6l2.3,2.2L93.7,453.4z M91.8,448.5c0.5-1,0.7-2.1,0.6-3.2c-0.3-2.4-2.3-4.8-4.9-4.5
	c-2.8,0.3-4.1,3.2-3.8,5.7s2.1,4.7,4.9,4.4c0.5-0.1,1.1-0.3,1.5-0.7l-2.8-2.5l3-0.6L91.8,448.5z"/>
</svg>
