<svg id="Layer_1" data-name="Layer 1" xmlns="http://www.w3.org/2000/svg" xmlns:xlink="http://www.w3.org/1999/xlink" viewBox="0 0 720 720"><defs><style>.cls-1{fill:url(#radial-gradient);}.cls-2{fill:url(#radial-gradient-2);}.cls-3{fill:url(#linear-gradient);}.cls-4{fill:url(#linear-gradient-2);}.cls-5{fill:url(#linear-gradient-3);}.cls-10,.cls-6{opacity:0.4;isolation:isolate;}.cls-6{fill:url(#linear-gradient-4);}.cls-7{fill:url(#linear-gradient-5);}.cls-8{fill:url(#linear-gradient-6);}.cls-9{fill:url(#linear-gradient-7);}.cls-10{fill:url(#linear-gradient-8);}.cls-11{fill:url(#linear-gradient-9);}.cls-12{fill:url(#linear-gradient-10);}.cls-13{fill:url(#linear-gradient-11);}.cls-14{fill:#c53c02;}.cls-15{fill:#c95b35;}.cls-16{fill:none;}.cls-17{fill:#dad9d4;}.cls-18{fill:#fffef7;}.cls-19{fill:#d5d8da;}.cls-20{fill:#3e5161;}.cls-21{fill:#cac9c5;}.cls-22{fill:#6e7b81;}.cls-23{fill:#5c686c;}.cls-24{fill:#f9f9f7;}.cls-25{fill:#f9f9f9;}</style><radialGradient id="radial-gradient" cx="1827.91" cy="456.4" r="9.09" gradientTransform="translate(1888.69 892.03) rotate(180) scale(0.9 1.47)" gradientUnits="userSpaceOnUse"><stop offset="0.31" stop-color="#dce58c"/><stop offset="0.62" stop-color="#becb5f"/><stop offset="1" stop-color="#6b7e3c"/></radialGradient><radialGradient id="radial-gradient-2" cx="1937.82" cy="456.72" r="9.1" gradientTransform="matrix(1, 0, 0, -1, 0, 720)" xlink:href="#radial-gradient"/><linearGradient id="linear-gradient" x1="179.85" y1="457.76" x2="179.85" y2="395.67" gradientTransform="matrix(1, 0, 0, -1, 0, 720)" gradientUnits="userSpaceOnUse"><stop offset="0.35" stop-color="#6c391c"/><stop offset="1" stop-color="#452a0f"/></linearGradient><linearGradient id="linear-gradient-2" x1="179.89" y1="460.16" x2="179.89" y2="422.36" gradientTransform="matrix(1, 0, 0, -1, 0, 720)" gradientUnits="userSpaceOnUse"><stop offset="0.12" stop-color="#7b4626"/><stop offset="0.53" stop-color="#6c391e"/><stop offset="0.88" stop-color="#6e3b1c"/></linearGradient><linearGradient id="linear-gradient-3" x1="179.44" y1="498.38" x2="179.44" y2="457.07" gradientTransform="matrix(1, 0, 0, -1, 0, 720)" gradientUnits="userSpaceOnUse"><stop offset="0.18" stop-color="#9c673f"/><stop offset="0.69" stop-color="#8b5531"/></linearGradient><linearGradient id="linear-gradient-4" x1="179.82" y1="497.76" x2="179.82" y2="453.93" xlink:href="#linear-gradient-3"/><linearGradient id="linear-gradient-5" x1="540.5" y1="457.51" x2="540.5" y2="395.41" xlink:href="#linear-gradient"/><linearGradient id="linear-gradient-6" x1="540.49" y1="459.9" x2="540.49" y2="422.1" xlink:href="#linear-gradient-2"/><linearGradient id="linear-gradient-7" x1="540.51" y1="498.13" x2="540.51" y2="456.82" xlink:href="#linear-gradient-3"/><linearGradient id="linear-gradient-8" x1="540.65" y1="497.5" x2="540.65" y2="453.68" xlink:href="#linear-gradient-3"/><linearGradient id="linear-gradient-9" x1="-1.07" y1="218.93" x2="720.62" y2="218.93" xlink:href="#linear-gradient"/><linearGradient id="linear-gradient-10" x1="33.32" y1="385.37" x2="462.91" y2="385.37" gradientTransform="translate(747.9 720) rotate(180) scale(0.85 1)" gradientUnits="userSpaceOnUse"><stop offset="0.35" stop-color="#53391c"/><stop offset="1" stop-color="#3c1f0f"/></linearGradient><linearGradient id="linear-gradient-11" x1="29.6" y1="334.65" x2="459.2" y2="334.65" gradientTransform="translate(-28.15 -0.39) scale(0.85 1)" xlink:href="#linear-gradient-10"/></defs><title>Artboard 1</title><g id="Layer_1-2" data-name="Layer 1"><ellipse class="cls-1" cx="249.03" cy="221.31" rx="4.25" ry="0.69"/><path class="cls-2" d="M145.47,220.83c0,.39,1.91.69,4.25.69s4.25-.31,4.25-.69-1.9-.68-4.25-.68S145.47,220.45,145.47,220.83Z"/><path class="cls-3" d="M359,213.8c-.26-.12-.48-.94-1.2-.46-.34.23-.2.21-.57.14s-.76.36-1,.62-.76-.23-1.72-.16a2.88,2.88,0,0,0-2.46-1.52,1.41,1.41,0,0,0-1.52.77c-.2.29-.31.26-1.28.39s-1.88.19-2.24-.29-.94-.48-1.87.39c-1.24.84-2.74-.07-4-.49a1.21,1.21,0,0,0-1.7.75c-.13.26-.85.13-1.44,0s-1.18-.78-1.89-1.13c-1.11-.45-2.46,1-2.81,1.39s-1.41.23-2.65.39a12.3,12.3,0,0,1-3.59-.13,1.66,1.66,0,0,0-2.34-.24h0a1.51,1.51,0,0,1-1.61.13c-.74-.23-1.8-.09-2.26-.39a2.54,2.54,0,0,0-2.22,0c-.5-.45-1.09-1.38-2.27-1.45s-1.24.16-2.76,1.58c0-.58-.85-.84-1.15-1s-1,1.45-1,1.45c-1.17-.68-1.91.39-2.15.52s-1.26-.78-2.46-1.55a1.35,1.35,0,0,0-1-.25,1.4,1.4,0,0,0-.24-.49c-.22-.26-1.11.12-1.41.45a1.19,1.19,0,0,1-1.13.22c-.37-.06-.76.36-1,.62s-.76-.23-1.72-.16a2.88,2.88,0,0,0-2.46-1.52,1.42,1.42,0,0,0-1.52.77c-.2.29-.3.26-1.28.39s-1.87.19-2.24-.29-.93-.48-1.87.39c-1.24.84-2.74-.07-4-.49a1.21,1.21,0,0,0-1.7.75c-.13.26-.84.13-1.43,0s-1.17-.78-1.89-1.13c-1.11-.45-2.46,1-2.81,1.39s-1.41.23-2.66.39a12.27,12.27,0,0,1-3.59-.13,1.67,1.67,0,0,0-2.35-.23,1.5,1.5,0,0,1-1.61.13c-.74-.23-1.8-.09-2.26-.39a2.54,2.54,0,0,0-2.22,0c-.5-.45-1.09-1.38-2.26-1.45s-1.25.16-2.77,1.58c0-.58-.85-.84-1.15-1s-1,1.45-1,1.45c-1.18-.68-1.91.39-2.16.52s-1.26-.78-2.46-1.55a1.27,1.27,0,0,0-1.58,0,1.63,1.63,0,0,0-.3-.77c-.22-.26-1.11.12-1.41.45a1.18,1.18,0,0,1-1.13.22c-.37-.06-.76.36-1,.62s-.76-.23-1.72-.16a2.88,2.88,0,0,0-2.46-1.52,1.42,1.42,0,0,0-1.52.77c-.2.29-.31.26-1.28.39s-1.88.19-2.25-.29-.93-.48-1.87.39c-1.24.84-2.74-.07-4-.49a1.21,1.21,0,0,0-1.7.75c-.13.26-.85.13-1.43,0s-1.18-.78-1.9-1.13c-1.11-.45-2.46,1-2.8,1.39s-1.42.23-2.65.39a12.29,12.29,0,0,1-3.59-.13,1.66,1.66,0,0,0-2.34-.24h0a1.51,1.51,0,0,1-1.61.13c-.74-.23-1.81-.09-2.26-.39a2.54,2.54,0,0,0-2.22,0c-.5-.45-1.09-1.38-2.26-1.45-1,0-1.19.1-2.15,1H205a.73.73,0,0,0-.55.2,2.66,2.66,0,0,0-1-.55c-.17-.07-.47.4-.71.82h-.46a2.89,2.89,0,0,0-2.46-1.52,1.42,1.42,0,0,0-1.52.77c-.14.2-.23.25-.59.3a1.28,1.28,0,0,0-1.59.18,1.52,1.52,0,0,1-1.34-.38c-.37-.48-.93-.48-1.87.39-1.24.84-2.74-.07-4-.49a1.21,1.21,0,0,0-1.7.75c-.13.26-.85.13-1.43,0s-1.17-.78-1.89-1.13c-1.11-.45-2.46,1-2.81,1.39s-1.41.23-2.65.39a12.3,12.3,0,0,1-3.59-.13,1.66,1.66,0,0,0-2.34-.24h0a1.51,1.51,0,0,1-1.61.13c-.74-.23-1.81-.09-2.27-.39a2.54,2.54,0,0,0-2.22,0c-.5-.45-1.09-1.38-2.26-1.45s-1.24.16-2.76,1.58c0-.58-.85-.84-1.16-1s-1,1.45-1,1.45c-1.18-.68-1.92.39-2.16.52s-1.26-.78-2.46-1.55a1.27,1.27,0,0,0-1.58,0,1.67,1.67,0,0,0-.3-.77c-.21-.26-1.11.12-1.41.45a1.18,1.18,0,0,1-1.13.22c-.37-.06-.76.36-1,.62s-.76-.23-1.72-.16a2.88,2.88,0,0,0-2.46-1.52,1.41,1.41,0,0,0-1.52.77c-.19.29-.31.26-1.28.39s-1.88.19-2.24-.29-.94-.48-1.88.39c-1.24.84-2.74-.07-4-.49a1.21,1.21,0,0,0-1.7.75c-.13.26-.85.13-1.44,0s-1.17-.78-1.89-1.13c-1.11-.45-2.46,1-2.81,1.39s-1.42.23-2.66.39a12.25,12.25,0,0,1-3.58-.13,1.67,1.67,0,0,0-2.35-.23,1.5,1.5,0,0,1-1.61.13c-.74-.23-1.81-.09-2.26-.39a2.55,2.55,0,0,0-2.23,0c-.5-.45-1.08-1.38-2.26-1.45-1,0-1.19.1-2.12,1a1.58,1.58,0,0,1-.72,0,.55.55,0,0,0-.29,0,3.38,3.38,0,0,0-.79-.39c-.18-.08-.5.44-.74.88a2.69,2.69,0,0,0-.86-.08,2.88,2.88,0,0,0-2.46-1.52,1.41,1.41,0,0,0-1.52.77.54.54,0,0,1-.28.24,1.27,1.27,0,0,0-1.43.2c-.8.08-1.5.07-1.81-.34s-.93-.48-1.87.39c-1.24.84-2.74-.07-4-.49a1.21,1.21,0,0,0-1.7.75c-.13.26-.85.13-1.44,0S86,213,85.31,212.7c-1.11-.45-2.45,1-2.81,1.39s-1.41.23-2.65.39a12.32,12.32,0,0,1-3.59-.13,1.66,1.66,0,0,0-2.34-.24h0a1.5,1.5,0,0,1-1.61.13c-.74-.23-1.81-.09-2.27-.39a2.53,2.53,0,0,0-2.22,0c-.5-.45-1.08-1.38-2.26-1.45s-1.24.16-2.77,1.58c0-.58-.85-.84-1.15-1s-1,1.45-1,1.45c-1.18-.68-1.91.39-2.16.52s-1.26-.78-2.46-1.55a1.28,1.28,0,0,0-1.59,0,1.71,1.71,0,0,0-.29-.77c-.22-.26-1.11.12-1.42.45a1.18,1.18,0,0,1-1.13.22c-.37-.06-.76.36-1,.62s-.76-.23-1.72-.16a2.88,2.88,0,0,0-2.46-1.52,1.41,1.41,0,0,0-1.52.77c-.2.29-.31.26-1.29.39s-1.87.19-2.24-.29-.93-.48-1.87.39c-1.24.84-2.74-.07-4-.49a1.21,1.21,0,0,0-1.7.75c-.13.26-.85.13-1.43,0s-1.18-.78-1.89-1.13c-1.12-.45-2.46,1-2.8,1.39s-1.42.23-2.66.39a12.31,12.31,0,0,1-3.59-.13,1.66,1.66,0,0,0-2.34-.23h0a1.51,1.51,0,0,1-1.61.13c-.74-.23-1.81-.09-2.26-.39a2.53,2.53,0,0,0-2.21,0c-.5-.45-1.09-1.38-2.27-1.45s-1.24.16-2.76,1.58c0-.58-.85-.84-1.16-1s-1,1.45-1,1.45c-.8-.48-1.58.62-1.8.73s-1.08-1.17-2.38-1.17h-2V324.19H360.09V214A2.85,2.85,0,0,1,359,213.8Z"/><path class="cls-4" d="M359.14,213.9c-.28-.07-.65-.93-1.07-.72s-.48.38-.85.31-.76.36-1,.62-.76-.23-1.72-.16a2.88,2.88,0,0,0-2.46-1.52,1.41,1.41,0,0,0-1.52.77c-.2.29-.31.26-1.28.39s-1.88.19-2.24-.29-.94-.48-1.87.39c-1.24.84-2.74-.07-4-.49a1.21,1.21,0,0,0-1.7.75c-.13.26-.85.13-1.44,0s-1.18-.78-1.89-1.13c-1.11-.45-2.46,1-2.81,1.39s-1.41.23-2.65.39a12.3,12.3,0,0,1-3.59-.13,1.66,1.66,0,0,0-2.34-.24h0a1.51,1.51,0,0,1-1.61.13c-.74-.23-1.8-.09-2.26-.39a2.54,2.54,0,0,0-2.22,0c-.5-.45-1.09-1.38-2.27-1.45s-1.24.16-2.76,1.58c0-.58-.85-.84-1.15-1s-1,1.45-1,1.45c-1.17-.68-1.91.39-2.15.52s-1.26-.78-2.46-1.55a1.35,1.35,0,0,0-1-.25,1.4,1.4,0,0,0-.24-.49c-.22-.26-1.11.12-1.41.45a1.19,1.19,0,0,1-1.13.22c-.37-.06-.76.36-1,.62s-.76-.23-1.72-.16a2.88,2.88,0,0,0-2.46-1.52,1.42,1.42,0,0,0-1.52.77c-.2.29-.3.26-1.28.39s-1.87.19-2.24-.29-.93-.48-1.87.39c-1.24.84-2.74-.07-4-.49a1.21,1.21,0,0,0-1.7.75c-.13.26-.84.13-1.43,0s-1.17-.78-1.89-1.13c-1.11-.45-2.46,1-2.81,1.39s-1.41.23-2.66.39a12.27,12.27,0,0,1-3.59-.13,1.67,1.67,0,0,0-2.35-.23,1.5,1.5,0,0,1-1.61.13c-.74-.23-1.8-.09-2.26-.39a2.54,2.54,0,0,0-2.22,0c-.5-.45-1.09-1.38-2.26-1.45s-1.25.16-2.77,1.58c0-.58-.85-.84-1.15-1s-1,1.45-1,1.45c-1.18-.68-1.91.39-2.16.52s-1.26-.78-2.46-1.55a1.27,1.27,0,0,0-1.58,0,1.63,1.63,0,0,0-.3-.77c-.22-.26-1.11.12-1.41.45a1.18,1.18,0,0,1-1.13.22c-.37-.06-.76.36-1,.62s-.76-.23-1.72-.16a2.88,2.88,0,0,0-2.46-1.52,1.42,1.42,0,0,0-1.52.77c-.2.29-.31.26-1.28.39s-1.88.19-2.25-.29-.93-.48-1.87.39c-1.24.84-2.74-.07-4-.49a1.21,1.21,0,0,0-1.7.75c-.13.26-.85.13-1.43,0s-1.18-.78-1.9-1.13c-1.11-.45-2.46,1-2.8,1.39s-1.42.23-2.65.39a12.29,12.29,0,0,1-3.59-.13,1.66,1.66,0,0,0-2.34-.24h0a1.51,1.51,0,0,1-1.61.13c-.74-.23-1.81-.09-2.26-.39a2.54,2.54,0,0,0-2.22,0c-.5-.45-1.09-1.38-2.26-1.45-1,0-1.19.1-2.15,1h-.25a.73.73,0,0,0-.55.2,2.66,2.66,0,0,0-1-.55c-.17-.07-.47.4-.71.82h-.46a2.89,2.89,0,0,0-2.46-1.52,1.42,1.42,0,0,0-1.52.77c-.14.2-.23.25-.59.3a1.28,1.28,0,0,0-1.59.18,1.52,1.52,0,0,1-1.34-.38c-.37-.48-.93-.48-1.87.39-1.24.84-2.74-.07-4-.49a1.21,1.21,0,0,0-1.7.75c-.13.26-.85.13-1.43,0s-1.17-.78-1.89-1.13c-1.11-.45-2.46,1-2.81,1.39s-1.41.23-2.65.39a12.3,12.3,0,0,1-3.59-.13,1.66,1.66,0,0,0-2.34-.24h0a1.51,1.51,0,0,1-1.61.13c-.74-.23-1.81-.09-2.27-.39a2.54,2.54,0,0,0-2.22,0c-.5-.45-1.09-1.38-2.26-1.45s-1.24.16-2.76,1.58c0-.58-.85-.84-1.16-1s-1,1.45-1,1.45c-1.18-.68-1.92.39-2.16.52s-1.26-.78-2.46-1.55a1.27,1.27,0,0,0-1.58,0,1.67,1.67,0,0,0-.3-.77c-.21-.26-1.11.12-1.41.45a1.18,1.18,0,0,1-1.13.22c-.37-.06-.76.36-1,.62s-.76-.23-1.72-.16a2.88,2.88,0,0,0-2.46-1.52,1.41,1.41,0,0,0-1.52.77c-.19.29-.31.26-1.28.39s-1.88.19-2.24-.29-.94-.48-1.88.39c-1.24.84-2.74-.07-4-.49a1.21,1.21,0,0,0-1.7.75c-.13.26-.85.13-1.44,0s-1.17-.78-1.89-1.13c-1.11-.45-2.46,1-2.81,1.39s-1.42.23-2.66.39a12.25,12.25,0,0,1-3.58-.13,1.67,1.67,0,0,0-2.35-.23,1.5,1.5,0,0,1-1.61.13c-.74-.23-1.81-.09-2.26-.39a2.55,2.55,0,0,0-2.23,0c-.5-.45-1.08-1.38-2.26-1.45-1,0-1.19.1-2.12,1a1.58,1.58,0,0,1-.72,0,.55.55,0,0,0-.29,0,3.38,3.38,0,0,0-.79-.39c-.18-.08-.5.44-.74.88a2.69,2.69,0,0,0-.86-.08,2.88,2.88,0,0,0-2.46-1.52,1.41,1.41,0,0,0-1.52.77.54.54,0,0,1-.28.24,1.27,1.27,0,0,0-1.43.2c-.8.08-1.5.07-1.81-.34s-.93-.48-1.87.39c-1.24.84-2.74-.07-4-.49a1.21,1.21,0,0,0-1.7.75c-.13.26-.85.13-1.44,0s-1.17-.78-1.89-1.13c-1.11-.45-2.45,1-2.81,1.39s-1.41.23-2.65.39a12.32,12.32,0,0,1-3.59-.13,1.66,1.66,0,0,0-2.34-.24h0a1.5,1.5,0,0,1-1.61.13c-.74-.23-1.81-.09-2.27-.39a2.53,2.53,0,0,0-2.22,0c-.5-.45-1.08-1.38-2.26-1.45s-1.24.16-2.77,1.58c0-.58-.85-.84-1.15-1s-1,1.45-1,1.45c-1.18-.68-1.91.39-2.16.52s-1.26-.78-2.46-1.55a1.28,1.28,0,0,0-1.59,0,1.71,1.71,0,0,0-.29-.77c-.22-.26-1.11.12-1.42.45a1.18,1.18,0,0,1-1.13.22c-.37-.06-.76.36-1,.62s-.76-.23-1.72-.16a2.88,2.88,0,0,0-2.46-1.52,1.41,1.41,0,0,0-1.52.77c-.2.29-.31.26-1.29.39s-1.87.19-2.24-.29-.93-.48-1.87.39c-1.24.84-2.74-.07-4-.49a1.21,1.21,0,0,0-1.7.75c-.13.26-.85.13-1.43,0s-1.18-.78-1.89-1.13c-1.12-.45-2.46,1-2.8,1.39s-1.42.23-2.66.39a12.31,12.31,0,0,1-3.59-.13,1.66,1.66,0,0,0-2.34-.23h0a1.51,1.51,0,0,1-1.61.13c-.74-.23-1.81-.09-2.26-.39a2.53,2.53,0,0,0-2.21,0c-.5-.45-1.09-1.38-2.27-1.45s-1.24.16-2.76,1.58c0-.58-.85-.84-1.16-1s-1,1.45-1,1.45c-.79-.49-1.57.61-1.79.72s-1.08-1.17-2.38-1.17h-2v78.49a5.62,5.62,0,0,0,1.78-.08c.57-.25.67.41,1.75.41s2.19.15,2.46-.25.81-.15,1.65.2,1.49.16,2.12.55a13.93,13.93,0,0,0,2.16.6c.57.25.91-.75,2.16-.71s3.24.35,3.74,0a1.58,1.58,0,0,1,1.75-.5,18.5,18.5,0,0,0,4.42.45c2,0,3.2-.8,4.18-.45a9.7,9.7,0,0,0,3.61.35,10.6,10.6,0,0,0,3.3-.5c.6-.25.94,0,1.48.2s.94-.3,2,0a6.17,6.17,0,0,0,2.46.2c.84,0,1.45-.6,2.33-.3s2.29,1,3.17.6,1.31-.6,1.85-.44a3.27,3.27,0,0,0,2,0,3.06,3.06,0,0,1,2-.06,3.06,3.06,0,0,0,2.35,0v.64c.57.35,1.41.8,1.78.64a3.12,3.12,0,0,1,1.75-.3c1.08,0,2.19.15,2.47-.25a1.32,1.32,0,0,1,1.65-.65c.84.35,1.48.16,2.12.55a14,14,0,0,0,2.16.6c.57.25.91-.75,2.16-.71s3.23.35,3.74,0a1.58,1.58,0,0,1,1.75-.5,18.55,18.55,0,0,0,4.41.45c2.06,0,3.2-.8,4.18-.45a9.71,9.71,0,0,0,3.61.35,10.61,10.61,0,0,0,3.3-.5c.61-.25.94,0,1.48.2s.94-.3,2,0a6.2,6.2,0,0,0,2.46.2c.84,0,1.45-.6,2.32-.3l.28.1v.55c.57.35,1.41.8,1.78.64a3.1,3.1,0,0,1,1.75-.3c1.08,0,2.19.15,2.46-.25a2,2,0,0,1,.41-.47l.29-.08a4.65,4.65,0,0,1,.65-.19,1.63,1.63,0,0,1,.3.08c.85.35,1.48.16,2.13.55a13.91,13.91,0,0,0,2.16.6c.57.25.91-.75,2.16-.71s3.24.35,3.74,0a1.58,1.58,0,0,1,1.75-.5,18.56,18.56,0,0,0,4.42.45c2.06,0,3.2-.8,4.18-.45a9.7,9.7,0,0,0,3.61.35,10.53,10.53,0,0,0,3.3-.5c.61-.25.95,0,1.49.2s.94-.3,2,0a6.2,6.2,0,0,0,2.46.2c.85,0,1.45-.6,2.33-.3s2.29,1,3.17.6,1.31-.6,1.85-.44a3.26,3.26,0,0,0,2,0,3,3,0,0,1,2.09-.15,3.06,3.06,0,0,0,2.35,0v.64c.56.35,1.42.8,1.78.64a3.09,3.09,0,0,1,1.75-.3c1.08,0,2.19.15,2.46-.25a1.32,1.32,0,0,1,1.65-.65c.84.35,1.48.16,2.12.55a14,14,0,0,0,2.16.6c.57.25.91-.75,2.16-.71s3.23.35,3.74,0a1.58,1.58,0,0,1,1.75-.5,18.5,18.5,0,0,0,4.41.45c2.06,0,3.2-.8,4.18-.45a9.73,9.73,0,0,0,3.61.35,10.64,10.64,0,0,0,3.3-.5c.6-.25.94,0,1.48.2s.95-.3,2,0a6.15,6.15,0,0,0,2.46.2c.8,0,1.38-.54,2.18-.35v.7c.56.35,1.41.8,1.78.64a3.11,3.11,0,0,1,1.75-.3c1.08,0,2.19.15,2.46-.25a2.11,2.11,0,0,1,.36-.42,2.19,2.19,0,0,0,.78-.13l.42-.13h.09c.84.35,1.48.16,2.12.55a13.86,13.86,0,0,0,2.16.6c.57.25.91-.75,2.16-.71s3.23.35,3.74,0a1.57,1.57,0,0,1,1.75-.5,18.53,18.53,0,0,0,4.41.45c2.05,0,3.2-.8,4.18-.45a9.7,9.7,0,0,0,3.61.35,10.53,10.53,0,0,0,3.3-.5c.61-.25.94,0,1.48.2s.95-.3,2,0a6.16,6.16,0,0,0,2.46.2c.84,0,1.45-.6,2.33-.3s2.29,1,3.17.6,1.31-.6,1.85-.44a3.26,3.26,0,0,0,2,0,3,3,0,0,1,2.09-.15,3.06,3.06,0,0,0,2.35,0v.64c.56.35,1.41.8,1.78.64a3.09,3.09,0,0,1,1.75-.3c1.08,0,2.19.15,2.47-.25a1.32,1.32,0,0,1,1.65-.65c.85.35,1.48.16,2.12.55a14,14,0,0,0,2.16.6c.57.25.91-.75,2.16-.71s3.24.35,3.75,0a1.57,1.57,0,0,1,1.75-.5,18.55,18.55,0,0,0,4.42.45c2.06,0,3.2-.8,4.18-.45a9.7,9.7,0,0,0,3.61.35,10.55,10.55,0,0,0,3.3-.5c.61-.25,1,0,1.48.2s1-.3,2,0a6.18,6.18,0,0,0,2.46.2c.84,0,1.45-.6,2.32-.3s2.29,1,3.17.6,1.32-.6,1.86-.44a3.27,3.27,0,0,0,2,0,3,3,0,0,1,2.09-.15,2.92,2.92,0,0,0,1.68.17v.44c.57.35,1.41.8,1.78.64a3.1,3.1,0,0,1,1.75-.3c1.08,0,2.19.15,2.46-.25a1.32,1.32,0,0,1,1.65-.65c.84.35,1.48.16,2.13.55a14.08,14.08,0,0,0,2.16.6c.57.25.91-.75,2.16-.71s3.24.35,3.74,0a1.58,1.58,0,0,1,1.75-.5,18.5,18.5,0,0,0,4.41.45c2.06,0,3.2-.8,4.18-.45a9.71,9.71,0,0,0,3.61.35,10.56,10.56,0,0,0,3.3-.5c.61-.25,1,0,1.48.2s1-.3,2,0a6.18,6.18,0,0,0,2.46.2c.84,0,1.45-.6,2.32-.3s2.3,1,3.17.6,1.31-.6,1.85-.44a3.26,3.26,0,0,0,2,0,3.06,3.06,0,0,1,2.09-.15c.44.22,1.38-.24,2.76-.24V214A2.28,2.28,0,0,1,359.14,213.9Z"/><path class="cls-5" d="M358.71,213.83c-.22-.25-.36-.57-.64-.47s-.48.4-.85.34-.76.35-1,.62-.76-.22-1.72-.16a2.91,2.91,0,0,0-2.46-1.52,1.4,1.4,0,0,0-1.52.78c-.2.29-.31.26-1.28.39s-1.88.19-2.24-.29-.94-.49-1.87.39c-1.24.84-2.74-.07-4-.48a1.2,1.2,0,0,0-1.7.74c-.13.26-.85.14-1.44,0A12.66,12.66,0,0,1,336.1,213c-1.11-.45-2.46,1-2.81,1.39s-1.41.22-2.65.39a12.6,12.6,0,0,1-3.59-.13c-1.13-.94-1.7-.62-2.35-.23a1.51,1.51,0,0,1-1.61.13c-.74-.23-1.8-.1-2.26-.39a2.48,2.48,0,0,0-2.22,0c-.5-.45-1.09-1.39-2.27-1.46s-1.24.16-2.76,1.58c0-.58-.85-.84-1.15-1s-1,1.46-1,1.46c-1.17-.68-1.91.38-2.15.51s-1.26-.78-2.46-1.55a.93.93,0,0,1-1.21-.75c-.22-.25-1.11.13-1.41.46a1.21,1.21,0,0,1-1.13.22c-.37-.06-.76.35-1,.62s-.76-.22-1.72-.16a2.9,2.9,0,0,0-2.46-1.52,1.42,1.42,0,0,0-1.52.78c-.2.29-.3.26-1.28.39s-1.87.19-2.24-.29-.93-.49-1.87.39c-1.24.84-2.74-.07-4-.48a1.21,1.21,0,0,0-1.7.74c-.13.26-.84.14-1.43,0s-1.17-.77-1.89-1.13c-1.11-.45-2.46,1-2.81,1.39s-1.41.22-2.66.39a12.57,12.57,0,0,1-3.59-.13c-1.13-.94-1.7-.62-2.35-.23a1.5,1.5,0,0,1-1.61.13c-.74-.23-1.8-.1-2.26-.39a2.48,2.48,0,0,0-2.22,0c-.5-.45-1.09-1.39-2.26-1.46s-1.25.16-2.77,1.58c0-.58-.85-.84-1.15-1s-1,1.46-1,1.46c-1.18-.68-1.91.38-2.16.51s-1.26-.78-2.46-1.55a1.28,1.28,0,0,0-1.58,0,1.69,1.69,0,0,0-.3-.77c-.22-.25-1.11.13-1.41.46a1.21,1.21,0,0,1-1.13.22c-.37-.06-.76.35-1,.62s-.76-.22-1.72-.16a2.91,2.91,0,0,0-2.46-1.52,1.41,1.41,0,0,0-1.52.78c-.2.29-.31.26-1.28.39s-1.88.19-2.25-.29-.93-.49-1.87.39c-1.24.84-2.74-.07-4-.48a1.21,1.21,0,0,0-1.7.74c-.13.26-.85.14-1.43,0a13.8,13.8,0,0,1-1.9-1.13c-1.11-.45-2.46,1-2.8,1.39s-1.42.22-2.65.39a12.59,12.59,0,0,1-3.59-.13c-1.13-.94-1.7-.62-2.35-.23a1.51,1.51,0,0,1-1.61.13c-.74-.23-1.81-.1-2.26-.39a2.48,2.48,0,0,0-2.22,0c-.5-.45-1.09-1.39-2.26-1.46-1-.05-1.19.1-2.15,1H205a.74.74,0,0,0-.55.19,2.88,2.88,0,0,0-1-.55c-.17-.07-.47.39-.71.82a3,3,0,0,0-.46,0,2.91,2.91,0,0,0-2.46-1.52,1.42,1.42,0,0,0-1.52.78c-.14.19-.23.25-.59.3a1.27,1.27,0,0,0-1.59.18,1.54,1.54,0,0,1-1.34-.38c-.37-.49-.93-.49-1.87.39-1.24.84-2.74-.07-4-.48a1.21,1.21,0,0,0-1.7.74c-.13.26-.85.14-1.43,0a13.75,13.75,0,0,1-1.89-1.13c-1.11-.45-2.46,1-2.81,1.39s-1.41.22-2.65.39a12.6,12.6,0,0,1-3.59-.13c-1.13-.94-1.7-.62-2.35-.23a1.51,1.51,0,0,1-1.61.13c-.74-.23-1.81-.1-2.27-.39a2.47,2.47,0,0,0-2.22,0c-.5-.45-1.09-1.39-2.26-1.46s-1.24.16-2.76,1.58c0-.58-.85-.84-1.16-1s-1,1.46-1,1.46c-1.18-.68-1.92.38-2.16.51s-1.26-.78-2.46-1.55a1.28,1.28,0,0,0-1.58,0,1.73,1.73,0,0,0-.3-.77c-.21-.25-1.11.13-1.41.46a1.21,1.21,0,0,1-1.13.22c-.37-.06-.76.35-1,.62s-.76-.22-1.72-.16a2.91,2.91,0,0,0-2.46-1.52,1.41,1.41,0,0,0-1.52.78c-.19.29-.31.26-1.28.39s-1.88.19-2.24-.29-.94-.49-1.88.39c-1.24.84-2.74-.07-4-.48a1.21,1.21,0,0,0-1.7.74c-.13.26-.85.14-1.44,0s-1.17-.77-1.89-1.13c-1.11-.45-2.46,1-2.81,1.39s-1.42.22-2.66.39a12.55,12.55,0,0,1-3.58-.13c-1.13-.94-1.7-.62-2.35-.23a1.5,1.5,0,0,1-1.61.13c-.74-.23-1.81-.1-2.26-.39a2.49,2.49,0,0,0-2.23,0c-.5-.45-1.08-1.39-2.26-1.46-1-.05-1.19.1-2.12,1a1.79,1.79,0,0,1-.72,0,.54.54,0,0,0-.29,0,4,4,0,0,0-.79-.39c-.18-.08-.5.44-.74.89a3,3,0,0,0-.86-.08,2.91,2.91,0,0,0-2.46-1.52,1.41,1.41,0,0,0-1.52.78.5.5,0,0,1-.28.23,1.26,1.26,0,0,0-1.43.21c-.8.09-1.5.07-1.81-.34s-.93-.49-1.87.39c-1.24.84-2.74-.07-4-.48a1.2,1.2,0,0,0-1.7.74c-.13.26-.85.14-1.44,0s-1.17-.77-1.89-1.13c-1.11-.45-2.45,1-2.81,1.39s-1.41.22-2.65.39a12.63,12.63,0,0,1-3.59-.13c-1.13-.94-1.69-.62-2.35-.23a1.5,1.5,0,0,1-1.61.13c-.74-.23-1.81-.1-2.27-.39a2.47,2.47,0,0,0-2.22,0c-.5-.45-1.08-1.39-2.26-1.46s-1.24.16-2.77,1.58c0-.58-.85-.84-1.15-1s-1,1.46-1,1.46c-1.18-.68-1.91.38-2.16.51s-1.26-.78-2.46-1.55a1.28,1.28,0,0,0-1.59,0,1.78,1.78,0,0,0-.29-.77c-.22-.25-1.11.13-1.42.46a1.2,1.2,0,0,1-1.13.22c-.37-.06-.76.35-1,.62s-.76-.22-1.72-.16a2.91,2.91,0,0,0-2.46-1.52,1.4,1.4,0,0,0-1.52.78c-.2.29-.31.26-1.29.39s-1.87.19-2.24-.29-.93-.49-1.87.39c-1.24.84-2.74-.07-4-.48a1.21,1.21,0,0,0-1.7.74c-.13.26-.85.14-1.43,0a13.18,13.18,0,0,1-1.89-1.13c-1.12-.45-2.46,1-2.8,1.39s-1.42.22-2.66.39a12.61,12.61,0,0,1-3.59-.13c-1.13-.94-1.7-.62-2.34-.23a1.51,1.51,0,0,1-1.61.13c-.74-.23-1.81-.1-2.26-.39a2.47,2.47,0,0,0-2.21,0c-.5-.45-1.09-1.39-2.27-1.46s-1.24.16-2.76,1.58c0-.58-.85-.84-1.16-1s-1,1.46-1,1.46c-1.17-.68-1.91.38-2.15.51s-1.15-1.08-2.46-1.08-2-.05-2-.05v54.12c1,0,1.19-.3,1.64-.12a2.37,2.37,0,0,0,1.62-.25A1.4,1.4,0,0,1,4,267.48c.78.34,1.18.39,1.55-.07s1.07-.06,1.63.23,1.47.2,1.84.36,1,1.21,2.16,1,1.1-.21,1.57.12.84.17,1.46,0,.93-.75,1.26-.38.87.38,2.14.33,3.54-.75,4.19-.5,1.1.83,1.26.58a1.86,1.86,0,0,1,1.6-.67,11.43,11.43,0,0,0,2.81-.12,3.26,3.26,0,0,1,2.19,0c.73.29.59.5,1.4.37a10.87,10.87,0,0,1,2.33,0,14.33,14.33,0,0,0,3.26-1,1.78,1.78,0,0,1,1.55.21c.59.29,1,.54,1.48.33s.62-.13,2.14.08a9.75,9.75,0,0,0,3.4,0c.45-.17.68-.71,1.6-.38s.92,0,1.34-.13a3.13,3.13,0,0,1,1.86,0c.56.21,1.34.13,2.13.42a4.92,4.92,0,0,0,1.86,0v1.19l.34-.45c.29-.34.37-.56.81-.39a1.63,1.63,0,0,0,.92,0c.25,0,.44.46.75.27s.62-1,1.41-.66,1.24.33,1.6-.13,1-.2,1.54.09.78.62,1.32.62.73.29,1.1.46,1-.25,2.16-.46,1.09-.21,1.57.12.84.17,1.46,0,.93-.75,1.26-.38.87.38,2.13.33,3.54-.75,4.19-.5,1.09.83,1.26.58a1.86,1.86,0,0,1,1.6-.67,11.44,11.44,0,0,0,2.81-.12,3.25,3.25,0,0,1,2.19,0c.73.29.59.5,1.41.37a10.83,10.83,0,0,1,2.33,0,14.33,14.33,0,0,0,3.26-1,1.77,1.77,0,0,1,1.54.21c.59.29,1,.54,1.49.33s.62-.13,2.13.08c.36,0,.72.08,1.06.1v1l.35-.45c.29-.34.37-.56.81-.39a1.62,1.62,0,0,0,.92,0c.25,0,.44.46.75.27s.62-1,1.41-.66,1.23.33,1.6-.13,1-.2,1.55.09.78.62,1.32.62.73.29,1.09.46,1-.25,2.16-.46,1.1-.21,1.57.12.84.17,1.46,0,.93-.75,1.26-.38.87.38,2.14.33,3.54-.75,4.18-.5,1.09.83,1.26.58a1.86,1.86,0,0,1,1.6-.67,11.39,11.39,0,0,0,2.8-.12,3.27,3.27,0,0,1,2.19,0c.73.29.59.5,1.4.37a10.87,10.87,0,0,1,2.33,0,14.08,14.08,0,0,0,3.25-1,1.78,1.78,0,0,1,1.55.21c.59.29,1,.54,1.49.33s.61-.13,2.13.08a9.75,9.75,0,0,0,3.4,0c.45-.17.67-.71,1.6-.38s.93,0,1.35-.13a3.12,3.12,0,0,1,1.85,0c.57.21,1.35.13,2.13.42a4.93,4.93,0,0,0,1.86,0V269c.12-.17.25-.33.34-.45.29-.34.37-.56.81-.39a1.62,1.62,0,0,0,.92,0c.25,0,.44.46.76.27s.62-1,1.4-.66,1.24.33,1.6-.13,1-.2,1.54.09.79.62,1.32.62.73.29,1.09.46,1-.25,2.16-.46,1.1-.21,1.58.12.84.17,1.46,0,.93-.75,1.26-.38.87.38,2.13.33,3.54-.75,4.19-.5,1.09.83,1.26.58a1.87,1.87,0,0,1,1.6-.67,11.41,11.41,0,0,0,2.81-.12,3.27,3.27,0,0,1,2.19,0c.73.29.59.5,1.4.37a10.84,10.84,0,0,1,2.33,0,14.33,14.33,0,0,0,3.26-1,1.78,1.78,0,0,1,1.55.21c.59.29,1,.54,1.49.33s.61-.13,2.14.08l.62.07v1.07l.34-.45c.3-.34.37-.56.81-.39a1.65,1.65,0,0,0,.92,0c.24,0,.45.46.75.27s.62-1,1.41-.66,1.23.33,1.6-.13,1-.2,1.54.09.79.62,1.32.62.73.29,1.09.46,1-.25,2.16-.46,1.09-.21,1.57.12.84.17,1.46,0,.93-.75,1.26-.38.87.38,2.13.33,3.54-.75,4.18-.5,1.1.83,1.27.58a1.84,1.84,0,0,1,1.6-.67,11.46,11.46,0,0,0,2.81-.12,3.26,3.26,0,0,1,2.19,0c.72.29.59.5,1.4.37a10.87,10.87,0,0,1,2.33,0,14.33,14.33,0,0,0,3.26-1,1.76,1.76,0,0,1,1.54.21c.59.29,1,.54,1.49.33s.62-.13,2.13.08a9.75,9.75,0,0,0,3.4,0c.45-.17.68-.71,1.6-.38s.93,0,1.35-.13a3.14,3.14,0,0,1,1.86,0c.56.21,1.34.13,2.13.42a4.93,4.93,0,0,0,1.86,0v1.19l.34-.45c.29-.34.37-.56.81-.39a1.64,1.64,0,0,0,.92,0c.25,0,.44.46.75.27s.62-1,1.41-.66,1.23.33,1.6-.13,1-.2,1.54.09.79.62,1.32.62.73.29,1.09.46,1-.25,2.16-.46,1.09-.21,1.58.12.84.17,1.46,0,.93-.75,1.27-.38.87.38,2.13.33,3.54-.75,4.19-.5,1.09.83,1.26.58a1.86,1.86,0,0,1,1.6-.67,11.44,11.44,0,0,0,2.81-.12,3.24,3.24,0,0,1,2.19,0c.74.29.59.5,1.41.37a10.88,10.88,0,0,1,2.33,0,14.33,14.33,0,0,0,3.26-1,1.78,1.78,0,0,1,1.55.21c.59.29,1,.54,1.49.33s.62-.13,2.13.08c1.85.25,3.61-.54,5.44-.37.7.07,1.38-.3,2.1-.25s1.72.3,2.59.38c.57.06,1.34.15,1.45,1.2,1-.39,1.88-.29,2.82-.61a3.14,3.14,0,0,1,1.48-.34,5.21,5.21,0,0,0,2-.24c.83-.19,1.5.76,2.32.76.54,0,.73.29,1.09.46s1-.25,2.16-.46,1.1-.21,1.57.12.85.17,1.47,0,.92-.75,1.26-.38.87.38,2.13.33,3.54-.75,4.19-.5,1.1.83,1.26.58a1.85,1.85,0,0,1,1.6-.67,11.43,11.43,0,0,0,2.81-.12,3.26,3.26,0,0,1,2.19,0c.74.29.59.5,1.4.37a10.91,10.91,0,0,1,2.34,0,14.33,14.33,0,0,0,3.26-1,1.77,1.77,0,0,1,1.54.21c.59.29,1,.54,1.49.33s.62-.13,2.14.08a9.74,9.74,0,0,0,3.4,0c.44-.17.67-.71,1.6-.38s.92,0,1.35-.13a3.12,3.12,0,0,1,1.85,0c.56.21,1.35.13,2.13.42a6.39,6.39,0,0,0,2.27-.24V214.19C359.47,214.13,358.92,214.1,358.71,213.83Z"/><path class="cls-6" d="M359,214.14c-.47,0-.3-.47-.72-.58s-.76.29-1.13.22-.76.35-1,.62-.76-.23-1.72-.16a2.87,2.87,0,0,0-2.45-1.51,1.41,1.41,0,0,0-1.52.78c-.2.28-.3.26-1.29.38s-1.87.2-2.24-.29-.94-.48-1.87.39c-1.24.84-2.74-.07-4-.48a1.21,1.21,0,0,0-1.7.74c-.13.26-.84.13-1.43,0s-1.17-.77-1.89-1.13c-1.11-.45-2.46,1-2.81,1.39s-1.41.23-2.65.39a12.4,12.4,0,0,1-3.59-.13c-1.13-.93-1.69-.62-2.35-.23a1.5,1.5,0,0,1-1.6.13c-.74-.23-1.81-.09-2.27-.39a2.48,2.48,0,0,0-2.22,0c-.5-.45-1.09-1.39-2.26-1.46s-1.24.16-2.76,1.58c0-.58-.85-.83-1.15-1s-1,1.45-1,1.45c-1.18-.68-1.91.39-2.16.51s-1.26-.77-2.46-1.54a1.4,1.4,0,0,0-1-.25,1.44,1.44,0,0,0-.23-.49c-.22-.26-1.11.13-1.41.46a1.2,1.2,0,0,1-1.13.22c-.37-.07-.76.35-1,.62s-.76-.23-1.72-.16a2.87,2.87,0,0,0-2.46-1.51,1.41,1.41,0,0,0-1.52.78c-.2.28-.3.26-1.29.38s-1.87.2-2.24-.29-.93-.48-1.87.39c-1.23.84-2.74-.07-4-.48a1.21,1.21,0,0,0-1.7.74c-.13.26-.85.13-1.44,0s-1.17-.77-1.89-1.13c-1.11-.45-2.46,1-2.81,1.39s-1.41.23-2.65.39a12.41,12.41,0,0,1-3.59-.13c-1.13-.93-1.7-.62-2.35-.23a1.51,1.51,0,0,1-1.61.13c-.74-.23-1.81-.09-2.26-.39a2.5,2.5,0,0,0-2.22,0c-.5-.45-1.09-1.39-2.26-1.46s-1.24.16-2.77,1.58c0-.58-.84-.83-1.15-1s-1,1.45-1,1.45c-1.18-.68-1.91.39-2.16.51s-1.26-.77-2.46-1.54a1.26,1.26,0,0,0-1.58,0,1.67,1.67,0,0,0-.3-.77c-.22-.26-1.11.13-1.41.46a1.21,1.21,0,0,1-1.13.22c-.37-.07-.76.35-1,.62s-.76-.23-1.72-.16a2.87,2.87,0,0,0-2.45-1.51,1.41,1.41,0,0,0-1.52.78c-.2.28-.3.26-1.28.38s-1.87.2-2.24-.29-.94-.48-1.87.39c-1.25.84-2.74-.07-4-.48a1.21,1.21,0,0,0-1.7.74c-.13.26-.84.13-1.43,0s-1.17-.77-1.9-1.13c-1.11-.45-2.46,1-2.8,1.39s-1.42.23-2.65.39a12.43,12.43,0,0,1-3.59-.13c-1.13-.93-1.69-.62-2.35-.23a1.52,1.52,0,0,1-1.61.13c-.74-.23-1.8-.09-2.26-.39a2.48,2.48,0,0,0-2.21,0c-.5-.45-1.09-1.39-2.27-1.46-1,0-1.19.1-2.15,1h-.25a.74.74,0,0,0-.55.2,2.55,2.55,0,0,0-1-.55c-.17-.08-.47.39-.71.81a2.22,2.22,0,0,0-.46,0,2.88,2.88,0,0,0-2.46-1.51,1.41,1.41,0,0,0-1.52.78c-.13.19-.23.24-.59.3A1.28,1.28,0,0,0,196,214a1.53,1.53,0,0,1-1.34-.38c-.37-.48-.94-.48-1.87.39-1.24.84-2.74-.07-4-.48a1.21,1.21,0,0,0-1.7.74c-.13.26-.85.13-1.44,0s-1.17-.77-1.89-1.13c-1.11-.45-2.46,1-2.81,1.39s-1.41.23-2.65.39a12.44,12.44,0,0,1-3.59-.13c-1.13-.93-1.7-.62-2.35-.23a1.52,1.52,0,0,1-1.61.13c-.74-.23-1.8-.09-2.26-.39a2.49,2.49,0,0,0-2.22,0c-.5-.45-1.08-1.39-2.26-1.46s-1.24.16-2.76,1.58c0-.58-.85-.83-1.15-1s-1,1.45-1,1.45c-1.18-.68-1.91.39-2.15.51s-1.26-.77-2.46-1.54a1.26,1.26,0,0,0-1.59,0,1.71,1.71,0,0,0-.29-.77c-.22-.26-1.11.13-1.41.46a1.19,1.19,0,0,1-1.13.22c-.37-.07-.77.35-1,.62s-.76-.23-1.72-.16a2.87,2.87,0,0,0-2.46-1.51,1.42,1.42,0,0,0-1.53.78c-.19.28-.3.26-1.28.38s-1.87.2-2.24-.29-.94-.48-1.87.39c-1.24.84-2.74-.07-4-.48a1.21,1.21,0,0,0-1.7.74c-.13.26-.85.13-1.43,0s-1.18-.77-1.9-1.13c-1.11-.45-2.46,1-2.8,1.39s-1.42.23-2.66.39a12.4,12.4,0,0,1-3.59-.13c-1.13-.93-1.7-.62-2.35-.23a1.52,1.52,0,0,1-1.61.13c-.74-.23-1.81-.09-2.26-.39a2.49,2.49,0,0,0-2.22,0c-.5-.45-1.09-1.39-2.26-1.46-1,0-1.19.1-2.12,1a1.69,1.69,0,0,1-.71,0,.52.52,0,0,0-.29,0,3.12,3.12,0,0,0-.79-.39c-.18-.08-.5.44-.74.87a3.11,3.11,0,0,0-.86-.08,2.87,2.87,0,0,0-2.46-1.51,1.41,1.41,0,0,0-1.52.78.52.52,0,0,1-.28.23,1.25,1.25,0,0,0-1.43.22c-.8.08-1.49.06-1.81-.35s-.94-.48-1.87.39c-1.24.84-2.74-.07-4-.48a1.21,1.21,0,0,0-1.7.74c-.13.26-.85.13-1.43,0S86,213.39,85.31,213c-1.11-.45-2.46,1-2.81,1.39s-1.41.23-2.65.39a12.4,12.4,0,0,1-3.59-.13c-1.13-.93-1.7-.62-2.35-.23a1.5,1.5,0,0,1-1.61.13c-.74-.23-1.8-.09-2.26-.39a2.49,2.49,0,0,0-2.22,0c-.5-.45-1.09-1.39-2.26-1.46s-1.24.16-2.76,1.58c0-.58-.85-.83-1.15-1s-1,1.45-1,1.45c-1.18-.68-1.92.39-2.16.51s-1.26-.77-2.46-1.54a1.26,1.26,0,0,0-1.59,0,1.63,1.63,0,0,0-.29-.77c-.22-.26-1.11.13-1.41.46a1.2,1.2,0,0,1-1.13.22c-.37-.07-.76.35-1,.62s-.75-.23-1.71-.16a2.87,2.87,0,0,0-2.46-1.51,1.41,1.41,0,0,0-1.52.78c-.2.28-.31.26-1.28.38s-1.87.2-2.25-.29-.93-.48-1.86.39c-1.24.84-2.74-.07-4-.48a1.21,1.21,0,0,0-1.7.74c-.13.26-.85.13-1.43,0s-1.18-.77-1.89-1.13c-1.11-.45-2.46,1-2.81,1.39s-1.41.23-2.66.39a12.41,12.41,0,0,1-3.59-.13c-1.13-.93-1.7-.62-2.34-.23a1.51,1.51,0,0,1-1.61.13c-.74-.23-1.81-.09-2.26-.39a2.49,2.49,0,0,0-2.22,0c-.5-.45-1.09-1.39-2.26-1.46s-.93.32-2.46,1.72c0-.58-.85-.83-1.16-1s-1,1.45-1,1.45c-1.17-.68-1.91.39-2.15.51s-1.08-.95-2.38-.95c-1.15,0-2-.08-2-.08v23c4.08,0,5.09,2.39,8.61,1.91,6.07-.83,5.2,3.87,13.85,1s7.49-2.74,15,.26c3.77,1.5,4.81-.42,8.32-1.52,2.32-.73,5,.19,7.39-.31,1-.2,1.46-1.1,2.45-1s2.28,2,3.26,2.37c5,2.16,13.2,1.84,18.34.16,8.65-2.83,7.49-2.74,15,.26h0c2.57,1,4,.37,6.51-.41,1.92-.6,2.22-.39,4.3.2a31.18,31.18,0,0,0,17.82-.06c8.65-2.83,7.49-2.74,15,.26a6.83,6.83,0,0,0,5.93.08c2.61-1.13,4.45-1.15,7.27-1.39,1.35-.12,3.36-1.92,4.45-1.78,1.59.2,3.4,2.76,5.19,3.16s3.68-.14,5.52,0c2.41.2,4.65,1,7.09.74,3.85-.45,7.53-2.93,11.38-3.11,2.73-.12,5.33,1.26,7.93,2.3,6,2.38,5.58-.6,8.09-1.42a7.82,7.82,0,0,0,5.69,1.58c6.06-.83,5.76,2.41,14.41-.42s7.49-2.74,15,.26a6.94,6.94,0,0,0,5.93.08c2.89-1.19,5.25-.84,8.23-1.49s2.95-1.41,5.76.16c6,3.35,13.66,3,19.83,1,8.65-2.83,7.49-2.74,15,.26s4.94-2.5,10.78-1.5c3.06.52,5-.06,6.5-1.4,1.75,1.78,4.29,3.49,7.4,3.06,6.06-.83,5.76,2.41,14.41-.42s7.49-2.74,15,.26,5-2.5,10.78-1.5c3.36.57,3.38-1.7,7-1.7v-23C359.38,214.37,359.25,214.14,359,214.14Z"/><path class="cls-7" d="M720.59,214.06c-.26-.12-.48-.94-1.21-.46-.34.23-.21.21-.58.14s-.77.36-1,.62-.77-.23-1.73-.16a2.9,2.9,0,0,0-2.47-1.52,1.42,1.42,0,0,0-1.52.77c-.2.29-.31.26-1.29.39s-1.88.19-2.25-.29-.94-.48-1.88.39c-1.24.84-2.75-.07-4-.49a1.21,1.21,0,0,0-1.7.75c-.13.26-.85.13-1.44,0s-1.18-.78-1.9-1.13c-1.12-.45-2.47,1-2.82,1.39s-1.42.23-2.67.39a12.42,12.42,0,0,1-3.61-.13,1.68,1.68,0,0,0-2.36-.23,1.52,1.52,0,0,1-1.62.13c-.74-.23-1.81-.09-2.27-.39a2.56,2.56,0,0,0-2.23,0c-.5-.45-1.09-1.38-2.28-1.45s-1.24.16-2.77,1.58c0-.58-.85-.84-1.16-1s-1,1.45-1,1.45c-1.18-.68-1.92.39-2.16.52s-1.27-.78-2.47-1.55a1.37,1.37,0,0,0-1-.25A1.39,1.39,0,0,0,667,213c-.22-.26-1.12.12-1.42.45a1.2,1.2,0,0,1-1.14.22c-.37-.06-.76.36-1,.62s-.76-.23-1.73-.16a2.89,2.89,0,0,0-2.47-1.52,1.43,1.43,0,0,0-1.53.77c-.2.29-.3.26-1.29.39s-1.88.19-2.25-.29-.94-.48-1.88.39c-1.25.84-2.75-.07-4-.49a1.22,1.22,0,0,0-1.71.75c-.13.26-.85.13-1.44,0s-1.18-.78-1.9-1.13c-1.12-.45-2.47,1-2.82,1.39s-1.42.23-2.67.39a12.39,12.39,0,0,1-3.6-.13,1.68,1.68,0,0,0-2.36-.23,1.52,1.52,0,0,1-1.62.13c-.74-.23-1.81-.09-2.27-.39a2.56,2.56,0,0,0-2.23,0c-.5-.45-1.09-1.38-2.27-1.45s-1.25.16-2.78,1.58c0-.58-.85-.84-1.16-1s-1,1.45-1,1.45c-1.18-.68-1.92.39-2.17.52s-1.27-.78-2.47-1.55a1.28,1.28,0,0,0-1.59,0,1.63,1.63,0,0,0-.3-.77c-.22-.26-1.11.12-1.42.45a1.19,1.19,0,0,1-1.14.22c-.37-.06-.76.36-1,.62s-.77-.23-1.73-.16a2.9,2.9,0,0,0-2.47-1.52,1.43,1.43,0,0,0-1.53.77c-.2.29-.31.26-1.29.39s-1.89.19-2.26-.29-.94-.48-1.88.39c-1.25.84-2.75-.07-4-.49a1.22,1.22,0,0,0-1.7.75c-.13.26-.85.13-1.44,0s-1.18-.78-1.91-1.13c-1.11-.45-2.47,1-2.82,1.39s-1.42.23-2.67.39a12.41,12.41,0,0,1-3.61-.13,1.68,1.68,0,0,0-2.36-.23,1.53,1.53,0,0,1-1.62.13c-.74-.23-1.82-.09-2.27-.39a2.56,2.56,0,0,0-2.23,0c-.5-.45-1.1-1.38-2.27-1.45-1,0-1.2.1-2.16,1h-.25a.74.74,0,0,0-.55.2,2.67,2.67,0,0,0-1-.55c-.17-.07-.48.4-.71.82h-.46a2.9,2.9,0,0,0-2.47-1.52,1.43,1.43,0,0,0-1.53.77c-.14.2-.23.25-.59.3a1.29,1.29,0,0,0-1.6.18,1.54,1.54,0,0,1-1.34-.38c-.37-.48-.94-.48-1.88.39-1.24.84-2.75-.07-4-.49a1.22,1.22,0,0,0-1.7.75c-.13.26-.85.13-1.44,0s-1.18-.78-1.9-1.13c-1.11-.45-2.47,1-2.83,1.39s-1.41.23-2.66.39a12.42,12.42,0,0,1-3.61-.13,1.68,1.68,0,0,0-2.36-.23,1.52,1.52,0,0,1-1.62.13c-.74-.23-1.81-.09-2.28-.39a2.56,2.56,0,0,0-2.23,0c-.5-.45-1.09-1.38-2.27-1.45s-1.25.16-2.78,1.58c0-.58-.85-.84-1.16-1s-1,1.45-1,1.45c-1.18-.68-1.92.39-2.17.52s-1.27-.78-2.47-1.55a1.28,1.28,0,0,0-1.59,0,1.66,1.66,0,0,0-.3-.77c-.21-.26-1.11.12-1.42.45a1.2,1.2,0,0,1-1.14.22c-.37-.06-.76.36-1,.62s-.77-.23-1.73-.16a2.9,2.9,0,0,0-2.47-1.52,1.42,1.42,0,0,0-1.53.77c-.19.29-.31.26-1.29.39s-1.88.19-2.25-.29-.94-.48-1.88.39c-1.24.84-2.75-.07-4-.49a1.22,1.22,0,0,0-1.7.75c-.13.26-.85.13-1.44,0s-1.18-.78-1.9-1.13c-1.12-.45-2.47,1-2.82,1.39s-1.42.23-2.67.39a12.37,12.37,0,0,1-3.6-.13,1.68,1.68,0,0,0-2.36-.23,1.51,1.51,0,0,1-1.62.13c-.74-.23-1.82-.09-2.27-.39a2.58,2.58,0,0,0-2.24,0c-.5-.45-1.09-1.38-2.27-1.45-1,0-1.19.1-2.13,1a1.6,1.6,0,0,1-.72,0,.56.56,0,0,0-.29,0,3.4,3.4,0,0,0-.79-.39c-.18-.08-.5.44-.74.88a2.71,2.71,0,0,0-.86-.08,2.9,2.9,0,0,0-2.47-1.52,1.42,1.42,0,0,0-1.53.77.54.54,0,0,1-.28.24,1.28,1.28,0,0,0-1.44.2c-.81.08-1.5.07-1.82-.34s-.94-.48-1.88.39c-1.24.84-2.75-.07-4-.49a1.21,1.21,0,0,0-1.7.75c-.13.26-.86.13-1.44,0s-1.18-.78-1.9-1.13c-1.11-.45-2.47,1-2.82,1.39s-1.42.23-2.67.39a12.45,12.45,0,0,1-3.61-.13,1.68,1.68,0,0,0-2.36-.23,1.51,1.51,0,0,1-1.61.13c-.74-.23-1.82-.09-2.28-.39a2.56,2.56,0,0,0-2.23,0c-.5-.45-1.09-1.38-2.27-1.45s-1.25.16-2.78,1.58c0-.58-.85-.84-1.16-1s-1,1.45-1,1.45c-1.19-.68-1.92.39-2.17.52s-1.26-.78-2.47-1.55a1.29,1.29,0,0,0-1.59,0,1.7,1.7,0,0,0-.29-.77c-.22-.26-1.12.12-1.43.45a1.19,1.19,0,0,1-1.14.22c-.37-.06-.76.36-1,.62s-.76-.23-1.73-.16a2.9,2.9,0,0,0-2.47-1.52,1.42,1.42,0,0,0-1.52.77c-.2.29-.31.26-1.29.39s-1.88.19-2.25-.29-.94-.48-1.88.39c-1.25.84-2.76-.07-4-.49A1.22,1.22,0,0,0,394,214c-.13.26-.85.13-1.44,0s-1.18-.78-1.9-1.13c-1.12-.45-2.48,1-2.82,1.39s-1.43.23-2.67.39a12.43,12.43,0,0,1-3.61-.13,1.67,1.67,0,0,0-2.35-.24h0a1.52,1.52,0,0,1-1.62.13c-.75-.23-1.82-.09-2.28-.39a2.55,2.55,0,0,0-2.22,0c-.51-.45-1.1-1.38-2.28-1.45s-1.24.16-2.77,1.58c0-.58-.86-.84-1.16-1s-1,1.45-1,1.45c-1.18-.68-1.92.39-2.16.52s-1.09-1.17-2.4-1.17h-2V324.44h362.3V214.22A2.88,2.88,0,0,1,720.59,214.06Z"/><path class="cls-8" d="M720.74,214.16c-.28-.07-.66-.93-1.08-.72s-.49.38-.86.31-.77.36-1,.62-.77-.23-1.73-.16a2.9,2.9,0,0,0-2.47-1.52,1.42,1.42,0,0,0-1.52.77c-.2.29-.31.26-1.29.39s-1.88.19-2.25-.29-.94-.48-1.88.39c-1.24.84-2.75-.07-4-.49a1.21,1.21,0,0,0-1.7.75c-.13.26-.85.13-1.44,0s-1.18-.78-1.9-1.13c-1.12-.45-2.47,1-2.82,1.39s-1.42.23-2.67.39a12.42,12.42,0,0,1-3.61-.13,1.68,1.68,0,0,0-2.36-.23,1.52,1.52,0,0,1-1.62.13c-.74-.23-1.81-.09-2.27-.39a2.56,2.56,0,0,0-2.23,0c-.5-.45-1.09-1.38-2.28-1.45s-1.24.16-2.77,1.58c0-.58-.85-.84-1.16-1s-1,1.45-1,1.45c-1.18-.68-1.92.39-2.16.52s-1.27-.78-2.47-1.55a1.37,1.37,0,0,0-1-.25A1.39,1.39,0,0,0,667,213c-.22-.26-1.12.12-1.42.45a1.2,1.2,0,0,1-1.14.22c-.37-.06-.76.36-1,.62s-.76-.23-1.73-.16a2.89,2.89,0,0,0-2.47-1.52,1.43,1.43,0,0,0-1.53.77c-.2.29-.3.26-1.29.39s-1.88.19-2.25-.29-.94-.48-1.88.39c-1.25.84-2.75-.07-4-.49a1.22,1.22,0,0,0-1.71.75c-.13.26-.85.13-1.44,0s-1.18-.78-1.9-1.13c-1.12-.45-2.47,1-2.82,1.39s-1.42.23-2.67.39a12.39,12.39,0,0,1-3.6-.13,1.68,1.68,0,0,0-2.36-.23,1.52,1.52,0,0,1-1.62.13c-.74-.23-1.81-.09-2.27-.39a2.56,2.56,0,0,0-2.23,0c-.5-.45-1.09-1.38-2.27-1.45s-1.25.16-2.78,1.58c0-.58-.85-.84-1.16-1s-1,1.45-1,1.45c-1.18-.68-1.92.39-2.17.52s-1.27-.78-2.47-1.55a1.28,1.28,0,0,0-1.59,0,1.63,1.63,0,0,0-.3-.77c-.22-.26-1.11.12-1.42.45a1.19,1.19,0,0,1-1.14.22c-.37-.06-.76.36-1,.62s-.77-.23-1.73-.16a2.9,2.9,0,0,0-2.47-1.52,1.43,1.43,0,0,0-1.53.77c-.2.29-.31.26-1.29.39s-1.89.19-2.26-.29-.94-.48-1.88.39c-1.25.84-2.75-.07-4-.49a1.22,1.22,0,0,0-1.7.75c-.13.26-.85.13-1.44,0s-1.18-.78-1.91-1.13c-1.11-.45-2.47,1-2.82,1.39s-1.42.23-2.67.39a12.41,12.41,0,0,1-3.61-.13,1.68,1.68,0,0,0-2.36-.23,1.53,1.53,0,0,1-1.62.13c-.74-.23-1.82-.09-2.27-.39a2.56,2.56,0,0,0-2.23,0c-.5-.45-1.1-1.38-2.27-1.45-1,0-1.2.1-2.16,1h-.25a.74.74,0,0,0-.55.2,2.67,2.67,0,0,0-1-.55c-.17-.07-.48.4-.71.82h-.46a2.9,2.9,0,0,0-2.47-1.52,1.43,1.43,0,0,0-1.53.77c-.14.2-.23.25-.59.3a1.29,1.29,0,0,0-1.6.18,1.54,1.54,0,0,1-1.34-.38c-.37-.48-.94-.48-1.88.39-1.24.84-2.75-.07-4-.49a1.22,1.22,0,0,0-1.7.75c-.13.26-.85.13-1.44,0s-1.18-.78-1.9-1.13c-1.11-.45-2.47,1-2.83,1.39s-1.41.23-2.66.39a12.42,12.42,0,0,1-3.61-.13,1.68,1.68,0,0,0-2.36-.23,1.52,1.52,0,0,1-1.62.13c-.74-.23-1.81-.09-2.28-.39a2.56,2.56,0,0,0-2.23,0c-.5-.45-1.09-1.38-2.27-1.45s-1.25.16-2.78,1.58c0-.58-.85-.84-1.16-1s-1,1.45-1,1.45c-1.18-.68-1.92.39-2.17.52s-1.27-.78-2.47-1.55a1.28,1.28,0,0,0-1.59,0,1.66,1.66,0,0,0-.3-.77c-.21-.26-1.11.12-1.42.45a1.2,1.2,0,0,1-1.14.22c-.37-.06-.76.36-1,.62s-.77-.23-1.73-.16a2.9,2.9,0,0,0-2.47-1.52,1.42,1.42,0,0,0-1.53.77c-.19.29-.31.26-1.29.39s-1.88.19-2.25-.29-.94-.48-1.88.39c-1.24.84-2.75-.07-4-.49a1.22,1.22,0,0,0-1.7.75c-.13.26-.85.13-1.44,0s-1.18-.78-1.9-1.13c-1.12-.45-2.47,1-2.82,1.39s-1.42.23-2.67.39a12.37,12.37,0,0,1-3.6-.13,1.68,1.68,0,0,0-2.36-.23,1.51,1.51,0,0,1-1.62.13c-.74-.23-1.82-.09-2.27-.39a2.58,2.58,0,0,0-2.24,0c-.5-.45-1.09-1.38-2.27-1.45-1,0-1.19.1-2.13,1a1.6,1.6,0,0,1-.72,0,.56.56,0,0,0-.29,0,3.4,3.4,0,0,0-.79-.39c-.18-.08-.5.44-.74.88a2.71,2.71,0,0,0-.86-.08,2.9,2.9,0,0,0-2.47-1.52,1.42,1.42,0,0,0-1.53.77.54.54,0,0,1-.28.24,1.28,1.28,0,0,0-1.44.2c-.81.08-1.5.07-1.82-.34s-.94-.48-1.88.39c-1.24.84-2.75-.07-4-.49a1.21,1.21,0,0,0-1.7.75c-.13.26-.86.13-1.44,0s-1.18-.78-1.9-1.13c-1.11-.45-2.47,1-2.82,1.39s-1.42.23-2.67.39a12.45,12.45,0,0,1-3.61-.13,1.68,1.68,0,0,0-2.36-.23,1.51,1.51,0,0,1-1.61.13c-.74-.23-1.82-.09-2.28-.39a2.56,2.56,0,0,0-2.23,0c-.5-.45-1.09-1.38-2.27-1.45s-1.25.16-2.78,1.58c0-.58-.85-.84-1.16-1s-1,1.45-1,1.45c-1.19-.68-1.92.39-2.17.52s-1.26-.78-2.47-1.55a1.29,1.29,0,0,0-1.59,0,1.7,1.7,0,0,0-.29-.77c-.22-.26-1.12.12-1.43.45a1.19,1.19,0,0,1-1.14.22c-.37-.06-.76.36-1,.62s-.76-.23-1.73-.16a2.9,2.9,0,0,0-2.47-1.52,1.42,1.42,0,0,0-1.52.77c-.2.29-.31.26-1.29.39s-1.88.19-2.25-.29-.94-.48-1.88.39c-1.25.84-2.76-.07-4-.49A1.22,1.22,0,0,0,394,214c-.13.26-.85.13-1.44,0s-1.18-.78-1.9-1.13c-1.12-.45-2.48,1-2.82,1.39s-1.43.23-2.67.39a12.43,12.43,0,0,1-3.61-.13,1.67,1.67,0,0,0-2.35-.24h0a1.52,1.52,0,0,1-1.62.13c-.75-.23-1.82-.09-2.28-.39a2.55,2.55,0,0,0-2.22,0c-.51-.45-1.1-1.38-2.28-1.45s-1.24.16-2.77,1.58c0-.58-.86-.84-1.16-1s-1,1.45-1,1.45c-1.18-.68-1.92.39-2.16.52s-1.09-1.17-2.4-1.17h-2v78.49a5.67,5.67,0,0,0,1.79-.08c.58-.25.68.41,1.76.41s2.2.15,2.47-.25.82-.15,1.66.2,1.5.16,2.14.55a14,14,0,0,0,2.17.6c.58.25.91-.75,2.17-.71s3.25.35,3.76,0a1.59,1.59,0,0,1,1.76-.5,18.68,18.68,0,0,0,4.44.45c2.06,0,3.21-.8,4.2-.45a9.8,9.8,0,0,0,3.62.35,10.7,10.7,0,0,0,3.32-.5c.6-.25,1,0,1.49.2s1-.3,2,0a6.23,6.23,0,0,0,2.47.2c.85,0,1.46-.6,2.34-.3s2.3,1,3.18.6,1.32-.6,1.86-.44a3.3,3.3,0,0,0,2,0,3.09,3.09,0,0,1,2.1-.15,3.09,3.09,0,0,0,2.36,0v.64c.57.35,1.42.8,1.78.64a3.14,3.14,0,0,1,1.76-.3c1.08,0,2.2.15,2.48-.25a1.32,1.32,0,0,1,1.66-.65c.85.35,1.49.16,2.13.55a14.13,14.13,0,0,0,2.17.6c.58.25.92-.75,2.17-.71s3.25.35,3.76,0a1.59,1.59,0,0,1,1.76-.5,18.73,18.73,0,0,0,4.44.45c2.07,0,3.22-.8,4.2-.45a9.81,9.81,0,0,0,3.62.35,10.71,10.71,0,0,0,3.32-.5c.61-.25,1,0,1.49.2s1-.3,2,0a6.26,6.26,0,0,0,2.48.2c.85,0,1.46-.6,2.33-.3l.28.1v.55c.57.35,1.42.8,1.79.64a3.13,3.13,0,0,1,1.76-.3c1.08,0,2.2.15,2.47-.25a2,2,0,0,1,.41-.47l.29-.08a4.69,4.69,0,0,1,.65-.19,1.64,1.64,0,0,1,.3.08c.85.35,1.49.16,2.14.55a14,14,0,0,0,2.17.6c.58.25.91-.75,2.17-.71s3.25.35,3.76,0a1.6,1.6,0,0,1,1.76-.5,18.74,18.74,0,0,0,4.44.45c2.07,0,3.22-.8,4.2-.45a9.8,9.8,0,0,0,3.62.35,10.63,10.63,0,0,0,3.32-.5c.61-.25,1,0,1.5.2s.94-.3,2,0a6.26,6.26,0,0,0,2.48.2c.85,0,1.46-.6,2.34-.3s2.3,1,3.19.6,1.32-.6,1.86-.44a3.29,3.29,0,0,0,2,0A3.07,3.07,0,0,1,511,293a3.09,3.09,0,0,0,2.36,0v.64c.57.35,1.42.8,1.79.64a3.12,3.12,0,0,1,1.76-.3c1.08,0,2.2.15,2.47-.25A1.33,1.33,0,0,1,521,293c.85.35,1.49.16,2.13.55a14.15,14.15,0,0,0,2.17.6c.57.25.91-.75,2.17-.71s3.25.35,3.76,0a1.59,1.59,0,0,1,1.76-.5,18.68,18.68,0,0,0,4.43.45c2.07,0,3.22-.8,4.2-.45a9.82,9.82,0,0,0,3.63.35,10.74,10.74,0,0,0,3.32-.5c.6-.25,1,0,1.49.2s1-.3,2,0a6.21,6.21,0,0,0,2.47.2c.8,0,1.39-.54,2.19-.35v.7c.56.35,1.42.8,1.79.64a3.14,3.14,0,0,1,1.76-.3c1.08,0,2.2.15,2.47-.25a2.11,2.11,0,0,1,.36-.42,2.21,2.21,0,0,0,.78-.13l.42-.13h.1c.85.35,1.49.16,2.13.55a14,14,0,0,0,2.17.6c.58.25.91-.75,2.17-.71s3.25.35,3.76,0a1.59,1.59,0,0,1,1.76-.5,18.7,18.7,0,0,0,4.43.45c2.06,0,3.22-.8,4.2-.45a9.79,9.79,0,0,0,3.62.35,10.63,10.63,0,0,0,3.32-.5c.61-.25,1,0,1.49.2s1-.3,2,0a6.22,6.22,0,0,0,2.47.2c.85,0,1.46-.6,2.34-.3s2.3,1,3.19.6,1.32-.6,1.86-.44a3.29,3.29,0,0,0,2,0,3.08,3.08,0,0,1,2.1-.15,3.09,3.09,0,0,0,2.36,0v.64c.57.35,1.42.8,1.79.64a3.12,3.12,0,0,1,1.76-.3c1.09,0,2.2.15,2.48-.25a1.33,1.33,0,0,1,1.66-.65c.85.35,1.49.16,2.14.55a14.1,14.1,0,0,0,2.17.6c.58.25.91-.75,2.17-.71s3.25.35,3.76,0a1.58,1.58,0,0,1,1.76-.5,18.73,18.73,0,0,0,4.44.45c2.07,0,3.22-.8,4.2-.45a9.79,9.79,0,0,0,3.62.35,10.65,10.65,0,0,0,3.32-.5,1.72,1.72,0,0,1,1.49.2c.49.2,1-.3,2,0a6.24,6.24,0,0,0,2.47.2c.85,0,1.46-.6,2.33-.3s2.3,1,3.18.6,1.32-.6,1.87-.44a3.3,3.3,0,0,0,2,0,3.07,3.07,0,0,1,2.1-.15,3,3,0,0,0,1.69.17v.44c.57.35,1.42.8,1.79.64a3.13,3.13,0,0,1,1.76-.3c1.09,0,2.2.15,2.47-.25a1.33,1.33,0,0,1,1.66-.65c.85.35,1.49.16,2.14.55a14.21,14.21,0,0,0,2.17.6c.57.25.91-.75,2.17-.71s3.25.35,3.76,0a1.59,1.59,0,0,1,1.76-.5,18.68,18.68,0,0,0,4.43.45c2.07,0,3.21-.8,4.2-.45a9.8,9.8,0,0,0,3.62.35,10.66,10.66,0,0,0,3.32-.5,1.72,1.72,0,0,1,1.49.2c.49.2,1-.3,2,0a6.24,6.24,0,0,0,2.47.2c.84,0,1.46-.6,2.33-.3s2.31,1,3.19.6,1.32-.6,1.86-.44a3.29,3.29,0,0,0,2,0,3.08,3.08,0,0,1,2.1-.15c.44.22,1.39-.24,2.77-.24V214.22A2.3,2.3,0,0,1,720.74,214.16Z"/><path class="cls-9" d="M720.31,214.09c-.22-.25-.36-.57-.64-.47s-.49.4-.86.34-.77.35-1,.62-.77-.22-1.73-.16a2.93,2.93,0,0,0-2.47-1.52,1.41,1.41,0,0,0-1.52.78c-.2.29-.31.26-1.29.39s-1.88.19-2.25-.29-.94-.49-1.88.39c-1.24.84-2.75-.07-4-.48a1.21,1.21,0,0,0-1.7.74c-.13.26-.85.14-1.44,0a13.23,13.23,0,0,1-1.9-1.13c-1.12-.45-2.47,1-2.82,1.39s-1.42.22-2.67.39a12.72,12.72,0,0,1-3.61-.13,1.67,1.67,0,0,0-2.36-.23,1.52,1.52,0,0,1-1.62.13c-.74-.23-1.81-.1-2.27-.39a2.5,2.5,0,0,0-2.23,0c-.5-.45-1.09-1.39-2.28-1.46s-1.24.16-2.77,1.58c0-.58-.85-.84-1.16-1s-1,1.46-1,1.46c-1.18-.68-1.92.38-2.16.51s-1.27-.78-2.47-1.55a1.4,1.4,0,0,0-1-.25,1.38,1.38,0,0,0-.24-.5c-.22-.25-1.12.13-1.42.46a1.22,1.22,0,0,1-1.14.22c-.37-.06-.76.35-1,.62s-.76-.22-1.73-.16a2.92,2.92,0,0,0-2.47-1.52,1.42,1.42,0,0,0-1.53.78c-.2.29-.3.26-1.29.39s-1.88.19-2.25-.29-.94-.49-1.88.39c-1.25.84-2.75-.07-4-.48a1.22,1.22,0,0,0-1.71.74c-.13.26-.85.14-1.44,0a13.23,13.23,0,0,1-1.9-1.13c-1.12-.45-2.47,1-2.82,1.39s-1.42.22-2.67.39a12.69,12.69,0,0,1-3.6-.13c-1.14-.94-1.7-.62-2.36-.23a1.52,1.52,0,0,1-1.62.13c-.74-.23-1.81-.1-2.27-.39a2.5,2.5,0,0,0-2.23,0c-.5-.45-1.09-1.39-2.27-1.46s-1.25.16-2.78,1.58c0-.58-.85-.84-1.16-1s-1,1.46-1,1.46c-1.18-.68-1.92.38-2.17.51s-1.27-.78-2.47-1.55a1.29,1.29,0,0,0-1.59,0,1.69,1.69,0,0,0-.3-.77c-.22-.25-1.11.13-1.42.46a1.22,1.22,0,0,1-1.14.22c-.37-.06-.76.35-1,.62s-.77-.22-1.73-.16a2.92,2.92,0,0,0-2.47-1.52,1.42,1.42,0,0,0-1.53.78c-.2.29-.31.26-1.29.39s-1.89.19-2.26-.29-.94-.49-1.88.39c-1.25.84-2.75-.07-4-.48a1.21,1.21,0,0,0-1.7.74c-.13.26-.85.14-1.44,0a13.84,13.84,0,0,1-1.91-1.13c-1.11-.45-2.47,1-2.82,1.39s-1.42.22-2.67.39a12.72,12.72,0,0,1-3.61-.13c-1.14-.94-1.71-.62-2.36-.23a1.53,1.53,0,0,1-1.62.13c-.74-.23-1.82-.1-2.27-.39a2.5,2.5,0,0,0-2.23,0c-.5-.45-1.1-1.39-2.27-1.46-1-.05-1.2.1-2.16,1h-.25a.75.75,0,0,0-.55.19,2.9,2.9,0,0,0-1-.55c-.17-.07-.48.39-.71.82a3.07,3.07,0,0,0-.46,0,2.93,2.93,0,0,0-2.47-1.52,1.43,1.43,0,0,0-1.53.78c-.14.19-.23.25-.59.3a1.28,1.28,0,0,0-1.6.18,1.55,1.55,0,0,1-1.34-.38c-.37-.49-.94-.49-1.88.39-1.24.84-2.75-.07-4-.48a1.21,1.21,0,0,0-1.7.74c-.13.26-.85.14-1.44,0a13.23,13.23,0,0,1-1.9-1.13c-1.11-.45-2.47,1-2.83,1.39s-1.41.22-2.66.39a12.73,12.73,0,0,1-3.61-.13,1.67,1.67,0,0,0-2.36-.23,1.52,1.52,0,0,1-1.62.13c-.74-.23-1.81-.1-2.28-.39a2.5,2.5,0,0,0-2.23,0c-.5-.45-1.09-1.39-2.27-1.46s-1.25.16-2.78,1.58c0-.58-.85-.84-1.16-1s-1,1.46-1,1.46c-1.18-.68-1.92.38-2.17.51s-1.27-.78-2.47-1.55a1.29,1.29,0,0,0-1.59,0,1.73,1.73,0,0,0-.3-.77c-.21-.25-1.11.13-1.42.46a1.22,1.22,0,0,1-1.14.22c-.37-.06-.76.35-1,.62s-.77-.22-1.73-.16a2.93,2.93,0,0,0-2.47-1.52,1.42,1.42,0,0,0-1.53.78c-.19.29-.31.26-1.29.39s-1.88.19-2.25-.29-.94-.49-1.88.39c-1.24.84-2.75-.07-4-.48a1.21,1.21,0,0,0-1.7.74c-.13.26-.85.14-1.44,0a13.23,13.23,0,0,1-1.9-1.13c-1.12-.45-2.47,1-2.82,1.39s-1.42.22-2.67.39a12.68,12.68,0,0,1-3.6-.13c-1.14-.94-1.71-.62-2.36-.23a1.51,1.51,0,0,1-1.62.13c-.74-.23-1.82-.1-2.27-.39a2.51,2.51,0,0,0-2.24,0c-.5-.45-1.09-1.39-2.27-1.46-1-.05-1.19.1-2.13,1a1.81,1.81,0,0,1-.72,0,.55.55,0,0,0-.29,0,4.07,4.07,0,0,0-.79-.39c-.18-.08-.5.44-.74.89a3,3,0,0,0-.86-.08,2.92,2.92,0,0,0-2.47-1.52,1.41,1.41,0,0,0-1.53.78.5.5,0,0,1-.28.23,1.27,1.27,0,0,0-1.44.21c-.81.09-1.5.07-1.82-.34s-.94-.49-1.88.39c-1.24.84-2.75-.07-4-.48a1.21,1.21,0,0,0-1.7.74c-.13.26-.86.14-1.44,0a13.8,13.8,0,0,1-1.9-1.13c-1.11-.45-2.47,1-2.82,1.39s-1.42.22-2.67.39a12.75,12.75,0,0,1-3.61-.13,1.67,1.67,0,0,0-2.35-.24h0a1.51,1.51,0,0,1-1.61.13c-.74-.23-1.82-.1-2.28-.39a2.5,2.5,0,0,0-2.23,0c-.5-.45-1.09-1.39-2.27-1.46s-1.25.16-2.78,1.58c0-.58-.85-.84-1.16-1s-1,1.46-1,1.46c-1.19-.68-1.92.38-2.17.51s-1.26-.78-2.47-1.55a1.29,1.29,0,0,0-1.59,0,1.77,1.77,0,0,0-.29-.77c-.22-.25-1.12.13-1.43.46a1.21,1.21,0,0,1-1,.4c-.37-.06-.76.35-1,.62s-.76-.22-1.73-.16a2.93,2.93,0,0,0-2.47-1.52,1.41,1.41,0,0,0-1.52.78c-.2.29-.31.26-1.29.39s-1.88.19-2.25-.29-.94-.49-1.88.39c-1.25.84-2.76-.07-4-.48a1.22,1.22,0,0,0-1.71.74c-.13.26-.85.14-1.44,0a13.23,13.23,0,0,1-1.9-1.13c-1.12-.45-2.48,1-2.82,1.39s-1.43.22-2.67.39a12.73,12.73,0,0,1-3.61-.13,1.67,1.67,0,0,0-2.36-.23,1.52,1.52,0,0,1-1.62.13c-.75-.23-1.82-.1-2.28-.39a2.49,2.49,0,0,0-2.22,0c-.51-.45-1.1-1.39-2.28-1.46s-1.24.16-2.77,1.58c0-.58-.86-.84-1.16-1s-1,1.46-1,1.46c-1.18-.68-1.92.38-2.16.51s-1.16-1.08-2.47-1.08-2-.05-2-.05v54.12c1,0,1.2-.3,1.65-.12a2.4,2.4,0,0,0,1.63-.25,1.41,1.41,0,0,1,1.52-.29c.79.34,1.19.39,1.56-.07s1.08-.06,1.64.23,1.48.2,1.84.36,1,1.21,2.17,1,1.1-.21,1.58.12.85.17,1.46,0,.93-.75,1.27-.38.88.38,2.15.33,3.55-.75,4.21-.5,1.1.83,1.27.58a1.87,1.87,0,0,1,1.61-.67,11.54,11.54,0,0,0,2.82-.12,3.29,3.29,0,0,1,2.2,0c.73.29.59.5,1.41.37a11,11,0,0,1,2.34,0,14.41,14.41,0,0,0,3.27-1,1.79,1.79,0,0,1,1.55.21c.59.29,1,.54,1.49.33s.62-.13,2.15.08a9.85,9.85,0,0,0,3.42,0c.45-.17.68-.71,1.61-.38s.93,0,1.35-.13a3.16,3.16,0,0,1,1.87,0c.56.21,1.35.13,2.15.42a5,5,0,0,0,1.87,0V270l.34-.45c.29-.34.37-.56.81-.39a1.64,1.64,0,0,0,.92,0c.25,0,.45.46.76.27s.62-1,1.42-.66,1.24.33,1.61-.13,1-.2,1.55.09.79.62,1.33.62.73.29,1.1.46,1-.25,2.18-.46,1.1-.21,1.58.12.85.17,1.47,0,.93-.75,1.27-.38.88.38,2.14.33,3.56-.75,4.21-.5,1.1.83,1.27.58A1.87,1.87,0,0,1,440,269a11.55,11.55,0,0,0,2.82-.12,3.28,3.28,0,0,1,2.2,0c.74.29.59.5,1.41.37a10.94,10.94,0,0,1,2.34,0,14.66,14.66,0,0,0,3.28-1,1.79,1.79,0,0,1,1.55.21c.59.29,1,.54,1.49.33s.62-.13,2.15.08c.36,0,.72.08,1.06.1v1l.35-.45c.29-.34.37-.56.82-.39a1.63,1.63,0,0,0,.92,0c.25,0,.44.46.75.27s.63-1,1.42-.66,1.24.33,1.61-.13,1-.2,1.55.09.79.62,1.32.62.74.29,1.1.46,1-.25,2.18-.46,1.1-.21,1.58.12.85.17,1.47,0,.93-.75,1.27-.38.87.38,2.15.33,3.56-.75,4.2-.5,1.1.83,1.27.58a1.87,1.87,0,0,1,1.61-.67,11.51,11.51,0,0,0,2.82-.12,3.3,3.3,0,0,1,2.21,0c.73.29.59.5,1.41.37a11,11,0,0,1,2.34,0,14.41,14.41,0,0,0,3.27-1,1.79,1.79,0,0,1,1.55.21c.59.29,1,.54,1.5.33s.62-.13,2.15.08a9.84,9.84,0,0,0,3.41,0c.45-.17.68-.71,1.61-.38s.93,0,1.35-.13a3.15,3.15,0,0,1,1.86,0c.57.21,1.36.13,2.14.42a5,5,0,0,0,1.87,0V270l.35-.45c.29-.34.37-.56.82-.39a1.63,1.63,0,0,0,.92,0c.25,0,.44.46.76.27s.62-1,1.41-.66,1.24.33,1.61-.13,1-.2,1.55.09.79.62,1.33.62.74.29,1.1.46,1-.25,2.17-.46,1.1-.21,1.58.12.85.17,1.47,0,.93-.75,1.27-.38.87.38,2.14.33,3.56-.75,4.21-.5,1.1.83,1.27.58a1.88,1.88,0,0,1,1.61-.67,11.52,11.52,0,0,0,2.82-.12,3.3,3.3,0,0,1,2.21,0c.73.29.59.5,1.41.37a10.94,10.94,0,0,1,2.34,0,14.66,14.66,0,0,0,3.28-1,1.79,1.79,0,0,1,1.55.21c.59.29,1,.54,1.49.33s.62-.13,2.15.08l.62.07V270l.34-.45c.3-.34.37-.56.81-.39a1.66,1.66,0,0,0,.93,0c.24,0,.45.46.75.27s.62-1,1.42-.66,1.24.33,1.61-.13,1-.2,1.55.09.79.62,1.33.62.73.29,1.1.46,1-.25,2.17-.46,1.1-.21,1.58.12.85.17,1.47,0,.93-.75,1.27-.38.87.38,2.15.33,3.56-.75,4.2-.5,1.1.83,1.28.58a1.85,1.85,0,0,1,1.6-.67,11.57,11.57,0,0,0,2.82-.12,3.29,3.29,0,0,1,2.2,0c.73.29.59.5,1.41.37a11,11,0,0,1,2.34,0,14.41,14.41,0,0,0,3.27-1,1.77,1.77,0,0,1,1.55.21c.6.29,1,.54,1.5.33s.62-.13,2.14.08a9.85,9.85,0,0,0,3.41,0c.45-.17.68-.71,1.61-.38s.93,0,1.35-.13a3.17,3.17,0,0,1,1.87,0c.56.21,1.35.13,2.14.42a5,5,0,0,0,1.87,0V270l.34-.45c.29-.34.37-.56.81-.39a1.66,1.66,0,0,0,.93,0c.25,0,.44.46.75.27s.62-1,1.42-.66,1.24.33,1.61-.13,1-.2,1.55.09.79.62,1.33.62.73.29,1.1.46,1-.25,2.17-.46,1.1-.21,1.58.12.84.17,1.46,0,.93-.75,1.27-.38.87.38,2.14.33,3.56-.75,4.21-.5,1.1.83,1.27.58a1.88,1.88,0,0,1,1.61-.67,11.55,11.55,0,0,0,2.82-.12,3.28,3.28,0,0,1,2.2,0c.74.29.6.5,1.41.37a11,11,0,0,1,2.35,0,14.41,14.41,0,0,0,3.27-1,1.8,1.8,0,0,1,1.55.21c.59.29,1,.54,1.49.33s.62-.13,2.15.08c1.85.25,3.63-.54,5.47-.37.71.07,1.39-.3,2.11-.25s1.73.3,2.6.38c.57.06,1.35.15,1.45,1.2,1-.39,1.89-.29,2.84-.61a3.16,3.16,0,0,1,1.48-.34,5.26,5.26,0,0,0,2-.24c.83-.19,1.51.76,2.33.76.54,0,.73.29,1.1.46s1-.25,2.17-.46,1.1-.21,1.58.12.85.17,1.47,0,.93-.75,1.27-.38.87.38,2.15.33,3.56-.75,4.21-.5,1.1.83,1.27.58a1.87,1.87,0,0,1,1.61-.67,11.54,11.54,0,0,0,2.82-.12,3.29,3.29,0,0,1,2.2,0c.74.29.59.5,1.41.37a11,11,0,0,1,2.35,0,14.41,14.41,0,0,0,3.27-1,1.79,1.79,0,0,1,1.55.21c.59.29,1,.54,1.49.33s.62-.13,2.15.08a9.83,9.83,0,0,0,3.41,0c.45-.17.67-.71,1.61-.38s.93,0,1.36-.13a3.15,3.15,0,0,1,1.86,0c.57.21,1.35.13,2.14.42a6.45,6.45,0,0,0,2.28-.24v-53.8C721.07,214.38,720.52,214.35,720.31,214.09Z"/><path class="cls-10" d="M720.57,214.4c-.47,0-.3-.47-.72-.58s-.76.29-1.13.22-.77.35-1,.62-.76-.23-1.73-.16a2.88,2.88,0,0,0-2.47-1.51,1.42,1.42,0,0,0-1.53.78c-.2.28-.31.26-1.29.38s-1.88.2-2.25-.29-.94-.48-1.88.39c-1.25.84-2.75-.07-4-.48a1.22,1.22,0,0,0-1.71.74c-.13.26-.85.13-1.44,0s-1.18-.77-1.9-1.13c-1.12-.45-2.47,1-2.82,1.39s-1.41.23-2.67.39a12.52,12.52,0,0,1-3.6-.13c-1.14-.93-1.7-.62-2.36-.23a1.52,1.52,0,0,1-1.61.13c-.74-.23-1.82-.09-2.28-.39a2.51,2.51,0,0,0-2.23,0c-.5-.45-1.09-1.39-2.27-1.46s-1.25.16-2.78,1.58c0-.58-.85-.83-1.16-1s-1,1.45-1,1.45c-1.18-.68-1.92.39-2.17.51s-1.26-.77-2.47-1.54a1.42,1.42,0,0,0-1-.25,1.44,1.44,0,0,0-.24-.49c-.22-.26-1.12.13-1.42.46a1.21,1.21,0,0,1-1.13.22c-.37-.07-.77.35-1,.62s-.77-.23-1.73-.16a2.88,2.88,0,0,0-2.47-1.51,1.42,1.42,0,0,0-1.53.78c-.2.28-.3.26-1.29.38s-1.88.2-2.25-.29-.94-.48-1.88.39c-1.24.84-2.75-.07-4-.48a1.22,1.22,0,0,0-1.71.74c-.13.26-.85.13-1.44,0s-1.18-.77-1.9-1.13c-1.11-.45-2.47,1-2.82,1.39s-1.42.23-2.66.39A12.53,12.53,0,0,1,634,215a1.68,1.68,0,0,0-2.36-.23,1.53,1.53,0,0,1-1.62.13c-.75-.23-1.81-.09-2.27-.39a2.52,2.52,0,0,0-2.23,0c-.5-.45-1.1-1.39-2.27-1.46s-1.25.16-2.78,1.58c0-.58-.85-.83-1.16-1s-1,1.45-1,1.45c-1.18-.68-1.92.39-2.17.51s-1.27-.77-2.47-1.54a1.27,1.27,0,0,0-1.59,0,1.66,1.66,0,0,0-.3-.77c-.22-.26-1.12.13-1.42.46a1.22,1.22,0,0,1-1.14.22c-.37-.07-.77.35-1,.62s-.77-.23-1.73-.16a2.88,2.88,0,0,0-2.47-1.51,1.42,1.42,0,0,0-1.53.78c-.2.28-.31.26-1.29.38s-1.88.2-2.25-.29-.94-.48-1.88.39c-1.25.84-2.76-.07-4-.48a1.22,1.22,0,0,0-1.71.74c-.13.26-.85.13-1.44,0s-1.18-.77-1.91-1.13c-1.12-.45-2.47,1-2.82,1.39s-1.42.23-2.67.39a12.55,12.55,0,0,1-3.61-.13c-1.14-.93-1.7-.62-2.36-.23a1.53,1.53,0,0,1-1.62.13c-.74-.23-1.81-.09-2.27-.39a2.5,2.5,0,0,0-2.22,0c-.5-.45-1.1-1.39-2.28-1.46-1,0-1.2.1-2.16,1h-.25a.75.75,0,0,0-.55.2,2.57,2.57,0,0,0-1-.55c-.18-.08-.48.39-.71.81a2.24,2.24,0,0,0-.46,0,2.89,2.89,0,0,0-2.47-1.51,1.42,1.42,0,0,0-1.53.78c-.13.19-.23.24-.59.3a1.29,1.29,0,0,0-1.6.17,1.55,1.55,0,0,1-1.34-.38c-.37-.48-.94-.48-1.88.39-1.24.84-2.75-.07-4-.48a1.21,1.21,0,0,0-1.7.74c-.13.26-.85.13-1.44,0s-1.18-.77-1.9-1.13c-1.11-.45-2.47,1-2.82,1.39s-1.42.23-2.66.39a12.56,12.56,0,0,1-3.61-.13,1.67,1.67,0,0,0-2.35-.24h0a1.53,1.53,0,0,1-1.62.13c-.74-.23-1.81-.09-2.27-.39a2.52,2.52,0,0,0-2.23,0c-.5-.45-1.09-1.39-2.27-1.46s-1.25.16-2.78,1.58c0-.58-.85-.83-1.16-1s-1,1.45-1,1.45c-1.18-.68-1.92.39-2.16.51s-1.27-.77-2.47-1.54a1.27,1.27,0,0,0-1.59,0,1.71,1.71,0,0,0-.3-.77c-.22-.26-1.12.13-1.42.46a1.2,1.2,0,0,1-1.13.22c-.38-.07-.77.35-1,.62s-.77-.23-1.73-.16a2.89,2.89,0,0,0-2.47-1.51,1.43,1.43,0,0,0-1.53.78c-.2.28-.3.26-1.29.38s-1.88.2-2.25-.29-.94-.48-1.88.39c-1.25.84-2.75-.07-4-.48a1.22,1.22,0,0,0-1.71.74c-.13.26-.85.13-1.44,0s-1.18-.77-1.91-1.13c-1.11-.45-2.47,1-2.81,1.39s-1.42.23-2.67.39a12.52,12.52,0,0,1-3.6-.13,1.68,1.68,0,0,0-2.36-.23,1.53,1.53,0,0,1-1.62.13c-.74-.23-1.81-.09-2.27-.39a2.51,2.51,0,0,0-2.23,0c-.51-.45-1.1-1.39-2.27-1.46-1,0-1.19.1-2.13,1a1.71,1.71,0,0,1-.72,0,.52.52,0,0,0-.29,0,3.15,3.15,0,0,0-.79-.39c-.18-.08-.51.44-.74.87a3.14,3.14,0,0,0-.86-.08,2.89,2.89,0,0,0-2.47-1.51,1.42,1.42,0,0,0-1.53.78.53.53,0,0,1-.28.23,1.26,1.26,0,0,0-1.44.22c-.81.08-1.5.06-1.82-.35s-.94-.48-1.88.39c-1.25.84-2.75-.07-4-.48a1.22,1.22,0,0,0-1.7.74c-.13.26-.85.13-1.44,0s-1.18-.77-1.9-1.13c-1.12-.45-2.47,1-2.82,1.39s-1.42.23-2.67.39a12.52,12.52,0,0,1-3.6-.13,1.68,1.68,0,0,0-2.36-.23h0a1.52,1.52,0,0,1-1.61.13c-.74-.23-1.81-.09-2.27-.39a2.52,2.52,0,0,0-2.23,0c-.51-.45-1.09-1.39-2.27-1.46s-1.24.16-2.78,1.58c0-.58-.85-.83-1.16-1s-1,1.45-1,1.45c-1.18-.68-1.93.39-2.17.51s-1.27-.77-2.47-1.54a1.27,1.27,0,0,0-1.59,0,1.63,1.63,0,0,0-.29-.77c-.22-.26-1.11.13-1.42.46a1.21,1.21,0,0,1-1,.32c-.37-.07-.76.35-1,.62s-.76-.23-1.72-.16A2.89,2.89,0,0,0,406.8,213a1.42,1.42,0,0,0-1.53.78c-.2.28-.31.26-1.29.38s-1.88.2-2.26-.29-.93-.48-1.87.39c-1.25.84-2.76-.07-4-.48a1.22,1.22,0,0,0-1.71.74c-.13.26-.85.13-1.44,0s-1.18-.77-1.9-1.13c-1.12-.45-2.47,1-2.82,1.39s-1.42.23-2.67.39a12.54,12.54,0,0,1-3.61-.13,1.68,1.68,0,0,0-2.36-.23,1.53,1.53,0,0,1-1.62.13c-.74-.23-1.82-.09-2.27-.39a2.52,2.52,0,0,0-2.23,0c-.5-.45-1.09-1.39-2.27-1.46s-1.25.16-2.78,1.58c0-.58-.85-.83-1.16-1s-1,1.45-1,1.45c-1.18-.68-1.92.39-2.16.51s-1.09-.95-2.4-.95-2-.08-2-.08v23c4.1,0,5.11,2.39,8.65,1.91,6.1-.83,5.23,3.87,13.92,1s7.53-2.74,15.1.26c3.79,1.5,4.83-.42,8.36-1.52,2.33-.73,5,.19,7.42-.31,1-.2,1.47-1.1,2.46-1s2.29,2,3.28,2.37c5,2.16,13.26,1.84,18.43.16,8.69-2.83,7.53-2.74,15.09.26h0c2.59,1,4,.37,6.54-.41,1.93-.6,2.23-.39,4.32.2a31.48,31.48,0,0,0,17.91-.06c8.69-2.83,7.52-2.74,15.09.26a6.89,6.89,0,0,0,6,.08c2.62-1.13,4.47-1.15,7.31-1.39,1.35-.12,3.38-1.92,4.48-1.78,1.6.2,3.42,2.76,5.21,3.16s3.7-.14,5.55,0c2.42.2,4.67,1,7.12.74,3.87-.45,7.57-2.93,11.44-3.11,2.74-.12,5.36,1.26,8,2.3,6,2.38,5.6-.6,8.13-1.42a7.88,7.88,0,0,0,5.72,1.58c6.09-.83,5.79,2.41,14.48-.42s7.53-2.74,15.09.26a7,7,0,0,0,6,.08c2.9-1.19,5.27-.84,8.28-1.49s3-1.41,5.79.16c6,3.35,13.72,3,19.93,1,8.7-2.83,7.53-2.74,15.09.26s5-2.5,10.83-1.5c3.08.52,5-.06,6.53-1.4,1.76,1.78,4.31,3.49,7.43,3.06,6.09-.83,5.79,2.41,14.48-.42s7.53-2.74,15.09.26,5-2.5,10.84-1.5c3.38.57,3.39-1.7,7-1.7v-23A3.15,3.15,0,0,1,720.57,214.4Z"/><path class="cls-11" d="M101.84,519.39s-15.49,7.67-16.17,16.15L78.89,543s1.27,5.07,3.1,5.36l2.35,4.92,1.39,1.1,1.1,3-.59,3.08s-2,12-1.32,12-10.13,7.63-2.57,11l.22,2.64s-4.77,9.83-3.3,11.6l-20.89,22-6.35.91-2.38-.91L30.14,634.23l.57,5.22L29,641.26s-5.9,5.44-9.19,4.88l-2.72,6.58-2.16,1.81a20.61,20.61,0,0,0-16,4L.08,343.61l720.54,1.22v127l-6.18-3.69s-3.6-2.8-2.72-6.63c0,0-3.6-3.52-1.44-5.51,0,0-2-5-.8-5,0,0-5.11-2.24-6.23-6.63,0,0-2.48.48-2.64-1.36l-5.51-3.91-4.1-1.32.32-3.91s-3.75-4.39-2-5.51c0,0-8.87-8.07-11.18-14.14,0,0-2,8.31-.8,9l-.24,4.55-.8,3.2-1,.16-.8,3s-1.92.72-.56-3.91l.4-2.4-.64-3.44-1.28-7.67-3.2-7.59-4.63,11.74-1.52,14-1.84,9.67-1.68,4.87-.88,8.87,1.28,8.55-1.2,1.28-.08,1.92h-1l-.32-6.23-2.08-4.31-.16-6.07-5.51-27.88-2.48-11.58-3.6-5.75-3-2.32s-5.35-6.47-4.07-11.26L634,391.2s-14.14-2.64-14.7-1.6l-2.72-1.92-1.44-5.83-3.75-5-4.63-1s-2.8,3-5.43-1.52l-4.15-1-1.12-1.28-1.76-1.44-1.84.56-1.46-1-1.52.32S585.7,387,586.1,389.92l-.56,8.47-.88.64-.24,2.48-.64,1.44s-3-24.77-5-25.72l-3,16.14-1.28-3.28L572.91,380l-1.2-3.6-2.16-5.67-.56-2.64s-4.23-.24-4.23-1.92l-1.28,2.24L562,372.59l-1.68,20.85,1.2,1-.88,2.4-.56,12.06,1,1.28-1,1.76.4,1-.48.56-.88,1-1.52-3.28s-3.75-9.83-3.28-17.1l-2.08-14.86-6.15-18.69-1.44-2.16-4.87,1.12-7.43,2-4.23,10.23-.88,23.09-1.12-.48.88,2-3.75-14.46s-3.91-7.91-2.8-11.42L516,365.24l-7.67,2.32-5,3.75-.8,2L496.06,371l-12.38.56-2.68,6.7-1.2,16.3-1.12-5.83-2.48-7.11-1.52-6.55L472,383.46l-5.83,11.9.24,3.6-1,.72v4.39l-.8,6.15-.88.8v1.68l-1.68-.4-1.68-25.88s-4.31-9.83-4.71-14.94c0,0-8.15-4.15-9.67,1.36l-1.44,1.28-1.6,11.1-1,1.12.24,1.84-1.68-.16-1-6.47L438,371.31l-2.88-3.6-15.73-2.51L418,362.82l-14.93,7-.6,2.79-3.58.4-2.59,8.56-1,9.16-.6,7.17-.8,4.38-.4,3.78-2.39-17.92-6.37-15.73L372.2,370l-4.78,3.38-14.73,9.16s-5.18,7.17-5.18,9.16,1.59,1.59,1.59,1.59l-.4,2-1.59.6-.2,7-.2,5.57-2,.6,1.79,3.38-1,1.59-.6,2.19-1.59.6V420h-1.79l-1-25.48-1.79-1.39-2.59-3.78L324,395.46l-7-.2s-3.58,8.16-3.19,9.36l.2,2.59-1.19,2s-2-8.76-4.18-9.56l-3.58,4.58-2.59,1-4.78,9.16.4,4-1.79,2.39-3,20.7-4-12.54-2.79-6L283,411.79l-3.66-1.71-16.64-1.76-1.17,5.09-2.35-4.7s-1,10-2.35,10l-.78-6.26-1.76-1.57-.2-3.52L250,408.9l-4.7,8.22-2.15,16.64,2.74,4.31-2.74,2.35-4.5-9.4-3.13-12.14-7-16.83-3.72,1.57s-1,14.09-3.91,14.29l-1.76-17L217,406.39l-1.17,4.11h-1.37l-.59-9.59-7.44-.2S193.61,424,190.28,424c0,0,2,20.36-3.33,21.34l-2.35,10.77s3.13,8.81-1.37,9l.39,2.35-.78,2.35-2,3.13s-4.89-25.64-5.48-31.32l-2.94-5.29-5.29,1.57s.2,7-3.13,7l.39,5.48H162.1l-.2-9.2-3.52,6.46.39,3.91L155,461.75l-1.37,4.31-1.17-7-1.76-10L147.76,444l-2.15,1.76-.2,3.33-7.24,9.2.59,7.24-2.74.59-.78-7.44-2.15-2.54-28,14.49-.59,4.11-.39,7.44s2.94,8.22,2.15,12.14l2.94,5.09s-2.74,15.07-4.89,15.46C104.35,514.8,104.61,518.7,101.84,519.39Z"/><path class="cls-12" d="M357.37,321.85c.47,0,.3-.47.72-.58s.76.29,1.14.22.77.35,1,.61.77-.22,1.73-.16a2.9,2.9,0,0,1,2.47-1.5,1.42,1.42,0,0,1,1.53.77c.2.28.31.25,1.3.38s1.88.19,2.26-.29,1-.48,1.88.39c1.25.83,2.76-.07,4-.48a1.22,1.22,0,0,1,1.71.73c.13.26.85.13,1.45,0s1.18-.76,1.91-1.12c1.12-.45,2.48,1,2.83,1.38s1.42.22,2.68.38a12.71,12.71,0,0,0,3.61-.13,1.7,1.7,0,0,1,2.37-.22,1.54,1.54,0,0,0,1.62.13c.75-.22,1.82-.09,2.28-.38a2.54,2.54,0,0,1,2.23,0c.5-.44,1.1-1.38,2.28-1.44s1.25.16,2.78,1.57c0-.57.86-.83,1.16-1s1,1.43,1,1.43a1.77,1.77,0,0,1,2.17.51c.24.13,1.27-.76,2.47-1.53a1.43,1.43,0,0,1,1-.25,1.41,1.41,0,0,1,.24-.49c.22-.26,1.12.13,1.43.45a1.22,1.22,0,0,0,1.14.22c.38-.07.77.35,1,.61s.77-.22,1.73-.16a2.9,2.9,0,0,1,2.48-1.5,1.43,1.43,0,0,1,1.53.77c.2.28.31.25,1.3.38s1.88.19,2.26-.29.94-.48,1.89.39c1.24.83,2.76-.07,4-.48a1.22,1.22,0,0,1,1.71.73c.13.26.85.13,1.45,0s1.18-.76,1.91-1.12c1.12-.45,2.48,1,2.83,1.38s1.42.22,2.67.38a12.73,12.73,0,0,0,3.62-.13,1.7,1.7,0,0,1,2.37-.22,1.55,1.55,0,0,0,1.62.13c.75-.22,1.82-.09,2.28-.38a2.56,2.56,0,0,1,2.24,0c.5-.44,1.1-1.38,2.28-1.44s1.25.16,2.79,1.57c0-.57.85-.83,1.16-1s1,1.43,1,1.43a1.77,1.77,0,0,1,2.17.51c.24.13,1.27-.76,2.48-1.53a1.29,1.29,0,0,1,1.6,0,1.63,1.63,0,0,1,.3-.76c.22-.26,1.12.13,1.42.45a1.24,1.24,0,0,0,1.14.22c.37-.07.77.35,1,.61s.77-.22,1.73-.16a2.9,2.9,0,0,1,2.47-1.5,1.43,1.43,0,0,1,1.54.77c.2.28.31.25,1.29.38s1.88.19,2.26-.29,1-.48,1.88.39c1.26.83,2.76-.07,4-.48a1.23,1.23,0,0,1,1.71.73c.13.26.85.13,1.44,0s1.18-.76,1.91-1.12c1.12-.45,2.48,1,2.83,1.38s1.43.22,2.67.38a12.75,12.75,0,0,0,3.62-.13,1.69,1.69,0,0,1,2.36-.22,1.55,1.55,0,0,0,1.63.13c.74-.22,1.82-.09,2.28-.38a2.54,2.54,0,0,1,2.23,0c.5-.44,1.1-1.38,2.28-1.44,1,0,1.2.1,2.16,1h.25a.75.75,0,0,1,.56.2,2.59,2.59,0,0,1,1-.54c.18-.07.48.39.71.8a2.28,2.28,0,0,1,.46,0,2.91,2.91,0,0,1,2.48-1.5,1.43,1.43,0,0,1,1.53.77c.13.19.23.24.59.29a1.31,1.31,0,0,1,1.61.17,1.56,1.56,0,0,0,1.35-.37c.38-.48,1-.48,1.89.39,1.25.83,2.76-.07,4-.48a1.22,1.22,0,0,1,1.71.73c.13.26.86.13,1.45,0s1.18-.76,1.91-1.12c1.12-.45,2.48,1,2.83,1.38s1.42.22,2.67.38a12.76,12.76,0,0,0,3.62-.13,1.69,1.69,0,0,1,2.36-.22,1.55,1.55,0,0,0,1.63.13c.74-.22,1.82-.09,2.28-.38a2.55,2.55,0,0,1,2.24,0c.5-.44,1.09-1.38,2.28-1.44s1.25.16,2.78,1.57c0-.57.86-.83,1.16-1s1,1.43,1,1.43a1.77,1.77,0,0,1,2.17.51c.24.13,1.27-.76,2.48-1.53a1.29,1.29,0,0,1,1.6,0,1.68,1.68,0,0,1,.3-.76c.22-.26,1.12.13,1.43.45a1.22,1.22,0,0,0,1.14.22c.38-.07.77.35,1,.61s.77-.22,1.73-.16a2.9,2.9,0,0,1,2.48-1.5,1.44,1.44,0,0,1,1.54.77c.2.28.3.25,1.29.38s1.89.19,2.26-.29.94-.48,1.88.39c1.25.83,2.76-.07,4-.48a1.22,1.22,0,0,1,1.71.73c.13.26.86.13,1.44,0a12.75,12.75,0,0,0,1.91-1.12c1.12-.45,2.47,1,2.82,1.38s1.43.22,2.68.38a12.72,12.72,0,0,0,3.61-.13,1.69,1.69,0,0,1,2.37-.22,1.55,1.55,0,0,0,1.62.13c.74-.22,1.82-.09,2.28-.38a2.54,2.54,0,0,1,2.23,0c.51-.44,1.1-1.38,2.28-1.44,1,0,1.19.1,2.14,1a1.73,1.73,0,0,0,.72,0,.53.53,0,0,1,.29,0,3.17,3.17,0,0,1,.79-.39c.18-.08.51.44.75.87a3.19,3.19,0,0,1,.87-.07,2.9,2.9,0,0,1,2.48-1.5,1.42,1.42,0,0,1,1.53.77.53.53,0,0,0,.28.22,1.28,1.28,0,0,1,1.45.22c.81.08,1.51.06,1.82-.35s1-.48,1.89.39c1.25.83,2.76-.07,4-.48a1.22,1.22,0,0,1,1.71.73c.13.26.86.13,1.44,0a12.75,12.75,0,0,0,1.91-1.12c1.12-.45,2.48,1,2.83,1.38s1.43.22,2.67.38a12.72,12.72,0,0,0,3.61-.13,1.7,1.7,0,0,1,2.37-.22,1.54,1.54,0,0,0,1.62.13c.74-.22,1.82-.09,2.28-.38a2.55,2.55,0,0,1,2.24,0c.51-.44,1.1-1.38,2.28-1.44s1.25.16,2.79,1.57c0-.57.85-.83,1.16-1s1,1.43,1,1.43A1.77,1.77,0,0,1,660,323c.24.13,1.27-.76,2.48-1.53a1.29,1.29,0,0,1,1.6,0,1.6,1.6,0,0,1,.29-.76c.22-.26,1.11.13,1.43.45a1.23,1.23,0,0,0,1.14.22c.37-.07.77.35,1,.61s.76-.22,1.73-.16a2.9,2.9,0,0,1,2.48-1.5,1.43,1.43,0,0,1,1.54.77c.2.28.31.25,1.29.38s1.89.19,2.26-.29.94-.48,1.88.39c1.25.83,2.76-.07,4-.48a1.22,1.22,0,0,1,1.71.73c.13.26.86.13,1.44,0a12.75,12.75,0,0,0,1.91-1.12c1.12-.45,2.48,1,2.83,1.38s1.42.22,2.68.38a12.73,12.73,0,0,0,3.62-.13,1.69,1.69,0,0,1,2.36-.22,1.55,1.55,0,0,0,1.62.13c.75-.22,1.83-.09,2.28-.38a2.55,2.55,0,0,1,2.24,0c.5-.44,1.1-1.38,2.28-1.44s1.25.16,2.79,1.57c0-.57.85-.83,1.16-1s1,1.43,1,1.43c1.18-.67,1.93.38,2.17.51s1.09-.94,2.4-.94c1.16,0,2-.07,2-.07v22.76c-4.11,0-5.13,2.37-8.67,1.89-6.11-.83-5.24,3.83-14,1s-7.55-2.71-15.14.26c-3.8,1.49-4.85-.42-8.38-1.51-2.34-.72-5,.18-7.45-.3-1-.2-1.47-1.09-2.47-1s-2.3,1.93-3.28,2.35c-5,2.14-13.3,1.82-18.48.15-8.72-2.8-7.55-2.71-15.14.26h0c-2.59,1-4,.37-6.56-.4-1.93-.6-2.23-.39-4.33.2a32,32,0,0,1-18-.06c-8.71-2.8-7.54-2.71-15.13.26a7,7,0,0,1-6,.07c-2.63-1.12-4.49-1.13-7.33-1.38-1.36-.12-3.39-1.9-4.49-1.76-1.6.19-3.43,2.73-5.23,3.13s-3.71-.14-5.56,0c-2.43.19-4.69,1-7.15.73-3.88-.45-7.59-2.9-11.47-3.08-2.75-.12-5.37,1.25-8,2.28-6,2.36-5.62-.59-8.15-1.41a8,8,0,0,1-5.73,1.57c-6.11-.82-5.81,2.39-14.52-.42s-7.55-2.71-15.14.26a7.11,7.11,0,0,1-6,.07c-2.91-1.17-5.29-.84-8.3-1.47s-3-1.4-5.8.16c-6,3.32-13.76,3-20,1-8.72-2.8-7.55-2.71-15.13.26s-5-2.47-10.86-1.49c-3.09.51-5-.06-6.55-1.38-1.76,1.76-4.33,3.45-7.46,3-6.11-.82-5.81,2.39-14.52-.42s-7.55-2.71-15.13.26-5-2.47-10.87-1.49c-3.39.57-3.4-1.69-7-1.69V321.79A1.7,1.7,0,0,0,357.37,321.85Z"/><path class="cls-13" d="M359.23,347.2c-.47,0-.3.47-.72.58s-.76-.29-1.14-.22-.77-.35-1-.61-.77.22-1.73.16a2.9,2.9,0,0,1-2.47,1.5,1.42,1.42,0,0,1-1.53-.77c-.2-.28-.31-.25-1.3-.38s-1.88-.19-2.26.28-1,.48-1.88-.39c-1.25-.83-2.76.07-4,.48a1.22,1.22,0,0,1-1.71-.73c-.13-.26-.85-.13-1.45,0s-1.18.76-1.91,1.12c-1.12.45-2.48-1-2.83-1.38s-1.42-.22-2.68-.38a12.71,12.71,0,0,0-3.61.13,1.7,1.7,0,0,1-2.37.22,1.54,1.54,0,0,0-1.62-.13c-.75.22-1.82.09-2.28.38a2.54,2.54,0,0,1-2.23,0c-.51.44-1.1,1.38-2.28,1.44s-1.25-.16-2.78-1.57c0,.57-.86.83-1.16,1s-1-1.43-1-1.43a1.77,1.77,0,0,1-2.17-.51c-.24-.13-1.27.76-2.48,1.53a1.43,1.43,0,0,1-1,.25,1.41,1.41,0,0,1-.24.49c-.22.26-1.12-.13-1.42-.45a1.22,1.22,0,0,0-1.14-.22c-.38.07-.77-.35-1-.61s-.77.22-1.73.16a2.9,2.9,0,0,1-2.48,1.5,1.43,1.43,0,0,1-1.53-.77c-.2-.28-.31-.25-1.3-.38s-1.88-.19-2.26.28-.94.48-1.89-.39c-1.24-.83-2.76.07-4,.48a1.22,1.22,0,0,1-1.71-.73c-.13-.26-.85-.13-1.45,0s-1.18.76-1.91,1.12c-1.12.45-2.48-1-2.83-1.38s-1.42-.22-2.67-.38a12.73,12.73,0,0,0-3.62.13,1.7,1.7,0,0,1-2.37.22,1.55,1.55,0,0,0-1.62-.13c-.75.22-1.82.09-2.28.38a2.56,2.56,0,0,1-2.24,0c-.5.44-1.1,1.38-2.28,1.44s-1.25-.16-2.79-1.57c0,.57-.85.83-1.16,1s-1-1.43-1-1.43a1.77,1.77,0,0,1-2.17-.51c-.24-.13-1.27.76-2.48,1.53a1.29,1.29,0,0,1-1.6,0,1.63,1.63,0,0,1-.3.76c-.22.26-1.12-.13-1.42-.45a1.24,1.24,0,0,0-1.14-.22c-.37.07-.77-.35-1-.61s-.77.22-1.73.16a2.9,2.9,0,0,1-2.47,1.5,1.43,1.43,0,0,1-1.54-.77c-.2-.28-.31-.25-1.29-.38s-1.88-.19-2.26.28-.95.48-1.88-.39c-1.26-.83-2.76.07-4,.48a1.23,1.23,0,0,1-1.71-.73c-.13-.26-.85-.13-1.44,0s-1.18.76-1.91,1.12c-1.12.45-2.48-1-2.83-1.38s-1.43-.22-2.67-.38a12.75,12.75,0,0,0-3.62.13,1.69,1.69,0,0,1-2.36.22,1.55,1.55,0,0,0-1.63-.13c-.74.22-1.82.09-2.28.38a2.54,2.54,0,0,1-2.23,0c-.5.44-1.1,1.38-2.29,1.44-1,0-1.2-.1-2.16-1h-.25a.75.75,0,0,1-.56-.2,2.59,2.59,0,0,1-1,.54c-.18.07-.48-.39-.71-.8a2.28,2.28,0,0,1-.46,0,2.91,2.91,0,0,1-2.48,1.5,1.43,1.43,0,0,1-1.53-.77c-.13-.19-.23-.24-.59-.29a1.31,1.31,0,0,1-1.61-.17,1.56,1.56,0,0,0-1.35.37c-.38.48-.95.48-1.89-.39-1.25-.83-2.76.07-4,.48a1.22,1.22,0,0,1-1.71-.73c-.13-.26-.86-.13-1.45,0s-1.18.76-1.91,1.12c-1.12.45-2.48-1-2.83-1.38s-1.42-.22-2.67-.38a12.76,12.76,0,0,0-3.62.13,1.69,1.69,0,0,1-2.36.22,1.55,1.55,0,0,0-1.63-.13c-.74.22-1.82.09-2.28.38a2.55,2.55,0,0,1-2.24,0c-.5.44-1.09,1.38-2.28,1.44s-1.25-.16-2.78-1.57c0,.57-.86.83-1.16,1s-1-1.43-1-1.43a1.77,1.77,0,0,1-2.17-.51c-.24-.13-1.27.76-2.48,1.53a1.29,1.29,0,0,1-1.6,0,1.68,1.68,0,0,1-.3.76c-.22.26-1.12-.13-1.43-.45a1.22,1.22,0,0,0-1.14-.22c-.38.07-.77-.35-1-.61s-.77.22-1.73.16a2.9,2.9,0,0,1-2.48,1.5,1.44,1.44,0,0,1-1.54-.77c-.2-.28-.3-.25-1.29-.38s-1.89-.19-2.26.28-.94.48-1.88-.39c-1.25-.83-2.76.07-4,.48a1.22,1.22,0,0,1-1.71-.73c-.13-.26-.86-.13-1.44,0a12.75,12.75,0,0,0-1.91,1.12c-1.12.45-2.47-1-2.82-1.38s-1.43-.22-2.68-.38a12.72,12.72,0,0,0-3.61.13,1.69,1.69,0,0,1-2.37.22,1.55,1.55,0,0,0-1.62-.13c-.74.22-1.82.09-2.28.38a2.54,2.54,0,0,1-2.23,0c-.51.44-1.1,1.38-2.28,1.44-1,0-1.19-.1-2.14-1a1.73,1.73,0,0,0-.72,0,.53.53,0,0,1-.29,0,3.17,3.17,0,0,1-.79.39c-.18.08-.51-.44-.75-.87a3.19,3.19,0,0,1-.87.07,2.9,2.9,0,0,1-2.48,1.5,1.42,1.42,0,0,1-1.53-.77.53.53,0,0,0-.28-.22,1.28,1.28,0,0,1-1.45-.22c-.81-.08-1.51-.06-1.82.35s-.95.48-1.89-.39c-1.25-.83-2.76.07-4,.48a1.22,1.22,0,0,1-1.71-.73c-.13-.26-.86-.13-1.44,0a12.75,12.75,0,0,0-1.91,1.12c-1.12.45-2.48-1-2.83-1.38s-1.43-.22-2.67-.38a12.72,12.72,0,0,0-3.61.13,1.7,1.7,0,0,1-2.37.22,1.54,1.54,0,0,0-1.62-.13c-.74.22-1.82.09-2.28.38a2.55,2.55,0,0,1-2.24,0c-.51.44-1.1,1.38-2.28,1.44s-1.25-.16-2.79-1.57c0,.57-.85.83-1.16,1s-1-1.43-1-1.43a1.77,1.77,0,0,1-2.17-.51c-.24-.13-1.27.76-2.48,1.53a1.29,1.29,0,0,1-1.6,0,1.6,1.6,0,0,1-.29.76c-.22.26-1.11-.13-1.43-.45a1.23,1.23,0,0,0-1.14-.22c-.37.07-.77-.35-1-.61s-.76.22-1.73.16a2.9,2.9,0,0,1-2.48,1.5,1.43,1.43,0,0,1-1.54-.77c-.2-.28-.31-.25-1.29-.38s-1.89-.19-2.26.28-.94.48-1.88-.39c-1.25-.83-2.76.07-4,.48a1.22,1.22,0,0,1-1.71-.73c-.13-.26-.86-.13-1.44,0a12.75,12.75,0,0,0-1.91,1.12c-1.12.45-2.48-1-2.83-1.38s-1.42-.22-2.68-.38a12.73,12.73,0,0,0-3.62.13,1.69,1.69,0,0,1-2.36.22,1.55,1.55,0,0,0-1.62-.13c-.75.22-1.83.09-2.28.38a2.55,2.55,0,0,1-2.24,0c-.51.44-1.1,1.38-2.28,1.44s-1.25-.16-2.79-1.57c0,.57-.85.83-1.16,1s-1-1.43-1-1.43c-1.18.67-1.93-.38-2.17-.51S.32,347-1,347c-1.16,0-2,.07-2,.07v-23c4.11,0,5.13-2.37,8.68-1.89,6.11.83,5.24-3.83,14-1S27.24,324,34.83,321c3.8-1.48,4.85.42,8.38,1.51,2.34.72,5-.18,7.45.3,1,.2,1.47,1.09,2.47,1s2.3-1.93,3.29-2.35c5-2.14,13.3-1.82,18.48-.15,8.66,2.7,7.49,2.7,15.1-.3h0c2.6-1,4-.37,6.56.41,1.93.6,2.23.39,4.33-.2a32,32,0,0,1,18,.06c8.71,2.81,7.54,2.71,15.13-.26a7,7,0,0,1,6-.07c2.63,1.12,4.49,1.13,7.33,1.38,1.36.12,3.39,1.9,4.49,1.76,1.6-.19,3.43-2.73,5.23-3.13s3.71.14,5.56,0c2.43-.19,4.69-1,7.15-.73,3.88.45,7.59,2.9,11.47,3.08,2.75.12,5.37-1.25,8-2.27,6-2.36,5.62.59,8.15,1.41a8,8,0,0,1,5.73-1.57c6.11.82,5.81-2.39,14.52.42s7.55,2.71,15.14-.26a7.11,7.11,0,0,1,6-.07c2.91,1.17,5.29.84,8.3,1.47s3,1.4,5.8-.16c6-3.32,13.76-3,20-1,8.72,2.81,7.55,2.71,15.13-.26s5,2.47,10.86,1.49c3.09-.51,5,.06,6.55,1.39,1.76-1.76,4.33-3.45,7.46-3,6.11.82,5.81-2.39,14.52.42S335,324,342.54,321s5,2.47,10.87,1.49c3.39-.57,3.4,1.69,7,1.69V347A6.06,6.06,0,0,0,359.23,347.2Z"/></g><path class="cls-14" d="M31.79,633.87a4.94,4.94,0,0,0-4.33,5.51l3.44,29.86a4.89,4.89,0,0,0,5.42,4.38l30.45-3.49V629.86Z"/><path class="cls-15" d="M110.46,660.15,107,630.29a5.08,5.08,0,0,0-5.62-4.38l-34.64,4v40.28L106,665.67A5.06,5.06,0,0,0,110.46,660.15Z"/><path class="cls-16" d="M106,663.17A2.91,2.91,0,0,0,108.6,660l-3.39-29.83a3,3,0,0,0-3.27-2.53l-35.16,4v36Z"/><path class="cls-16" d="M29.94,638.77l3.41,29.83a2.78,2.78,0,0,0,3.08,2.53l30.35-3.48v-36l-34.41,4A2.8,2.8,0,0,0,29.94,638.77Z"/><path class="cls-17" d="M112.88,659.54,109.5,630a7.19,7.19,0,0,0-8-6.24l-34.77,4v3.92l35.18-4a2.92,2.92,0,0,1,3.23,2.53L108.63,660a2.94,2.94,0,0,1-2.62,3.18l-39.23,4.48v4.28l39.76-4.54A7.17,7.17,0,0,0,112.88,659.54Z"/><path class="cls-18" d="M36.43,671.13a2.82,2.82,0,0,1-3.13-2.53l-3.39-29.83a2.81,2.81,0,0,1,2.44-3.18l34.43-4v-3.92l-34.89,4a7,7,0,0,0-6.18,7.85l3.41,29.55a7,7,0,0,0,7.76,6.24l29.91-3.43v-4.28Z"/><circle class="cls-18" cx="94.38" cy="623.99" r="3.07" transform="translate(-70.32 14.77) rotate(-6.53)"/><circle class="cls-19" cx="94.38" cy="623.99" r="1.48" transform="translate(-70.3 14.77) rotate(-6.53)"/><circle class="cls-18" cx="39.13" cy="630.31" r="3.07" transform="translate(-71.39 8.53) rotate(-6.53)"/><circle class="cls-19" cx="39.13" cy="630.31" r="1.48" transform="translate(-71.4 8.54) rotate(-6.53)"/><polygon class="cls-20" points="39.44 630.49 38.82 630.14 66.92 581.05 94.67 623.8 94.08 624.19 66.96 582.41 39.44 630.49"/><path class="cls-18" d="M62.21,581.78a4.82,4.82,0,0,0,4.57,4.81V577A4.82,4.82,0,0,0,62.21,581.78Z"/><path class="cls-21" d="M67.13,577a2.82,2.82,0,0,1-.36,0v9.61a2.8,2.8,0,0,1,.36,0,4.82,4.82,0,1,0,0-9.64Z"/><path class="cls-22" d="M63.09,581.78a4.23,4.23,0,0,0,3.68,3.92v-7.84A4.23,4.23,0,0,0,63.09,581.78Z"/><path class="cls-23" d="M67.13,577.85h-.36v7.84h.36a3.93,3.93,0,1,0,0-7.87Z"/><rect class="cls-20" x="63.25" y="581.55" width="7.86" height="0.35" transform="translate(-403.74 233.66) rotate(-46.94)"/><rect class="cls-20" x="67.01" y="577.8" width="0.35" height="7.86" transform="translate(-379.06 202.53) rotate(-43.06)"/><path class="cls-24" d="M39.83,641.54h0a1.3,1.3,0,0,0-1.11-.44,1.21,1.21,0,0,0-1,1.38,1.19,1.19,0,0,0,1.31,1.1,1.31,1.31,0,0,0,1-.71h0l.09.76a1.85,1.85,0,0,1-1,.47,1.75,1.75,0,0,1-2-1.56,1.78,1.78,0,0,1,1.58-2,1.82,1.82,0,0,1,1.08.21Z"/><path class="cls-24" d="M41.57,643.72l-.57.07-.7-5.89.57-.07Z"/><path class="cls-24" d="M42.88,638.88a.41.41,0,1,1-.81.1.41.41,0,1,1,.81-.1Zm.43,4.63-.57.07-.4-3.36.57-.07Z"/><path class="cls-24" d="M46.71,640.72h0a1.3,1.3,0,0,0-1.11-.44,1.21,1.21,0,0,0-1,1.38,1.19,1.19,0,0,0,1.31,1.1,1.31,1.31,0,0,0,1-.71h0l.09.76a1.85,1.85,0,0,1-1,.47,1.75,1.75,0,0,1-2-1.56,1.78,1.78,0,0,1,1.58-2,1.82,1.82,0,0,1,1.08.21Z"/><path class="cls-24" d="M48.19,640.79l1.07-1.39.76-.09-1.26,1.6,1.94,1.72-.76.09-1.53-1.37-.13.17.16,1.38-.57.07-.7-5.89.57-.07Z"/><path class="cls-24" d="M53.32,636.34l.35,2.93h0a1.13,1.13,0,0,1,.9-.61c.93-.11,1.22.53,1.32,1.32l.24,2-.57.07-.23-1.89c-.06-.54-.17-1-.83-.94s-.75.83-.68,1.43l.19,1.59-.57.07-.7-5.89Z"/><path class="cls-24" d="M57.32,640.26a1.1,1.1,0,0,0,1.23,1,1.16,1.16,0,0,0,.94-.81l.52.22a1.71,1.71,0,0,1-1.44,1.13,1.64,1.64,0,0,1-1.85-1.53,1.64,1.64,0,1,1,3.23-.31Zm2-.73a1,1,0,0,0-1.09-.76,1.07,1.07,0,0,0-.92,1Z"/><path class="cls-24" d="M61.11,638.35h0a.87.87,0,0,1,.69-.55,1,1,0,0,1,.53.1l-.21.55a.56.56,0,0,0-.36-.11c-.63.08-.56.88-.51,1.32l.2,1.68-.57.07-.4-3.36.57-.07Z"/><path class="cls-24" d="M63.41,639.53a1.1,1.1,0,0,0,1.23,1,1.16,1.16,0,0,0,.94-.81l.52.22a1.71,1.71,0,0,1-1.44,1.13,1.64,1.64,0,0,1-1.85-1.53,1.64,1.64,0,1,1,3.23-.31Zm2-.73A1,1,0,0,0,64.3,638a1.07,1.07,0,0,0-.92,1Z"/><path class="cls-24" d="M69.84,640.34l-.57.07-.34-2.83-.31,0-.06-.53.31,0-.16-1.34a1.73,1.73,0,0,1,0-.89,1,1,0,0,1,.81-.52,1.36,1.36,0,0,1,.41,0l.07.58a1.16,1.16,0,0,0-.39,0c-.46.06-.42.38-.35,1l.14,1.13.85-.1.06.53-.85.1Z"/><path class="cls-24" d="M70.67,638.55a1.78,1.78,0,1,1,2,1.55A1.77,1.77,0,0,1,70.67,638.55Zm.57-.08a1.2,1.2,0,1,0,1-1.38A1.2,1.2,0,0,0,71.24,638.48Z"/><path class="cls-24" d="M75.37,636.65h0a.87.87,0,0,1,.69-.55,1,1,0,0,1,.53.1l-.21.55a.56.56,0,0,0-.36-.11c-.63.08-.56.88-.51,1.32l.2,1.68-.57.07-.4-3.36.57-.07Z"/><path class="cls-25" d="M61.32,650.7l.37,3.28,4.2-.48.29,2.53-4.2.48.74,6.55-2.9.33L58.14,648.5l7.38-.83.29,2.53Z"/><path class="cls-25" d="M71.63,658.87l-.87,3.27-3.06.35,4.07-15.93,2.25-.25,7.37,14.63-3.1.35-1.5-3Zm1.63-8.06h0l-1,5.59,3.53-.4Z"/><path class="cls-25" d="M93.71,660.18l-1.17-1.12A6.76,6.76,0,0,1,89,660.48c-4.34.49-7.76-2.76-8.25-7s2.14-8.15,6.47-8.64,7.77,2.82,8.24,7a8.82,8.82,0,0,1-1.15,5.58l2.3,2.18Zm-1.86-4.94a5.18,5.18,0,0,0,.58-3.18c-.27-2.41-2.32-4.77-4.92-4.48-2.82.32-4.06,3.16-3.77,5.72s2.07,4.7,4.91,4.38a3.19,3.19,0,0,0,1.5-.67l-2.77-2.55,3-.58Z"/></svg>