<?xml version="1.0" encoding="utf-8"?>
<!-- Generator: Adobe Illustrator 21.1.0, SVG Export Plug-In . SVG Version: 6.00 Build 0)  -->
<svg version="1.1" id="Layer_1" xmlns="http://www.w3.org/2000/svg" xmlns:xlink="http://www.w3.org/1999/xlink" x="0px" y="0px"
	 viewBox="0 0 720 534.3" preserveAspectRatio="none" style="enable-background:new 0 0 720 534.3;" xml:space="preserve">
<style type="text/css">
	.st0{clip-path:url(#SVGID_2_);}
	.st1{fill:#0E202E;}
</style>
<title>Artboard 1</title>
<g>
	<defs>
		<rect id="SVGID_1_" x="0.4" y="-51.9" width="719.6" height="585.6"/>
	</defs>
	<clipPath id="SVGID_2_">
		<use xlink:href="#SVGID_1_"  style="overflow:visible;"/>
	</clipPath>
	<g class="st0">
		<path class="st1" d="M511.6,254.8c-0.6,0.4-1.4,0.5-2,0.1c-0.1,0,0-0.3,0-0.4c0.5-0.5,1.3-0.7,2-0.4l0,0c0.3-0.6,1.1-0.8,1.5-1.3
			l0,0c1.7-2,4.4-2.3,6.7-3.4l0,0l0.4-0.4l0,0c-0.1-0.1-0.1-0.2-0.1-0.3l-1.8-1.1l0,0c-2.7,0.6-5.3,1.3-7.4,3.2
			c0.4-1.4,1.4-2.6,2.6-3.4c1.4-1,3-2.4,5.2-1.5c-0.1-0.7-0.6-0.9-1.4-1.1c-1.2-0.4-2.8-0.1-3.5-1.6c0-0.7,0.7-0.8,1.2-1
			c0.8-0.3-0.2-0.4-0.1-0.6l0,0c-0.6-0.1-1.2,0.2-2-0.4c2.4-0.7,4.7-0.8,6.8-1.7l0,0c1.5-0.3-0.3-1.1,0.3-1.6l0,0
			c-0.8-0.4-1.3,0.7-2.2,0.5c1.2-1.4,2.1-1.6,3.5-0.6c0.6,0.4,1.2,0.9,1.8,1.4l0,0l1.1,0.4c1.1-0.2,1.5-0.6,0.3-1.3l0,0
			c-0.7-0.1-1.5-0.4-1.4-1c0.1-0.8,1.1-0.4,1.7-0.5c0.2,0,0.3,0.1,0.5,0.2l0,0c0-0.2,0-0.3,0-0.5c0.4-1.9-0.5-1.9-2-1.2
			c-0.1,0-0.1,0-0.2,0l0,0c-0.7,0.5-1.5,0.7-2.4,0.6c0.5-0.5,1.1-0.8,1.7-0.9l0,0l0.8-0.3c-0.9-0.6-0.9-1.1,0-1.6
			c1.2-0.8,2.6-1.3,4-1.4l0,0l2.7-0.6l0,0l3.3-1.3c0.4-0.2,1-0.3,0.7-1h-0.2h-0.1c-0.4,0.3-0.7-0.1-1.1-0.1c-1.1,0-1.5,1.2-2.6,1.3
			c0-1,1.5-1.1,1-2.2l0,0c-1.6,0.4-3.3,1-4.8,1.7l-0.2-0.2c0,0.1,0.1,0.1,0.2,0.2c-0.3,0.7-1.2,0.8-1.7,1.3
			c-0.2,0.2-0.7,0.5-0.8,0.2c-0.6-1.9-1.5,0-2.3-0.1c-0.3,0-0.6,0.5-1.1,0.1c2.3-2,4.2-4.6,8-5.5c-2-0.5-3,0.7-4.7,0.8
			c1.2-1.1,2.6-1.8,4.2-2c1-0.1,1.9-0.3,1.2-1.5l0,0c-1.1,0.7-1.9-0.4-2.9-0.3l-1.1,1.1c0,0.3-0.1,0.6-0.5,0.6s-0.3-0.3-0.3-0.6
			s0-0.8,0-1.1h-0.7c-0.8,0.5-1.7,0.8-2.7,0.8c0.6-0.6,1.5-0.9,2-1.5l0,0c1.8-0.8,3.8-1.3,5.7-1.6c1.4-0.1,1.8-0.7,1.8-1.8
			c-0.4-0.5-1.3-0.4-1.5-1.4l2.5,0.6c0.1-0.6,0.5-0.6,0.9-0.3s0.8,0.8,1.4,0.8l0,0c0-0.5-0.5-0.8-0.7-1.1c-0.8-1.7-1.9-3.1-4.5-1.9
			c1-0.6,1.9-1,2.7-1.5c0.3-0.2,1.4-0.2,0.8-1.1l0,0c-0.5-0.1-0.9-0.2-1.4-0.3c-0.2,0-0.6,0-0.4-0.3c0.1-0.1,0.4-0.1,0.7-0.2l0,0
			c0.6-0.3,0.5-0.5,0-0.8c-0.9-0.6-2.2-0.8-2.7-2c1.7,0.9,3.8,1.3,5.1,2.8l0.7,0.1l0,0c1.7,0.8,3.5,0,5.2,0.3
			c0.1-0.6-0.7-1.5,0.8-1.8c0.7-0.1,0.4-1.7-0.3-1.9c-0.5-0.2-1.2,0-1-1c1.7,0.9,3.4,1.3,5.2,0.3c1.5-0.3,0.5-0.6,0-0.8
			s-1.4-0.2-0.9-0.6c1.5-1.2-0.4-1-0.7-1.5c-1.1-0.1-1.7,0.8-2.6,1.1l0,0c-0.4,0.4-0.7,0.8-1.1,1.1s-0.5,0.9-1.1,0.5s-0.5-0.9,0-1.3
			c1.3-1.2,0.1-1.1-0.8-1.1h-0.8c-0.6,0.3-1.2,0.4-1.9,0.4l0,0c-1.3,1-2.6-1-4.1-0.2l3-2c-0.5-0.6-1.4,0.1-1.8-0.7
			c0.9-0.3,1.7-0.5,2.5-0.8c0.1,0,0.2,0.1,0.3,0.1c0.2-0.2,0.7-0.4,0.6-0.5c-0.4-1.5,0.7-0.9,1.3-0.7c0.9,0.3,1.5,0.1,1.8-0.8l0,0
			l0.7-1c-0.7-0.7-1.5-0.3-2.2-0.2c-1.4,0.1-2.8,0.4-4.2,0.6c1.9-1,4.1-1.1,6-2l0,0c0.2-1.1-1.3-0.8-1.7-1.6
			c1.7,0.2,3.1-0.4,4.7,0.3c1.3,0.6,0.2-0.3,0.3-0.6c-0.2-0.1-0.2-0.3,0-0.4l0,0l-0.1-0.6l0,0c-0.4,0-0.9,0-1.3-0.1
			c-0.8-0.2-2.1,0.4-2.1-0.7c0-0.6,1.5-0.5,2.3-0.4c1,0.2,1.9,0.3,2.6-0.6l0,0h-1.1c-0.7-1.4-2.6-2.2-2.6-4
			c-0.5-0.2-1.1,0.1-1.5-0.2c0.6-0.5,1.5-0.7,2.3-0.5l0,0c0.1,0,0.2,0,0.4,0l0,0c0.7-0.6,1.8-0.7,2.6-0.3l1.1-0.1l0,0
			c0-0.3-0.7-0.6,0-1c1.2-0.4,2.5-0.8,3.5,0.3l0,0l2.2-0.2l0,0c0.6,0,0-1.4,1.1-0.7c0.8-0.3,0.5-1.1,0.3-1.1c-0.9,0.1-1-1-1.9-0.9
			l0,0c0.3,0.6,0,0.8-0.6,0.8c-1.5,0.1-2.9,0.2-4.4,0.4c0.1-0.9,1.6-1.5,0.5-2.3c-0.9-0.8-2.1-1-3.2-0.6l0,0
			c-1.1,0.5-2.3,0.7-3.4,0.5c1-0.6,2-1.1,2.8-1.7c0.2-0.1,0.4-0.2,0.7-0.3c-1.3-1.4,0.5-1.2,1-1.5c0.4-0.2,1.2-0.1,1-0.7
			s-0.8-0.3-1.3-0.2s-1.1,0.4-1.2-0.3c0-0.4,0.6-0.5,1-0.5h0.9c0.1,0.1,0.3,0.2,0.4,0.2c-0.1,0-0.3-0.1-0.4-0.2
			c0.6,0,1.2-0.2,1.8-0.4c0.7-0.3,1.5-0.7,0.8-1.6l0,0c-1.1-0.4-2-1-2.8-1.8c1.8-0.4,3.7,0.2,5.1-1l0,0c-0.7-0.9,0.2-0.9,1-1.2
			l-8.4-1.2c3.1,0.1,6.1-1.5,9.3-0.7c0.7,0.2,2.8-0.1,1.8-2c-0.2-0.3,0.3-0.8,0.4-1.2l0,0c-0.8-0.2-0.3-1.7-1.7-1.1
			c0.1-0.9,1.4-0.7,1.4-1.5c-1.4-0.4-2.8,0.6-4.4,0c1.8-0.8,3.7-1.2,5.6-1.1c0.1,0,0.2-0.1,0.3-0.1l0,0c0.2-0.2,0.3-0.6,0.1-0.8
			c0,0,0,0-0.1-0.1c-0.3-0.3-0.5-0.7,0.2-0.8l0,0c0.5-0.8,1.8-1,2.2-2c-1.1-1.1-2.2,0-3.4,0l-0.7,0.4c-0.3,0.2-0.7,0.4-1,0.6
			s-0.9,0.8-1.4,0.3s0.3-0.8,0.5-1.2l0,0l-1.6-0.1c0.9-0.3,1.4-1.2,2.5-1l0,0l1.5-0.4l0,0c0-0.2,0-0.5-0.2-0.6
			c-1.7-0.9-1.4-1.7,0.2-2.3l0,0c2.1-0.3,4.2-0.7,6.3-0.1c0.4-0.1,1.1,0,1.2-0.2c0.4-0.5-0.8-0.4-0.6-1.1l1.8-0.6l-1.3-0.4
			c0,0,0.1-0.1,0.1-0.1l0,0l-0.1,0.1c-2.3,0-4.7-0.3-7.1-0.1l0,0c-2,0.7-3.7-0.5-5.7-0.4c1-0.2,1.9-0.4,2.8-0.7c1-0.5,2.1,0.1,3-0.4
			c-0.4-1.2-2.2-0.2-2.5-1.4l0,0c1.6-1.7,3.6-1.3,5.6-0.7l1.2-0.7c0-0.4-1.2-0.4-0.3-1l0,0c1.3-0.2,0.7-1.5,0.7-1.8
			c-0.4-1-1.8-0.3-2.7-0.9l5.4-0.4c0.4-0.2,0.8-0.4,1.2-0.6c-0.5-1.3,0.8-1.1,1.4-1.5l0,0l0.4-0.5l-0.7-0.1c-0.2,0.3-0.7,0.4-1,0.2
			c-1.5-1.1-3.4-0.5-5-0.9c-1.3,0.6-2.7,0.9-4,0.9c1.6-1.4,3.5-2.6,5.6-3.2l0,0l1.7-0.7c0.8-0.4,1.7-0.7,0.2-1.7
			c0.9,0.3,1.5-0.6,2.3,0.1c0.9-0.5,1.9-0.9,3-1l0,0l0,0c0-0.7-0.4-0.7-1-0.5c-0.4,0.1-0.8,0.1-1.3,0.1c0.4-1.2-0.7-1-1.2-0.9
			c-1.6,0.3,0.1-1.2-1-1.3c-0.9-0.2-1.7-0.6-2.4-1.1l0.1-0.3l4.5,1.2l0,0c0.9-1,2.2-1.1,3.5-1.3c1-0.1,1.4-0.2,1.3-1.4
			c-0.1-1.5-1.1-1.6-2.1-1.5c-1.6,0-3.1-0.2-4.7-0.5c2.7,0.1,5.2-1.3,8-0.6l0,0h0.7l0,0c0.4-1.2-0.3-1.6-1.5-1.7
			c-0.8,0-1.6-0.1-2.4-0.5c0.9-0.3,2.4-0.1,2.6-0.7c0.2-0.9-1.5-0.7-2-1.4c-0.1-0.1-0.2-0.2-0.4-0.4c0.5-0.4,1-0.2,1.4,0
			c0.8-0.2,1.3-1,2.3-0.7h0.7l3.4,0.3l0,0l0.4-0.7c0-0.1-0.1-0.2-0.1-0.3l-3.3-2.1c-0.6,0.1-1.2,0.2-1.8,0.4c-1,0.4-1,0.4-1.6-0.6
			c0.6-0.1,1.2,0,1.6-0.7c-1.6-1.1-3.5-1.8-5.1-2.9c1.9,0.5,4,0.8,5.6,1.9c1,0.8,1.6,0.4,2.1-0.4l0,0l0.3-0.4l0,0
			c-1.2-0.8-1.6-2.3-3.2-2.8c0.8-0.1,1.5,0.1,2.1,0.6c0.3,0.3,0.6,0.4,0.7-0.1s0.7-0.4,1-0.2c0.9,0.5,1.8,1.1,2.7,1.6l0,0
			c0.8,0.3,0.5-0.4,0.8-0.7c-0.5-0.5-1.1-0.9-1.7-1.3c-0.7-0.4-1.7-1.6-1.5-2c0.4-0.8,1.4,0.2,2.2,0.1c0.3,0,0.6,0.1,0.9,0.1l0,0
			c-0.5-1.1-1.8-1.8-2.1-3.2c0.9,0.6,1.7,1.4,2.4,2.2l0,0c0.5-0.2,0.4-0.7,0.4-1.1c0-0.1,0-0.2-0.1-0.3l0,0
			c-1.7-1.6-1.4-3.4-0.5-5.3c0.7,0.9,1.3,1.9,2.1,2.7c0.3,0.3,0.7,1.3,1.4,0.2l0,0c-0.7-0.4,0.2-0.9,0-1.3l0,0
			c-0.7-0.7-0.1-1.6-0.4-2.4c-1.3-1.7-2.2-3.7-2.5-5.9l3.3,5.5c0.3-0.1,0.3-0.3,0.3-0.6c0.3-2.6-0.3-5.3,0.4-7.9
			c0,3,0.5,5.9,0.8,9.1l1.5-1.4l0,0c0.9-1.5,2-2.9,3.4-4l-0.4,1.7c0.8,0.1,1.1,0.4,0.5,1l0,0c-0.8,1.6-0.9,3.5-1.9,5l0,0l-1,3.8
			c2.1-1.7,3-3.9,5-5.6c-0.3,1.5-1.4,2.2-1.7,3.2c0.5,0.2,0.3,0.9,1,1c1.3,0.3,0.9,0.9,0,1.3l0,0c-0.6,0.1-0.5,0.7-0.8,1
			c-0.5,0.4-1.1,0.9-0.7,1.4s1.1,0.1,1.6-0.1c0.7-0.3,1.2-0.1,0.9,0.6c-0.5,0.9,0.3,0.9,0.8,1.2c0.4,0.2,0.9,0.2,1.3,0.1
			c0.4-0.1,0.9-0.1,1.3-0.1c-1.2,1.1-2.6,1.9-4.2,2.4c-0.1,0-0.2,0.1-0.3,0.2l0.3-0.2c0.5,2.4,1.6,0.9,2.5,0.3c1.4-1,3.1-1,4.7-1.5
			c-0.7,1.3-2.2,1.4-3.3,2.1l0,0c0,0,0,0.1-0.1,0.2c0,0.1,0,0.1,0.1,0.1c1.1,0.4,2-0.5,3.2-0.2c-3.7,2-3.7,2-4,3.4
			c0.1,0,0.2,0,0.3,0c1.2-0.4,2.6-0.4,3.8,0c-1.1,0.6-2.5,0.5-3.4,1.4l0,0c-0.4,0.3-1,0.5-1.5,0.6l-0.4,0.3c0.8,0.7,1.6,1.3,2.6,1.7
			l0,0c0.4,0,0.9-0.3,1,0.3l0,0c2.1,0.1,4-0.9,6-0.9c-1.4,0.7-2.8,1.3-4.2,1.9c-0.5,0.2-1.2,0.3-0.5,1l0,0l6.8,0.3
			c-1,0.4-2,0.6-3,0.7c-0.2,0-0.6-0.2-0.5,0.4c0.1,0.9-0.1,0.9-1,0.6c-0.8-0.5-1.9-0.6-2.8-0.2c1.3,0.9,3.1,0.6,4.2,1.6l0,0
			c0.5,0.7,0.1,1.3,0,2c0.3,0,0.8,0,0.7,0.4c-0.1,0.7-0.7,1.1-1.4,1.1c0,0.1,0,0.2-0.1,0.2l0,0c0.6,0.7,1.5,1.1,2.5,1
			c1.1-0.1,2.3,0,3.3,0.4c-1.4-0.1-2.2,1.2-3.8,1c0.5,0.4,1,0.6,1.6,0.7c1,0,2.1,0,3.1,0c0.3,0,0.6,0,0.7,0.4
			c0.1,0.3-0.1,0.6-0.4,0.6c0,0,0,0,0,0c-1.5-0.1-2.5,1.2-4,1l0,0c0.1,1.8,2,1.5,3,2.2c-0.3,0.4-1.1,0-1.4,0.6
			c2.5,1.2,5.5,1,8.1,1.8c-1.9,0-3.8-0.5-5.9,0c0.4,0.5,1.2,0.8,1,1.5l0,0c1.1,0.2,1.3,0.8,1,1.6c-0.2,0.7-0.9,1.1-1.6,0.9
			c0,0-0.1,0-0.1,0c-0.4-0.1-0.7-0.1-1.1-0.1l0,0c-0.2,0.1-0.6,0-0.8,0.3c1.2,1.3,3,1.4,4.6,1.6c2.2,0.3,4.1,1.4,6.4,1.6
			c-2.3,0.5-4.6-0.3-6.8,0.5l0,0c0.8,0.5,1.7,1.1,2.4,1.8c0.6,0.6,2.2,1.1,0.5,2.1l0.5,0.5c0.7,0.3,1.6,0.1,2.3,0.8
			c-1.4,0.1-2.5,0.8-3.8,0.5l0,0l-0.8,0.3l0,0c-1.3,0.1-1.5,0.6-0.6,1.5c0.4,0.4,1,0.5,1.2,1.2l-1-0.3c-0.5,0.4-0.5,1.1-0.1,1.5
			c0.1,0.1,0.1,0.1,0.2,0.2l0,0c1.2,0.6,2.3-0.8,3.9,0c-1.5,0.2-3,0.7-4.3,1.5c-0.3,0.2-1,0.3-0.8,0.9c0.2,0.5,0.6,0.5,1.1,0.5
			c1.8,0.1,3.6,0.4,5.3,0.7c1.1,0,2.1,0.3,3.1,0.9c-1.4,0.1-2.9-0.1-4.3-0.5l0,0c-0.6,0.1-1.2,0.1-1.8,0c-1.5-0.1-3-0.5-4.5-0.1l0,0
			c1.8,0.6,3,2.1,4.9,2.4l0,0c0.4,0,0.8-0.3,0.9,0.4c0.2,1,0.7,1.4,2.2,1.4c1.5,0,3,0.1,4.4,0.4c-2.5,1.5-5.2,1.1-7.6,2.1l0,0
			c-0.8,0.7-2,0.8-2.9,1.3c1.5,0.5,3-0.2,4.5,0.3c1-0.7,2-0.3,2.8,0.2c0.2,0.1-0.8,0.1-0.4,0.5s0.7,0,1,0c1,0,1.9,0.3,2.7,0.8
			c-1.5,0.9-3.5-0.9-4.7,0.7c0.5,0.7,1.6,0.4,1.9,1.3c-1.6,0.1-2.9-1.2-4.5-0.4l0,0c0.2,0.9,1,1.5,2,1.4c0.1,0,0.2,0,0.2-0.1l0,0
			h2.6l0,0c0.6-0.3,1.2-0.8,1.4,0.3c0.1,0.5,0.6,0.5,0.9,0.7c1.2,0.6,2.1,1.5,2.9,2.6c-1.2-0.1-2.1-0.7-3-0.1c0,0.7,1.2-0.1,0.9,0.6
			c-0.1,0.4-0.8,0.2-1.2,0.3c-1,0.4-2.3,0.5-3,1.4c-0.4,0.4-1.2,0.4-1.4,0.9l0,0c2.6,1.1,5.6,0.5,8.7,1.6c-3.2,0.3-6-0.1-8.8-0.2
			c1.7,1.1,3.5,1.9,4.8,3.3c-0.7-0.3-1.5-0.6-2.2-1c-1.3-0.6-1.3,0-1,0.9l0,0c0.3,0.2,0.3,0.3,0,0.4l0,0l0.1,0.9l0,0
			c0.9,0,1.2,1.1,2.1,1.1l1.5,0.4c1.4,0.2,2.8,0,4.1-0.4l0.2-0.1c1.6-0.6,3.2-0.9,4.8-1c-1.3,0.8-2.8,1.3-4.3,1.5l0,0
			c-0.2,0.2-0.9,0.3-0.2,0.6s1.4,0.3,2,1.1c-1.7-0.3-3.3-0.6-4.8,0l0,0c0.1,0.9,0.9,1.7,0,2.6c-0.2,0.2,0,0.8,0.7,0.5
			c0.4-0.2,0.8-0.1,1.2,0.1c1.7,0.9,3.6,0.8,5.6,1.2c-0.9,0.8-2.1,1.2-3.3,1.1c-1.2,0-2.3,0.3-3.4,0.7l0.4,0.7l0,0
			c4,1.1,8.2,1.7,11.9,3.8c-1.3,0.3-2.3-0.7-3.4-0.4c0.2,0.5,1,0.5,1,1.1l-2.8-0.9l0,0c-0.9,0.1-1.2-0.7-1.9-1l0,0l-1.8-0.7l0,0
			c-0.1,0.8,0.6,1,1.1,1.4c1.1,0.8,2.2,1.7,3.3,2.6c-1.4,0.4-2.8-2.3-3.8,0.2c-0.6-0.5,0.2-1.4-1-1.6c-1.5-0.3-3-0.8-4.2,0.5
			l-0.1,0.6l0,0l-0.5,1.2c1.3-0.4,2.7-0.5,4.1-0.1c-1.5,1.2-3.4,0.6-5,1.3c0.4,1.1-1.3,0.4-1.3,1.2l1,0.4l0,0c0.7,0.2,1.5-0.5,2.2,0
			l0,0c0.7,0.4,1.5,0.5,2.2,0.4c1.4-0.2,2.9,0.1,4.1,0.9c-1.7,0.2-3-0.7-4.4,0l0,0c1.6,0.6,3.4,1,5,2.4c-1.3-0.1-2.3-0.6-3.2,0l0,0
			c0,0.1,0,0.2,0,0.2c0.2,0.2,0.5,0.4,0.4,0.7l0,0c0.5,0.1,0.4,1.1,1.4,0.5c0.6-0.4,1.3-0.2,1.7,0.3c0.1,0.2,0.2,0.4,0.2,0.6
			l0.2,0.6l0,0c-0.2,1.7,0.6,2.8,1.9,2.3s2.4-0.4,3.6-0.9l0,0c0.3-0.1,0.7-0.4,0.8-0.3c1.2,0.6,2.5,0.3,3.8,0.3
			c1.1,0,2.4-0.4,3.7,0.5c-1.6,0.3-3.2,0-4.4,0.7c0.4,0.2,1,0.2,0.9,1l-2.9-0.5l0,0c-0.6,0.5-1.4,0.3-2.1,0.4
			c-0.5,0.5-0.4,1.5-1.6,1.2l0,0l-1,0.1c0.2,1.4,2,0.8,2.6,1.6c1.3,0.8,3.4,0.3,4.1,2.1l0,0c1.2,0.4,1.3,1.8,2.5,2
			c-0.1,0.1-0.1,0.2-0.2,0.2c-0.5,0.1-0.7,0.4-0.1,0.5c3.1,0.6,4.5,3.4,7.3,4.4c-1.4,0-2.4-0.7-3.6-1.2c-0.9-0.5-2-0.5-2.9,0l0,0
			c0.5,0.8,0.8,1.6,0.9,2.5l-1.3-2.1l0,0c-0.1,0-0.2,0-0.3,0l0,0c-1.6,1.2-3.8,1.1-5.4,2.5c0.7,0.2,1.6-0.5,2,0.5h0.3
			c1.4-0.7,2.6-0.2,3.9,0.4c-1.3,0.1-2.1,1.2-3.5,1l0.2-0.1c-0.1,0-0.1,0.1-0.2,0.1c-0.4,1.3-2.2,0.9-2.9,2c0.4,0.9,1.5,1.2,2.4,0.8
			c0,0,0.1,0,0.1-0.1c2.1-1,4.6-1,6.7-0.1c-0.3,0.7-1.1,0.2-1.3,0.9c1.8,1.1,4.1,1.4,6,2.5c-3,0.4-3,0.4-2.8,1.1
			c-2.1-0.7-3.7-2.3-6.1-2.4l0,0c0.2,0.4,0.6,0.9,0.3,1.4l0,0c0.1,0.1,0.1,0.2,0,0.3l0,0l0,0l-0.1,0.1c-0.6,0.5-1,0.9,0,1.5
			c0.3,0.2,0.5,0.4,0.7,0.7l0,0c1.8,0.4,2.7,2,4.3,2.5l0,0c0.7,0.4,1.4,0.9,2.1,1.3c0.5,0.2,0.7,0.5,0.5,0.9s-0.7,0.4-1.1,0.3
			c-1-0.4-2-0.6-3-0.5c-0.5,0.1-1.4,0-1,1c2.6,0.7,4.4,2.4,6.7,4c-1.9-0.1-3.6,0-4.8-1.1c-0.1-0.1-0.4,0.1-0.7,0.2l0,0
			c-0.2,0.5-1,0.2-1.2,0.6l0,0c0,0.6,0.6,0.6,0.9,0.5c1.5-0.3,2.4,0.4,3.5,1.1c1.4,1,0.5,1.3-0.4,1.7c-0.3,0.2-0.7-0.3-1,0.2
			c2,0.4,3.8,1.5,5.2,3c-1.6-0.7-3.3-1.1-5.1-1.3c-0.5-0.1-0.7,0.1-0.7,0.5l0,0c0.1,0,0.2,0,0.3,0.1c2.7,1.2,5.2,3,7.3,5.2
			c-2.4-0.4-4-2-6-2.9l0,0c-0.2-0.3-0.6-0.5-1-0.6l0,0c-0.8,0.2-1,0.6-0.8,1.3c0.4,0.7,0.4,1.6,0.2,2.4c-0.3,1-0.9,0.2-1.2,0.1
			c-1.2-0.6-2.5-1.1-3.9-1.4c-0.1,0.7,0.4,1.2,0.6,1.7s0.6,0.9,0.3,1.6c-1.7-1.8-2.7-4.1-5.6-4.4l0,0l-0.3,0.3l0,0
			c0.2,0.2,0.8,0.3,0.3,0.8l0,0c-0.2,0.1-0.4,0.2-0.7,0.3c-0.7,0.2-2-0.4-2.1,0.4s0.7,1.5,1.1,2.2c0.3,0.3,0.6,0.6,0.9,0.8
			c0.5,0.4,1,0.8,1.5,1.2s1.2,0.7,1,1.3s-1-0.3-1.6,0.1l2.8,3.1l-0.4,0.3c-1.7-1.1-3.3-2.3-4.8-3.7l0,0l-0.4-0.3l0,0
			c-1,0.1-1.4,0.5-1.1,1.5c0.2,0.4,0,0.8-0.3,0.9c0,0-0.1,0-0.1,0.1c-0.4,0.1-0.5-0.2-0.6-0.5c-0.2-1.7-1.5-2.8-2.6-4
			c-2-2.3-2.4-2.2-3.5,0.4l0,0c-0.1,2.8-0.6,3.2-3.7,2.9c-1.1-0.1-1.3,0.5-1.6,1.2l0,0c3,1,4.7,3.1,6.6,5.2c0.1,0.1,0.3,0.1,0.5,0.2
			l0,0c1.6,0.9,2.9,2.3,3.6,4c-1.4-0.5-2.6-1.3-3.6-2.3l0,0l-3.8-2l0.5,1c0.6,1.1,0.7,2.4,0.5,3.7c-0.6-0.5-0.9-0.9-0.8-1.4l0,0
			c-0.4-2.2-2.8-3.2-3.8-5l0,0l0,0c-0.5-0.3-1.3-1.1-1.1,0.4c0,0.1,0.1,0.2,0.1,0.3c0,0.1,0.1,0.2,0.1,0.3l1,3.1
			c0.5,0.6,0.5,1.2-0.4,1.1s-2,0.2-2.7-0.7l0,0c-0.5-0.1-1,0-1.4,0.3c1.4,1.7,3.3,3.3,3.3,5.6l-3.4-2.6l0,0l-1.8-1.1
			c0.9,2.6,2.3,4.8,2.3,7.3c-1.4-1.3-2.7-2.6-3.9-4.1c-0.7-0.9-0.4-2.2-1.1-3.1c-1.8-0.6-1.5,1.1-2.2,1.7c-0.2,0.9-0.3,1.8-0.5,2.8
			c-0.1,0.5-0.3,0.7-1,0.7s-0.8-0.3-0.8-0.7c0-0.9-0.4-1.7-0.1-2.5l0,0c-0.2-1.4,0.2-2.8,1.1-3.9c0.3-0.5,0.4-1.1,0.3-1.7l0,0
			c-1.5,0.1-1.2,1.3-1.7,2c-0.1,0.4-0.3,0.8-0.5,1.2c-0.2,0.3-0.4,0.8-0.9,0.6c-0.4-0.1-0.9-0.5-0.8-0.8c0.3-1-0.2-2.1,0.6-3l0,0
			v-1.6c-0.5,0.5-0.8,1-1.4,1l0,0c-0.8,0.8-2.1,0.7-3,1.2l0,0l0.3,0.3c2.5,2.2,4.7,4.6,4.5,8c0,0.5,0.2,1.1-0.6,1.1
			c-0.7,0-0.9-0.5-1-1s0.2-1.2-0.5-1.7l-9.2-4.7l-0.4,0.3l0,0c0,0.8-0.8,1.2-1,1.9c-0.4,1.8-1.7-0.3-2.4,0.5
			c-0.4-0.3-0.5-0.7-0.4-1.1c0.3-1-0.3-0.4-0.7-0.2l0,0c-0.6,0.7-1.1,1.4-1.5,2.2c-0.2,0.4-0.5,1.3-1.4,1c-0.8-0.3-0.4-1-0.3-1.5
			c0.1-1.1,0.4-2.3,0.6-3.4c-0.7-0.4-1.4-0.6-2.2-0.7l0,0c-0.3-0.1-0.7-0.2-0.8-0.1c-1.9,1.4-2.2,0.1-2.5-1.2l0,0
			c-1.6-1.1-3.1-2.4-5.3-2.3l-0.6,0.4l0,0c-0.3,1.7,0.8,2.9,2.1,4c0.7,0.7,1.1,1.5,1.4,2.4c0.2,0.3,0.2,0.8-0.2,1.1
			c-0.4,0.2-0.8-0.1-1.1-0.3c-0.6-0.5-1.1-1-1.6-1.5l0,0l-1.1-0.9l0,0l-0.1,0.6l0,0c-0.3,1.9-0.6,2-2.2,1l0,0
			c-0.7,0.5-1.2,1.2-1.5,2c0,0.8-0.7,1.3-1.1,1.9s-1.1,0.7-1.5-0.2l0,0c0.5-1.3,0-2.5,0.2-3.9c-1,0.5-1.3,1.2-1.8,1.8
			c-0.2,0.2-0.4,0.4-0.8,0.3s-0.6-0.4-0.5-0.6c0.9-1.5-0.4-2.3-1.2-3.3c-0.2-0.4-0.7-0.7-1.2-0.6l-1.2,0.3c-0.3,0.4-0.6,0.7-0.8,1.1
			c-0.5,0.8-1.1,0.7-1.7,0l-2.3,0.7l0,0c-0.8,0.7,0.1,2.1-1.2,2.6l-0.6,1c-0.3,0.6-0.3,1.6-1.5,1.3s-0.5-1.2-0.3-1.9
			c0.1-0.2,0.1-0.3,0.1-0.5l0,0c0.3-0.7,0.6-1.4,0-2l0,0c-1.4,1.1-2.5,2.6-4.2,3.6c-0.4,0.2-0.8,0.7-1.3,0.2c-0.3-0.4-0.3-0.9,0-1.2
			c0.7-1,1.5-1.9,2.2-2.9c0.4-0.6,1.5-1,1-2l0,0l-1.5,0.3c-0.9,0.3-1.7,0.5-2.6,0.8c-0.5,0.2-0.8,0.3-1.1-0.4s-0.4-0.9,0.3-1.1
			c0.3-0.1,0.7-0.2,1-0.3l0,0c0.8-0.8,1.8-1.4,2.8-1.7c0.7-0.3,1.2-0.8,0.7-1.4s-0.7-1.6-1.7-2c-1,0.3-1.2,1.5-2.5,1.6l0.3-1.8l0,0
			c-0.1-0.5,0-1-0.7-1l-0.5,0.6c-1,1.4-2.6,2.2-3.4,3.7c-0.2,0.3-0.4,1-1,0.8s-0.3-0.9-0.1-1.3c0.1-0.2,0.1-0.4,0.1-0.6
			c0-0.5,0.7-1,0.1-1.4c-0.7-0.4-1.4,0.1-1.9,0.5c-1.6,1.2-3.7,0.8-5.5,1.5c1-1.4,2-2.6,4-2.8l0,0c2-0.3,2.7-2.2,4.5-2.8
			c1.2-0.4,0.6-1,0.3-1.6l0,0c-0.5,0.2-0.6,1.1-1.5,0.9l0,0h-0.7c-0.5,0.3-1,0-1.5,0.1c-0.9,0.7-1,2-2.5,2.6c0-1.2,0.4-2.4,1.2-3.4
			l0,0c0-0.1,0-0.1,0-0.2c0-0.1,0-0.1-0.1-0.1c-1.2,0.7-2.6,1.1-3.8,2c-1.2,0.8-2.7,1.4-4.1,1.5c1.4-1.8,3-3.4,4.8-4.8
			c-0.1-0.8,0.5-1.7-0.8-2c-1,2-3,2.9-5.1,3.6c-0.4,0.1-0.4-0.3-0.4-0.5l0,0c-0.2-1.1,1.3-2.2,0-3.4l0,0c-0.9,1-2.4,1.7-2.4,3.3
			c0,0.4,0.2,1-0.4,1.1s-0.6-0.6-0.7-1c0-0.7,0-1.3,0-2c-1.3,0-2.3,1.2-3.7,0.9c-1.2,0.3-2.2,1.3-3.9,1.3l4-2.5l0,0
			c0.2-0.5,0.1-1.1,0.7-1.4l0,0c0.3-0.4,0.9-0.8,0.9-1.2s0.7-0.9,0-1.3c-0.5-0.3-1.1-0.2-1.5,0.3c-0.6,0.5-1.3,0.8-2.1,1
			c-1.8,0.7-3.4,1.9-5.7,2.2c0.6-0.9,1.4-0.9,1.9-1.4c0.8-1.6,1.7-3.1,3.8-3.7l0,0c2.5-0.6,4.6-2.2,7.1-2.7l0,0
			c-0.4-0.7-1.1-0.6-1.8-0.7c-0.9,0.1-1.7-0.2-2.4-0.7l0,0c-1.2,0.2-2.2-0.8-3.5-0.5c-0.4,0.1-0.6-0.5-0.5-0.9l0,0
			c-0.2-0.7-0.6-0.8-1.2-0.5s-0.7,0-0.6-0.4l0,0l-1.2-0.8l0,0C511.9,254.9,511.8,254.8,511.6,254.8z M533.2,275.9l-0.1-0.1l-0.1,0.1
			L533.2,275.9z M634.5,257.7L634.5,257.7z M549.2,191.1L549.2,191.1L549.2,191.1L549.2,191.1z M535.6,219.8L535.6,219.8l0.2,0
			L535.6,219.8z M603.9,171.9c0-0.1,0-0.1,0-0.2C603.9,171.8,603.9,171.9,603.9,171.9L603.9,171.9z M526.9,258.2l-0.2-0.1
			c0,0.1,0,0.2,0,0.3C526.7,258.3,526.8,258.3,526.9,258.2L526.9,258.2z M526.9,251.1L526.9,251.1L526.9,251.1z M547.9,259.6
			L547.9,259.6L547.9,259.6L547.9,259.6z M558,189.7L558,189.7c0.1-0.2,0-0.4-0.1-0.6C557.9,189.3,557.9,189.5,558,189.7L558,189.7z
			 M535.4,255.6L535.4,255.6L535.4,255.6L535.4,255.6z M619.9,256.6c0,0.1,0.1,0.2,0.1,0.3c0.1-0.1,0.1-0.2,0.1-0.3
			C620,256.5,620,256.5,619.9,256.6L619.9,256.6z M602.2,262.9L602.2,262.9c0.1,0,0.2-0.1,0.3-0.1L602.2,262.9L602.2,262.9z
			 M563.4,259.9l0.3,0C563.6,259.8,563.5,259.8,563.4,259.9C563.4,259.9,563.4,259.9,563.4,259.9L563.4,259.9z M598.5,189.8
			L598.5,189.8C598.5,189.9,598.5,189.9,598.5,189.8L598.5,189.8z M570.1,169.4h0.3l-0.1-0.1L570.1,169.4z M614.3,231.6L614.3,231.6
			z M576.8,245.6c-0.1-0.1-0.3-0.1-0.6,0l0,0C576.4,245.6,576.6,245.6,576.8,245.6z M553.5,249.3L553.5,249.3z M594.4,241.7
			L594.4,241.7v-0.1h-0.1L594.4,241.7z M592.1,208.3L592.1,208.3z M588.4,180L588.4,180z M585.4,190.8L585.4,190.8L585.4,190.8z
			 M581.9,204.5L581.9,204.5c-0.1,0-0.1,0.1-0.1,0.1L581.9,204.5z M576.2,218.4c0.1,0,0.1,0.1,0.2,0.1l0,0L576.2,218.4z
			 M587.3,198.4L587.3,198.4z M585.5,195.7L585.5,195.7L585.5,195.7z M580.5,227.1L580.5,227.1L580.5,227.1L580.5,227.1z
			 M588.2,220.5h-0.1c0,0.1,0.1,0.1,0.2,0.2C588.3,220.7,588.2,220.6,588.2,220.5L588.2,220.5z M570.6,227.2L570.6,227.2z
			 M563.8,233.6L563.8,233.6v-0.1V233.6L563.8,233.6z M566.7,222.8c0-0.1,0-0.2,0-0.2l-0.2,0.1L566.7,222.8z M576.8,201.4
			c0.1-0.1,0.2-0.2,0.3-0.3C576.8,201.1,576.7,201.2,576.8,201.4L576.8,201.4z M579.3,186.9c0,0,0.2,0.1,0.4,0.2l-0.3-0.3h-0.2
			C579.2,186.8,579.2,186.8,579.3,186.9L579.3,186.9z M562.4,228.9c0-0.1,0-0.1,0-0.2h-0.2C562.3,228.7,562.3,228.8,562.4,228.9
			L562.4,228.9z M565.1,223.7L565.1,223.7L565.1,223.7L565.1,223.7z M584.1,228.3L584.1,228.3z M584.1,186.4L584.1,186.4
			L584.1,186.4h0.2l-0.2-0.1L584.1,186.4z M594.4,204.1L594.4,204.1h0.2H594.4L594.4,204.1z M580.9,157.1L580.9,157.1z M560.4,208.8
			L560.4,208.8z M577.9,172.8L577.9,172.8L577.9,172.8z M582.4,165v0.1h0.1L582.4,165z M562.6,243.6L562.6,243.6z M573.2,190.7
			L573.2,190.7z M594.5,193.9c0.2,0.1,0.4,0,0.6-0.1C594.9,193.8,594.7,193.8,594.5,193.9L594.5,193.9z M600.4,224.7L600.4,224.7
			L600.4,224.7L600.4,224.7z M573.2,190.7L573.2,190.7c-0.1,0-0.1,0.1-0.1,0.1L573.2,190.7z M577.6,170.8L577.6,170.8l-0.1-0.1v0.1
			H577.6z M563.6,243.9l0.3,0.8l0,0C563.9,244.4,563.8,244.2,563.6,243.9L563.6,243.9z M569.3,201.1L569.3,201.1z M572.6,179
			c-0.1-0.2-0.3-0.2-0.5-0.3C572.2,178.9,572.4,178.9,572.6,179L572.6,179z M576,167.6c0.2,0,0.3-0.1,0.4-0.2
			c-0.2,0-0.3,0.1-0.5,0.1L576,167.6z M585.6,158.8L585.6,158.8L585.6,158.8z M605.2,235.9L605.2,235.9L605.2,235.9L605.2,235.9z
			 M554.8,243.1L554.8,243.1z M550.3,240.1L550.3,240.1c0.1,0.1,0.2,0.2,0.3,0.2C550.5,240.2,550.4,240.2,550.3,240.1z M597.3,188.3
			c0.1,0,0.2-0.1,0.2-0.2V188C597.4,188.1,597.3,188.2,597.3,188.3L597.3,188.3z M603.9,255.1L603.9,255.1L603.9,255.1z
			 M601.5,253.1L601.5,253.1L601.5,253.1L601.5,253.1z M596.7,250.6c0,0,0,0.1,0,0.1l0,0l0.1-0.1L596.7,250.6z M576.8,148.4
			L576.8,148.4z M585,142.1L585,142.1L585,142.1z M607.1,223L607.1,223z M613.5,239.7L613.5,239.7c0.1,0.2,0.2,0.3,0.3,0.4
			C613.8,240,613.7,239.8,613.5,239.7L613.5,239.7z M606.4,237.4L606.4,237.4L606.4,237.4L606.4,237.4L606.4,237.4z M591.1,258.7
			l-0.1,0L591.1,258.7L591.1,258.7z M587.5,259.6c-0.2,0.1-0.2,0.1-0.2,0.1C587.4,259.6,587.4,259.6,587.5,259.6L587.5,259.6z
			 M599.3,183.7L599.3,183.7L599.3,183.7z M600.7,195.2L600.7,195.2L600.7,195.2L600.7,195.2z M538.5,232L538.5,232z M562.5,195
			c0-0.1-0.1-0.1-0.2-0.2v0.1L562.5,195z M594.8,169.6L594.8,169.6z M599.3,174.5L599.3,174.5h-0.2H599.3z M606,217.5L606,217.5z
			 M620.6,240.7L620.6,240.7L620.6,240.7L620.6,240.7L620.6,240.7z M575,256.3L575,256.3l0-0.1L575,256.3z M541.6,237.7L541.6,237.7
			z M569.2,172.6l0.1-0.1L569.2,172.6L569.2,172.6z M624.7,243.7c-0.1,0.1-0.3,0.2-0.3,0.4C624.5,244,624.6,243.9,624.7,243.7
			L624.7,243.7z M591,262.8L591,262.8L591,262.8L591,262.8L591,262.8L591,262.8z M542.3,257.6L542.3,257.6L542.3,257.6z
			 M532.9,249.3L532.9,249.3l-0.2-0.1L532.9,249.3z M540.5,238.7c0,0,0-0.1,0-0.1l0,0h-0.1L540.5,238.7z M543.1,224.3L543.1,224.3
			L543.1,224.3z M560.3,181.5L560.3,181.5z M605.6,191.9L605.6,191.9h0.2H605.6z M627.8,246.1L627.8,246.1z M602.3,262.9
			L602.3,262.9z M598.9,265.5L598.9,265.5L598.9,265.5L598.9,265.5z M540.3,258.8c-0.4-0.1-0.8-0.4-1.2-0.3s-0.3,0.5-0.3,0.9
			L540.3,258.8z M547.6,217.4v-0.1h-0.1L547.6,217.4z M598.2,162.2L598.2,162.2z M609.4,213.2L609.4,213.2L609.4,213.2z
			 M630.3,248.9L630.3,248.9L630.3,248.9L630.3,248.9z M587.7,263.4c0,0.1,0.1,0.2,0.2,0.3h0.1C587.9,263.6,587.8,263.5,587.7,263.4
			L587.7,263.4z M578.4,265.8L578.4,265.8L578.4,265.8C578.5,265.8,578.4,265.8,578.4,265.8L578.4,265.8z M559,267.3L559,267.3
			c-0.1,0-0.1,0-0.1,0.1L559,267.3z M565.3,179.6C565.3,179.6,565.3,179.6,565.3,179.6L565.3,179.6L565.3,179.6z M566.8,152
			c0.1-0.1,0.1-0.2,0-0.3l0,0h-0.1C566.7,151.8,566.7,151.9,566.8,152L566.8,152z M590,137.4L590,137.4z M600.8,159.7L600.8,159.7
			L600.8,159.7z M605.4,188.3L605.4,188.3l0.1,0.1L605.4,188.3z M619.2,224.9c0.1,0,0.2,0,0.3,0H619.2z M585.5,271.5L585.5,271.5
			L585.5,271.5z M553.2,270.5L553.2,270.5L553.2,270.5L553.2,270.5z M555.2,192.9c0-0.2-0.1-0.3-0.2-0.4L555.2,192.9z M582.2,129.9
			L582.2,129.9L582.2,129.9L582.2,129.9z M578.1,269.6L578.1,269.6L578.1,269.6c0.1-0.2-0.3,0-0.4-0.1L578.1,269.6z M572,267.5
			L572,267.5l0,0.1L572,267.5z M543.8,263.6L543.8,263.6L543.8,263.6L543.8,263.6L543.8,263.6z M528.9,255.8L528.9,255.8z
			 M526.2,251L526.2,251z M546.3,214C546.3,214,546.4,214,546.3,214L546.3,214z M554.9,190.2l-0.1,0.1l0,0h0.1L554.9,190.2z
			 M556.7,187.5c0-0.1,0-0.2,0-0.3c-0.1,0.1-0.1,0.2-0.1,0.3L556.7,187.5z M637,248.1c0,0,0,0.1,0,0.1V248.1z M637.3,253.8
			L637.3,253.8l0-0.1C637.3,253.7,637.3,253.8,637.3,253.8L637.3,253.8z M581.2,269.2l0.1-0.1l0,0h-0.1L581.2,269.2z M566.9,271.9
			c0,0,0,0.1,0,0.1V271.9z M542.2,264.3L542.2,264.3L542.2,264.3L542.2,264.3z M535.6,231.6L535.6,231.6c0,0,0-0.1,0-0.1
			c-0.1,0-0.1,0-0.2,0L535.6,231.6z M538.6,217.9L538.6,217.9L538.6,217.9z M545.4,202.8h-0.1C545.4,202.8,545.4,202.9,545.4,202.8
			L545.4,202.8z M612,192.1L612,192.1z M631.5,233.1l0.1-0.1h-0.1C631.5,233,631.5,233,631.5,233.1L631.5,233.1z M609.6,273.9
			l-0.2,0.1l0,0L609.6,273.9z M527.4,262.3C527.4,262.3,527.4,262.3,527.4,262.3l0.2,0L527.4,262.3z M561.9,152.5
			C561.9,152.5,561.9,152.4,561.9,152.5l-0.1-0.1C561.8,152.4,561.9,152.4,561.9,152.5L561.9,152.5z M578,111.9L578,111.9
			c-0.1,0-0.1,0.1-0.2,0.1L578,111.9z M629.6,234.4L629.6,234.4L629.6,234.4z M630.4,237.7L630.4,237.7L630.4,237.7L630.4,237.7
			c0.1,0,0.1,0,0.1,0.1l0.1-0.2L630.4,237.7z M635.6,244.7L635.6,244.7z M598.6,275.2l-0.1,0.1h0.2L598.6,275.2z M552.8,276.6
			c0-0.1-0.2-0.3-0.3-0.3c-0.2-0.1-0.5-0.1-0.8,0C552.1,276.3,552.5,276.4,552.8,276.6L552.8,276.6z M545,269.6L545,269.6z
			 M528.1,261.6L528.1,261.6L528.1,261.6L528.1,261.6z M524.1,259.1l-0.3,0.1l0,0C523.9,259.2,524,259.1,524.1,259.1L524.1,259.1z
			 M522.6,253.6L522.6,253.6z M524.1,248.1c0-0.1,0-0.2-0.1-0.2l-0.5,0.5L524.1,248.1z M518.9,246.1
			C518.9,246.1,518.9,246,518.9,246.1L518.9,246.1L518.9,246.1l-0.2-0.1L518.9,246.1z M534.1,234.2L534.1,234.2L534.1,234.2
			L534.1,234.2z M540.1,215.1L540.1,215.1z M541.3,215.2L541.3,215.2z M542,203.1L542,203.1z M545.8,187.6L545.8,187.6
			c0,0,0,0,0.1,0H545.8z M573.1,116.8L573.1,116.8z M605.4,146L605.4,146L605.4,146z M605.3,151.1L605.3,151.1z M605.7,153.5
			L605.7,153.5L605.7,153.5L605.7,153.5L605.7,153.5z M634.5,257.8c0,0.1,0.1,0.1,0.1,0.2S634.6,257.9,634.5,257.8L634.5,257.8z
			 M600.9,274.9L600.9,274.9L600.9,274.9L600.9,274.9z M583.9,276.7L583.9,276.7L583.9,276.7L583.9,276.7z M554,279.9L554,279.9
			L554,279.9z M535.7,213.4L535.7,213.4L535.7,213.4L535.7,213.4z M533.7,205c-0.1,0-0.3,0-0.4-0.1C533.4,204.9,533.5,205,533.7,205
			L533.7,205z M569.1,123.7L569.1,123.7L569.1,123.7L569.1,123.7z M582.9,101.8L582.9,101.8z M638.9,244.5c0.1,0,0.2,0.1,0.2,0.1
			L638.9,244.5z M611.4,279.1c0,0.1-0.1,0.1-0.1,0.1h0.3L611.4,279.1z M601.7,280.7L601.7,280.7z"/>
		<path class="st1" d="M529.7,219.6c-1.4-0.4-2.8-0.5-4.3-0.3C526.8,218.9,528.1,218,529.7,219.6z"/>
		<path class="st1" d="M627.9,136.4l0.2,0.1L627.9,136.4z"/>
		<path class="st1" d="M656.1,14.3c0.4-3.1,3.3-1.4,3.3-4.3c0-0.1,0-0.2,0-0.3c0.1-0.5,0.2-1.2,0.8-1.3s0.8,0.6,1.1,1
			c2,2.9,1.6,1.2,0.1,4.1c0,0.4,0,0.9,0,1.3c0.2,1.4-0.9,3.5,0.7,4.1c1.2,0.5,1.7-1.7,2.5-2.6c0.4-0.5,0.9-1.2,1.6-0.7
			c0.7,0.5,0.2,1.1-0.1,1.7c-0.7,1.4-1.7,2.6-2,4.3c1.9,0.3,3.4-1.3,5.1-0.6l0,0c1.9-2.2,3.9-8.6,7.2-8.7c-1.2,3-2.8,9.8-5.8,11.1
			c-0.9,0.4-1.7,1.1-1.3,2.3c0.2,0.3,0.4,0.6,0.6,1c0.4,0.9-1.8,1.3-0.5,2.3c1.1,0.8,2.2,0.1,3.2-0.5l0,0l0.7-0.7c0-0.1,0-0.2,0-0.3
			c1-1.7,2-3.5,4.7-2.1c0.7,0.4,2-1.8,2.8-0.7c0.9,1.4-1.8,1.4-1.9,2.4c-0.2,1.9-2,3.4-1.3,5.5c1.8-0.2,2.2-2.4,4.8-2.2
			c-3,1.9,1.1,5.4-3.2,6.6c2.2,1.3,4-0.2,5.7,0.1c0.8,1.3-1.6,1.4-0.6,3.1c1.5-3,2.9-1,3.8,0.1c1,1.3-0.2,2-1.5,2.3l0,0
			c-0.7,0.6-1.6,0.9-2.5,0.8l0,0c0.5,2.6-1,3.7-3.2,4.4c-0.6,0.2-2.2,0.6-1.6,1c3.1,1.8-1.2,1.9-0.7,2.9c1.8,0.9,2.9-0.7,3.9-0.9
			c1.7,0.7-2.2,4.2,2.2,3c1.4-2.7,3.9-4.4,6.3-7c-0.6,3.6-2.6,6.9-5.6,9.1l0,0c0.1,1,0.4,1.5,1.4,0.6c1.5-1.2,3.3-2.2,5.2-2.7
			c1.8-1.6,14.8-5.8,16.9-6.8c0.8-0.4-11.4,6.5-10.5,6.6c11.7,1.2-1.9,0.8-1.2,1.9c1.6,2.4,9.9,1.5-1.7,2.4l0,0
			c-1.6,1.7-4.2,0.9-5.9,2.3c0.2,1.1,1.9,0.8,1.8,2c1.5,2.6,1.5,2.6,3.3,2.7c3.2-0.1,6.5-1.9,9.7,0.4c-1,1-2.1,0.7-3,0.9
			c-1.6,1.5-4.4-0.4-5.8,1.9l0,0c0.2,2.2-1.8,1.9-3,2.5c-2.1,1.1-4.9,7.1-4.1,9.2c0.1,0.2,0.6,0.2,0.9,0.2l0,0l1.5-0.7l0,0
			c1.5-1.1,3.5-1.6,4.6-3.3c-0.1-0.2-0.1-0.5,0.1-0.6c0.2-0.1,0.3-0.2,0.5-0.2c2.6-0.9,4.9-2.5,6.7-4.6c0.8,1.7-0.8,2.4-0.3,3.6
			c1.1-0.5,2.2-1,3.2-1.5c0.9-0.5,2-1.3,2.6-0.3c0.8,1.2-0.8,1.4-1.5,2c-0.2,0.2-0.5,0.4-0.8,0.6c-0.5,0.4-1.3,0.6-1.1,1.4
			c0.2,1.1,1.3,0.6,1.9,0.9l0,0c0.5-0.1,1.5-0.1,1.5,0.3c-0.2,3.4,2.2,2.1,3.8,2c0.8,0,1.7-0.6,2.3,0.5c-1.3,1.4-2.9,1.7-4.7,2
			c-1.7,0.2-3.4,0.7-5,1.5c-2.6,1.5-3.6,4.5-6.5,5.4l-3.3,2c-1.2,1.7-2.3,3.5-4.6,4c-0.4,0.7-1.6,0.6-1.8,1.9h3.7
			c1.7-1,3.8,1.2,5.4-0.6c1.1-1.1,2.1-2.1,3.2-3.2c0.5-0.5,1.2-1.7,1.6-1c0.6,1.1,2.6,1.2,2.4,1.9c-1.1,3.6,1.8,2.4,3.4,2.9
			c2.1,0.8,11.6-2.6,14.6-4.5c0.7-0.4-0.9,4.6-1.4,5.1c-0.7,0.9-1.7,1.3-2.8,1.4l-0.6,0.7l0.7,0.6l0,0c2.2-0.9,10.7-3.5,12.8-3
			c0.2,1.3-8.4,4.4-7.6,5.7c0.5,1.1,1.7,1.8,2.9,1.6c0.6-0.1,1.5-0.1,1.5,0.8s1.3,9.3-3.3,4.5c-4.3,1.9-13.4,1.6-18,1.6l0,0
			c-0.7,0.9-1.8,0.8-2.7,1.1l0,0c0.2,3-2.3,2.2-3.9,2.7l0,0c0.3,0.9,0.2,1.8-0.2,2.7c-0.5,1.5,0.2,2.6,2.1,2.5l0,0l1.3,0.6
			c3.1-1.4,17.2-4.3,21-5.1c-0.2,0.4-0.4,0.8-0.7,1.2c-2,2.4-3.1,4.5,1,5.8l3.2,0.1l0,0c0.5-0.7,1.5-0.9,2.3-0.5
			c0.8,0.6,1,1.7,0.5,2.5c-0.5,0.9-0.6,1.3,0.6,1.3c0.9-0.9,2.3-0.1,3.3-0.7c1.5-1.5,2.8,0.5,4.2,0.4c0,0,0.3,0.6,0.2,0.8
			c-1,1.2-2.3,0.9-3.6,0.9l0,0c-1.8,0.9-3.8,1.4-5.8,1.4l0,0c-2.3,1.1-5.1,1.4-7,4.1c3.3-0.6,6,0.4,8.9,0.1c1.8-0.2,5.1-0.9,5.5,1
			c0.4,2.3-3.1,1.5-4.6,2.6c0,0.7-0.5,1.2-1.2,1.3c-3,0.9-6,0.9-9,1.1l0,0l-0.2,0.2h-0.3c-1.6,0.8-15.1,0.5-16.7,0
			c-1.7-0.5-3.5-0.5-5.2,0c-1.4,0.4-2.5,1.6-1.7,3.2c0.7,1.3,1.8,1.7,3.3,0.6c1-0.8,2.3-1.3,3.6-1.3c0,0.1,0,0.3-0.1,0.4
			c0-0.1,0.1-0.3,0.1-0.4c1.2-0.6,2.3,1.1,3.7-0.1c0.8-0.7,2.3-1.6,3.1-0.4c0.6,0.9-1.1,1.6-1.6,2.4c0.3,3.3-2.8,3.7-4.6,5.2
			c0.5,1.5,1.4,1.9,2.6,0.7s2.1-4.5,2.6,0.3c0.1,0.6,1.4,0.5,2.1,0.4c1.4-0.2,10-3.4,11.3-3.7l3-1.1c2.5-0.6,6.8-1.2,8.8-2.3
			c1.4,4.6-15,9.2-18.3,11.6l0,0c1.5,2,4.2,0.6,5.9,1.9c1.1,0.8,1.7,2.8,3.6,1.8s4-1,6-1.2c0.7-0.1,1.8-1.2,2.1,0.3
			c0.2,0.8-0.2,1.5-1,1.7c-0.3,0.1-0.5,0.1-0.8,0c-0.2,0.1-0.4,0.1-0.6,0.1l0,0c-1.8,1.1-4.3,0.7-5.6,2.7c0.5,0.9,2.2-0.7,2.2,1.1
			c4-1.4,7.8,0.1,11.6,1.2c-1.4,0.6-2.7,1.3-4.3,0.8c-0.9,0.2-2.2-0.3-2.8,0.6c-3,3.8-7.2,2.6-11.1,2.8l-0.3,0.1h-0.3l0,0
			c-4.4,0-6.5,3-8.7,6.1c-0.7,1-0.5,1.6,0,2.2c0.7,0.8,1-0.3,1.5-0.5c1-0.3,1.9-0.9,2.7-1.6c0.9-0.9,1.3,0,1.6,0.8
			c2.4,0.4,18.6,1.2,20.5-1.1c1.1-1.4,2.1-0.4,3.2-0.1l0,0c0.9-0.7,1.7-1.8,3.4-0.9c-1.7,1.2-1.4,3.1-2.1,4.7
			c-0.1,1.9,2-0.1,2.2,1.1c0,1.3-1.9,1.1-1.8,2.4c0.9,0.8,2-0.7,2.8,0.5c-0.4,1.2-2.6,1.4-1.9,3.2c1,2.5,2.7,0.4,4,0.6l0,0
			c2.8-2.4,6.8-1.4,9.7-3.5c-0.1,0.7-0.7,1.4-0.6,1.6c2.7,3.4-1.4,2.5-2.3,3.5c-0.8,0.6-1.7,1-2.7,1.2l0,0c-0.5,0.9-1.3,0.5-2,0.6
			c-0.1,0.5-1.5,0.4-0.7,1.3l0,0l1.3-0.1c0.1,0,0.1-0.1,0.2-0.1c2.2-0.7,4.4-1.3,6.5,0.6c-1.3,1.1-3.2,0-3.4,2
			c3.4-0.3,6.7,0.2,9.8,1.5c-1.5,1.4-3.1,1-4.5,1.1l0,0c-6.3,0.1-12.5,0.2-18.8,0.2c-1.1,0,0.6,5-0.3,4.3c-0.6,0.4-5.6-0.6-6.2,0.2
			c1.3,5.1,2.3-4.3,2.9-4.1l0,0c0.7,2.1-16.4,1.4-16.2,3.4c3.7-0.1,7.4-1.7,10.9,0.5c0.8-0.7,1.8-1,2.4,0.1s-0.8,1.2-1.3,1.7
			s-1.1,0.7-1.6,1l0,0c1,0.9,2.1,1.8-0.1,2.5c-0.2,0.1-0.4,0.2-0.6,0.4c0.2-0.1,0.5-0.2,0.6-0.4c-0.1,0.8,0.2,1.1,1,1.2
			c1,0.1,1.2,0.8,0.4,1.5l0,0l-0.7,1.3c0.3,0.6-0.4,2.6,1.4,1c0.7-0.5,1.6-0.7,2.5-0.5l0,0l1.3-0.6l0,0c2-1.3,4.7-1.4,6.1-3.8
			c0.2-0.4,1.3,0,1,0.6c-0.7,1.5,0.7,3.6-1.6,4.5l0,0c1.2,0.8,2.6,1.5,0,2.5c-0.7,0.2-1.5,0.7-1.1,1.7s4.6,2,5.6,1.3
			c0.6-0.4,1.1-1.1,2-0.9l0,0c0.7,0,1.3,0,2-0.1c1.3-0.1,2.8-2.2,3.6-0.6c0.7,1.3-2,1.6-2.8,2.6c-0.1,0.1-0.1,0.3-0.1,0.4
			c0.8,0.7,2.3,0.2,2.4,1.8l-3.8,1l0,0l-0.6,0.7l0,0c0.6,2.5,2.6,0.6,3.9,1.2l0,0c3.8-2.1,6.5-2.7,10.3-2c-3.9,2.4-7.7,4.4-12.3,4.1
			l0,0c-0.6,1.2-2.2,0.7-3,1.6c0.4,1,2.1,0.5,2,1.9c-0.9,0.5-1.8,0-2.6-0.2c-4.4-1.2-8.7-1.7-13.4-0.4c-2.6,0.7-5.5,1.7-8.3,1
			c-1.3-0.3-2.7-0.3-4,0.1l0,0c-0.2,0.6-1.3,0.7-1,1.5s1.1,0.5,1.7,0.5c1.5,0,3.1-0.1,4.6-0.1l0,0c3,0,5.9,0.7,8.5,2.1
			c-4.2,0.7-8.3,1.9-12.5,0.5c-0.1-0.1-0.2-0.1-0.3-0.2l0.3,0.2c-0.6,0.3-1.6-0.2-1.8,0.7c-0.1,0.6,0.5,1,1.1,1.3l0,0
			c2.8,1.6,0.5,3.7,0.4,5.5c-0.1,1.5-1.7,1.7-3.2,1.2c-0.5-0.1-1.1-0.1-1.6,0.2c-2.8,1.5-5.2,0.5-7.5-1l0,0c-1.3-0.4-2.6-1.3-4-0.4
			c-0.9,0.5-2,0.4-2.7-0.4c-3.9-3.5-8.4-4.3-13.4-2.8c-2.1,0.6-2.7,0-2.6-2.2l0,0c-0.5-1.5-2.3-0.9-3.2-1.9
			c-2.5-0.8-5.1,0.1-7.7-0.4c-1-0.2-2.6-0.4-1.4,1.5c0.6,0,1,0.3,0.9,0.9c-0.1,0.3-0.6,0.4-0.9,0.6l0,0c-0.9,1.4,0.3,0.9,0.9,1
			c2.2,0.6,5,0,6.3,2.7l0,0c3,0.4,6.1,0.7,9.1,1.1c1.3,0.2,3,0.3,2.7,2.1c-0.3,1.6-1.7,1.1-3.1,1.2c-2.6,0.1-5.7-0.8-7.5,2.2l0,0
			l-0.1,0.1c-2.8,1.6-5.3,0.1-7.9-0.7l0,0c-0.5,0.1-1.3,0-1.5,0.2c-0.4,0.5,0.3,0.8,0.7,1.2s0.9,0.9,1.4,1.3
			c0.2,0.6-0.2,0.8-0.7,0.9c-1.7-0.2-2.5-1.7-3.7-2.5c-0.2-0.1-0.3-0.2-0.5-0.4h-1l-0.1,0.4c-1.9,3.2-3.8,1.5-5.6,0.4
			c0.5,0.7,0.5,1.7,0,2.4l-0.9,0.7c-2.7,1.6-3.7-2-5.9-1.8c-0.5-0.2-0.9-0.8-0.8-1.4c-0.5-0.5-0.8-1.3-0.7-2l0,0
			c-1.2,0.5-2.3,1.2-3.1,2.2c-0.3,0.1-0.8,0.4-0.8,0.4c-1.4-2.3-3.1-1.6-4.9-0.8c-0.1,0.2-0.3,0.3-0.5,0.5c-0.6,0.3-1.4,0.2-1.9-0.3
			h-0.6c-0.1,0.1-0.1,0.2-0.2,0.2c-0.4,0.2-0.9,0.1-1.2-0.2l-0.6-0.7c-3,0.2-5.5,1.8-8,3.3l0,0c-0.5,0.6-1.3,0.9-2,0.6
			c-1-0.1-0.5-1.6-1.2-1.7c-3.3-0.5-2.9-2-0.7-3.9l-8.3-1.4c0.9-0.7,1.9-1.3,3-1.8c3.1-0.9,0.8-1.6,0-2.4l0.4,0.1l-0.4-0.1v-1.2l0,0
			c1-1,0.6-1.3-0.7-1.2c-0.9,0-2.7,0.9-2.5,0c0.7-3.2-2.5-2.6-3.6-4c-0.5,0.2-1,0.3-1.6,0.5c-1.7,0.2-4-0.2-2.6,2.9
			c0.5,1-0.7,1.6-1.6,0.7c-0.7-0.7-1.2-0.9-1.8,0c-0.5,0.6-0.4,1.5,0.2,2c0.5,0.4,0.9,0.9,1.3,1.5c0.5,0.7,1.6,1.3,1,2.2
			c-0.7,1.2-1.5,0.2-2.2-0.3c-0.9-0.6-1.2-0.1-1.8,0.6c-2.8,2.9-3.2-3.8-5.9-1.4c-0.3-0.3-0.7-0.6-0.7-0.9c-0.2-0.9,0.6-1.3,1.1-1.9
			l4.2-4.3c-3.1-0.2-5.8-0.6-8.4,0.4c-1.8,1.4-3.9,0.6-5.9,0.7c-0.8,0-1.9,0.4-2.4-0.6s1.5-0.8,1-2c-1.3-0.4-2.9,0.3-4.1-0.7l0,0
			c-0.9-0.3-1.6,0.9-2.6,0.4c-2.7,0.9-4.4,3.2-6.5,4.8c-0.2-0.1-0.5-0.1-0.7-0.2c0.2,0.1,0.4,0.2,0.7,0.2c-0.5,0.7-1.4,1.5-2.1,0.7
			c-1.6-1.8,2-2.3,1.3-4h-7.3c-2.5,0.1-5,0.5-7.4-0.7c-1.1,0-2.2,0.3-3.3-0.6c1.3-1.1,2.6-0.8,3.8-0.8l0,0c1.5-0.7,3-1.5,4.7-0.9
			c2.3,0.9,3.9-0.8,5.9-1.1c1.6-0.3,2-3.7,0.9-5l0,0c-4.7,0.1-4.7,0.1-3.9-3.3l0,0c-3-2.5-3-2.6,0.5-4.4c0.2-0.1,0.3-0.5,0.5-0.7
			c1.4-1.5,4.4-1,4.7-3.9c0.3,0,0.6,0,1,0.1c1.8,0.8,3.9,0.7,5.3,2.3l0,0l0.7,0.5l0,0c1.4-1,3.3-0.9,4.6,0.2l0,0
			c0.6-0.5,2-0.8,0.8-1.8s-0.8-2.4-1.5-3.5c-1.8-0.7-3.4-1.9-4.4-3.6l6.5,1.6c1.3-0.7,2,1.4,3.3,0.6l0,0c0-0.5,0-1-0.5-1.3l0,0
			c-1.3-0.5-0.8-1.2,0-1.5c1.1-0.5,3.1-0.5,2.5-2.2c-0.5-1.6-2.2-0.4-3.4-0.7c-0.2,0-0.4,0-0.7,0c-1.2,0.1-2.4,0.4-3.3-0.7l0,0
			c-1.3-0.4-2.8-0.5-4.1-0.2c-0.5,0.1-1.8,0-1.2-0.8c1.5-2.3-1.3-1.2-1.5-2.1l0,0c-4.5-0.8-9.5-0.4-13.7-4l6.6,0.7l0,0l7.4-2.6l0,0
			l-0.7-0.6c-3.3-0.2-0.8-2.9-1.8-4c1.3-0.9,2.2,0.1,3.1,0.7l0,0c2.6,0.6,4.4-1.9,7.3-1.3c-1.7-2.3-4.5-2.9-5.2-5.5
			c3.2,0.4,6.3,0.4,7.9,3.5c1.8,2.6,1.9,2.7,3.1,1.4l0,0c-1.5-3,2-2.5,2.8-3.9c-3.4-0.8-4.7-3.1-5-6.5c2.7,1.7,4.7,4.3,8.2,3.5
			c0.7-0.1,1.3,0.3,1.5,1l0,0l2.7,0.6c0.8-0.3,1.8,0.1,2.1-1.2c0.3-1.1,1.4-1.8,2.5-1.5c0,0,0,0,0,0l0,0c2.1-0.1,1.8-3.3,4-3.2
			l2.7-0.3c0,0,0-0.1,0-0.1c-2-1.2-3.4-2.4-5.4-2c-1.9,0.3-3.9,0.1-5.7-0.7c0.7-1.1,1.5-0.6,2.2-0.7s1.7,0.3,2.4-0.6
			c-4.4-2.1-5.3-1.9-8.8,1.6l0,0c-0.6,1.1-1.9,0.9-2,0.1c-0.6-2.8-2.3-1.9-4.1-1.6c-1.3,0.2-3.3-0.4-2.8-1.8c1.2-3.2-1.4-3.4-3-4.4
			l0,0l-2.7-0.1c-2.3,1-5,0.8-7.2-0.5c3.3-0.8,6.4-2.4,9.9-1.4l0,0l2.1-1.3c-0.7-0.8-0.7-2,0-2.8c-1.5-1.4,0.3-2,0.8-2.7
			c0.6-0.9,1.7-0.8,2.4,0.2l0,0c0.8,0.4,1.5,1.1,2.3,1.1c2.5,0.1,5-1.2,7.6-0.2c0.5,0.2-0.2-1-0.1-1.6l0,0l-0.5-0.7
			c-0.2-3-3.4-2.2-4.7-3.8c-2.1-0.8-2.2-2.8-3-4.4c2.1-1.1,2.5,1.5,4,1.8c0.2,0,0.3,0.3,0.5,0.4l0,0c2,0.5,3.2,2.1,4.8,3.1
			c1.5-0.5,1.5-2.2,2.4-3.1s2.2-2,3-0.9c1.2,1.7,3.1,1.2,4.5,2.1c0.7,0.3,1.4,1,2.1,0.4s-0.4-1.3-0.7-1.9c-0.4-0.6-0.9-1.2-1.5-1.7
			l0,0c-0.2-0.1-0.4-0.2-0.6-0.3c-2.4-0.8-2.3-0.8-2.5-2.8c0-0.3-0.5-0.6-0.8-0.9c-0.7-0.5-1.7-0.3-2.2-1.2l0,0
			c-0.6-1-1.6-1.7-2.7-1.9l0,0c-1.2,0.2-2.4-0.2-3.6,0.3c-0.7,0.3-1.4,1.5-2.2,0.5c-0.7-0.7,1.1-1.3,0.5-2.1h-6
			c-1.8,0.6-3.4,3.9-5.4,0.1c-0.4-0.7-2.8-0.3-5.2-0.5c4.2-2.3,7.5-4.4,11.4-1.7l0,0c0.2,0,0.3,0,0.5,0l0,0c1-1.1,2.5-0.2,3.7-0.9
			c-0.8-1.4-2.4-1.4-3.5-1.9c-0.5-0.2-1-0.6-0.9-1.2s0.8-0.5,1.4-0.6c0.7-0.1,1.4,0.2,2,0.7l0,0c2.5-1.3,5.2-0.4,7.9-0.5l0,0
			c2-1.1,3-2.5,1.5-4.7l-0.7-0.6c-4.2,0-1.6-4.2-4.4-5.6c1.4-0.1,2.7,0.5,3.4,1.7c1.3,1.5,2.3-1.6,2.8-0.3c1.1,2.8,3.1,1.5,4.8,1.6
			c0.6-0.3,1.1-1.1,2-0.7c0.6-2.1,1.6-3.4,4.2-2.5c1.3,0.4,2.8-0.2,4.2,0.5c0.9,0.4,1.5-0.2,1.5-1.1l-2.6-1.2
			c-2.1,0.2-3.8-0.1-4-2.7c-1.1-0.3-2-1-2.6-2l0,0c-0.7-0.1-1-0.8-1.3-1.3c-0.2-0.2-0.3-0.3-0.6-0.4l0.4,0.3c-1.6-0.9-4.4,3.5-5.3-1
			c-0.3,0.1-0.6,0.1-0.9,0.1c-1.2-0.1-2.4-0.2-3.6-0.3c-1.8,0.5-8.9,1.6-10.9,0.7l0,0c-1.8-0.5-3.8,0.2-5.7-1.3
			c2.3-1.4,4.8-0.1,6.8-1.2c-0.5-1.2-2.3-0.8-2.2-2.6c2.8,0.1,10.4,2.6,13.6,2.2c-1.2-0.9-1.6-2-2.7-2.4c-0.7-0.2-1.7-0.5-1.4-1.5
			s1.3-0.5,2-0.4c1.6,0.2,3.2,0.6,4.8,0.9c1,0.2,2.1,0.9,2.9-0.4c-1.4-0.5-3-0.5-4.6-1.8c1.9-0.4,3.4,0.4,4.5-1.1
			c0.9-1.1,2.4-0.7,3.5,0.1l0,0l2.5,1.5l0,0c2.1-0.4,2.2-1.3,0.7-2.6l0,0l-4.6-4l0,0c-1.5,0.1-1.7-1.4-2.5-2.2c-0.5-0.5-1.7-1-0.9-2
			c0.6-0.8,1-1.9,2.4-1.6c0.7,0.1,1.5,0.1,2.2,0c0.1-1.6,3.2-2.4,1-4.6c-0.3-0.3,0.7-0.7,1.2-0.7c1.2-0.1,2.4,0.4,3.2,1.4l0,0
			c2.5-0.6,5.1,0.5,6.6,2.6c0.2,0.2,0.5,0.4,0.8,0.5l0,0c0.9-0.6,1-1.6,1.2-2.5l0,0l-0.7-0.6c-1.6-1.1-3.7-1.6-4-3.9
			c-2.4-1.9-5.6-0.6-8.3-1.6c0.3-1.4,2.3-0.6,2.2-1.8s-1.7-1.1-2.7-1.4s-6.5-2.5-7.5-2.4c-3.6,0.3-5.8-2.2-8.2-4.3
			c4.2,0.9,13,3.7,17.2,4.5c0.8-0.5,0.1-1.1,0-1.6l0,0c-1-0.3-6.7-2.4-7.6-2.9c-1.2-0.7-2.9-1.9-2.5-3c0.6-1.6,6.7,2.2,7.9,2.2
			c0.5,0.1,1.1,0.2,1.5,0.4c1.6,0.8,3.7,0.7,4.6,2.6c0.8-0.2,1.5-0.5,1-1.5c-0.6-1-0.6-2.2-0.1-3.3c-1.9-0.7-0.7-2.1-0.7-3.2l0,0
			c-2.6,0-5.2,0.5-7.9-0.8c0.6-0.6,1.6-0.9,2.4-0.6l1.3-0.6l0,0c3.2-2.2,6.5-0.7,9.8,0c-0.3-0.4-0.7-0.8-1.2-1.2
			c-0.4-0.4-1.3-0.4-1-1.3c1.2,0,2.4,0,3.6,0c1.6-0.1,1.5-0.9,0.7-1.9c-8.4-5.2-19.4-5.9-22.1-12c1.2,0.1,12.7,6.2,10.7-1.4
			c-1.1-4.1,9.2,9.7,10.3,8c0.2,0,0.4,0,0.5,0.1c0.8-0.1,1.5-0.4,1.4-1.4l0,0c-0.6-0.4-1.7-1-0.5-1.6c1.4-0.8-0.2-1.2,0-1.7l0,0
			c-0.9-1.8-3.1-1.6-4.6-2.9c4.8-0.5,9.6-0.7,14.2-2.1c0.7-0.2,2.9,1.3,2.1-1.4l0,0c-0.8,0.2-1.3-0.3-1.9-0.7
			c-2.8-0.3-5-1.9-7.3-3.2c-1.3,0.2-2.3-0.6-3.3-1.1c-0.8-0.3-0.2-1.4-1.7-1.6c-9.5-1.2,1.6-0.6,2.5-0.3c0.4,0.1,0.8,0.3,1.2,0.4
			l0,0c0.9-0.7,0.4-2.6,0.7-2.5c1.9,0.9,4-0.5,5.8,0.5l0,0h0.1c2.4,0.3,4.3-0.8,6.1-2.1l0,0c-1.9-0.4-1.6-3.6-4.1-3
			c-2.7,0.6-4.5-0.9-6.2-2.3c1.2-1.9,5.1,2.3,5-2.5c3.3,0.8,5.5,1.8,7.9-0.1c1-0.8,3.5,4,4.3,2.9s0.2-2.3-0.5-3.3
			c-4.1-2-7.9-0.5-15.7-7.5c3.4-0.1,8.7,4.1,11.3,4.1l-0.8-3.5l3.2,2.9c2,0.3,1.5-0.5,2.9-2.8l0,0c-0.5-0.5-1-1.1-1.3-1.8
			c-0.2-0.5-0.9-1.1-0.3-1.7s1.3,0.1,2,0.4c1.2,0.7,1.9,3,3.5,2.2c1.3-0.7,0.4-2.8,0.6-4.2c0-0.4,0-0.9,0-1.3l0,0 M614.3,138
			L614.3,138L614.3,138z M702.2,242L702.2,242l0.3-0.1L702.2,242z M762.7,191.8c0,0.1,0,0.2,0,0.4c0-0.2,0-0.3-0.2-0.4L762.7,191.8z
			 M721.4,233.8c-0.3,0.1-0.6,0.2-0.6,0.6c0.5,0.2,1,0.3,1.5,0.1c-0.4-0.2-0.8-0.4-1.1-0.7L721.4,233.8z M718.6,126.8L718.6,126.8
			L718.6,126.8c0,0-0.2,0-0.2,0L718.6,126.8z M637.3,116L637.3,116L637.3,116L637.3,116z M612.9,218.2L612.9,218.2z M715.6,215.5
			L715.6,215.5c-0.4,0.3-0.6,0.7-0.5,1.2l0.2-0.4C715.2,216,715.4,215.7,715.6,215.5z M722.7,220.9L722.7,220.9z M641.5,134.1
			L641.5,134.1h0.7C642,134.1,641.7,134.1,641.5,134.1z M658.6,108.8L658.6,108.8z M677.9,67.4L677.9,67.4L677.9,67.4L677.9,67.4
			C677.9,67.4,677.9,67.4,677.9,67.4L677.9,67.4z M680.8,103.5c0.2,0.2,0.5,0.4,0.8,0.7C682,103.6,681.4,103.5,680.8,103.5
			L680.8,103.5z M710.6,195.9h-0.2l0.1,0.1L710.6,195.9z M686,192.2v0.1C686,192.3,686,192.2,686,192.2L686,192.2z M668.8,150.4
			L668.8,150.4L668.8,150.4z M670.3,147.8c-0.4,0-0.7,0.3-0.7,0.7c0,0.1,0,0.2,0.1,0.3C669.9,148.5,670.2,148.1,670.3,147.8
			L670.3,147.8z M666.7,134.1L666.7,134.1L666.7,134.1z M662.6,170L662.6,170L662.6,170L662.6,170z M664.7,118.5L664.7,118.5z
			 M664.7,118.5L664.7,118.5L664.7,118.5z M687.3,184.8L687.3,184.8L687.3,184.8C687.3,184.9,687.3,184.8,687.3,184.8L687.3,184.8z
			 M662.7,177.8L662.7,177.8L662.7,177.8L662.7,177.8L662.7,177.8z M653.3,188.8L653.3,188.8L653.3,188.8z M691.9,141.8L691.9,141.8
			z M700.6,181.6L700.6,181.6L700.6,181.6L700.6,181.6z M685.2,193.4L685.2,193.4l0.2,0L685.2,193.4L685.2,193.4L685.2,193.4z
			 M684.6,192.8L684.6,192.8z M659.4,82.7L659.4,82.7z M690.4,139.9L690.4,139.9L690.4,139.9z M692,142L692,142L692,142z M677,103.5
			l0.1-0.1C677,103.2,677,103.3,677,103.5L677,103.5z M685.7,126.6c0.3,0.2,0.7,0.3,1.1,0.3C686.5,126.7,686.1,126.6,685.7,126.6
			L685.7,126.6z M670.3,187.6l-0.2,0.2l0.3-0.1L670.3,187.6z M649.6,156.3c-0.3-0.2-0.5-0.2-0.6,0.2
			C649.2,156.4,649.4,156.3,649.6,156.3L649.6,156.3z M652.1,216v-0.1l-0.2,0.1C652,216.1,652.1,216.1,652.1,216L652.1,216z
			 M656.8,91.2L656.8,91.2c-0.1,0.2-0.1,0.3-0.1,0.4C656.7,91.5,656.7,91.3,656.8,91.2L656.8,91.2z M644.4,139.1
			c0-0.1,0-0.3,0.1-0.4l-0.3,0.4C644.2,139.1,644.3,139.1,644.4,139.1z M657.4,70.1L657.4,70.1L657.4,70.1L657.4,70.1z M666.8,218.2
			c0-0.1,0-0.1,0.1-0.2L666.8,218.2L666.8,218.2z M658.7,216.9L658.7,216.9L658.7,216.9z M623.3,204.4c-0.2-0.1-0.4-0.1-0.5,0
			C623,204.4,623.1,204.4,623.3,204.4z M652.1,76.1L652.1,76.1L652.1,76.1l0.1-0.1C652.2,76,652.1,76,652.1,76.1z M690.7,81.4
			L690.7,81.4z M690.7,81.6v-0.2h-0.1L690.7,81.6z M706.7,165.5L706.7,165.5z M692.7,216.4L692.7,216.4L692.7,216.4L692.7,216.4
			L692.7,216.4z M681.4,48.7L681.4,48.7L681.4,48.7L681.4,48.7z M689.9,220.3L689.9,220.3z M662.9,218.4L662.9,218.4l-0.1,0.1
			C662.8,218.5,662.8,218.4,662.9,218.4z M618.1,199.2L618.1,199.2L618.1,199.2L618.1,199.2z M632.7,196.7L632.7,196.7L632.7,196.7
			L632.7,196.7L632.7,196.7z M636.7,145.3L636.7,145.3L636.7,145.3L636.7,145.3z M700.7,118.5L700.7,118.5z M610.1,220.9
			L610.1,220.9L610.1,220.9L610.1,220.9L610.1,220.9z M621.4,192.8L621.4,192.8z M621.4,192.8L621.4,192.8z M621.4,192.8
			L621.4,192.8z M633.4,146.3v0.1h0.1L633.4,146.3z M645.9,88.5L645.9,88.5L645.9,88.5L645.9,88.5L645.9,88.5z M654,56.5L654,56.5
			L654,56.5z M654,56.5L654,56.5L654,56.5z M720.4,224.7c-0.1-0.3-0.2-0.7-0.2-1l-0.9,0.8C719.6,224.5,720,224.6,720.4,224.7
			L720.4,224.7z M669.3,33L669.3,33z M696.6,89.5L696.6,89.5l0.2-0.1l-0.2-0.1V89.5L696.6,89.5z M722.1,163.3
			c-0.1,0.1-0.2,0.2-0.3,0.4c-0.1,0.7-0.2,1.3-0.2,1.6C722.2,164.8,722.4,164,722.1,163.3L722.1,163.3z M591.5,216.5
			c-0.1,0-0.2,0-0.3,0.1L591.5,216.5z M626.8,170.1L626.8,170.1L626.8,170.1L626.8,170.1L626.8,170.1z M633.7,153.5L633.7,153.5
			L633.7,153.5L633.7,153.5z M729.9,166.5c0,0,0,0.1,0,0.1h0.1L729.9,166.5z M721.3,168.7L721.3,168.7L721.3,168.7L721.3,168.7z
			 M740.8,207.8c0,0.1,0.1,0.2,0.2,0.3l0.1-0.1C741,207.9,740.9,207.9,740.8,207.8L740.8,207.8z M621.3,180.5l0.2-0.3
			C621.5,180.3,621.4,180.4,621.3,180.5z M605.7,171.5L605.7,171.5L605.7,171.5L605.7,171.5z M628.8,148.4L628.8,148.4L628.8,148.4z
			 M733.8,149.4c0,0,0-0.1,0-0.1h-0.1L733.8,149.4z"/>
		<path class="st1" d="M457.5,187.4L457.5,187.4l-1.3-0.1l0,0c-0.3-0.1-0.9-0.1-0.9-0.2c-0.3-2.3-1.9-1.2-3.5-1
			c-2.8,0.4-5.7,0.4-8.5,0c2.3-1.8,5.7-1.9,6.5-4.4c-1.1-0.3-2.5-0.2-3.3-1.2l0,0c1.4-1.2,3.2-2.1,4.4-3.6c-1.6-0.3-1.8,0.8-2.6,1.1
			l0,0c-1.3-0.4-2.7-1.5-3.6,0.4h-0.5l-0.8-1.6l0,0l2.6-2.4c-1.5,1.2-3.5,0.6-5.2,0.9c-1-0.1-1.5-0.5-0.7-1.2
			c0.6-0.6,0.9-1.5,0.8-2.4l0,0c1.5-1.6,3.8-2.3,5.8-3.2c0.4-0.2,0.4-0.2,0.2-1l0,0c-1-0.8-2.4,0.5-3.3-0.5l0,0
			c1.3-0.9,3.7-0.8,4.3-2.1c0.5-1-2.2-1.7-0.7-3.7l-6,3.4c-1.2-1.5,0.5-3-1-4.8c-0.3,1.9-2.4,2.4-2.8,3.9c-0.6,2.4-1.6,0.6-2.5,0.1
			c-1.9-0.7-1.6,0.5-1.7,1.2c0,0.8,0.1,1.5,0.2,2.3c-2,0.7-4-1.9-5.9,0.1l0,0c-3-2.8,1-2.9,2.5-4c-0.9-0.5-2.4-0.9-0.1-1.7
			c1.1-0.5,2.2-1.1,3.2-1.8c-3.1,1.1-6.4,1.2-9.6,1.3c-1.9-0.1-3.6,0.8-4.7,2.4l0,0l-1.1,0.2l0,0c-1.6,0.5-3.4,0.3-4.8-0.7
			c-0.8-0.7,0.1-1.7,0.8-2.4h1.3l0,0c3.5,0,6.9-0.3,10.4-0.8c-2.5-1.2-2.8-3.1-1.1-5.5l0,0c3.1-0.2,6.2-0.3,9.5-1.8
			c-2.3-0.3-4,0.6-5.5-0.2l1.3-0.6l2.7-1c1-0.8,3.1-0.7,3.9-2.5l-5.2,1.7l0,0l-0.4-1c-2.2,0.8-5.5-0.9-7,1.7l0,0l-0.8,0.4l0,0
			c-1.2,0.4-2.5,0.3-3.6-0.2c0.2-0.9,1.7-1.1,1.5-2.1c-1.8,0.2-3.5,0.6-5.1,1.4c-0.7-2.1-3-1.3-4.6-1.5c-0.8-0.1-1.4-0.2-1.2-1l0,0
			l4.5-1.6l0,0c0.8-0.2,1.6-0.4,2.5-0.6c0.7-0.1,1.4-0.3,1.2-1s-1-0.4-1.6-0.4c-1.1,0.1-2.1,0.7-3.3,0l2.2-4.8l0,0
			c0.7-0.8,0.8-1.4-0.8-0.8c-1.4,0.8-3.2,0.8-4.6,0c1.4-1.2,3.5-1.9,4.5-3.5c-2.5-0.6-3.8,1.9-6.2,1.1l0,0l0.2-1l0,0
			c2.2,0.5,1.6-2,3.6-2c1,0.1,1.8-0.7,1.9-1.7c0-0.6-0.2-1.2-0.7-1.5c-0.5-0.4-0.4-0.7-0.2-1.1l0,0c1.3-0.6,3.2-0.7,3.5-2.4
			c-3.8-0.6-3.8-0.6-1.4-3c0.1-0.1,0-0.2,0.1-0.2c1.1-1.3,2.6-2.4,3.3-4.3c-2.3,1-2.9,2.5-4,3.7c-1.1,0.4-2.1,1.1-2.8,2.1
			c-0.9,1.2-1.7,0.5-2.6,0c-1.7-0.9-1.1-2.5-1.8-4c0.1,2.9-1.6,4.9-2.9,7.1c-1,0-1.4-1.4-2.4-0.8c-0.5,0.2-0.3,1.2-0.4,1.9l0,0
			c-1.3,0.4-2.5,0.8-2.6,2.1l0,0c-1.8,0.1-2.5-0.7-2.5-2c0.9-0.6,0.4-1.4,0.6-2.1l0,0c1.2-1.4,1.7-3.1,4-3.8c-1.5-0.9-3.6,1.8-4-0.9
			c2.3-0.1,4.6-0.7,6.7-1.6c-1.7,0.2-3.3,0-4.9-0.5c1.4-2,3.6-3.1,5.5-4.7c-3.8,0.8-5.4,3.6-8.7,4.5c-0.9-0.8-1.8-1.7-1-2.9l0,0
			c0.9,0.1,1.6,0.9,2.6,0.7c0.5-1.1-2-0.5-1.4-1.5s3.1,0.4,2.8-0.8c-0.5-1.8,1.1-1.3,1.9-1.7c1.2-0.3,2.3-0.9,3.2-1.9l-5.4,1
			c-1.1-1.3,0.7-2,1.1-2.9c1-2,2.3-3.9,3.8-6.3c-2.4,1-2.6,2.5-3.3,3.6c-1.1,1.6-1.6,3.8-5.1,3c-0.3,2.1-2.7,0.9-3.9,1.6l0,0
			c-2.1,0.4-4-0.6-6.1-0.5l0,0l0.2-1l0,0l0,0c4.2,0.1,1-1.7,1.2-2.7l0,0l4.3-2.6c-2.2-0.8-3.6,0.3-5.2,0.7s-2.3,0.3-1.8-1.1
			c0.3-0.7,1.1-0.6,1.8-0.7c0.9-0.1,1-0.5,0.3-1l0.2-1l0,0c0.2,0,0.3-0.1,0.5-0.2c-0.2-0.2-0.3-0.5-0.3-0.8c0.1,0.3,0.2,0.5,0.3,0.8
			c1.8,0.1,3.3-0.1,2.6-2l-0.1,0.1l0.1-0.1c-1.9-1.5,0-2.4,1-3.2c-3.9-1.2,1-2.7-0.5-4c-0.8,1-1.6,2-2.5,2.9c-1,0.9-1.4,2.2-3.3,2.7
			c0.2-1.6-3-2.2-1.4-4.1l0.4-0.3l-0.9-0.3c0.1-0.4-0.9-0.6-0.1-1c1.1-0.5,2.6-0.6,3.2-1.8c-1.6-0.3-2.6,0.7-3.9,0.8l0,0
			c-0.5-0.3-0.7-0.7-0.2-1c1.9-1.4-0.4-1.1-1-1.5c0.4-0.3,1.1-0.8,1-0.9c-0.9-1.4,0.8-3-0.5-4.4c0.1-0.1,0.1-0.2,0.1-0.3l1.9-3.6
			l-0.7-0.2l-2.2,3l0,0c-1.5-0.9-0.5-1.9-0.1-2.8c0.9-1.9,0.9-4,0-5.9c-1.2,2.6-0.8,5.5-3.1,7.8c-0.7-0.8-2.3,0.9-2.7-0.6
			c-0.3-0.6-0.6-1.3-1-1.9c-0.2-0.4-0.2-0.6-1.2-0.1c-2.4,1.2-0.1,1.8,0.1,2.6l0,0c-1.1,2.2,0.9,3.1,2.7,4.1c0,0.8,0.5,2-1.5,1.1
			c-1.5-0.7-2.8-1.7-4.8-1.6c1.7,0.9,3.1,2.4,4.1,4.1c-1.6,0-2.7-1-4.4-0.4c1.6,0.8,3.1,1.4,4.1,2.5c0.1,0.3,1.6,0.6,0.1,0.8
			c-1.1,0-2.2-0.1-3.3-0.4l-0.1,0.3l5.2,1.5c-1,1.1-1.9-0.5-2.9,0c0.9,1.2,1.4,2.4-1.1,2.6c-1.5,0.1-1.8,1-2.6,1.6
			c-1.4-1,1.2-2.4-0.6-3.4c-1.2,0.6-1.2,1.7-1.6,2.7l0,0l-1.1-0.5c-2.4-1-4.1-2.8-7.1-3.1l5.5,3.8c-0.1,0.2-0.1,0.4-0.1,0.6
			c-0.5,0.8-2.4,0.3-2.6,1.3c0.6,1,2.5,0,2.9,1.2c-1.3,1-3,1.4-4.5,1c1.7,1.4,5.4,2,1.5,3.9c1.4,0.9,3.6-0.3,4.3,1.4l0,0
			c0.1,1.5,1.5,1,2.5,1.1c0.1,0,0.2,0.1,0.2,0.2l-0.2-0.2c0.3,0.8-0.1,1.3-1.1,1.5l-6-1.2c1.1,0.9,2.4,1.6,3.8,2l0,0
			c0.4,0.5,0.8,1,1.7,1c2.1,1.5-1.5,1.4-1,2.5c1.2-0.4,2.5-0.6,3.8-0.5c0.3,0.1,0.6,0.1,0.9,0.1h0c-0.1,0.7-1.1,1.4,0.1,2l0,0
			c-0.1,0.1-0.1,0.3-0.1,0.5c-0.2,0-0.4,0-0.6,0.1l0,0c-2.7,0.2-5.1-1-8.1-0.5c-1.9,0.3-1.8,2.3-3.7,1.9l0,0
			c-1.8-1.9-3.4-3.8-7.1-5.1c1.4,2,3.6,2.5,4.1,4.1c-0.9,0.9-2.1-0.4-3,0.3c0.3,0.8,1.8,0.8,1.8,1.7c-1.4,0.5-2.1-0.6-3.2-0.9
			c-1-1.1-2.4-1.6-3.9-1.4l2.7,2l0,0c0.4,1.6,2.5,1.9,3.8,2.8c0.5,1.7,0.8,3.4,2.7,4.5l0,0l0.7,2.6c-1.3-0.3-2.3-0.7-3.4-0.8
			c-0.7-0.1-1.9-0.9-2.2,0.5c-0.1,0.6-1.2,1.4,0.6,1.6c0.7,0.1,1.1,0.7,0.7,1.2c-0.4,0.8-1.2,1.3-2,1.5c-1.1,0.2-1-0.5-1.2-1
			c-0.6-1.2-1.3-0.3-1.9,0.2l0,0l-0.8,0.9l0,0c-3-1.2-4.7-3.8-8.5-4.6c0.8,1.1,1.8,2,3,2.7c-2.3,0.8-2.3,0.8-1.2,1.5l0,0l0.2,1.5
			c-0.8,0.6-0.3,1.9-1.8,2.2l0,0c-1.1,1.9-3.4,2.8-5.5,2c-1-0.6-2-0.7-4-0.1l3.9,1.1l0,0c0.8,0.7,3.8,0.1,2,2.2
			c1.3,0.6,0.7,2.8,3.3,2.1l0,0c1.7,0.4,3.8,0.1,5.7,1.4c-0.6,0.1-1.2,0.2-1.8,0.3c-1.1,0.4-4.4-0.1-1.3,2c0.6,0.4,0.1,1.2-1,1.1
			c-0.9-0.1-1.7-0.5-2.5,0.2c0.1,0.7,1.7,0.4,1.4,1.4c-2.1,0.3-3.8-1.6-5.9-0.6c-1.7,0.8-3-0.9-4.6-0.5c-1.6-1.1-2.4-2.9-4.8-3.6
			c0.1,1.3,1.8,1.9,1.6,3.1l0,0c0,0.7-0.2,1.2-1.3,0.9c-2.3-1-4.5-2.1-7.3-1.9c1.8,0.4,2.7,1.6,4,2.4l0,0c1.8,1.2-0.8,1.3-1,2.2
			c2.1,0.5,4.2,0.6,6.3,0.4c0.4,0.7,2.8-1,2.1,1.1c-0.2,0.6,1.2,1.3-0.6,1.6c-0.8,0.1-3,0.4-1.8,1.2c1,0.7,0.7,3.1,3.8,2.1
			s6.5-0.1,9.6,0.8c-0.4,0.5,0.6,1.4-0.6,1.7c-2.1,0.5-0.9,1.5-0.7,2.4c-0.1,1.8-1.3,1.2-2.6,0.8c-2.3-0.8-3.9-2.5-7.1-2.9
			c1.7,2.2,5.9,2.4,5.4,5.4h0.3c-0.1,1.2-1,1.6-2.2,0.9c-2.1-1.1-4.2-0.9-6.5-0.3c1.4,0.2,2,1.1,3.3,1.4l0,0c-0.1,0.7-1.6,1.6,0.7,2
			c1.5,0.2,0.2,0.4-0.1,0.6s-1.4,0.5-0.5,1.1c-0.7,1.9-3.2,1.3-4.7,2c0.1,0,0.2,0.1,0.4,0.1l-0.4-0.1c-2.7-0.3-5.8,0.4-7.8-1.7
			c-1.3,0.1-2.6-1.4-3.7-0.6s-1.1,0.4-2.2,0.3c-2.9-0.2-4.2-2.2-6.7-3.2c1.3,2.4,0.8,2.2-1.8,2.7c-2.1,0.4-4-0.2-6,0.1
			c2.7,1.3,6.1,1.3,8.5,3.4c-1.9,0.3-3.4-0.2-5,0.8c1.4,0.3,2.8,0.5,4.1,0.6c2.4,0,4.7-0.1,6.7,1.2l-0.6,1.1l0,0
			c-0.8,1.3-3.1,0.5-4,1.7c2.4,1.3,5.3,1.6,7.9,0.9l0,0c0.6,0,1.3,0,2,0.1c0.8,0.1,2,0,1.9,1s-1.5-0.1-2.1,0.5c1,0.4,2.8,0.7,2.7,1
			c0,2,2,1.1,3,1.5c1.3,1,1.1,1.5-0.7,1.7c-1.4,0.1-2.9-0.4-4.1,0.4l0,0c-0.8,0.3-2-0.1-2.6,1.4c5.7,0.4,9.5,3.9,14.5,5.7
			c-3.2-0.4-5.4,2.9-9.6,0.5c-3.2-1.8-5.6-2.1-6.6-4.7c0-0.1-0.4,0-0.8-0.1c0.4,1.3,0.5,2.3-1.8,1.3c-1-0.5-2.6-0.2-3.8-0.5
			c-1.9-0.4-4.1,0.5-5.7-0.9c-1.1-1.4-2.6-2.3-4.3-2.7c-0.7,1,1.3,1,0.7,1.7c-1.6,0.4-2.9-0.9-4.7-0.1c1.6,1.2,3.7,1.6,5.5,2.3
			l0.6,0.5c-1.4,1.3-3.8-0.4-5.3,1.2c1.4,0.4,2.8,0.7,4.2,0.8c1.2,0.1,2.4,0.1,3.6,0.2c1.5,0.2,2.9,1,3.9,2.1
			c0.5,0.7-1.3,0.7-2.2,0.9c-2.3-0.1-4.6,0.2-6.7,1c-0.2-0.1-0.3-0.1-0.5-0.1c-2.8-2.4-6.5-1.6-10-1.5l6.6,2l0,0
			c0.8,0.9,0,0.9-0.9,1c-1.1,0.1-2.3-0.8-3.3,0.3c2.8,0.7,5.5,1.6,8.5,1.2c0.8-0.1,1.7,0.1,1.8,0.9s-0.9,0.8-1.6,0.9
			c-1.2,0.3-2.6-0.5-3.8,0.8c3-0.5,3.9,2.3,6.5,2.3c0,0.7,0.1,1.6,0.9,1.6c1,0,1.2-1,1.3-1.7l0,0c1-0.6,2.1-0.8,3.2-0.6
			c1,0.8,3.9-0.3,3.4,2.1l0,0l0.1,0.9l0,0l-0.1,2.2l0,0c-0.9,0.2-2-0.1-2.7,0.5l-1.3,0.5c-1.5-0.8-2.4-0.4-2,0.9
			c0.3,0.9-0.5,0.5-0.8,0.7l0,0l-3.1,0.4c-2.9-0.5-5.8-0.6-8.7-0.3c1.5,0.6,3.2,0.6,4.5,1.5c-0.7,1.9,1.5,1.9,2.5,1.9
			c3.5,0,6.5,1.3,9.6,2.1l0,0c-1,0.9-2.6,0.8-3.9,1.3s-3,1.1-2.8,2.6c0.2,1.3,1.4,2.1,3.1,2.4c2.6,0.4,5.2,0.8,7.8,1
			c14.8,1,29.5,1.3,44.3,1.5c18.2,0.2,36.5,0.2,54.8-0.4c5.5-0.2,11.1-0.2,16.5-0.6c5-0.4,10.1-0.5,15.1-1.4
			c1.8-0.3,3.2-0.9,3.7-2.2c0.6-1.5-0.9-2.1-2.4-2.7c-0.4-0.2-0.8-0.4-1.1-0.6c1.7-0.2,1.7-0.9,1.6-1.8l1.7-0.4
			c1.5-0.2,3.2,0.5,4.6-0.8c-1.5-0.7-3.2-0.8-4.8-0.4c-1.2-1.1,2-2.7-1.3-3.5l4.5-1.2c0.5,0,1.5,0.2,1.5,0.1
			c1.4-2.4,3.4-1.2,5.8-0.2c-3.1-3.5-3.4-4.1-3.4-5.6c1.1-1.3,2.8-1.6,4.6-1.6l0,0c1.9,0.3,3.3-0.4,5-1.3c-1.6-0.6-3.1,0.2-4.2-0.7
			l0.5-0.2c2.4-0.6,4.7-1.7,6.6-3.2c-0.6-0.1-1.2,0.1-1.8,0.4c-2.1,1.8-4.7-0.4-7,0.5c-0.3,0.1,0.8-1-0.1-1.5
			c-1.2,0.6-2.3,1.5-3,2.7l0,0l-1.9,0.8c-1.1-0.5-0.4-1.1-0.2-1.7l0,0c-0.1-1-1.6-0.2-1.9-1l0,0c1-0.8,1.3-2.1,2.7-2.6l0,0l3.2-0.4
			l0,0c2.5,0.6,4.6,0.7,3.5-2.2c-0.4-1,0.6-1.1,1.3-1.5h0.3l0.3-0.1l0,0h1.3c2.1,0.2,3.7,0.1,2.6-2.1l0,0l1.2-0.6
			c1.7-0.6,3.2-1.5,4.6-2.6C462.6,186.1,460.5,187.9,457.5,187.4z M413.6,159.2l-0.2-0.1l0.2-0.2
			C413.5,159.1,413.6,159.2,413.6,159.2L413.6,159.2z M442.2,204L442.2,204z M359.2,124.9L359.2,124.9c0,0.2-0.1,0.3-0.2,0.5
			C359,125.2,359.1,125.1,359.2,124.9L359.2,124.9z M432.2,216L432.2,216z M307.2,219.7c0-0.1-0.1-0.2-0.1-0.2
			C307.2,219.5,307.3,219.6,307.2,219.7L307.2,219.7z M398.3,140.8l0.1,0.1h-0.1C398.3,140.9,398.3,140.8,398.3,140.8L398.3,140.8z
			 M405.7,220.1h-0.2H405.7L405.7,220.1L405.7,220.1L405.7,220.1z M355.8,181L355.8,181L355.8,181z M380,160.9h-0.3l-0.3-0.1
			C379.4,160.5,379.9,160.9,380,160.9z M371.2,186.9L371.2,186.9L371.2,186.9L371.2,186.9L371.2,186.9z M383,162.4L383,162.4
			c0.2,0,0.4,0,0.6,0H383z M390.3,165.6L390.3,165.6L390.3,165.6L390.3,165.6L390.3,165.6L390.3,165.6z M383.6,158.6l0.2-0.3
			l0.2,0.1L383.6,158.6z M384.8,153.7l-0.3-0.1l0,0l0,0C384.6,153.6,384.7,153.6,384.8,153.7L384.8,153.7z M380.4,156.7L380.4,156.7
			L380.4,156.7L380.4,156.7L380.4,156.7z M366.3,159.9c0-0.1-0.1-0.2-0.1-0.3l0.6,0.1L366.3,159.9z M372.9,142.6L372.9,142.6
			L372.9,142.6z M354,207L354,207C353.9,207,353.9,207,354,207L354,207z M428.3,186.9L428.3,186.9z M355.6,218l0.2,0.1l-0.1,0.1
			L355.6,218z M396.6,145.8L396.6,145.8c0.1,0,0.2,0.1,0.2,0.2L396.6,145.8z M384.8,141.5l0.4,0.2h-0.5
			C384.8,141.6,384.8,141.6,384.8,141.5L384.8,141.5z M357.2,217.5L357.2,217.5L357.2,217.5z M352.5,148.4L352.5,148.4z
			 M428.9,207.7L428.9,207.7v0.1V207.7L428.9,207.7L428.9,207.7z M436,197.6L436,197.6L436,197.6z M363.5,150.4L363.5,150.4z
			 M439.5,192.5L439.5,192.5L439.5,192.5L439.5,192.5L439.5,192.5z M331.3,194.7L331.3,194.7L331.3,194.7L331.3,194.7z M438.8,193.1
			L438.8,193.1L438.8,193.1z M434.8,175.6v-0.1l0.1,0.1L434.8,175.6z M413.8,174.3h-0.5c0.2-0.1,0.3-0.3,0.5-0.4
			C413.8,174,413.8,174.1,413.8,174.3L413.8,174.3z M400.9,138.5L400.9,138.5L400.9,138.5z M391.6,130.5L391.6,130.5z M365.9,119.3
			L365.9,119.3l0.1-0.1L365.9,119.3z M331.9,184.2L331.9,184.2L331.9,184.2L331.9,184.2z M432.2,216L432.2,216L432.2,216L432.2,216z
			 M301.9,212.4l-0.2-0.1c0.1,0,0.2,0,0.4,0.1L301.9,212.4z M441.5,207.1L441.5,207.1L441.5,207.1L441.5,207.1z M433.8,167.7h-0.1
			l-0.1-0.2L433.8,167.7z M428.2,152.5L428.2,152.5z M415,139.7l0.2-0.1L415,139.7z M355.7,117.3l-0.1-0.1l0,0
			c0.1-0.1,0.3-0.1,0.4-0.2C355.9,117.1,355.8,117.2,355.7,117.3z M352.6,118.5v0.1l-0.1-0.1L352.6,118.5z M346.3,131.2
			c-0.1-0.1-0.2-0.2-0.3-0.3C346.2,130.9,346.3,131,346.3,131.2L346.3,131.2z M336,161.9L336,161.9
			C335.9,161.9,335.9,161.9,336,161.9L336,161.9L336,161.9z M448.1,199.6c0,0.1,0.1,0.3,0.2,0.4h-0.2l0,0
			C448.1,199.9,448.1,199.7,448.1,199.6L448.1,199.6z"/>
		<path class="st1" d="M555,180.2L555,180.2l-1.2-0.1l0,0c-0.3-0.1-0.9-0.1-0.9-0.3c-0.3-3.5-1.8-1.8-3.2-1.6c-2.6,0.6-5.4,0.6-8,0
			c2.2-2.8,5.3-3,6.2-6.7c-1-0.5-2.4-0.4-3.1-1.8l0,0c1.3-1.8,3-3.2,4.1-5.6c-1.5-0.5-1.7,1.2-2.5,1.7l0,0c-1.2-0.6-2.5-2.3-3.3,0.6
			l0,0c-0.1,0-0.3,0-0.4,0l-0.8-2.4l0,0l2.5-3.7c-1.4,1.8-3.3,1-4.9,1.4c-1-0.1-1.4-0.7-0.7-1.8c0.6-1.1,0.9-2.4,0.7-3.7l0,0
			c1.4-2.4,3.5-3.5,5.5-4.9c0.4-0.3,0.4-0.3,0.2-1.5l0,0c-0.9-1.2-2.3,0.8-3.1-0.7l0,0c1.2-1.3,3.5-1.2,4-3.2
			c0.5-1.6-2.1-2.7-0.6-5.7l-5.7,5.3c-1.2-2.3,0.4-4.7-0.9-7.3c-0.3,2.9-2.2,3.7-2.6,6c-0.6,3.7-1.5,1-2.3,0.2
			c-1.8-1.1-1.5,0.7-1.6,1.9c0,1.2,0.1,2.3,0.2,3.5c-1.8,1-3.7-2.9-5.5,0.1l0,0c-2.9-4.3,1-4.4,2.3-6.1c-0.9-0.7-2.3-1.4-0.1-2.7
			c1.1-0.8,2.1-1.8,3-2.8c-2.9,1.8-6,1.9-9.1,2c-2.1,0.2-3.9,1.7-4.4,3.7l0,0l-1.1,0.4l0,0c-1.6,0.8-3.5,0.3-4.5-1.1
			c-0.8-1,0.1-2.6,0.7-3.7h1.2l0,0c3.2,0.1,6.3-0.6,9.7-1.2c-2.3-1.8-2.6-4.8-1-8.5l0,0c2.9-0.3,5.8-0.5,8.9-2.8
			c-2.2-0.5-3.8,0.9-5.2-0.4l1.2-1l2.6-1.5c1-1.2,2.9-1,3.7-3.9l-4.9,2.7l0,0l-0.4-1.5c-2.1,1.2-5.2-1.4-6.5,2.6l0,0l-0.7,0.7l0,0
			c-1.2,0.3-2.3,0.6-3.4-0.3c0.2-1.4,1.6-1.7,1.4-3.3c-1.8,0.3-3.4,1-4.8,2.1c-0.6-3.2-2.8-2-4.4-2.4c-0.7-0.1-1.3-0.4-1.1-1.5l0,0
			l4.2-2.4l0,0c0.8-0.3,1.5-0.7,2.3-1c0.6-0.2,1.3-0.5,1.2-1.5s-1-0.6-1.5-0.6c-1,0.1-2,1-3.1,0.1l2.1-7.3l0,0
			c0.6-1.2,0.7-2.2-0.7-1.2s-2.8,1.4-4.3,0c1.3-1.9,3.3-3,4.3-5.4c-2.4-1-3.6,3-5.8,1.7l0,0l0.2-1.6l0,0c2.1,0.8,1.5-3,3.4-3.1
			c1.8-0.1,2.4-3.1,1.1-4.9c-0.4-0.5-0.4-1.1-0.2-1.6l0,0c1.2-1,3.1-1.1,3.2-3.6c-3.6-0.9-3.6-0.9-1.3-4.6c0-0.1,0.1-0.3,0.1-0.4
			c1.1-2,2.4-3.7,3.1-6.6c-2.2,1.5-2.8,3.8-3.8,5.7c-1.2,0.8-2.1,1.9-2.6,3.2c-0.9,1.9-1.6,0.8-2.4,0c-1.6-1.4-1.1-3.8-1.7-6.1
			c0.1,4.4-1.5,7.6-2.7,10.9c-1,0-1.3-2.1-2.2-1.3c-0.4,0.4-0.2,1.9-0.3,2.9l0,0c-1.4,0.4-2.4,1.7-2.5,3.2l0,0
			c-1.7,0.1-2.4-1.1-2.3-3.1c0.9-0.9,0.4-2.1,0.6-3.2l0,0c1.1-2.1,1.6-4.7,3.8-5.8c-1.4-1.4-3.4,2.7-3.8-1.4
			c2.3-0.2,4.5-1.1,6.3-2.4c-1.6,0.2-3.2,0-4.6-0.7c1.3-3,3.4-4.7,5.2-7.3c-3.6,1.2-5.1,5.5-8.1,6.9c-0.9-1.3-1.7-2.6-1-4.4l0,0
			c0.9,0.2,1.5,1.4,2.5,1.1c0.5-1.7-1.9-0.8-1.3-2.4s2.9,0.7,2.6-1.3c-0.5-2.7,1-2.1,1.8-2.6c1.3-0.6,2.3-1.6,3-2.8l-5.1,1.6
			c-1-2,0.7-3,1.1-4.5c0.9-3.1,2.2-5.9,3.6-9.7c-2.3,1.6-2.4,3.8-3.1,5.5c-1.1,2.5-1.5,5.9-4.8,4.6c-0.3,3.2-2.6,1.4-3.7,2.4l0,0
			c-2,0.6-3.8-0.9-5.7-0.8l0,0l0.2-1.6l0,0l0,0c4,0.2,1-2.7,1.1-4.1l0,0l4-4c-2.1-1.2-3.4,0.5-4.9,1.1s-2.2,0.5-1.7-1.8
			c0.3-1.1,1.1-0.8,1.7-1c0.8-0.2,0.9-0.8,0.3-1.5l0.2-1.5l0,0c0.2,0,0.3-0.1,0.4-0.2c-0.2-0.4-0.3-0.8-0.3-1.2
			c0.1,0.4,0.2,0.8,0.3,1.2c1.7,0.1,3.1-0.1,2.4-3.1l-0.1,0.1l0.1-0.1c-1.8-2.3,0-3.6,1-4.9c-3.7-1.9,1-4.1-0.4-6.2
			c-0.8,1.5-1.5,3.1-2.4,4.4s-1.3,3.3-3.1,4.1c0.2-2.4-2.8-3.4-1.3-6.3l0.4-0.5l-0.8-0.4c0.1-0.5-0.9-0.9-0.1-1.5
			c1-0.8,2.4-0.9,3.1-2.8c-1.6-0.4-2.5,1.1-3.6,1.2l0,0c-0.4-0.4-0.5-1.1-0.1-1.5c0,0,0,0,0,0c1.8-2.2-0.4-1.7-0.9-2.3
			c0.3-0.5,1-1.2,1-1.3c-0.9-2.2,0.8-4.6-0.5-6.7c0.1-0.2,0.1-0.3,0.1-0.4l1.8-5.6l-0.6-0.4l-2.1,4.6l0,0c-1.4-1.3-0.5-3-0.1-4.3
			c0.8-2.9,0.8-6.1,0-9c-1.1,4-0.8,8.5-2.9,12c-0.6-1.2-2.1,1.4-2.6-0.9c-0.3-1-0.5-2-0.9-2.9c-0.2-0.6-0.2-0.9-1.1-0.2
			c-2.3,1.8-0.1,2.7,0.1,4l0,0c-1,3.3,0.8,4.8,2.5,6.3c0,1.2,0.5,3.1-1.5,1.7c-1.4-1-2.6-2.7-4.5-2.5c1.8,1.7,3.1,3.9,3.8,6.3
			c-1.5,0-2.5-1.5-4.1-0.6c1.5,1.3,2.9,2.2,3.9,3.8c0.1,0.4,1.5,0.9,0.1,1.2c-1,0.2-2.1-0.4-3.1-0.6l-0.1,0.5l4.9,2.2
			c-0.9,1.7-1.8-0.7-2.7,0c0.9,1.8,1.3,3.7-1,3.9c-1.5,0.2-1.7,1.6-2.5,2.5c-1.4-1.5,1.1-3.7-0.5-5.2c-1.1,1-1.2,2.6-1.5,4.1l0,0
			l-1-0.8c-2.3-1.5-3.8-4.3-6.6-4.8l5.2,5.9c-0.1,0.3-0.1,0.6-0.1,0.9c-0.5,1.2-2.2,0.5-2.5,2c0.6,1.5,2.4,0,2.7,1.9
			c-0.9,1.4-2.7,2-4.3,1.5c1.6,2.2,5,3.1,1.5,5.9c1.3,1.4,3.4-0.5,4.1,2.1l0,0c0.1,2.2,1.4,1.5,2.4,1.6c0.1,0.1,0.1,0.2,0.2,0.2
			l-0.2-0.2c0.3,1.2-0.1,2-1,2.2l-5.7-1.9c0.9,1.3,2.1,2.3,3.5,3l0,0c0.4,0.8,0.8,1.6,1.6,1.5c2,2.3-1.4,2.1-1,3.8
			c1.1-0.7,2.3-0.9,3.6-0.8c0.3,0.1,0.6,0.2,0.9,0.1l0,0.1c-0.1,1-1.1,2.1,0.1,3.1l0,0c-0.1,0.2-0.1,0.5-0.1,0.7
			c-0.2,0-0.4,0.1-0.6,0.2l0,0c-2.5,0.3-4.8-1.5-7.6-0.8c-1.8,0.5-1.7,3.5-3.5,3l0,0c-1.7-2.8-3.2-5.8-6.7-7.8
			c1.3,3,3.4,3.8,3.8,6.3c-0.8,1.4-2-0.5-2.9,0.4c0.3,1.2,1.7,1.2,1.7,2.6c-1.4,0.8-2-0.9-3-1.4c-0.6-1.4-2.1-2.3-3.6-2.2l2.5,3l0,0
			c0.4,2.5,2.3,2.9,3.5,4.3c0.4,2.6,0.8,5.1,2.5,6.9l0,0l0.7,3.9c-1-0.5-2.1-0.9-3.2-1.2c-0.7-0.2-1.8-1.4-2,0.8
			c-0.1,1-1.1,2.2,0.6,2.5c0.7,0.1,1,1.1,0.7,1.9c-0.4,1-0.9,2-1.8,2.3s-0.9-0.7-1.2-1.6c-0.6-1.9-1.2-0.5-1.8,0.2l0,0l-0.8,1.4l0,0
			c-2.8-1.8-4.4-5.9-8-7c0.6,1.6,1.6,3,2.8,4.1c-2.1,1.3-2.1,1.3-1.1,2.3l0,0l0.2,2.3c-0.7,1-0.3,2.9-1.7,3.4l0,0
			c-1.1,2.7-2.7,4.2-5.1,3c-0.9-1-1.9-1.1-3.7-0.2l3.7,1.6l0,0c0.7,1.1,3.6,0.1,1.9,3.4c1.2,0.9,0.7,4.4,3.1,3.3l0,0
			c1.6,0.7,3.6,0.2,5.4,2.2c-0.6,0.1-1.1,0.2-1.7,0.4c-1.1,0.5-4.1-0.2-1.2,3.1c0.4,0.4,0.3,1.1-0.1,1.4c-0.2,0.2-0.5,0.3-0.8,0.2
			c-0.8-0.2-1.6-0.7-2.3,0.2c0.1,1,1.6,0.6,1.3,2.1c-1.9,0.4-3.5-2.5-5.6-1c-1.6,1.3-2.8-1.3-4.3-0.8c-1.5-1.7-2.3-4.4-4.5-5.5
			c0.1,2.1,1.7,3,1.5,4.8l0,0c0,1-0.2,1.9-1.2,1.4c-2.1-1.5-4.2-3.3-6.9-2.9c1.6,0.7,2.6,2.4,3.7,3.7l0,0c1.7,1.9-0.7,2-1,3.4
			c1.9,0.8,3.9,1,5.9,0.5c0.4,1.1,2.6-1.6,2,1.7c-0.1,0.9,1.1,2-0.6,2.5c-0.8,0.2-2.8,0.7-1.7,1.9c1,1.1,0.6,4.8,3.6,3.2
			s6.1-0.2,9,1.2c-0.4,0.8,0.6,2.2-0.6,2.6c-1.9,0.8-0.9,2.4-0.6,3.7c-0.1,2.8-1.2,1.9-2.5,1.2c-2.1-1.2-3.7-3.9-6.7-4.5
			c1.6,3.4,5.5,3.7,5,8.2l0.3-0.1c-0.1,1.9-0.9,2.4-2.1,1.4c-1.9-1.8-3.9-1.4-6.1-0.4c1.3,0.2,1.9,1.8,3.1,2.2l0,0
			c0,1.1-1.5,2.5,0.6,3.1c1.4,0.3,0.2,0.6-0.1,0.9s-1.3,0.7-0.5,1.7c-0.7,2.8-3,2-4.4,3.1c0.1,0.1,0.2,0.1,0.4,0.2
			c-0.1-0.1-0.2-0.1-0.4-0.2c-2.5-0.4-5.4,0.6-7.4-2.6c-1.3,0.1-2.5-2.2-3.5-0.9c-0.9,1.1-1,0.6-2,0.5c-2.7-0.4-4-3.4-6.3-5
			c1.2,3.6,0.8,3.4-1.6,4.1c-2,0.6-3.8-0.2-5.6,0.1c2.5,2,5.7,2,8,5.2c-1.8,0.4-3.2-0.3-4.7,1.2c1.3,0.4,2.6,0.7,3.9,0.9
			c2.2,0,4.5-0.1,6.3,1.9l-0.5,1.7l0,0c-0.7,2-2.9,0.8-3.8,2.7c2.4,1.7,4.8,2.6,7.5,1.3l0,0c0.6,0,1.2,0,1.8,0.1
			c0.8,0.1,1.9,0,1.7,1.5s-1.4-0.2-2,0.8c0.9,0.5,2.6,1.1,2.6,1.6c0,3.1,1.9,1.7,2.8,2.3c1.2,1.5,1.1,2.4-0.7,2.6
			c-1.3,0.1-2.7-0.6-3.9,0.6l0,0c-0.8,0.4-1.9-0.1-2.4,2.2c5.4,0.7,8.9,5.9,13.7,8.8c-3-0.6-5.1,4.4-9.1,0.7c-3-2.8-5.3-3.2-6.2-7.2
			c0-0.1-0.4-0.1-0.7-0.1c0.4,2,0.5,3.6-1.7,1.9c-1-0.7-2.4-0.3-3.6-0.8c-1.8-0.7-3.9,0.7-5.3-1.5c-0.8-1.8-2.2-3.3-4.1-4.1
			c-0.7,1.5,1.2,1.5,0.7,2.6c-1.5,0.7-2.7-1.4-4.4-0.2c1.5,1.9,3.5,2.5,5.1,3.6l0.6,0.8c-1.3,1.9-3.6-0.6-5,1.8
			c1.4,0.5,2.6,1.3,3.9,1.1c1.1,0.1,2.3,0.2,3.4,0.4c1.6,0.5,3,1.7,3.6,3.3c0.5,1.1-1.2,1.1-2,1.4c-2.2-0.2-4.4,0.4-6.3,1.6
			c-0.1-0.1-0.3-0.2-0.5-0.2c-2.6-3.7-6.1-2.5-9.4-2.4l6.2,3.1l0,0c0.7,1.4,0,1.4-0.8,1.6c-1,0.2-2.2-1.3-3.1,0.4
			c2.6,1.1,5.1,2.4,8,1.9c0.7-0.2,1.4,0.3,1.6,1c0,0.1,0,0.2,0,0.4c0.1,1.3-0.9,1.2-1.5,1.4c-1.1,0.4-2.5-0.8-3.5,1.2
			c2.9-0.7,3.7,3.5,6.1,3.6c0,1,0,2.5,0.9,2.5c1,0,1.1-1.5,1.2-2.6l0,0c0.7-0.8,1.9-1.2,3-0.9c0.9,1.3,3.7-0.4,3.2,3.2l0,0l0.1,1.4
			l0,0l-0.1,3.4l0,0c-0.8,0.4-1.8-0.2-2.6,0.7l-1.2,0.8c-1.5-1.2-2.3-0.6-1.9,1.4c0.3,1.3-0.5,0.8-0.7,1.1l0,0l-2.9,0.6
			c-2.7-0.7-5.5-0.9-8.2-0.4c1.4,0.9,3,0.9,4.2,2.2c-0.7,2.8,1.4,2.9,2.4,2.9c3.3,0.1,6.1,2,9.1,3.2l0,0c-1,1.4-2.5,1.3-3.6,2
			s-2.8,1.6-2.6,4c0,1.7,1.2,3.2,2.9,3.7c2.4,0.7,4.9,1.2,7.4,1.6c13.9,1.6,27.8,2,41.7,2.4c17.2,0.4,34.3,0.3,51.5-0.7
			c5.2-0.3,10.4-0.2,15.6-0.9c4.7-0.6,9.5-0.8,14.2-2.1c1.7-0.3,3.1-1.7,3.5-3.4c0.5-2.3-0.9-3.3-2.2-4.2c-0.4-0.3-0.7-0.6-1.1-1
			c1.6-0.3,1.6-1.4,1.5-2.7l1.6-0.6c1.4-0.4,3,0.8,4.3-1.3c-1.3-1-3-1.3-4.5-0.6c-1.1-1.6,1.9-4.1-1.2-5.3l4.3-1.8
			c0.5,0.1,1.4,0.4,1.5,0.2c1.3-3.7,3.2-1.9,5.4-0.3c-2.9-5.3-3.2-6.3-3.2-8.6c0.8-1.6,2.5-2.6,4.3-2.5l0,0c1.8,0.5,3.1-0.6,4.8-2
			c-1.5-0.9-2.9,0.3-4-1l0.4-0.3c2.5-0.9,4.4-2.8,6.2-4.9c-0.6-0.1-1.2,0.1-1.7,0.6c-2,2.8-4.4-0.6-6.6,0.8
			c-0.3,0.2,0.7-1.6-0.1-2.3c-1.3,1.1-2.3,2.5-2.9,4.1l0,0l-1.8,1.2c-1.1-0.8-0.4-1.7-0.2-2.6l0,0c-0.1-1.5-1.5-0.4-1.8-1.5l0,0
			c0.9-1.2,1.2-3.2,2.5-4l0,0l3-0.7l0,0c2.3,0.9,4.3,1.1,3.3-3.4c-0.3-1.5,0.6-1.7,1.2-2.3h0.3l0.3-0.1l0,0l1.3,0.1
			c2,0.4,3.5,0.2,2.5-3.2l0,0l1.2-0.9c1.7-1,3.2-2.4,4.3-4.1C559.8,178,557.8,180.9,555,180.2z M513.7,136.8l-0.2-0.1l0.2-0.3
			C513.7,136.6,513.7,136.7,513.7,136.8z M540.7,205.6L540.7,205.6z M462.5,84.1L462.5,84.1c0,0.2-0.1,0.5-0.1,0.7
			C462.4,84.6,462.5,84.3,462.5,84.1L462.5,84.1z M531.3,224.1L531.3,224.1z M413.7,229.8c0-0.1,0-0.2-0.1-0.4
			C413.7,229.5,413.7,229.6,413.7,229.8L413.7,229.8z M499.3,108.5l0.1,0.2h-0.1C499.3,108.6,499.3,108.5,499.3,108.5L499.3,108.5z
			 M506.3,230.5h-0.2l0.1-0.1L506.3,230.5L506.3,230.5L506.3,230.5z M459.3,170.3L459.3,170.3L459.3,170.3z M482.2,139.4h-0.3
			l-0.3-0.2C481.6,138.8,482,139.4,482.2,139.4L482.2,139.4z M473.9,179.3L473.9,179.3L473.9,179.3L473.9,179.3L473.9,179.3z
			 M485,141.6L485,141.6c0.2-0.1,0.4-0.1,0.6,0L485,141.6L485,141.6z M491.8,146.5L491.8,146.5L491.8,146.5L491.8,146.5L491.8,146.5
			L491.8,146.5z M485.5,135.7c0.1-0.2,0.1-0.3,0.2-0.5c0.1,0.1,0.1,0.1,0.2,0.1L485.5,135.7z M486.7,128.2l-0.2-0.1l0,0l0,0
			C486.5,128.1,486.6,128.2,486.7,128.2L486.7,128.2z M482.5,132.9L482.5,132.9L482.5,132.9L482.5,132.9L482.5,132.9z M469.2,137.8
			c0-0.2-0.1-0.3-0.1-0.4c0.2,0.1,0.4,0.1,0.6,0.2L469.2,137.8z M475.5,111.2L475.5,111.2L475.5,111.2z M457.7,210.2L457.7,210.2
			C457.6,210.2,457.6,210.2,457.7,210.2L457.7,210.2z M527.6,179.2L527.6,179.2z M459.2,227.1l0.2,0.1l-0.1,0.1L459.2,227.1z
			 M497.7,116.2L497.7,116.2c0.1,0,0.2,0.1,0.2,0.2L497.7,116.2z M486.6,109.6c0.1,0.1,0.3,0.2,0.4,0.3h-0.4
			C486.6,109.8,486.6,109.7,486.6,109.6L486.6,109.6z M460.6,226.3L460.6,226.3L460.6,226.3C460.6,226.3,460.6,226.4,460.6,226.3
			L460.6,226.3z M456.2,120.1L456.2,120.1z M528.1,211.2L528.1,211.2v0.1V211.2L528.1,211.2L528.1,211.2z M534.8,195.7L534.8,195.7
			L534.8,195.7z M466.6,123.2L466.6,123.2z M538.1,188L538.1,188L538.1,188L538.1,188L538.1,188z M436.4,191.4
			C436.4,191.4,436.4,191.3,436.4,191.4L436.4,191.4L436.4,191.4z M537.5,188.8L537.5,188.8z M533.8,162v-0.1l0.1,0.1L533.8,162z
			 M514,159.9h-0.5c0.1-0.2,0.3-0.4,0.5-0.6C514,159.5,514,159.7,514,159.9z M501.8,105L501.8,105L501.8,105z M493.1,92.7
			L493.1,92.7L493.1,92.7L493.1,92.7z M468.9,75.5v-0.1h0.1L468.9,75.5z M436.9,175.2L436.9,175.2L436.9,175.2z M531.2,224.1
			L531.2,224.1C531.3,224.1,531.3,224.1,531.2,224.1L531.2,224.1z M408.7,218.6l-0.2-0.2c0.1,0,0.2,0.1,0.3,0.1L408.7,218.6z
			 M540,210.4v0.1V210.4L540,210.4z M532.7,149.8h-0.1l-0.1-0.3L532.7,149.8z M527.5,126.4L527.5,126.4z M515,106.7
			c0.1-0.1,0.1-0.1,0.2-0.2L515,106.7z M459.3,72.4l-0.1-0.1l0,0c0.1-0.1,0.2-0.2,0.4-0.3C459.4,72.1,459.4,72.2,459.3,72.4
			L459.3,72.4z M456.3,74.2v0.2V74.2L456.3,74.2z M450.4,93.7c-0.1-0.2-0.2-0.3-0.3-0.5C450.3,93.3,450.4,93.5,450.4,93.7
			L450.4,93.7z M440.7,140.9L440.7,140.9c-0.1,0-0.1-0.1-0.1-0.1l0,0L440.7,140.9z M546.2,198.9c0,0.2,0.1,0.4,0.2,0.6l-0.2,0.1l0,0
			C546.1,199.3,546.2,199.1,546.2,198.9L546.2,198.9z"/>
		<path class="st1" d="M79.4,109.3l0.1,0.1L79.4,109.3z"/>
		<path class="st1" d="M100.4,16.1c0.3-2.9,2.5-1.3,2.4-4c0-0.1,0-0.2,0-0.3c0.1-0.5,0.2-1.1,0.6-1.2s0.6,0.5,0.8,0.9
			c1.4,2.7,1.2,1.1,0.1,3.9c0,0.4,0,0.8,0,1.2c0.1,1.3-0.7,3.2,0.5,3.8c0.9,0.4,1.2-1.6,1.8-2.4c0.3-0.4,0.7-1.1,1.2-0.7
			s0.2,1.1-0.1,1.6c-0.7,1.3-1.2,2.6-1.5,4c1.4,0.3,2.5-1.2,3.8-0.5l0,0c1.4-2.1,2.9-8,5.4-8c-0.9,2.8-2.1,9.1-4.3,10.3
			c-0.8,0.3-1.3,1.3-1,2.1c0.2,0.3,0.3,0.6,0.5,0.9c0.3,0.8-1.3,1.2-0.3,2.1s1.6,0.1,2.4-0.5l0,0l0.5-0.7c0-0.1,0-0.2,0-0.3
			c0.8-1.6,1.5-3.3,3.4-1.9c0.5,0.4,1.5-1.7,2.1-0.6c0.7,1.3-1.3,1.3-1.4,2.3c-0.2,1.7-1.5,3.2-1,5.1c1.3-0.2,1.6-2.2,3.5-2.1
			c-2.2,1.8,0.8,5-2.4,6.1c1.7,1.2,3-0.2,4.2,0.1c0.6,1.2-1.2,1.3-0.4,2.9c1.1-2.8,2.1-0.9,2.8,0.1s-0.2,1.9-1.1,2.2l0,0
			c-0.5,0.5-1.2,0.8-1.9,0.8l0,0c0.4,2.4-0.7,3.4-2.4,4.1c-0.4,0.2-1.6,0.6-1.2,0.9c2.3,1.7-0.9,1.7-0.5,2.7
			c1.3,0.8,2.2-0.6,2.9-0.8c1.2,0.7-1.7,3.9,1.6,2.8c1-2.5,2.9-4.1,4.7-6.5c-0.4,3.2-1.8,6.2-4.1,8.4l0,0c0.1,0.9,0.3,1.4,1,0.5
			c1.1-1.1,2.4-2,3.8-2.5c1.4-1.5,11-5.4,12.5-6.3c0.6-0.4-8.5,6.1-7.8,6.2c8.7,1.1-1.4,0.8-0.9,1.8c1.2,2.2,7.3,1.4-1.2,2.2l0,0
			c-1.2,1.6-3.1,0.8-4.4,2.2c0.1,1.1,1.4,0.7,1.4,1.9c1.1,2.4,1.1,2.4,2.4,2.5c2.4-0.1,4.8-1.8,7.2,0.4c-0.8,1-1.6,0.6-2.3,0.8
			c-1.2,1.4-3.3-0.4-4.3,1.7l0,0c0.2,2-1.4,1.8-2.2,2.3c-1.6,1-3.7,6.6-3,8.6c0.1,0.2,0.4,0.1,0.7,0.2l0,0l1.1-0.7l0,0
			c1.2-1,2.6-1.5,3.4-3c-0.1-0.2-0.1-0.4,0.1-0.6c0.1-0.1,0.2-0.1,0.4-0.2c2-0.9,3.8-2.4,5-4.3c0.6,1.6-0.6,2.2-0.2,3.3
			c0.8-0.5,1.6-0.9,2.4-1.4s1.5-1.3,1.9-0.3s-0.6,1.3-1.1,1.9c-0.2,0.2-0.4,0.4-0.6,0.6c-0.4,0.3-0.9,0.6-0.8,1.3
			c0.2,1,0.9,0.6,1.4,0.8l0,0c0.4,0,1.1-0.1,1.1,0.2c-0.1,3.2,1.6,2,2.8,1.9c0.6,0,1.3-0.5,1.7,0.5c-0.9,1.1-2.1,1.8-3.5,1.9
			c-1.3,0.2-2.6,0.7-3.7,1.4c-1.9,1.4-2.7,4.2-4.9,5l-2.5,1.8c-0.9,1.6-1.8,3.2-3.4,3.7c-0.3,0.6-1.2,0.5-1.3,1.7h2.9
			c1.3-0.9,2.8,1.1,4-0.6c0.8-1,1.6-2,2.4-3c0.4-0.5,0.9-1.6,1.2-0.9c0.5,1,1.9,1.1,1.8,1.8c-0.8,3.4,1.4,2.3,2.5,2.7
			c1.6,0.7,8.6-2.4,10.9-4.2c0.5-0.4-0.7,4.2-1,4.8c-0.4,0.8-1.2,1.2-2.1,1.3l-0.5,0.7l0.5,0.6l0,0c1.6-0.8,8-3.2,9.5-2.8
			c0.1,1.2-6.2,4.1-5.7,5.3c0.5,1,1.1,1.6,2.2,1.5c0.4-0.1,1.1-0.1,1.1,0.7s1,8.6-2.4,4.2c-3.2,1.8-9.9,1.5-13.4,1.5l0,0
			c-0.5,0.9-1.3,0.8-2,1.1l0,0c0.1,2.8-1.7,2.1-2.9,2.5l0,0c0.2,0.8,0.2,1.7-0.1,2.5c-0.4,1.4,0.1,2.5,1.5,2.3l0,0l1,0.6
			c2.3-1.3,12.8-4,15.6-4.8c-0.1,0.4-0.3,0.8-0.5,1.1c-1.5,2.2-2.3,4.2,0.8,5.4l2.4,0.1l0,0c0.5-0.6,1.1-1,1.7-0.5
			c0.6,0.6,0.7,1.6,0.4,2.3c-0.3,0.9-0.5,1.2,0.4,1.2c0.7-0.9,1.7-0.1,2.4-0.7c1.1-1.4,2.1,0.5,3.1,0.4c0.1,0.2,0.2,0.5,0.1,0.7
			c-0.7,1.2-1.7,0.8-2.7,0.8l0,0c-1.3,0.8-2.8,1.3-4.3,1.3l0,0c-1.7,1-3.8,1.3-5.2,3.8c2.5-0.6,4.5,0.4,6.6,0.1
			c1.4-0.2,3.8-0.9,4.1,0.9c0.3,2.1-2.3,1.4-3.4,2.4c0,0.6-0.3,1-0.9,1.2c-2.2,0.8-4.5,0.8-6.7,1.1l0,0l-0.2,0.1h-0.2
			c-1.2,0.8-11.2,0.5-12.4,0c-1.2-0.5-2.6-0.5-3.9,0c-1.1,0.4-1.7,1.5-1.4,2.7c0,0.1,0.1,0.2,0.1,0.3c0.5,1.2,1.4,1.6,2.4,0.5
			c0.7-0.7,1.7-1.2,2.7-1.2c0,0.1,0,0.3-0.1,0.4c0-0.1,0-0.3,0.1-0.4c0.9-0.5,1.7,1,2.7-0.1c0.6-0.7,1.7-1.5,2.3-0.3
			c0.5,0.9-0.8,1.5-1.2,2.3c0.3,3.1-2.1,3.4-3.4,4.9c0.4,1.4,1,1.8,1.9,0.7s1.6-4.2,1.9,0.2c0,0.6,1,0.5,1.6,0.4
			c1-0.2,7.4-3.2,8.4-3.4l2.3-1c1.8-0.6,5-1.1,6.6-2.1c1,4.3-11.1,8.6-13.6,10.8l0,0c1.1,1.8,3.1,0.6,4.4,1.8
			c0.8,0.8,1.3,2.6,2.7,1.7s3-0.9,4.5-1.1c0.5-0.1,1.4-1.1,1.6,0.2c0.1,0.8-0.2,1.9-1.3,1.6c-0.1,0.1-0.3,0.1-0.4,0.1l0,0
			c-1.3,1-3.2,0.7-4.2,2.5c0.4,0.9,1.7-0.7,1.6,1c3-1.3,5.8,0.1,8.6,1.1c-1,0.6-2,1.2-3.2,0.7c-0.7,0.2-1.6-0.2-2.1,0.5
			c-2.2,3.5-5.4,2.5-8.3,2.6l-0.2,0.1h-0.2l0,0c-3.3,0-4.9,2.8-6.4,5.7c-0.4,0.6-0.4,1.4,0,2c0.5,0.7,0.7-0.3,1.1-0.5
			c0.8-0.3,1.5-0.8,2.1-1.4c0.7-0.8,1,0,1.2,0.7c1.8,0.4,13.8,1.1,15.2-1c0.8-1.3,1.6-0.4,2.4-0.1l0,0c0.7-0.6,1.3-1.6,2.5-0.9
			c-1.3,1.1-1,2.9-1.6,4.4c-0.1,1.8,1.5-0.1,1.7,1c0,1.2-1.4,1.1-1.3,2.2c0.6,0.7,1.4-0.6,2.1,0.5c-0.3,1.1-1.9,1.3-1.4,3
			c0.7,2.4,2,0.3,3,0.6l0,0c2.1-2.2,5-1.4,7.2-3.3c-0.1,0.7-0.5,1.3-0.4,1.5c2,3.1-1,2.4-1.8,3.2c-0.6,0.5-1.3,0.9-2,1.1l0,0
			c-0.4,0.8-1,0.5-1.5,0.5c-0.1,0.5-1.1,0.3-0.5,1.2l0,0l1-0.1c0,0,0.1-0.1,0.2-0.1c1.6-0.7,3.3-1.2,4.9,0.6c-0.9,1-2.4,0-2.5,1.9
			c2.5-0.3,5,0.3,7.2,1.5c-1.1,1.3-2.3,0.9-3.4,1l0,0c-4.7,0.1-9.3,0.1-14,0.2c-0.8,0,0.4,4.6-0.2,4c-0.5,0.4-4.1-0.6-4.6,0.2
			c0.9,4.7,1.7-4,2.1-3.8l0,0c0.5,2-12.2,1.3-12,3.2c2.7-0.1,5.5-1.6,8.1,0.5c0.6-0.7,1.4-0.9,1.8,0.1s-0.6,1.1-1,1.6
			c-0.4,0.3-0.8,0.6-1.2,0.9l0,0c0.8,0.8,1.6,1.6-0.1,2.4c-0.2,0.1-0.3,0.2-0.5,0.4c0.2-0.1,0.4-0.2,0.5-0.4c-0.1,0.7,0.1,1,0.8,1.1
			s0.9,0.7,0.3,1.4l0,0l-0.5,1.2c0.2,0.5-0.3,2.4,1.1,0.9c0.5-0.5,1.2-0.6,1.8-0.4l0,0l1-0.6l0,0c1.5-1.2,3.5-1.3,4.5-3.5
			c0.2-0.4,1,0,0.8,0.6c-0.5,1.4,0.6,3.4-1.2,4.2l0,0c0.9,0.7,1.9,1.4,0,2.3c-0.7,0.2-1,0.9-0.8,1.5c0,0,0,0,0,0
			c0.3,1,3.4,1.9,4.2,1.2c0.4-0.4,0.8-1,1.5-0.8l0,0c0.5,0,1,0,1.5-0.1c1-0.1,2.1-2.1,2.7-0.6c0.5,1.2-1.5,1.5-2.1,2.5
			c0,0.1-0.1,0.2-0.1,0.4c0.6,0.6,1.7,0.2,1.8,1.7l-2.8,0.9l0,0l-0.4,0.7l0,0c0.5,2.3,2,0.6,2.9,1.1l0,0c2.9-2,4.8-2.5,7.7-1.9
			c-2.9,2.2-5.7,4.1-9.1,3.8l0,0c-0.5,1.1-1.7,0.6-2.2,1.5c0.3,0.9,1.6,0.4,1.4,1.8c-0.7,0.4-1.3,0-1.9-0.2
			c-3.3-1.1-6.5-1.6-9.9-0.4c-1.9,0.6-4,1.6-6.2,0.9c-1-0.3-2-0.2-2.9,0.1l0,0c-0.2,0.5-1,0.6-0.8,1.4s0.8,0.5,1.3,0.5
			c1.1,0,2.3-0.1,3.4-0.1l0,0c2.3,0,4.5,0.7,6.3,2c-3.1,0.6-6.2,1.8-9.3,0.5c-0.1-0.1-0.1-0.1-0.2-0.2l0.2,0.2
			c-0.4,0.3-1.2-0.2-1.3,0.7c-0.1,0.6,0.4,0.9,0.8,1.2l0,0c2.1,1.5,0.4,3.5,0.3,5.1c-0.1,1.4-1.2,1.6-2.4,1.1
			c-0.4-0.1-0.8-0.1-1.2,0.2c-2.1,1.4-3.9,0.5-5.6-0.9l0,0c-1-0.4-1.9-1.2-3-0.4c-0.8,0.6-1.5,0.2-2-0.4c-2.9-3.2-6.2-4-10-2.6
			c-1.6,0.6-2,0-1.9-2.1l0,0c-0.4-1.4-1.8-0.8-2.4-1.8c-1.9-0.7-3.8,0.1-5.7-0.3c-0.7-0.2-1.9-0.4-1.1,1.4c0.4,0,0.8,0.3,0.7,0.8
			c-0.1,0.2-0.4,0.4-0.7,0.6l0,0c-0.7,1.3,0.3,0.8,0.7,0.9c1.7,0.5,3.7,0,4.7,2.5l0,0c2.3,0.3,4.5,0.6,6.8,1c0.9,0.2,2.2,0.3,2,1.9
			c-0.2,1.5-1.3,1-2.3,1.1c-1.9,0.1-4.2-0.7-5.6,2.1l0,0l-0.1,0.1c-2.1,1.5-3.9,0.1-5.8-0.6l0,0c-0.4,0.1-1,0-1.1,0.2
			c-0.3,0.5,0.2,0.8,0.5,1.1s0.7,0.8,1,1.2c0.2,0.6-0.1,0.7-0.5,0.8c-1.2-0.2-1.8-1.6-2.8-2.4c-0.1-0.1-0.2-0.2-0.3-0.3h-0.8
			l-0.1,0.4c-1.4,3-2.8,1.4-4.2,0.4c0.4,0.7,0.4,1.5,0,2.2l-0.7,0.6c-2,1.5-2.7-1.9-4.4-1.7c-0.4-0.3-0.6-0.8-0.6-1.3
			c-0.4-0.5-0.6-1.2-0.6-1.8l0,0c-0.9,0.5-1.7,1.1-2.3,2c-0.2,0.1-0.6,0.4-0.6,0.4c-1-2.2-2.3-1.5-3.7-0.8c-0.1,0.2-0.2,0.3-0.4,0.5
			c-0.5,0.3-1.1,0.2-1.4-0.3h-0.5c0,0.1-0.1,0.2-0.1,0.2c-0.3,0.2-0.7,0.1-0.9-0.2c0,0,0,0,0,0l-0.5-0.6c-2.2,0.2-4.1,1.7-5.9,3.1
			l0,0c-0.3,0.6-0.9,0.8-1.5,0.6c-0.8-0.1-0.4-1.5-0.9-1.6c-2.5-0.5-2.2-1.9-0.5-3.7l-6.2-1.2c0.7-0.6,1.4-1.2,2.2-1.6
			c2.3-0.8,0.6-1.5,0-2.2l0.3,0.1l-0.3-0.1V224l0,0c0.7-1,0.4-1.2-0.5-1.1c-0.7,0-2,0.8-1.9,0c0.5-3-1.9-2.4-2.7-3.7
			c-0.4,0.2-0.8,0.3-1.2,0.4c-1.3,0.2-3-0.2-1.9,2.7c0.3,0.9-0.5,1.5-1.2,0.7c-0.5-0.6-0.9-0.9-1.3,0c-0.4,0.6-0.3,1.4,0.2,1.9
			c0.4,0.4,0.7,0.9,1,1.4c0.4,0.6,1.2,1.2,0.8,2c-0.5,1.1-1.1,0.1-1.6-0.3c-0.7-0.6-0.9,0-1.3,0.5c-2,2.7-2.4-3.5-4.4-1.3
			c-0.2-0.3-0.5-0.6-0.5-0.9c-0.1-0.8,0.4-1.2,0.8-1.7l3.1-4c-2.3-0.2-4.3-0.6-6.3,0.4c-1.4,1.3-2.9,0.6-4.4,0.7
			c-0.6,0-1.4,0.4-1.8-0.5s1.1-0.8,0.8-1.8c-1-0.3-2.1,0.3-3-0.6l0,0c-0.7-0.3-1.2,0.9-1.9,0.4c-2,0.8-3.3,2.9-4.9,4.4
			c-0.2-0.1-0.3-0.1-0.5-0.2c0.2,0.1,0.3,0.2,0.5,0.2c-0.4,0.7-1.1,1.4-1.6,0.7c-1.2-1.7,1.5-2.1,1-3.8H39c-1.9,0.1-3.7,0.4-5.5-0.6
			c-0.8,0-1.6,0.3-2.5-0.6c1-1,2-0.7,2.9-0.8l0,0c1.1-0.6,2.3-1.4,3.5-0.8c1.7,0.8,2.9-0.7,4.4-1.1c1.2-0.3,1.5-3.4,0.7-4.7l0,0
			c-3.5,0.1-3.5,0.1-2.9-3.1l0,0c-2.2-2.4-2.2-2.5,0.3-4.1c0.2-0.1,0.2-0.4,0.4-0.6c1-1.4,3.3-1,3.5-3.6c0.2,0,0.5,0,0.7,0.1
			c1.3,0.8,2.9,0.7,3.9,2.2l0,0l0.5,0.5l0,0c0.9-0.9,2.4-0.9,3.3,0.1c0,0,0.1,0.1,0.1,0.1l0,0c0.4-0.5,1.5-0.8,0.6-1.7
			s-0.6-2.2-1.1-3.2c-1.5-0.7-2.6-1.9-3.3-3.4l4.9,1.5c1-0.6,1.5,1.3,2.5,0.6l0,0c0-0.5,0-0.9-0.4-1.2l0,0c-1-0.4-0.6-1.1,0-1.4
			c0.8-0.5,2.3-0.4,1.9-2.1c-0.3-1.4-1.7-0.4-2.5-0.6c-0.2,0-0.3,0-0.5,0c-0.9,0.1-1.8,0.3-2.5-0.7l0,0c-1-0.4-2-0.4-3.1-0.2
			c-0.4,0.1-1.3,0-0.9-0.7c1.1-2.1-1-1.2-1.1-2l0,0c-3.4-0.8-7-0.3-10.2-3.7l4.9,0.6l0,0l5.5-2.5l0,0l-0.5-0.6
			c-2.5-0.2-0.6-2.7-1.3-3.8c1-0.9,1.6,0.1,2.3,0.7l0,0c1.9,0.5,3.2-1.8,5.4-1.2c-1.3-2.1-3.3-2.7-3.8-5.1c2.4,0.4,4.7,0.3,5.9,3.3
			c1.4,2.4,1.4,2.5,2.3,1.3l0,0c-1.2-2.8,1.5-2.3,2.1-3.7c-2.5-0.7-3.5-2.9-3.7-6c2,1.6,3.5,4,6.1,3.3c0.5-0.1,1,0.3,1.1,0.9
			c0,0,0,0,0,0.1l0,0l2,0.6c0.6-0.2,1.3,0.1,1.6-1.1c0.1-0.9,0.8-1.5,1.7-1.5c0.1,0,0.1,0,0.2,0l0,0c1.6-0.1,1.3-3,3-3l2-0.3
			c0,0,0-0.1,0-0.1c-1.5-1.2-2.5-2.2-4-1.9c-1.4,0.3-2.9,0.1-4.2-0.6c0.5-1,1.1-0.6,1.6-0.6s1.3,0.3,1.8-0.5c-3.2-1.9-4-1.8-6.5,1.5
			l0,0c-0.5,1-1.4,0.8-1.5,0.1c-0.4-2.6-1.7-1.8-3-1.5c-1,0.2-2.4-0.4-2.1-1.7c0.9-3-1-3.1-2.2-4.1l0,0l-2-0.1
			c-1.7,0.9-3.8,0.8-5.3-0.5c2.4-0.8,4.7-2.2,7.3-1.3l0,0l1.5-1.2c-0.6-0.8-0.6-1.8,0-2.6c-1.2-1.2,0.2-1.8,0.6-2.5s1.2-0.7,1.8,0.2
			l0,0c0.6,0.4,1.1,1,1.7,1c1.9,0.1,3.7-1.1,5.7-0.2c0.3,0.2-0.1-0.9-0.1-1.4l0,0l-0.3-0.7c-0.1-2.8-2.5-2.1-3.5-3.5
			c-1.5-0.7-1.7-2.6-2.3-4.1c1.6-1,1.9,1.4,3,1.7c0.1,0,0.2,0.3,0.3,0.4l0,0c1.5,0.5,2.4,2,3.6,2.9c1.1-0.5,1.1-2,1.8-2.9
			s1.6-1.8,2.2-0.8c0.9,1.6,2.3,1.1,3.4,1.9c0.5,0.3,1.1,1,1.6,0.3s-0.3-1.2-0.5-1.7c-0.3-0.6-0.7-1.1-1.1-1.6l0,0
			c-0.1-0.1-0.3-0.2-0.4-0.3c-1.8-0.7-1.7-0.7-1.8-2.6c0-0.3-0.4-0.6-0.6-0.8c-0.5-0.5-1.3-0.3-1.6-1.1l0,0c-0.4-0.9-1.1-1.5-2-1.7
			l0,0c-0.9,0.2-1.8-0.2-2.6,0.3c-0.5,0.3-1,1.4-1.7,0.5c-0.5-0.7,0.8-1.2,0.4-1.9h-4.6c-1.3,0.5-2.5,3.6-4,0
			c-0.3-0.6-2.1-0.3-3.9-0.5c3.2-2.1,5.5-4.1,8.5-1.6l0,0c0.1,0,0.2,0,0.4,0l0,0c0.8-1,1.9-0.2,2.8-0.9c-0.6-1.3-1.8-1.2-2.6-1.8
			c-0.4-0.2-0.8-0.6-0.6-1.1s0.6-0.5,1-0.5c0.6-0.1,1.2,0.2,1.5,0.6l0,0c1.9-1.2,3.9-0.4,5.9-0.4l0,0c1.5-1,2.2-2.3,1.1-4.3
			l-0.5-0.6c-3.1,0-1.2-3.9-3.3-5.2c1.6-0.1,2.1,0.9,2.5,1.6c1,1.4,1.8-1.5,2.1-0.3c0.8,2.6,2.3,1.4,3.6,1.5c0.5-0.3,0.8-1,1.5-0.6
			c0.4-2,1.2-3.1,3.1-2.4c1,0.4,2.1-0.2,3.1,0.4c0.6,0.4,1.1-0.1,1.1-1.1l-2-1.1c-1.6,0.2-2.8-0.1-3-2.5c-0.9-0.3-1.6-1-2-1.8l0,0
			c-0.6-0.1-0.7-0.7-1-1.2c-0.1-0.2-0.3-0.3-0.4-0.4l0.3,0.3c-1.2-0.9-3.3,3.2-3.9-0.9c-0.2,0.1-0.5,0.1-0.7,0.1
			c-0.9-0.1-1.8-0.2-2.7-0.3c-1.3,0.4-6.6,1.4-8.1,0.7l0,0c-1.3-0.4-2.9,0.2-4.2-1.2c1.7-1.3,3.6-0.1,5.1-1.2
			c-0.4-1.1-1.7-0.8-1.7-2.4c2.1,0.1,7.7,2.5,10.1,2.1c-0.9-0.8-1.2-1.9-2-2.2c-0.5-0.2-1.2-0.5-1-1.4s1-0.5,1.5-0.4
			c1.2,0.2,2.4,0.6,3.6,0.8c0.8,0.2,1.6,0.8,2.2-0.4c-1-0.5-2.2-0.5-3.4-1.7c1.4-0.4,2.5,0.4,3.4-1c0.7-1.1,1.8-0.7,2.6,0.1l0,0
			l1.9,1.5l0,0c1.6-0.4,1.7-1.2,0.5-2.4l0,0L72,95.4l0,0c-1.1,0.1-1.2-1.3-1.9-2c-0.4-0.4-1.3-0.9-0.6-1.9c0.5-0.7,0.7-1.8,1.8-1.5
			c0.6,0.1,1.1,0.1,1.7,0c0.1-1.4,2.4-2.3,0.7-4.2c-0.2-0.2,0.5-0.6,0.9-0.6c1-0.1,1.9,0.4,2.4,1.3l0,0c2-0.5,4.1,0.5,4.9,2.4
			c0.1,0.2,0.4,0.3,0.6,0.5l0,0c0.5-0.7,0.9-1.5,0.9-2.3l0,0l-0.5-0.5c-1.2-1-2.8-1.5-3-3.7c-1.8-1.8-4.2-0.6-6.1-1.5
			c0.3-1.3,1.7-0.5,1.6-1.7s-1.2-1.1-2-1.3s-4.9-2.3-5.6-2.2c-2.7,0.2-4.3-2-6.1-4c3.1,0.8,9.7,3.4,12.8,4.2c0.6-0.5,0.1-1,0-1.5
			l0,0c-0.8-0.3-5-2.2-5.7-2.7c-0.9-0.6-2.2-1.8-1.8-2.7c0.5-1.4,5,2,5.9,2c0.4,0.1,0.8,0.2,1.2,0.4c1.2,0.8,2.8,0.7,3.4,2.4
			c0.6-0.2,1.2-0.5,0.7-1.4c-0.4-1-0.4-2-0.1-3c-1.4-0.7-0.5-2-0.5-3l0,0c-1.9,0-3.9,0.5-5.8-0.7c0.4-0.6,1.1-0.8,1.8-0.6l0.9-0.5
			l0,0c2.4-2.1,4.8-0.6,7.3,0c-0.2-0.4-0.5-0.8-0.8-1.1c-0.3-0.3-1-0.3-0.8-1.3c0.9,0,1.8,0,2.7,0c1.2-0.1,1.1-0.8,0.6-1.7
			c-6.3-4.9-14.4-5.5-16.4-11.1c0.9,0.1,9.5,5.8,7.9-1.3c-0.8-3.8,6.8,9.1,7.7,7.4c0.1,0,0.3,0,0.4,0.1c0.6,0,1.1-0.6,1-1.2
			c0,0,0-0.1,0-0.1l0,0c-0.4-0.4-1.2-0.9-0.4-1.5c1-0.7-0.1-1.1,0-1.6l0,0c-0.7-1.7-2.3-1.5-3.4-2.7c3.6-0.4,7.1-0.6,10.5-1.9
			c0.6-0.2,2.2,1.2,1.6-1.3l0,0c-0.6,0.2-1-0.3-1.4-0.7c-2.1-0.3-3.7-1.8-5.5-3c-1,0.2-1.7-0.6-2.5-1c-0.6-0.3-0.2-1.3-1.2-1.5
			c-7.1-1.1,1.2-0.6,1.8-0.3c0.3,0.1,0.6,0.2,0.9,0.4l0,0c0.7-0.6,0.3-2.4,0.5-2.3c1.4,0.8,3-0.5,4.3,0.5l0,0l0,0
			c1.8,0.3,3.2-0.8,4.6-2l0,0c-1.4-0.4-1.2-3.3-3-2.8s-3.3-0.8-4.6-2.1c0.9-1.7,3.8,2.1,3.7-2.3c2.5,0.8,4.1,1.7,5.9-0.1
			c0.7-0.7,2.6,3.7,3.2,2.7s0.1-2.1-0.4-3.1c-3-1.8-5.9-0.5-11.7-7c2.5-0.1,6.5,3.8,8.4,3.8l-0.6-3.2l2.4,2.7
			c1.5,0.3,1.1-0.4,2.1-2.6l0,0c-0.4-0.5-0.7-1.1-1-1.7c-0.2-0.5-0.7-1.1-0.2-1.6s1,0.1,1.5,0.4c0.9,0.7,1.4,2.8,2.6,2
			c1-0.7,0.3-2.6,0.4-3.9c0-0.4,0-0.8,0-1.2l0,0 M69.2,131.2L69.2,131.2L69.2,131.2z M134.5,227.9L134.5,227.9l0.2-0.1L134.5,227.9z
			 M179.5,181.2c0,0.1,0,0.2,0,0.3C179.6,181.4,179.6,181.3,179.5,181.2L179.5,181.2z M148.8,220.3c-0.2,0.1-0.4,0.2-0.5,0.5
			c0.3,0.2,0.8,0.3,1.1,0.1C149.2,220.7,149,220.5,148.8,220.3L148.8,220.3z M146.7,120.7L146.7,120.7L146.7,120.7
			C146.7,120.7,146.7,120.7,146.7,120.7L146.7,120.7z M86.4,110.7L86.4,110.7L86.4,110.7L86.4,110.7z M68.3,205.8L68.3,205.8z
			 M144.6,203.3L144.6,203.3c-0.3,0.3-0.4,0.7-0.4,1.1l0.1-0.4C144.3,203.7,144.4,203.5,144.6,203.3L144.6,203.3z M149.9,208.3
			L149.9,208.3z M89.5,127.6L89.5,127.6h0.5C89.9,127.5,89.7,127.5,89.5,127.6z M102.2,104.1L102.2,104.1z M116.6,65.5L116.6,65.5
			L116.6,65.5L116.6,65.5C116.6,65.5,116.6,65.5,116.6,65.5L116.6,65.5z M118.7,99.1c0.2,0.2,0.4,0.4,0.6,0.6
			C119.6,99.2,119.2,99.1,118.7,99.1z M140.9,185h-0.1l0.1,0.1L140.9,185z M122.6,181.5L122.6,181.5
			C122.6,181.6,122.6,181.6,122.6,181.5L122.6,181.5z M109.8,142.7L109.8,142.7L109.8,142.7z M111,140.3c-0.4,0.1-0.6,0.4-0.5,0.9
			C110.7,140.9,110.8,140.6,111,140.3L111,140.3z M108.3,127.5L108.3,127.5L108.3,127.5z M105.2,160.9L105.2,160.9L105.2,160.9z
			 M106.8,113.1L106.8,113.1z M106.8,113.1L106.8,113.1L106.8,113.1z M123.6,174.7L123.6,174.7L123.6,174.7
			C123.6,174.8,123.6,174.7,123.6,174.7L123.6,174.7z M105.3,168.3L105.3,168.3L105.3,168.3L105.3,168.3L105.3,168.3z M98.3,178.6
			L98.3,178.6L98.3,178.6z M127,134.9L127,134.9z M133.4,171.9L133.4,171.9L133.4,171.9L133.4,171.9z M122,182.9L122,182.9l0.2,0
			L122,182.9L122,182.9L122,182.9z M121.6,182.3L121.6,182.3z M102.8,79.7L102.8,79.7z M125.8,132.9L125.8,132.9L125.8,132.9z
			 M127.1,134.9L127.1,134.9L127.1,134.9z M115.9,99.1L116,99C115.9,98.8,115.9,98.9,115.9,99.1z M122.4,120.6
			c0.2,0.2,0.5,0.3,0.8,0.2C123,120.7,122.7,120.6,122.4,120.6L122.4,120.6z M111,177.2l-0.1,0.2l0.2-0.1L111,177.2z M95.6,148.1
			c-0.2-0.2-0.4-0.1-0.5,0.2C95.2,148.3,95.4,148.2,95.6,148.1z M97.4,203.7v-0.1l-0.1,0.1C97.4,203.7,97.4,203.7,97.4,203.7z
			 M100.9,87.6L100.9,87.6c-0.1,0.1-0.1,0.2-0.1,0.3C100.8,87.9,100.8,87.8,100.9,87.6z M91.7,132.2c0-0.1,0-0.3,0.1-0.4l-0.2,0.4
			C91.6,132.2,91.6,132.2,91.7,132.2z M101.3,68.1L101.3,68.1L101.3,68.1z M108.3,205.8c0-0.1,0-0.1,0-0.2l-0.1,0.2L108.3,205.8z
			 M102.3,204.6L102.3,204.6z M76,192.9c-0.1-0.1-0.3-0.1-0.4,0C75.7,192.9,75.9,192.9,76,192.9z M97.4,73.5L97.4,73.5L97.4,73.5
			l0.1-0.1C97.4,73.4,97.4,73.5,97.4,73.5L97.4,73.5z M126.1,78.5L126.1,78.5z M126.1,78.7v-0.2H126L126.1,78.7z M138,156.7
			L138,156.7z M127.6,204L127.6,204L127.6,204L127.6,204L127.6,204z M119.2,48.1L119.2,48.1L119.2,48.1L119.2,48.1z M125.5,207.6
			L125.5,207.6z M105.4,205.9L105.4,205.9l-0.1,0.1C105.4,206,105.4,206,105.4,205.9L105.4,205.9z M72.2,188.1L72.2,188.1
			L72.2,188.1z M83,185.8L83,185.8L83,185.8L83,185.8L83,185.8z M86,137.9L86,137.9L86,137.9L86,137.9z M133.5,113.1L133.5,113.1z
			 M66.2,208.2L66.2,208.2L66.2,208.2L66.2,208.2L66.2,208.2z M74.6,182.1L74.6,182.1z M74.6,182.1L74.6,182.1z M74.6,182.1
			L74.6,182.1z M83.6,138.9v0.1h0.1L83.6,138.9z M92.8,85.1L92.8,85.1L92.8,85.1L92.8,85.1L92.8,85.1z M98.8,55.3L98.8,55.3
			L98.8,55.3z M98.8,55.3L98.8,55.3L98.8,55.3z M148.1,211.7c-0.1-0.3-0.2-0.6-0.2-0.9l-0.7,0.8
			C147.6,211.6,147.9,211.7,148.1,211.7L148.1,211.7z M110.2,33.5L110.2,33.5z M130.5,86.1L130.5,86.1l0.2-0.1l-0.2-0.1V86.1z
			 M149.5,154.7c-0.1,0.1-0.2,0.2-0.2,0.4c-0.1,0.7-0.1,1.2-0.2,1.5C149.5,156.1,149.7,155.4,149.5,154.7L149.5,154.7z M52.4,204.1
			c-0.1,0-0.2,0-0.2,0.1L52.4,204.1z M78.7,161L78.7,161L78.7,161L78.7,161L78.7,161z M83.8,145.6L83.8,145.6L83.8,145.6z
			 M155.2,157.7c0,0,0,0.1,0,0.1h0.1L155.2,157.7z M148.9,159.7L148.9,159.7L148.9,159.7L148.9,159.7z M163.4,196.1
			c0,0.1,0.1,0.2,0.1,0.3l0.1-0.1C163.5,196.2,163.4,196.1,163.4,196.1z M74.6,170.7l0.2-0.3C74.7,170.5,74.6,170.6,74.6,170.7z
			 M62.9,162.3L62.9,162.3L62.9,162.3L62.9,162.3z M80.1,140.9L80.1,140.9z M158.1,141.8c0,0,0-0.1,0-0.1H158L158.1,141.8z"/>
		<rect x="-0.6" y="223.7" class="st1" width="719.3" height="398.6"/>
		<rect x="555.4" y="511.6" class="st1" width="62.3" height="16.6"/>
	</g>
</g>
</svg>
