<?xml version="1.0" encoding="utf-8"?>
<!-- Generator: Adobe Illustrator 21.1.0, SVG Export Plug-In . SVG Version: 6.00 Build 0)  -->
<svg version="1.1" id="Layer_1" xmlns="http://www.w3.org/2000/svg" xmlns:xlink="http://www.w3.org/1999/xlink" x="0px" y="0px"
	 viewBox="0 0 720 558.4" preserveAspectRatio="none" style="enable-background:new 0 0 720 558.4;" xml:space="preserve">
<style type="text/css">
	.st0{fill:#03141E;}
</style>
<title>Artboard 1</title>
<path class="st0" d="M264.1,226.3L264.1,226.3l-0.9-0.1l0,0c-0.2-0.1-0.6-0.1-0.6-0.2c-0.2-2.4-1.3-1.2-2.4-1.1
	c-1.9,0.4-3.9,0.4-5.8,0c1.6-1.9,3.9-2,4.4-4.5c-0.7-0.3-1.7-0.2-2.3-1.2l0,0c1-1.2,2.2-2.2,3-3.8c-1.1-0.3-1.2,0.9-1.8,1.2l0,0
	c-0.9-0.4-1.8-1.6-2.4,0.4h-0.3l-0.6-1.7l0,0l1.8-2.5c-1,1.2-2.4,0.7-3.5,0.9c-0.7-0.1-1-0.5-0.5-1.2c0.4-0.8,0.6-1.7,0.5-2.5l0,0
	c1-1.7,2.6-2.4,4-3.3c0.3-0.2,0.3-0.2,0.1-1l0,0c-0.7-0.8-1.6,0.6-2.2-0.5l0,0c0.9-0.9,2.5-0.8,2.9-2.2c0.3-1.1-1.5-1.8-0.5-3.9
	l-4.1,3.6c-0.9-1.6,0.3-3.2-0.7-5c-0.2,2-1.6,2.5-1.9,4.1c-0.4,2.5-1.1,0.7-1.7,0.1c-1.3-0.7-1.1,0.5-1.1,1.3c0,0.8,0.1,1.6,0.2,2.4
	c-1.3,0.7-2.7-2-4,0.1l0,0c-2.1-3,0.7-3,1.7-4.2c-0.6-0.5-1.7-1-0.1-1.8c0.8-0.6,1.5-1.2,2.2-1.9c-2.1,1.2-4.3,1.3-6.6,1.4
	c-1.5,0.1-2.7,1.1-3.2,2.5l0,0l-0.8,0.2l0,0c-1.1,0.5-2.5,0.2-3.2-0.8c-0.6-0.7,0.1-1.7,0.5-2.5h0.9l0,0c2.4,0,4.7-0.3,7-0.8
	c-1.7-1.2-1.9-3.3-0.8-5.8l0,0c2.1-0.2,4.2-0.3,6.4-1.9c-1.6-0.3-2.7,0.6-3.8-0.2l0.9-0.7l1.9-1c0.7-0.9,2.1-0.7,2.6-2.6l-3.6,1.8
	l0,0l-0.3-1c-1.5,0.8-3.7-1-4.7,1.8l0,0l-0.5,0.5l0,0c-0.8,0.4-1.7,0.3-2.4-0.2c0.2-1,1.2-1.1,1-2.2c-1.3,0.2-2.4,0.7-3.5,1.5
	c-0.5-2.2-2-1.3-3.1-1.6c-0.5-0.1-0.9-0.3-0.8-1l0,0l3.1-1.6l0,0c0.6-0.2,1.1-0.5,1.7-0.7s1-0.3,0.8-1s-0.7-0.4-1.1-0.4
	c-0.7,0-1.4,0.7-2.3,0l1.5-5l0,0c0.4-0.9,0.5-1.5-0.5-0.8s-2,1-3.1,0c1-1.3,2.4-2,3.1-3.7c-1.7-0.7-2.6,2-4.2,1.2l0,0l0.1-1.1l0,0
	c1.5,0.5,1.1-2.1,2.5-2.1s1.7-2.1,0.8-3.3c-0.3-0.3-0.3-0.7-0.1-1.1l0,0c0.9-0.7,2.2-0.7,2.4-2.5c-2.6-0.6-2.6-0.6-1-3.1
	c0-0.1,0-0.2,0-0.3c1-1.4,1.7-2.9,2.2-4.5c-1.6,1-2,2.6-2.7,3.9c-0.8,0.5-1.5,1.3-1.9,2.2c-0.6,1.3-1.2,0.6-1.8,0
	c-1.1-0.9-0.8-2.6-1.2-4.2c0.1,3-1.1,5.1-1.9,7.4c-0.7,0-0.9-1.4-1.6-0.9c-0.3,0.2-0.2,1.3-0.2,1.9l0,0c-1,0.3-1.7,1.1-1.8,2.2l0,0
	c-1.2,0.1-1.7-0.8-1.7-2.1c0.6-0.6,0.3-1.4,0.4-2.1l0,0c0.8-1.4,1.1-3.2,2.8-3.9c-1-0.9-2.4,1.9-2.8-1c1.6-0.2,3.2-0.7,4.6-1.6
	c-1.1,0.2-2.3,0-3.4-0.5c1-2.1,2.5-3.2,3.8-5c-2.6,0.8-3.7,3.7-5.9,4.7c-0.8-0.8-1-1.9-0.7-3l0,0c0.6,0.2,1.1,1,1.8,0.7
	c0.3-1.2-1.4-0.5-1-1.6s2.1,0.5,1.9-0.9c-0.3-1.8,0.7-1.4,1.3-1.8c0.9-0.4,1.7-1.1,2.2-1.9l-3.7,1.1c-0.8-1.4,0.5-2.1,0.8-3
	c0.6-2.1,1.6-4,2.6-6.6c-1.6,1.1-1.8,2.6-2.3,3.7c-0.8,1.7-1.1,4-3.4,3.1c-0.2,2.2-1.9,1-2.7,1.7l0,0c-1.4,0.4-2.7-0.6-4.1-0.5l0,0
	l0.2-1.1l0,0l0,0c2.9,0.1,0.7-1.8,0.8-2.8l0,0l2.9-2.7c-1.5-0.8-2.5,0.4-3.5,0.8s-1.6,0.3-1.2-1.2c0.2-0.7,0.8-0.6,1.2-0.7
	s0.7-0.5,0.2-1l0.1-1l0,0c0.1,0,0.2-0.1,0.3-0.2c-0.1-0.3-0.2-0.5-0.2-0.8c0,0.3,0.1,0.6,0.2,0.8c1.2,0.1,2.3-0.1,1.8-2.1l-0.1,0.1
	l0.1-0.1c-1.3-1.6,0-2.5,0.7-3.3c-2.6-1.3,0.7-2.8-0.3-4.2c-0.6,1-1.1,2.1-1.7,3s-0.9,2.3-2.2,2.8c0.2-1.6-2-2.3-0.9-4.3l0.2-0.3
	l-0.6-0.3c0.1-0.4-0.6-0.6-0.1-1c0.8-0.5,1.7-0.6,2.2-1.9c-1.1-0.3-1.8,0.7-2.6,0.8l0,0c-0.3-0.2-0.4-0.6-0.2-0.9
	c0,0,0.1-0.1,0.1-0.1c1.3-1.5-0.3-1.1-0.7-1.6c0.2-0.3,0.8-0.8,0.7-0.9c-0.6-1.5,0.6-3.1-0.3-4.6c0-0.1,0.1-0.2,0.1-0.3l1.3-3.8
	l-0.4-0.3l-1.5,3.1l0,0c-1-0.9-0.4-2-0.1-2.9c0.6-2,0.6-4.1,0-6.1c-0.8,2.7-0.5,5.8-2.1,8.1c-0.5-0.8-1.6,0.9-1.9-0.6
	c-0.2-0.7-0.4-1.3-0.6-2c-0.2-0.4-0.1-0.6-0.8-0.1c-1.6,1.2-0.1,1.9,0.1,2.7l0,0c-0.8,2.3,0.6,3.2,1.8,4.3c0,0.8,0.4,2.1-1.1,1.1
	c-1-0.7-1.9-1.8-3.3-1.7c1.3,1.2,2.2,2.6,2.8,4.3c-1.1,0-1.8-1-3-0.4c1.1,0.7,2,1.6,2.8,2.6c0.1,0.3,1.1,0.6,0.1,0.8
	c-0.8,0-1.5-0.1-2.3-0.4l-0.1,0.3l3.5,1.5c-0.6,1.1-1.3-0.5-2,0c0.6,1.2,1,2.5-0.7,2.7c-1,0.1-1.2,1.1-1.8,1.7c-1-1,0.8-2.5-0.4-3.6
	c-0.8,0.7-0.8,1.8-1.1,2.8l0,0l-0.7-0.6c-1.6-1-2.8-2.9-4.8-3.3l3.7,4c-0.1,0.2-0.1,0.4-0.1,0.6c-0.3,0.8-1.6,0.4-1.8,1.3
	c0.4,1,1.7,0,2,1.3c-0.7,1-2,1.4-3.1,1c1.2,1.5,3.6,2.1,1.1,4c0.9,0.9,2.4-0.3,2.9,1.4l0,0c0,1.5,1,1,1.7,1.1
	c0.1,0.1,0.1,0.1,0.1,0.2l-0.1-0.2c0.2,0.8-0.1,1.3-0.8,1.5l-4.1-1.3c0.6,0.9,1.5,1.6,2.6,2.1l0,0c0.3,0.5,0.5,1.1,1.2,1
	c1.5,1.6-1,1.4-0.7,2.6c0.8-0.4,1.7-0.6,2.6-0.6c0.2,0.1,0.4,0.1,0.6,0.1l0,0c-0.1,0.7-0.8,1.4,0.1,2.1l0,0
	c-0.1,0.2-0.1,0.3-0.1,0.5c-0.1,0-0.3,0-0.4,0.1l0,0c-1.8,0.2-3.5-1-5.5-0.6c-1.3,0.3-1.2,2.4-2.5,2l0,0c-1.2-1.9-2.3-4-4.8-5.3
	c1,2.1,2.5,2.6,2.8,4.3c-0.6,0.9-1.4-0.4-2.1,0.3c0.2,0.8,1.2,0.8,1.2,1.8c-1,0.5-1.4-0.6-2.2-0.9c-0.5-1-1.5-1.6-2.6-1.5l1.8,2.1
	l0,0c0.3,1.7,1.7,2,2.6,2.9c0.3,1.7,0.6,3.5,1.8,4.7l0,0l0.5,2.7c-0.7-0.3-1.5-0.6-2.3-0.8c-0.5-0.1-1.3-1-1.5,0.5
	c-0.1,0.7-0.8,1.5,0.4,1.7c0.5,0.2,0.7,0.7,0.6,1.1c0,0,0,0.1-0.1,0.1c-0.3,0.7-0.7,1.4-1.3,1.6s-0.6-0.5-0.8-1.1
	c-0.4-1.3-0.9-0.3-1.3,0.2l0,0l-0.6,0.9l0,0c-2-1.2-3.2-4-5.8-4.8c0.5,1.1,1.1,2,2,2.8c-1.6,0.9-1.6,0.9-0.8,1.6l0,0l0.1,1.6
	c-0.5,0.7-0.2,2-1.2,2.3l0,0c-0.8,1.9-1.9,2.8-3.7,2c-0.6-0.7-1.3-0.7-2.7-0.2l2.7,1.1l0,0c0.5,0.7,2.6,0.1,1.4,2.3
	c0.9,0.6,0.5,3,2.3,2.2l0,0c1.2,0.5,2.6,0.1,3.9,1.5c-0.4,0.1-0.8,0.2-1.2,0.3c-0.8,0.4-3-0.1-0.9,2.1c0.3,0.3,0.3,0.7,0,0.9
	c-0.2,0.2-0.4,0.2-0.7,0.2c-0.6-0.1-1.1-0.5-1.7,0.2c0,0.7,1.2,0.4,0.9,1.4c-1.4,0.3-2.6-1.7-4-0.7c-1.2,0.9-2-0.9-3.1-0.5
	c-1.1-1.1-1.6-3-3.3-3.7c0.1,1.4,1.2,2,1.1,3.2l0,0c0,0.7-0.1,1.3-0.9,1c-1.6-1-3.1-2.2-5-2c1.2,0.5,1.9,1.6,2.7,2.5l0,0
	c1.2,1.3-0.5,1.4-0.7,2.3c1.4,0.5,2.9,0.6,4.3,0.4c0.3,0.7,1.9-1.1,1.4,1.1c-0.1,0.6,0.8,1.4-0.4,1.7c-0.6,0.1-2,0.5-1.2,1.3
	s0.5,3.2,2.6,2.2s4.4-0.1,6.5,0.8c-0.3,0.6,0.4,1.5-0.4,1.8c-1.4,0.5-0.6,1.6-0.5,2.5c-0.1,1.9-0.9,1.3-1.8,0.8
	c-1.6-0.8-2.7-2.7-4.8-3.1c1.2,2.3,4,2.5,3.6,5.6h0.2c-0.1,1.3-0.7,1.7-1.5,1c-1.4-1.2-2.8-1-4.4-0.3c0.9,0.2,1.4,1.2,2.2,1.5l0,0
	c0,0.7-1.1,1.7,0.4,2.1c1,0.2,0.1,0.4-0.1,0.6s-0.9,0.5-0.3,1.2c-0.5,1.9-2.1,1.4-3.2,2.1c0.1,0,0.2,0.1,0.2,0.1l-0.2-0.1
	c-1.8-0.3-3.9,0.4-5.3-1.8c-0.9,0.1-1.8-1.5-2.5-0.6s-0.8,0.4-1.5,0.4c-2-0.2-2.9-2.3-4.6-3.4c0.9,2.5,0.6,2.3-1.2,2.8
	c-1.4,0.4-2.7-0.2-4.1,0c1.8,1.4,4.1,1.3,5.8,3.5c-1.3,0.3-2.3-0.2-3.4,0.8c0.9,0.3,1.9,0.5,2.8,0.6c1.6,0,3.2-0.1,4.6,1.3l-0.4,1.1
	l0,0c-0.5,1.4-2.1,0.5-2.7,1.8c1.8,1.2,3.5,1.8,5.4,0.9l0,0c0.4,0,0.9,0,1.3,0.1c0.5,0.1,1.4,0,1.3,1s-1-0.1-1.5,0.5
	c0.7,0.4,1.9,0.7,1.9,1.1c0,2.1,1.3,1.2,2.1,1.6c0.9,1,0.8,1.6-0.5,1.7c-0.9,0.1-1.9-0.4-2.8,0.4l0,0c-0.5,0.3-1.4-0.1-1.8,1.5
	c3.9,0.5,6.4,4,9.9,6c-2.2-0.4-3.7,3-6.6,0.5c-2.2-1.9-3.8-2.2-4.5-4.9c0-0.1-0.2,0-0.5-0.1c0.2,1.3,0.4,2.4-1.2,1.3
	c-0.7-0.5-1.8-0.2-2.6-0.5c-1.3-0.5-2.8,0.5-3.9-1c-0.6-1.3-1.6-2.3-2.9-2.8c-0.5,1,0.9,1,0.5,1.8c-1.1,0.5-2-0.9-3.2-0.1
	c1.1,1.3,2.5,1.7,3.7,2.4l0.4,0.5c-0.9,1.3-2.6-0.4-3.6,1.2c0.9,0.5,1.8,0.7,2.8,0.8c0.8,0,1.6,0.1,2.4,0.2c1.2,0.3,2.1,1.1,2.6,2.2
	c0.4,0.7-0.9,0.7-1.5,1c-1.6-0.1-3.2,0.3-4.6,1.1c-0.1-0.1-0.2-0.1-0.4-0.1c-1.9-2.5-4.4-1.7-6.8-1.6l4.5,2.1l0,0
	c0.5,0.9,0,0.9-0.6,1.1s-1.6-0.9-2.3,0.3c1.9,0.8,3.7,1.7,5.8,1.3c0.5-0.1,1.1,0.2,1.2,0.8c0,0,0,0.1,0,0.1c0.1,0.9-0.6,0.8-1.1,1
	c-0.8,0.3-1.8-0.6-2.6,0.8c2.1-0.5,2.7,2.4,4.4,2.5c0,0.7,0,1.7,0.6,1.7s0.8-1,0.9-1.8l0,0c0.6-0.6,1.4-0.8,2.2-0.6
	c0.7,0.9,2.6-0.3,2.3,2.1l0,0l0.1,1l0,0l-0.1,2.3l0,0c-0.6,0.2-1.3-0.2-1.9,0.5l-0.9,0.5c-1-0.9-1.6-0.4-1.4,1
	c0.2,0.9-0.3,0.5-0.5,0.7l0,0l-2.1,0.4c-1.9-0.5-3.9-0.6-5.9-0.3c1,0.6,2.2,0.6,3.1,1.5c-0.5,1.9,1,2,1.7,2c2.4,0.1,4.4,1.4,6.6,2.2
	l0,0c-0.7,0.9-1.8,0.9-2.6,1.4s-2,1.1-1.9,2.7c0.1,1.2,0.9,2.2,2.1,2.5c1.7,0.5,3.5,0.8,5.3,1.1c10,1.1,20.1,1.4,30.1,1.6
	c12.4,0.3,24.8,0.2,37.2-0.5c3.8-0.2,7.5-0.2,11.2-0.6c3.4-0.4,6.9-0.6,10.3-1.5c1.2-0.2,2.2-1.1,2.5-2.3c0.4-1.5-0.6-2.2-1.6-2.9
	c-0.3-0.2-0.5-0.4-0.8-0.7c1.1-0.2,1.2-1,1.1-1.9l1.1-0.4c1-0.3,2.2,0.5,3.1-0.9c-0.9-0.7-2.2-0.9-3.3-0.4c-0.8-1.1,1.4-2.8-0.9-3.6
	l3.1-1.2c0.4,0,1,0.2,1.1,0.1c0.9-2.5,2.3-1.3,3.9-0.2c-2.1-3.6-2.3-4.3-2.3-5.9c0.6-1.1,1.9-1.8,3.1-1.7l0,0
	c1.3,0.3,2.3-0.4,3.4-1.3c-1.1-0.6-2.1,0.2-2.9-0.7l0.3-0.2c1.8-0.7,3.3-1.9,4.5-3.4c-0.4-0.1-0.9,0.1-1.2,0.4
	c-1.4,1.9-3.2-0.4-4.8,0.5c-0.2,0.1,0.5-1.1-0.1-1.5c-0.9,0.7-1.6,1.7-2.1,2.8l0,0l-1.3,0.9c-0.8-0.5-0.3-1.1-0.1-1.8l0,0
	c0-1-1.1-0.3-1.3-1l0,0c0.7-0.8,0.9-2.2,1.9-2.7l0,0l2.1-0.5l0,0c1.7,0.6,3.1,0.7,2.4-2.3c-0.2-1,0.4-1.1,0.9-1.5h0.2l0.2-0.1l0,0
	h0.9c1.4,0.2,2.5,0.1,1.8-2.2l0,0l0.8-0.6c1.2-0.7,2.3-1.6,3.1-2.8C267.5,224.8,266.1,226.8,264.1,226.3z M234.2,196.8l-0.1-0.1
	l0.1-0.2C234.2,196.7,234.2,196.7,234.2,196.8L234.2,196.8z M253.7,243.6L253.7,243.6L253.7,243.6z M197.2,161L197.2,161
	c0,0.2-0.1,0.3-0.1,0.5C197.1,161.3,197.2,161.1,197.2,161L197.2,161z M246.9,256.1L246.9,256.1z M161.9,260c0-0.1,0-0.2-0.1-0.2
	C161.9,259.8,161.9,259.9,161.9,260L161.9,260z M223.8,177.5l0.1,0.1h-0.1C223.8,177.6,223.8,177.6,223.8,177.5L223.8,177.5z
	 M228.8,260.5h-0.1H228.8L228.8,260.5L228.8,260.5L228.8,260.5z M194.9,219.6L194.9,219.6L194.9,219.6z M211.4,198.6h-0.2l-0.2-0.1
	C211,198.1,211.3,198.5,211.4,198.6L211.4,198.6z M205.4,225.7L205.4,225.7L205.4,225.7L205.4,225.7z M213.4,200.1L213.4,200.1
	c0.1,0,0.3,0,0.4,0H213.4L213.4,200.1z M218.4,203.4L218.4,203.4L218.4,203.4L218.4,203.4L218.4,203.4L218.4,203.4z M213.8,196.1
	l0.1-0.3l0.1,0.1L213.8,196.1z M214.6,191l-0.2-0.1l0,0l0,0C214.5,190.9,214.6,190.9,214.6,191L214.6,191z M211.6,194.2L211.6,194.2
	L211.6,194.2L211.6,194.2z M202,197.5c0-0.1,0-0.2-0.1-0.3l0.4,0.1L202,197.5z M206.5,179.4L206.5,179.4L206.5,179.4z M193.8,246.7
	L193.8,246.7C193.7,246.7,193.7,246.7,193.8,246.7L193.8,246.7z M244.2,225.7L244.2,225.7z M194.8,258.2l0.2,0.1l-0.1,0.1
	L194.8,258.2z M222.6,182.8L222.6,182.8c0.1,0.1,0.1,0.1,0.2,0.2L222.6,182.8z M214.6,178.3l0.3,0.2h-0.3
	C214.6,178.4,214.6,178.4,214.6,178.3L214.6,178.3z M195.9,257.7L195.9,257.7L195.9,257.7z M192.7,185.4L192.7,185.4z M244.7,247.4
	L244.7,247.4v0.1V247.4L244.7,247.4z M249.5,236.9L249.5,236.9L249.5,236.9z M200.2,187.5L200.2,187.5z M251.9,231.6L251.9,231.6
	L251.9,231.6L251.9,231.6L251.9,231.6z M178.3,233.9C178.3,233.9,178.3,233.9,178.3,233.9L178.3,233.9L178.3,233.9z M251.4,232.2
	L251.4,232.2L251.4,232.2z M248.7,213.9v-0.1V213.9L248.7,213.9z M234.4,212.5h-0.3c0.1-0.1,0.2-0.3,0.3-0.4
	C234.4,212.2,234.4,212.4,234.4,212.5L234.4,212.5z M225.6,175.2L225.6,175.2L225.6,175.2z M219.3,166.8L219.3,166.8z M201.8,155.1
	L201.8,155.1L201.8,155.1L201.8,155.1z M178.7,222.9L178.7,222.9L178.7,222.9z M246.9,256.1L246.9,256.1L246.9,256.1L246.9,256.1z
	 M158.3,252.4l-0.2-0.1C158.2,252.3,158.3,252.4,158.3,252.4L158.3,252.4z M253.2,246.8L253.2,246.8L253.2,246.8L253.2,246.8z
	 M247.9,205.7L247.9,205.7l-0.2-0.2L247.9,205.7z M244.1,189.7L244.1,189.7z M235.1,176.4l0.2-0.1L235.1,176.4z M194.9,153l-0.1-0.1
	l0,0c0.1-0.1,0.2-0.1,0.3-0.2C195,152.7,194.9,152.8,194.9,153z M192.8,154.2v0.1V154.2L192.8,154.2z M188.5,167.5
	c-0.1-0.1-0.1-0.2-0.2-0.4C188.4,167.2,188.5,167.3,188.5,167.5L188.5,167.5z M181.5,199.6L181.5,199.6
	C181.5,199.6,181.5,199.6,181.5,199.6L181.5,199.6L181.5,199.6z M257.8,239c0,0.1,0,0.3,0.1,0.4h-0.1l0,0
	C257.7,239.3,257.7,239.1,257.8,239L257.8,239z"/>
<path class="st0" d="M397.5,268.7L397.5,268.7l0.6-0.1l0,0c0.1-0.1,0.4-0.1,0.4-0.2c0.1-2.5,0.9-1.3,1.6-1.1c1.3,0.4,2.7,0.4,4,0
	c-1.1-2-2.7-2.1-3.1-4.8c0.5-0.4,1.2-0.2,1.6-1.3l0,0c-0.8-1.3-1.5-2.6-2.1-4c0.8-0.3,0.9,0.9,1.2,1.2l0,0c0.6-0.5,1.3-1.6,1.7,0.4
	h0.2l0.4-1.8l0,0l-1.2-2.6c0.7,1.3,1.6,0.7,2.5,1c0.5-0.1,0.7-0.5,0.4-1.3c-0.3-0.8-0.4-1.8-0.4-2.6l0,0c-0.7-1.8-1.8-2.5-2.8-3.5
	c-0.2-0.2-0.2-0.2-0.1-1.1l0,0c0.5-0.8,1.1,0.6,1.6-0.5l0,0c-0.6-1-1.7-0.9-2-2.3c-0.2-1.1,1.1-1.9,0.3-4.1l2.9,3.8
	c0.6-1.7-0.2-3.3,0.5-5.2c0.1,2,1.1,2.6,1.3,4.3c0.3,2.6,0.8,0.7,1.2,0.1c0.9-0.8,0.8,0.5,0.8,1.4s-0.1,1.6-0.1,2.5
	c0.9,0.8,1.9-2.1,2.8,0.1l0,0c1.4-3.1-0.5-3.1-1.2-4.4c0.4-0.5,1.2-1,0.1-1.9c-0.6-0.6-1.1-1.3-1.5-2c1.3,1,2.9,1.5,4.6,1.5
	c0.9,0.1,1.8,0.9,2.2,2.6l0,0l0.5,0.2l0,0c0.8,0.5,1.7,0.2,2.2-0.8c0.4-0.7-0.1-1.8-0.4-2.6h-0.6l0,0c-1.7-0.1-3.3-0.3-4.9-0.8
	c1.2-1.3,1.3-3.4,0.5-6.1l0,0c-1.7-0.1-3.3-0.8-4.5-2c1.1-0.3,1.9,0.6,2.6-0.3l-0.6-0.7l-1.3-1c-0.5-0.9-1.5-0.7-1.9-2.8l2.5,1.9
	l0,0l0.2-1c1,0.9,2.6-1,3.3,1.9l0,0l0.4,0.5l0,0c0.6,0.2,1.2,0.5,1.7-0.2c-0.1-1-0.8-1.2-0.7-2.3c0.9,0.2,1.8,0.8,2.4,1.5
	c0.3-2.3,1.4-1.4,2.2-1.7c0.4-0.1,0.6-0.3,0.5-1.1l0,0l-2.1-1.9l0,0c-0.4-0.2-0.8-0.5-1.2-0.7c-0.4-0.1-0.7-0.6-0.6-1.1
	c0.1-0.8,0.5-0.5,0.8-0.4c0.5,0.1,1,0.7,1.6,0l-1-5.2l0,0c-0.3-0.9-0.4-1.6,0.4-0.9s1.4,1,2.2,0c-0.7-1.4-1.7-2.1-2.2-3.8
	c1.2-0.7,1.8,2.1,2.9,1.2l0,0l-0.1-1.1l0,0c-1,0.6-0.8-2.2-1.7-2.2s-1.2-2.2-0.6-3.5c0.2-0.4,0.2-0.8,0.1-1.2l0,0
	c-0.6-0.7-1.5-0.8-1.6-2.6c1.8-0.6,1.8-0.6,0.7-3.3c0-0.1,0-0.2,0-0.3c-0.7-1.5-1.2-3.1-1.6-4.7c1.1,1.1,1.4,2.7,1.9,4.1
	c0.6,0.6,1.1,1.4,1.3,2.3c0.4,1.4,0.8,0.6,1.2,0c0.8-1,0.5-2.7,0.9-4.4c-0.1,3.1,0.8,5.4,1.4,7.8c0.5,0,0.6-1.5,1.1-0.9
	c0.2,0.7,0.2,1.3,0.2,2l0,0c0.8,0.5,1.3,1.3,1.2,2.3l0,0c0.9,0.1,1.2-0.8,1.2-2.2c-0.4-0.6-0.2-1.5-0.3-2.3l0,0
	c-0.5-1.5-0.8-3.4-1.9-4.1c0.7-1,1.7,1.9,1.9-1c-1.2-0.2-2.3-0.8-3.2-1.7c0.8,0.2,1.7,0,2.3-0.5c-0.7-2.2-1.7-3.4-2.6-5.2
	c1.8,0.9,2.6,3.9,4.1,4.9c0.6-1,0.7-2.1,0.5-3.2l0,0c-0.4,0.2-0.7,1-1.2,0.8c-0.2-1.2,0.9-0.5,0.7-1.7s-1.5,0.5-1.3-0.9
	c0.2-1.9-0.5-1.5-0.9-1.9c-0.7-0.5-1.2-1.2-1.5-2l2.6,1.1c0.5-1.4-0.3-2.2-0.5-3.2c-0.5-2.2-1.1-4.2-1.8-6.9
	c1.1,1.1,1.2,2.7,1.6,3.9c0.5,1.8,0.8,4.2,2.4,3.3c0.1,2.3,1.3,1,1.9,1.7l0,0c1,0.4,1.9-0.7,2.9-0.5l0,0l-0.1-1.1l0,0l0,0
	c-2,0.1-0.5-1.9-0.5-2.9l0,0l-2-2.9c1-0.9,1.7,0.4,2.5,0.8s1.1,0.3,0.9-1.2c-0.2-0.8-0.5-0.6-0.9-0.7s-0.5-0.5-0.2-1.1l-0.1-1l0,0
	c-0.1,0-0.2-0.1-0.2-0.2c0.1-0.3,0.2-0.6,0.2-0.9c0,0.3-0.1,0.6-0.2,0.9c-0.9,0.1-1.6-0.1-1.2-2.2v0.1v-0.1c0.9-1.7,0-2.6-0.5-3.5
	c1.8-1.4-0.5-2.9,0.2-4.4c0.4,1.1,0.8,2.2,1.2,3.2s0.6,2.4,1.5,2.9c-0.1-1.7,1.4-2.4,0.7-4.5l-0.2-0.3l0.4-0.3
	c-0.1-0.4,0.4-0.6,0.1-1.1c-0.5-0.5-1.2-0.7-1.5-2c0.8-0.3,1.2,0.8,1.8,0.9l0,0c0.3-0.3,0.3-0.8,0.1-1.1c-0.9-1.5,0.2-1.2,0.5-1.6
	c-0.2-0.3-0.5-0.8-0.5-1c0.5-1.6-0.4-3.3,0.2-4.8c0-0.1,0-0.2-0.1-0.3l-0.9-4l0.3-0.3l1.1,3.3l0,0c0.7-1,0.2-2.1,0.1-3
	c-0.4-2.1-0.4-4.3,0-6.4c0.6,2.8,0.4,6,1.5,8.5c0.3-0.9,1.1,1,1.3-0.6c0.1-0.7,0.3-1.4,0.5-2.1c0.1-0.4,0.1-0.7,0.5-0.2
	c1.1,1.3,0.1,2,0,2.9l0,0c0.5,2.4-0.4,3.4-1.3,4.5c0,0.9-0.3,2.2,0.7,1.2c0.7-0.7,1.3-1.9,2.3-1.8c-1,1.3-1.6,2.9-1.9,4.5
	c0.8,0,1.3-1.1,2.1-0.4c-0.8,0.8-1.5,1.7-2,2.7c0,0.3-0.8,0.6-0.1,0.9c0.5,0.2,1-0.3,1.6-0.4l0,0.4l-2.5,1.6c0.5,1.2,0.9-0.5,1.4,0
	c-0.4,1.3-0.7,2.6,0.5,2.8c0.7,0.1,0.9,1.1,1.2,1.8c0.7-1.1-0.6-2.6,0.3-3.7c0.5,0.9,0.7,1.9,0.8,2.9l0,0l0.5-0.6
	c1.1-1,1.9-3.1,3.3-3.5l-2.6,4.2c0,0.2,0,0.4,0,0.7c0.2,0.9,1.1,0.4,1.2,1.4c-0.3,1.1-1.2,0-1.4,1.3c0.5,0.9,1.1,1.5,2.1,1.1
	c-0.8,1.5-2.5,2.2-0.7,4.2c-0.6,1-1.7-0.4-2,1.5l0,0c0,1.6-0.7,1.1-1.2,1.2c0,0.1-0.1,0.1-0.1,0.2l0.1-0.2c-0.1,0.9,0,1.4,0.5,1.6
	l2.9-1.4c-0.4,0.9-1,1.6-1.8,2.2l0,0c-0.2,0.5-0.4,1.1-0.8,1.1c-1,1.6,0.7,1.5,0.5,2.7c-0.5-0.4-1.1-0.7-1.8-0.6
	c-0.1,0.1-0.3,0.1-0.4,0.1l0,0c0.1,0.7,0.5,1.5-0.1,2.2l0,0c0,0.2,0,0.3,0,0.5c0.1,0,0.2,0.1,0.3,0.1l0,0c1.3,0.2,2.4-1.1,3.8-0.6
	c0.9,0.4,0.8,2.5,1.8,2.1l0,0c0.8-2,1.6-4.2,3.4-5.6c-0.7,2.1-1.7,2.7-1.9,4.5c0.4,1,1-0.4,1.4,0.3c-0.1,0.8-0.9,0.8-0.9,1.9
	c0.7,0.6,1-0.7,1.5-1c0.4-1,0.9-1.6,1.8-1.6l-1.3,2.2l0,0c-0.2,1.8-1.2,2.1-1.8,3c-0.2,1.8-0.4,3.7-1.3,4.9l0,0l-0.4,2.8
	c0.5-0.3,1-0.6,1.6-0.9c0.4-0.1,0.9-1,1,0.5c0,0.7,0.6,1.5-0.3,1.8c-0.4,0.1-0.5,0.8-0.3,1.3s0.5,1.4,0.9,1.6s0.5-0.5,0.6-1.1
	c0.3-1.4,0.6-0.4,0.9,0.2l0,0l0.4,1l0,0c1.4-1.3,2.2-4.2,4-5c-0.3,1.1-0.8,2.1-1.4,3c1.1,0.9,1.1,0.9,0.6,1.7l0,0l-0.1,1.7
	c0.4,0.7,0.2,2.1,0.9,2.4l0,0c0.6,1.9,1.3,3,2.6,2.1c0.5-0.7,0.9-0.8,1.9-0.2l-1.9,1.2l0,0c-0.4,0.8-1.8,0.1-1,2.4
	c-0.6,0.6-0.4,3.1-1.6,2.3l0,0c-0.8,0.5-1.8,0.1-2.7,1.6c0.3,0.1,0.6,0.2,0.9,0.3c0.5,0.4,2.1-0.1,0.6,2.2c-0.3,0.5-0.1,1.3,0.5,1.2
	s0.8-0.5,1.2,0.2c0,0.7-0.8,0.4-0.6,1.5c1,0.3,1.8-1.8,2.8-0.7c0.8,0.9,1.4-0.9,2.2-0.5c0.8-1.2,1.1-3.1,2.3-3.9
	c0,1.5-0.8,2.1-0.8,3.4l0,0c0,0.7,0.1,1.3,0.6,1c1.1-1,2.1-2.4,3.5-2.1c-0.8,0.5-1.3,1.7-1.9,2.7l0,0c-0.9,1.4,0.4,1.5,0.5,2.5
	c-0.9,0.5-2,0.7-3,0.4c-0.2,0.8-1.3-1.1-1,1.2c0.1,0.6-0.6,1.4,0.3,1.8c0.4,0.1,1.4,0.5,0.9,1.4s-0.3,3.4-1.8,2.3s-3.1-0.1-4.5,0.9
	c0.2,0.6-0.3,1.5,0.3,1.9c1,0.6,0.4,1.7,0.3,2.6c0,2,0.6,1.4,1.2,0.9c1.1-0.9,1.9-2.8,3.4-3.2c-0.8,2.4-2.8,2.6-2.5,5.9h-0.1
	c0.1,1.3,0.5,1.8,1,1c1-1.2,2-1,3.1-0.3c-0.6,0.2-1,1.2-1.5,1.6l0,0c0,0.8,0.7,1.8-0.3,2.2c-0.7,0.2-0.1,0.4,0,0.6s0.6,0.5,0.2,1.2
	c0.4,2,1.5,1.4,2.2,2.2c-0.1,0-0.1,0.1-0.2,0.1h0.3c1.3-0.3,2.7,0.4,3.7-1.8c0.6,0.1,1.2-1.6,1.8-0.6s0.5,0.5,1,0.4
	c1.4-0.3,2-2.4,3.2-3.5c-0.6,2.6-0.4,2.4,0.8,2.9c1,0.4,1.9-0.2,2.8,0.1c-1.3,1.4-2.9,1.4-4,3.7c0.9,0.3,1.6-0.2,2.4,0.9
	c-0.6,0.3-1.3,0.5-2,0.6c-1.1,0-2.2-0.1-3.2,1.4l0.3,1.2l0,0c0.4,1.4,1.5,0.6,1.9,1.9c-1.2,1.2-2.4,1.9-3.8,0.9l0,0
	c-0.3,0-0.6,0-0.9,0.1c-0.4,0.1-1,0-0.9,1.1s0.7-0.1,1,0.5c-0.5,0.4-1.3,0.8-1.3,1.1c0,2.2-0.9,1.2-1.4,1.6
	c-0.6,1.1-0.5,1.7,0.4,1.8c0.6,0.1,1.4-0.5,2,0.5l0,0c0.4,0.3,1-0.1,1.2,1.5c-2.7,0.5-4.5,4.2-6.9,6.2c1.5-0.4,2.6,3.1,4.6,0.5
	c1.5-2,2.6-2.3,3.1-5.2c0-0.1,0.2,0,0.4-0.1c-0.2,1.4-0.3,2.5,0.9,1.4c0.5-0.5,1.2-0.2,1.8-0.5c0.9-0.5,1.9,0.5,2.7-1
	c0.3-1.2,1-2.3,2-3c0.3,1.1-0.6,1.1-0.4,1.9c0.8,0.5,1.4-1,2.2-0.1c-0.8,1.4-1.7,1.8-2.6,2.5l-0.3,0.5c0.6,1.4,1.8-0.5,2.5,1.3
	c-0.7,0.4-1.3,0.9-2,0.8c-0.6,0-1.1,0.1-1.7,0.2c-0.9,0.5-1.6,1.3-1.8,2.3c-0.3,0.8,0.6,0.8,1,1c1.2-0.1,2.3,0.3,3.2,1.1
	c0-0.1,0.1-0.1,0.2-0.1c1.3-2.6,3.1-1.8,4.7-1.7l-3.1,2.2l0,0c-0.4,1,0,1,0.4,1.1s1.1-0.9,1.6,0.3c-1.3,0.8-2.6,1.8-4,1.4
	c-0.4-0.1-0.8,0.1-0.8,1s0.4,0.8,0.8,1c0.5,0.3,1.3-0.6,1.8,0.9c-1.4-0.5-1.9,2.5-3.1,2.6c0,0.7,0,1.8-0.4,1.8s-0.5-1-0.6-1.8l0,0
	c-0.5-0.5-0.9-0.9-1.5-0.6c-0.5,0.9-1.9-0.3-1.6,2.3l0,0v1l0,0v2.4l0,0c0.4,0.3,0.9-0.2,1.3,0.5l0.6,0.6c0.7-0.9,1.1-0.4,1,1
	c-0.1,1,0.2,0.5,0.4,0.8l0,0l1.5,0.5c1.3-0.5,2.7-0.6,4.1-0.3c-0.7,0.7-1.5,0.7-2.1,1.6c0.3,2-0.7,2.1-1.2,2.1
	c-1.6,0.1-3.1,1.4-4.6,2.3l0,0c0.5,1,1.2,0.9,1.8,1.4c0.9,0.6,1.4,1.7,1.3,2.8c-0.1,1.4-0.7,2.4-1.5,2.6c-1.2,0.5-2.4,0.9-3.7,1.1
	c-7,1-14,1.6-21,1.7c-8.6,0.3-17.3,0.2-25.9-0.5c-2.6-0.1-5.2-0.3-7.8-0.7c-2.4-0.5-4.8-0.6-7.1-1.5c-1-0.4-1.7-1.4-1.8-2.4
	c-0.2-1.1,0.2-2.3,1.1-3c0.2-0.2,0.4-0.5,0.5-0.7c-0.8-0.2-0.8-1-0.8-1.9l-0.8-0.4c-0.7-0.3-1.5,0.6-2.2-0.9
	c0.5-0.7,1.5-0.9,2.3-0.5c0.6-1.2-1-2.9,0.6-3.8l-2.1-1.3c-0.2,0-0.7,0.2-0.7,0.1c-0.7-2.6-1.6-1.3-2.7-0.2c1.5-3.8,1.6-4.5,1.6-6.2
	c-0.2-1-1.1-1.8-2.2-1.8l0,0c-0.9,0.3-1.6-0.5-2.4-1.4c0.8-0.7,1.5,0.2,2-0.7l-0.2-0.2c-1.3-0.9-2.4-2.1-3.1-3.5
	c0.3-0.1,0.7,0.1,0.8,0.4c1,2,2.2-0.4,3.3,0.6c0.1,0.1-0.4-1.1,0-1.6c0.7,0.9,1.2,1.9,1.4,2.9l0,0l0.9,0.9c0.5-0.5,0.2-1.2,0.1-1.8
	l0,0c0-1.1,0.8-0.3,0.9-1.1l0,0c-0.5-0.9-0.6-2.3-1.3-2.8l0,0l-1.5-0.5l0,0c-1.2,0.6-2.2,0.8-1.7-2.4c0.2-1.1-0.3-1.2-0.6-1.6h-0.1
	l-0.1-0.1l0,0h-0.6c-1,0.2-1.8,0.1-1.2-2.3l0,0l-0.6-0.7c-0.9-0.8-1.7-1.8-2.2-2.9C395.1,267.1,396.1,269.1,397.5,268.7z
	 M418.3,237.8l0.1-0.1l-0.1-0.2C418.3,237.6,418.3,237.7,418.3,237.8L418.3,237.8z M404.8,286.8L404.8,286.8z M444.1,200.2
	L444.1,200.2c0,0.2,0,0.3,0.1,0.5C444.1,200.5,444.1,200.3,444.1,200.2L444.1,200.2z M409.5,299.9L409.5,299.9z M468.7,303.9
	c0-0.1,0-0.2,0-0.2C468.6,303.7,468.6,303.8,468.7,303.9L468.7,303.9z M425.5,217.5l-0.1,0.1h0.1
	C425.5,217.6,425.5,217.5,425.5,217.5L425.5,217.5z M422,304.4L422,304.4L422,304.4L422,304.4L422,304.4L422,304.4z M445.6,261.6
	L445.6,261.6L445.6,261.6z M434.1,239.6h0.1l0.1-0.2C434.5,239.1,434.3,239.5,434.1,239.6L434.1,239.6z M438.3,268L438.3,268
	L438.3,268L438.3,268z M432.7,241.2L432.7,241.2c-0.1,0-0.2,0-0.3,0H432.7L432.7,241.2z M429.3,244.7L429.3,244.7L429.3,244.7
	L429.3,244.7L429.3,244.7z M432.5,237l-0.1-0.4l-0.1,0.1L432.5,237z M431.9,231.6l0.1-0.1l0,0l0,0C432,231.6,432,231.6,431.9,231.6
	L431.9,231.6z M434,235L434,235L434,235L434,235z M440.7,238.4c0-0.1,0-0.2,0.1-0.3l-0.3,0.1L440.7,238.4z M437.5,219.5L437.5,219.5
	L437.5,219.5z M446.5,290.1L446.5,290.1C446.5,290.1,446.5,290.1,446.5,290.1L446.5,290.1z M411.3,268L411.3,268z M445.8,302.1
	l-0.1,0.1l0,0.1L445.8,302.1z M426.4,223.1L426.4,223.1c-0.1,0.1-0.1,0.1-0.1,0.2L426.4,223.1z M431.9,218.4l-0.2,0.2h0.2
	C432,218.5,432,218.4,431.9,218.4L431.9,218.4z M445,301.5L445,301.5z M447.2,225.8L447.2,225.8z M411,290.8L411,290.8v0.1V290.8
	L411,290.8z M407.7,279.7L407.7,279.7L407.7,279.7z M442,228L442,228z M406,274.2L406,274.2L406,274.2L406,274.2L406,274.2z
	 M457.2,276.6L457.2,276.6L457.2,276.6L457.2,276.6z M406.3,274.8L406.3,274.8L406.3,274.8z M408.2,255.7v-0.1V255.7L408.2,255.7z
	 M418.2,254.2h0.2c-0.1-0.2-0.2-0.3-0.2-0.4C418.2,253.9,418.2,254,418.2,254.2L418.2,254.2z M424.3,215.1L424.3,215.1L424.3,215.1z
	 M428.7,206.3L428.7,206.3z M440.9,194.1L440.9,194.1L440.9,194.1L440.9,194.1z M457,265.1L457,265.1L457,265.1z M409.5,299.9
	L409.5,299.9L409.5,299.9L409.5,299.9z M471.2,296l0.1-0.1C471.2,295.9,471.2,295.9,471.2,296L471.2,296z M405.1,290.2L405.1,290.2
	L405.1,290.2L405.1,290.2z M408.8,247L408.8,247l0.1-0.2L408.8,247z M411.4,230.3L411.4,230.3z M417.7,216.3l-0.1-0.1L417.7,216.3z
	 M445.7,191.8l0.1-0.1l0,0c0-0.1-0.1-0.1-0.2-0.2C445.6,191.6,445.7,191.7,445.7,191.8L445.7,191.8z M447.2,193.1v0.1V193.1
	L447.2,193.1z M450.2,207c0-0.1,0.1-0.2,0.1-0.4C450.2,206.7,450.2,206.9,450.2,207L450.2,207z M455,240.7L455,240.7
	C455,240.7,455,240.6,455,240.7L455,240.7L455,240.7z M401.9,282c0,0.1,0,0.3-0.1,0.4h0.1l0,0C402,282.3,402,282.1,401.9,282
	L401.9,282z"/>
<path class="st0" d="M587,266.2L587,266.2c0.4-0.7,1.1-0.5,1.7-0.4c1.7,0.3,3.4,0.8,5.1,1.1l0,0c0.8-0.2,1.6,0.1,2.2,0.8l0,0
	c1.4-1.2,2.5-0.5,3.5,0.4c1.4-0.6,2.9-0.4,4.3-0.8l0,0l0.9-0.7l0,0l-0.8-0.7c-0.8-1.2-2.8-1.3-3.2-2.9l0,0c-0.6-1.2-1.1-2.2-3-1.5
	c-0.9,0.3-1.8-0.5-2.1-1.3s0.6-0.7,1.1-0.8l0,0c0.2-0.4,0.2-0.7-0.4-0.7s-1.2,0-1.8,0c-0.8,0-1.1-0.6-1.2-1.2s0.3-0.6,0.7-0.5l0,0
	l2.6-0.5l0,0c0.6-1.1-0.4-1.2-1.2-1.3c-1.2-0.1-2.3-0.4-3.4-0.8c-0.6-0.2-1.6-0.5-1-1.5l0,0c0.2-0.4,0.7-0.6,1.2-0.5
	c2.5,0.5,4.9,0.9,7.3,1.6c0.7,0.2,1.3,0.5,1.7-0.1c1-1.4,2.2-1.3,3.7-0.6c0.3,0,0.5,0,0.8,0.1c0.6,0.2,1,0.8,1.8,0.3s0.2-0.9,0-1.4
	s0.2-0.9,0.8-0.9c0.7-0.2,0.1-0.5,0-0.7H607c-2.2,0-4.7-1.2-5.2-2.5c-0.6,0-1.1,0-1.6-0.5c-1-1-2.4-1.4-3.7-1.4
	c-1.6-0.1-3.1-0.7-4.4-1.6c-1.2-0.7-0.3-0.8,0.5-0.9c1,0.1,2,0.3,2.9,0.4c0.7,0,1.8,0.5,2.1,0c1.1-1.8,2.6-0.8,4-0.7
	c0.8,0,1.6,0.3,2.2-0.3c-1.6-0.6-3-1.6-4.2-2.8c-0.3-0.3-1.2-0.4-1-1c0.2-0.9,1-0.5,1.6-0.5c0,0.1,0,0.1,0,0.2l0-0.2
	c0.7,0,1.4,0,2.2-0.1c2-0.1,4,0.4,6-0.1l0,0l0.5-0.2c0-0.3,0.1-0.5-0.3-0.7c-2,0.5-3.1-1.3-4.8-1.5s-2-1.9-3.5-2.2
	c-0.4-0.1-1.2-0.1-0.9-0.8c0.2-0.6,0.8-0.5,1.3-0.4s1.5,0.2,1.7,1c2.6,0.3,4.3,2.2,6.8,2.7c0.5,0,1,0.2,1.5,0.5c2.4,2,2.5,2,4-0.3
	c0-0.1,0-0.2,0.1-0.3c0.7-1.1-0.4-1.4-1-1.3c-2.3,0.4-3.6-1.8-5.8-1.7c-0.1,0-0.3-0.4-0.4-0.6l0,0c-0.9,0-2.1,0.3-2.1-0.9
	s1-1.2,2-1.2s1.7,0,2.6,0c0.5,0,1.2,0.2,1.4-0.6c0.3-0.6,0.1-1.3-0.5-1.8c-0.4-0.4-1-0.4-1.4-0.6c-0.5-0.2-0.8-0.8-0.7-1.4
	c0.2-0.5,0.8-0.3,1.2-0.2c1.5,0.3,3.2-0.1,4.7,0.6h0.7c1.1-0.1,2,0,2.4,1.1l1.2,0.4l0,0c0.3-0.1,0.7,0,0.8-0.4c-0.6-0.5-0.3-1,0-1.5
	l0,0c0-0.5,1-1.5-0.7-1.2c-0.4,0.1-1.1,0.1-1.1-0.4c-0.1-0.8,0.7-0.5,1.2-0.5c2.2-0.2,2.8-0.9,2.7-2.8l0,0c-0.2-0.4,0-0.6,0.4-0.7
	l0,0c-1.4-0.7-3,0.1-4.4-0.7c-1.7,0.5-3.5,0.2-5.3,0.3c-0.5,0-1.3,0.4-1.4-0.4s0.6-0.9,1.4-0.9c2-0.1,4-0.3,5.9-0.5
	c0.8-0.1,1.3-0.2,1-1.1l0,0c-1.3,0.3-2.1-0.8-3.2-1.1l0,0c-1.1,0.1-2.2-0.1-3.1-0.7c-2-1.1-4.3-1.6-6.2-3.1c0.7-0.3,1.5-0.3,2.2,0
	c1.2,0.4,2.7-0.2,3.7,0.9l0,0c0.9-0.1,1.8,0,2.7,0.4l0,0c0.6-0.2,1.6,0.3,1.8-0.6s-0.8-0.8-1.2-1.1s-0.7-0.5-1.1-0.7l0,0
	c-1.2-0.3-2.6-0.3-3.6-1.1c-2,0.5-3-1-4.4-1.8l0,0c-0.2-0.1-0.4-0.1-0.5-0.2c-0.5-0.2-1.6,0-1.1-1c0.4-0.7,1-0.9,1.9-0.4
	c1.1,0.5,2.3,0.8,3.4,1.1l0,0c0.5,0.5,1.3,0.2,1.8,0.6c2.3,1.7,4.5,1.8,6.7-0.1l0,0l0.1-0.1c-0.8-0.7-1.9-0.5-2.9-0.5
	s-1.8-0.2-1.8-1.2s0.9-0.7,1.6-0.8c0.4,0,0.8,0,1.2,0l0,0c0-0.1,0.1-0.1,0.1-0.2c-0.3-0.5-0.6-0.9-1.4-0.6c-0.5,0.2-0.7-0.1-0.7-0.5
	l-3.9-0.4c-0.6,0-1.1-0.3-1.1-0.8s0.6-0.7,1.1-0.7c1.2,0,2.5,0,3.7,0.1c2,0.2,4,0.2,6.3,0.3c-2-1.8-2-2.5-0.5-2.9h1.2
	c1.7,0.5,2.6,1.5,2.4,3.2l0,0c0,0.5,0.5,0.8,0.9,1l0,0c0.7,0.1,0.7,0.8,1.1,1.2c0.3-0.1,0.7,0.1,1-0.4c0.6-1.2,1.8-2,3.1-2.2
	c1-1.2,0.6-1.9-1.2-2.1c-1.4,0.4-0.6-0.7-0.8-1.1c-2.5,0.5-1-2.6-3-2.4c0.2-0.7,1.2-0.3,1.3-0.9c0-0.5-0.4-0.6-0.8-0.6
	c-1.9-0.1-3.8-0.9-5.2-2.3c-0.3-0.4-1.5,0.1-1.3-0.8s0.8-0.5,1.4-0.2c0.2,0.1,0.4,0.1,0.5-0.1c0,0,0-0.1,0.1-0.1
	c0.3-1,1.1-0.7,1.7-0.5c1.9,0.5,3.7,1.1,5.5,2c0.9,0.4,1.9,1.2,3,0.2c0.7-0.7,1.3,0,1.9,0.1c1.4,0.2,2.3,1.9,4,1
	c2,0.2,4,0.3,5.5,1.7c0.5-0.2,0.8-0.7,0.8-1.3c-1.8,0.1-2.2-1.5-3.2-2.2l0,0c-0.8-0.3-0.9-1.1-1.9-1.3c-1.2-0.2-2.4-0.1-3.5,0.3
	c-1.9,0.4-2.6,0.1-2.6-1.5c0-0.3-0.1-0.5-0.4-0.6c-0.1,0-0.2,0-0.3,0.1c-1.3,0.7-1.8-0.4-2.9-0.8c1.7-0.5,3.4-0.7,5.2-0.6
	c0.4,0,1.2,0.3,1.2-0.5c0-0.6-0.5-0.8-1.1-0.8c-0.3,0-0.5-0.1-0.7-0.2l0,0l-0.8-0.2c-0.8,0.1-1.6,0-2.4-0.2c-0.1,0-0.3-0.1-0.4-0.1
	c-0.7,0.1-1.5-0.1-2-0.7c-1.3-0.1-2.7-0.2-3.5-1.4l0,0c0.3-0.7-0.4-1.2-0.5-1.8l0,0c-0.8-0.2-1.7-0.3-2.5-0.5
	c-0.3-0.1-0.9-0.1-0.8-0.6s0.6-0.4,1-0.4c2.5,0,4.9,0.5,7.2,1.5l0,0c1.6-0.4,0.6-1.1,0.3-1.7l0,0c-0.5-0.7-1-1.5-0.3-2.2
	s1.6-0.1,2.4,0.1c0.9,0.2,1.8,0.7,2.5,1.4c1.1,0.1,2.3-0.3,3.1-1.1l-1.2-0.6c-0.9,0.4-1.5,0-1.6-0.8s0.6-0.7,1.2-0.7l0,0l1.1-0.1
	l0,0c0-0.5,1-0.9-0.3-1.5c-1.5-0.6-2.8-1.5-3.9-2.7c-0.3-0.4-0.5-0.7-0.4-1.1c0.2-0.6,0.7-0.4,1.1-0.2c1,0.6,1.9,0.2,2.7-0.2l0,0
	l1.9,0.1l0,0c1.3,0.1,2.5,1.6,3.9,0.4l0.1-0.1l0,0c0.8-0.1,1.5,0.1,2.2,0.6c0.3,0.1,0.6,0.3,0.9,0s0-0.6-0.2-1
	c-0.1-0.2-0.2-0.4-0.2-0.6c-0.4-1.1,0-1.3,1.5-1.1c0.6,0.1,1-0.2,1.5,0l0,0c0.1,0,0.2-0.1,0.4,0l0,0c0.4-0.3,0.7-0.2,1,0.1
	s0.5,0.7,0.9,0.4s-0.1-0.8,0-1.1l0,0l-0.3-0.4l0,0c-4.8-1.3-9.1-3.3-12.3-6.8c-0.7,0-1-0.5-1.5-0.8s-0.4-0.5-0.2-0.7
	c0.2-0.1,0.4-0.2,0.7-0.2c3.5,0.4,6,2.2,8.3,4.5l0,0c1.2,1,2.5,1.7,3.9,2.2c1-0.7,0-1.4-0.1-2.1l0,0c-1.3-1.3-1.9-4.2-0.7-5
	c0.9-0.4,1.3-1.4,1-2.4c-0.1-0.4,0.1-0.8,0.5-0.8c1.6-0.1,1.3-1.1,1.2-2c-0.1-1.3-0.2-2.5-0.1-3.8c-0.1-4.3,1,2.4-0.4-1.9
	c-0.2-0.6-0.1-1.3,0.4-1.6c0.3-0.1,0.6-0.2,0.9-0.1c0.5,0.3,0.8,0.8,0.6,1.4c-0.4,4,0.1-2.9,0.2,1.1l0,0c-0.1,3.8-0.1,4,0,7.8
	c0.2,1.9,0.2,3.8,0.1,5.6c0,0.2,0,0.3-0.1,0.5c0.1,0.5,0.1,1,0.3,1.6c0.2,0.5,0.5,0.7,1,0.3c2.8-2.4,1.8,0.2,4.6-2
	c1.6-1.6,3.7-2.7,5.2-4.4c0.4-0.4,1-0.4,1.4,0c0.5,0.4,0.6,1.1,0,1.4c-1.9,1,2-1-0.1-0.4l0,0c0,1.2-1.5,0.9-2,1.5
	c-2.1,2.9-5.5,4.3-8.8,5.6l0,0c0,1.2-1.2,2-1.2,3.2h1.2c0.3-0.5,0.8-0.4,1.2-0.3l0.4-0.1c1-0.5,2-0.8,3.2-0.8
	c0.5-0.1,1.2-0.1,1.4,0.5c0.2,0.7-0.6,0.6-1,0.7c-1,0.2-1.6,1-2.7,1h-1.2l-2.3,0.1l0,0c-0.6,0.6-0.3,1.4-0.5,2h1.1
	c1.1-1.2,2.2-0.5,3.3,0.1l0,0c1.1-0.1,2.2-0.3,3.2-0.8c3-1.4,6.4-2,9.5-3.1c0.6-0.2,1.6-0.4,1.9,0.1c0.8,1.5,1.5,1.4,2.5,0.2
	c0.4-0.4,1-0.4,1.4,0c0,0,0.1,0.1,0.1,0.2c0.5,0.7-0.1,0.9-0.8,1.1c-1.6,0.6-3.1,1.4-4.6,2l0,0c-0.8,0.5-1.7,0.8-2.7,1
	c-2.2,0.4-3.8,2.2-6.2,2.1c-2.7,0.9-5.6,1.2-8.4,1.1c-0.7,2.3-0.4,1.4-0.4,3.8l0.4-0.1c0.5-0.8,2.5,0.1,3.3,0c0.5-0.7,5.2-3,5.9-2.9
	c2.1,0.6-3.7,2.8-3.5,5.7l0,0c-1.5,0.9-3.4,0.4-4.9,1.1c-0.4,0.6-0.2,1,0.6,1.1c0.7,0.1,1.4,0.4,1.9,0.9l0,0l0.4,0.3l0,0h1.9
	c0.2-0.6,0.9-0.6,1.5-0.7c0.8-0.2,1.3-1.2,1.1-1.4c-2.4-1.4,0.7-1.4,0.7-2.1c1.4-1.1,3.1-1,4.7-0.8c1.2,0,2.3-0.2,3.4-0.5
	c2.1-0.6,4.3-1,6.5-1.4c0.5-0.1,0.7,0.3,1,0.5l0,0c0.6,0.8-0.1,1.2-0.4,1.8l0,0c-0.1,0.7-0.6,1.3-1.3,1.4c-0.3,0.1-0.6,0.2,0,0.3
	c0.2,0,0.4,0.1,0.6,0.1l0,0l6.4-1.6c0.4-0.1,0.9-0.3,1.1,0.3s-0.4,0.6-0.8,0.7c-2.2,0.7-4.5,1.4-6.7,2l0,0c-1.4,0.7-2.9,0.9-4.5,0.7
	l-1.1,0l0,0c-0.6,0.6-1.4,1.4-1,2.2s1.5,0.1,2.2,0.3c1.1,0.3,2.3,0,3.4,0.9c-2.9,0.5-2.9,0.5-3.4,1.3c-0.4,2.6-2.3,4.4-4.4,6.3
	l2.4,0.1l0.8-0.4c0.4-0.2,0.8-0.5,1.2-0.9c1-1.4,1.7-0.8,2.4,0.2l0,0c0.9,0.7,2.1,0.5,2.8-0.3c0.5-0.6,1.2-1,2-1.2l0,0
	c0.5-0.6,1.6-0.8,1.7-0.3c0.4,1.7,1.5,0.6,2.3,0.7c0.5-0.2,1-0.3,1.5-0.4c1.2-0.2,2.4-1,3.7-0.2c-0.9,0.9-2,1.5-3.2,1.7
	c-0.4,0.4-0.4,1,0,1.4c0,0,0,0,0,0c0.2,0.2,0.3,0.5,0.1,0.7c-0.1,0.1-0.3,0.2-0.4,0.2c-1.3,0.1-2.3,1.1-3.7,0.8l-0.7,0.4
	c0.4,0.1,0.9,0.2,1.3,0.2c0.8,0,1.9-0.2,1.9,0.7s-1.2,0.7-1.9,0.8c-0.2,0-0.4,0-0.6,0c-0.7,0.7-2.4,1-1.7,2.5l-0.2-0.2
	c0,0.1,0.1,0.2,0.2,0.2c0.4,0.7,1,0.4,1.5,0.1s1.2-0.1,1.2,0.4s-0.6,0.5-1,0.5l0,0c-0.2,0.9-0.9,1.6-1.7,2l1.6,0.4
	c0.8-0.1,1.7,0.2,2.5-0.3c0.1-0.1,0.3-0.1,0.4-0.2c2.1-0.7,4.2-0.9,6.4-0.6c1.4,0.3,2.5-0.4,3.7-0.8c0.6-0.2,1.2-0.4,1.4,0.3
	s-0.6,0.7-1.1,0.8c-1.4,0.9-2.4,2.4-4.5,2.1l-1.5,0.1l0,0c-0.5,0.8-1.2,1.5-2.2,1.8l3,0.6c0.1-0.1,0.2-0.1,0.3,0
	c1.1,0,2.3-0.4,3.1,0.7c-0.8,0.5-1.6,0.1-2.3,0.4c-0.4,0.7-1.2,1.2-2,1.1c-0.8,0-1.5-0.3-2.3,0.1l0,0c-0.1,0.5-0.5,0.9-0.2,1.5
	s-0.1,1.2-1.1,1.2l-0.5,0.1l0.6,0.5l0,0c0.9,0,0.6,0.4,0.3,0.7l0,0c0.1,0.4,0.4,0.7,0.8,0.8l0,0c0.5,0.4,1.1,1,1.8,0.3
	c0.5-0.4,1-0.2,1.5,0.1l0,0c0.7-0.4,1-1.2,2-1.2c0.6,0,1.2-0.2,1.4,0.6c0.1,0.6-0.3,0.8-0.9,0.9c-0.6,0-1.2,0.2-1.6,0.6
	c-0.9,1.1-2.3,1.4-3.6,1.7c1,0.5,2.1,0.6,3.1,0.3c0.3-0.3,0.5-0.3,0.8,0l0,0c0.9,0.1,1.5,0.7,2.5,0.7c2.7-0.1,5.3,0.1,7.8-1.1
	c0.8-1.6,3-1.9,4-3.4c0.3-0.4,1.4,0,1.2,0.9l0,0c0,1-1.3,0.8-1.6,1.4c-0.1,0.9-0.1,2.1-1.2,2.4c-1.8,0.5-2.5,2.1-3.9,2.9
	c0.6,0.7,1.8,0.8,2,1.8c-0.6,1-1.7,1.6-2.8,1.8l0,0c-0.6-0.1-1.1,0-1.6,0.4c-0.5,1.4-1.9,1.6-3.1,2h-0.1c-0.9,0-1.9,0.3-2.7,0.8
	c2.4,0.6,4.8,0.8,7.2,0.6c0.4,0,0.9-0.1,1,0.3s-0.4,0.5-0.8,0.6c-1,0.4-2,0.9-3,1.3c-1.9,0.8,0.5,1.8-0.1,2.6c0,0.1-0.1,0.1-0.1,0.2
	l0,0l-0.4,1.1l0,0c0,0.1,0,0.2,0,0.3c0.7,0.2,1.4,0,2-0.4c0.3-0.7,1-1.2,1.8-1c0.7,0.1,0.7,0.6,0.6,1.1l0,0
	c-1.5,0.9-3.1,1.4-4.9,1.5l0,0l-0.2,0.1H693c-0.3,1,0.6,0.9,1.2,1c1,0.1,2.1,0.1,3.2,0.2c0.4,0,0.9,0.1,0.9,0.5s-0.5,0.4-0.9,0.4
	c-0.9-0.1-1.8,0-2.7,0.3l0,0c-0.1,0.6-0.4,1.1-0.8,1.5l0,0c-1.3,0.9-3-0.7-4.3,0.7c0.6,0.4,1.3,0.2,1.9,0.3l0,0l0.8-0.1
	c1.1-0.4,2.2-0.6,3.4-0.6c0.8-0.1,1.9,0,2.2,1c1,0.2,1.9,0,2.8-0.3c1.4-0.9,3.2-1.2,4.5-2.3c0.5-0.3,1-0.2,1.4,0.1
	c0.6,0.4,0.3,1,0.4,1.4l0,0c1.3,0.3,2.3-2,3.8-0.6c-0.8,1.6-2.7,0.9-3.8,1.6c-0.3,0.5-0.5,1.2-0.4,1.8l0,0c0.4,0,0.9,0,1,0.5
	s-0.3,0.5-0.6,0.6c-0.1,0.5-0.5,0.9-1.1,0.9c-1.6,0-2.9,1.2-3.3,2.7l-0.5,0.2c-0.6,0.3,0.1,0.5,0.1,0.7h3c0.6,0,1.3,0,1.2,0.8
	s-0.6,0.6-1.1,0.7c-1.4,0.1-2.8,0.5-4,1.3l0,0c0.5,0.1,0.9,0.1,1.4,0.2c0.6,0.1,1.4,0.4,1.4,1s-0.9,0.5-1.4,0.6
	c-1.1,0.2-2.3,0.2-3.3,1c-0.3,0.2-1-0.2-1.1,0.4s0.8,0.4,1.1,0.8l0,0l0.7,0.1l3.6,0.2c0.4,0,0.8,0.2,0.8,0.6s-0.5,0.4-0.9,0.4
	c-1.9,0-3.8,0.1-5.3,1.3c0.3,0.7,1.2,0.3,1.5,0.7l0,0c2.1-0.3,4.2-0.4,6.3-0.4l0,0c1-1.1,1.9-0.4,1.8,0.4c-0.3,1.7,0.9,1.2,1.8,1.4
	l0,0c0.7-0.3,1.6-0.2,1.7,0.4c0.1,0.8-0.9,0.7-1.5,0.7c-1.5-0.2-3-0.2-4.5,0.1c0.5,0.4,1,0.7,0.8,1.4c0.4,0.3,0.6,0.7-0.2,0.8
	c-1.1,0.2-2.3,0.2-3.5-0.1h0.1h-0.1l-0.5,0.1c-0.8,0.5-1.7,0-2.6,0.4c0.4,0.7,1,1.5-0.7,1.5c-0.8,0-0.5,0.6-0.5,1.1l0,0
	c1.1,0.5,2.5,0.2,3.4,1.3c-1.7,0-3.2,0-4.7,0c-0.9,0-2,0.1-1.1,1.4c0.2,0.3,0.5,1.4-0.3,1.2c-1.5-0.2-3.2,0-4.3-1.4
	c-2,0.4-3.5,2.4-5.9,1.8l-0.8,0.4l0,0c-1.6,2.2-4,2.2-6.5,1.8c-0.4,0.1-1.3-0.3-0.7,0.7l0,0c1.2,0.1,2.3,0.4,3.4,0.9
	c-2.6,2.2-2.6,2.1-5.3,0.5c-0.7-0.4-1.4-0.7-2.1-0.9c-1.2-0.6-2,0-2.7,0.7c-0.1,0.2-0.9,0.4,0,0.8c0.5,0.2,1.5,0.5,1.1,1.2
	s-1.4,0.2-1.8,0c-1.2-0.5-2.5-0.7-3.8-0.5l0,0c-0.9,1.7-2.7,1.7-4.4,1.8l0,0c-0.2,0.3-0.6,0.8-0.9,0.5c-1.2-1.2-2.7-0.5-4-0.6
	c-0.7,0-1.5,0.1-1.9-0.6c-3-0.4-6-0.7-9-1c-0.3,0-0.8,0-0.9,0.1c-1.2,2.1-2.2,0.2-3.3-0.1l0,0c-1.4-0.4-2.1,0.8-3.2,1.1
	c-0.4,1-1.1,1.2-1.6,0.5c-0.3-0.4-0.8-0.6-1.2-0.5c0,0.2-0.1,0.5-0.2,0.5c-1.7-0.1-3.3,0.5-5,0.3l0,0c-1.5,0.2-2.8,1-4.4,0.7
	l-1.7,0.9c-0.7,0.4-1.5,0.4-2.2,0c-1-0.6,0.8-0.8,0.3-1.7c-0.9,1.4-2.1,0.4-3.3,0.8c0.1-0.7,0.5-1.3,1.2-1.4l0,0
	c0.4-0.8-0.3-0.6-0.6-0.5c-0.8,0.3-1.7,0.4-2.5,0.2l0,0h-1.1c-0.9,0.6-1.6,2.2-2.9,0.7c-0.3-0.5-0.9-0.8-1.4-0.8
	c-0.6,0-1.2-0.4-1.4-1c-0.7-0.7-1.3-1.4-2.6-0.5c-0.9,0.5-2,0.3-2.6-0.6c-1.3-0.4-3.2-0.1-3.3-2.2c0-1-0.9-0.1-1.3-0.2
	c-1.1-0.3-2.7,1.7-3.4-0.5l0,0l-0.5-0.1l0,0c-2.1,0.1-2.4-1-2-2.5l0,0c-0.9-1.2-2.8-1.2-3.6-2.5l0,0v-0.1l0,0
	c-0.4-0.5-1.2-0.6-1.5-1s-1.5-1.1,0.1-1.4l0,0c0.1,0,0.2,0,0.3-0.1c0.9-0.6,0.1-1.2,0-1.8l0,0c-0.8-0.2-1.5-0.4-2.3-0.6
	C587.4,267.4,586.4,267.2,587,266.2z M602.5,269.6c-0.1,0-0.2,0.1-0.3,0.2l0,0h0.3C602.5,269.7,602.5,269.7,602.5,269.6L602.5,269.6
	z M607.8,266.9L607.8,266.9L607.8,266.9L607.8,266.9z M624.7,212.9h0.2l-0.1-0.1L624.7,212.9z M651.9,192.1L651.9,192.1L651.9,192.1
	z M674.7,232.9L674.7,232.9L674.7,232.9z M665.4,263.8L665.4,263.8L665.4,263.8L665.4,263.8z M660.3,206L660.3,206L660.3,206z
	 M635,219.3L635,219.3z M630.6,269.8L630.6,269.8z M663.4,254.4L663.4,254.4L663.4,254.4L663.4,254.4L663.4,254.4L663.4,254.4z
	 M649.7,238.9l0.2-0.2h-0.2C649.7,238.8,649.7,238.8,649.7,238.9L649.7,238.9z M646.6,233.7L646.6,233.7L646.6,233.7z M646.7,233.3
	L646.7,233.3L646.7,233.3z M646.2,228.9L646.2,228.9L646.2,228.9L646.2,228.9l-14.4,12L646.2,228.9z M663,226.8L663,226.8z
	 M660.5,232.8L660.5,232.8L660.5,232.8L660.5,232.8z M662.2,239.1L662.2,239.1l0,0.1C662.2,239.2,662.2,239.1,662.2,239.1
	L662.2,239.1z M635.4,249.1L635.4,249.1L635.4,249.1L635.4,249.1z M655.4,252.7L655.4,252.7L655.4,252.7L655.4,252.7L655.4,252.7z
	 M651.4,253.4L651.4,253.4z M630.7,269.9L630.7,269.9L630.7,269.9L630.7,269.9z M650.5,211.9c-0.1-0.1-0.1-0.2-0.2-0.3
	c-0.1,0.2-0.1,0.4-0.2,0.6C650.2,212.1,650.4,212,650.5,211.9L650.5,211.9z M668.2,259.5L668.2,259.5z M642.4,252.2l0.2,0.2
	C642.5,252.2,642.5,252.1,642.4,252.2L642.4,252.2z M630.7,269.9L630.7,269.9z M631,216.5L631,216.5z M650.6,254.5L650.6,254.5
	l0.2,0.1L650.6,254.5z M639.2,212.7L639.2,212.7L639.2,212.7L639.2,212.7z M649.3,254.8c-0.3-0.1-0.6-0.3-0.7,0.3c0,0.1,0,0.1,0,0.2
	C648.8,255.1,649.1,254.9,649.3,254.8z M675.1,234.3L675.1,234.3L675.1,234.3L675.1,234.3z M670.6,239.3L670.6,239.3z M684.6,247.3
	L684.6,247.3L684.6,247.3z M638.2,275.1L638.2,275.1z M629.9,275.5L629.9,275.5z M621,244.4L621,244.4L621,244.4z M664.8,272.5
	l-0.2,0.1h0.2L664.8,272.5z M653,263.7h-0.3H653L653,263.7z M641,179.8L641,179.8z M646.2,261.5L646.2,261.5L646.2,261.5
	L646.2,261.5z M646.6,198.4L646.6,198.4C646.6,198.4,646.6,198.4,646.6,198.4L646.6,198.4L646.6,198.4L646.6,198.4z M620.2,279.4
	L620.2,279.4z M609,269.4L609,269.4z M608.6,267.3L608.6,267.3z M632.6,205.8L632.6,205.8L632.6,205.8L632.6,205.8z M644.7,193.4
	L644.7,193.4c0-0.1,0-0.2-0.1-0.2l-0.1,0.1L644.7,193.4z M696.4,272.4c0,0.1,0,0.1-0.1,0.2l0,0C696.4,272.6,696.4,272.5,696.4,272.4
	L696.4,272.4z M620.2,279.5c0,0,0,0.1,0,0.1C620.3,279.5,620.4,279.5,620.2,279.5L620.2,279.5z M617.7,230.4h-0.1c0,0,0,0,0,0.1l0,0
	L617.7,230.4z M673.4,185.6L673.4,185.6L673.4,185.6L673.4,185.6L673.4,185.6z M672,186.4L672,186.4L672,186.4L672,186.4z
	 M666.3,195.3L666.3,195.3L666.3,195.3L666.3,195.3L666.3,195.3z M680.3,208.6c-0.3,0.1-0.6,0.1-0.9,0.1
	C679.6,208.8,680,208.7,680.3,208.6L680.3,208.6z M616.3,216.1L616.3,216.1z M644.4,195.6L644.4,195.6L644.4,195.6
	c-0.1,0-0.1,0.1-0.2,0.2C644.2,195.7,644.3,195.6,644.4,195.6L644.4,195.6z M641.9,193.5L641.9,193.5c0-0.1,0-0.1,0-0.2
	C641.9,193.4,641.9,193.5,641.9,193.5L641.9,193.5L641.9,193.5z M667.2,196.1L667.2,196.1C667.2,196.1,667.2,196.1,667.2,196.1
	L667.2,196.1L667.2,196.1z M668.6,198.3l0.4-0.1C668.9,198.2,668.7,198.2,668.6,198.3L668.6,198.3z M709.9,266.3l-1.2,0.1l0.3,0.1
	C709.3,266.5,709.6,266.4,709.9,266.3L709.9,266.3z"/>
<path class="st0" d="M349.7,130.2c-0.1,0-0.1,0.1-0.1,0.1L349.7,130.2z"/>
<path class="st0" d="M391.7,259.8L391.7,259.8c-1.2-0.7-2.5-1.7-3.8-1c-1.8,1-3.2-0.9-4.8-1.3c-1.3-0.3-1.7-4-0.7-5.5l0,0
	c3.8,0.1,3.8,0.1,3.2-3.7l0,0c2.4-2.8,2.4-2.9-0.4-4.9c-0.2-0.1-0.3-0.5-0.4-0.8c-1.1-1.6-3.6-1.1-3.8-4.2c-0.3,0-0.5,0-0.8,0.1
	c-1.4,0.9-3.2,0.8-4.3,2.6l0,0l-0.6,0.6l0,0c-0.9-1-2.4-1-3.4-0.1c-0.1,0.1-0.2,0.2-0.3,0.3l0,0c-0.5-0.5-1.6-0.9-0.6-2
	s0.6-2.6,1.2-3.8c1.6-0.9,2.9-2.3,3.6-4l-5.3,1.8c-1-0.8-1.6,1.6-2.7,0.7l0,0c0-0.5,0-1.1,0.4-1.5l0,0c1.1-0.5,0.6-1.3,0-1.7
	c-0.9-0.6-2.5-0.5-2.1-2.4c0.4-1.7,1.8-0.5,2.8-0.8c0.2,0,0.4-0.1,0.5-0.1c0.9,0.1,1.9,0.4,2.7-0.8l0,0c1.1-0.4,2.2-0.5,3.3-0.2
	c0.4,0.1,1.4,0,1-0.9c-1.2-2.5,1-1.4,1.2-2.3l0,0c3.7-0.9,7.6-0.4,11.1-4.4l-5.3,0.8l0,0l-6-2.9l0,0l0.5-0.7
	c2.7-0.2,0.6-3.2,1.4-4.5c-1.1-1-1.7,0.1-2.5,0.8l0,0c-2.1,0.6-3.5-2.1-5.9-1.5c1.4-2.5,3.6-3.1,4.2-6c-2.6,0.4-5.1,0.4-6.4,3.9
	c-1.5,2.9-1.5,2.9-2.5,1.6l0,0c1.2-3.3-1.7-2.8-2.2-4.4c2.7-0.9,3.8-3.5,4.1-7.1c-2.1,1.9-3.8,4.8-6.6,3.9c-0.4-0.1-1.1,0.2-1.2,1.1
	l0,0l-2.1,0.7c-0.6-0.3-1.4,0.1-1.7-1.3s-1-1.9-2.1-1.7l0,0c-1.7-0.1-1.4-3.6-3.3-3.5l-2.2-0.3c0,0,0-0.1,0-0.1
	c1.6-1.4,2.7-2.6,4.4-2.2c1.6,0.4,3.2,0.1,4.6-0.8c-0.5-1.2-1.2-0.7-1.8-0.8s-1.4,0.4-1.9-0.6c3.5-2.3,4.3-2.1,7.1,1.8l0,0
	c0.5,1.2,1.5,1,1.7,0.1c0.5-3.1,1.9-2.1,3.3-1.8c1.1,0.2,2.6-0.5,2.3-2c-0.9-3.5,1.1-3.7,2.4-4.8l0,0l2.2-0.1c2,1.2,3.9,0.9,5.8-0.6
	c-2.6-0.9-5.1-2.6-8-1.6l0,0l-1.6-1.4c0.6-0.9,0.6-2.1,0-3.1c1.2-1.5-0.3-2.2-0.6-2.9c-0.5-1-1.4-0.9-1.9,0.2l0,0
	c-0.6,0.4-1.2,1.2-1.9,1.2c-2,0.1-4-1.3-6.2-0.2c-0.4,0.2,0.1-1.1,0.1-1.7l0,0l0.4-0.8c0.1-3.3,2.7-2.5,3.8-4.2
	c1.7-0.8,1.8-3.1,2.5-4.9c-1.7-1.2-2,1.7-3.3,2c-0.1,0-0.2,0.3-0.4,0.5l0,0c-1.6,0.6-2.6,2.4-3.9,3.5c-1.2-0.5-1.2-2.4-2-3.4
	s-1.8-2.2-2.4-1c-1,1.8-2.5,1.3-3.7,2.3c-0.5,0.4-1.2,1.1-1.7,0.4c-0.7-0.9,0.3-1.4,0.6-2c0.3-0.7,0.7-1.3,1.2-1.9l0,0
	c0.1-0.1,0.3-0.2,0.5-0.3c1.9-0.9,1.9-0.9,2-3.1c0-0.3,0.4-0.7,0.7-1c0.5-0.6,1.4-0.3,1.8-1.3l0,0c0.4-1,1.2-1.7,2.2-2.1l0,0
	c1,0.2,1.9-0.3,2.9,0.3c0.6,0.4,1.1,1.6,1.8,0.6c0.5-0.8-0.9-1.4-0.4-2.3h4.8c1.4,0.6,2.7,4.3,4.4,0.1c0.3-0.8,2.2-0.4,4.2-0.6
	c-3.4-2.5-6-4.8-9.2-1.9l0,0c-0.1,0-0.3,0-0.4,0l0,0c-0.8-1.2-2-0.2-3-1c0.6-1.6,1.9-1.5,2.9-2.1c0.5-0.2,0.8-0.8,0.7-1.3
	c-0.1-0.7-0.7-0.6-1.1-0.6c-0.7-0.1-1.3,0.2-1.7,0.8l0,0c-2.1-1.5-4.2-0.5-6.4-0.5l0,0c-1.7-1-2.3-3.2-1.3-5c0-0.1,0.1-0.1,0.1-0.2
	l0.5-0.7c3.4-0.1,1.3-4.7,3.6-6.2c-1.8-0.1-2.2,1.1-2.8,1.9c-1.1,1.7-1.9-1.8-2.3-0.4c-0.9,3-2.5,1.7-3.9,1.8
	c-0.5-0.4-0.9-1.2-1.6-0.7c-0.5-2.4-1.3-3.7-3.4-2.8c-1,0.5-2.3-0.2-3.4,0.5c-0.7,0.5-1.2-0.2-1.2-1.3l2.1-1.4
	c1.7,0.2,3.1-0.2,3.2-2.9c1-0.4,1.7-1.2,2.1-2.2l0,0c0.6-0.2,0.8-0.9,1.1-1.4c0.1-0.2,0.3-0.3,0.5-0.4l-0.3,0.3
	c1.3-1,3.5,3.9,4.3-1.1c0.2,0.1,0.5,0.1,0.8,0.1c1-0.1,1.9-0.2,2.9-0.3c1.4,0.5,2.8,1.7,4.3,0.8l0,0c1.4-0.5,3.1,0.3,4.6-1.4
	c-1.8-1.5-3.9-0.1-5.5-1.4c0.4-1.3,1.8-0.9,1.8-2.8c-2.3,0.1-4,2.9-6.6,2.5c1-1,1.3-2.2,2.2-2.6c0.6-0.3,1.3-0.6,1.1-1.7
	s-1-0.6-1.6-0.4c-1.3,0.3-2.6,0.7-3.9,1c-0.8,0.2-1.7,1-2.4-0.4c1.1-0.6,2.5-0.5,3.7-2c-1.5-0.4-2.7,0.4-3.7-1.2
	c-0.8-1.3-1.9-0.8-2.9,0.1l0,0l-2,1.6l0,0c-1.7-0.5-1.8-1.5-0.5-2.9l0,0l3.7-4.4l0,0c1.2,0.1,1.4-1.6,2-2.4c0.4-0.5,1.4-1.1,0.7-2.2
	c-0.5-0.9-0.8-2.1-2-1.8c-0.6,0.1-1.2,0.1-1.8,0c-0.1-1.7-2.6-2.7-0.8-5c0.2-0.3-0.5-0.8-1-0.8c-1.1,0-2.1,0.5-2.5,1.5l0,0
	c-2.2-0.5-4,0.4-5.3,2.9c-0.1,0.3-0.4,0.4-0.7,0.6l0,0c-0.6-0.8-0.9-1.8-1-2.8l0,0l0.6-0.6c1.3-1.2,3-1.8,3.3-4.4
	c2-2.1,4.5-0.7,6.7-1.8c-0.3-1.5-1.9-0.6-1.7-2s1.4-1.2,2.2-1.5c0.7-0.3,1.5-0.5,2.4-0.5c2.9,0.3,4.7-2.4,6.6-4.8L347.4,91
	c-0.7-0.6-0.1-1.2,0-1.8l0,0c0.9-0.2,1.7-0.6,2.5-1c1-0.7,2.4-2.1,2-3.3c-0.5-1.7-1.7,0.2-2.7,0.2c-0.4,0.1-0.9,0.3-1.2,0.5
	c-1.3,0.9-3,0.8-3.7,2.9c-0.6-0.2-1.3-0.6-0.8-1.6c0.5-1.1,0.5-2.4,0.1-3.6c1.5-0.8,0.6-2.3,0.6-3.6l0,0c2.1,0,4.2,0.6,6.4-0.9
	c-0.4-0.7-1.3-1-2-0.7l-1-0.6l0,0c-2.6-2.5-5.2-0.7-7.9,0c0.3-0.5,0.6-0.9,0.9-1.3c0.3-0.4,1.1-0.4,0.8-1.5c-1,0-2,0-2.9,0
	c-1.3-0.1-1.2-0.9-0.6-2.1c5,0.5,4.1-5.5,5.7-9.2c-2.1,0.2-3.9,1.4-4.8,3.2c-0.1,0-0.3,0-0.4,0.1c-0.7-0.1-1.2-0.7-1.2-1.4
	c0-0.1,0-0.1,0-0.2l0,0c0.5-0.5,1.3-1.1,0.4-1.8c-1.1-0.9,0.1-1.3,0-1.9l0,0c0.7-2,2.5-1.8,3.7-3.2c-3.9-0.5-7.8-0.7-11.5-2.3
	c-0.6-0.2-2.4,1.4-1.7-1.5l0,0c0.6,0.2,1.1-0.4,1.5-0.8c2.3-0.4,4-2.1,5.9-3.6c1.1,0.3,1.8-0.7,2.7-1.2c0.6-0.4,1.6-0.7,1.3-1.8
	c-0.4-1.3-1.3-0.7-2-0.3c-0.3,0.2-0.7,0.3-1,0.4l0,0c-0.7-0.8-0.3-2.9-0.6-2.7c-1.5,1-3.2-0.6-4.7,0.6l0,0l0-0.1
	c-2,0.3-3.5-0.9-5-2.3l0,0c1.5-0.4,13.5-1.1,15.5-0.5s-8.6-3.8-7.1-5.4c-1-2.1-4.1,2.5-4-2.7c-2.7,0.9-4.8,5.4-8.2,2.6
	c-0.4-0.3-1.1,1.7-1.7,0.5s-0.1-2.5,0.4-3.6c3.3-2.2,6.9-3.6,10.4-7.2c-2.8-0.1-4.8,0.2-6.7,1.3l0,0c-1.6,0.4-3.3,1-4.4-1.5l0,0
	c0.4-0.6,0.8-1.3,1.1-2c0.2-0.6,0.8-1.3,0.2-1.9s-1.1,0.1-1.6,0.5c-1,0.8-1.5,3.3-2.9,2.4c-1.1-0.8-0.3-3-0.5-4.6c0-0.5,0-0.9,0-1.4
	l0,0l3.6-4.6l0.2-1.1c-4.2,2.5-4.1-0.8-4.1-4c0-0.1,0-0.2,0-0.4c-0.1-0.6-0.2-1.3-0.7-1.4c-0.5-0.1-0.6,0.6-0.9,1.1
	c-1.6,3.2-1.3,6.4-0.1,9.6c0,0.5,0,1,0,1.4c-0.2,1.6,0.7,3.8-0.6,4.5c-1,0.5-1.4-1.8-2-2.9c-0.3-0.5-0.7-1.3-1.3-0.8
	s-0.2,1.3,0.1,1.9c0.8,1.5,1.3,3.1,1.6,4.8c-1.6,0.4-2.7-1.4-4.1-0.6l0,0c-1.5-2.5-3.2-4.6-5.9-4.7c1,3.3,2.3,5.9,4.7,7.3
	c0.9,0.5,1.4,1.5,1.1,2.5c-0.2,0.4-0.4,0.7-0.5,1.1c-0.4,1,1.4,1.5,0.4,2.5c-0.9,0.9-1.8,0.1-2.6-0.6l0,0l-0.6-0.8
	c0-0.1,0-0.2,0-0.4c-0.9-1.9-1.6-3.9-3.8-2.3c-0.6,0.4-1.6-2-2.2-0.7c-0.7,1.6,1.4,1.6,1.5,2.7c0.2,2.1,1.6,3.8,1,6.1
	c-1.5-0.3-1.8-2.6-3.8-2.4c2.4,2.1-0.9,6,2.6,7.3c-1.8,1.5-3.2-0.2-4.6,0.1c-0.6,1.4,1.3,1.5,0.5,3.4c-1.2-3.4-2.3-1.1-3,0.1
	c-0.8,1.4,0.2,2.2,1.2,2.6l0,0c0.5,0.6,1.2,0.9,2,0.9l0,0c-0.4,2.9,0.8,4.1,2.6,4.9c0.5,0.2,1.7,0.7,1.3,1.1c-2.5,2,0.9,2.1,0.6,3.2
	c-1.4,1-2.3-0.8-3.1-1c-1.3,0.8,1.8,4.7-1.8,3.3c-1.1-3-3.1-4.9-5.1-7.7c0.4,3.7,2,7.2,4.5,10l0,0c-0.1,1.1-0.3,1.7-1.1,0.6
	c-1.1-1.3-2.6-2.3-4.2-3c-1.5-1.8-3.5-0.6-5.2-1.8c-0.7-0.5-0.4,1,0,1.6s1.6,0.9,1,2.1c-1.3,2.6,0.3,2.3,1.4,2.6l0,0
	c1.3,1.9,3.4,1,4.8,2.6c-0.1,1.3-1.5,0.9-1.5,2.2c-1.2,2.9-1.2,2.9-2.6,3c-2.6-0.2-5.2-2.1-7.8,0.5c0.8,1.2,1.7,0.7,2.5,1
	c1.3,1.7,3.6-0.5,4.7,2.1l0,0c-0.2,2.4,1.5,2.1,2.4,2.8c1.7,1.2,4,7.8,3.3,10.2c0,0.2-0.5,0.2-0.8,0.3l0,0l-1.2-0.8l0,0
	c-1.2-1.2-2.8-1.7-3.7-3.6c0.1-0.2,0.1-0.5-0.1-0.7c-0.1-0.1-0.3-0.2-0.4-0.2c-2.2-1.2-4.1-2.9-5.4-5.1c-0.7,1.9,0.6,2.6,0.3,4
	c-0.9-0.6-1.7-1.1-2.6-1.7s-1.6-1.5-2.1-0.4c-0.6,1.3,0.7,1.6,1.2,2.2c0.2,0.2,0.4,0.5,0.6,0.7c0.4,0.4,1,0.7,0.9,1.6
	c-0.2,1.2-1,0.7-1.5,0.9l0,0c-0.4-0.1-1.2-0.2-1.2,0.3c0.1,3.8-1.8,2.3-3.1,2.2c-0.7,0-1.4-0.6-1.8,0.6c0.9,1.3,2.3,2.1,3.8,2.2
	c1.5,0.2,2.8,0.8,4,1.7c2.1,1.6,2.9,5,5.3,5.9l2.7,2.1c1,1.8,1.9,3.8,3.7,4.4c0.3,0.8,1.3,0.6,1.5,2.1h-3c-1.4-1.1-3.1,1.4-4.4-0.7
	c-0.9-1.2-1.7-2.3-2.6-3.5c-0.4-0.6-1-1.9-1.3-1.1c-0.5,1.2-2.1,1.3-1.9,2.1c0.9,4-1.5,2.7-2.8,3.2c-1.7,0.9-2.9,3.9-5.4,1.8
	c-0.6-0.5-0.6,1.1-0.2,1.8c0.4,0.9,1.3,1.4,2.3,1.5l0.5,0.8l-0.5,0.7l0,0c-1.8-0.9-3.5-0.2-5.1,0.3c-0.1,1.4,1.6,1.3,1,2.7
	c-0.5,1.2-1.2,2-2.4,1.8c-0.5-0.1-1.2-0.1-1.2,0.8s0.7,0.8,1.2,0.9c3.3,2,7,3,10.9,2.9l0,0c0.5,1,1.5,0.9,2.2,1.3l0,0
	c-0.2,3.3,1.8,2.5,3.1,3l0,0c-0.3,1-0.2,2,0.1,3c0.4,1.6-0.1,2.9-1.7,2.8l0,0l-1.1,0.6c-2.5-1.5-4.2-4.8-7.3-5.7
	c0.2,0.5,0.3,0.9,0.5,1.3c1.6,2.6,2.5,5-0.9,6.4l-2.5,0l0,0c-0.5-0.7-1.2-1.1-1.9-0.6c-0.6,0.8-0.8,1.8-0.4,2.8
	c0.4,1,0.5,1.4-0.5,1.4c-0.8-1-1.8-0.1-2.6-0.8c-1.2-1.6-2.2,0.5-3.4,0.5c-0.1,0.3-0.2,0.6-0.1,0.9c0.8,1.4,1.9,1,2.9,1l0,0
	c1.4,1,3,1.5,4.7,1.5l0,0c1.9,1.2,4.1,1.5,5.7,4.6c-2.7-0.7-4.9,0.4-7.2,0.1c-1.5-0.2-4.2-1-4.4,1.1c-0.3,2.5,2.5,1.7,3.8,2.9
	c0,0.6,0.4,1.2,1,1.4c2.4,1,4.9,1,7.3,1.3l0,0l0.2,0.2h0.2c1.3,0.9,2.6,0.6,3.9,0c1.3-0.6,2.9-0.6,4.2,0c1.3,0.5,2,2,1.5,3.4
	c0,0,0,0.1-0.1,0.1c-0.5,1.4-1.5,1.9-2.6,0.6c-0.7-0.9-1.8-1.4-2.9-1.4c0,0.2,0,0.3,0.1,0.5c0-0.2-0.1-0.3-0.1-0.5
	c-1-0.6-1.9,1.2-3-0.1c-0.6-0.8-1.9-1.7-2.5-0.4c-0.5,1,0.9,1.7,1.3,2.7c-0.3,3.7,2.3,4.1,3.7,5.8c-0.4,1.7-1.1,2.1-2.1,0.8
	c-0.9-1.2-1.7-5-2.1,0.3c0,0.7-1.1,0.6-1.7,0.5c-1.1-0.2-2.2-0.6-3.3-0.9l0,0c-2-0.6-2.7-3.6-4.3-4.8c-1.1,5.1,1,8,3.7,10.6l0,0
	c-1.2,2.2-3.4,0.7-4.8,2.1c-0.9,0.9-1.4,3.1-2.9,2s-3.2-1.1-4.9-1.4c-0.6-0.1-1.5-1.3-1.7,0.3c-0.1,0.9,0.2,2.2,1.4,1.9
	c0.1,0.1,0.3,0.2,0.5,0.1l0,0c1.4,1.2,3.5,0.8,4.6,3c-0.4,1-1.8-0.8-1.8,1.2c-3.2-1.5-6.3,0.1-9.4,1.3c1.1,0.7,2.2,1.5,3.4,0.9
	c0.8,0.2,1.7-0.3,2.3,0.6c2.4,4.2,5.8,2.9,9,3l0.2,0.1h0.2l0,0c3.6,0,5.3,3.3,7,6.8c0.5,0.7,0.5,1.7,0,2.4c-0.5,0.9-0.8-0.4-1.2-0.6
	c-0.9-0.4-1.7-0.9-2.3-1.7c-0.7-1-1,0-1.3,0.8c-1.9,0.4-4,1.4-5.5-1.2c-0.9-1.5-1.7-0.4-2.6-0.1l0,0c-0.8-0.7-1.4-2-2.8-1
	c1.4,1.3,1.1,3.5,1.7,5.2c0.1,2.1-1.6-0.1-1.8,1.2c0,1.4,1.5,1.3,1.4,2.7c-0.7,0.9-1.6-0.7-2.3,0.5c0.3,1.3,2.1,1.6,1.6,3.5
	c-0.8,2.8-2.2,0.4-3.2,0.7l0,0c-2.2-2.7-5.5-1.6-7.9-3.9c0.1,0.8,0.6,1.6,0.5,1.7c-2.2,3.7,1.1,2.8,1.9,3.9c0.5,0.7,1.4,0.9,2.2,1.4
	l0,0c0.4,0.9,1.1,0.5,1.6,0.6c0.1,0.6,1.2,0.4,0.6,1.4l0,0l-1.1-0.1c-0.1,0-0.1-0.1-0.2-0.1c-1.8-0.8-3.6-1.5-5.3,0.7
	c1,1.2,2.6,0,2.8,2.2c-2.8-0.4-5.6,0.2-8,1.6c1.2,1.6,2.5,1.1,3.7,1.2l0,0c5.1,0.1,10.2,0.2,15.2,0.2c0.9,0.1,1.9-0.2,2.5-0.9
	c0.5,0.4,1.2-0.4,1.7,0.5l-1.4,0.8l0,0c-0.5,2.4,2.1,1.6,2,3.8c-3-0.1-6-1.9-8.8,0.6c-0.7-0.8-1.5-1.1-2,0.1s0.6,1.4,1.1,1.8
	c0.4,0.4,0.9,0.8,1.3,1.1l0,0c-0.8,1-1.7,1.9,0.1,2.8c0.2,0.1,0.4,0.3,0.5,0.4c-0.2-0.1-0.4-0.2-0.5-0.4c0.1,0.8-0.2,1.2-0.8,1.3
	s-1,0.8-0.3,1.6l0,0l0.5,1.5c-0.2,0.6,0.3,2.9-1.2,1.1c-0.5-0.6-1.3-0.8-2-0.5l0,0l-1.1-0.7l0,0c-1.6-1.5-3.8-1.6-4.9-4.2
	c-0.2-0.4-1,0-0.8,0.7c0.6,1.6-0.6,4,1.3,5l0,0c-1,0.9-2.1,1.7,0,2.7c0.7,0.3,1.1,1.1,0.9,1.9c-0.3,1.1-3.8,2.2-4.6,1.5
	c-0.5-0.5-0.9-1.2-1.6-1l0,0c-0.5,0-1.1,0-1.6-0.1c-1-0.1-2.3-2.5-2.9-0.7c-0.5,1.4,1.6,1.7,2.2,2.9c0.1,0.1,0.1,0.3,0.1,0.5
	c-0.6,0.8-1.9,0.2-1.9,2l3,1.1l0,0l0.5,0.8l0,0c-0.5,2.8-2.1,0.7-3.1,1.3l0,0c-3.1-2.3-5.2-2.9-8.4-2.2c3.1,2.6,6.2,4.8,9.9,4.5l0,0
	c0.5,1.3,1.8,0.7,2.4,1.7c-0.3,1.1-1.7,0.5-1.6,2.1c0.7,0.5,1.4,0,2.1-0.2c3.6-1.3,7-1.9,10.8-0.5c2.1,0.8,4.4,1.9,6.8,1.1
	c1-0.3,2.2-0.3,3.2,0.1l0,0c0.2,0.6,1,0.8,0.8,1.6s-0.9,0.6-1.4,0.6c-1.2,0-2.5-0.1-3.7-0.1l0,0c-2.5,0.1-4.9,0.9-6.9,2.3
	c3.4,0.8,6.7,2.1,10.1,0.5c0.1-0.1,0.1-0.2,0.2-0.2l-0.2,0.2c0.5,0.4,1.3-0.2,1.5,0.8c0.1,0.7-0.4,1.1-0.9,1.4l0,0
	c-2.3,1.8-0.4,4.1-0.3,6c0.1,1.6,1.4,1.9,2.6,1.3c0.4-0.1,0.9-0.1,1.3,0.2c2.3,1.7,4.2,0.6,6.1-1.1l0,0c1.1-0.5,2.1-1.4,3.3-0.4
	c0.9,0.8,1.6,0.2,2.2-0.5c3.2-3.8,6.8-4.8,10.9-3.1c1.7,0.7,2.2,0,2.1-2.5l0,0c0.4-1.6,1.9-1,2.6-2.1c2-0.9,4.1,0.1,6.2-0.4
	c0.8-0.2,2.1-0.5,1.1,1.7c-0.4,0-0.8,0.3-0.8,0.8c0,0.1,0,0.2,0,0.2c0.1,0.3,0.5,0.5,0.7,0.7l0,0c0.7,1.6-0.3,1-0.8,1.1
	c-1.8,0.6-4,0-5.1,3l0,0c-2.5,0.4-4.9,0.8-7.4,1.2c-1,0.2-2.4,0.3-2.2,2.3c0.2,1.8,1.4,1.2,2.5,1.3c2.1,0.1,4.6-0.9,6.1,2.4l0,0
	l0.1,0.1c2.2,1.7,4.3,0.1,6.4-0.8l0,0c0.4,0.1,1-0.1,1.2,0.3c0.3,0.6-0.3,0.9-0.5,1.3s-0.7,1-1.1,1.5c-0.2,0.7,0.2,0.9,0.5,1
	c1.4-0.2,2-1.9,3-2.8c0.1-0.1,0.3-0.2,0.4-0.4h1l0.1,0.4c1.5,3.5,3,1.7,4.5,0.4c-0.4,0.8-0.4,1.8,0,2.7l0.7,0.7c2.2,1.8,3-2.2,4.8-2
	c0.5-0.4,0.7-1,0.6-1.5c0.4-0.7,0.6-1.4,0.6-2.2l0,0c1,0.6,1.9,1.4,2.5,2.4c0.2,0.1,0.6,0.5,0.6,0.4c1.1-2.6,2.5-1.8,4-0.9
	c0.1,0.2,0.2,0.4,0.4,0.5c0.4,0.3,1.1,0.3,1.4-0.2c0-0.1,0.1-0.1,0.1-0.2h0.2h0.3c0,0.1,0.1,0.2,0.1,0.3c0.3,0.2,0.7,0.1,1-0.2
	c0,0,0,0,0-0.1l0.5-0.7c2.5,0.3,4.4,2,6.5,3.6l0,0c0.2,0.6,1,1,1.6,0.7c0,0,0,0,0,0c0.9-0.2,0.4-1.8,1-1.9c2.7-0.6,2.4-2.2,0.6-4.4
	l6.7-1.5c-0.7-0.7-1.6-1.4-2.5-1.9c-2.5-1-0.6-1.8,0-2.7l-0.3,0.1l0.3-0.1v-1.4l0,0c-0.8-1.1-0.5-1.4,0.5-1.4c0.7,0,2.2,1,2.1,0
	c-0.5-3.6,2-2.9,2.9-4.4c0.4,0.2,0.8,0.4,1.3,0.5c1.4,0.3,3.2-0.3,2.1,3.2c-0.4,1.1,0.5,1.8,1.3,0.8c0.6-0.7,1-1,1.5,0
	c0.4,0.7,0.3,1.6-0.2,2.3c-0.4,0.5-0.8,1-1.1,1.6c-0.4,0.7-1.3,1.4-0.8,2.4c0.6,1.3,1.2,0.2,1.8-0.3c0.7-0.7,1-0.1,1.5,0.6
	c2.2,3.2,2.6-4.1,4.8-1.6c0.2-0.4,0.5-0.7,0.6-1c0.1-1-0.5-1.5-0.9-2.1l-3.4-4.8c2.5-0.2,4.7-0.7,6.8,0.5c1.5,1.5,3.2,0.7,4.8,0.8
	c0.6,0,1.5,0.5,1.9-0.6s-1.2-0.9-0.8-2.2c1.1-0.4,2.3,0.3,3.3-0.8l0,0c0.8-0.4,1.3,1,2.1,0.5c2.2,1,3.5,3.5,5.3,5.3
	c0.2-0.1,0.4-0.1,0.5-0.2c-0.2,0.1-0.4,0.2-0.5,0.2c0.5,0.8,1.2,1.7,1.7,0.8c1.3-2-1.6-2.5-1.1-4.5h5.9c2,0.1,4.1,0.5,6-0.7
	c0.9,0,1.8,0.3,2.7-0.7C393.8,259.5,392.7,259.9,391.7,259.8z M360.9,156.2L360.9,156.2L360.9,156.2z M289.8,271L289.8,271l-0.2-0.1
	L289.8,271z M251.9,215.6c0,0.1,0,0.3,0,0.4C251.9,215.8,251.9,215.7,251.9,215.6z M274.2,262c0.3,0.1,0.5,0.3,0.5,0.6
	c-0.4,0.3-0.8,0.3-1.2,0.1C273.7,262.5,274,262.3,274.2,262L274.2,262z M286.1,143.8L286.1,143.8L286.1,143.8
	C286.1,143.7,286.1,143.7,286.1,143.8L286.1,143.8z M342.1,131.9L342.1,131.9L342.1,131.9L342.1,131.9z M361.9,244.8L361.9,244.8z
	 M278.8,241.8L278.8,241.8c0.3,0.3,0.5,0.8,0.4,1.3l-0.1-0.4C279.1,242.3,279,242,278.8,241.8L278.8,241.8z M273.1,247.7
	L273.1,247.7z M338.7,151.9L338.7,151.9c-0.2,0-0.4,0-0.6,0C338.4,151.9,338.6,151.9,338.7,151.9L338.7,151.9z M324.9,124L324.9,124
	L324.9,124z M309.3,78.2L309.3,78.2L309.3,78.2L309.3,78.2C309.3,78.3,309.3,78.3,309.3,78.2z M307,118.1c-0.2,0.2-0.4,0.4-0.7,0.8
	C306,118.2,306.5,118.1,307,118.1z M282.9,220.1h0.1l-0.1,0.1L282.9,220.1z M302.8,216v0.1C302.8,216.2,302.8,216.1,302.8,216
	L302.8,216z M316.8,169.9L316.8,169.9L316.8,169.9z M315.5,167.1c0.4,0.1,0.6,0.4,0.5,1.1C315.8,167.8,315.6,167.4,315.5,167.1
	L315.5,167.1z M318.5,151.9L318.5,151.9L318.5,151.9L318.5,151.9z M321.8,191.5L321.8,191.5L321.8,191.5L321.8,191.5z M320,134.7
	L320,134.7z M320,134.7L320,134.7L320,134.7z M301.7,207.9L301.7,207.9L301.7,207.9C301.7,208,301.7,207.9,301.7,207.9L301.7,207.9z
	 M321.6,200.2L321.6,200.2L321.6,200.2L321.6,200.2L321.6,200.2L321.6,200.2L321.6,200.2z M329.2,212.4L329.2,212.4L329.2,212.4z
	 M297.9,160.6L297.9,160.6z M290.9,204.5L290.9,204.5L290.9,204.5L290.9,204.5z M303.4,217.5l-0.1,0.1l-0.1-0.1L303.4,217.5
	L303.4,217.5L303.4,217.5z M303.9,216.8L303.9,216.8L303.9,216.8z M324.3,95.1L324.3,95.1z M299.3,158.3L299.3,158.3L299.3,158.3z
	 M298,160.6L298,160.6L298,160.6z M310,118.1l-0.1-0.1C310,117.8,310,117.9,310,118.1z M303,143.6c-0.2,0.2-0.6,0.3-0.9,0.3
	C302.4,143.7,302.7,143.6,303,143.6z M315.4,210.9l0.1,0.2l-0.2-0.1L315.4,210.9z M332.2,176.4c0.2-0.2,0.4-0.2,0.5,0.3
	C332.6,176.5,332.4,176.4,332.2,176.4L332.2,176.4z M330.2,242.4v-0.1l0.1,0.1C330.2,242.4,330.1,242.4,330.2,242.4L330.2,242.4z
	 M326.5,104.6L326.5,104.6c0.1,0.2,0.1,0.3,0.1,0.4C326.5,104.8,326.4,104.7,326.5,104.6L326.5,104.6z M336.5,157.5
	c0-0.2,0-0.3-0.1-0.5l0.2,0.5C336.6,157.5,336.5,157.4,336.5,157.5L336.5,157.5z M326,81.3L326,81.3L326,81.3L326,81.3z
	 M318.3,244.9c0-0.1,0-0.1,0-0.2L318.3,244.9L318.3,244.9z M324.9,243.4L324.9,243.4L324.9,243.4z M353.5,229.5
	c0.1-0.1,0.3-0.1,0.4,0C353.8,229.5,353.6,229.5,353.5,229.5L353.5,229.5z M330.2,87.8L330.2,87.8L330.2,87.8l-0.1-0.1
	C330.2,87.7,330.2,87.7,330.2,87.8L330.2,87.8z M298.9,93.7L298.9,93.7z M298.9,93.9v-0.2l0.1,0.1L298.9,93.9z M286,186.5L286,186.5
	z M297.3,242.7L297.3,242.7L297.3,242.7L297.3,242.7L297.3,242.7L297.3,242.7z M306.5,57.6L306.5,57.6L306.5,57.6L306.5,57.6z
	 M299.6,247L299.6,247z M321.5,245L321.5,245l0.1,0.1C321.5,245.1,321.5,245,321.5,245L321.5,245z M357.6,223.8L357.6,223.8
	L357.6,223.8L357.6,223.8z M345.8,221L345.8,221L345.8,221L345.8,221L345.8,221z M342.6,164.2L342.6,164.2L342.6,164.2L342.6,164.2z
	 M290.8,134.7L290.8,134.7z M364.1,247.7L364.1,247.7L364.1,247.7L364.1,247.7L364.1,247.7z M355,216.7L355,216.7z M355,216.7
	L355,216.7z M355,216.7L355,216.7z M345.3,165.4v0.1h-0.1L345.3,165.4z M335.2,101.5L335.2,101.5L335.2,101.5L335.2,101.5
	L335.2,101.5z M328.6,66.2L328.6,66.2L328.6,66.2z M328.6,66.2L328.6,66.2L328.6,66.2z M274.9,252c0.1-0.3,0.2-0.7,0.2-1.1l0.7,0.9
	C275.5,251.8,275.2,251.8,274.9,252z M316.2,40.2L316.2,40.2z M294.2,102.7L294.2,102.7l-0.2-0.1c0.1,0,0.1-0.1,0.2-0.1V102.7z
	 M273.5,184.2c0.1,0.1,0.2,0.3,0.2,0.4c0.1,0.8,0.1,1.4,0.2,1.8C273.5,185.8,273.3,184.9,273.5,184.2L273.5,184.2z M379.2,242.9
	c0.1,0,0.2,0.1,0.3,0.1L379.2,242.9z M350.6,191.7L350.6,191.7L350.6,191.7L350.6,191.7L350.6,191.7z M345,173.3L345,173.3
	L345,173.3L345,173.3z M267.2,187.7c0,0,0,0.1,0,0.1h-0.1L267.2,187.7z M274.1,190.1L274.1,190.1L274.1,190.1L274.1,190.1z
	 M258.3,233.3c0,0.1-0.1,0.2-0.1,0.4l-0.1-0.1C258.2,233.4,258.3,233.4,258.3,233.3L258.3,233.3z M355,203.1l-0.2-0.3
	C354.9,202.9,355,203,355,203.1L355,203.1z M367.7,193.1L367.7,193.1L367.7,193.1L367.7,193.1z M349,167.7L349,167.7L349,167.7z
	 M275.1,170.9c0,0,0-0.1,0-0.1h0.1L275.1,170.9z"/>
<path class="st0" d="M162.9,208.4L162.9,208.4l-1.2-0.1l0,0c-0.3-0.1-0.8-0.1-0.9-0.2c-0.3-3.4-1.7-1.8-3.2-1.6
	c-2.6,0.5-5.3,0.5-7.9,0c2.1-2.8,5.3-2.9,6.1-6.6c-1-0.5-2.3-0.4-3.1-1.8l0,0c1.3-1.8,3-3.1,4.1-5.5c-1.5-0.5-1.7,1.2-2.4,1.7l0,0
	c-1.2-0.6-2.5-2.3-3.3,0.5l0,0c-0.1,0-0.3,0-0.4,0l-0.8-2.4l0,0l2.4-3.6c-1.4,1.8-3.2,1-4.8,1.4c-0.9-0.1-1.4-0.7-0.7-1.8
	c0.6-1.1,0.9-2.4,0.7-3.7l0,0c1.4-2.4,3.5-3.4,5.4-4.8c0.4-0.3,0.4-0.3,0.1-1.5l0,0c-0.9-1.1-2.2,0.8-3.1-0.7l0,0
	c1.2-1.3,3.4-1.2,4-3.1c0.4-1.5-2.1-2.6-0.6-5.6l-5.6,5.2c-1.2-2.3,0.4-4.6-0.9-7.2c-0.3,2.8-2.2,3.6-2.6,5.9
	c-0.6,3.6-1.5,1-2.3,0.2c-1.7-1-1.5,0.7-1.6,1.9c0,1.1,0.1,2.3,0.2,3.4c-1.8,1-3.7-2.9-5.4,0.1l0,0c-2.8-4.3,0.9-4.3,2.3-6
	c-0.9-0.7-2.3-1.4-0.1-2.6c1.1-0.8,2.1-1.7,3-2.8c-2.9,1.7-5.9,1.8-8.9,2c-2.1,0.2-3.8,1.6-4.4,3.6l0,0l-1,0.3l0,0
	c-1.5,0.8-3.4,0.3-4.4-1.1c-0.8-1,0.1-2.5,0.7-3.6h1.2l0,0c3.2,0.1,6.2-0.6,9.6-1.2c-2.3-1.8-2.6-4.7-1-8.4l0,0
	c2.8-0.3,5.7-0.5,8.8-2.8c-2.1-0.5-3.7,0.9-5.1-0.4l1.2-1l2.5-1.4c1-1.2,2.9-1,3.6-3.8l-4.8,2.7l0,0l-0.4-1.5
	c-2.1,1.2-5.1-1.4-6.4,2.6l0,0l-0.7,0.7l0,0c-1.1,0.3-2.3,0.6-3.3-0.3c0.2-1.4,1.6-1.6,1.4-3.2c-1.7,0.3-3.3,1-4.7,2.1
	c-0.6-3.2-2.7-1.9-4.3-2.3c-0.7-0.1-1.2-0.4-1.1-1.5l0,0l4.2-2.4l0,0c0.8-0.3,1.5-0.7,2.3-1c0.6-0.2,1.3-0.5,1.1-1.5s-1-0.6-1.5-0.6
	c-1,0.1-1.9,1-3.1,0.1l2-7.2l0,0c0.6-1.2,0.7-2.2-0.7-1.2s-2.8,1.4-4.3,0c1.3-1.9,3.3-2.9,4.2-5.3c-2.3-0.9-3.5,2.9-5.7,1.7l0,0
	l0.2-1.6l0,0c2.1,0.8,1.5-3,3.3-3.1c1.7-0.1,2.3-3.1,1.1-4.8c-0.4-0.5-0.4-1.1-0.2-1.6l0,0c1.2-1,3-1.1,3.2-3.6
	c-3.6-0.9-3.6-0.9-1.3-4.5c0-0.1,0.1-0.3,0.1-0.4c1-1.9,2.4-3.7,3.1-6.5c-2.1,1.5-2.7,3.8-3.7,5.6c-1.2,0.8-2.1,1.8-2.6,3.1
	c-0.9,1.9-1.6,0.8-2.4,0c-1.5-1.4-1-3.8-1.7-6.1c0.1,4.4-1.5,7.4-2.7,10.7c-0.9,0-1.3-2.1-2.2-1.3c-0.4,0.4-0.2,1.8-0.3,2.8l0,0
	c-1.4,0.4-2.4,1.7-2.4,3.1l0,0c-1.7,0.1-2.3-1.1-2.3-3.1c0.8-0.8,0.4-2.1,0.6-3.1l0,0c1.1-2,1.6-4.6,3.8-5.7
	c-1.4-1.4-3.3,2.7-3.7-1.4c2.2-0.2,4.4-1.1,6.2-2.4c-1.6,0.2-3.1,0-4.6-0.7c1.3-3,3.4-4.7,5.1-7.2c-3.5,1.2-5,5.4-8,6.8
	c-0.8-1.3-1.6-2.6-1-4.4l0,0c0.8,0.2,1.4,1.4,2.4,1c0.4-1.7-1.8-0.7-1.3-2.3s2.9,0.7,2.6-1.3c-0.4-2.7,1-2,1.8-2.6
	c1.3-0.6,2.3-1.6,3-2.8l-5,1.6c-1-2,0.7-3,1.1-4.4c0.9-3,2.1-5.8,3.5-9.6c-2.2,1.6-2.4,3.7-3.1,5.4c-1,2.5-1.5,5.8-4.7,4.5
	c-0.3,3.1-2.5,1.4-3.7,2.4l0,0c-1.9,0.5-3.7-0.9-5.7-0.8l0,0l0.2-1.5l0,0l0,0c3.9,0.2,0.9-2.6,1.1-4.1l0,0l4-3.9
	c-2.1-1.2-3.4,0.5-4.8,1.1s-2.1,0.5-1.7-1.7c0.3-1.1,1.1-0.8,1.7-1c0.8-0.2,0.9-0.7,0.3-1.5l0.2-1.4l0,0c0.2,0,0.3-0.1,0.4-0.2
	c-0.2-0.4-0.3-0.8-0.3-1.2c0.1,0.4,0.2,0.8,0.3,1.2c1.7,0.1,3.1-0.1,2.4-3.1L99.6,76l0.1-0.1c-1.8-2.3,0-3.6,0.9-4.8
	c-3.6-1.9,0.9-4-0.4-6.1c-0.8,1.5-1.5,3-2.4,4.4s-1.3,3.3-3,4c0.2-2.4-2.8-3.3-1.3-6.2l0.3-0.5l-0.8-0.4c0.1-0.5-0.9-0.9-0.1-1.5
	c1-0.7,2.4-0.9,3-2.7c-1.5-0.4-2.4,1-3.6,1.2l0,0c-0.5-0.3-0.6-0.9-0.3-1.4c0-0.1,0.1-0.1,0.1-0.2c1.8-2.1-0.4-1.7-0.9-2.3
	c0.3-0.4,1-1.1,1-1.3c-0.9-2.1,0.8-4.6-0.4-6.6c0.1-0.2,0.1-0.3,0.1-0.4l1.8-5.5l-0.6-0.4l-2.1,4.6l0,0c-1.3-1.3-0.5-2.9-0.1-4.2
	c0.8-2.9,0.8-6,0-8.9c-1.1,3.9-0.7,8.4-2.9,11.8c-0.6-1.2-2.1,1.4-2.5-0.9c-0.3-1-0.5-1.9-0.9-2.9c-0.2-0.6-0.2-0.9-1.1-0.2
	c-2.2,1.8-0.1,2.7,0.1,4l0,0c-1,3.3,0.8,4.7,2.5,6.2c0,1.2,0.5,3.1-1.4,1.6c-1.4-1-2.6-2.6-4.4-2.5c1.8,1.7,3.1,3.9,3.8,6.2
	c-1.5,0-2.5-1.5-4-0.6c1.4,1.3,2.9,2.1,3.8,3.8c0.1,0.4,1.5,0.9,0.1,1.2c-1,0.2-2-0.4-3.1-0.6l-0.1,0.5l4.8,2.2
	c-0.9,1.7-1.8-0.7-2.7,0c0.8,1.8,1.3,3.6-1,3.9c-1.4,0.1-1.7,1.6-2.4,2.5c-1.3-1.5,1.1-3.6-0.5-5.1c-1.1,1-1.1,2.6-1.5,4l0,0l-1-0.8
	c-2.2-1.4-3.8-4.2-6.5-4.8l5.1,5.8c-0.1,0.3-0.1,0.6-0.1,0.9c-0.4,1.2-2.2,0.5-2.4,1.9c0.6,1.5,2.3,0,2.7,1.8
	c-0.9,1.4-2.6,2-4.2,1.5c1.6,2.1,5,3.1,1.4,5.8c1.3,1.4,3.3-0.5,4,2.1l0,0c0.1,2.2,1.4,1.5,2.3,1.6c0.1,0.1,0.1,0.2,0.2,0.2
	l-0.2-0.2c0.3,1.2-0.1,1.9-1,2.2L72,88.2c0.9,1.3,2.1,2.3,3.5,3l0,0c0.4,0.7,0.7,1.6,1.6,1.5c2,2.3-1.4,2-0.9,3.7
	c1.1-0.6,2.3-0.9,3.5-0.8c0.3,0.1,0.6,0.2,0.8,0.1v0.1c-0.1,1-1.1,2.1,0.1,3l0,0c-0.1,0.2-0.1,0.5-0.1,0.7c-0.2,0-0.4,0.1-0.6,0.2
	l0,0c-2.5,0.2-4.7-1.5-7.5-0.8c-1.8,0.5-1.6,3.4-3.5,2.9l0,0c-1.6-2.8-3.2-5.8-6.6-7.7c1.3,3,3.4,3.8,3.8,6.2
	c-0.8,1.3-1.9-0.5-2.8,0.4c0.3,1.2,1.7,1.2,1.7,2.6c-1.3,0.8-2-0.9-3-1.3c-0.6-1.4-2.1-2.3-3.6-2.2l2.5,3l0,0
	c0.4,2.5,2.3,2.9,3.5,4.2c0.4,2.5,0.8,5.1,2.5,6.8l0,0l0.7,3.9c-1-0.5-2.1-0.9-3.1-1.2c-0.7-0.1-1.8-1.4-2,0.8
	c-0.1,1-1.1,2.1,0.6,2.4c0.7,0.1,1,1.1,0.7,1.8c-0.4,1-0.9,2-1.8,2.3s-0.9-0.7-1.1-1.6c-0.6-1.9-1.2-0.5-1.8,0.2l0,0l-0.8,1.4l0,0
	c-2.8-1.8-4.3-5.8-7.8-6.9c0.6,1.5,1.6,2.9,2.7,4.1c-2.1,1.3-2.1,1.3-1.1,2.3l0,0l0.2,2.3c-0.7,1-0.3,2.9-1.7,3.3l0,0
	c-1.1,2.7-2.6,4.1-5.1,3c-0.9-1-1.8-1-3.7-0.2l3.6,1.6l0,0c0.7,1,3.5,0.1,1.9,3.3c1.2,0.8,0.7,4.3,3.1,3.2l0,0
	c1.6,0.7,3.5,0.2,5.3,2.2c-0.6,0.1-1.1,0.2-1.7,0.4c-1.1,0.5-4.1-0.2-1.2,3c0.3,0.4,0.3,1.1-0.2,1.4c-0.2,0.2-0.5,0.2-0.7,0.2
	c-0.8-0.2-1.5-0.7-2.3,0.2c0.1,1,1.6,0.6,1.2,2.1c-1.9,0.4-3.5-2.5-5.5-1c-1.6,1.3-2.8-1.3-4.3-0.8c-1.5-1.6-2.2-4.3-4.5-5.4
	c0.1,2,1.6,2.9,1.5,4.7l0,0c0,1-0.2,1.8-1.2,1.4c-2.1-1.5-4.2-3.2-6.8-2.9c1.6,0.7,2.5,2.4,3.7,3.7l0,0c1.7,1.9-0.7,2-1,3.4
	c1.9,0.8,3.9,0.9,5.8,0.5c0.3,1.1,2.5-1.6,2,1.6c-0.2,0.8,1.1,2-0.6,2.5c-0.7,0.2-2.8,0.6-1.7,1.9c0.9,1,0.6,4.7,3.5,3.2
	s6-0.2,8.9,1.2c-0.3,0.8,0.6,2.1-0.5,2.6c-1.9,0.8-0.8,2.3-0.6,3.6c-0.1,2.8-1.2,1.9-2.4,1.2c-2.1-1.2-3.6-3.9-6.5-4.4
	c1.6,3.4,5.4,3.6,5,8.1l0.3-0.1c-0.1,1.8-0.9,2.4-2,1.4c-1.9-1.7-3.8-1.4-6-0.4c1.3,0.2,1.9,1.7,3,2.2l0,0c0,1.1-1.5,2.5,0.6,3
	c1.4,0.3,0.2,0.6-0.1,0.9s-1.3,0.7-0.4,1.7c-0.7,2.8-2.9,2-4.3,3.1c0.1,0.1,0.2,0.1,0.3,0.2c-0.1-0.1-0.2-0.1-0.3-0.2
	c-2.5-0.4-5.3,0.5-7.3-2.5c-1.2,0.1-2.4-2.1-3.4-0.8c-0.9,1.1-1,0.6-2,0.5c-2.7-0.4-3.9-3.3-6.2-4.9c1.2,3.6,0.8,3.3-1.6,4
	c-1.9,0.6-3.7-0.2-5.5,0.1c2.5,2,5.6,1.9,7.9,5.1c-1.7,0.4-3.2-0.3-4.7,1.2c1.2,0.4,2.5,0.7,3.8,0.9c2.2,0,4.4-0.1,6.2,1.9l-0.5,1.7
	l0,0c-0.7,2-2.9,0.8-3.7,2.6c2.4,1.7,4.7,2.6,7.3,1.3l0,0c0.6,0,1.2,0,1.8,0.1c0.7,0.1,1.9,0,1.7,1.5s-1.4-0.2-2,0.7
	c0.9,0.5,2.5,1.1,2.5,1.6c0,3,1.8,1.7,2.8,2.3c1.2,1.5,1,2.3-0.7,2.5c-1.3,0.1-2.6-0.6-3.8,0.6l0,0c-0.7,0.5-1.9-0.1-2.4,2.1
	c5.3,0.7,8.8,5.8,13.4,8.6c-2.9-0.6-5,4.3-8.9,0.7c-3-2.8-5.2-3.2-6.1-7.1c0-0.1-0.4-0.1-0.7-0.1c0.3,1.9,0.5,3.5-1.7,1.9
	c-1-0.7-2.4-0.3-3.5-0.7c-1.7-0.7-3.8,0.7-5.2-1.4c-0.8-1.8-2.2-3.3-4-4.1c-0.7,1.5,1.2,1.5,0.7,2.5c-1.5,0.7-2.7-1.4-4.4-0.2
	c1.5,1.9,3.4,2.4,5,3.5l0.6,0.8c-1.3,1.9-3.5-0.6-4.9,1.8c1.4,0.5,2.5,1.3,3.9,1.1c1.1,0.1,2.2,0.2,3.3,0.3c1.6,0.5,2.9,1.7,3.6,3.3
	c0.5,1.1-1.2,1.1-2,1.4c-2.2-0.2-4.4,0.4-6.2,1.6c-0.1-0.1-0.3-0.2-0.5-0.2c-2.6-3.6-6-2.4-9.3-2.3l6.1,3l0,0c0.7,1.3,0,1.3-0.8,1.5
	c-1,0.2-2.2-1.2-3.1,0.4c2.6,1.1,5.1,2.4,7.8,1.9c0.7-0.2,1.4,0.3,1.6,1c0,0.1,0,0.2,0,0.4c0.1,1.3-0.9,1.2-1.5,1.4
	c-1.1,0.4-2.5-0.8-3.5,1.2c2.8-0.7,3.6,3.4,6,3.5c0,1,0.1,2.5,0.9,2.5c0.9,0,1.1-1.4,1.2-2.5l0,0c0.7-0.8,1.9-1.2,3-0.8
	c0.9,1.3,3.6-0.4,3.1,3.1l0,0l0.1,1.4l0,0l-0.1,3.4l0,0c-0.8,0.4-1.8-0.2-2.5,0.7l-1.2,0.8c-1.4-1.2-2.2-0.6-1.9,1.4
	c0.2,1.3-0.5,0.7-0.7,1l0,0l-2.9,0.6c-2.6-0.7-5.4-0.9-8.1-0.4c1.4,0.9,3,0.9,4.2,2.2c-0.7,2.8,1.4,2.9,2.3,2.9c3.2,0.1,6,2,8.9,3.2
	l0,0c-1,1.3-2.4,1.2-3.6,2c-1.2,0.7-2.8,1.6-2.6,3.9c0,1.7,1.2,3.2,2.9,3.6c2.4,0.7,4.8,1.2,7.2,1.5c13.7,1.5,27.3,2,41,2.3
	c16.9,0.4,33.8,0.3,50.7-0.7c5.1-0.3,10.2-0.2,15.3-0.9c4.6-0.6,9.4-0.8,14-2.1c1.7-0.3,3.1-1.7,3.4-3.4c0.5-2.2-0.9-3.2-2.2-4.1
	c-0.4-0.3-0.7-0.6-1.1-1c1.5-0.3,1.6-1.4,1.5-2.7l1.6-0.6c1.4-0.4,3,0.8,4.2-1.2c-1.3-1-3-1.3-4.5-0.6c-1.1-1.6,1.9-4-1.2-5.2
	l4.2-1.8c0.5,0.1,1.4,0.3,1.4,0.2c1.3-3.6,3.2-1.8,5.3-0.3c-2.9-5.2-3.2-6.2-3.1-8.5c0.8-1.6,2.5-2.6,4.3-2.4l0,0
	c1.8,0.5,3.1-0.6,4.7-1.9c-1.5-0.9-2.9,0.3-3.9-1l0.4-0.3c2.4-0.9,4.3-2.7,6.1-4.9c-0.6-0.1-1.2,0.1-1.6,0.6c-2,2.7-4.4-0.6-6.5,0.8
	c-0.3,0.2,0.7-1.5-0.1-2.2c-1.3,1.1-2.2,2.4-2.8,4l0,0l-1.8,1.2c-1.1-0.8-0.4-1.7-0.1-2.5l0,0c-0.1-1.5-1.5-0.4-1.8-1.5l0,0
	c0.9-1.2,1.2-3.1,2.5-3.9l0,0l2.9-0.7l0,0c2.3,0.8,4.3,1.1,3.3-3.3c-0.3-1.5,0.6-1.7,1.2-2.2h0.3l0.3-0.1l0,0l1.2,0
	c1.9,0.4,3.4,0.2,2.4-3.2l0,0l1.1-0.9c1.7-1,3.1-2.4,4.2-4C167.6,206.3,165.7,209.1,162.9,208.4z M122.3,165.7l-0.2-0.1l0.2-0.2
	C122.3,165.5,122.3,165.6,122.3,165.7z M148.8,233.4L148.8,233.4z M71.9,113.9L71.9,113.9c0,0.2-0.1,0.5-0.2,0.7
	C71.8,114.3,71.8,114.1,71.9,113.9L71.9,113.9z M139.6,251.6L139.6,251.6z M23.9,257.2c0-0.1,0-0.2-0.1-0.4
	C23.8,256.9,23.9,257,23.9,257.2L23.9,257.2z M108.2,137.8l0.1,0.2h-0.1C108.1,137.9,108.1,137.9,108.2,137.8z M115,257.8h-0.2
	l0.1-0.1L115,257.8L115,257.8L115,257.8z M68.8,198.7L68.8,198.7L68.8,198.7z M91.3,168.3H91l-0.2-0.2
	C90.7,167.7,91.1,168.2,91.3,168.3L91.3,168.3z M83.1,207.5L83.1,207.5L83.1,207.5L83.1,207.5L83.1,207.5z M94.1,170.5L94.1,170.5
	c0.2-0.1,0.4-0.1,0.6,0L94.1,170.5L94.1,170.5z M100.8,175.3L100.8,175.3L100.8,175.3L100.8,175.3L100.8,175.3L100.8,175.3z
	 M94.6,164.7c0.1-0.2,0.1-0.3,0.2-0.5c0.1,0.1,0.1,0.1,0.2,0.1L94.6,164.7z M95.7,157.3l-0.2-0.1l0,0l0,0
	C95.5,157.2,95.6,157.2,95.7,157.3L95.7,157.3z M91.6,161.9C91.6,161.9,91.6,161.9,91.6,161.9L91.6,161.9L91.6,161.9L91.6,161.9z
	 M78.6,166.7c0-0.1-0.1-0.3-0.1-0.4c0.2,0.1,0.4,0.1,0.6,0.2L78.6,166.7z M84.7,140.5L84.7,140.5L84.7,140.5z M67.2,237.9
	L67.2,237.9C67.2,238,67.2,237.9,67.2,237.9L67.2,237.9z M136,207.5L136,207.5z M68.6,254.6l0.2,0.1l-0.1,0.1L68.6,254.6z
	 M106.5,145.5L106.5,145.5c0.1,0,0.2,0.1,0.2,0.2L106.5,145.5z M95.6,138.9c0.1,0.1,0.3,0.2,0.4,0.3h-0.4
	C95.6,139.1,95.6,139,95.6,138.9L95.6,138.9z M70.1,253.8L70.1,253.8L70.1,253.8C70.1,253.8,70.1,253.8,70.1,253.8z M65.7,149.3
	L65.7,149.3z M136.5,239L136.5,239v0.1V239L136.5,239L136.5,239z M143.1,223.7L143.1,223.7L143.1,223.7z M75.9,152.3L75.9,152.3z
	 M146.3,216.1L146.3,216.1L146.3,216.1L146.3,216.1L146.3,216.1z M46.2,219.4C46.2,219.4,46.2,219.4,46.2,219.4L46.2,219.4
	L46.2,219.4z M145.7,216.9L145.7,216.9z M142,190.5v-0.1l0.1,0.1L142,190.5z M122.5,188.5h-0.4c0.1-0.2,0.3-0.4,0.5-0.6
	C122.6,188,122.6,188.2,122.5,188.5L122.5,188.5z M110.5,134.5L110.5,134.5L110.5,134.5z M102,122.3L102,122.3L102,122.3L102,122.3z
	 M78.2,105.4v-0.1h0.1L78.2,105.4z M46.7,203.5L46.7,203.5L46.7,203.5z M139.6,251.5L139.6,251.5l0.1,0.1L139.6,251.5z M19,246.2
	l-0.2-0.2c0.1,0,0.2,0.1,0.3,0.1L19,246.2z M148.2,238.1v0.1V238.1L148.2,238.1z M141,178.5h-0.1l-0.1-0.3L141,178.5z M135.8,155.5
	L135.8,155.5z M123.6,136.2c0.1-0.1,0.1-0.1,0.2-0.2L123.6,136.2z M68.8,102.3l-0.1-0.1l0,0c0.1-0.1,0.2-0.2,0.4-0.3
	C68.9,102,68.8,102.1,68.8,102.3z M65.8,104.1v0.2V104.1L65.8,104.1z M60.1,123.3c-0.1-0.2-0.2-0.3-0.3-0.5
	C59.9,122.9,60,123.1,60.1,123.3L60.1,123.3z M50.5,169.8L50.5,169.8c-0.1,0-0.1-0.1-0.1-0.1l0,0L50.5,169.8z M154.3,226.8
	c0,0.2,0.1,0.4,0.1,0.6l-0.2,0.1l0,0C154.2,227.2,154.2,227,154.3,226.8L154.3,226.8z"/>
<rect x="-2.4" y="262.6" class="st0" width="721.9" height="295.2"/>
</svg>
