<svg id="Layer_1" data-name="Layer 1" xmlns="http://www.w3.org/2000/svg" viewBox="0 0 720 720"><defs><style>.cls-1{fill:#03141e;}</style></defs><title>Artboard 1</title><path class="cls-1" d="M264.06,330.62h0l-.87-.09h0c-.22-.06-.62-.09-.63-.17-.19-2.38-1.27-1.23-2.35-1.08a14.85,14.85,0,0,1-5.76,0c1.58-1.91,3.86-2,4.45-4.55-.74-.34-1.7-.24-2.27-1.21h0c1-1.22,2.2-2.17,3-3.8-1.11-.32-1.22.85-1.78,1.16h0c-.87-.44-1.81-1.57-2.42.38h-.31l-.57-1.67h0l1.78-2.5c-1,1.22-2.37.66-3.54.94-.69-.1-1-.5-.5-1.22a4.18,4.18,0,0,0,.53-2.53h0c1-1.67,2.57-2.36,4-3.34.26-.18.26-.2.11-1h0c-.66-.79-1.64.56-2.25-.5h0c.91-.91,2.5-.82,2.92-2.18.33-1.07-1.52-1.82-.46-3.9l-4.1,3.59c-.85-1.59.31-3.18-.68-5-.19,1.95-1.63,2.52-1.89,4.1-.42,2.51-1.1.66-1.7.12-1.27-.73-1.12.49-1.14,1.28a21.61,21.61,0,0,0,.17,2.36c-1.32.71-2.7-2-4,.1h0c-2.07-3,.69-3,1.7-4.17-.63-.5-1.66-1-.1-1.82a13.81,13.81,0,0,0,2.19-1.9c-2.12,1.19-4.32,1.26-6.55,1.39a3.62,3.62,0,0,0-3.2,2.5h0l-.77.24h0a2.63,2.63,0,0,1-3.23-.78c-.57-.71.09-1.73.51-2.52l.89,0h0a37.68,37.68,0,0,0,7-.8c-1.69-1.25-1.89-3.26-.75-5.78h0c2.08-.22,4.19-.33,6.45-1.91-1.55-.32-2.71.62-3.77-.25l.88-.66,1.86-1c.72-.85,2.09-.7,2.65-2.65L246,291.62h0l-.27-1c-1.51.83-3.72-1-4.73,1.81h0l-.51.46h0a2.47,2.47,0,0,1-2.44-.21c.16-1,1.16-1.13,1-2.23a7.77,7.77,0,0,0-3.46,1.46c-.46-2.21-2-1.34-3.15-1.61-.52-.06-.92-.26-.8-1h0l3.06-1.65h0c.56-.22,1.11-.46,1.68-.66s1-.33.83-1-.71-.44-1.12-.41c-.72.05-1.42.71-2.27,0l1.5-5h0c.45-.85.52-1.51-.52-.83s-2,1-3.14,0c1-1.29,2.4-2,3.1-3.66-1.73-.66-2.58,2-4.19,1.18h0l.11-1.07h0c1.51.53,1.07-2.06,2.46-2.13s1.73-2.14.81-3.34a1,1,0,0,1-.15-1.11h0c.87-.68,2.21-.74,2.35-2.46-2.61-.6-2.61-.6-1-3.14a.74.74,0,0,0,0-.26,16.39,16.39,0,0,0,2.25-4.51c-1.56,1-2,2.59-2.73,3.88a4.83,4.83,0,0,0-1.92,2.16c-.63,1.29-1.17.57-1.75,0-1.13-.93-.77-2.59-1.25-4.18.1,3-1.09,5.14-1.94,7.41-.69,0-.93-1.43-1.6-.87-.31.25-.18,1.27-.25,1.94h0a2.45,2.45,0,0,0-1.79,2.18h0c-1.25.07-1.71-.75-1.69-2.14.62-.58.28-1.43.42-2.15h0c.8-1.41,1.14-3.21,2.76-3.92-1-.94-2.44,1.85-2.75-.95a9.76,9.76,0,0,0,4.57-1.65,5.87,5.87,0,0,1-3.35-.49c1-2.06,2.47-3.22,3.76-5-2.58.82-3.68,3.73-5.89,4.71a3,3,0,0,1-.7-3h0c.62.16,1.07.95,1.78.72.33-1.17-1.35-.51-1-1.6s2.12.47,1.88-.88c-.33-1.84.73-1.4,1.3-1.77a4.54,4.54,0,0,0,2.17-1.94l-3.7,1.09c-.76-1.37.48-2.07.78-3,.65-2.08,1.56-4,2.59-6.6-1.65,1.09-1.75,2.58-2.26,3.72-.77,1.72-1.09,4-3.45,3.11-.2,2.17-1.85,1-2.68,1.66h0c-1.43.38-2.74-.63-4.15-.52h0l.16-1.06h0v0c2.89.13.68-1.81.79-2.81h0l2.93-2.72c-1.51-.82-2.48.35-3.54.76s-1.57.33-1.25-1.2c.22-.74.78-.58,1.25-.69s.67-.51.23-1l.13-1h0a.47.47,0,0,0,.31-.17,1.76,1.76,0,0,1-.23-.83,3.94,3.94,0,0,0,.23.83c1.22.06,2.27-.09,1.76-2.12l-.06.06.06-.06c-1.31-1.6,0-2.46.69-3.32-2.65-1.28.68-2.79-.3-4.2-.59,1-1.09,2.1-1.73,3s-.93,2.27-2.23,2.78c.16-1.64-2-2.31-.94-4.28l.25-.33-.58-.27c.1-.36-.63-.61-.1-1,.75-.51,1.74-.64,2.21-1.87-1.13-.29-1.78.72-2.63.82h0a.69.69,0,0,1-.14-1.07c1.28-1.47-.27-1.15-.66-1.56.25-.31.76-.79.71-.91-.64-1.49.55-3.15-.33-4.57a3.11,3.11,0,0,0,.1-.3l1.3-3.79-.45-.26-1.52,3.15h0c-1-.91-.35-2-.09-2.9a10.77,10.77,0,0,0,0-6.14c-.81,2.7-.54,5.77-2.11,8.15-.47-.84-1.55.94-1.85-.62-.21-.66-.39-1.34-.65-2-.17-.42-.14-.63-.79-.15-1.65,1.22-.1,1.86.06,2.73h0c-.76,2.27.6,3.25,1.83,4.3,0,.84.37,2.12-1.06,1.13-1-.7-1.89-1.81-3.27-1.72a9.74,9.74,0,0,1,2.76,4.29c-1.09,0-1.81-1-3-.42a11.38,11.38,0,0,1,2.82,2.6c.05.29,1.11.6.09.83a5.91,5.91,0,0,1-2.26-.4l-.08.34,3.53,1.52c-.64,1.15-1.31-.5-2,0,.62,1.24,1,2.52-.73,2.69-1,.1-1.23,1.09-1.77,1.72-1-1,.83-2.49-.39-3.55-.81.67-.84,1.79-1.07,2.79h0l-.73-.57c-1.63-1-2.77-2.93-4.8-3.3l3.74,4a2.33,2.33,0,0,0-.07.64c-.32.81-1.6.35-1.8,1.33.42,1,1.7,0,2,1.26a2.78,2.78,0,0,1-3.09,1c1.18,1.47,3.64,2.12,1.05,4,.93.95,2.43-.34,2.95,1.44h0c0,1.53,1,1,1.7,1.11a1,1,0,0,1,.15.17l-.15-.17c.21.84-.07,1.33-.76,1.52l-4.1-1.3a6,6,0,0,0,2.55,2.07h0c.29.51.54,1.09,1.18,1,1.46,1.56-1,1.41-.7,2.59a4.37,4.37,0,0,1,2.59-.55,1.11,1.11,0,0,0,.62.09l0,0c-.1.7-.78,1.44.1,2.08h0a.86.86,0,0,0-.06.5.65.65,0,0,0-.41.13h0c-1.83.17-3.48-1-5.48-.55-1.31.33-1.21,2.37-2.54,2h0c-1.2-1.93-2.31-4-4.84-5.34,1,2.05,2.47,2.61,2.77,4.26-.61.92-1.42-.36-2.06.29.2.8,1.22.8,1.22,1.79-1,.53-1.45-.65-2.19-.93a2.68,2.68,0,0,0-2.64-1.51l1.83,2.07h0c.27,1.71,1.67,2,2.57,2.91.3,1.74.57,3.5,1.83,4.71h0l.5,2.68a17.25,17.25,0,0,0-2.3-.84c-.51-.11-1.3-1-1.47.53-.08.66-.83,1.47.43,1.69a.89.89,0,0,1,.49,1.27c-.29.66-.68,1.36-1.33,1.56s-.64-.49-.84-1.09c-.43-1.31-.89-.33-1.3.17h0l-.56.94h0c-2-1.22-3.19-4-5.77-4.77a8.48,8.48,0,0,0,2,2.82c-1.56.87-1.56.87-.82,1.59h0l.13,1.59c-.51.68-.23,2-1.24,2.28h0c-.8,1.85-1.92,2.84-3.73,2-.65-.68-1.34-.72-2.7-.16l2.66,1.11h0c.51.72,2.59.07,1.37,2.29.87.58.5,3,2.27,2.23h0c1.17.46,2.58.14,3.87,1.5a7.91,7.91,0,0,0-1.23.3c-.78.37-3-.13-.86,2.09a.67.67,0,0,1-.67,1.11c-.58-.11-1.13-.5-1.66.17,0,.69,1.16.42.92,1.44-1.4.28-2.55-1.7-4-.67-1.17.87-2-.9-3.13-.53-1.09-1.14-1.65-3-3.28-3.72.07,1.4,1.21,2,1.09,3.25h0c0,.71-.14,1.27-.91,1-1.56-1-3.05-2.24-5-2,1.19.46,1.85,1.64,2.7,2.53h0c1.22,1.31-.53,1.39-.7,2.34a7.85,7.85,0,0,0,4.29.37c.26.74,1.87-1.09,1.44,1.14-.11.58.83,1.37-.42,1.71-.55.15-2,.45-1.22,1.31s.47,3.23,2.59,2.18,4.41-.13,6.53.84c-.26.56.44,1.47-.4,1.79-1.4.54-.63,1.6-.46,2.52-.07,1.9-.88,1.29-1.77.82-1.55-.81-2.66-2.66-4.81-3.06,1.17,2.33,4,2.49,3.65,5.59l.22,0c-.09,1.26-.66,1.67-1.5,1-1.4-1.19-2.83-1-4.4-.3.93.17,1.4,1.19,2.23,1.51h0c0,.74-1.07,1.72.45,2.08,1,.23.14.39-.07.61s-.92.49-.33,1.16c-.5,1.93-2.15,1.36-3.19,2.14a1.51,1.51,0,0,1,.25.13l-.25-.13c-1.84-.3-3.91.38-5.33-1.76-.91.1-1.77-1.49-2.51-.58s-.75.44-1.48.35c-2-.25-2.86-2.28-4.58-3.37.86,2.48.57,2.28-1.2,2.79-1.42.41-2.72-.17-4.07.05,1.81,1.36,4.14,1.33,5.78,3.54-1.27.31-2.33-.2-3.42.81a13.73,13.73,0,0,0,2.82.6c1.63,0,3.23-.08,4.57,1.3l-.4,1.15h0c-.53,1.35-2.11.53-2.72,1.81,1.75,1.19,3.49,1.78,5.39.89h0a10.22,10.22,0,0,1,1.33.08c.54.1,1.37,0,1.26,1s-1-.11-1.46.51c.67.37,1.87.74,1.87,1.08,0,2.09,1.34,1.16,2.05,1.58.86,1,.77,1.6-.5,1.74-.94.1-1.94-.44-2.79.44h0c-.54.31-1.39-.1-1.76,1.47,3.87.46,6.45,4,9.87,5.95-2.16-.42-3.68,3-6.55.49-2.16-1.9-3.81-2.2-4.52-4.93,0-.06-.25,0-.52-.09.25,1.33.37,2.42-1.24,1.33-.72-.49-1.76-.21-2.6-.51-1.27-.46-2.78.49-3.85-1a5.5,5.5,0,0,0-2.94-2.82c-.49,1,.88,1,.51,1.76-1.08.45-2-.94-3.21-.13,1.1,1.3,2.5,1.67,3.71,2.41l.44.52c-.92,1.32-2.57-.44-3.62,1.24a7,7,0,0,0,2.84.78,23.94,23.94,0,0,1,2.44.24,4.12,4.12,0,0,1,2.62,2.23c.38.74-.9.74-1.49,1a7.77,7.77,0,0,0-4.55,1.09.39.39,0,0,0-.35-.11c-1.88-2.5-4.39-1.68-6.8-1.61l4.48,2.1h0c.51.93,0,.93-.58,1.06s-1.58-.86-2.27.28c1.9.75,3.72,1.67,5.76,1.3a1,1,0,0,1,1.19.91c.06.88-.62.8-1.1,1-.8.3-1.8-.56-2.56.84,2.07-.49,2.66,2.36,4.43,2.45,0,.69,0,1.7.63,1.72s.79-1,.88-1.75h0a2.17,2.17,0,0,1,2.16-.58c.67.87,2.65-.3,2.3,2.15h0l.05,1h0l-.05,2.31h0c-.6.25-1.33-.16-1.85.5l-.89.55c-1-.85-1.65-.41-1.37,1,.19.91-.34.51-.51.73h0l-2.1.43a14.52,14.52,0,0,0-5.92-.29c1,.63,2.19.63,3.07,1.53-.48,1.93,1,2,1.7,2,2.37.06,4.39,1.38,6.55,2.21h0c-.72.92-1.78.86-2.64,1.35s-2,1.12-1.88,2.69a2.71,2.71,0,0,0,2.09,2.51,42,42,0,0,0,5.32,1.07c10,1.07,20.09,1.4,30.14,1.6,12.41.26,24.83.22,37.24-.46,3.75-.21,7.52-.17,11.25-.64,3.42-.43,6.87-.56,10.26-1.46a3.1,3.1,0,0,0,2.51-2.33c.38-1.55-.64-2.24-1.61-2.85a8.58,8.58,0,0,1-.78-.66c1.13-.2,1.18-1,1.1-1.85l1.14-.4c1-.26,2.2.54,3.11-.86a3.39,3.39,0,0,0-3.28-.43c-.81-1.1,1.38-2.78-.88-3.61l3.09-1.25c.37,0,1,.24,1.06.11.94-2.49,2.32-1.27,3.91-.19-2.1-3.62-2.34-4.27-2.27-5.88a3.29,3.29,0,0,1,3.14-1.69h0c1.32.32,2.27-.44,3.43-1.33-1.12-.63-2.11.2-2.86-.7l.3-.2a11.25,11.25,0,0,0,4.51-3.35,1.38,1.38,0,0,0-1.21.38c-1.44,1.89-3.2-.42-4.75.54-.21.13.53-1.07-.06-1.55a6.67,6.67,0,0,0-2.07,2.78h0l-1.3.85c-.78-.52-.27-1.15-.11-1.76h0c0-1-1.09-.27-1.28-1h0c.67-.84.86-2.17,1.85-2.71h0l2.15-.47h0c1.7.58,3.15.73,2.41-2.31-.25-1,.43-1.15.86-1.54h.21l.2-.08h0l.91,0c1.42.24,2.53.13,1.8-2.19h0l.84-.63a9.5,9.5,0,0,0,3.11-2.76C267.53,329.15,266.09,331.11,264.06,330.62Zm-29.85-29.47-.15-.09.14-.17C234.21,301,234.21,301.06,234.21,301.15Zm19.48,46.78h0v0Zm-56.46-82.64h0a4.58,4.58,0,0,1-.11.49c0-.15.05-.31.09-.48Zm49.68,95.17h0Zm-85,3.86c0-.08,0-.16-.05-.24a.67.67,0,0,1,.09.24Zm61.94-82.47.1.12h-.1A.76.76,0,0,1,223.82,281.85Zm5,82.94h-.13l.07-.08.05.08h0ZM194.91,323.9s0,0,0,0h0Zm16.51-21h-.21l-.19-.15C211,302.45,211.3,302.87,211.41,302.89Zm-6,27.13,0,0,0,0v0Zm8-25.62,0,0a1.72,1.72,0,0,1,.38,0h-.42Zm4.95,3.32h0l0,0,0,0v.06Zm-4.57-7.32.14-.34.13.09Zm.82-5.11-.18-.06h0v0A.56.56,0,0,1,214.67,295.29Zm-3,3.2s0,0,0,0h0l0,0Zm-9.59,3.29a.58.58,0,0,0-.09-.29l.4.14Zm4.5-18.07v0h0ZM193.75,351l-.06,0s0,0,0-.07ZM244.25,330h0Zm-49.47,32.57.17.07-.08.1Zm27.85-75.41v0a.46.46,0,0,1,.16.2Zm-8-4.5.29.19-.32,0A1.31,1.31,0,0,0,214.62,282.63ZM195.85,362l0,0,0,0Zm-3.2-72.23h0Zm52,62h0v.1l0-.1h0Zm4.82-10.57v0l0,0Zm-49.31-49.32h0Zm51.69,44.07,0,0v.06h0Zm-73.55,2.29s0,0,0-.05h0Zm73.1-1.74h0v0Zm-2.69-18.25v-.1l.08.06Zm-14.31-1.4h-.33a4,4,0,0,1,.34-.42C234.41,316.56,234.4,316.7,234.4,316.83Zm-8.8-37.34v0h0Zm-6.31-8.34h0Zm-17.5-11.7v-.07h.07Zm-23.1,67.8,0,0,0,0Zm68.2,33.2h0v.05Zm-88.61-3.72-.16-.11a.67.67,0,0,1,.24.1Zm94.93-5.59v.08l-.06-.09ZM247.94,310l-.09,0-.1-.23Zm-3.8-15.92h0Zm-9-13.38.16-.11ZM194.9,257.3l-.08-.1h0a.89.89,0,0,1,.28-.18A.46.46,0,0,0,194.9,257.3Zm-2.15,1.27,0,.12-.07-.08Zm-4.25,13.23a3.55,3.55,0,0,1-.19-.35A.57.57,0,0,1,188.49,271.81Zm-7,32.12,0,0s0,0,0-.07h0Zm76.25,39.43a.74.74,0,0,0,.11.39l-.13,0h0A.83.83,0,0,1,257.74,343.36Z"/><path class="cls-1" d="M397.53,373h0l.6-.09h0c.15-.06.43-.1.44-.18.13-2.49.88-1.29,1.64-1.13a7,7,0,0,0,4,0c-1.1-2-2.69-2.12-3.1-4.77.52-.36,1.19-.25,1.58-1.27h0a21.59,21.59,0,0,1-2.08-4c.78-.34.85.89,1.24,1.22h0c.6-.46,1.26-1.64,1.68.4h.22l.4-1.75h0l-1.24-2.62c.72,1.28,1.65.69,2.47,1,.48-.1.7-.52.35-1.28a6.29,6.29,0,0,1-.37-2.65h0c-.7-1.75-1.79-2.47-2.76-3.5-.18-.19-.18-.21-.08-1.08h0c.46-.83,1.14.59,1.57-.53h0c-.63-.95-1.74-.86-2-2.28-.23-1.13,1.06-1.91.32-4.09l2.85,3.76c.59-1.66-.21-3.33.47-5.21.13,2,1.13,2.64,1.32,4.29.3,2.63.77.69,1.18.13.88-.76.78.51.79,1.35s-.08,1.65-.12,2.47c.92.75,1.88-2.08,2.79.1h0c1.44-3.09-.48-3.13-1.18-4.37.44-.52,1.16-1,.07-1.91a12.26,12.26,0,0,1-1.52-2,7.27,7.27,0,0,0,4.56,1.46c.93.08,1.79.91,2.23,2.62h0l.54.25h0c.84.53,1.68.25,2.25-.82.39-.74-.06-1.82-.36-2.64l-.62,0h0a17.89,17.89,0,0,1-4.9-.84c1.18-1.31,1.32-3.42.52-6.06h0a6.62,6.62,0,0,1-4.49-2c1.08-.33,1.89.65,2.63-.26l-.62-.69-1.3-1c-.5-.89-1.46-.73-1.85-2.77l2.47,1.94h0l.19-1.05c1.05.87,2.59-1,3.29,1.89h0l.35.48h0c.59.22,1.17.45,1.7-.22-.11-1-.81-1.19-.7-2.34a4.69,4.69,0,0,1,2.41,1.53c.32-2.31,1.4-1.4,2.19-1.69.36-.07.64-.27.55-1.09h0L418,327.86h0c-.39-.23-.77-.48-1.17-.69a.89.89,0,0,1-.58-1.06c.1-.78.5-.46.78-.43.5.06,1,.74,1.58,0l-1-5.22h0c-.31-.89-.36-1.59.36-.87s1.42,1,2.18,0c-.67-1.35-1.67-2.1-2.16-3.84,1.2-.69,1.8,2.12,2.92,1.23h0l-.08-1.12h0c-1.05.56-.75-2.16-1.71-2.23s-1.2-2.25-.56-3.5a1.53,1.53,0,0,0,.1-1.16h0c-.61-.71-1.54-.77-1.63-2.57,1.82-.63,1.82-.63.67-3.29a1.13,1.13,0,0,1,0-.27,21.54,21.54,0,0,1-1.57-4.73c1.09,1.06,1.39,2.72,1.9,4.07a4.93,4.93,0,0,1,1.34,2.27c.44,1.35.81.59,1.21,0,.79-1,.53-2.72.87-4.38-.07,3.15.76,5.39,1.35,7.77.48,0,.65-1.49,1.11-.92a6.77,6.77,0,0,1,.17,2h0a2.51,2.51,0,0,1,1.25,2.28h0c.87.07,1.19-.79,1.17-2.24-.43-.61-.2-1.5-.29-2.26h0c-.55-1.48-.79-3.36-1.92-4.11.71-1,1.7,1.94,1.91-1a5.59,5.59,0,0,1-3.18-1.73,2.89,2.89,0,0,0,2.33-.51c-.67-2.16-1.72-3.38-2.62-5.19,1.8.86,2.56,3.91,4.1,4.94a4.26,4.26,0,0,0,.49-3.17h0c-.43.16-.74,1-1.24.75-.23-1.23.94-.53.67-1.68s-1.48.49-1.31-.92c.23-1.93-.51-1.47-.91-1.86a4,4,0,0,1-1.51-2l2.58,1.14c.53-1.43-.33-2.17-.54-3.18-.45-2.17-1.09-4.23-1.8-6.92,1.15,1.15,1.22,2.71,1.57,3.9.54,1.8.76,4.19,2.4,3.26.14,2.27,1.29,1,1.86,1.74h0c1,.39,1.91-.66,2.89-.55h0l-.11-1.11h0v0c-2,.14-.48-1.89-.55-2.94h0l-2-2.86c1-.86,1.72.37,2.47.79s1.09.34.87-1.25c-.16-.78-.55-.61-.87-.72s-.47-.53-.16-1.07l-.09-1h0a.32.32,0,0,1-.22-.18,2.62,2.62,0,0,0,.16-.87,5.87,5.87,0,0,1-.16.87c-.85.06-1.58-.1-1.22-2.22l0,.06,0-.06c.91-1.67,0-2.58-.48-3.48,1.84-1.35-.48-2.92.21-4.4.41,1.09.76,2.2,1.2,3.16s.65,2.38,1.55,2.91c-.11-1.72,1.43-2.42.66-4.48l-.18-.34.4-.29c-.07-.38.44-.64.07-1.09-.52-.53-1.21-.67-1.54-2,.78-.3,1.24.75,1.83.86h0a1,1,0,0,0,.09-1.13c-.89-1.54.19-1.21.46-1.64-.17-.33-.53-.83-.49-1,.45-1.56-.38-3.3.23-4.79q0-.17-.07-.32l-.91-4,.32-.27,1.06,3.3h0c.69-1,.24-2.11.06-3a16.8,16.8,0,0,1,0-6.43c.56,2.83.38,6,1.47,8.54.33-.88,1.08,1,1.29-.65.15-.69.27-1.4.45-2.07.12-.44.1-.66.55-.16,1.15,1.28.07,1.95,0,2.86h0c.53,2.38-.42,3.4-1.27,4.51,0,.88-.26,2.23.74,1.19.7-.73,1.31-1.89,2.28-1.8a11.64,11.64,0,0,0-1.92,4.5c.76,0,1.26-1.07,2.07-.44a10.46,10.46,0,0,0-2,2.72c0,.31-.77.63-.06.87.49.17,1-.26,1.57-.42l.05.36-2.46,1.6c.45,1.21.91-.53,1.36,0-.43,1.3-.67,2.64.51,2.82.73.11.85,1.15,1.23,1.81.68-1.1-.58-2.61.27-3.72a6.49,6.49,0,0,1,.75,2.92h0l.51-.6c1.14-1,1.93-3.07,3.34-3.45l-2.61,4.18a3.63,3.63,0,0,1,0,.67c.23.85,1.12.36,1.25,1.39-.29,1.06-1.19,0-1.37,1.33.53.89,1.12,1.5,2.15,1.09-.82,1.54-2.53,2.22-.73,4.23-.65,1-1.69-.35-2.05,1.51h0c0,1.6-.7,1.07-1.19,1.16a1,1,0,0,0-.1.18l.1-.18c-.15.88,0,1.39.53,1.6l2.85-1.36a5,5,0,0,1-1.78,2.17h0c-.2.54-.38,1.15-.82,1.07-1,1.64.72,1.48.48,2.71a2.24,2.24,0,0,0-1.8-.57.55.55,0,0,1-.43.09l0,0c.07.74.55,1.51-.07,2.18h0a1.32,1.32,0,0,1,0,.52.36.36,0,0,1,.29.14h0c1.27.18,2.43-1.1,3.82-.57.91.35.84,2.49,1.77,2.12h0c.83-2,1.61-4.17,3.37-5.59-.67,2.15-1.72,2.74-1.93,4.47.42,1,1-.38,1.43.31-.14.84-.85.84-.85,1.88.68.56,1-.68,1.53-1,.39-1,.86-1.62,1.84-1.58l-1.27,2.17h0c-.19,1.8-1.16,2.09-1.79,3-.21,1.83-.4,3.67-1.27,4.94h0l-.35,2.81a9.83,9.83,0,0,1,1.6-.88c.35-.11.91-1,1,.55.05.69.58,1.54-.3,1.77-.35.09-.5.78-.34,1.33s.47,1.43.92,1.64.45-.51.59-1.14c.3-1.37.62-.35.9.18h0l.39,1h0c1.41-1.28,2.22-4.18,4-5a9.67,9.67,0,0,1-1.4,3c1.08.91,1.08.91.57,1.67h0l-.09,1.66c.36.71.16,2.08.86,2.39h0c.56,1.94,1.34,3,2.59,2.15.45-.71.94-.75,1.88-.16l-1.85,1.17h0c-.36.75-1.8.07-1,2.4-.6.61-.35,3.11-1.58,2.34h0c-.82.48-1.79.15-2.7,1.57a4.09,4.09,0,0,1,.86.32c.54.39,2.08-.14.6,2.19-.29.46-.07,1.32.46,1.16s.79-.52,1.16.18c0,.72-.81.44-.64,1.51,1,.29,1.77-1.78,2.8-.7.81.92,1.41-.94,2.18-.55.76-1.19,1.15-3.13,2.29-3.9,0,1.47-.84,2.12-.76,3.41h0c0,.74.1,1.33.63,1,1.08-1.05,2.13-2.35,3.46-2.07-.83.48-1.29,1.72-1.88,2.66h0c-.85,1.37.37,1.45.49,2.45a3.76,3.76,0,0,1-3,.38c-.18.78-1.3-1.14-1,1.19.08.6-.57,1.44.29,1.79.38.15,1.42.47.85,1.37s-.33,3.39-1.8,2.29-3.07-.14-4.55.88c.18.59-.31,1.54.28,1.88,1,.56.44,1.68.32,2.64.05,2,.61,1.35,1.23.86,1.08-.85,1.85-2.79,3.35-3.2-.81,2.44-2.78,2.61-2.54,5.86l-.15,0c.06,1.32.46,1.75,1,1,1-1.25,2-1,3.06-.32-.65.18-1,1.25-1.55,1.59h0c0,.78.74,1.81-.31,2.18-.69.24-.1.41,0,.64s.64.51.23,1.21c.35,2,1.5,1.43,2.22,2.24a1,1,0,0,0-.18.14L462,357c1.28-.32,2.72.4,3.71-1.84.63.1,1.23-1.56,1.75-.6s.53.46,1,.37c1.38-.26,2-2.39,3.19-3.53-.6,2.6-.39,2.39.83,2.92,1,.43,1.89-.18,2.83.06-1.26,1.43-2.88,1.39-4,3.71.88.32,1.62-.21,2.38.85a6.87,6.87,0,0,1-2,.63c-1.13,0-2.25-.08-3.18,1.36l.28,1.21h0c.37,1.42,1.47.56,1.89,1.9-1.22,1.24-2.43,1.87-3.75.93h0a4.76,4.76,0,0,0-.92.08c-.38.1-1,0-.88,1.06s.72-.11,1,.54c-.47.39-1.3.77-1.3,1.13,0,2.2-.93,1.21-1.43,1.65-.6,1.06-.53,1.68.35,1.82.65.1,1.35-.46,1.95.46h0c.38.32,1-.11,1.22,1.54-2.69.48-4.49,4.22-6.87,6.23,1.51-.44,2.56,3.15,4.56.51,1.51-2,2.65-2.3,3.15-5.16,0-.07.18,0,.36-.09-.18,1.39-.26,2.54.87,1.39.5-.51,1.23-.22,1.81-.54.88-.48,1.94.52,2.68-1a5.1,5.1,0,0,1,2-3c.34,1.06-.61,1.07-.35,1.85.75.48,1.37-1,2.24-.14-.77,1.37-1.74,1.75-2.58,2.53l-.31.55c.64,1.39,1.79-.46,2.52,1.3-.73.37-1.3.92-2,.82a11.29,11.29,0,0,0-1.7.25,3.58,3.58,0,0,0-1.83,2.34c-.26.78.62.78,1,1a4,4,0,0,1,3.17,1.14.22.22,0,0,1,.25-.12c1.31-2.62,3.06-1.76,4.74-1.69l-3.12,2.2h0c-.35,1,0,1,.41,1.11s1.1-.9,1.58.3c-1.32.79-2.59,1.75-4,1.36-.36-.1-.79.14-.83,1s.43.84.77,1c.55.32,1.26-.59,1.78.88-1.44-.51-1.85,2.48-3.08,2.57,0,.73,0,1.78-.44,1.8s-.55-1-.61-1.83h0c-.46-.55-.94-.92-1.51-.61-.46.92-1.85-.31-1.6,2.26h0l0,1h0l0,2.43h0c.42.27.92-.17,1.29.52l.62.58c.73-.89,1.15-.43,1,1-.13,1,.23.54.35.76h0l1.46.46a6.83,6.83,0,0,1,4.12-.3c-.72.66-1.52.66-2.14,1.6.33,2-.7,2.06-1.18,2.08-1.65.06-3.06,1.44-4.56,2.32h0c.5,1,1.24.9,1.84,1.42a2.93,2.93,0,0,1,1.31,2.81c-.1,1.44-.68,2.35-1.46,2.63a20.86,20.86,0,0,1-3.7,1.12,163.78,163.78,0,0,1-21,1.68,227.6,227.6,0,0,1-25.92-.49,73.91,73.91,0,0,1-7.83-.67c-2.38-.45-4.79-.58-7.14-1.53a2.8,2.8,0,0,1-1.75-2.44,3,3,0,0,1,1.12-3,7.5,7.5,0,0,0,.54-.7c-.79-.21-.82-1-.77-1.94l-.8-.42c-.69-.28-1.53.56-2.17-.9a1.73,1.73,0,0,1,2.28-.45c.56-1.16-1-2.91.61-3.78l-2.15-1.31c-.25,0-.7.25-.74.11-.66-2.61-1.62-1.33-2.72-.2,1.46-3.79,1.63-4.48,1.58-6.16a2.24,2.24,0,0,0-2.19-1.77h0c-.92.34-1.58-.46-2.39-1.39.78-.66,1.47.2,2-.73l-.21-.21a9,9,0,0,1-3.14-3.51.79.79,0,0,1,.84.4c1,2,2.23-.44,3.3.56.15.14-.37-1.12,0-1.63a7.48,7.48,0,0,1,1.44,2.92h0l.91.89c.55-.54.19-1.21.08-1.84h0c0-1.08.76-.28.89-1.08h0c-.47-.88-.6-2.28-1.29-2.84h0l-1.49-.5h0c-1.18.61-2.19.77-1.68-2.42.18-1.1-.3-1.2-.6-1.62h-.15l-.14-.08h0l-.63,0c-1,.25-1.76.13-1.25-2.29h0l-.59-.66a8.5,8.5,0,0,1-2.17-2.9C395.11,371.43,396.11,373.48,397.53,373Zm20.78-30.89.1-.09-.1-.18C418.31,341.89,418.31,342,418.31,342.08Zm-13.56,49v0Zm39.31-86.61h0c0,.17,0,.34.07.51q0-.24-.06-.5Zm-34.58,99.75h0Zm59.18,4c0-.08,0-.17,0-.25a.94.94,0,0,0-.07.25Zm-43.11-86.43-.07.13h.07A1.16,1.16,0,0,0,425.54,321.85ZM422,408.78h.09l-.05-.09,0,.08h0Zm23.62-42.86s0,0,0,0h0Zm-11.49-22h.15l.13-.16C434.48,343.45,434.26,343.88,434.18,343.9Zm4.15,28.43,0,0,0,0v0Zm-5.59-26.85,0,0a.82.82,0,0,0-.27,0h.29ZM429.3,349h0l0,0,0,0V349Zm3.18-7.67-.09-.35-.09.1Zm-.57-5.36.13-.06h0v0A.38.38,0,0,0,431.91,335.93Zm2.09,3.35s0,0,0,0h0l0,0Zm6.68,3.45a.83.83,0,0,1,.07-.3l-.28.15Zm-3.13-18.94v0h0Zm8.92,70.56,0,0s0,0,0-.07Zm-35.15-22.07h0Zm34.44,34.13-.12.07.05.11Zm-19.39-79v0a.5.5,0,0,0-.11.21Zm5.57-4.72-.2.19.22,0C432,322.8,431.95,322.74,431.94,322.67ZM445,405.87v0Zm2.23-75.71h0Zm-36.19,65h0v.1l0-.1h0ZM407.69,384v0l0,0ZM442,332.35h0Zm-36,46.18,0-.05v.06h0Zm51.2,2.41v-.06h0Zm-50.89-1.83h0v0ZM408.22,360v-.11l-.06.06Zm10-1.47h.23a4.33,4.33,0,0,0-.24-.44C418.17,358.23,418.17,358.38,418.18,358.51Zm6.12-39.13v0h0Zm4.39-8.74h0Zm12.18-12.26v-.08h0ZM457,369.45l0,0,0,0Zm-47.48,34.8h0v.05Zm61.68-3.9.11-.12a.4.4,0,0,0-.17.1Zm-66.08-5.86v.08l0-.09Zm3.67-43.15.06,0,.07-.24Zm2.65-16.69h0Zm6.24-14-.11-.12Zm28-24.51.06-.1h0a.66.66,0,0,0-.19-.19A.53.53,0,0,1,445.67,296.12Zm1.5,1.33v.13l0-.08Zm3,13.87c0-.11.09-.23.13-.37A.72.72,0,0,0,450.13,311.32ZM455,345l0,0s0-.05,0-.08h0Zm-53.07,41.32a1.08,1.08,0,0,1-.08.41l.09,0h0A1.3,1.3,0,0,0,401.93,386.31Z"/><path class="cls-1" d="M587,370.53h0c.42-.67,1.14-.55,1.74-.43,1.71.34,3.4.76,5.1,1.15h0A2.26,2.26,0,0,1,596,372h0c1.37-1.22,2.46-.46,3.53.4,1.36-.6,2.92-.36,4.32-.8h0l.92-.72h0l-.83-.69c-.84-1.18-2.81-1.32-3.23-2.87h0c-.57-1.21-1.14-2.2-3-1.55-.86.29-1.75-.55-2.1-1.26s.58-.68,1.1-.8h0c.17-.37.23-.68-.41-.67s-1.17,0-1.75,0c-.81,0-1.06-.64-1.24-1.18s.26-.56.7-.52h0l2.64-.49h0c.57-1.11-.44-1.25-1.15-1.28a13.33,13.33,0,0,1-3.41-.78c-.63-.19-1.64-.45-1-1.46h0a1,1,0,0,1,1.19-.45c2.45.48,4.92.91,7.32,1.56.69.19,1.27.54,1.71-.07,1-1.42,2.25-1.34,3.66-.61a2.81,2.81,0,0,1,.76.1c.56.25,1,.83,1.75.33s.24-.85,0-1.36.17-.88.82-.92c.7-.24.09-.46,0-.68H607c-2.17,0-4.74-1.23-5.25-2.52-.57,0-1.09.05-1.56-.5a4.94,4.94,0,0,0-3.73-1.35,8.26,8.26,0,0,1-4.38-1.6c-1.16-.74-.26-.84.49-.89,1,.13,2,.31,2.94.36.71,0,1.75.51,2.09,0,1.1-1.77,2.64-.79,4-.7.79.05,1.57.33,2.22-.3a13,13,0,0,1-4.21-2.75c-.32-.34-1.15-.36-1-1.05.2-.9,1-.47,1.59-.5a.57.57,0,0,0,.05.16l-.05-.16c.72,0,1.44,0,2.16-.09,2-.11,4,.37,6-.14h0l.5-.19c0-.27.06-.55-.3-.69-2,.45-3.12-1.33-4.85-1.49s-2-1.93-3.55-2.25c-.41-.09-1.23-.08-.93-.84.23-.59.78-.53,1.33-.41s1.49.18,1.69,1c2.56.34,4.35,2.25,6.85,2.73a2.87,2.87,0,0,1,1.46.47c2.41,2,2.54,2,4-.33a.23.23,0,0,1,.1-.27c.65-1.08-.37-1.44-1.05-1.32-2.34.4-3.64-1.79-5.8-1.71-.13,0-.28-.37-.42-.57h0c-.92,0-2.07.29-2.12-.94s1-1.18,2-1.16,1.72,0,2.59,0c.55,0,1.21.17,1.4-.63a1.49,1.49,0,0,0-.47-1.76c-.43-.35-1-.38-1.36-.65a1.22,1.22,0,0,1-.65-1.36c.18-.47.84-.32,1.24-.25,1.54.28,3.18-.07,4.66.6l.73,0c1.09-.15,2,0,2.37,1.1l1.23.36h0c.29-.08.65,0,.78-.38-.61-.48-.31-1,0-1.45h0c0-.5,1-1.46-.68-1.23-.42.06-1.08.14-1.13-.39-.07-.75.7-.5,1.16-.54,2.15-.22,2.8-.89,2.69-2.83h0c-.24-.39,0-.6.38-.74h0c-1.38-.7-3,.07-4.4-.67-1.73.54-3.54.24-5.31.34-.49,0-1.34.39-1.42-.42s.64-.88,1.38-.92c2-.12,4-.32,5.93-.47.77-.06,1.33-.21,1-1.07h0c-1.32.27-2.09-.8-3.19-1.06h0a4.86,4.86,0,0,1-3.11-.7c-2-1.06-4.29-1.57-6.23-3.11a2.92,2.92,0,0,1,2.21,0c1.19.44,2.71-.25,3.71.85h0a5.8,5.8,0,0,1,2.71.37h0c.64-.16,1.62.28,1.85-.59s-.8-.76-1.25-1.11-.72-.49-1.09-.73h0c-1.23-.29-2.57-.29-3.59-1.12-2,.51-3-1-4.41-1.78h0a4.6,4.6,0,0,1-.54-.2c-.48-.24-1.59-.05-1.11-1,.36-.71,1-.85,1.92-.35a19,19,0,0,0,3.43,1.09h0c.48.52,1.33.23,1.81.59,2.28,1.74,4.49,1.78,6.7-.06h0l.12-.13c-.85-.7-1.88-.54-2.91-.51s-1.78-.17-1.78-1.2.93-.74,1.59-.78c.39,0,.78,0,1.18,0h0a.44.44,0,0,0,.09-.21c-.29-.49-.59-.92-1.36-.64-.54.2-.67-.15-.74-.53l-3.91-.36c-.6-.05-1.06-.29-1.09-.84s.59-.66,1.12-.68a24.81,24.81,0,0,1,3.7.15c2,.2,4,.22,6.32.33-2-1.82-2-2.48-.53-2.91h1.18c1.73.5,2.6,1.52,2.39,3.19h0c0,.52.5.76.89,1h0c.71.13.68.82,1.11,1.16.35-.08.73.07,1-.39a4,4,0,0,1,3.09-2.16c1-1.22.56-1.91-1.22-2.11-1.44.35-.58-.72-.84-1.1-2.46.52-1-2.58-3-2.39.25-.69,1.18-.28,1.26-.9.05-.46-.39-.61-.79-.64a7.63,7.63,0,0,1-5.16-2.28c-.34-.37-1.47.07-1.29-.76s.85-.48,1.4-.19a.4.4,0,0,0,.6-.26c.28-1,1.06-.67,1.74-.53a25.21,25.21,0,0,1,5.47,2c.92.43,1.89,1.25,3,.22.7-.74,1.28,0,1.94.08,1.4.19,2.32,1.94,4.05,1,2,.22,4,.34,5.54,1.74a1.24,1.24,0,0,0,.8-1.26c-1.82.11-2.17-1.49-3.24-2.24h0c-.77-.26-.88-1.08-1.89-1.34a6.87,6.87,0,0,0-3.53.28c-1.86.42-2.57.06-2.59-1.46a.49.49,0,0,0-.74-.49c-1.31.7-1.82-.44-2.93-.77a17.1,17.1,0,0,1,5.2-.62c.44,0,1.19.32,1.22-.48,0-.6-.49-.76-1.07-.82a3.75,3.75,0,0,1-.74-.22h0l-.82-.21a5.45,5.45,0,0,1-2.42-.21,1.09,1.09,0,0,1-.39-.15,2.16,2.16,0,0,1-2-.66c-1.35-.12-2.7-.24-3.51-1.43h0c.28-.69-.39-1.18-.47-1.79h0c-.84-.18-1.68-.34-2.51-.55-.35-.09-.9-.1-.81-.59s.56-.42,1-.43a19.27,19.27,0,0,1,7.19,1.47h0c1.58-.36.62-1.08.3-1.7h0c-.5-.71-1-1.52-.33-2.25s1.6-.14,2.41.08a5,5,0,0,1,2.5,1.37,4.13,4.13,0,0,0,3.11-1.06l-1.22-.62c-.93.37-1.48,0-1.58-.81s.64-.69,1.22-.67h0l1.07-.12h0c0-.49.95-.91-.31-1.47a11.07,11.07,0,0,1-3.88-2.71c-.33-.37-.55-.68-.39-1.07.23-.56.74-.41,1.14-.17,1,.62,1.86.17,2.73-.25h0l1.91.07h0c1.3.09,2.48,1.64,3.9.41l.14-.12h0a3.36,3.36,0,0,1,2.19.56c.3.15.64.31.88.05s0-.64-.21-.95a3.13,3.13,0,0,1-.23-.63c-.37-1.15,0-1.31,1.51-1.08.56.08,1-.23,1.52-.05h0a.78.78,0,0,1,.37-.05h0c.39-.34.71-.17,1,.12s.48.67.94.37-.09-.75,0-1.13h0l-.35-.37h0c-4.81-1.26-9.1-3.27-12.35-6.8-.69,0-1-.5-1.5-.75s-.4-.48-.16-.73a1,1,0,0,1,.69-.18c3.51.35,6,2.19,8.26,4.45h0a12,12,0,0,0,3.91,2.23c1-.74,0-1.44-.07-2.15h0c-1.29-1.28-1.9-4.2-.67-5a2,2,0,0,0,1-2.36c-.07-.43.09-.77.54-.8,1.59-.11,1.26-1.15,1.17-2a22.42,22.42,0,0,1-.11-3.82c-.1-4.29,1,2.37-.44-1.89a1.4,1.4,0,0,1,.44-1.64,1.16,1.16,0,0,1,.94-.05,1.22,1.22,0,0,1,.62,1.4c-.38,4,.06-2.91.16,1.12h0c-.06,3.81-.12,4,0,7.76a32.92,32.92,0,0,1,.12,5.64,2,2,0,0,1-.08.5,12.31,12.31,0,0,0,.26,1.56c.15.5.53.68,1,.27,2.76-2.38,1.75.23,4.62-2,1.57-1.6,3.66-2.71,5.17-4.37a1.07,1.07,0,0,1,1.44,0c.48.41.57,1.15,0,1.42-1.86,1,2-1-.1-.36h0c0,1.16-1.48.86-2,1.53-2.13,2.92-5.45,4.33-8.85,5.64h0c0,1.19-1.18,2-1.25,3.16h1.2c.29-.49.78-.35,1.23-.3l.37-.08a6,6,0,0,1,3.15-.79c.52-.06,1.23-.06,1.38.46.2.71-.6.61-1.05.69-1,.16-1.63,1-2.68,1h-1.16l-2.32.1h0c-.64.59-.35,1.35-.48,2H653c1.14-1.24,2.2-.51,3.26.1h0a9.61,9.61,0,0,0,3.16-.78c3-1.4,6.38-2,9.51-3.14.58-.22,1.6-.37,1.88.12.83,1.45,1.49,1.38,2.51.17a1,1,0,0,1,1.54.14c.46.69-.14.86-.75,1.1-1.56.62-3.08,1.35-4.61,2h0a9.29,9.29,0,0,1-2.66,1c-2.21.44-3.81,2.21-6.2,2.12a25.13,25.13,0,0,1-8.4,1.15c-.71,2.33-.39,1.42-.4,3.78l.36-.1c.55-.83,2.48.12,3.32,0,.48-.66,5.2-3.05,5.9-2.86,2.11.57-3.65,2.75-3.45,5.66h0c-1.48.94-3.37.39-4.92,1.06-.4.62-.23,1,.57,1.15a3,3,0,0,1,1.86.93h0l.43.33h0l1.9,0c.23-.65.93-.56,1.46-.7.82-.22,1.3-1.24,1.09-1.37-2.41-1.44.71-1.35.66-2.08,1.39-1.14,3.06-1,4.72-.81a9.26,9.26,0,0,0,3.44-.55c2.12-.61,4.34-1,6.52-1.4.47-.09.69.26,1,.52h0c.61.75-.13,1.25-.43,1.83h0a1.64,1.64,0,0,1-1.32,1.41c-.27.08-.58.17,0,.33a3.21,3.21,0,0,0,.59.06h0l6.43-1.62c.44-.11.94-.33,1.12.29s-.36.61-.81.74c-2.24.66-4.47,1.36-6.7,2h0a7.74,7.74,0,0,1-4.46.7l-1.11.05h0c-.63.63-1.42,1.37-1,2.18s1.46.09,2.17.27c1.07.27,2.34,0,3.36.88-2.87.49-2.87.49-3.44,1.26-.43,2.58-2.3,4.41-4.4,6.33l2.37.11.75-.41a5.23,5.23,0,0,0,1.17-.88c1-1.4,1.74-.78,2.42.25h0a2,2,0,0,0,2.76-.32,4.32,4.32,0,0,1,2-1.18h0c.49-.64,1.6-.83,1.73-.31.41,1.67,1.54.58,2.33.69a14.58,14.58,0,0,1,1.51-.39c1.22-.19,2.4-1,3.69-.23a6.19,6.19,0,0,1-3.17,1.72,1,1,0,0,0,0,1.42.53.53,0,0,1-.37.94c-1.3.09-2.33,1.11-3.72.84l-.65.43a11,11,0,0,0,1.32.25c.75.05,1.86-.23,1.87.74s-1.15.68-1.87.78a5,5,0,0,1-.59,0c-.72.73-2.36,1-1.67,2.46l-.17-.25a.41.41,0,0,0,.17.25c.43.7,1,.36,1.53.15s1.16-.13,1.23.43-.6.48-1,.55h0a3.18,3.18,0,0,1-1.67,2l1.56.39c.81-.12,1.7.18,2.45-.33a1.81,1.81,0,0,1,.4-.16,14.65,14.65,0,0,1,6.37-.57c1.39.34,2.52-.39,3.71-.79.62-.21,1.19-.38,1.4.33s-.6.7-1.12.83c-1.39.87-2.37,2.43-4.46,2.11l-1.52.08h0a4.16,4.16,0,0,1-2.16,1.82l3,.61a.38.38,0,0,1,.33,0c1.08,0,2.27-.41,3.13.7-.82.49-1.63.13-2.34.36a2.06,2.06,0,0,1-2,1.12c-.76,0-1.54-.34-2.27.09h0c-.08.5-.5.89-.24,1.5s-.13,1.23-1.07,1.25l-.51.15.6.53h0c.91,0,.59.37.3.74h0a.88.88,0,0,0,.8.76h0c.55.41,1.07,1,1.85.31.5-.43,1-.16,1.45.07h0c.69-.39,1-1.25,2-1.25.6,0,1.25-.22,1.37.58.09.6-.31.84-.94.89a2.19,2.19,0,0,0-1.62.56c-.91,1.11-2.29,1.35-3.62,1.71a4.19,4.19,0,0,0,3.13.34c.26-.33.53-.31.81,0h0c.88.09,1.5.74,2.53.71,2.67-.08,5.35.06,7.84-1.07.81-1.61,3-1.91,4-3.41.28-.41,1.39-.05,1.2.93h0c0,1-1.26.78-1.61,1.43-.08.94-.09,2.11-1.21,2.4-1.85.49-2.52,2.09-3.94,2.93.56.7,1.79.81,2,1.84a4,4,0,0,1-2.83,1.76h0a2.1,2.1,0,0,0-1.58.38c-.45,1.43-1.9,1.59-3.13,2l-.12,0a4.88,4.88,0,0,0-2.66.82,21.19,21.19,0,0,0,7.21.57c.39,0,.88-.13,1,.33s-.41.46-.76.6c-1,.4-2,.9-3,1.32-1.94.82.5,1.79-.13,2.65a1.1,1.1,0,0,0-.08.16h0l-.37,1.12h0a3.29,3.29,0,0,1,0,.33,2.55,2.55,0,0,0,2-.36,1.58,1.58,0,0,1,1.79-1c.7.13.68.59.6,1.07h0a9.39,9.39,0,0,1-4.86,1.45h0l-.16.07H693c-.29,1,.57.91,1.16,1,1,.1,2.1.1,3.15.16.38,0,.88.07.9.51s-.5.41-.87.44a7.11,7.11,0,0,0-2.69.33h0a2.49,2.49,0,0,1-.79,1.5h0c-1.27.88-3-.67-4.27.73.59.41,1.27.17,1.87.28h0l.78-.06a9.62,9.62,0,0,1,3.39-.61c.79-.09,1.88,0,2.2,1a5.28,5.28,0,0,0,2.85-.32c1.42-.87,3.16-1.21,4.46-2.29a1.22,1.22,0,0,1,1.44.15c.64.35.28.95.44,1.42h0c1.34.3,2.26-2,3.82-.56-.79,1.56-2.68.86-3.83,1.6a2.73,2.73,0,0,0-.39,1.79h0c.39,0,.87,0,1,.45s-.3.48-.56.65a1.08,1.08,0,0,1-1.07.91,3.44,3.44,0,0,0-3.26,2.73l-.51.24c-.59.32.11.45.12.68l3,0c.59,0,1.26,0,1.23.78s-.59.62-1.12.7a7.72,7.72,0,0,0-4,1.34h0c.46.06.92.08,1.37.17.64.14,1.38.44,1.39,1s-.93.55-1.4.64c-1.14.2-2.31.19-3.26,1-.27.21-1-.22-1.12.39s.84.39,1.1.78h0l.7.08,3.56.21c.44,0,.81.18.76.63s-.53.35-.91.36c-1.89,0-3.79.07-5.33,1.28.33.68,1.16.26,1.55.7h0a48.69,48.69,0,0,1,6.35-.38h0c1-1.1,1.94-.35,1.8.4-.32,1.7.93,1.25,1.82,1.4h0c.7-.33,1.58-.16,1.65.39.11.8-.94.74-1.49.66a14.48,14.48,0,0,0-4.52.08c.48.37,1,.74.78,1.4.37.34.63.71-.16.83a7.08,7.08,0,0,1-3.45-.12l.06,0-.06,0-.48.13c-.76.48-1.69,0-2.6.42.37.7,1,1.55-.7,1.55-.82,0-.55.63-.51,1.08h0c1.06.48,2.49.24,3.44,1.29-1.69,0-3.17,0-4.66,0-.92,0-2,.06-1.06,1.39.2.28.53,1.35-.34,1.23-1.49-.2-3.22,0-4.31-1.35-2,.36-3.46,2.36-5.86,1.82l-.83.36h0c-1.63,2.16-4,2.22-6.49,1.76-.39.09-1.3-.28-.73.66h0a10.75,10.75,0,0,1,3.36.87c-2.6,2.17-2.59,2.15-5.35.49a17,17,0,0,0-2.11-.92c-1.17-.57-2,0-2.73.7-.06.24-.89.43,0,.77.45.17,1.48.5,1.08,1.19s-1.39.23-1.76,0a7.34,7.34,0,0,0-3.76-.51h0c-.94,1.67-2.71,1.69-4.44,1.79h0c-.2.31-.62.75-.88.48-1.19-1.22-2.68-.53-4-.62-.72,0-1.47.07-1.9-.63-3-.35-6-.71-9-1-.31,0-.85,0-.93.11-1.23,2.15-2.23.21-3.31-.13h0c-1.36-.37-2.08.8-3.17,1.07-.41,1-1.08,1.2-1.58.51a1.22,1.22,0,0,0-1.25-.53c-.05.16-.12.48-.16.47-1.69-.14-3.32.54-5,.27h0c-1.47.22-2.82,1-4.39.72l-1.68.86a2.43,2.43,0,0,1-2.25,0c-1-.62.84-.79.31-1.7-.86,1.43-2.11.4-3.28.81a1.61,1.61,0,0,1,1.22-1.44h0c.42-.78-.26-.61-.64-.54a5.5,5.5,0,0,1-2.49.24h0l-1.13,0c-.86.65-1.64,2.17-2.87.73a1.75,1.75,0,0,0-1.42-.76,1.51,1.51,0,0,1-1.41-1c-.71-.7-1.27-1.44-2.58-.55a1.93,1.93,0,0,1-2.58-.56c-1.33-.44-3.2-.14-3.28-2.21,0-1-.87-.11-1.28-.2-1.13-.26-2.68,1.69-3.42-.5h0L597,382h0c-2.13.1-2.37-1-2-2.51h0c-.9-1.17-2.8-1.19-3.6-2.47h0l0-.11h0c-.38-.52-1.17-.57-1.54-1s-1.47-1.09.14-1.41h0a.35.35,0,0,0,.29-.06c.91-.6.09-1.2,0-1.8h0A18,18,0,0,1,588,372C587.4,371.73,586.39,371.54,587,370.53Zm15.51,3.41a.63.63,0,0,0-.28.17h0l.3,0A1,1,0,0,0,602.5,373.94Zm5.29-2.69h.08l0,0Zm16.89-54h.18l-.11-.12Zm27.2-20.77s0,0,0,0l0,0Zm22.77,40.79h0v0Zm-9.26,30.85,0-.05-.09,0Zm-5.14-57.74h0v0ZM635,323.62h0Zm-4.4,50.53h0Zm32.78-15.43h0l0,.08,0-.08h-.07Zm-13.68-15.49.18-.16h-.25A.69.69,0,0,1,649.75,343.23ZM646.6,338h0v0Zm.08-.36h0v0Zm-.49-4.37h.1v0l-.1,0L631.77,345.3Zm16.83-2.1h0Zm-2.49,6v0h.05Zm1.72,6.25h-.09l.07.11S662.25,343.4,662.25,343.36Zm-26.81,10,0,0,.05,0Zm20,3.57h0l.09,0,0-.09Zm-4,.73h0Zm-20.79,16.49,0,0h.05Zm19.82-57.93a2.8,2.8,0,0,1-.16-.33,2.54,2.54,0,0,1-.24.56A.66.66,0,0,0,650.46,316.21Zm17.76,47.53h0Zm-25.84-7.26.18.2C642.55,356.56,642.5,356.48,642.39,356.48Zm-11.72,17.69h0Zm.37-53.45h0Zm19.58,38,0,.07h.17ZM639.17,317l.08-.06h-.06Zm10.18,42.16c-.31-.12-.61-.32-.74.26,0,.07,0,.13-.05.19A5.62,5.62,0,0,1,649.35,359.16Zm25.72-20.55,0,.05h.07Zm-4.44,5h0Zm14,8,0,0h0Zm-46.39,27.86h0Zm-8.38.37h0ZM621,348.74l0,0h0Zm43.81,28.11-.24.11h.2ZM653,368h-.26l.26.09Zm-12-83.84,0,0h0Zm14,18.28Zm-8.8,63.43h-.09l0,.06Zm.41-63.1h0a.37.37,0,0,0,0-.07l0,.07h.06Zm-26.45,81h0Zm-11.12-10h0Zm-.46-2.13h0Zm24-61.53.05,0h-.08Zm12.17-12.34h0a1.49,1.49,0,0,0-.06-.23l-.08.06Zm51.63,79a.56.56,0,0,1-.09.19h0A.3.3,0,0,0,696.37,376.72Zm-76.17,7.06a.29.29,0,0,1,0,.13C620.34,383.87,620.36,383.83,620.2,383.77Zm-2.51-49.08-.14,0s0,0,0,.06h0Zm16.23-49.46Zm39.45,4.65h0l.09.06-.05-.09Zm-1.36.84h-.07l0,0Zm-5.75,8.82,0,.06h0l.09,0Zm14,13.29a3.49,3.49,0,0,1-.93.14A.81.81,0,0,0,680.22,312.83Zm-64,7.57h0Zm28.11-20.51-.06-.05h0a1.59,1.59,0,0,0-.1.25A.47.47,0,0,1,644.32,299.89Zm-2.51-2.08h0a.5.5,0,0,0,0-.16c0,.05,0,.11-.06.17h0Zm25.32,2.53,0,0a.28.28,0,0,0,0,.06h0Zm1.46,2.21.44-.09A2.1,2.1,0,0,0,668.58,302.56Zm41.22,68-1.17.09.26.1A.82.82,0,0,0,709.8,370.52Z"/><path class="cls-1" d="M349.74,234.56a.91.91,0,0,0-.14.14Z"/><path class="cls-1" d="M391.72,364.18h0c-1.21-.73-2.46-1.69-3.79-1-1.83,1-3.18-.86-4.76-1.26-1.32-.33-1.66-4-.72-5.54h0c3.78.13,3.78.13,3.18-3.67h0c2.41-2.81,2.4-2.92-.37-4.89-.19-.14-.27-.53-.44-.76-1.14-1.64-3.59-1.15-3.82-4.25a2,2,0,0,0-.77.15c-1.41.92-3.17.81-4.29,2.58h0l-.58.59h0a2.41,2.41,0,0,0-3.71.23h0c-.46-.54-1.59-.9-.61-2s.65-2.63,1.18-3.8a7.88,7.88,0,0,0,3.56-4l-5.3,1.75c-1-.75-1.61,1.59-2.67.7h0c0-.55,0-1.12.43-1.45h0c1.08-.53.62-1.3,0-1.7-.89-.6-2.48-.5-2.06-2.44.37-1.72,1.82-.45,2.75-.76a2.39,2.39,0,0,1,.53-.06c.94.06,1.93.39,2.67-.78h0a5.45,5.45,0,0,1,3.34-.24c.42.14,1.42,0,1-.85-1.22-2.49,1-1.38,1.21-2.34h0c3.67-.91,7.65-.39,11.09-4.42l-5.32.75h0l-6-2.93h0l.54-.72c2.71-.2.63-3.16,1.43-4.46-1.06-1-1.74.15-2.51.78h0c-2.09.63-3.53-2.11-5.9-1.46,1.41-2.5,3.63-3.15,4.17-6.05-2.59.43-5.11.39-6.4,3.9-1.49,2.91-1.53,2.94-2.48,1.6h0c1.25-3.3-1.66-2.75-2.25-4.35,2.72-.87,3.77-3.45,4.06-7.13-2.14,1.91-3.77,4.78-6.64,3.88-.35-.11-1.09.19-1.19,1.12h0l-2.15.71c-.62-.29-1.44.06-1.69-1.29s-1-1.86-2.07-1.7h0c-1.72-.13-1.42-3.61-3.26-3.53l-2.16-.31s0-.07,0-.1c1.6-1.38,2.74-2.61,4.39-2.22a6.14,6.14,0,0,0,4.6-.77c-.55-1.22-1.22-.68-1.79-.77s-1.4.37-1.91-.61c3.53-2.29,4.32-2.09,7.13,1.78h0c.52,1.19,1.53,1,1.66.15.47-3.12,1.87-2.13,3.32-1.83,1.08.23,2.65-.48,2.26-2-.94-3.54,1.1-3.71,2.43-4.83h0l2.16-.07c2,1.16,3.91.86,5.82-.57-2.64-.92-5.15-2.65-8-1.56h0L369.45,288a2.82,2.82,0,0,0,0-3.06c1.25-1.49-.27-2.17-.65-2.94-.47-.95-1.35-.86-1.94.21h0c-.61.43-1.22,1.18-1.85,1.22-2,.13-4-1.34-6.17-.19-.37.2.14-1.1.11-1.71h0l.37-.8c.13-3.27,2.74-2.47,3.83-4.17,1.69-.83,1.8-3.09,2.47-4.85-1.71-1.16-2.05,1.7-3.27,2-.14,0-.25.32-.37.49h0c-1.58.58-2.57,2.36-3.9,3.46-1.22-.54-1.18-2.39-2-3.41s-1.76-2.16-2.39-1c-1,1.84-2.54,1.33-3.67,2.3-.54.36-1.16,1.14-1.69.38-.66-.92.3-1.42.58-2.05a13.69,13.69,0,0,1,1.17-1.91h0a3.25,3.25,0,0,1,.46-.32c1.91-.87,1.88-.87,2-3.13,0-.34.41-.67.66-1,.53-.58,1.41-.31,1.79-1.29h0a3.41,3.41,0,0,1,2.19-2.06h0c1,.19,1.94-.27,2.88.34.57.37,1.12,1.61,1.82.58.54-.8-.9-1.44-.44-2.31h4.84c1.42.64,2.73,4.28,4.39.06.3-.77,2.25-.37,4.22-.59-3.43-2.53-6-4.82-9.22-1.85h0a.82.82,0,0,0-.4,0h0c-.82-1.17-2-.19-3-1,.63-1.58,1.91-1.49,2.87-2.15a1.26,1.26,0,0,0,.7-1.32c-.14-.69-.68-.6-1.1-.62a1.81,1.81,0,0,0-1.69.76h0c-2.06-1.46-4.24-.49-6.37-.54h0a3.63,3.63,0,0,1-1.18-5.15l.55-.69c3.4-.05,1.27-4.68,3.58-6.22-1.77-.1-2.25,1.09-2.76,1.91-1.06,1.71-1.9-1.79-2.3-.37-.86,3-2.49,1.68-3.89,1.78-.51-.37-.88-1.24-1.62-.74-.47-2.35-1.28-3.72-3.39-2.79-1,.46-2.26-.25-3.4.52-.69.47-1.18-.18-1.19-1.26l2.13-1.36c1.69.22,3.07-.16,3.21-2.95a4,4,0,0,0,2.14-2.17h0c.59-.16.77-.87,1.06-1.44a1.23,1.23,0,0,1,.46-.44l-.31.3c1.31-1,3.55,3.85,4.27-1.1a2.92,2.92,0,0,0,.75.15c1-.09,1.93-.22,2.9-.34,1.42.53,2.77,1.71,4.34.81h0c1.43-.53,3.12.27,4.58-1.43-1.84-1.51-3.89-.07-5.51-1.38.4-1.31,1.83-.93,1.81-2.84-2.26.09-4,2.93-6.58,2.48,1-1,1.29-2.21,2.22-2.61.59-.26,1.33-.59,1.1-1.66s-1.05-.55-1.59-.45c-1.31.26-2.61.68-3.92,1-.82.19-1.72,1-2.37-.44,1.12-.55,2.45-.54,3.71-2-1.55-.43-2.72.44-3.68-1.16-.76-1.26-1.94-.82-2.88.15h0l-2,1.61h0c-1.72-.47-1.82-1.46-.53-2.91h0l3.74-4.39h0c1.24.08,1.36-1.6,2-2.4.43-.52,1.37-1.06.69-2.24-.5-.86-.8-2.12-2-1.81a7.12,7.12,0,0,1-1.82,0c-.07-1.71-2.61-2.7-.79-5,.23-.29-.52-.76-1-.75a2.71,2.71,0,0,0-2.55,1.5h0c-2.2-.47-4,.35-5.31,2.88-.14.27-.44.39-.66.58h0a5.29,5.29,0,0,1-1-2.77h0l.56-.61c1.28-1.2,3-1.81,3.27-4.36,2-2.12,4.54-.66,6.68-1.75-.28-1.5-1.89-.64-1.74-2s1.35-1.25,2.18-1.49a6.5,6.5,0,0,1,2.36-.49c2.94.3,4.67-2.43,6.63-4.76l-10.23,2.86c-.68-.57-.07-1.19,0-1.78h0a9.86,9.86,0,0,0,2.47-1c1-.73,2.37-2.07,2-3.26-.51-1.71-1.74.22-2.69.25a4,4,0,0,0-1.25.48c-1.27.9-3,.77-3.73,2.91-.62-.23-1.26-.58-.77-1.62a5.33,5.33,0,0,0,.12-3.6c1.5-.8.59-2.32.58-3.57h0c2.08,0,4.21.57,6.37-.85a1.67,1.67,0,0,0-2-.69l-1-.63h0c-2.62-2.47-5.25-.73-7.93,0a6.46,6.46,0,0,1,.93-1.31c.32-.42,1.07-.39.84-1.49-1,0-2,0-2.93,0-1.33-.07-1.22-.95-.6-2.07,5,.5,4.12-5.5,5.71-9.19a6.15,6.15,0,0,0-4.84,3.24.77.77,0,0,0-.42.12,1.26,1.26,0,0,1-1.13-1.51h0c.49-.47,1.33-1.09.44-1.79-1.11-.87.15-1.27,0-1.87h0c.74-2,2.52-1.8,3.71-3.22-3.89-.53-7.77-.74-11.47-2.31-.6-.25-2.37,1.41-1.71-1.51h0c.63.18,1.06-.35,1.52-.79,2.27-.35,4-2.15,5.94-3.59,1.06.27,1.84-.68,2.71-1.17.62-.35,1.63-.66,1.33-1.78-.35-1.32-1.29-.67-2-.32-.33.16-.67.28-1,.42h0c-.74-.75-.32-2.9-.59-2.73-1.55,1-3.22-.58-4.68.6h0l-.05-.05c-1.95.34-3.48-.92-5-2.33h0c1.5-.42,28.81.57,30.83,1.14s-23.89-5.45-22.48-7c-1-2.07-4.15,2.52-4.05-2.73-2.7.94-4.78,5.37-8.16,2.56-.36-.3-1.08,1.73-1.74.53s-.14-2.5.44-3.62c3.29-2.19,6.92-3.58,10.35-7.16-2.77-.07-4.79.17-6.7,1.33h0c-1.63.35-3.31,1-4.39-1.51h0a9.73,9.73,0,0,0,1.09-2c.17-.56.75-1.26.21-1.89s-1.08.06-1.6.49c-1,.81-1.55,3.34-2.86,2.38-1.09-.8-.3-3-.47-4.63a11.58,11.58,0,0,1,0-1.41h0l3.63-4.56.25-1.11c-4.24,2.51-4.11-.83-4.1-4a2.53,2.53,0,0,0,0-.36c-.08-.59-.19-1.28-.68-1.4s-.61.62-.85,1.1c-1.57,3.2-1.31,6.4-.06,9.62a11.9,11.9,0,0,1,0,1.43c-.16,1.57.72,3.85-.58,4.52-1,.51-1.36-1.84-2-2.9-.33-.54-.73-1.32-1.29-.77s-.19,1.26.06,1.92a18.37,18.37,0,0,1,1.61,4.77c-1.57.39-2.72-1.41-4.09-.64h0c-1.53-2.47-3.19-4.62-5.9-4.66,1,3.3,2.34,5.88,4.74,7.33a2.08,2.08,0,0,1,1.06,2.51c-.17.36-.36.71-.5,1.09-.35,1,1.43,1.48.36,2.51-.91.88-1.78.1-2.6-.55h0l-.57-.79a1.15,1.15,0,0,0,0-.35c-.85-1.92-1.6-3.87-3.76-2.27-.59.43-1.64-2-2.24-.74-.71,1.55,1.43,1.57,1.52,2.69.17,2.05,1.59,3.8,1,6.08-1.45-.26-1.77-2.61-3.84-2.45,2.4,2.11-.88,6,2.58,7.27-1.81,1.49-3.23-.19-4.58.11-.64,1.39,1.33,1.53.48,3.42-1.25-3.35-2.34-1.12-3,.11-.8,1.41.17,2.22,1.2,2.57h0a2.33,2.33,0,0,0,2,.89h0c-.44,2.88.81,4.1,2.6,4.9.48.21,1.74.7,1.28,1.06-2.54,2,.94,2.06.59,3.16-1.42,1-2.34-.75-3.14-1-1.34.78,1.82,4.66-1.75,3.28-1.12-3-3.15-4.9-5.1-7.7a17.48,17.48,0,0,0,4.5,10h0c-.11,1.05-.33,1.67-1.13.63a10.89,10.89,0,0,0-4.19-3c-1.46-1.77-3.5-.65-5.18-1.82-.67-.47-.44,1,0,1.61s1.56.91,1,2.08c-1.26,2.6.34,2.29,1.36,2.64h0c1.28,1.85,3.41,1,4.79,2.59-.14,1.26-1.54.88-1.49,2.23-1.19,2.85-1.19,2.85-2.65,3-2.57-.16-5.23-2.13-7.83.46.83,1.16,1.7.72,2.46,1,1.33,1.68,3.6-.46,4.72,2.07h0c-.18,2.43,1.47,2.12,2.41,2.75,1.73,1.16,4,7.81,3.3,10.17-.05.19-.49.18-.75.26h0l-1.19-.81h0c-1.25-1.17-2.83-1.74-3.7-3.61a.65.65,0,0,0-.07-.67.84.84,0,0,0-.41-.19,13.75,13.75,0,0,1-5.4-5.06c-.67,1.87.65,2.65.26,4-.88-.57-1.74-1.08-2.58-1.68s-1.6-1.49-2.12-.37c-.61,1.29.68,1.59,1.23,2.24.2.24.41.46.63.67.42.41,1,.69.9,1.58-.18,1.18-1,.66-1.54.94h0c-.44-.06-1.22-.17-1.2.3.15,3.78-1.76,2.32-3.09,2.25-.67,0-1.41-.64-1.83.56a5.36,5.36,0,0,0,3.79,2.25,9.63,9.63,0,0,1,4.05,1.68c2.12,1.62,2.93,5,5.28,5.93l2.69,2.14c1,1.84,1.9,3.82,3.73,4.4.34.75,1.3.63,1.45,2.06h-3c-1.38-1.07-3.06,1.36-4.36-.66-.86-1.17-1.72-2.34-2.57-3.52-.4-.56-1-1.88-1.32-1.11-.52,1.21-2.11,1.29-1.94,2.12.85,4-1.5,2.71-2.75,3.23-1.71.85-2.93,3.85-5.35,1.79-.57-.48-.56,1.14-.19,1.78a2.72,2.72,0,0,0,2.28,1.49l.5.79-.52.69h0c-1.8-.95-3.48-.23-5.13.28-.12,1.45,1.59,1.27,1,2.73-.5,1.19-1.2,2-2.35,1.77-.48-.08-1.23-.08-1.25.83s.7.83,1.21.88a20.39,20.39,0,0,0,10.85,2.94h0c.55,1,1.45.9,2.21,1.26h0c-.16,3.27,1.83,2.49,3.14,3h0a5.09,5.09,0,0,0,.15,3c.41,1.65-.13,2.92-1.68,2.77h0l-1.07.65c-2.48-1.51-4.25-4.76-7.33-5.66a11,11,0,0,0,.54,1.32c1.65,2.61,2.51,5-.85,6.42L271,244h0c-.54-.7-1.21-1.14-1.86-.57a2.67,2.67,0,0,0-.38,2.77c.37,1,.5,1.4-.47,1.39-.76-1-1.84-.08-2.65-.8-1.25-1.64-2.24.54-3.39.46a1.62,1.62,0,0,0-.15.86c.77,1.38,1.89,1,2.93,1h0a8.77,8.77,0,0,0,4.71,1.53h0c1.88,1.17,4.13,1.54,5.68,4.55-2.68-.66-4.87.42-7.17.13-1.47-.19-4.16-1-4.44,1.11-.33,2.5,2.5,1.7,3.75,2.85a1.43,1.43,0,0,0,1,1.42c2.39,1,4.86,1,7.31,1.27h0l.18.18h.22c1.29.89,2.58.56,3.86,0a5.32,5.32,0,0,1,4.21,0,2.59,2.59,0,0,1,1.41,3.49c-.53,1.44-1.5,1.85-2.64.63a4,4,0,0,0-2.94-1.4c0,.17,0,.33.06.5a3.65,3.65,0,0,1-.06-.5c-1-.63-1.9,1.19-3-.13-.65-.81-1.88-1.73-2.52-.39-.5,1,.86,1.74,1.26,2.7-.29,3.67,2.28,4.08,3.71,5.79-.39,1.69-1.11,2.13-2.08.8-.85-1.18-1.72-5-2.1.3,0,.7-1.1.57-1.69.46-1.11-.2-2.21-.56-3.32-.85h0c-2-.65-2.69-3.6-4.33-4.78-1.1,5.09,1,8,3.66,10.62h0c-1.23,2.19-3.38.66-4.78,2.1-.89.92-1.38,3.11-2.91,2s-3.22-1.1-4.87-1.35c-.57-.08-1.47-1.29-1.68.28-.12.9.25,2.2,1.42,1.89a.5.5,0,0,0,.45.12h0c1.44,1.21,3.5.79,4.56,3-.39,1-1.8-.8-1.77,1.24-3.25-1.52-6.28.11-9.38,1.28,1.1.72,2.17,1.47,3.45.86.76.24,1.74-.3,2.27.62,2.43,4.18,5.84,2.93,9,3l.21.12.23,0h0c3.57,0,5.28,3.28,7,6.79a2.16,2.16,0,0,1,0,2.43c-.55.85-.77-.38-1.18-.59a5.94,5.94,0,0,1-2.3-1.66c-.74-1-1,0-1.27.84-1.93.41-4,1.35-5.47-1.19-.91-1.53-1.73-.42-2.6-.14h0c-.75-.74-1.38-2-2.76-1,1.37,1.33,1.14,3.47,1.73,5.2.08,2.12-1.63-.12-1.81,1.2,0,1.44,1.54,1.26,1.43,2.66-.7.87-1.58-.73-2.29.55.32,1.28,2.08,1.59,1.56,3.54-.77,2.79-2.18.41-3.25.72h0c-2.25-2.67-5.47-1.61-7.87-3.91.08.81.57,1.58.48,1.74-2.16,3.72,1.11,2.79,1.9,3.85.53.71,1.42.92,2.16,1.35h0c.39.94,1.08.55,1.65.64.06.58,1.17.39.59,1.44h0l-1.06-.09a.55.55,0,0,0-.18-.08c-1.79-.8-3.56-1.45-5.29.7,1,1.16,2.63,0,2.76,2.24a12.46,12.46,0,0,0-8,1.64c1.22,1.57,2.5,1.07,3.68,1.21h0c5.08.08,10.16.18,15.24.22a3.22,3.22,0,0,0,2.55-.86c.52.44,1.25-.39,1.71.49l-1.35.82h0c-.53,2.35,2.13,1.56,2,3.82-3-.1-6-1.86-8.82.57-.68-.8-1.47-1.12-2,.09s.6,1.35,1.09,1.84a15.78,15.78,0,0,0,1.31,1.09h0c-.84,1-1.72,1.94.07,2.79a2.43,2.43,0,0,1,.52.42,1.11,1.11,0,0,1-.52-.42c.06.82-.16,1.17-.83,1.3s-1,.83-.3,1.63h0l.54,1.46c-.25.63.33,2.86-1.17,1.1a1.82,1.82,0,0,0-2-.5h0l-1.06-.71h0c-1.6-1.46-3.83-1.56-4.92-4.21-.17-.42-1,0-.81.71.55,1.61-.6,4,1.28,5h0c-1,.88-2.11,1.71,0,2.71a1.49,1.49,0,0,1,.9,1.85c-.31,1.13-3.75,2.23-4.55,1.46-.49-.47-.86-1.23-1.59-1h0c-.53,0-1.06,0-1.59-.08-1-.08-2.26-2.45-2.92-.68-.54,1.43,1.59,1.72,2.24,2.93a1.48,1.48,0,0,1,.09.45c-.61.75-1.89.24-1.92,2l3,1.07h0l.46.81h0c-.5,2.77-2.13.67-3.13,1.29h0c-3.1-2.34-5.24-2.94-8.37-2.23,3.15,2.64,6.2,4.84,9.92,4.53h0c.52,1.28,1.81.74,2.42,1.73-.3,1.08-1.72.51-1.58,2.13.74.5,1.42,0,2.09-.21,3.57-1.29,7-1.86,10.81-.47,2.07.76,4.41,1.86,6.75,1.07a5.31,5.31,0,0,1,3.19.07h0c.17.65,1,.77.84,1.61s-.89.58-1.39.58c-1.24,0-2.48-.07-3.72-.12h0a12.18,12.18,0,0,0-6.9,2.33c3.38.76,6.71,2.12,10.12.54a.57.57,0,0,1,.23-.2l-.23.2c.47.37,1.31-.25,1.46.8.1.71-.44,1.11-.88,1.43h0c-2.27,1.77-.42,4.09-.3,6,.1,1.65,1.36,1.88,2.56,1.28a1.36,1.36,0,0,1,1.28.22c2.26,1.68,4.21.59,6.11-1.09h0c1.07-.49,2.12-1.44,3.27-.44.87.75,1.59.23,2.17-.48,3.19-3.84,6.76-4.79,10.87-3.12,1.72.7,2.18-.05,2.1-2.48h0c.44-1.64,1.9-1,2.59-2.1,2-.85,4.14.12,6.21-.38.77-.19,2.1-.47,1.15,1.69a.76.76,0,0,0-.72,1c.06.29.48.45.73.67h0c.71,1.56-.29,1-.76,1.12-1.81.62-4,0-5.08,3h0c-2.46.4-4.92.75-7.37,1.22-1,.19-2.42.31-2.16,2.28.24,1.76,1.37,1.22,2.49,1.29,2.07.12,4.62-.85,6.06,2.44h0l.07.11c2.25,1.72,4.29.15,6.36-.76h0c.42.07,1-.06,1.21.26.31.56-.27.91-.54,1.29s-.74,1-1.11,1.45c-.17.68.16.87.55,1,1.36-.25,2-1.86,3-2.81a1.67,1.67,0,0,0,.37-.39H306l.11.43c1.54,3.51,3,1.71,4.55.44a2.93,2.93,0,0,0,0,2.66l.73.73c2.17,1.82,3-2.25,4.75-2a1.64,1.64,0,0,0,.62-1.54,3.94,3.94,0,0,0,.59-2.19h0a6.75,6.75,0,0,1,2.54,2.4c.22.15.63.45.63.44,1.11-2.57,2.54-1.78,4-.9a3.05,3.05,0,0,0,.4.55,1,1,0,0,0,1.51-.33l.25,0h.26a1.27,1.27,0,0,0,.15.27.69.69,0,0,0,1-.25l.52-.72c2.45.26,4.43,2,6.46,3.64h0a1.24,1.24,0,0,0,1.63.71c.85-.16.43-1.75,1-1.87,2.68-.6,2.35-2.22.57-4.35l6.71-1.49a13.06,13.06,0,0,0-2.45-1.94c-2.49-1-.64-1.8,0-2.67l-.3.11.3-.11,0-1.36h0c-.78-1.13-.45-1.41.54-1.36.73,0,2.21,1,2.06,0-.54-3.59,2-2.87,2.91-4.39a7.47,7.47,0,0,0,1.28.51c1.37.27,3.23-.27,2.08,3.19-.37,1.1.53,1.75,1.29.8.58-.73,1-1,1.47,0a2,2,0,0,1-.2,2.26,14.05,14.05,0,0,0-1.07,1.6c-.41.73-1.28,1.42-.84,2.42.58,1.31,1.21.17,1.75-.32.73-.67,1-.06,1.47.63,2.22,3.17,2.59-4.15,4.78-1.58.21-.35.55-.66.6-1,.12-1-.48-1.47-.9-2.07l-3.42-4.77c2.51-.22,4.7-.72,6.82.49,1.48,1.51,3.18.72,4.79.79.65,0,1.51.46,1.91-.61s-1.24-.92-.82-2.16c1.09-.4,2.32.3,3.32-.75h0c.76-.36,1.3,1,2.09.49,2.18,1,3.54,3.48,5.3,5.26a4.25,4.25,0,0,0,.55-.23,1.58,1.58,0,0,1-.55.23c.45.82,1.16,1.7,1.73.8,1.26-2-1.59-2.51-1.09-4.45h5.89c2,.13,4.06.51,6-.74.87,0,1.8.33,2.67-.68C393.78,363.86,392.72,364.25,391.72,364.18ZM360.91,260.54v0l0,0ZM289.77,375.38h0l-.24-.08ZM251.9,319.89a1.79,1.79,0,0,1,0,.4A.67.67,0,0,1,251.9,319.89Zm22.31,46.44a.69.69,0,0,1,.5.62,1.27,1.27,0,0,1-1.24.13A3.88,3.88,0,0,0,274.21,366.33Zm11.91-118.24,0,0,0-.05S286.12,248.08,286.12,248.09Zm56-11.86-.06.09v-.12Zm19.8,112.88h0Zm-83.14-3,0,0a1.67,1.67,0,0,1,.44,1.28l-.13-.44A1.11,1.11,0,0,0,278.77,346.15Zm-5.71,5.95h0Zm65.68-95.85h0c-.19,0-.38,0-.57,0A2.21,2.21,0,0,1,338.74,256.24ZM324.9,228.35h0v0Zm-15.58-45.77h0l0,0-.05.05A.59.59,0,0,1,309.32,182.58ZM307,222.47c-.19.2-.42.44-.68.76C306,222.54,306.47,222.47,307,222.47Zm-24.14,102,.13,0-.06.12Zm19.89-4.09,0,.11s0-.07,0-.11h0Zm14-46.15v0h0Zm-1.3-2.83c.43.12.63.42.53,1.09C315.75,272.11,315.57,271.74,315.4,271.4Zm3-15.17h0v-.05Zm3.33,39.61h0l0,.06ZM320,239h0Zm0,0v0h0Zm-18.3,73.21,0,.09h0S301.66,312.25,301.66,312.22Zm19.92-7.68v0s0,0,0,0l0,0,0,0v0h0Zm7.54,12.22v0l0,0Zm-31.24-51.85h0Zm-7,43.95h0v0h0Zm12.43,13-.08.1-.1-.12.18,0h0Zm.5-.7v0h0Zm20.44-121.74h0Zm-25,63.2v0h0Zm-1.34,2.29,0,.06,0-.06ZM310,222.4l-.06-.12C310,222.13,310,222.25,310,222.4Zm-7,25.52a1.19,1.19,0,0,1-.89.29A2.55,2.55,0,0,1,303,247.92Zm12.43,67.31.14.23-.22-.09Zm16.8-34.52c.22-.19.4-.18.51.26A2.93,2.93,0,0,0,332.2,280.7Zm-2,66,0-.14.12.15C330.21,346.71,330.15,346.72,330.16,346.67Zm-3.74-137.81.07.06c0,.11,0,.22,0,.33Q326.44,209.06,326.41,208.86Zm10,52.92c0-.16,0-.31-.07-.47l.22.48A.32.32,0,0,0,336.43,261.78Zm-10.51-76.15,0-.07v.06Zm-7.64,163.52c0-.07,0-.13-.05-.2l.13.19Zm6.53-1.42h0v0Zm28.66-13.9a.35.35,0,0,1,.42,0A2.44,2.44,0,0,0,353.47,333.83Zm-23.3-141.72h0l-.07,0,0-.15A.79.79,0,0,1,330.17,192.11ZM298.91,198h0Zm0,.19V198l.1.06ZM286,290.81h0ZM297.34,347h0l0,.05,0,0v0Zm9.15-185.09h0l0,0v0Zm-6.93,189.46v0Zm21.89-2.08h.08l0,.14A.75.75,0,0,1,321.46,349.3Zm36.19-21.19h0v.06Zm-11.81-2.74h0l.08,0,0,.06Zm-3.21-56.79h0l0,.09Zm-51.79-29.52h0Zm73.29,113h0l0-.09V352Zm-9.14-31h0Zm0,0h0Zm0,0h0Zm-9.72-51.33,0,.13-.07,0Zm-10.09-63.88h0l0,0,0,0h0Zm-6.55-35.34h0v0Zm0,0v0h0ZM274.91,356.29a3.67,3.67,0,0,0,.18-1.06l.74.89A2.1,2.1,0,0,0,274.91,356.29Zm41.34-211.74h0ZM294.19,207h0l-.2-.13a1.13,1.13,0,0,0,.2-.14V207Zm-20.67,81.52a1.22,1.22,0,0,1,.24.44c.08.82.13,1.39.19,1.8A2.55,2.55,0,0,1,273.52,288.49Zm105.71,58.67a.38.38,0,0,1,.27.13ZM350.59,296h0l.05,0,0,.06ZM345,277.67l0-.06v0Zm-77.8,14.4s0,.09,0,.14l-.11,0Zm6.93,2.36h0v0l0,0Zm-15.79,43.2a3.27,3.27,0,0,1-.13.36l-.08-.1A.67.67,0,0,1,258.38,337.63Zm96.67-30.15-.19-.32A1.47,1.47,0,0,1,355.05,307.48Zm12.66-10,.06-.07,0,.09ZM349,272l0,0v0Zm-73.85,3.27s0-.08,0-.12l.11,0Z"/><path class="cls-1" d="M162.91,312.72h0l-1.18-.13h0c-.3-.08-.84-.13-.85-.25-.26-3.44-1.73-1.78-3.2-1.56a19,19,0,0,1-7.85,0c2.15-2.76,5.26-2.93,6.06-6.58-1-.49-2.32-.35-3.08-1.76h0c1.32-1.77,3-3.14,4.07-5.51-1.52-.47-1.66,1.22-2.42,1.68h0c-1.18-.64-2.46-2.27-3.29.55h0a2.69,2.69,0,0,1-.43,0l-.78-2.41h0l2.42-3.61c-1.4,1.76-3.22,1-4.82,1.36-.94-.14-1.36-.72-.69-1.77a6.37,6.37,0,0,0,.72-3.66h0c1.36-2.41,3.49-3.41,5.4-4.84.36-.27.35-.28.15-1.49h0c-.89-1.14-2.23.81-3.07-.73h0c1.23-1.31,3.4-1.19,4-3.15.45-1.55-2.07-2.64-.62-5.65l-5.58,5.2c-1.16-2.3.42-4.6-.92-7.19-.26,2.82-2.21,3.65-2.58,5.93-.58,3.63-1.5,1-2.31.18-1.73-1.05-1.52.71-1.55,1.86a33.2,33.2,0,0,0,.24,3.42c-1.8,1-3.68-2.88-5.45.14h0c-2.82-4.27.94-4.33,2.31-6-.85-.72-2.26-1.39-.14-2.64a19.2,19.2,0,0,0,3-2.75c-2.88,1.72-5.88,1.83-8.91,2a5,5,0,0,0-4.36,3.62h0l-1,.34h0a3.45,3.45,0,0,1-4.4-1.13c-.77-1,.13-2.51.7-3.64l1.21,0h0c3.16.13,6.24-.62,9.59-1.16-2.3-1.8-2.57-4.72-1-8.36h0c2.83-.32,5.7-.48,8.78-2.77-2.12-.46-3.7.9-5.13-.36l1.2-1,2.54-1.44c1-1.23,2.85-1,3.61-3.83l-4.83,2.68h0l-.36-1.46c-2.06,1.21-5.07-1.38-6.44,2.61h0l-.69.67h0c-1.15.31-2.29.63-3.32-.31.21-1.43,1.58-1.64,1.37-3.23a10.26,10.26,0,0,0-4.71,2.11c-.63-3.2-2.73-1.94-4.29-2.34-.71-.09-1.25-.38-1.08-1.5h0l4.17-2.39h0c.76-.32,1.51-.67,2.28-1,.61-.23,1.3-.48,1.13-1.46s-1-.64-1.52-.59c-1,.08-1.93,1-3.08.07l2-7.21h0c.62-1.23.71-2.19-.71-1.21s-2.78,1.38-4.27,0c1.32-1.87,3.27-2.9,4.21-5.3-2.35-.95-3.52,2.93-5.71,1.7h0l.16-1.55h0c2.06.77,1.46-3,3.35-3.08,1.72-.08,2.35-3.1,1.1-4.83a1.56,1.56,0,0,1-.2-1.6h0c1.19-1,3-1.06,3.2-3.55-3.56-.87-3.55-.87-1.31-4.54a1.12,1.12,0,0,0,.05-.38c1-1.93,2.37-3.67,3.06-6.53-2.12,1.47-2.72,3.75-3.72,5.62a6.86,6.86,0,0,0-2.61,3.13c-.86,1.86-1.59.82-2.38,0-1.54-1.35-1-3.76-1.7-6.05.13,4.35-1.49,7.44-2.65,10.72-.93,0-1.27-2.06-2.18-1.27-.42.37-.24,1.84-.33,2.81h0a3.49,3.49,0,0,0-2.44,3.15h0c-1.7.1-2.33-1.09-2.29-3.09.85-.84.38-2.07.57-3.11h0c1.09-2,1.55-4.64,3.75-5.67-1.4-1.36-3.32,2.68-3.74-1.37a12.8,12.8,0,0,0,6.22-2.39,7.57,7.57,0,0,1-4.56-.7c1.3-3,3.37-4.67,5.12-7.17-3.51,1.18-5,5.4-8,6.82-.85-1.27-1.63-2.57-1-4.38h0c.84.22,1.45,1.37,2.42,1,.45-1.69-1.83-.74-1.3-2.32s2.88.68,2.56-1.27c-.45-2.66,1-2,1.78-2.56a6.31,6.31,0,0,0,3-2.8l-5,1.58c-1-2,.65-3,1.06-4.4.89-3,2.13-5.84,3.53-9.55-2.25,1.58-2.38,3.74-3.07,5.39-1,2.49-1.49,5.78-4.69,4.5-.27,3.14-2.52,1.38-3.65,2.4h0c-1.95.54-3.73-.92-5.65-.76h0l.21-1.53h0v0c3.94.19.93-2.61,1.07-4.06h0l4-3.94c-2.05-1.19-3.37.51-4.82,1.09s-2.13.47-1.71-1.73c.3-1.08,1.07-.84,1.71-1,.83-.2.91-.73.32-1.47l.17-1.44h0a.63.63,0,0,0,.42-.25,2.68,2.68,0,0,1-.31-1.2,6,6,0,0,0,.31,1.2c1.66.09,3.09-.13,2.39-3.06l-.09.09.09-.09c-1.78-2.31,0-3.56.94-4.81-3.6-1.86.93-4-.41-6.08-.8,1.51-1.48,3-2.36,4.36s-1.27,3.29-3,4c.22-2.37-2.79-3.34-1.28-6.19l.34-.47-.79-.4c.13-.53-.86-.89-.14-1.5,1-.74,2.37-.92,3-2.71-1.53-.41-2.42,1-3.58,1.19h0a1,1,0,0,1-.19-1.56c1.75-2.13-.37-1.67-.91-2.26.34-.45,1-1.14,1-1.32-.87-2.15.75-4.56-.45-6.62q.09-.23.14-.44l1.77-5.49-.62-.38-2.06,4.55h0c-1.35-1.32-.47-2.91-.12-4.2a16.54,16.54,0,0,0,0-8.88c-1.1,3.91-.74,8.35-2.87,11.79-.64-1.21-2.11,1.37-2.52-.9-.29-1-.53-1.94-.88-2.85-.24-.61-.2-.92-1.07-.22-2.24,1.77-.13,2.69.09,4h0c-1,3.29.82,4.7,2.49,6.22,0,1.22.51,3.07-1.44,1.64-1.37-1-2.57-2.61-4.45-2.49a14.21,14.21,0,0,1,3.75,6.21c-1.48,0-2.46-1.47-4-.61,1.44,1.26,2.89,2.13,3.84,3.76.07.43,1.51.88.12,1.2-1,.23-2-.36-3.07-.58l-.1.49,4.81,2.2c-.88,1.67-1.78-.73-2.67,0,.84,1.8,1.31,3.64-1,3.89-1.43.15-1.67,1.58-2.41,2.5-1.34-1.51,1.13-3.6-.53-5.14-1.1,1-1.14,2.59-1.46,4h0l-1-.82c-2.22-1.44-3.77-4.24-6.53-4.77l5.1,5.77a3.57,3.57,0,0,0-.09.93c-.44,1.17-2.18.5-2.45,1.92.57,1.46,2.32,0,2.69,1.83a3.67,3.67,0,0,1-4.21,1.51c1.61,2.13,5,3.06,1.43,5.84,1.26,1.37,3.3-.49,4,2.09h0c.07,2.21,1.37,1.48,2.32,1.6a1.38,1.38,0,0,1,.2.25l-.2-.25c.28,1.22-.1,1.92-1,2.2L72,192.54a8.31,8.31,0,0,0,3.47,3h0c.4.74.74,1.58,1.61,1.47,2,2.26-1.42,2-.95,3.74a5.66,5.66,0,0,1,3.53-.79,1.43,1.43,0,0,0,.84.13l0,.07c-.14,1-1.07,2.09.13,3h0a1.32,1.32,0,0,0-.09.72.85.85,0,0,0-.56.19h0c-2.49.25-4.74-1.52-7.46-.79-1.78.48-1.64,3.43-3.46,2.92h0c-1.63-2.8-3.15-5.75-6.59-7.72,1.31,3,3.36,3.78,3.77,6.17-.83,1.33-1.93-.53-2.8.42.27,1.16,1.66,1.16,1.66,2.59-1.33.77-2-.93-3-1.34a3.62,3.62,0,0,0-3.59-2.18l2.49,3h0c.37,2.48,2.27,2.89,3.5,4.21.41,2.52.78,5.07,2.49,6.82h0l.68,3.88a22.61,22.61,0,0,0-3.13-1.22c-.69-.15-1.77-1.39-2,.77-.1,1-1.13,2.12.58,2.45.68.13,1,1.07.66,1.84-.4,1-.92,2-1.81,2.26s-.88-.71-1.14-1.58c-.58-1.89-1.22-.48-1.77.25h0l-.76,1.36h0c-2.76-1.76-4.34-5.77-7.85-6.9a12.27,12.27,0,0,0,2.74,4.08c-2.12,1.26-2.12,1.26-1.12,2.31h0l.18,2.3c-.7,1-.32,2.87-1.68,3.29h0c-1.09,2.68-2.62,4.11-5.07,3-.88-1-1.83-1-3.67-.22l3.63,1.61h0c.7,1,3.53.1,1.87,3.31,1.18.84.69,4.3,3.09,3.23h0c1.6.67,3.51.2,5.27,2.17a10.26,10.26,0,0,0-1.68.44c-1.06.53-4.06-.19-1.17,3a1,1,0,0,1-.91,1.61c-.78-.16-1.54-.72-2.26.25.06,1,1.58.61,1.25,2.09-1.91.4-3.47-2.46-5.47-1-1.59,1.26-2.76-1.3-4.26-.77-1.49-1.65-2.25-4.33-4.47-5.39.1,2,1.64,2.92,1.48,4.71h0c0,1-.19,1.84-1.23,1.39-2.12-1.46-4.16-3.24-6.77-2.86,1.62.67,2.52,2.38,3.67,3.67h0c1.66,1.89-.72,2-1,3.38a10.09,10.09,0,0,0,5.84.53c.35,1.08,2.55-1.57,2,1.65-.15.83,1.12,2-.57,2.47-.74.21-2.77.65-1.66,1.9.93,1,.64,4.68,3.53,3.16s6-.19,8.89,1.22c-.35.81.6,2.13-.55,2.6-1.91.78-.85,2.31-.63,3.65-.1,2.75-1.2,1.87-2.41,1.19-2.1-1.17-3.62-3.85-6.55-4.42,1.59,3.37,5.43,3.6,5,8.09l.3-.06c-.12,1.82-.9,2.41-2,1.39-1.91-1.72-3.85-1.38-6-.44,1.27.25,1.9,1.72,3,2.19h0c-.05,1.08-1.45,2.49.61,3,1.36.34.2.56-.09.88s-1.26.71-.44,1.68c-.68,2.79-2.93,2-4.34,3.09a2,2,0,0,1,.35.19,2.66,2.66,0,0,1-.35-.19c-2.51-.44-5.32.55-7.26-2.54-1.24.14-2.41-2.15-3.42-.84-.87,1.14-1,.64-2,.51-2.69-.36-3.9-3.3-6.23-4.87,1.17,3.6.77,3.31-1.63,4-1.94.59-3.7-.25-5.53.08,2.47,2,5.64,1.92,7.87,5.12-1.72.44-3.16-.28-4.66,1.18a17.72,17.72,0,0,0,3.84.86c2.22,0,4.39-.11,6.21,1.88l-.54,1.67h0c-.72,2-2.87.77-3.7,2.62,2.38,1.72,4.74,2.58,7.33,1.29h0a13.07,13.07,0,0,1,1.81.11c.74.14,1.87,0,1.71,1.46s-1.4-.16-2,.74c.91.54,2.55,1.07,2.54,1.56,0,3,1.83,1.67,2.79,2.28,1.17,1.46,1,2.32-.69,2.52-1.27.14-2.64-.64-3.8.63h0c-.74.45-1.89-.15-2.39,2.13,5.26.67,8.78,5.82,13.44,8.61-2.94-.6-5,4.34-8.92.7-2.95-2.75-5.19-3.18-6.15-7.13,0-.09-.35-.07-.71-.13C25,317,25.19,318.63,23,317c-1-.7-2.4-.3-3.53-.74-1.73-.66-3.79.72-5.24-1.43a7.7,7.7,0,0,0-4-4.08c-.67,1.47,1.2,1.48.69,2.55-1.47.66-2.68-1.36-4.37-.19,1.5,1.89,3.4,2.42,5,3.49l.6.75c-1.26,1.92-3.5-.64-4.93,1.79,1.42.51,2.55,1.27,3.87,1.13a30.73,30.73,0,0,1,3.32.34A5.72,5.72,0,0,1,18,323.88c.51,1.08-1.22,1.07-2,1.38a10.07,10.07,0,0,0-6.19,1.57.51.51,0,0,0-.48-.16c-2.56-3.62-6-2.43-9.26-2.33l6.09,3h0c.69,1.34,0,1.34-.79,1.53-1,.23-2.15-1.25-3.09.41,2.59,1.09,5.06,2.42,7.84,1.88a1.31,1.31,0,0,1,1.62,1.32c.09,1.28-.85,1.16-1.5,1.42-1.08.44-2.46-.81-3.49,1.22,2.81-.71,3.62,3.42,6,3.54,0,1,.05,2.46.85,2.49.95,0,1.07-1.44,1.19-2.53h0a2.84,2.84,0,0,1,2.95-.84c.91,1.26,3.61-.43,3.14,3.11h0l.07,1.39h0l-.07,3.35h0c-.82.37-1.81-.23-2.52.72l-1.22.8c-1.42-1.23-2.24-.59-1.86,1.42.25,1.32-.46.74-.69,1.05h0l-2.86.63a18.63,18.63,0,0,0-8.06-.41c1.4.91,3,.91,4.18,2.21-.65,2.79,1.37,2.85,2.31,2.87,3.23.08,6,2,8.91,3.2h0c-1,1.33-2.42,1.25-3.59,2s-2.78,1.62-2.56,3.89a3.86,3.86,0,0,0,2.85,3.63A54.12,54.12,0,0,0,23,369.18c13.65,1.55,27.34,2,41,2.32,16.89.37,33.79.32,50.68-.67,5.11-.3,10.24-.24,15.31-.93,4.65-.63,9.36-.8,14-2.11a4.33,4.33,0,0,0,3.42-3.37c.52-2.24-.87-3.24-2.19-4.13a11.91,11.91,0,0,1-1.06-1c1.54-.29,1.6-1.42,1.5-2.67l1.56-.58c1.36-.38,3,.78,4.24-1.24a4.39,4.39,0,0,0-4.46-.63c-1.1-1.6,1.87-4-1.2-5.22l4.21-1.8c.5.06,1.37.34,1.44.16,1.28-3.6,3.16-1.83,5.33-.28-2.85-5.24-3.18-6.18-3.1-8.51A4.42,4.42,0,0,1,158,336.1h0c1.79.47,3.09-.64,4.67-1.92-1.53-.91-2.87.28-3.89-1l.41-.29c2.41-.86,4.32-2.74,6.14-4.85a1.82,1.82,0,0,0-1.65.56c-2,2.74-4.35-.61-6.46.78-.28.19.73-1.54-.08-2.25a9.63,9.63,0,0,0-2.81,4h0l-1.77,1.22c-1.07-.75-.36-1.67-.15-2.54h0c-.07-1.49-1.49-.38-1.75-1.5h0c.92-1.22,1.17-3.14,2.51-3.92h0l2.92-.68h0c2.32.84,4.29,1.06,3.29-3.34-.34-1.52.59-1.66,1.18-2.23h.29l.27-.12h0l1.24.05c1.93.35,3.45.18,2.45-3.17h0l1.14-.91a13.22,13.22,0,0,0,4.24-4C167.64,310.6,165.69,313.43,162.91,312.72Zm-40.63-42.65-.2-.13.19-.25C122.28,269.82,122.29,269.95,122.28,270.07Zm26.52,67.7v0ZM71.95,218.19h0a7,7,0,0,1-.15.7q0-.34.12-.69Zm67.61,137.72h0ZM23.85,361.5c0-.12-.05-.24-.07-.35a1,1,0,0,1,.13.35Zm84.3-119.35.13.18h-.13A1.16,1.16,0,0,1,108.15,242.15Zm6.83,120h-.18l.1-.12.07.11h0ZM68.79,303s0,0,0,0h0Zm22.47-30.4H91l-.25-.21C90.68,272,91.11,272.57,91.26,272.59Zm-8.12,39.26,0,.06,0-.05v-.05Zm10.92-37.07.06-.07a2.21,2.21,0,0,1,.52.06h-.58Zm6.73,4.8h0l-.05-.06.05,0v.09ZM94.57,269c.07-.17.13-.33.18-.49a.86.86,0,0,0,.18.14Zm1.12-7.4-.25-.09h0v0A.75.75,0,0,1,95.69,261.59Zm-4.09,4.63s0,0,0,.07h0l0,0ZM78.55,271a.87.87,0,0,0-.13-.42,5.56,5.56,0,0,1,.55.21Zm6.13-26.15v0h0ZM67.23,342.26l-.08.06s0-.07,0-.1ZM136,311.79h0ZM68.61,358.91l.23.1-.11.15Zm37.91-109.12,0-.07a.66.66,0,0,1,.22.29Zm-10.89-6.51a4.7,4.7,0,0,0,.4.27l-.43,0A2,2,0,0,0,95.63,243.28ZM70.07,358.15l0,0,0,0S70.07,358.18,70.07,358.15ZM65.72,253.62h0Zm70.77,89.69h0l0,.14-.06-.14h0ZM143.05,328l0,0,0,0ZM75.94,256.65h0Zm70.36,63.77.05-.07v.08h-.07ZM46.18,323.74s0-.05,0-.08h0Zm99.5-2.52v0ZM142,294.8v-.15l.11.09Zm-19.48-2h-.44a5.79,5.79,0,0,1,.47-.6C122.56,292.38,122.55,292.58,122.55,292.77Zm-12-54v0h0ZM102,226.67l0,0v0h0ZM78.17,209.75v-.11h.1ZM46.73,307.87l0,0,0,0Zm92.83,48h.05V356ZM18.95,350.53l-.21-.16a.88.88,0,0,1,.33.14Zm129.21-8.09v.11l-.09-.13ZM141,282.86l-.13,0-.14-.33Zm-5.18-23h0Zm-12.21-19.36a1.56,1.56,0,0,1,.22-.16ZM68.78,206.62l-.11-.14h0a1.21,1.21,0,0,1,.37-.26A.67.67,0,0,0,68.78,206.62Zm-2.93,1.84,0,.17-.09-.11Zm-5.79,19.15a5.19,5.19,0,0,1-.26-.51A.84.84,0,0,1,60.06,227.61ZM50.53,274.1l-.07,0s0-.07,0-.11h0Zm103.78,57.06a1.12,1.12,0,0,0,.15.56l-.18.06h0A1.28,1.28,0,0,1,154.31,331.15Z"/><rect class="cls-1" x="-2.41" y="366.97" width="721.93" height="295.17"/></svg>