<?xml version="1.0" encoding="utf-8"?>
<!-- Generator: Adobe Illustrator 19.1.0, SVG Export Plug-In . SVG Version: 6.00 Build 0)  -->
<svg version="1.0" xmlns="http://www.w3.org/2000/svg" xmlns:xlink="http://www.w3.org/1999/xlink" x="0px" y="0px"
	 viewBox="0 0 245.2 152" style="enable-background:new 0 0 245.2 152;" xml:space="preserve">
<style type="text/css">
	.st0{fill:#FFFFFF;stroke:#000000;stroke-miterlimit:10;}
	.st1{fill:url(#SVGID_1_);}
	.st2{fill:url(#SVGID_2_);}
	.st3{fill:url(#SVGID_3_);}
	.st4{fill:#161616;}
	.st5{fill:#A5A5A5;}
	.st6{fill:url(#SVGID_4_);}
	.st7{clip-path:url(#SVGID_6_);}
	.st8{clip-path:url(#SVGID_8_);fill:#FFFFFF;}
	.st9{clip-path:url(#SVGID_10_);fill:#B2B2B2;}
	.st10{clip-path:url(#SVGID_10_);fill:#B1B1B1;}
	.st11{clip-path:url(#SVGID_10_);fill:#B0B0B0;}
	.st12{clip-path:url(#SVGID_10_);fill:#AFAFAF;}
	.st13{clip-path:url(#SVGID_10_);fill:#AEAEAE;}
	.st14{clip-path:url(#SVGID_10_);fill:#ADADAD;}
	.st15{clip-path:url(#SVGID_10_);fill:#ACACAC;}
	.st16{clip-path:url(#SVGID_10_);fill:#ABABAB;}
	.st17{clip-path:url(#SVGID_10_);fill:#AAAAAA;}
	.st18{clip-path:url(#SVGID_10_);fill:#A9A9A9;}
	.st19{clip-path:url(#SVGID_10_);fill:#A8A8A8;}
	.st20{clip-path:url(#SVGID_10_);fill:#A7A7A7;}
	.st21{clip-path:url(#SVGID_10_);fill:#A6A6A6;}
	.st22{fill:#FFFFFF;}
	.st23{clip-path:url(#SVGID_12_);}
	.st24{clip-path:url(#SVGID_14_);fill:#00AEEF;}
	.st25{clip-path:url(#SVGID_14_);fill:#00AEEE;}
	.st26{clip-path:url(#SVGID_14_);fill:#00ADED;}
	.st27{clip-path:url(#SVGID_14_);fill:#00ADEB;}
	.st28{clip-path:url(#SVGID_14_);fill:#00ADEA;}
	.st29{clip-path:url(#SVGID_14_);fill:#00ADE9;}
	.st30{clip-path:url(#SVGID_14_);fill:#00ADE8;}
	.st31{clip-path:url(#SVGID_14_);fill:#00ADE7;}
	.st32{clip-path:url(#SVGID_14_);fill:#00ADE6;}
	.st33{clip-path:url(#SVGID_14_);fill:#00ADE5;}
	.st34{clip-path:url(#SVGID_14_);fill:#00ADE4;}
	.st35{clip-path:url(#SVGID_14_);fill:#00ADE3;}
	.st36{clip-path:url(#SVGID_14_);fill:#00ADE2;}
	.st37{clip-path:url(#SVGID_14_);fill:#00ADE1;}
	.st38{clip-path:url(#SVGID_14_);fill:#00ADE0;}
	.st39{clip-path:url(#SVGID_14_);fill:#00ADDF;}
	.st40{clip-path:url(#SVGID_14_);fill:#00ADDE;}
	.st41{clip-path:url(#SVGID_14_);fill:#00ACDD;}
	.st42{clip-path:url(#SVGID_14_);fill:#00ACDC;}
	.st43{clip-path:url(#SVGID_14_);fill:#00ACDB;}
	.st44{clip-path:url(#SVGID_14_);fill:#00ACDA;}
	.st45{clip-path:url(#SVGID_14_);fill:#00ACD9;}
	.st46{clip-path:url(#SVGID_14_);fill:#00ACD8;}
	.st47{clip-path:url(#SVGID_14_);fill:#00ACD7;}
	.st48{clip-path:url(#SVGID_14_);fill:#00ACD6;}
	.st49{clip-path:url(#SVGID_14_);fill:#00ACD5;}
	.st50{clip-path:url(#SVGID_14_);fill:#00ACD4;}
	.st51{clip-path:url(#SVGID_14_);fill:#00ACD3;}
	.st52{clip-path:url(#SVGID_14_);fill:#00ACD2;}
	.st53{clip-path:url(#SVGID_14_);fill:#00ACD1;}
	.st54{clip-path:url(#SVGID_14_);fill:#00ACD0;}
	.st55{clip-path:url(#SVGID_14_);fill:#00ACCF;}
	.st56{clip-path:url(#SVGID_14_);fill:#00ACCE;}
	.st57{clip-path:url(#SVGID_14_);fill:#00ACCD;}
	.st58{clip-path:url(#SVGID_14_);fill:#00ACCC;}
	.st59{clip-path:url(#SVGID_14_);fill:#00ACCB;}
	.st60{clip-path:url(#SVGID_14_);fill:#00ACCA;}
	.st61{clip-path:url(#SVGID_14_);fill:#00ACC9;}
	.st62{clip-path:url(#SVGID_14_);fill:#00ACC8;}
	.st63{clip-path:url(#SVGID_14_);fill:#00ACC7;}
	.st64{clip-path:url(#SVGID_14_);fill:#00ACC6;}
	.st65{clip-path:url(#SVGID_14_);fill:#00ACC5;}
	.st66{clip-path:url(#SVGID_14_);fill:#00ACC4;}
	.st67{clip-path:url(#SVGID_14_);fill:#00ACC3;}
	.st68{clip-path:url(#SVGID_14_);fill:#00ACC2;}
	.st69{clip-path:url(#SVGID_14_);fill:#00ACC1;}
	.st70{clip-path:url(#SVGID_14_);fill:#00ACC0;}
	.st71{clip-path:url(#SVGID_14_);fill:#00ACBF;}
	.st72{clip-path:url(#SVGID_14_);fill:#00ACBE;}
	.st73{clip-path:url(#SVGID_14_);fill:#00ACBD;}
	.st74{clip-path:url(#SVGID_14_);fill:#00ACBC;}
	.st75{clip-path:url(#SVGID_14_);fill:#00ACBB;}
	.st76{clip-path:url(#SVGID_14_);fill:#00ACBA;}
	.st77{clip-path:url(#SVGID_14_);fill:#00ACB9;}
	.st78{clip-path:url(#SVGID_14_);fill:#00ACB8;}
	.st79{clip-path:url(#SVGID_14_);fill:#00ACB7;}
	.st80{clip-path:url(#SVGID_14_);fill:#00ACB6;}
	.st81{clip-path:url(#SVGID_14_);fill:#00ACB5;}
	.st82{clip-path:url(#SVGID_14_);fill:#00ACB4;}
	.st83{clip-path:url(#SVGID_14_);fill:#00ACB3;}
	.st84{clip-path:url(#SVGID_14_);fill:#00ACB2;}
	.st85{clip-path:url(#SVGID_14_);fill:#00ACB1;}
	.st86{clip-path:url(#SVGID_14_);fill:#00ACB0;}
	.st87{clip-path:url(#SVGID_14_);fill:#00ACAF;}
	.st88{clip-path:url(#SVGID_14_);fill:#00ACAE;}
	.st89{clip-path:url(#SVGID_14_);fill:#00ACAD;}
	.st90{clip-path:url(#SVGID_14_);fill:#00ACAC;}
	.st91{clip-path:url(#SVGID_14_);fill:#00ACAB;}
	.st92{clip-path:url(#SVGID_14_);fill:#00ACAA;}
	.st93{clip-path:url(#SVGID_14_);fill:#00ACA9;}
	.st94{clip-path:url(#SVGID_14_);fill:#00ACA8;}
	.st95{clip-path:url(#SVGID_14_);fill:#00ACA7;}
	.st96{clip-path:url(#SVGID_14_);fill:#00ACA6;}
	.st97{clip-path:url(#SVGID_14_);fill:#00ACA5;}
	.st98{clip-path:url(#SVGID_14_);fill:#00ACA4;}
	.st99{clip-path:url(#SVGID_14_);fill:#00ACA3;}
	.st100{clip-path:url(#SVGID_14_);fill:#00ACA2;}
	.st101{clip-path:url(#SVGID_14_);fill:#00ACA1;}
	.st102{clip-path:url(#SVGID_14_);fill:#00ACA0;}
	.st103{clip-path:url(#SVGID_14_);fill:#00AC9F;}
	.st104{clip-path:url(#SVGID_14_);fill:#00AC9E;}
	.st105{clip-path:url(#SVGID_14_);fill:#00AC9D;}
	.st106{clip-path:url(#SVGID_14_);fill:#00AC9C;}
	.st107{clip-path:url(#SVGID_14_);fill:#00AC9B;}
	.st108{clip-path:url(#SVGID_14_);fill:#00AC9A;}
	.st109{clip-path:url(#SVGID_14_);fill:#00AC99;}
	.st110{clip-path:url(#SVGID_14_);fill:#00AC98;}
	.st111{clip-path:url(#SVGID_14_);fill:#00AC97;}
	.st112{clip-path:url(#SVGID_14_);fill:#00AC96;}
	.st113{clip-path:url(#SVGID_14_);fill:#00AC95;}
	.st114{clip-path:url(#SVGID_14_);fill:#00AC94;}
	.st115{clip-path:url(#SVGID_14_);fill:#00AC93;}
	.st116{clip-path:url(#SVGID_14_);fill:#00AC92;}
	.st117{clip-path:url(#SVGID_14_);fill:#00AC91;}
	.st118{clip-path:url(#SVGID_14_);fill:#00AC90;}
	.st119{clip-path:url(#SVGID_14_);fill:#00AC8F;}
	.st120{clip-path:url(#SVGID_14_);fill:#00AC8E;}
	.st121{clip-path:url(#SVGID_14_);fill:#02AC8E;}
	.st122{clip-path:url(#SVGID_14_);fill:#07AC8D;}
	.st123{clip-path:url(#SVGID_14_);fill:#0BAC8D;}
	.st124{clip-path:url(#SVGID_14_);fill:#0FAC8C;}
	.st125{clip-path:url(#SVGID_14_);fill:#12AC8B;}
	.st126{clip-path:url(#SVGID_14_);fill:#15AC8B;}
	.st127{clip-path:url(#SVGID_14_);fill:#18AC8A;}
	.st128{clip-path:url(#SVGID_14_);fill:#1AAC89;}
	.st129{clip-path:url(#SVGID_14_);fill:#1CAC89;}
	.st130{clip-path:url(#SVGID_14_);fill:#1EAC88;}
	.st131{clip-path:url(#SVGID_14_);fill:#20AC88;}
	.st132{clip-path:url(#SVGID_14_);fill:#22AC87;}
	.st133{clip-path:url(#SVGID_14_);fill:#24AC86;}
	.st134{clip-path:url(#SVGID_14_);fill:#25AC86;}
	.st135{clip-path:url(#SVGID_14_);fill:#27AC85;}
	.st136{clip-path:url(#SVGID_14_);fill:#29AC84;}
	.st137{clip-path:url(#SVGID_14_);fill:#2AAC84;}
	.st138{clip-path:url(#SVGID_14_);fill:#2CAC83;}
	.st139{clip-path:url(#SVGID_14_);fill:#2DAC82;}
	.st140{clip-path:url(#SVGID_14_);fill:#2EAC82;}
	.st141{clip-path:url(#SVGID_14_);fill:#30AC81;}
	.st142{clip-path:url(#SVGID_14_);fill:#31AC81;}
	.st143{clip-path:url(#SVGID_14_);fill:#32AC80;}
	.st144{clip-path:url(#SVGID_14_);fill:#33AC7F;}
	.st145{clip-path:url(#SVGID_14_);fill:#35AC7F;}
	.st146{clip-path:url(#SVGID_14_);fill:#36AC7E;}
	.st147{clip-path:url(#SVGID_14_);fill:#37AC7D;}
	.st148{clip-path:url(#SVGID_14_);fill:#38AC7D;}
	.st149{clip-path:url(#SVGID_14_);fill:#39AC7C;}
	.st150{clip-path:url(#SVGID_14_);fill:#3AAC7B;}
	.st151{clip-path:url(#SVGID_14_);fill:#3BAC7B;}
	.st152{clip-path:url(#SVGID_14_);fill:#3CAC7A;}
	.st153{clip-path:url(#SVGID_14_);fill:#3DAC79;}
	.st154{clip-path:url(#SVGID_14_);fill:#3EAD78;}
	.st155{clip-path:url(#SVGID_14_);fill:#3FAD78;}
	.st156{clip-path:url(#SVGID_14_);fill:#40AD77;}
	.st157{clip-path:url(#SVGID_14_);fill:#41AD76;}
	.st158{clip-path:url(#SVGID_14_);fill:#42AD76;}
	.st159{clip-path:url(#SVGID_14_);fill:#43AD75;}
	.st160{clip-path:url(#SVGID_14_);fill:#44AD74;}
	.st161{clip-path:url(#SVGID_14_);fill:#45AD73;}
	.st162{clip-path:url(#SVGID_14_);fill:#46AD73;}
	.st163{clip-path:url(#SVGID_14_);fill:#46AD72;}
	.st164{clip-path:url(#SVGID_14_);fill:#47AD71;}
	.st165{clip-path:url(#SVGID_14_);fill:#48AD70;}
	.st166{clip-path:url(#SVGID_14_);fill:#49AD70;}
	.st167{clip-path:url(#SVGID_14_);fill:#4AAD6F;}
	.st168{clip-path:url(#SVGID_14_);fill:#4BAD6E;}
	.st169{clip-path:url(#SVGID_14_);fill:#4CAD6E;}
	.st170{clip-path:url(#SVGID_14_);fill:#4CAD6D;}
	.st171{clip-path:url(#SVGID_14_);fill:#4DAD6C;}
	.st172{clip-path:url(#SVGID_14_);fill:#4EAD6B;}
	.st173{clip-path:url(#SVGID_14_);fill:#4FAD6B;}
	.st174{clip-path:url(#SVGID_14_);fill:#4FAD6A;}
	.st175{clip-path:url(#SVGID_14_);fill:#50AD69;}
	.st176{clip-path:url(#SVGID_14_);fill:#51AD68;}
	.st177{clip-path:url(#SVGID_14_);fill:#52AD68;}
	.st178{clip-path:url(#SVGID_14_);fill:#52AD67;}
	.st179{clip-path:url(#SVGID_14_);fill:#53AD66;}
	.st180{clip-path:url(#SVGID_14_);fill:#54AD65;}
	.st181{clip-path:url(#SVGID_14_);fill:#55AD64;}
	.st182{clip-path:url(#SVGID_14_);fill:#56AD63;}
	.st183{clip-path:url(#SVGID_14_);fill:#56AD62;}
	.st184{clip-path:url(#SVGID_14_);fill:#57AD62;}
	.st185{clip-path:url(#SVGID_14_);fill:#58AD61;}
	.st186{clip-path:url(#SVGID_14_);fill:#58AD60;}
	.st187{clip-path:url(#SVGID_14_);fill:#59AD5F;}
	.st188{clip-path:url(#SVGID_14_);fill:#5AAD5F;}
	.st189{clip-path:url(#SVGID_14_);fill:#5AAD5E;}
	.st190{clip-path:url(#SVGID_14_);fill:#5BAD5D;}
	.st191{clip-path:url(#SVGID_14_);fill:#5BAD5C;}
	.st192{clip-path:url(#SVGID_14_);fill:#5CAD5C;}
	.st193{clip-path:url(#SVGID_14_);fill:#5DAD5B;}
	.st194{clip-path:url(#SVGID_14_);fill:#5DAD5A;}
	.st195{clip-path:url(#SVGID_14_);fill:#5EAD5A;}
	.st196{clip-path:url(#SVGID_14_);fill:#5FAD59;}
	.st197{clip-path:url(#SVGID_14_);fill:#5FAD58;}
	.st198{clip-path:url(#SVGID_14_);fill:#60AD57;}
	.st199{fill:#4C4C4D;}
	.st200{clip-path:url(#SVGID_16_);fill:#00ACCB;}
	.st201{clip-path:url(#SVGID_16_);fill:#FFFFFF;}
	.st202{clip-path:url(#SVGID_16_);fill:url(#SVGID_17_);}
	.st203{clip-path:url(#SVGID_16_);fill:url(#SVGID_18_);}
	.st204{clip-path:url(#SVGID_16_);fill:#0792A0;}
	.st205{clip-path:url(#SVGID_16_);}
	.st206{fill:#00ACCB;}
	.st207{opacity:8.000000e-02;fill:none;stroke:#BABABA;stroke-width:8;stroke-miterlimit:10;}
	.st208{clip-path:url(#SVGID_20_);fill:#00ACCB;}
	.st209{clip-path:url(#SVGID_20_);}
	.st210{opacity:0.3;clip-path:url(#SVGID_20_);}
	.st211{fill:none;stroke:#FDFDFE;stroke-width:8;stroke-miterlimit:10;}
	.st212{clip-path:url(#SVGID_22_);}
	.st213{fill:#60AD57;}
	.st214{clip-path:url(#SVGID_24_);fill:#00ACCB;}
	.st215{opacity:0.3;clip-path:url(#SVGID_24_);}
</style>
<g id="Layer_1">
</g>
<g id="Layer_4">
</g>
<g id="images">
</g>
<g id="Layer_7">
</g>
<g id="Layer_6">
</g>
<g id="Layer_5">
</g>
<g id="FAQ">
</g>
<g id="Logo_-_first_page">
</g>
<g id="weird_interconnect_thing">
</g>
<g id="Layer_10">
</g>
<g id="Layer_11">
	<g>
		<g>
			<path class="st213" d="M64.3,20.6c-2.6,1.2-3.6,3.4-3.9,6.1c-0.1,0.8,0.2,1.6,0.4,2.4c0.5,2.2,1.9,3.8,3.8,4.8
				c0.4,0.2,0.9,0.1,1.4,0.2c1.6,0.4,3.2,0.8,4.8,1.2c1.2,0.3,2.4,0.5,3.6,0.8c0.8,0.2,1.5,1.1,1.4,1.6c-0.3,1-1.2,1.7-2.2,1.4
				c-0.9-0.2-1.8-0.5-2.7-0.7c-0.8-0.2-1.6-0.4-2.4-0.6c-0.6-0.1-1.2-0.2-1.8-0.3c-0.4-0.1-0.8-0.1-1.2-0.2
				c-0.6-0.1-1.3-0.2-1.9-0.4c-1.6-0.6-2.7-1.9-3.9-3.1c-1.5-1.5-1.9-3.4-2.3-5.3c-0.3-1.4-0.1-2.9,0.3-4.3c0.4-1.6,1.1-3,2.2-4.1
				c1.7-1.9,3.8-3.1,6.5-3c0.6,0,1.1,0,1.7,0c1.2,0,2.5-0.1,3.7,0.1c1.4,0.3,2.5-0.2,3.8-0.4c1.1-0.2,2.2-0.5,3.2-0.5
				c2.5,0,5,0.2,7.4,0.2c1.6,0,3.1-0.2,4.7-0.2c1.1,0,1.6,0.7,1.6,1.7c0,0.6-0.3,1.2-0.5,1.8c-0.6,1.9-1.4,3.8-2,5.7
				c-0.2,0.8-0.8,1.5-0.3,2.5c0.1,0.2,0,1.4-0.9,1.5c-0.5,0.1-0.7,0.4-0.5,0.8c0.1,0.2,0.5,0.5,0.7,0.5c1.1,0.1,2.1,0,3.2,0
				c20.7,0,41.3,0,62,0c0.6,0,1.3,0,1.9-0.1c0.3,0,0.6-0.4,0.7-0.6c0.4-0.9,0.7-1.9,1.1-2.8c0.5-1.3,1-2.7,1.4-4
				c0.5-1.4,1-2.9,1.6-4.3c0.2-0.4,0.3-0.9-0.3-1c-1-0.3-2-0.7-3.1-0.9c-1.6-0.2-3.2-0.3-4.8-0.3c-0.8,0-1.7,0.2-2.5,0.3
				c-0.5,0.1-1,0.1-1.4,0.3c-1.7,0.6-2.9,0.1-3.7-1.6c-0.1-0.1-0.2-0.3-0.4-0.3c-1.5-0.6-1.6-1-0.4-2.1c0.2-0.2,0.4-0.3,0.7-0.5
				c1.7-0.9,3.5-1.2,5.3-1.2c1.9,0,3.8,0.3,5.7,0.4c3.2,0.2,6.3,0.3,9.5,0.4c2.1,0,4.3-0.2,6.4-0.3c1.4-0.1,2.8-0.3,4.2-0.5
				c0.1,0,0.3-0.1,0.4-0.2c1.1-0.3,1.9,0.2,2.7,0.8c0.8,0.6,0.3,1.2,0,1.7c-1.2,2.6-3.2,4.3-6,4.9c-0.7,0.2-1.5,0.3-1.8,1.1
				c-0.4,0.9-1.8,1.6-2.8,1.3c-1.2-0.4-2.4-1-3.6-1.4c-0.4-0.2-0.9-0.1-1.5-0.2c0.1,0.4,0.2,0.5,0.2,0.7c-0.2,0.8-0.5,1.5-0.8,2.3
				c-0.9,2.6-1.9,5.1-2.8,7.7c-0.2,0.4-0.2,0.8,0.5,1.1c1,0.4,1,1.5,0.3,2.2c-0.2,0.2-0.6,0.3-0.9,0.4c3.9,7.8,7.9,15.6,11.8,23.4
				c1.2-0.5,2.1-1,3.1-1.3c2-0.7,4.1-1.4,6.1-2c0.7-0.2,1.4-0.3,2.1-0.4c1.6-0.3,3.2-0.7,4.8-0.7c3.5-0.2,7-0.1,10.4,0.4
				c0.2,0,0.4,0.1,0.6,0.1c1.4,0.4,2.8,0.7,4.2,1.1c1.1,0.3,2.2,0.6,3.3,1c1.7,0.7,3.4,1.4,5,2.3c1.9,1,3.7,2.2,5.4,3.5
				c1.4,1,2.7,2.3,4,3.4c2.2,2,4.1,4.4,5.7,6.9c1.5,2.2,2.8,4.5,3.7,7.1c0.7,2.1,1.4,4.1,2.1,6.2c0.2,0.6,0.3,1.3,0.4,2
				c0.3,1.6,0.6,3.2,0.7,4.9c0.1,2.2,0,4.3,0,6.5c0,0.6,0,1.2-0.1,1.8c-0.2,1.2-0.4,2.3-0.7,3.4c-0.4,1.8-0.7,3.6-1.4,5.3
				c-0.8,2.1-1.8,4.2-2.8,6.3c-1.3,2.7-3,5.1-5,7.4c-2,2.2-4.1,4.3-6.5,6.2c-2.8,2.2-5.8,3.9-9,5.3c-1.2,0.6-2.5,0.9-3.7,1.3
				c-1.8,0.6-3.6,1.2-5.5,1.5c-1.9,0.3-3.8,0.5-5.7,0.5c-3,0.1-6,0.1-9-0.5c-0.8-0.1-1.6-0.2-2.4-0.5c-1.2-0.3-2.4-0.7-3.6-1.2
				c-1.9-0.7-3.9-1.3-5.6-2.2c-2.1-1.1-4.2-2.4-6.1-3.8c-2.2-1.6-4.2-3.4-6.1-5.4c-1.4-1.4-2.6-3-3.7-4.6c-1.5-2.2-2.8-4.4-3.8-6.8
				c-0.2-0.5-0.5-0.7-1-0.5c-1.1,0.3-2.1,0.6-3.2,0.9c-2.5,0.6-5,1.1-7.5,1.8c-0.8,0.2-1.6,0.6-2.4,0.9c-0.2,0-0.5,0-0.9,0.1
				c-0.7,0.2-1.3,0.5-2,0.5c-1.1,0-2.2-0.3-3.3-0.3c-1.5,0-2.7-0.8-4-1.5c-1.9-1.1-3.1-2.9-4.1-4.9c-0.2-0.4-0.7-1-0.9-0.9
				c-0.7,0.1-1.7-0.1-2.2,0.8c-0.2,0.4-0.6,0.9-1,0.9c-0.9,0.1-1.7,0-2.6,0c-0.4,0-0.7-0.1-1.1-0.1c-0.7,0-1.4,0.3-2.1,0.2
				c-1.2-0.3-2.3,0-3.4-0.1c-1.2-0.1-1.7-0.2-1.7-1.5c0-0.5,0-0.9,0-1.4c0-0.7,0.4-1.1,1.1-1.1c1.6-0.1,3.2,0.2,4.8-0.1
				c0.3-0.1,0.7,0.1,1.1,0.1c0.3,0,0.6,0.1,0.9,0c1.8-0.3,3.6-0.6,5.4-0.9c0.3-0.1,0.6-0.3,0.8-0.3c0.2-1.3,0.3-2.5,0.5-3.6
				c0.1-0.4,0.2-0.9,0.3-1.3c0-0.2,0.2-0.3,0.3-0.5c0.1-0.2,0.3-0.4,0.4-0.6c0.4-0.6,0.6-1.4,1.1-1.9c0.7-0.8,0.8-1.1,0-1.9
				c-3-3.2-6-6.4-9-9.7c-3.4-3.7-6.7-7.4-10.1-11c-2.7-2.9-5.4-5.7-8.1-8.6c-2.3-2.5-4.6-5.1-7-7.7c-1.6-1.8-3.2-3.6-4.8-5.3
				c-1.3-1.4-2.7-2.8-4.1-4.1c-0.1-0.1-0.4-0.1-0.6-0.2c-0.1,0.2-0.2,0.5-0.2,0.7c0.4,1.1,0.2,1.5-0.5,2.3c-0.4,0.4-0.7,0.9-0.9,1.4
				c-0.3,0.6-0.4,1.2-0.6,1.8c-0.3,0.9-0.1,1.4,0.5,1.8c2.1,1.4,4.4,2.8,6.3,4.4c2,1.7,3.8,3.7,5.5,5.7c1.1,1.3,2.1,2.8,3,4.2
				c1,1.7,1.9,3.4,2.8,5.2c0.7,1.5,1.3,3.1,1.8,4.7c0.4,1.4,0.7,2.8,0.9,4.2c0.3,1.7,0.6,3.4,0.7,5.1c0.1,1.9,0,3.9,0,5.8
				c0,0.6,0,1.1-0.1,1.7c-0.4,1.9-0.7,3.8-1.2,5.6c-0.5,2-1,4.1-1.9,6c-1.2,2.6-2.5,5.1-4,7.5c-1.2,1.8-2.6,3.5-4.1,5.1
				c-3.5,3.7-7.4,6.8-12,9c-1.7,0.8-3.4,1.6-5.2,2.2c-1.7,0.6-3.5,1-5.2,1.3c-1.8,0.3-3.6,0.7-5.4,0.8c-3.1,0-6.3,0.4-9.4-0.3
				c-1.1-0.3-2.3-0.3-3.5-0.6c-1.8-0.5-3.6-1-5.3-1.7c-3.1-1.2-6-2.7-8.8-4.6c-3.3-2.3-6.4-5-8.8-8.2c-1.4-1.8-2.7-3.6-3.9-5.6
				c-1.2-2.1-2.2-4.2-3-6.4c-0.8-2-1.4-4-1.9-6.1c-0.4-1.8-0.7-3.6-0.8-5.4c-0.3-3.2,0-6.5,0.3-9.7c0-0.1,0-0.1,0-0.2
				c0.4-1.6,0.7-3.2,1.2-4.8c0.6-1.9,1.1-3.8,1.9-5.6c0.9-2,2-3.9,3.1-5.8c1.5-2.7,3.5-5.1,5.8-7.3c1.6-1.6,3.4-3.1,5.2-4.4
				c1.5-1.2,3.2-2.1,4.9-3.1c1.5-0.8,3.2-1.5,4.8-2.1c1-0.4,2-0.9,3.1-1.2c1.3-0.4,2.7-0.7,4.1-0.9c1.5-0.3,3.1-0.6,4.6-0.7
				c2.1-0.1,4.3-0.1,6.4,0c1.4,0.1,2.7,0.3,4.1,0.5c1,0.2,1.9,0.5,2.9,0.7c1.3,0.3,2.5,0.7,3.8,1.1c1.2,0.4,2.4,0.9,3.6,1.4
				c0.3-0.8,0.6-1.6,0.9-2.4c0.2-0.5,0.4-1.1,0.3-1.6c-0.1-0.8,0.2-1.3,0.6-2c0.3-0.6,0.7-1.1,0.9-1.7c0.5-1.4,0.9-2.8,1.3-4.2
				c0.3-1,0.8-2,1.1-3.1c0.6-1.9,1.2-3.8,1.8-5.7c0.5-1.4,1-2.8,1.5-4.2c0.1-0.5,0.3-1,0-1.6c-0.2-0.6-0.1-1.3,0.6-1.7
				c0.3-0.2,0.6-0.4,0.7-0.7c0.5-1.3,1-2.7,1.5-4c0.3-0.7,0.5-1.4,0.8-2.1c-0.6,0-1.1,0.1-1.6,0.1c-2.8,0-5.5,0-8.3,0
				c-0.8,0-1.5,0.2-2,0.7c-1.2,1.1-2.6,1.7-4.3,1.5c-0.9-0.1-1.8-0.1-2.7,0c-0.7,0.1-1.5,0.1-2,0.5c-1.7,1.4-2.6,3.3-2.2,5.6
				c0.4,2.1,1.9,3.7,4,4.1c2,0.4,4,0.8,6.1,1.2c0.9,0.2,1.3,0.7,1.2,1.5c-0.1,0.7-0.8,1.2-1.6,1.1c-1-0.2-2-0.5-3-0.7
				c-0.9-0.2-1.8-0.5-2.6-0.5c-1.8-0.1-3.3-0.9-4.5-2.1c-2.6-2.6-3.1-6-1.4-9.2c0.5-1,1.2-1.8,2-2.9C65.2,20.5,64.7,20.5,64.3,20.6z
				 M154.6,34.3c-22.1,0-44.3,0-66.4,0c-0.9,0-1.3,0.2-1.6,1.2c-0.5,1.9-1.3,3.8-2,5.6c-0.3,0.9-0.7,1.8-0.9,2.7
				c-0.1,0.4,0.1,1,0.3,1.3c2,2.3,4.1,4.5,6.2,6.8c2.3,2.5,4.5,5,6.8,7.5c2.3,2.5,4.6,4.9,6.9,7.4c2.6,2.8,5.1,5.6,7.6,8.3
				c2.5,2.7,5,5.4,7.5,8.1c2.3,2.5,4.5,5,6.8,7.5c1,1.1,2,2.2,3.1,3.2c0.1,0.1,0.5,0.2,0.7,0.1c1.2-0.4,2.3-1.3,3.8-1.2
				c1,0.1,2.1-0.2,3.2-0.3c0.2,0,0.4-0.2,0.5-0.3c0.6-1.8,1.1-3.6,1.7-5.5c0.6-2,1.3-3.9,2-5.9c0.5-1.4,0.9-2.9,1.3-4.3
				c0.4-1.1,0.8-2.3,1.1-3.4c0.5-1.4,0.9-2.9,1.3-4.3c0.4-1.2,0.8-2.3,1.2-3.5c0.3-1.1,0.6-2.1,1-3.2c0.3-0.9,0.7-1.9,1-2.8
				c0.4-1.3,0.7-2.5,1.1-3.8c0.4-1.4,0.9-2.8,1.4-4.2c0.4-1.1,0.7-2.2,1.1-3.3c0.4-1.1,0.8-2.3,1.2-3.4c0.5-1.4,0.9-2.9,1.3-4.3
				c0.4-1.2,0.8-2.4,1.2-3.6c0.2-0.7,0.4-1.5,0.6-2.4C155.2,34.3,154.9,34.3,154.6,34.3z M158.5,36.2c-0.4,1.3-0.7,2.3-1,3.3
				c-0.4,1.2-0.8,2.3-1.2,3.5c-0.3,1-0.6,2-0.9,3c-0.5,1.6-1,3.2-1.5,4.8c-0.4,1.4-0.9,2.8-1.3,4.2c-0.4,1.2-0.8,2.3-1.1,3.5
				c-0.5,1.5-0.9,2.9-1.4,4.4c-0.4,1.1-0.8,2.2-1.1,3.3c-0.5,1.4-0.9,2.8-1.3,4.2c-0.4,1.2-0.8,2.4-1.2,3.6
				c-0.4,1.4-0.8,2.8-1.3,4.1c-0.4,1.2-0.8,2.4-1.2,3.6c-0.4,1.4-0.8,2.8-1.3,4.2c-0.5,1.6-1.1,3.2-1.5,4.7c-0.1,0.4-0.2,0.9,0,1.2
				c0.1,0.2,0.7,0.2,1,0.2c1.2-0.1,2.4-0.2,3.6-0.3c0.8,0,1.7-0.1,2.5,0c0.9,0.1,1.2-0.4,1.3-1.1c0.2-1.3,0.3-2.6,0.4-3.9
				c0.1-0.8,0.3-1.5,0.5-2.2c0.3-1.2,0.6-2.4,1.1-3.6c1.1-2.5,2.2-5,3.5-7.5c0.9-1.6,1.9-3.2,3.1-4.6c2-2.6,4.2-5,6.9-7
				c1.4-1,2.8-2,4.1-3c0.2-0.2,0.5-0.4,0.7-0.6C166,51.2,162.3,43.8,158.5,36.2z M192.5,86.1c0.5-0.7,0.7-1.5,0.7-2.4
				c-0.1-2.2-0.1-4.5-0.2-6.7c-0.1-3.6-0.3-7.2-0.4-10.8c-0.1-2.2-0.2-4.4-0.3-6.6c-0.1-1.1-0.1-1.2-1.2-1.1c-1.5,0.1-3,0.2-4.4,0.4
				c-0.2,0-0.5,0.4-0.5,0.6c0,1.5-0.1,3,0,4.5c0.1,4.1,0.3,8.2,0.5,12.3c0.1,2.4,0.2,4.7,0.3,7.1c0,0.2,0.1,0.4,0.2,0.5
				c1.1,1.4,2.1,2.9,3.2,4.3c0.1,0.1,0.3,0.2,0.5,0.4C191.4,87.7,191.9,86.9,192.5,86.1z M60.7,83.8c0.3-0.5,0.5-1.2,0.5-1.8
				c0-2.8-0.1-5.7-0.1-8.5c-0.1-3.5-0.2-7.1-0.4-10.6c-0.1-1.9-0.2-3.8-0.3-5.7c0-0.6-0.3-0.9-1-0.9c-1.6,0.1-3.1,0.2-4.7,0.4
				c-0.2,0-0.5,0.4-0.5,0.6c0,2.2,0,4.4,0,6.7c0.1,2.3,0.2,4.6,0.3,6.9c0.2,3.5,0.3,7,0.5,10.5c0,0.2,0,0.4,0.1,0.6
				c1.1,1.4,2.2,2.9,3.3,4.3c0.1,0.1,0.2,0.2,0.4,0.3C59.6,85.6,60.2,84.7,60.7,83.8z M202.4,98.6c0.2,0.1,0.6,0.1,0.9,0.1
				c3,0,6-0.1,9-0.1c4.5-0.1,9.1-0.2,13.6-0.3c0.6,0,1.2-0.2,1.8-0.4c0.2-0.1,0.3-0.5,0.3-0.7c0-1.4,0-2.7,0-4.1
				c0-0.7-0.2-0.9-0.9-0.9c-3.2,0-6.4,0-9.6,0c-2.7,0-5.4,0.1-8.1,0.1c-1.7,0-3.3,0.2-5,0.2c-1.1,0-2,0.6-2.8,1.2
				c-1,0.8-2,1.5-3.2,2.3C199.9,96.9,201.1,97.8,202.4,98.6z M68.4,95.2c1.2,1,2.5,1.5,4.2,1.4c3.2-0.1,6.5,0,9.7-0.1
				c4-0.1,8-0.2,11.9-0.3c0.5,0,1.1-0.2,1.6-0.4c0.2-0.1,0.3-0.4,0.3-0.7c0-1.4,0-2.9,0-4.3c0-0.5-0.3-0.7-0.8-0.7
				c-1.4,0-2.8,0-4.1,0c-3.5,0-7,0-10.5,0.1c-3,0.1-6,0.2-8.9,0.3c-0.3,0-0.6,0.2-0.9,0.4c-1.4,1-2.8,2-4.3,3.1
				C67.3,94.4,67.8,94.8,68.4,95.2z M210.4,71.6c-0.7,0.6-1.4,1.3-2,2c-3.1,3.2-6.2,6.4-9.3,9.7c-0.9,1-1.8,1.9-2.5,3.1
				c-0.7,1.1-1.1,2.5-0.9,3.8c2.9,0.2,5.7-1,8-2.7c2.3-1.7,4.2-4,6.1-6.1c2.7-3,5.5-5.8,8.2-8.7c0.4-0.4,0.8-1,0.7-1.5
				c-0.1-0.3-0.3-0.5-0.5-0.7c-0.7-0.7-1.4-1.4-2.2-2.1c-0.3-0.3-0.7-0.7-1.2-0.6c-0.3,0-0.6,0.3-0.8,0.5c-0.6,0.5-1.2,1.1-1.8,1.6
				c-0.5,0.5-1.1,0.7-1.1,1.4 M64.2,99.5c0.4,1.8,0.8,3.6,1.2,5.5c0.1,0.3,0.3,0.5,0.6,0.7c3.3,3.2,6.6,6.3,9.9,9.5
				c1.8,1.7,3.6,3.4,5.4,5c0.4,0.4,0.9,0.6,1.4,0.9c0.1,0.1,0.4,0.1,0.5,0c1.3-1.2,2.6-2.4,3.9-3.7c-2.9-2.9-5.7-5.7-8.5-8.5
				c-3-2.9-6.1-5.8-9.1-8.7c-0.8-0.7-1.7-0.6-2.6-0.8C66,99,65.2,99,64.3,98.9C64.3,99.1,64.2,99.3,64.2,99.5z M196.2,101.9
				c0.2,1.2,0.6,2.3,0.7,3.5c0.2,1.4,1.1,2.3,2.1,3.2c2.5,2.5,5.1,5,7.6,7.4c2.1,2,4.2,4,6.4,6c0.4,0.4,0.9,0.7,1.5,1.1
				c0.2,0.1,0.5,0.1,0.7,0c1.3-1.2,2.5-2.4,3.9-3.7c-1.4-1.4-2.7-2.7-3.9-3.9c-1.8-1.8-3.6-3.6-5.4-5.3c-2.8-2.7-5.6-5.4-8.5-8.1
				c-0.4-0.4-1.1-0.6-1.7-0.7c-1-0.2-2.1-0.3-3.3-0.4C196.1,101.3,196.1,101.6,196.2,101.9z M162.2,72.8c-0.3,0.4-0.3,0.6,0.2,1
				c1,0.8,1.9,1.8,2.8,2.7c0.6,0.6,1.3,1.2,1.9,1.9c0.7,0.6,1.3,1.3,2,1.9c0.7,0.6,1.4,1.2,2.1,1.8c2.5,2.3,5,4.6,7.5,6.9
				c0.3,0.3,0.8,0.5,1.3,0.5c1.5,0.3,3,0.4,4.7,0.7c-0.1-0.8-0.2-1.6-0.4-2.4c-0.6-2.4-2.1-4.1-3.9-5.7c-2.9-2.6-5.7-5.3-8.6-8
				c-1.4-1.3-2.8-2.7-4.3-4c-0.5-0.4-1.1-0.8-1.8-1.3C164.5,70.1,163.3,71.4,162.2,72.8z M52.3,85.5c-0.1-0.3-0.2-0.5-0.2-0.8
				c0-0.9-0.4-1.5-1-2.1c-2.2-2.1-4.5-4.2-6.7-6.3c-2.7-2.5-5.4-5-8.1-7.6c-0.6-0.6-1.3-1.1-2-1.6c-0.2-0.1-0.7-0.1-0.8,0.1
				c-1.1,1.2-2.1,2.4-3.1,3.5c-0.4,0.4-0.2,0.7,0.1,1c3,2.8,5.9,5.5,8.8,8.3c1.4,1.3,2.8,2.7,4.3,4c1.1,1,2.3,2.1,3.4,3.1
				c0.1,0.1,0.2,0.2,0.4,0.2c1.2,0.2,2.3,0.3,3.5,0.5c0.6,0.1,1.2,0.2,1.9,0.3C52.6,87.2,52.5,86.3,52.3,85.5z M46.7,91.6
				c-1-0.7-1.9-0.8-3-0.8c-4.5,0.2-9,0.3-13.5,0.5c-1.9,0.1-3.9,0.2-5.8,0.3c-1.2,0.1-1.4,0.3-1.4,1.4c0,1.2,0,2.4,0,3.7
				c0,0.8,0.2,1.1,1,1.1c3-0.1,6-0.2,9-0.3c2.7-0.1,5.4-0.1,8.1-0.2c2-0.1,4.1-0.2,6.1-0.3c0.2,0,0.4,0,0.5-0.1c1-0.8,2-1.6,3.2-2.5
				C49.4,93.4,48,92.6,46.7,91.6z M189.5,106.9c-0.5,0.8-1,1.7-1.5,2.5c-0.4,0.6-0.6,1.2-0.6,1.9c0,1.4,0,2.8,0.1,4.2
				c0.1,4.7,0.2,9.3,0.4,14c0,0.7,0.3,1.4,0.5,2.1c0,0.1,0.3,0.3,0.4,0.3c1.5,0.1,3,0.1,4.5,0.1c0.6,0,0.7-0.4,0.7-0.9
				c0-3.1,0-6.3,0-9.4c0-2.2,0-4.4-0.1-6.6c-0.1-2.4-0.2-4.7-0.3-7.1c0-0.2,0-0.4-0.1-0.6c-0.7-1-1.4-1.9-2.2-3.1
				C190.5,105.3,190,106.1,189.5,106.9z M52.2,99.7c-0.9,0.3-1.8,0.4-2.6,0.7c-0.5,0.2-1,0.4-1.3,0.7c-1.1,1.1-2.1,2.2-3.1,3.3
				c-2.4,2.7-4.9,5.3-7.3,8c-1.1,1.2-2.2,2.3-3.4,3.5c-0.5,0.6-1,1.1-1.5,1.8c-0.1,0.2-0.1,0.7,0,0.8c1.1,1.1,2.3,2.2,3.5,3.2
				c0.2,0.1,0.7,0.1,0.8,0c0.9-0.8,1.8-1.6,2.7-2.5c1.5-1.5,2.9-3.1,4.3-4.7c2.5-2.8,5-5.5,7.6-8.3c0.1-0.1,0.2-0.3,0.2-0.5
				c0.2-1.1,0.3-2.2,0.4-3.4c0.1-0.7,0.3-1.5,0.4-2.1C52.9,99.6,52.6,99.5,52.2,99.7z M57.7,104.7c-0.6,0.9-1.1,1.9-1.7,2.8
				c-0.5,0.7-0.6,1.4-0.5,2.2c0.1,0.7,0.1,1.4,0.1,2.2c0.1,5.2,0.2,10.3,0.4,15.5c0,0.7,0.2,1.4,0.4,2c0.1,0.2,0.4,0.4,0.6,0.4
				c1.5,0,3,0,4.6,0c0.5,0,0.6-0.3,0.6-0.7c0-1.6,0-3.1,0-4.7c0-2,0-3.9,0-5.9c0-2.3-0.1-4.7-0.1-7c0-1.6-0.1-3.3-0.2-4.9
				c0-0.9-0.4-1.6-0.9-2.3c-0.5-0.6-0.9-1.2-1.5-2C58.7,103.3,58.2,104,57.7,104.7z M172.5,120.4c1.1-1.1,2.1-2.2,3.2-3.4
				c2-2.2,4-4.4,5.9-6.5c0.3-0.4,0.7-0.7,1-1.1c1.7-1.5,1.5-3.6,1.8-5.6c0.1-0.6-0.3-0.7-0.8-0.6c-1.6,0.4-3.1,0.8-4.7,1.3
				c-0.2,0.1-0.4,0.2-0.5,0.4c-2.3,2.4-4.5,4.8-6.7,7.2c-2,2.2-4,4.3-6,6.5c-0.4,0.4-0.7,1-1.1,1.5c1.4,1.3,2.8,2.6,4.3,4
				C170.1,122.9,171.3,121.7,172.5,120.4z M79.6,68.2C77.8,70.1,76,72,74.2,74c-0.8,1-1.4,2.1-2.1,3.2c-0.9,1.5-1.7,3.1-2.6,4.7
				c-1.3,2-2.6,4-4,6c0.1,0,0.4,0.1,0.5,0c1.3-0.3,2.6-0.5,3.9-0.8c0.3-0.1,0.5-0.3,0.7-0.5c2.2-2.2,4.3-4.4,6.4-6.6
				c2.9-3,5.7-6,8.5-9c0.4-0.4,0.8-0.9,1.1-1.4c0.1-0.2,0-0.6-0.1-0.8c-1.1-1.3-2.2-2.5-3.5-3.9C81.8,66.1,80.7,67.1,79.6,68.2z
				 M162.5,98.3c1-0.1,1.9-0.3,2.9-0.4c1.7-0.2,3.4-0.3,5.2-0.6c1.6-0.2,3.2-0.5,4.8-0.7c0.1,0,0.3-0.1,0.4-0.1
				c1.6-0.1,3.2-0.3,4.8-0.4c0.3,0,0.6-0.2,1.1-0.5c-1.6-1-2.8-2.1-4.3-2.7c-1.1-0.4-2.5-0.1-3.8-0.1c-4.1,0.1-8.2,0.3-12.4,0.5
				c-1.8,0.1-3.6,0.2-5.4,0.3c-0.8,0.1-1.3,0.6-1.2,1.4c0.1,1.3,0.2,2.5,0.3,3.8c0,0.1,0.1,0.2,0.2,0.4
				C157.5,99,160,98.6,162.5,98.3z M209.4,70.9c0.2-0.2,0.5-0.3,0.8-0.5c0.2-0.2,0.5-0.5,0.7-0.7c0.4-0.5,0.8-1.1,1.3-1.5
				c0.6-0.4,1.4-0.8,1.3-1.5c0-0.4-0.4-0.8-0.8-1c-1.1-0.8-2.2-1.6-3.4-2.4c-0.1-0.1-0.2-0.1-0.3-0.1c-0.3,0-0.5,0.2-0.7,0.5
				c-3.1,4.6-6.2,9.2-9.4,13.8c-0.7,1.1-1.5,2.2-2,3.5c-0.5,1.2-0.8,2.6-0.4,3.9c1-1.1,2-2.1,3-3.2c3.1-3.2,6.1-6.4,9.2-9.6
				 M87.6,116.5c0.6-0.8,1.3-1.5,1.8-2.3c0.5-0.7,0.9-1.5,1.4-2.2c0.4-0.5,0.3-0.8-0.2-1.1c-1.6-1.1-3.2-2.1-4.8-3.2
				c-1.2-0.9-2.4-1.8-3.7-2.7c-1.1-0.8-2.3-1.4-3.5-2.2c-1-0.6-2-1.3-3-1.9c-0.2-0.1-0.3-0.3-0.5-0.3c-1.6-0.3-3.1-0.5-4.7-0.8
				c0,0.1-0.1,0.2-0.1,0.3C76.2,105.6,81.9,111,87.6,116.5z M203.6,103.5c3.5,3.3,7.1,6.6,10.6,10c1.2,1.1,2.3,2.3,3.5,3.4
				c0.5,0.5,1.1,0.9,1.7,1.3c0.1,0.1,0.5,0,0.6-0.1c1-1.4,1.9-2.8,2.8-4.2c0.1-0.2,0-0.7-0.2-0.8c-2.7-1.9-5.4-3.7-8.2-5.5
				c-2.2-1.5-4.4-2.9-6.6-4.3c-0.6-0.3-1.3-0.5-1.9-0.6c-0.9-0.2-1.9-0.3-2.8-0.5c-0.2,0-0.3,0-0.7,0.1
				C202.8,102.7,203.2,103.1,203.6,103.5z M64.6,76c0.1-2.3,0.7-4.6,1-6.8c0.2-1.4,0.4-2.8,0.6-4.3c0.2-1.6,0.5-3.2,0.7-4.7
				c0.1-0.9,0.1-1.8,0.1-2.6c0-0.1-0.3-0.4-0.5-0.4c-1.3-0.2-2.5-0.3-3.8-0.5c-0.1,0-0.1,0-0.2,0c-1.3-0.2-1.3-0.2-1.3,1.2
				c0,2.6,0,5.2,0.1,7.8c0.1,3.6,0.3,7.2,0.4,10.8c0.1,1.5,0.2,3.1,0.3,4.6c0,0.1,0.1,0.2,0.1,0.5C63.4,79.7,64.6,78.2,64.6,76z
				 M73.7,89.5c3.8,0,7.6-0.1,11.4-0.1c3-0.1,6-0.2,9-0.3c1.7,0,1.9-0.3,1.6-1.9c-0.2-1-0.4-2-0.7-3c-0.3-1.3-0.9-1.6-2.2-1.2
				c-1.2,0.3-2.5,0.5-3.8,0.8c-0.8,0.2-1.7,0.4-2.5,0.5c-1.8,0.4-3.6,0.8-5.4,1.1c-1.3,0.3-2.7,0.5-3.9,0.9
				c-0.7,0.2-1.2,0.8-1.8,1.2c-0.8,0.6-1.6,1.2-2.5,1.9C73.3,89.5,73.5,89.5,73.7,89.5z M196.1,80.3c0.1-0.2,0.2-0.4,0.2-0.5
				c0.2-1.6,0.3-3.1,0.5-4.7c0.2-1.4,0.5-2.7,0.7-4.1c0-0.2,0.1-0.3,0.1-0.5c0.3-1.9,0.6-3.7,0.8-5.6c0.2-1.7,0.3-3.5,0.5-5.2
				c0-0.2-0.2-0.5-0.3-0.5c-0.9-0.2-1.7-0.3-2.6-0.5c-0.6-0.1-1.2-0.2-1.8-0.3c-0.7-0.1-1,0-1,0.8c0,2.8,0,5.6,0.1,8.4
				c0.1,2.7,0.2,5.4,0.3,8.1c0.1,2.6,0.3,5.1,0.5,7.7c0.1,0,0.1,0,0.2,0C194.9,82.4,195.5,81.4,196.1,80.3z M179.4,62
				c0.2,1.2,0.5,2.3,0.7,3.5c0.2,0.9,0.4,1.8,0.6,2.7c0.4,1.6,0.8,3.3,1.1,4.9c0.3,1.5,0.6,3.1,0.9,4.6c0,0.2,0,0.4,0.2,0.5
				c1,1.3,1.9,2.6,3,4.1c0.1-0.3,0.1-0.5,0.1-0.7c0-2.1-0.1-4.2-0.1-6.2c-0.1-3.8-0.2-7.6-0.4-11.3c-0.1-1.4-0.2-2.9-0.3-4.3
				c0-0.6-0.4-0.7-0.9-0.6c-1.4,0.3-2.8,0.7-4.1,1c-0.3,0.1-0.7,0.2-1,0.3C179.3,61.1,179.3,61.6,179.4,62z M54.2,79.5
				c0-2.4-0.1-4.9-0.1-7.3c-0.1-3.2-0.3-6.4-0.4-9.6c-0.1-1.6-0.2-3.1-0.3-4.7c0-0.6-0.3-0.9-0.9-0.8c-0.8,0.1-1.7,0.3-2.5,0.5
				c-0.9,0.2-1.8,0.6-2.7,0.9c0.4,1.8,0.8,3.5,1.2,5.2c0.3,1.6,0.6,3.1,0.9,4.7c0.3,1.5,0.7,3,1.1,4.6c0.2,0.8,0.3,1.6,0.6,2.3
				c0.2,0.6,0.4,1.1,0.7,1.6c0.7,1.1,1.6,2.1,2.5,3.3C54.1,79.9,54.2,79.7,54.2,79.5z M206.3,91.6c2.3,0,4.6,0,6.9-0.1
				c4.3-0.1,8.7-0.2,13-0.3c1.3,0,1.7-0.8,1.3-2.1c-0.3-1.1-0.5-2.1-0.7-3.2c-0.1-0.5-0.3-0.8-0.9-0.8c-1.3,0.2-2.6,0.4-4,0.7
				c-0.7,0.1-1.3,0.3-2,0.4c-1,0.2-2.1,0.4-3.1,0.6c-1.6,0.3-3.2,0.7-4.8,1c-0.6,0.1-1.3,0.2-2,0.3c-1.3,0.2-2.1,1.1-3.1,1.7
				c-0.7,0.5-1.4,1.1-2.1,1.6c0,0.1,0,0.1,0,0.2C205.3,91.6,205.8,91.6,206.3,91.6z M62.6,113.2c0,0.1,0,0.1,0,0.2
				c0.1,4.7,0.2,9.4,0.4,14.2c0,0.2,0,0.5,0,0.7c0.2,1.1,0.4,1.3,1.4,1.2c1.5-0.2,3.1-0.5,4.8-0.8c-0.1-0.9-0.2-1.7-0.3-2.6
				c-0.2-0.9-0.4-1.9-0.6-2.8c-0.4-1.9-0.8-3.8-1.1-5.6c-0.2-1.2-0.5-2.4-0.6-3.6c-0.2-2-1.3-3.6-2.5-5.1c-0.4-0.6-0.8-1.1-1.3-1.7
				c-0.1,0-0.1,0-0.2,0.1C62.6,109.2,62.6,111.2,62.6,113.2z M200.6,130.6c0.1,0,0.4-0.3,0.3-0.5c-0.1-0.7-0.1-1.5-0.3-2.2
				c-0.1-0.7-0.3-1.4-0.5-2.2c-0.3-1.7-0.6-3.4-0.9-5.1c-0.3-1.7-0.7-3.3-1.1-5c-0.1-0.3-0.1-0.7-0.2-1.1c-0.1-0.4-0.1-0.9-0.4-1.2
				c-1-1.4-2-2.8-3.2-4.2c0,0.3,0,0.6,0,0.9c0,2.9,0.1,5.7,0.1,8.6c0.1,3.7,0.2,7.4,0.3,11c0,0.6,0.3,1.1,0.5,1.9
				C197.2,131.4,198.9,131,200.6,130.6z M41.6,97.9c-3.9,0.1-7.8,0.3-11.7,0.5c-2,0.1-4,0.2-5.9,0.4c-0.2,0-0.5,0.4-0.5,0.5
				c0.2,1.1,0.4,2.2,0.6,3.3c0.1,0.5,0.2,0.9,0.4,1.3c0.4,0.9,0.7,1.1,1.7,0.8c1.7-0.4,3.4-0.7,5.1-1.1c1.5-0.4,3.1-0.8,4.6-1.1
				c1.5-0.3,3-0.6,4.4-1c0.9-0.2,1.8-0.6,2.6-1.1c1.1-0.7,2.1-1.6,3.3-2.5C44.5,97.9,43.1,97.9,41.6,97.9z M161.3,73.9
				c-0.8,1.4-1.5,2.6-2.2,3.8c0,0,0,0.1-0.1,0.2c-0.9,1.7-0.9,1.8,0.7,2.8c3.8,2.4,7.6,4.9,11.5,7.3c0.4,0.3,0.9,0.4,1.4,0.5
				c1.6,0.2,3.1,0.4,4.7,0.6c0-0.1,0.1-0.2,0.1-0.3C172,83.9,166.7,79,161.3,73.9z M74,98.9c1,0.9,2.2,1.1,3.4,1.4
				c1.1,0.3,2.2,0.3,3.3,0.5c1.5,0.2,3,0.5,4.5,0.8c1,0.2,1.9,0.3,2.9,0.5c1.7,0.3,3.4,0.5,5.1,0.8c0.4,0.1,0.8,0.1,1.2,0
				c0.1,0,0.3-0.1,0.4-0.3c0.2-0.7,0.4-1.3,0.5-2c0.2-0.8,0.2-1.7,0.4-2.5c0.2-0.9-0.2-1-1-1c-3,0-6,0-9.1,0c-2.9,0-5.7,0-8.6,0.1
				c-1.6,0-3.3,0.3-5.1,0.4C72.8,98.1,73.5,98.4,74,98.9z M207.3,101.8c0.9,0.4,2,0.4,3,0.6c1.4,0.2,2.8,0.5,4.2,0.7
				c1.2,0.2,2.4,0.4,3.6,0.6c1.5,0.3,3.1,0.5,4.6,0.8c1.1,0.2,2.2,0.3,3.3,0.4c0.5,0.1,0.7-0.1,0.8-0.7c0.2-1.4,0.5-2.7,0.8-4
				c0.1-0.6-0.1-1-0.8-1c-1,0-1.9,0-2.9,0c-3.1,0-6.3,0.1-9.4,0.1c-2.6,0-5.2,0-7.8,0.1c-0.9,0-1.7,0.2-2.8,0.4
				C205.2,100.5,206.2,101.3,207.3,101.8z M29.4,72c-1,1.7-1.8,3.1-2.6,4.5c-0.1,0.2-0.3,0.4-0.4,0.6c0,0.2,0,0.5,0.2,0.6
				c3.3,2.1,6.6,4.2,9.9,6.3c0.9,0.6,1.8,1.3,2.8,1.8c0.5,0.3,1,0.4,1.6,0.5c1.1,0.2,2.2,0.3,3.4,0.5c0.4,0,0.7,0,1.1,0
				c0-0.1,0.1-0.2,0.1-0.3C40.1,81.9,34.8,77,29.4,72z M74.3,86.1c1.5-0.3,2.9-0.8,4.2-1.8c3.3-2.6,6.8-5,10.2-7.5
				c0.9-0.6,1.6-1.3,2.5-2.1c-1.1-1.6-2.1-3.1-3.1-4.5c-1.3,0.3-2,1.2-2.8,2c-3.6,3.7-7.1,7.4-10.7,11.2c-0.9,0.9-1.8,2-2.7,3.1
				C72.9,86.4,73.6,86.3,74.3,86.1z M161,106.1c1.5-0.3,3-0.7,4.5-1.1c0.9-0.2,1.9-0.4,2.8-0.6c0.8-0.2,1.6-0.3,2.4-0.5
				c0.8-0.2,1.5-0.5,2.3-0.6c1.6-0.3,2.5-1.6,3.8-2.4c0.4-0.2,0.7-0.5,1.1-0.9c-0.4,0-0.6-0.1-0.8-0.1c-2.3,0-4.6,0-6.9,0.1
				c-1.8,0.1-3.5,0.2-5.3,0.4c-2.3,0.2-4.5,0.5-6.8,0.8c-0.8,0.1-1.6,0.2-2.4,0.4c-0.2,0.1-0.5,0.5-0.4,0.7c0.4,1.5,0.8,3,1.3,4.6
				C158.2,106.7,159.6,106.4,161,106.1z M219.9,72.1c-0.8,0.6-1.5,1.1-2.1,1.8c-4.1,4.2-8.2,8.5-12.2,12.7c-0.6,0.6-1.1,1.2-1.7,1.9
				c0.7-0.1,1.3-0.2,2-0.3c1.9-0.3,3.6-1,5.1-2.2c2.3-1.8,4.7-3.5,7.1-5.2c1.6-1.2,3.1-2.4,4.7-3.6c0.1-0.1,0.2-0.2,0.3-0.4
				C222,75.2,221,73.7,219.9,72.1z M45.1,101.3c-2.1,0.3-3.9,1.3-5.5,2.7c-1.9,1.6-4,3-6,4.5c-1.7,1.3-3.4,2.6-5.3,4.1
				c1.1,1.5,2,2.8,3.1,4.1c0.1,0.2,0.7,0.2,0.8,0.1c1.2-1,2.3-2.1,3.4-3.2c1.2-1.2,2.2-2.5,3.4-3.7c2-2.1,3.9-4.2,5.9-6.3
				c0.7-0.8,1.4-1.6,2.2-2.4c0-0.1-0.1-0.1-0.1-0.2C46.3,101,45.7,101.2,45.1,101.3z M51.1,80.1c-0.2-1.1-0.5-2.1-0.8-3.2
				c-0.1-0.3-0.2-0.6-0.4-0.8c-1-1.3-1.9-2.6-2.9-3.8c-0.5-0.6-0.9-1.5-1.9-0.8c-0.2,0.1-0.5,0-0.9,0c0.6-0.3,1-0.6,1.5-0.9
				c-0.8-0.9-1.6-1.9-2.3-2.8c-0.4-0.5-0.7-1-1-1.6c-0.2-0.3-0.4-0.6-0.7-0.8c-0.2-0.2-0.6-0.2-0.9-0.1c-0.2,0.1-0.4,0.4-0.4,0.6
				c-0.1,0.6,0,1.2,0,1.8c-0.1,0-0.2,0-0.3,0c0-0.8-0.1-1.6,0.1-2.4c0-0.3,0.7-0.4,1.3-0.7c-0.6-0.7-1.3-1.3-2-2
				c-0.1-0.1-0.5,0-0.7,0.2c-1.2,0.9-2.3,1.8-3.5,2.7c-0.4,0.3-0.4,0.6-0.1,1c1,1,2,2.1,3.1,3.1c1.9,1.8,3.9,3.6,5.9,5.5
				c1.9,1.8,3.8,3.6,5.7,5.3c0.3,0.3,0.7,0.6,1.1,0.9c0.1,0,0.2-0.1,0.2-0.1C51.2,80.8,51.2,80.5,51.1,80.1z M66.5,110.3
				c0.4,1.7,1.6,2.8,2.6,4.2c1.7,2.4,3.4,4.8,5.2,7.2c0.9,1.2,1.9,2.4,2.9,3.7c1.6-1.1,3.2-2.1,4.8-3.2
				c-5.2-5.3-10.5-10.3-15.9-15.4c-0.1,0-0.2,0.1-0.3,0.1C66,108,66.2,109.2,66.5,110.3z M198.3,111.9c0.3,2.1,1.9,3.4,3,5
				c0.8,1.3,1.8,2.6,2.7,3.8c1.5,2,3.1,4.1,4.6,6.1c0.1,0.2,0.3,0.3,0.6,0.5c1.3-0.9,2.6-1.8,3.9-2.7c0.4-0.3,0.5-0.6,0.1-0.9
				c-1.4-1.4-2.7-2.8-4.1-4.1c-2.1-2.1-4.2-4.2-6.4-6.3c-1.6-1.5-3.2-3-4.8-4.4c-0.1,0-0.2,0.1-0.3,0.1
				C197.9,109.9,198.1,110.9,198.3,111.9z M42.2,88.8c-0.6-0.4-1.2-0.6-1.7-1.1c-0.9-0.8-2.1-0.8-3.2-1c-1.7-0.3-3.4-0.5-5.1-0.8
				c-1.4-0.2-2.7-0.4-4.1-0.5c-1.2-0.1-2.3-0.3-3.5-0.4c-0.5-0.1-1,0.2-1,0.7c-0.2,1.4-0.4,2.8-0.5,4.2c-0.1,0.6,0.2,0.8,0.7,0.8
				c2.4,0,4.7,0,7.1-0.1c3.6-0.1,7.1-0.2,10.7-0.4c0.9,0,1.7-0.1,2.6-0.1c0-0.1,0.1-0.1,0.1-0.2C43.5,89.6,42.8,89.2,42.2,88.8z
				 M173,126.9c0.2,0.1,0.4,0.2,0.6,0.3c1.6,0.9,1.4,0.8,2.5-0.6c2-2.7,3.6-5.7,5.5-8.5c0.8-1.2,1.2-2.4,1.3-3.9
				c0-1.1,0.4-2.3,0.7-3.4c0.1-0.3,0-0.5,0.1-0.8c-0.1,0-0.1-0.1-0.2-0.1c-4.5,4.9-9,9.8-13.7,14.8
				C170.9,125.6,171.9,126.3,173,126.9z M39.9,124.1c0.7,0.5,1.5,0.9,2.2,1.4c0.5,0.3,1,0.3,1.4-0.2c1-1.4,2-2.9,3-4.4
				c0.9-1.4,1.7-2.8,2.6-4.2c0.8-1.3,1.7-2.5,1.7-4.2c0-1.2,0.4-2.5,0.7-3.7c0-0.3,0-0.5,0.1-0.8c-0.1,0-0.1-0.1-0.2-0.1
				c-4.5,4.9-9,9.8-13.6,14.8C38.6,123.3,39.2,123.7,39.9,124.1z M200.4,73.9c2.1-3.2,4.2-6.3,6.3-9.5c0.3-0.5,0.6-1.1,0.8-1.6
				c0.1-0.2-0.1-0.6-0.2-0.7c-2.1-0.9-4.2-1.7-6.4-2.5c-0.8-0.3-1,0.4-1.1,0.9c-0.3,2-0.6,3.9-0.9,5.9c-0.3,2.1-0.6,4.2-0.9,6.3
				c-0.2,1.3-0.5,2.6-0.7,4c-0.1,0.5,0,1,0,1.5c0.1,0,0.1,0,0.2,0C198.5,76.8,199.5,75.4,200.4,73.9z M70.3,69.4
				c1.2-1.9,2.4-3.7,3.5-5.6c0.5-0.9,0.8-2,1.1-3c0.2-0.6,0.1-1-0.7-1.3c-1.7-0.6-3.5-1.3-5.2-1.9c-0.8-0.3-0.9,0.4-1,0.9
				c-0.3,1.9-0.6,3.9-0.9,5.8c-0.2,1.4-0.4,2.9-0.7,4.3c-0.1,0.9-0.3,1.8-0.4,2.7c-0.2,1.7-0.4,3.3-0.7,5c0.1,0,0.1,0,0.2,0.1
				C67.1,74,68.7,71.7,70.3,69.4z M185.8,112.7c-0.7,1.1-1.5,2.1-2.1,3.3c-0.5,0.9-0.8,1.9-1,3c-0.4,2.2-0.6,4.5-0.9,6.7
				c-0.2,1.2-0.5,2.3-0.7,3.5c-0.2,1-0.2,1.5,1.1,1.6c0.9,0.1,1.8,0.4,2.7,0.6c0.4,0.1,0.8,0.1,1.1,0.1c0.5,0,0.6-0.2,0.8-0.6
				c0.5-1.3,0-2.4,0-3.7c-0.1-4.1,0-8.2-0.1-12.3c0-1-0.1-2-0.2-3c-0.1,0-0.1-0.1-0.2-0.1C186.3,112.1,186,112.4,185.8,112.7z
				 M53.8,110.8c-0.8,1.2-1.7,2.5-2.4,3.8c-0.4,0.7-0.4,1.6-0.6,2.5c-0.3,1.6-0.5,3.3-0.8,4.9c-0.2,1.3-0.3,2.6-0.5,3.8
				c-0.1,0.6-0.2,1.2-0.3,1.9c-0.1,0.6,0.1,0.9,0.8,1c1,0.1,1.9,0.3,2.8,0.6c1.8,0.5,2.3,0.1,2.3-1.7c-0.1-4.9-0.2-9.8-0.3-14.7
				c0-1,0-2,0-3.1c-0.1,0-0.2-0.1-0.2-0.1C54.4,110.1,54.1,110.4,53.8,110.8z M173.9,105.9c-1.2,0.3-2.4,0.7-3.5,1.1
				c-0.6,0.2-1.1,0.6-1.6,1c-2.2,1.7-4.4,3.3-6.6,5c-0.5,0.4-1,0.8-1.5,1.3c-0.1,0.1-0.2,0.6-0.1,0.7c0.8,1.2,1.7,2.4,2.6,3.6
				c0.2,0.3,0.5,0.5,0.9,0.2c0.9-0.8,1.9-1.6,2.8-2.4c1.6-1.7,3.2-3.4,4.7-5.2c1.7-1.9,3.5-3.8,5.2-5.7c0-0.1-0.1-0.2-0.1-0.3
				C175.7,105.5,174.8,105.6,173.9,105.9z M181.3,81.9c0,0,0.1,0,0.1,0c-0.1-0.3-0.2-0.5-0.3-0.8c-1.9-3.9-3.8-7.8-5.8-11.5
				c-0.9-1.7-2.4-3.1-3.6-4.7c-0.1-0.2-0.6-0.3-0.7-0.2c-1.3,1-2.6,2.1-3.9,3.1c-0.1,0.1-0.1,0.2-0.3,0.5
				C171.5,72.8,176.4,77.4,181.3,81.9z M81.3,103.7c1,0.7,1.9,1.4,2.9,2c0.9,0.6,1.9,1.1,2.8,1.7c1.3,0.9,2.6,1.9,4.1,2.4
				c0.3,0.1,0.8,0.5,0.8,0.4c0.3-0.3,0.6-0.7,0.7-1.2c0.6-1.5,1.2-3.1,1.7-4.6c0.1-0.2-0.1-0.6-0.3-0.7c-0.4-0.2-0.8-0.3-1.3-0.4
				c-1.3-0.2-2.6-0.3-3.8-0.5c-1.5-0.2-3-0.6-4.4-0.8c-1.9-0.3-3.7-0.6-5.6-0.8c-0.3,0-0.6,0-0.9,0c0,0.1-0.1,0.2-0.1,0.3
				C79.1,102.2,80.2,102.9,81.3,103.7z M226.2,106.5c0.1-0.2,0-0.5-0.1-0.5c-0.5-0.2-1.1-0.4-1.6-0.5c-1.5-0.3-3-0.5-4.5-0.8
				c-0.9-0.2-1.8-0.3-2.8-0.4c-1.3-0.2-2.6-0.3-3.9-0.5c-0.9-0.1-1.8-0.3-2.7-0.4c-0.2,0-0.4,0-0.7,0.1c4.5,3,8.9,6.3,13.9,9
				C224.6,110.3,225.4,108.4,226.2,106.5z M169.3,88.7c-2.4-0.2-4.8-0.6-7.1-0.9c-1.8-0.2-3.5-0.6-5.3-0.8c-1.5-0.1-1.6,0-1.7,1.6
				c-0.1,0.7-0.2,1.5-0.3,2.2c-0.1,0.6,0.2,0.9,0.8,0.9c2.3-0.1,4.6-0.1,6.9-0.2c2.9-0.1,5.7-0.2,8.6-0.3c1,0,2,0,2.9,0
				c0-0.1,0-0.2,0.1-0.2C172.8,89.9,171.3,88.9,169.3,88.7z M46.3,58.8c-2.1,1-4,2-6.1,3c0.9,1.2,1.7,2.1,2.5,3.2
				c0.3,0.4,0.4,0.8,0.6,1.3c0,0.1,0,0.2,0.1,0.2c0.6,0.6,1.3,1.3,1.9,1.9c0.6,0.6,1,1.3,1.5,2c0.9,1.2,1.7,2.4,2.6,3.6
				c0.1-0.1,0.3-0.1,0.4-0.2C48.6,68.9,47.4,63.9,46.3,58.8z M79.4,84.8c0.2,0,0.5,0.1,0.7,0c1.7-0.3,3.3-0.7,5-1.1
				c0.9-0.2,1.8-0.4,2.7-0.5c1.9-0.4,3.8-0.8,5.6-1.2c0.8-0.2,1-0.6,0.6-1.4c-0.6-1.4-1.2-2.8-1.9-4.1c-0.1-0.1-0.1-0.3-0.3-0.7
				C87.4,78.6,83.5,81.8,79.4,84.8z M212.4,86.9c1-0.2,2.1-0.5,3.1-0.7c0.9-0.2,1.9-0.4,2.8-0.6c1.1-0.2,2.3-0.5,3.4-0.7
				c1.2-0.3,2.5-0.6,3.7-0.9c0.4-0.1,0.6-0.5,0.4-1c-0.7-1.6-1.4-3.3-2.1-5.1c-1.1,0.7-2.1,1.3-3.1,2c-2.4,1.7-4.8,3.4-7.1,5.2
				c-0.8,0.6-1.6,1.2-2.4,1.8c0,0.1,0.1,0.2,0.1,0.3C211.6,87,212,87,212.4,86.9z M27.7,111.6c1.2-0.8,2.3-1.4,3.3-2.1
				c2.9-2.1,5.7-4.3,8.6-6.5c0.1-0.1,0.2-0.2,0.3-0.3c0-0.1,0-0.2-0.1-0.2c-4.9,1.1-9.7,2.2-14.8,3.4
				C25.9,107.8,26.8,109.6,27.7,111.6z M206.3,128.6c0.4-0.2,0.8-0.4,1.2-0.6c0.4-0.2,0.4-0.5,0.2-0.8c-0.6-0.9-1.2-1.8-1.8-2.7
				c-1.4-1.9-2.7-3.8-4.1-5.7c-0.9-1.2-1.7-2.3-2.7-3.4c1.1,4.9,1.7,9.9,3.2,14.7C203.8,129.7,205.1,129.2,206.3,128.6z M75.5,126.1
				c0.7-0.3,0.4-0.7,0.2-1.1c-0.5-0.8-1-1.5-1.6-2.2c-2.3-3.1-4.5-6.3-7-9.3c0.5,2.4,1.1,4.9,1.6,7.3c0.5,2.4,0.7,5,1.8,7.4
				C72.2,127.5,73.9,126.8,75.5,126.1z M146.4,105.1c0.8,0.7,0.7,0.9-0.2,1.3c0.4,0.5,0.8,1.1-0.4,1.3c0.2,0.5,0.8,1.2-0.4,1.2
				c0,0.3,0,0.6,0.1,1.1c-0.1,0.1-0.5,0.2-0.8,0.4c0.3,0.9,0.2,1.1-0.9,0.9c0.3,1.2,0.7,1.3,2,1c1.8-0.5,3.7-1,5.6-1.5
				c0.5-0.1,0.6-0.3,0.4-0.8c-0.4-1-0.8-2-1.1-3.1c-0.3-1.3-0.6-2.6-0.9-3.9c0-0.2-0.4-0.4-0.6-0.4c-1,0.2-1.9,0.4-2.9,0.7
				c0,0.1-0.1,0.2-0.1,0.3C147.6,103.9,146.7,104.5,146.4,105.1z M160.3,82c-0.6-0.4-1.3-0.7-1.9-1c-0.4-0.2-0.8-0.1-1,0.4
				c-0.4,1.1-0.8,2.1-1.2,3.2c-0.3,1,0,1.5,1.1,1.6c2.3,0.3,4.7,0.8,7,1.1c1.6,0.2,3.3,0.4,4.9,0.6c0-0.1,0-0.2,0-0.3
				C166.2,85.8,163.3,83.9,160.3,82z M34,83.5c-2-1.3-4-2.5-6-3.7c-0.6-0.4-1.2-0.7-1.8-0.9c-0.2-0.1-0.6,0.1-0.6,0.3
				c-0.5,1.3-0.9,2.5-1.3,3.8c-0.2,0.6,0.1,0.9,0.6,1.1c0.9,0.2,1.8,0.4,2.8,0.5c1.5,0.2,2.9,0.5,4.4,0.7c1.7,0.2,3.3,0.4,5,0.6
				c0-0.1,0.1-0.2,0.1-0.3C36.1,84.9,35,84.2,34,83.5z M141.4,94.1c0.1,0.4,0.2,0.8,0.3,1.2c0.3-0.1,0.6-0.2,0.9-0.3
				c0.1,0.3,0.2,0.7,0.2,1.1c0.3,0.1,0.6,0.1,1,0.2c-0.1,0.3-0.2,0.6-0.2,0.8c0.4,0,0.8-0.1,1,0.1c0.1,0.1,0.1,0.6,0.1,0.9
				c0.2,0.1,0.6,0.1,0.7,0.3c0.1,0.2,0,0.6,0,0.9c0.2,0.2,0.4,0.5,0.7,0.7c0.1,0.1,0.2,0.2,0.3,0.2c0.8-0.1,1.6-0.2,2.4-0.3
				c0.2,0,0.4-0.4,0.4-0.6c-0.1-1.8-0.3-3.5-0.4-5.3c0-0.8-0.3-0.9-1-0.9c-2.2,0.1-4.4,0.1-6.6,0.2c-1,0-1.1,0.1-0.9,1.3
				C140.8,94.5,141.1,94.3,141.4,94.1z M138,113.1c1.2-0.5,1.6-2,0.8-3.1c-0.7-0.8-1.5-1.6-2.3-2.3c-0.6-0.6-1.6-0.5-2.2,0.1
				c-0.7,0.8-1.5,1.5-2.1,2.3c-0.6,0.8-0.2,2.6,0.6,2.9c0.8,0.3,1.7,0.5,2.5,0.7C136.2,113.6,137.1,113.4,138,113.1z M174.5,62.5
				c2.3,4.5,4.5,8.9,6.7,13.3c0.2-0.4-0.3-3.3-0.7-4.9c-0.4-1.7-0.8-3.4-1.2-5c-0.4-1.6-0.8-3.3-1.3-5
				C176.8,61.5,175.6,62,174.5,62.5z M139.2,104.2c-1.2,0.5-1.5,1.4-0.9,2.7c0.4,0.8,0.9,1.5,1.3,2.2c0.8,1.3,3,1.4,3.8-0.5
				c0.5-1,0.8-2.2,0.9-3.3c0.1-1.6-0.2-1.8-1.8-2C141.4,103.5,140.2,103.7,139.2,104.2z M82.2,64.3c-1.4-0.9-2.6-1.8-3.9-2.5
				c-0.1-0.1-0.7,0.3-0.8,0.6c-0.7,2-1.4,4.1-2.1,6.1c-0.3,0.9-0.6,1.8-0.9,2.7c-0.1,0.2,0,0.5,0,0.8c0.1,0,0.2,0.1,0.3,0.1
				C77.3,69.6,79.7,67,82.2,64.3z M72.2,67.7c-1.6,2.4-3.2,4.8-4.7,7.2c-0.5,0.7-1,1.5-1.5,2.2c-1.1,1.5-1.5,3.3-1.5,5.1
				c0,0.2,0,0.3,0.1,0.5C67.6,81,72.4,69.7,72.2,67.7z M180.1,130.2c0.9-3.6,1.3-7.2,1.9-10.8c-0.1,0-0.2-0.1-0.3-0.1
				c-1.9,3-3.8,6-5.8,9.2C177.4,129.1,178.7,129.6,180.1,130.2z M44.7,125.1c-0.7,1.2-0.6,1.4,0.7,2c0.9,0.3,1.7,0.7,2.8,1.1
				c0.8-3.6,1.4-7.2,1.8-10.8c-0.1,0-0.1,0-0.2,0C48.1,119.9,46.4,122.5,44.7,125.1z M164.3,108.4c-1.8,0.5-3.5,1-5.3,1.5
				c-0.9,0.2-1,0.5-0.6,1.3c0.4,0.8,0.8,1.5,1.2,2.3c2.9-1.3,5.1-3.7,7.8-5.4c-0.1-0.1-0.1-0.2-0.2-0.3
				C166.2,108,165.2,108.2,164.3,108.4z M139.2,101.3c0.6-0.1,1.3-0.2,1.9-0.2c1.1,0,2-1.4,1.3-2.3c-0.7-0.9-1.6-1.7-2.5-2.5
				c-0.3-0.3-0.7-0.2-0.8,0.4c-0.5,1.6-1,3.1-1.6,4.8C138.2,101.5,138.7,101.4,139.2,101.3z M157,107.8c0.4,1.3,0.4,1.2,1.5,0.9
				c1.7-0.5,3.3-0.8,5-1.3c2.4-0.7,4.9-1.4,7.3-2.1c0.4-0.1,0.7-0.4,1-0.6c0-0.1-0.1-0.2-0.1-0.3C166.8,105.6,161.9,106.7,157,107.8
				z M186.7,109.8c0.1-0.1,0.1-0.3,0.1-0.4c-0.1-0.7-0.2-1.4-0.2-2.1c0-0.2-0.1-0.4-0.2-0.7c-0.8,1.1-2,1.6-2,3.2
				c0,1.3-0.5,2.6-0.7,4c0,0.2,0,0.4,0,0.6c0.1,0,0.1,0,0.2,0.1C184.8,112.9,185.7,111.3,186.7,109.8z M52.5,107.9
				c-0.1,1.2-0.4,2.4-0.7,3.6c0,0.2,0,0.5,0.1,0.8c0.6-0.9,1.2-1.8,1.7-2.7c0.2-0.3,0.5-0.7,0.7-1c0.3-0.5,0.6-1,0.3-1.7
				c-0.2-0.7-0.1-1.5-0.2-2.4C53.4,105.6,52.5,106.4,52.5,107.9z M126.7,107.9c0.6,1.7,1.6,2.5,2.8,2.4c0.2,0,0.6-0.1,0.7-0.2
				c0.6-0.9,1.2-1.8,1.8-2.8c-0.1-0.1-0.2-0.2-0.2-0.2C130.1,107.4,128.4,107.7,126.7,107.9z M128.5,98c-1.1,1.1-1.3,1.6-0.7,2.8
				c0.5,0.9,1.5,1,2.3,1.2c0.7,0.1,1.4,0.1,2.3,0.2C131,100.7,129.8,99.3,128.5,98z M44.8,87.8c-0.9,0.1-1.8-0.3-2.7-0.3
				c1.9,1.5,3.8,3.2,6.5,2.2C47.6,88.6,46.5,87.7,44.8,87.8z M55.6,103.5c-0.2,0.3-0.1,0.8-0.1,1.3c0,0.6,0,1.1,0,1.7
				c0.1,0,0.2,0,0.2,0.1c0.9-1.4,1.7-2.9,2.7-4.3c0.4-0.6,0.4-1-0.4-1.4C57.2,101.7,56.3,102.5,55.6,103.5z M190.3,104.1
				c0.4-0.5,0.1-0.9-0.2-1.1c-0.1-0.1-0.5,0.2-0.8,0.4c-0.3,0.3-0.6,0.7-0.9,1c-1.5,1.1-1,2.6-0.9,4.1
				C188.5,107.1,189.3,105.6,190.3,104.1z M178.1,102.3c1.4-0.3,2.6-0.7,3.4-2c0.1-0.1,0.2-0.3,0.2-0.4c-0.1-0.1-0.3-0.3-0.4-0.3
				c-0.8,0.2-1.7,0.2-2.3,0.6c-1.1,0.6-2,1.5-3.2,2.4C176.7,102.6,177.4,102.5,178.1,102.3z M194.4,105.5c0,1-0.3,1.9,0.5,2.8
				c0.8,0.9,1.4,1.9,2.1,2.8c0.1,0,0.1-0.1,0.2-0.1C197.1,108.8,196.6,106.8,194.4,105.5z M51.9,78.8c-0.2,1.9,0.1,4.2,2.5,5.6
				C55,81.9,53.1,80.5,51.9,78.8z M63.1,106.3c0.7,0.9,1.3,1.8,2,2.8c0.5-1.6-0.7-4.2-2.6-5.8C62.5,104.5,62.4,105.4,63.1,106.3z
				 M49.9,97.6c-0.2,0.1-0.4,0.2-0.6,0.2c-2.3-0.3-3.4,1.7-5,2.7C47,100.5,49.6,99.1,49.9,97.6z M72.6,88.7c0.8-0.6,1.6-1.2,2.5-1.9
				c-0.9,0.1-1.6,0.2-2.2,0.3c-1.5,0.3-2.8,0.8-3.5,2.3C70.6,89.9,71.6,89.3,72.6,88.7z M201.1,91.7c0.8-0.1,1.7,0,2.3-0.3
				c1.2-0.7,2.3-1.6,3.4-2.4c0-0.1-0.1-0.1-0.1-0.2C204.7,89.4,202.3,89.2,201.1,91.7z M183,95.5c0.6,0.3,0.7,0.3,1.2-0.3
				c-1.9-2.2-2.7-2.8-5.2-2.2C180.5,94,181.7,94.8,183,95.5z M195.7,91.1c-0.2,0-0.3,0.4-0.5,0.5c0,0.1,0.1,0.1,0.1,0.2
				c0.5,0,1,0,1.5,0c0.8-0.1,1.7,0,2.5-0.3c0.7-0.3,1.2-0.9,1.9-1.4c0-0.1-0.1-0.2-0.1-0.3C199.2,90.3,197.5,90.7,195.7,91.1z
				 M51.1,93.4c0.2,0.1,0.6,0,0.9,0c-0.1-0.3-0.1-0.6-0.3-0.8c-0.5-0.5-1-1-1.6-1.5c-0.9-0.9-1.9-0.2-2.9-0.4c0,0.1,0,0.1-0.1,0.2
				C48.5,91.9,49.8,92.7,51.1,93.4z M69.2,88c-0.1,0-0.3-0.1-0.4-0.1c-1.3,0.3-2.6,0.5-3.8,0.9c-0.3,0.1-0.6,0.5-0.9,0.9
				C66.9,90.3,68.1,89.9,69.2,88z M54.6,102.2c-0.1-0.8,0-1.7-0.1-2.5c0-0.2-0.2-0.3-0.3-0.5c-0.1,0.1-0.4,0.2-0.4,0.4
				c-0.3,1.5-0.6,3-0.8,4.5c0,0.2,0,0.4,0,0.8C53.9,104.1,54.8,103.5,54.6,102.2z M64.1,103.2c-0.3-1.4-0.5-2.7-0.8-4.1
				c0-0.2-0.5-0.3-0.7-0.3c-0.1,0-0.3,0.4-0.3,0.6c0,0.5,0.2,0.9,0.2,1.4c-0.2,1.3,0.6,2,1.6,2.7C64,103.4,64.1,103.3,64.1,103.2z
				 M133.7,98.9c0.4,0.4,0.6-0.1,0.7-0.5c0.2-1.3-1.2-3.3-3.3-2.3C132,97.1,132.8,98,133.7,98.9z M195.8,103.7
				c-0.2-0.8-0.3-1.7-0.6-2.5c-0.1-0.2-0.5-0.3-0.7-0.5c-0.1,0.2-0.3,0.5-0.3,0.7c0,0.5,0.2,0.9,0.1,1.4c-0.2,1.3,0.6,2,1.5,2.7
				c0.1,0,0.2-0.1,0.3-0.1C196,104.9,195.9,104.3,195.8,103.7z M67.2,90.5c-1.4,0-2.5,0-3.5,0c-0.4,0-0.5,1-0.1,1.4
				c0.2,0.2,0.4,0.3,0.6,0.4c0.2,0.1,0.4,0.2,0.6,0.3C65.5,92,66.2,91.4,67.2,90.5z M201,100.7c1.3,0.4,2.6,0.6,4.1,0.9
				c-1.1-1.6-3.1-2.3-5.3-1.9C200.3,100.1,200.6,100.6,201,100.7z M195.6,92.6c-0.2,0-0.4,0.3-0.4,0.5c0,0.4,0.1,0.8,0.3,1
				c0.3,0.3,0.7,0.5,1.1,0.7c0.7-0.7,1.3-1.4,2.1-2.2C197.6,92.5,196.6,92.5,195.6,92.6z M68,97.7c0.6,0.9,1.4,1.5,2.6,1.4
				c0.6,0,1.1,0.2,1.7,0.3c0.3,0.1,0.6,0.1,0.9,0.1C71.7,98.2,70.2,97,68,97.7z M52.8,89.8c0.1,0,0.3-0.5,0.2-0.6
				c-0.1-0.2-0.4-0.4-0.6-0.5c-1.1-0.2-2.2-0.3-3.3-0.4c-0.2,0-0.3,0-0.5,0.1C49.6,90.4,51.3,89.9,52.8,89.8z M62.2,85.2
				c0.7-0.4,1.2-0.9,1.4-1.8c0.2-0.9,0.2-1.9,0.3-3C62.9,82,61.6,83.2,62.2,85.2z M56.2,86.3c0.6,0.4,1.2,1,1.9,1.5
				c0-1-0.8-1.6-1.3-2.3c-0.5-0.8-1.1-1.5-1.7-2.3C55,84.4,55.1,85.5,56.2,86.3z M187.1,85.3c-0.3,1.5-0.1,1.9,1,2.9
				c0.6,0.6,1.2,1.1,1.9,1.7c0.1-0.1,0.2-0.1,0.3-0.2C189.4,88,188.1,86.7,187.1,85.3z M185.2,103.8c0,0.7-0.2,1.4-0.3,2.1
				c0,0.3,0,0.6,0,0.9c1.6-1.1,1.9-2,1.4-4.2C185.5,102.7,185.2,103.1,185.2,103.8z M174,89.5c0.9,1.4,3.7,1.9,5.4,1
				C177.6,89.9,175.8,89.7,174,89.5z M57.3,100.3c0.1-0.2,0-0.6-0.1-0.8c-0.3-0.3-0.6-0.6-1-0.6c-0.2,0-0.6,0.4-0.7,0.6
				c-0.1,0.9,0,1.7,0,2.6c0.1,0,0.2,0,0.3,0.1C56.2,101.5,56.8,100.9,57.3,100.3z M194.1,87.3c0.8-0.6,1.4-1.2,1.4-2.3
				c0-0.8,0.2-1.6,0.3-2.5C194.7,84,193.5,85.2,194.1,87.3z M53.7,84.9c-0.2-0.1-0.4-0.2-0.6-0.3c-0.1,0.2-0.2,0.5-0.2,0.7
				c0.1,0.8,0.3,1.6,0.5,2.4c0.1,0.3,0.5,0.4,0.8,0.6c0.1-0.3,0.2-0.5,0.3-0.8c0-0.2,0-0.4,0-0.8C54.7,86,54.4,85.4,53.7,84.9z
				 M66.4,93.1c1.1-0.8,2.2-1.7,3.4-2.6c-0.9-0.1-1.7-0.3-2.3,0.5c-0.6,0.7-1.4,1.3-2,2c0,0.1,0.1,0.2,0.1,0.3
				C65.9,93.2,66.2,93.3,66.4,93.1z M184.6,100.7c0.2-0.1,0.4-0.5,0.5-0.8c-0.2-0.1-0.4-0.3-0.7-0.4c-1.5-0.3-2,1-2.8,1.7
				c0,0.1,0.1,0.1,0.1,0.2C182.7,101.2,183.7,101,184.6,100.7z M53,98.6c0.1-0.1,0.3-0.5,0.2-0.7c0-0.1-0.3-0.3-0.5-0.4
				c-0.8-0.1-1.5,0.1-2,0.8c-0.3,0.4-0.7,0.6-1,0.9c0.1,0.1,0.1,0.2,0.2,0.3C50.9,99.2,51.9,98.9,53,98.6z M201.7,92.6
				c-1-0.2-1.8-0.2-2.5,0.6c-0.5,0.7-1.2,1.3-1.9,1.9c0.1,0.1,0.1,0.2,0.2,0.2C199.2,94.8,200.2,93.5,201.7,92.6z M198.3,96.9
				c-0.3-0.1-0.6,0-1-0.1c0.1,0.3,0.2,0.6,0.4,0.8c0.8,1.1,1.8,1.2,3.2,0.9C200,97.9,199.2,97.4,198.3,96.9z M184.4,94.3
				c0.2,0.2,0.6,0.3,0.7,0.3c0.2-0.2,0.4-0.5,0.4-0.8c0-0.9-0.5-1.2-1.3-1.2c-0.4,0-0.8,0-1.4,0C183.4,93.3,183.9,93.8,184.4,94.3z
				 M66.1,94.7c-0.2-0.1-0.5,0.1-0.7,0.1c0,0.2,0,0.5,0.1,0.6c0.8,0.9,1.7,1.7,3.3,1C67.8,95.8,67,95.2,66.1,94.7z M53.4,91
				c-0.3-0.4-1.5-0.6-1.9-0.3c-0.1,0.1-0.1,0.6,0.1,0.7c0.5,0.5,1,0.9,1.5,1.4C53.8,92.1,53.9,91.6,53.4,91z M52.3,95
				c-1.4,0-2.1,1.1-3.2,1.9C50.8,97.1,51.8,96.5,52.3,95z M191.2,89.3c0.1,0.1,0.3,0.3,0.5,0.5c0.5-0.5,1.1-0.9,1.4-1.5
				c0.3-0.5,0.3-1.3,0.4-1.9c-0.1,0-0.2-0.1-0.3-0.1C192.6,87.3,191.9,88.3,191.2,89.3z M59.7,87.8c1.5-0.9,1.9-1.6,1.8-3.3
				C60.6,85,59.4,87.2,59.7,87.8z M173.8,104.4c1.8,0,3.5-0.6,5.1-1.4C177.2,103.6,175.3,103.3,173.8,104.4z M192.5,103.4
				c-0.2-0.1-0.4-0.1-0.6-0.1c0,0.2-0.1,0.5,0,0.6c0.5,0.7,1,1.4,1.5,2.1C193.8,104.9,193.3,104.1,192.5,103.4z M186.2,85.6
				c0.3-1.2,0.2-1.5-2.2-4.1C184.7,82.8,185.5,84.2,186.2,85.6z M129.7,103.6c-1.9-0.7-2.8-0.5-3.5,0.9
				C127.4,104.2,128.5,103.9,129.7,103.6z M57.4,88.6c-0.6-0.6-1.2-1.2-1.8-1.9C55.2,88.8,55.4,88.8,57.4,88.6z M189.5,101.9
				c-2.2,0.1-2.5,0.4-2,2.2C188.2,103.4,188.8,102.7,189.5,101.9z M67.4,98.6c-0.5-1.2-1-1.2-3.4-1c0,0.1,0,0.2-0.1,0.3
				C65,98.1,66.2,98.4,67.4,98.6z M198.9,100.4c-0.3-0.9-1.6-1.1-3.1-0.6C196.7,100.6,197.8,100.3,198.9,100.4z M61.4,104
				c0.5-1.5,0-2.4-1.4-2.7C59.9,102.5,61.1,103,61.4,104z M195.2,87.7c-1.3,0.6-1.6,2-0.6,2.7C194.8,89.4,195,88.6,195.2,87.7z
				 M146.8,15.6c0,0.1-0.1,0.2-0.1,0.3c0.4,0.1,0.8,0.4,1.1,0.4c0.9-0.1,1.7-0.4,2.5-0.6c0,0,0-0.1,0-0.1
				C149.1,15.6,148,15.6,146.8,15.6z M63.9,96.6c0.2,0.2,0.9,0,1.4,0c0-0.1,0-0.2,0.1-0.2c-0.3-0.3-0.7-0.6-1-0.9
				C64,95.8,63.4,96.2,63.9,96.6z M193.4,103.1c0-0.7,0-1.4,0-2.2C192.3,102.5,192.3,102.5,193.4,103.1z M61.5,101.2
				c0-0.8,0-1.5,0-2.4c-0.3,0.5-0.6,0.9-0.9,1.4C60.8,100.5,61.1,100.8,61.5,101.2z M196.1,97.5c-0.2,0.4-0.3,0.7-0.5,1
				c0.5,0.1,1,0.2,1.5,0.3c0-0.1,0.1-0.2,0.1-0.3C196.9,98.2,196.6,97.9,196.1,97.5z M170.2,19.4c-0.6-0.6-1.2-0.5-2-0.4
				C168.7,19.8,169.3,19.9,170.2,19.4z M60.3,88.8c1.3,0,1.4-0.1,1-1.3C61,87.8,60.7,88.2,60.3,88.8z M125.8,102.3
				c0.2,0,0.5,0,0.6-0.1c0.6-0.4,0.2-0.8-0.1-1.2c-0.1,0-0.2,0-0.3,0C126,101.4,125.9,101.8,125.8,102.3z M134.9,95.9
				c0.3,0,0.5-0.4,0.7-0.6c-0.3-0.1-0.6-0.2-0.8-0.3c-0.2,0-0.4,0.2-0.6,0.3c0,0.1,0,0.2,0,0.3C134.4,95.7,134.7,95.9,134.9,95.9z
				 M58.2,96.7c-0.1,0.1-0.1,0.3-0.1,0.5c0.4,0,0.9-0.1,1.5-0.1C59.1,96.2,58.6,96.4,58.2,96.7z M130,111.3c-0.1,0-0.4,0.2-0.5,0.3
				c0.3,0.3,0.6,0.7,0.9,1.1C130.8,111.9,130.6,111.5,130,111.3z M57.7,90.8c0.1,0.1,0.2,0.4,0.3,0.4c0.5,0.1,0.9,0.1,1-0.5
				c0-0.1-0.1-0.2-0.1-0.3C58.5,90.5,58.1,90.6,57.7,90.8z M62,93.5c0-0.2-0.2-0.4-0.3-0.5c-0.1,0.2-0.4,0.4-0.4,0.6
				c0,0.3,0.3,0.6,0.4,0.9c0.1,0,0.2-0.1,0.3-0.1C62,94.1,62.1,93.8,62,93.5z M192.3,90.6c0,0.1,0,0.1,0.1,0.2c0.3,0,0.8,0,0.9-0.2
				c0.2-0.3,0.1-0.7,0.2-1.1c-0.1,0-0.2-0.1-0.2-0.1C192.9,89.8,192.6,90.2,192.3,90.6z M181,98.8c0,0.1,0,0.2,0,0.3
				c0.7-0.1,1.4-0.2,2.1-0.3c0-0.1,0-0.3-0.1-0.4C182.4,98.5,181.7,98.6,181,98.8z M63.2,85.6c-0.1,0-0.2-0.1-0.2-0.1
				c-0.3,0.5-0.6,1.1-0.9,1.6C63,86.9,63.1,86.3,63.2,85.6z M56,96c0.3,0.4,0.6,0.9,1.3,0.4C56.9,95.6,56.7,95.5,56,96z M61.5,95.6
				c0-0.1-0.1-0.2-0.1-0.2c-0.3,0.1-0.7,0-0.8,0.2c-0.2,0.2-0.1,0.6-0.1,0.9c0.1,0,0.1,0,0.2,0.1C61,96.2,61.2,95.9,61.5,95.6z
				 M55.5,95c0.3-0.4,0.7-0.6,0.7-0.8c0-0.2-0.3-0.5-0.4-0.8c-0.1,0-0.2,0.1-0.3,0.1C55.5,93.9,55.5,94.3,55.5,95z M52.2,96.8
				c1.1,0.3,1.2,0.2,1.1-1C52.8,96.2,52.5,96.4,52.2,96.8z M59.6,99.1c0,0,0.1,0.2,0.2,0.4c0.3-0.3,0.6-0.6,0.9-0.9
				c-0.1-0.1-0.2-0.2-0.3-0.3C60.1,98.6,59.9,98.8,59.6,99.1z M56.4,91.1c-0.3,0.5-0.6,0.9-0.8,1.2C56.5,92.5,56.7,92.4,56.4,91.1z
				 M181.9,90.7c0-0.1,0-0.2,0-0.2c-0.5,0-1,0-1.5-0.1c0,0.1,0,0.2,0,0.3C180.9,90.7,181.4,90.7,181.9,90.7z"/>
			<path class="st213" d="M184,81.4c0.7,1.4,1.4,2.7,2.2,4.1"/>
			<path class="st213" d="M57.4,88.6c-0.6-0.6-1.2-1.2-1.8-1.9"/>
			<path class="st213" d="M60.7,98.6c-0.1-0.1-0.2-0.2-0.3-0.3"/>
			<path class="st213" d="M56.4,91.1c-0.3,0.5-0.6,0.9-0.8,1.2"/>
		</g>
	</g>
</g>
</svg>
