<?xml version="1.0" encoding="utf-8"?>
<!-- Generator: Adobe Illustrator 19.1.0, SVG Export Plug-In . SVG Version: 6.00 Build 0)  -->
<svg version="1.0" xmlns="http://www.w3.org/2000/svg" xmlns:xlink="http://www.w3.org/1999/xlink" x="0px" y="0px"
	 viewBox="0 0 1366 818.2" style="enable-background:new 0 0 1366 818.2;" xml:space="preserve">
<style type="text/css">
	.st0{fill:#FFFFFF;stroke:#000000;stroke-miterlimit:10;}
	.st1{fill:url(#SVGID_1_);}
	.st2{fill:url(#SVGID_2_);}
	.st3{fill:url(#SVGID_3_);}
	.st4{fill:#161616;}
	.st5{fill:#A5A5A5;}
	.st6{fill:url(#SVGID_4_);}
	.st7{clip-path:url(#SVGID_6_);}
	.st8{clip-path:url(#SVGID_8_);fill:#FFFFFF;}
	.st9{clip-path:url(#SVGID_10_);fill:#B2B2B2;}
	.st10{clip-path:url(#SVGID_10_);fill:#B1B1B1;}
	.st11{clip-path:url(#SVGID_10_);fill:#B0B0B0;}
	.st12{clip-path:url(#SVGID_10_);fill:#AFAFAF;}
	.st13{clip-path:url(#SVGID_10_);fill:#AEAEAE;}
	.st14{clip-path:url(#SVGID_10_);fill:#ADADAD;}
	.st15{clip-path:url(#SVGID_10_);fill:#ACACAC;}
	.st16{clip-path:url(#SVGID_10_);fill:#ABABAB;}
	.st17{clip-path:url(#SVGID_10_);fill:#AAAAAA;}
	.st18{clip-path:url(#SVGID_10_);fill:#A9A9A9;}
	.st19{clip-path:url(#SVGID_10_);fill:#A8A8A8;}
	.st20{clip-path:url(#SVGID_10_);fill:#A7A7A7;}
	.st21{clip-path:url(#SVGID_10_);fill:#A6A6A6;}
	.st22{fill:#FFFFFF;}
	.st23{clip-path:url(#SVGID_12_);}
	.st24{clip-path:url(#SVGID_14_);fill:#00AEEF;}
	.st25{clip-path:url(#SVGID_14_);fill:#00AEEE;}
	.st26{clip-path:url(#SVGID_14_);fill:#00ADED;}
	.st27{clip-path:url(#SVGID_14_);fill:#00ADEB;}
	.st28{clip-path:url(#SVGID_14_);fill:#00ADEA;}
	.st29{clip-path:url(#SVGID_14_);fill:#00ADE9;}
	.st30{clip-path:url(#SVGID_14_);fill:#00ADE8;}
	.st31{clip-path:url(#SVGID_14_);fill:#00ADE7;}
	.st32{clip-path:url(#SVGID_14_);fill:#00ADE6;}
	.st33{clip-path:url(#SVGID_14_);fill:#00ADE5;}
	.st34{clip-path:url(#SVGID_14_);fill:#00ADE4;}
	.st35{clip-path:url(#SVGID_14_);fill:#00ADE3;}
	.st36{clip-path:url(#SVGID_14_);fill:#00ADE2;}
	.st37{clip-path:url(#SVGID_14_);fill:#00ADE1;}
	.st38{clip-path:url(#SVGID_14_);fill:#00ADE0;}
	.st39{clip-path:url(#SVGID_14_);fill:#00ADDF;}
	.st40{clip-path:url(#SVGID_14_);fill:#00ADDE;}
	.st41{clip-path:url(#SVGID_14_);fill:#00ACDD;}
	.st42{clip-path:url(#SVGID_14_);fill:#00ACDC;}
	.st43{clip-path:url(#SVGID_14_);fill:#00ACDB;}
	.st44{clip-path:url(#SVGID_14_);fill:#00ACDA;}
	.st45{clip-path:url(#SVGID_14_);fill:#00ACD9;}
	.st46{clip-path:url(#SVGID_14_);fill:#00ACD8;}
	.st47{clip-path:url(#SVGID_14_);fill:#00ACD7;}
	.st48{clip-path:url(#SVGID_14_);fill:#00ACD6;}
	.st49{clip-path:url(#SVGID_14_);fill:#00ACD5;}
	.st50{clip-path:url(#SVGID_14_);fill:#00ACD4;}
	.st51{clip-path:url(#SVGID_14_);fill:#00ACD3;}
	.st52{clip-path:url(#SVGID_14_);fill:#00ACD2;}
	.st53{clip-path:url(#SVGID_14_);fill:#00ACD1;}
	.st54{clip-path:url(#SVGID_14_);fill:#00ACD0;}
	.st55{clip-path:url(#SVGID_14_);fill:#00ACCF;}
	.st56{clip-path:url(#SVGID_14_);fill:#00ACCE;}
	.st57{clip-path:url(#SVGID_14_);fill:#00ACCD;}
	.st58{clip-path:url(#SVGID_14_);fill:#00ACCC;}
	.st59{clip-path:url(#SVGID_14_);fill:#00ACCB;}
	.st60{clip-path:url(#SVGID_14_);fill:#00ACCA;}
	.st61{clip-path:url(#SVGID_14_);fill:#00ACC9;}
	.st62{clip-path:url(#SVGID_14_);fill:#00ACC8;}
	.st63{clip-path:url(#SVGID_14_);fill:#00ACC7;}
	.st64{clip-path:url(#SVGID_14_);fill:#00ACC6;}
	.st65{clip-path:url(#SVGID_14_);fill:#00ACC5;}
	.st66{clip-path:url(#SVGID_14_);fill:#00ACC4;}
	.st67{clip-path:url(#SVGID_14_);fill:#00ACC3;}
	.st68{clip-path:url(#SVGID_14_);fill:#00ACC2;}
	.st69{clip-path:url(#SVGID_14_);fill:#00ACC1;}
	.st70{clip-path:url(#SVGID_14_);fill:#00ACC0;}
	.st71{clip-path:url(#SVGID_14_);fill:#00ACBF;}
	.st72{clip-path:url(#SVGID_14_);fill:#00ACBE;}
	.st73{clip-path:url(#SVGID_14_);fill:#00ACBD;}
	.st74{clip-path:url(#SVGID_14_);fill:#00ACBC;}
	.st75{clip-path:url(#SVGID_14_);fill:#00ACBB;}
	.st76{clip-path:url(#SVGID_14_);fill:#00ACBA;}
	.st77{clip-path:url(#SVGID_14_);fill:#00ACB9;}
	.st78{clip-path:url(#SVGID_14_);fill:#00ACB8;}
	.st79{clip-path:url(#SVGID_14_);fill:#00ACB7;}
	.st80{clip-path:url(#SVGID_14_);fill:#00ACB6;}
	.st81{clip-path:url(#SVGID_14_);fill:#00ACB5;}
	.st82{clip-path:url(#SVGID_14_);fill:#00ACB4;}
	.st83{clip-path:url(#SVGID_14_);fill:#00ACB3;}
	.st84{clip-path:url(#SVGID_14_);fill:#00ACB2;}
	.st85{clip-path:url(#SVGID_14_);fill:#00ACB1;}
	.st86{clip-path:url(#SVGID_14_);fill:#00ACB0;}
	.st87{clip-path:url(#SVGID_14_);fill:#00ACAF;}
	.st88{clip-path:url(#SVGID_14_);fill:#00ACAE;}
	.st89{clip-path:url(#SVGID_14_);fill:#00ACAD;}
	.st90{clip-path:url(#SVGID_14_);fill:#00ACAC;}
	.st91{clip-path:url(#SVGID_14_);fill:#00ACAB;}
	.st92{clip-path:url(#SVGID_14_);fill:#00ACAA;}
	.st93{clip-path:url(#SVGID_14_);fill:#00ACA9;}
	.st94{clip-path:url(#SVGID_14_);fill:#00ACA8;}
	.st95{clip-path:url(#SVGID_14_);fill:#00ACA7;}
	.st96{clip-path:url(#SVGID_14_);fill:#00ACA6;}
	.st97{clip-path:url(#SVGID_14_);fill:#00ACA5;}
	.st98{clip-path:url(#SVGID_14_);fill:#00ACA4;}
	.st99{clip-path:url(#SVGID_14_);fill:#00ACA3;}
	.st100{clip-path:url(#SVGID_14_);fill:#00ACA2;}
	.st101{clip-path:url(#SVGID_14_);fill:#00ACA1;}
	.st102{clip-path:url(#SVGID_14_);fill:#00ACA0;}
	.st103{clip-path:url(#SVGID_14_);fill:#00AC9F;}
	.st104{clip-path:url(#SVGID_14_);fill:#00AC9E;}
	.st105{clip-path:url(#SVGID_14_);fill:#00AC9D;}
	.st106{clip-path:url(#SVGID_14_);fill:#00AC9C;}
	.st107{clip-path:url(#SVGID_14_);fill:#00AC9B;}
	.st108{clip-path:url(#SVGID_14_);fill:#00AC9A;}
	.st109{clip-path:url(#SVGID_14_);fill:#00AC99;}
	.st110{clip-path:url(#SVGID_14_);fill:#00AC98;}
	.st111{clip-path:url(#SVGID_14_);fill:#00AC97;}
	.st112{clip-path:url(#SVGID_14_);fill:#00AC96;}
	.st113{clip-path:url(#SVGID_14_);fill:#00AC95;}
	.st114{clip-path:url(#SVGID_14_);fill:#00AC94;}
	.st115{clip-path:url(#SVGID_14_);fill:#00AC93;}
	.st116{clip-path:url(#SVGID_14_);fill:#00AC92;}
	.st117{clip-path:url(#SVGID_14_);fill:#00AC91;}
	.st118{clip-path:url(#SVGID_14_);fill:#00AC90;}
	.st119{clip-path:url(#SVGID_14_);fill:#00AC8F;}
	.st120{clip-path:url(#SVGID_14_);fill:#00AC8E;}
	.st121{clip-path:url(#SVGID_14_);fill:#02AC8E;}
	.st122{clip-path:url(#SVGID_14_);fill:#07AC8D;}
	.st123{clip-path:url(#SVGID_14_);fill:#0BAC8D;}
	.st124{clip-path:url(#SVGID_14_);fill:#0FAC8C;}
	.st125{clip-path:url(#SVGID_14_);fill:#12AC8B;}
	.st126{clip-path:url(#SVGID_14_);fill:#15AC8B;}
	.st127{clip-path:url(#SVGID_14_);fill:#18AC8A;}
	.st128{clip-path:url(#SVGID_14_);fill:#1AAC89;}
	.st129{clip-path:url(#SVGID_14_);fill:#1CAC89;}
	.st130{clip-path:url(#SVGID_14_);fill:#1EAC88;}
	.st131{clip-path:url(#SVGID_14_);fill:#20AC88;}
	.st132{clip-path:url(#SVGID_14_);fill:#22AC87;}
	.st133{clip-path:url(#SVGID_14_);fill:#24AC86;}
	.st134{clip-path:url(#SVGID_14_);fill:#25AC86;}
	.st135{clip-path:url(#SVGID_14_);fill:#27AC85;}
	.st136{clip-path:url(#SVGID_14_);fill:#29AC84;}
	.st137{clip-path:url(#SVGID_14_);fill:#2AAC84;}
	.st138{clip-path:url(#SVGID_14_);fill:#2CAC83;}
	.st139{clip-path:url(#SVGID_14_);fill:#2DAC82;}
	.st140{clip-path:url(#SVGID_14_);fill:#2EAC82;}
	.st141{clip-path:url(#SVGID_14_);fill:#30AC81;}
	.st142{clip-path:url(#SVGID_14_);fill:#31AC81;}
	.st143{clip-path:url(#SVGID_14_);fill:#32AC80;}
	.st144{clip-path:url(#SVGID_14_);fill:#33AC7F;}
	.st145{clip-path:url(#SVGID_14_);fill:#35AC7F;}
	.st146{clip-path:url(#SVGID_14_);fill:#36AC7E;}
	.st147{clip-path:url(#SVGID_14_);fill:#37AC7D;}
	.st148{clip-path:url(#SVGID_14_);fill:#38AC7D;}
	.st149{clip-path:url(#SVGID_14_);fill:#39AC7C;}
	.st150{clip-path:url(#SVGID_14_);fill:#3AAC7B;}
	.st151{clip-path:url(#SVGID_14_);fill:#3BAC7B;}
	.st152{clip-path:url(#SVGID_14_);fill:#3CAC7A;}
	.st153{clip-path:url(#SVGID_14_);fill:#3DAC79;}
	.st154{clip-path:url(#SVGID_14_);fill:#3EAD78;}
	.st155{clip-path:url(#SVGID_14_);fill:#3FAD78;}
	.st156{clip-path:url(#SVGID_14_);fill:#40AD77;}
	.st157{clip-path:url(#SVGID_14_);fill:#41AD76;}
	.st158{clip-path:url(#SVGID_14_);fill:#42AD76;}
	.st159{clip-path:url(#SVGID_14_);fill:#43AD75;}
	.st160{clip-path:url(#SVGID_14_);fill:#44AD74;}
	.st161{clip-path:url(#SVGID_14_);fill:#45AD73;}
	.st162{clip-path:url(#SVGID_14_);fill:#46AD73;}
	.st163{clip-path:url(#SVGID_14_);fill:#46AD72;}
	.st164{clip-path:url(#SVGID_14_);fill:#47AD71;}
	.st165{clip-path:url(#SVGID_14_);fill:#48AD70;}
	.st166{clip-path:url(#SVGID_14_);fill:#49AD70;}
	.st167{clip-path:url(#SVGID_14_);fill:#4AAD6F;}
	.st168{clip-path:url(#SVGID_14_);fill:#4BAD6E;}
	.st169{clip-path:url(#SVGID_14_);fill:#4CAD6E;}
	.st170{clip-path:url(#SVGID_14_);fill:#4CAD6D;}
	.st171{clip-path:url(#SVGID_14_);fill:#4DAD6C;}
	.st172{clip-path:url(#SVGID_14_);fill:#4EAD6B;}
	.st173{clip-path:url(#SVGID_14_);fill:#4FAD6B;}
	.st174{clip-path:url(#SVGID_14_);fill:#4FAD6A;}
	.st175{clip-path:url(#SVGID_14_);fill:#50AD69;}
	.st176{clip-path:url(#SVGID_14_);fill:#51AD68;}
	.st177{clip-path:url(#SVGID_14_);fill:#52AD68;}
	.st178{clip-path:url(#SVGID_14_);fill:#52AD67;}
	.st179{clip-path:url(#SVGID_14_);fill:#53AD66;}
	.st180{clip-path:url(#SVGID_14_);fill:#54AD65;}
	.st181{clip-path:url(#SVGID_14_);fill:#55AD64;}
	.st182{clip-path:url(#SVGID_14_);fill:#56AD63;}
	.st183{clip-path:url(#SVGID_14_);fill:#56AD62;}
	.st184{clip-path:url(#SVGID_14_);fill:#57AD62;}
	.st185{clip-path:url(#SVGID_14_);fill:#58AD61;}
	.st186{clip-path:url(#SVGID_14_);fill:#58AD60;}
	.st187{clip-path:url(#SVGID_14_);fill:#59AD5F;}
	.st188{clip-path:url(#SVGID_14_);fill:#5AAD5F;}
	.st189{clip-path:url(#SVGID_14_);fill:#5AAD5E;}
	.st190{clip-path:url(#SVGID_14_);fill:#5BAD5D;}
	.st191{clip-path:url(#SVGID_14_);fill:#5BAD5C;}
	.st192{clip-path:url(#SVGID_14_);fill:#5CAD5C;}
	.st193{clip-path:url(#SVGID_14_);fill:#5DAD5B;}
	.st194{clip-path:url(#SVGID_14_);fill:#5DAD5A;}
	.st195{clip-path:url(#SVGID_14_);fill:#5EAD5A;}
	.st196{clip-path:url(#SVGID_14_);fill:#5FAD59;}
	.st197{clip-path:url(#SVGID_14_);fill:#5FAD58;}
	.st198{clip-path:url(#SVGID_14_);fill:#60AD57;}
	.st199{fill:#4C4C4D;}
	.st200{clip-path:url(#SVGID_16_);fill:#00ACCB;}
	.st201{clip-path:url(#SVGID_16_);fill:#FFFFFF;}
	.st202{clip-path:url(#SVGID_16_);fill:url(#SVGID_17_);}
	.st203{clip-path:url(#SVGID_16_);fill:url(#SVGID_18_);}
	.st204{clip-path:url(#SVGID_16_);fill:#0792A0;}
	.st205{clip-path:url(#SVGID_16_);}
	.st206{fill:#00ACCB;}
	.st207{opacity:8.000000e-02;fill:none;stroke:#BABABA;stroke-width:8;stroke-miterlimit:10;}
	.st208{clip-path:url(#SVGID_20_);fill:#00ACCB;}
	.st209{clip-path:url(#SVGID_20_);}
	.st210{opacity:0.3;clip-path:url(#SVGID_20_);}
	.st211{fill:none;stroke:#FDFDFE;stroke-width:8;stroke-miterlimit:10;}
	.st212{clip-path:url(#SVGID_22_);}
	.st213{fill:#60AD57;}
	.st214{clip-path:url(#SVGID_24_);fill:#00ACCB;}
	.st215{opacity:0.3;clip-path:url(#SVGID_24_);}
</style>
<g id="Layer_1">
	<rect class="st0" width="1366" height="768"/>
</g>
<g id="Layer_4">
</g>
<g id="images">
</g>
<g id="Layer_7">
</g>
<g id="Layer_6">
</g>
<g id="Layer_5">
</g>
<g id="FAQ">
</g>
<g id="Logo_-_first_page">
</g>
<g id="weird_interconnect_thing">
</g>
<g id="Layer_10">
</g>
<g id="Layer_11">
	<rect x="-21.9" y="-22.8" class="st22" width="1448.5" height="866.9"/>
	<g>
		<defs>
			<rect id="SVGID_15_" y="1.4" width="1366" height="817"/>
		</defs>
		<clipPath id="SVGID_1_">
			<use xlink:href="#SVGID_15_"  style="overflow:visible;"/>
		</clipPath>
		<path style="clip-path:url(#SVGID_1_);fill:#00ACCB;" d="M1135.4,693.4c93.6,0,187.3,0,280.9,0c1.2,0,2.4-0.6,3.6-0.9
			c-9.2-2.7-18.3-5.5-26.9-8c7.6-7.3,15.3-14.8,23.2-22.2c0.9-0.8,2.4-0.8,3.7-1.1c0-14.5,0-29.1,0-43.6c-0.8-0.7-1.6-1.4-2.8-2.4
			c-2.6,8.2-2,16.1-0.6,24c1.7,9.5-3.9,19.6-13.1,22.3c1.1-1.5,1.7-2.3,2.3-3.1c2.8-3.6,3.3-9.7,1.3-13.7c-2.3-4.4-6.5-4.3-8.6,0.2
			c-2.2,4.7-1.3,11.2,2.4,14.4c2.6,2.3,2.6,4.1,0,6.1c-2.9,2.2-5.8,4.3-9.3,6.9c0.7-5.5,1.4-10.2,1.9-14.9c0.2-2.2,0.5-4.6-0.1-6.6
			c-1.9-6.4,1.2-9.9,4.8-13.5c5.9-6,10.4-12.9,9.7-22.7c-0.1-2.1-0.7-4.2-1.3-7.5c-6.7,9.8-9.1,20.2-11.5,31.1
			c0.4-12.1-1.8-22.8-9.5-31.5c-2.3,4.3-1.5,8.5-0.1,12.3c1.4,3.9,3.3,7.6,5.6,10.8c2.6,3.7,3.1,7.1,1,11.8
			c-2.5-4.3-4.4-8.8-7.3-12.2c-2.9-3.5-6.7-5.9-10.2-8.7c-0.4,0.4-0.8,0.7-1.2,1.1c0.8,2.3,1.3,4.9,2.4,7c1.4,2.6,3.1,5.6,5.2,7
			c7.7,5,8.5,12.9,6.5,21.5c-1.6,6.9-3.6,14.2-7,19.9c-2.8,4.7-8,7.5-12.7,11.6c-0.4-2.9-0.7-5-0.9-6c1.6-0.9,3.2-1.3,3.4-2
			c0.9-4.2,2-8.6,1.8-12.8c-0.2-4.3-1.7-8.6-2.6-12.9c-0.4,0-0.8,0-1.2,0c-0.9,2.1-1.8,4.3-3.2,7.7c-0.5-6-1.1-10.8-1.2-15.6
			c0-1.2,1.3-2.6,2.1-3.8c2.9-4.4,5.8-8.8,8.7-13.2c-0.3-0.6-0.6-1.1-0.9-1.7c-3.6,1.4-7.2,2.8-11.5,4.4c0.6-8.2-4-16.2,0.8-24.3
			c-4.6-3.4-4.7-6.7-0.7-11.7c3.4-4.2,6.4-8.7,9.6-13.1c-0.2-0.6-0.4-1.2-0.6-1.8c-4.3,0.7-8.6,1.4-13.5,2.3
			c-1.6-25.6-5.6-51.2-6-77.9c6.2,2,6.6-2.2,7.4-6.4c1.9-10.3,2.1-10.4-6.7-12.5c-2.8-0.7-3.2-2.3-3.2-5.2c0.1-16-0.1-31.9,0.1-47.9
			c0.1-9.9-3.3-17.3-9.6-23.3c-11.7-11.2-25.6-15.9-40-19c-5.1-1.1-10.3-1.4-15.5-2.1c-4.3-0.6-4.7-1.8-2.5-6.2
			c0.5-1,0.2-3.7-0.6-4.5c-3.2-3-12.8-3.1-16.1-0.1c-0.8,0.7-1,3-0.8,4.5c0.1,1.5,1,2.9,1.5,4.4c-1.4,0.7-2.8,1.8-4.2,1.9
			c-11.6,0.9-23.2,2.9-34,8c-7.5,3.6-14.7,8.2-21.4,13.6c-6.5,5.2-9.5,13.2-9.3,22.9c0.2,15.8,0,31.6,0.1,47.4c0,3.8-1,5.5-4.1,5.9
			c-2.5,0.3-4.9,1-7.9,1.7c1.1,5.5,1.8,10.7,3.3,15.5c0.4,1.4,3.1,1.8,4.7,2.6c0.4-0.2,0.8-0.4,1.2-0.7c0.1,5.9,0.7,11.8,0.3,17.7
			c-1.9,29.4-4.1,58.9-6.3,88.3c-0.1,1.4-1.8,2.6-2,4.1c-0.4,3.3-0.6,6.8-0.4,10.2c0.1,2.4,0.8,4.7,1.3,7c-0.4,0.2-0.9,0.4-1.3,0.7
			c-1.2-2.1-2.5-4.2-3.5-6.4c-4.5-9.7-11.6-15-20.6-17c-1.6-0.3-3.3,0-6,0c5.2,9.9,10.9,17.4,18.5,22.6c8.2,5.6,12.1,14.9,10.6,26
			c-0.1,0.7-0.4,1.4-0.6,2.4c-2.9-6.4-7.1-9.5-11.6-8.1c-1.8,0.6-4.3,2.6-4.6,4.3c-0.3,2.1,1,5.2,2.4,6.7c3.5,3.7,7.3,3.4,12.9,0.1
			c2.2,7-0.2,12.4-9,19.6c-0.6-1.8-1.3-3.4-1.7-5.1c-1.9-6.9-4.3-13.5-9.9-17.2c-2.6-1.8-5.7-2.6-8.6-3.9c-0.4,0.6-0.8,1.2-1.2,1.9
			c3.4,5,6.7,10.2,10.3,14.9c2,2.6,4.9,4.4,7.1,6.9c1.3,1.5,2.8,3.9,2.6,5.6c-0.4,2.6-2,4.9-5.1,4.8c-2.6-0.1-4.3-0.6-5-3.9
			c-0.5-2.1-1.7-3.9-2.8-6.3c-0.7,1.2-1,1.5-1.1,1.9c-0.8,2.6-1.1,7.3-2.2,7.5c-4,1-8.2,0.6-12.3,0.3c-0.7,0-1.6-1.6-1.9-2.7
			c-1.1-4.8-2.4-9.7-3-14.6c-0.9-7,0.5-12.8,6.1-17c4.6-3.5,8-8.6,8.6-16.2c-9.4,4.3-15.2,11.8-18.6,23.6c-1.8-5.5-2-8.8,0.4-12.7
			c2.9-4.8,5.2-10.2,7.1-15.7c0.9-2.4,0.1-5.6-0.4-8.5c-4.9,5.1-7.8,11-9.1,17.5c-0.1,2.1-0.2,4.3-0.2,6.4
			c0.1,5.4,0.4,10.8,0.8,16.2c0.1,0.6,0.1,1.2,0.1,1.9C1135.1,677.9,1135.6,685.7,1135.4,693.4z M1204.4,672.4c-3.1,0.6-5.4,1-8,1.5
			C1197.4,667.9,1198.8,667.6,1204.4,672.4z M1345.9,599.6c-2.2,6.1-6,11.5-9.3,17.7c-0.8-4.9-0.4-9,2.3-12.6c3-3.9,5.8-8.1,5-13.8
			c-0.2-1.3-1.3-2.4-2-3.6c-0.4,0.1-0.8,0.2-1.2,0.4c1.1-5.6,2.1-11.1,3.2-16.7c0.3,0,0.6,0,0.9,0c0.5,5.3,1.1,10.5,1.4,15.8
			C1346.5,591.1,1347.3,595.9,1345.9,599.6z M1349.3,622.6c-0.7,3.7-3.4,7-5.2,10.4c-1.5-8.5,0.1-15.9,4-23.2
			C1348.6,614.6,1350,618.9,1349.3,622.6z M1352.2,651.4c-5.3-3-7.2-7.9-8.1-13.4c-0.2-1,1.2-2.3,1.8-3.5c2.1,2,5.7,2.2,5.5,6.9
			C1351.3,644.6,1351.9,647.7,1352.2,651.4z M1335.3,676.8c0.4-1.9,3.1-3,4.7-4.5c0.4,0.3,0.7,0.7,1.1,1c-1.2,5.2-0.9,10.2,3,13.3
			c1.6,1.3,4.8,2.1,6,1.1c1.5-1.3,2.6-5.1,2.1-7.2c-0.8-3.4-3.2-6.2-5-9.5c2.7-1.9,4.6-0.6,5.5,3.2c0.9,3.7,1.9,7.5,2.4,11.3
			c0.9,6.9-0.5,8.3-6.2,6.9c-0.9-0.2-1.7-0.9-2.4-1.4c-2.7-1.8-5.2-4.1-8-5.3C1334.6,683.9,1334.6,680.1,1335.3,676.8z M1334.4,653
			c4.3,3.1,8.3,5.9,12.2,8.7C1342.1,663.2,1334.4,657.5,1334.4,653z M1333.6,639.5c0.5-1.8,0-4,0-6c0.2-4.8,0.5-9.6,0.8-14.4
			c0.6,0,1.2,0,1.8,0.1v25C1333.9,644.2,1332.4,643.5,1333.6,639.5z M1328.9,544.5c4-3.6,8.1-6.9,12.9-10.8c0.5,7.3,2,14.1,1.1,20.4
			c-2.3,16-5.7,31.8-8.6,47.6l-0.8,0c-1.1-3.2-2.9-6.3-3.1-9.5c-1.1-14.5-1.8-29-2.5-43.5C1327.8,547.3,1328.1,545.3,1328.9,544.5z
			 M1314.6,663.5c2.8-2.7,6.3-4.2,10-6.5c0.3,3.3,0.7,6.8,0.7,10.2c0,1.2-0.8,3.1-1.7,3.6c-2,1.1-4.3,1.8-6.5,1.9
			c-1.1,0.1-3-1.4-3.2-2.4C1313.7,668.1,1313.5,664.6,1314.6,663.5z M1312.6,655.3c0.8-2.7,1.2-6.6,2-6.7c3-0.3,6.2,0.5,9.3,0.9
			c0,0.4-0.1,0.9-0.1,1.3C1320.4,652.2,1317.1,653.5,1312.6,655.3z M1312.3,633c4.4,0,8,1.3,8.4,7.4
			C1317.9,637.9,1315.1,635.5,1312.3,633z M1311.7,615.2c0.4-0.8,0.7-2,1.3-2.3c2.8-1.2,5.8-2.1,9.1-3.3c0.4,7.5,0.7,14.7,1.1,21.9
			c-0.6,0-1.2,0-1.8,0c0-1.6-0.1-3.3,0-4.9c0.8-7.6-1.8-11.2-7.8-10.6C1313,616.1,1312.3,615.5,1311.7,615.2z M1310.7,587.7
			c-2.5-9.3-1.6-20-2-30.1c0-1.3,0.7-3.2,1.6-3.7c2.4-1.4,5.1-2.2,8-3.4c0.3,2,0.6,3.2,0.7,4.4c0.8,13.1,1.5,26.2,2.3,39.2
			c0.5,8.4,0.5,8.4-6.2,11.5c-1.1,0.5-2.2,1-3.3,1.6C1308.8,600.6,1312.6,594.6,1310.7,587.7z M1299.6,557.2
			c0.6,14,1.3,27.4,1.9,40.9c-0.4,0.1-0.7,0.3-1.1,0.4c-5.1-7.9-9.9-15.9-15.3-23.5c-2.8-4-2.9-8.3-2.5-12.8
			c0.1-0.9,1.1-2.4,1.8-2.5C1289.3,558.7,1294.3,558,1299.6,557.2z M1302.7,631c0.4,3.1,0.4,9.1-0.3,9.2c-4.2,1.1-8.6,1.1-12.9,0.7
			c-0.7-0.1-1.1-3.8-1.7-5.9c-0.2-0.6-0.4-1.1-0.7-2c-1.4,0.9-2.6,1.7-4.2,2.7v-12.1c5.6,1.3,11,2.2,16.2,3.7
			C1300.5,627.9,1302.5,629.6,1302.7,631z M1285.1,648.3c6.3-1.6,11.8,2.3,17.7,3.5c0.6,4.2,1.1,8.5,1.7,12.7c0,0.2,0,0.3,0,0.5
			c0.1,13.6,1.8,11.2-9,11.4c-2,0-4.1-0.3-6.1-0.4c0-0.5,0-1.1,0-1.6c0.8-0.3,1.7-0.4,2.3-0.9c2.4-2,5.2-3.6,6.9-6.3
			c1.8-2.8,2.3-6.8-0.6-9.3c-2.8-2.4-5.6-0.7-7.9,1.8c-3.2,3.6-3.9,8-2.1,13c-0.4,0.1-0.7,0.3-1.1,0.4c-0.4-1.2-1.3-2.4-1.2-3.5
			c0.7-5.9-0.5-11.2-2.8-16.3C1281.9,650.9,1282.8,648.9,1285.1,648.3z M1282.5,600.4c0-6.7,0-13.4,0-20.1c0.4-0.1,0.8-0.3,1.2-0.4
			c0.8,2,1.8,3.9,2.5,5.9c2.4,6.3,4.7,12.6,7.1,18.9c2.6,6.7,5.2,13.4,7.8,20.2c-0.4,0.2-0.8,0.4-1.2,0.6
			c-5.5-4.4-10.9-8.7-16.3-13.3c-0.7-0.6-1-2.2-1.1-3.3C1282.4,606.1,1282.5,603.3,1282.5,600.4z M1264.4,566.5
			c-0.2,1.2-0.7,2.4-1.1,3.5c-6,17-12,34.1-18.1,51.1c-0.4,1.2-1,2.3-1.5,3.3c0-11.1-0.1-22.2,0-33.2c0.1-11.3,0.5-22.6,0.8-34.5
			c5.5,0.8,10.5,1.6,15.4,2.3C1264.7,559.8,1265.5,561.2,1264.4,566.5z M1245.1,633.2c1.7,8,1.6,8.4-2.4,7.2
			C1243.5,638,1244.3,635.6,1245.1,633.2z M1257.3,648c2.8,0.5,4.8,0.8,6.9,1.2c-1.1,1.8-2.2,3.7-3.4,5.5c-0.4,0.6-1,1-2.4,2.4
			C1258,653.7,1257.7,651.4,1257.3,648z M1256.4,638c-0.8-4.6-2.3-9-3.8-13.4c-0.5-1.5-1.7-2.6-2.9-4.4c4.5-12.8,9.3-26.2,14-39.6
			c0.8,12.7,0.8,25.2,0.7,37.7c0,1.9-0.9,3.7-0.9,5.6c0.1,4.4,0.7,8.7,0.9,13.1c0.1,2.3,0.2,4.6-2.7,4.5
			C1259.6,641.4,1257.2,642.3,1256.4,638z M1243.8,655.4c2.5-1.8,4.4-3.1,6.3-4.5c5.2,6.1,7.4,13,5.3,22.3
			C1248.8,669.4,1249,660.1,1243.8,655.4z M1241.3,687.8c0-4.8,1.9-5,4.9-4.9c4.1,0.2,5.5,1.5,5.5,6c0,4.7-3.1,3.2-4.3,3.4
			C1243.7,692.6,1241.3,693,1241.3,687.8z M1233.2,623.4c-0.6,0-1.3,0.1-1.9,0.1c-0.9-4.3-2.5-8.7-2.4-12.9c0.5-17,1.4-34,2.3-50.9
			c0.1-2.4,0.6-4.8,0.8-7.2c0.5-0.2,1-0.3,1.5-0.5c0.7,1.6,2,3.3,2,4.9c-0.3,20.3-0.8,40.6-1.4,60.9
			C1234,619.7,1233.5,621.6,1233.2,623.4z M1227.3,642.8c0.3-5.1,0.5-10,0.8-16.1C1230.5,631.8,1229.9,639.7,1227.3,642.8z
			 M1227.7,672.8c-0.4,0-0.9,1.1-1.5,1.9c-0.8-12.3,1-17.3,6.6-17c0,2.3,0,4.5,0,6.7C1232.9,668.8,1233.3,673.4,1227.7,672.8z
			 M1232.1,683.7c0.8,7.2-1.3,9.6-6.6,7.9C1224.5,683.2,1225.7,681.8,1232.1,683.7z M1220.7,589.4c-1-1.4-1.3-1.7-1.4-2.1
			c-4.5-12.8-9.2-25.5-13.1-38.6c-1.2-3.9-0.2-8.8-0.2-13.7c5.5,4.1,10.5,7.7,15.3,11.5c0.7,0.6,1.3,2.1,1.3,3.1
			C1222,562.6,1221.4,575.5,1220.7,589.4z M1217.5,646c-5.6-1.4-6.4-0.9-9.5,6.5c-0.3-0.4-0.5-0.7-0.8-1.1c-3,1.5-6.1,3-9.7,4.8
			c0.3-5.5,0.3-10.1,1-14.6c0.5-3.1,1.6-6.1,3.1-8.8c2.4-4.4,3.7-8.9,2.8-14.6c-1.6,1.2-2.8,2.1-4.6,3.4c1.5-21.3,3-41.8,4.5-62.3
			c1.4,1.1,1.9,2.3,2.4,3.5c3.3,9.5,6.3,19.1,10,28.4c3,7.4,4.2,15,2.9,22.9c-0.8,5.1-1.6,10-0.6,15.3c0.4,2-0.4,4.2-0.7,6.4
			c-4.5-1.3-8.7-2.5-13.7-4c2.5,6.8,6.6,8.6,11,10.3c1.1,0.4,1.9,1.8,2.9,2.8C1218,645.3,1217.7,645.7,1217.5,646z M1216.3,664.4
			c-2.8,5.2-4.8,5.2-12-0.8c0.8-3.1,2.1-4.9,5.1-3.2C1211.8,661.7,1214.1,663.1,1216.3,664.4z M1215.9,684.8
			c-4.3-0.9-8-1.7-12.7-2.7c3.1-1.4,5.3-2.6,7.5-3.3c1.6-0.5,3.4-0.4,5.1-0.5V684.8z M1194.9,685.9c1.4-0.9,2.6-2.4,4.1-2.7
			c3.3-0.7,8,3.8,9.9,8.9h-9.5c0.6-1.3,1-2.3,1.6-3.6c-2.2-0.5-3.9-0.9-5.7-1.2C1195.2,686.8,1195,686.4,1194.9,685.9z"/>
		<path style="clip-path:url(#SVGID_1_);fill:#FFFFFF;" d="M377.5,683.3c-0.1,3.8-2.2,7.5-7.7,7.8c-6.6,0.3-14-8.3-13.5-15.7
			c0.3-4.8,2.3-8.7,8.1-8.6C371.1,666.8,377.5,674.2,377.5,683.3z"/>
		
			<linearGradient id="SVGID_2_" gradientUnits="userSpaceOnUse" x1="2055.8354" y1="613.2383" x2="2057.645" y2="613.2383" gradientTransform="matrix(-1 0 0 1 3212.1833 0)">
			<stop  offset="0" style="stop-color:#689874"/>
			<stop  offset="0.4396" style="stop-color:#0082BC"/>
			<stop  offset="1" style="stop-color:#C2C4C6"/>
		</linearGradient>
		<path style="clip-path:url(#SVGID_1_);fill:url(#SVGID_2_);" d="M1156.3,598.1c-0.7,11.4-1.2,20.7-1.8,30.3"/>
		<path style="clip-path:url(#SVGID_1_);fill:#0792A0;" d="M1127,624.9c1.9,0.6,3.9,1.3,3.2-2.1c-0.1-0.5,0.3-1,0.5-1.5
			c-1.4-1-2.8-1.9-4.3-3c-0.5,0.7-1,1.3-1.5,2c-1.8-0.7-3.7-1.5-5.8-2.4c0.9-1,1.6-1.7,2.3-2.4c-0.9-2.4-0.9-2.4-9.8-8.1
			c0.8-0.6,1.7-1.1,2.3-1.8c0.9-1.1,2.5-2.4,2.4-3.4c-0.3-2.2,0.4-3.2,2.3-4c0.5-0.2,0.9-2.3,0.6-2.6c-1.3-1.1-2.9-1.8-4.4-2.8
			c-0.7-0.4-1.7-1-1.7-1.5c0.1-1.3,0.2-3.4,1-3.8c2.5-1.2,5.3-1.8,8-2.6c0.6-0.2,1.5-0.4,1.7-0.8c1.3-2.9,3-5.4,6.1-6.6
			c2.4-0.9,4.8-1.8,7.7-2.8c-2.2-2.1-4.1-0.4-6-0.1c-1.1-1.3-2.3-2.7-3.6-4.2c1.2-0.5,1.9-0.8,2.6-1c-0.3-0.7-0.5-1.3-0.9-2.3
			c1.4,0.4,2.4,0.6,3.2,0.8c0.4-0.8,0.6-1.6,1.1-2.1c1.6-1.3,3.3-2.3,4.8-3.6c0.5-0.4,1-1.2,0.9-1.9c-0.1-1.6-0.4-3.2-0.8-4.7
			c-0.9-3.2,1.3-4.8,3.3-6.2c2.3-1.6,5.1-2.4,7.6-3.7c0.9-0.5,1.5-1.4,2.5-2.4c-0.9-3.1,1.4-1.9,3.5-2.5c3.2-0.8,4.8-0.4,5.5,3
			c3.6-1.5,7-3,10.8-4.5c2-4.3,2.9-4.7,9.7-4.1c-0.3,2.1,0.7,2.5,2.6,2c1.7-0.5,3.5-0.9,5.5-1.4c0.3,1.6,0.3,3.3,1,4.4
			c1.6,2.4,2.3,5.5,5.6,6.5c2.6,0.7,4.6,3.3,4.2,5.9c-0.6,3.5,1.3,4.7,4.1,5.3c-0.5,3.1-1,6-1.5,8.9c-0.8,1.3-2.1,2.6-2.4,4.1
			c-0.1,0.5,2,1.7,3.1,2.4c1,0.6,2.3,0.9,3.3,1.6c0.5,0.4,1.1,1.6,0.9,2c-1.5,2.8,0,3.1,2.2,2.6c2.9-0.6,4.9,0.3,6,3.1
			c0.1,0.3,0.5,0.6,0.7,0.9c0.6-0.4,1.2-0.8,2.1-1.5c0.3,1.6,0.3,2.9,0.8,4c0.6,1.2,1.8,2.1,2.5,3.2c0.2,0.4,0.1,1.2-0.1,1.6
			c-0.6,1.2-1.3,2.3-2,3.4c0.9,1.4,1.8,2.5,3.4,0.7c1.1-1.2,2.1-0.8,2.4,0.5c0.7,3.2,3.7,5.2,4.1,8.6c0.2,1.5,1.2,2.6-1.2,3.2
			c-1.3,0.3-2.4,1.5-3.9,2.4c1,0.8,2,1.5,3.1,2.4c-1,5.7-5.4,8.7-9.6,11.8c-0.2,0.2-0.5,0.3-0.7,0.5c-0.2,0-0.4,0-0.6,0
			c-0.2-0.3-0.5-0.8-0.7-0.8c-3.3-0.1-4.3-2.8-5.7-4.9c-1.1-1.4-2.2-2.8-3.2-4.3c-1-1.5-1.7-3.2-3-5.8c-0.2,4.4-2.9,5.4-5.5,6.6
			c-0.2,0.2-0.4,0.4-0.6,0.6c0.2,0.2,0.4,0.4,0.6,0.6c2.9-0.3,5.7-0.5,7.7,2.4c0.4,0.5,2.3,0,3.4,0c-1.1,1-2.2,2.1-3.9,3.6
			c1.4-0.2,2.1-0.4,2.9-0.5c0,0.9,0,1.6,0,2.1c2.6,0.2,5,0.4,7.4,0.7c0.4,0,0.8,0,1.2,0c0.2,0,0.4,0,0.6,0c0.6,1.8-1.9,4,0.6,5.3
			c2.4,1.3,2.4,3.1,1.9,5.4c-0.1,0.7,0.5,2,1.1,2.2c2.4,0.8,1.6,2.3,1.4,4c-0.2,2,0.1,4,0.3,6c-0.2,0.9-1.1,2.1-2.4,2.5
			c-3.6,1-3.4,3.1-1.7,5.9c-2.3,0.8-4.4,1.5-6.4,2.2c-0.1-0.2-0.1-0.4-0.2-0.6c0.5-0.3,1-0.6,1.8-1.1c-1.4-0.5-2.4-0.9-3.7-1.4
			c1,3.3,0.5,3.5-2.4,3.3c-7-0.4-10.6-6-15.7-9.7c-3.4,4.7-7.8,5.6-13,3.5c0.2,0.3,0.5,0.6,0.9,1.1c-2.2,0.2-4.2,0.4-6,0.5
			c0,1.9,0,3.6,0,6.1c4.6-1,8.9-2,13.1-2.6c2.3-0.4,4.9-0.6,7.1,0c4.2,1.2,8.3,2.9,12.4,4.5c1.9,0.8,3.8,1.7,5.7,2.5
			c-0.1,0.2-0.2,0.4-0.3,0.7c-7.2-1.6-14.3-3.3-21.6-4.9c0.8,3.6,0.9,3.8,4.1,5.6c0.6,0.4,1.5,1,1.6,1.6c0.5,3,3.8,3.7,5,3.2
			c2.9-1.3,5.5-0.4,8.2-0.3c2.8,0.1,5.5,0.7,7.9,1.1c-0.7,5.2-4.5,4.7-7.7,5.1c-1.1,0.2-2.2,0.9-3.3,1.2c-0.8,0.2-1.7,0.5-2.5,0.4
			c-5-0.2-10-0.4-15.1-0.6c-3.3-0.2-6.6-0.6-9.9-0.6c-8.5-0.1-17,0.1-25.5,0.1c-1.9,0-3.9-0.4-5.8-0.7c-0.5-0.1-0.9-0.6-1.3-0.9
			c-2.6-2.3-4.3-2.1-6.3,0.9c-0.9-0.6-1.9-1.2-2.8-1.7c-0.5,0.4-1.1,0.9-1.9,1.5c-0.4-2.2-0.9-3.7-2.7-1.3c-0.2,0.3-0.6,0.6-1,0.6
			c-4.3,0-8.5,0-13.1,0c0.3-2,0.4-3.1,0.6-4.4c-2-0.3-3.9-0.5-6.4-0.9c1.1-1.4,1.8-2.2,2.4-3c-1.4-1-2.6-1.9-3.8-2.7
			c0.1-0.2,0.3-0.4,0.4-0.6c3.7,0.3,7.4,0.6,11.1,0.9c-1.5-1-3.1-1.2-4.3-1.9c-2.9-1.6-5.6-3.4-7.9-4.8c2.5,0,5.7,0,9,0
			c3,0,6.1-0.2,9.1-0.2c2.3,0.6,4.6,1.4,7,1.6c2.9,0.2,5.9-0.5,8.7-0.1c2.8,0.4,5.4,1.9,8.2,2.6c4.8,1.2,11.6-0.8,12.9-5.6
			c0.5-1.7,0.7-2.6-1.9-3.4c-2.6-0.8-4.2,0.3-6.2,0.7c-1,0.2-2.1,0.2-3.2,0c-2.1,1.5-5.9,2.1-7.6,0.2c-1.8-2-2.9-0.5-3.7,0.3
			c-3.3,3.2-6.7,4.9-11,1.7c-0.6-0.4-2,0.4-3,0.6c-0.4-0.1-0.8-0.2-1.2-0.2c-3.5,0.3-7.1,0.9-9.1-3.3c-0.2-0.4-1-0.6-1.3-0.8
			c0.6-2.6,1.1-5,1.7-7.7c-2.5,0.6-5,2.1-6.8,1.5c-1.9-0.6-3.2-3.3-4.5-4.8c0.8-1.7,1.4-3,2-4.3c1-0.4,2.1-0.8,4.1-1.6
			c-1.7-0.3-2.5-0.4-3.4-0.6c0.7-2.6,1.7-4.4,4.8-4c0.6,0.1,2-0.9,2-1.3c-0.2-3.8,3.2-3.9,5.2-5.5C1124,624,1125.5,624.4,1127,624.9
			z M1161.3,599.7C1161.3,599.7,1161.3,599.7,1161.3,599.7L1161.3,599.7z M1181.8,579.1c-1,0.9-2.3,1.6-2.8,2.7
			c-0.6,1.6-1.3,2.6-3.1,2.4c-2-0.2-2.6,0.8-2.5,2.6c5.3,1.2,6.8-0.2,8.9-7.7C1182.2,579.1,1182,579.1,1181.8,579.1z M1188.3,570.6
			c-2.1-1.6-3.6-1.3-5,0.9c-0.7,1.2-1.4,2.5-1.9,3.8c-0.1,0.3,0.2,1.1,0.4,1.2c0.5,0.2,1.4,0.4,1.8,0.2c2.6-1.3,5.1-2.5,8.1-2.1
			c0.6,0.1,1.3-1.1,2-1.8c-0.9-0.6-1.7-1.2-2.6-1.8c-0.2,0.3-0.3,0.6-0.5,0.9C1189.9,571.5,1189.1,571.1,1188.3,570.6z M1163.3,570
			c3.4-2.8,3.3-2.7,5.5,0.1c0.5,0.6,1.8,0.6,2.7,0.9c0.1-0.8,0.1-1.6,0.2-2.4c0.8-4.1-4.7-5.2-4.3-7.5
			C1168.2,563.5,1162.2,565.3,1163.3,570z M1159.2,570c0.4-3.4,0.4-6.6-3.9-9.2c0.4,3.2,0.7,5.6,1.1,8.5c0.9-0.5,1.6-0.9,2.2-1.3
			C1158.8,568.6,1159,569.3,1159.2,570z M1139.9,596c-2.7-3.3-4.2-3.2-10,0.1C1133.6,598.8,1136.3,594.7,1139.9,596z M1181.7,663.3
			c-0.1,0.5-0.3,1-0.4,1.5c1.6,0.4,3.3,0.8,4.9,1.2c1.6,0.5,3.1,1.3,4.7,1.6c1.2,0.2,2.5-0.1,3.7-0.2c0-0.3,0-0.6,0-0.9
			C1190.3,665.5,1186,664.4,1181.7,663.3z M1147.9,594.1c-3.4-3.9-5.1-5-7-4.7C1141.7,593.6,1144.6,595.5,1147.9,594.1z
			 M1165.4,591.7c0.3,0,0.6-0.1,1-0.1c-0.2-0.9-0.1-1.9-0.6-2.6c-0.5-0.8-1.6-2-2.1-1.8c-1.2,0.4-2.2,1.4-3.2,2.2
			c0.1,0.4,0.3,0.8,0.4,1.1c1.3-0.1,2.7-0.1,4.2-0.2C1165.1,590.5,1165.2,591.1,1165.4,591.7z M1176.3,613.6c2.9-0.6,5.5-1.1,8-1.6
			c-0.1-0.4-0.2-0.7-0.3-1.1C1182.2,610,1178.3,611.1,1176.3,613.6z M1208.1,604.1c-1.5-1.9-2.7-3.5-4.2-5.5
			C1202,601.7,1203.2,603.3,1208.1,604.1z M1138.1,591.4c3.1-1.1-1.1-2.8,0-4.2c-1,0.3-2,0.6-3.3,0.9
			C1134.7,590.3,1136.6,591.9,1138.1,591.4z M1161,563.1c2.8,0.7,3.2-1,1.5-7.7C1161.9,558.2,1161.4,560.6,1161,563.1z M1140.7,575
			c1.1-0.2,2-0.8,3-1.3c-0.1-0.3-0.2-0.5-0.3-0.8c-1.2,0-2.3,0-4.4,0C1139.8,574,1140.3,575.1,1140.7,575z M1197.1,615.9
			c-0.1-1-0.1-1.8-0.2-1.9c-1.4-0.4-2.8-0.6-4.2-0.9c-0.1,0.4-0.2,0.8-0.3,1.3C1193.8,614.9,1195.2,615.3,1197.1,615.9z
			 M1181.1,538.4c-0.1,0.9-0.2,1.5-0.2,2.3c1.8,0.2,3.5,0.5,5.2,0.7c0-0.2,0-0.3,0.1-0.5C1184.5,540.1,1182.9,539.3,1181.1,538.4z
			 M1174.8,561c-0.4,0-0.7,0-1.1,0.1c0,1.5,0,2.9,0,4.4c0.5,0,1,0,1.5-0.1C1175,563.9,1174.9,562.4,1174.8,561z M1124.2,660.1
			c2.1,2.5,2.2,2.5,4.9,0C1127.1,660.1,1125.7,660.1,1124.2,660.1z"/>
		<path style="clip-path:url(#SVGID_1_);fill:#00ACCB;" d="M1075.2,641.3c1.4,0.4,2.7,0.9,2.2-1.5c-0.1-0.3,0.2-0.7,0.3-1.1
			c-1-0.7-1.9-1.3-3-2.1c-0.3,0.5-0.7,0.9-1,1.4c-1.3-0.5-2.6-1.1-4.1-1.7c0.6-0.7,1.1-1.2,1.6-1.7c-0.6-1.7-0.6-1.7-6.9-5.7
			c0.6-0.5,1.2-0.8,1.6-1.3c0.7-0.7,1.7-1.7,1.7-2.4c-0.2-1.6,0.3-2.2,1.6-2.8c0.4-0.2,0.6-1.6,0.4-1.9c-0.9-0.8-2.1-1.3-3.1-1.9
			c-0.5-0.3-1.2-0.7-1.2-1c0-0.9,0.1-2.4,0.7-2.7c1.7-0.9,3.7-1.2,5.6-1.8c0.4-0.1,1-0.3,1.2-0.6c0.9-2,2.1-3.8,4.3-4.7
			c1.7-0.6,3.4-1.2,5.4-2c-1.5-1.5-2.9-0.3-4.2-0.1c-0.8-0.9-1.6-1.9-2.5-3c0.9-0.3,1.4-0.5,1.9-0.7c-0.2-0.5-0.4-0.9-0.7-1.6
			c1,0.2,1.7,0.4,2.3,0.6c0.3-0.6,0.4-1.1,0.8-1.4c1.1-0.9,2.3-1.6,3.4-2.5c0.4-0.3,0.7-0.9,0.6-1.3c-0.1-1.1-0.3-2.2-0.6-3.3
			c-0.7-2.2,0.9-3.4,2.3-4.3c1.6-1.1,3.6-1.7,5.3-2.6c0.6-0.3,1.1-1,1.8-1.7c-0.6-2.2,1-1.4,2.5-1.7c2.2-0.6,3.4-0.3,3.8,2.1
			c2.6-1.1,4.9-2.1,7.6-3.2c1.4-3,2.1-3.3,6.8-2.9c-0.2,1.5,0.5,1.8,1.8,1.4c1.2-0.4,2.4-0.6,3.9-1c0.2,1.1,0.2,2.3,0.7,3.1
			c1.1,1.7,1.6,3.9,3.9,4.6c1.8,0.5,3.3,2.3,2.9,4.2c-0.4,2.5,0.9,3.3,2.9,3.7c-0.4,2.2-0.7,4.2-1,6.2c-0.6,0.9-1.5,1.8-1.7,2.9
			c-0.1,0.4,1.4,1.2,2.2,1.7c0.7,0.4,1.6,0.7,2.3,1.2c0.4,0.3,0.8,1.1,0.6,1.4c-1,2,0,2.1,1.5,1.8c2-0.4,3.4,0.2,4.2,2.2
			c0.1,0.2,0.3,0.4,0.5,0.6c0.4-0.3,0.8-0.6,1.5-1c0.2,1.1,0.2,2.1,0.6,2.8c0.4,0.8,1.3,1.5,1.8,2.2c0.2,0.3,0.1,0.8-0.1,1.1
			c-0.4,0.8-0.9,1.6-1.4,2.4c0.6,0.9,1.2,1.7,2.4,0.5c0.7-0.8,1.5-0.6,1.7,0.4c0.5,2.2,2.6,3.7,2.9,6.1c0.1,1.1,0.8,1.8-0.8,2.3
			c-0.9,0.2-1.7,1-2.7,1.7c0.7,0.6,1.4,1.1,2.2,1.7c-0.7,4-3.8,6.1-6.8,8.3c-0.2,0.1-0.3,0.2-0.5,0.3c-0.2,0-0.3,0-0.5,0
			c-0.2-0.2-0.3-0.6-0.5-0.6c-2.3-0.1-3-1.9-4-3.5c-0.7-1-1.6-2-2.2-3c-0.7-1.1-1.2-2.2-2.1-4.1c-0.1,3.1-2,3.8-3.9,4.6
			c-0.1,0.1-0.3,0.3-0.4,0.4c0.1,0.1,0.3,0.3,0.4,0.4c2-0.2,4-0.3,5.4,1.7c0.3,0.4,1.6,0,2.4,0c-0.8,0.7-1.6,1.5-2.7,2.5
			c1-0.2,1.4-0.2,2-0.4c0,0.6,0,1.1,0,1.5c1.8,0.2,3.5,0.3,5.2,0.5c0.3,0,0.6,0,0.8,0c0.1,0,0.3,0,0.4,0c0.4,1.2-1.3,2.8,0.4,3.8
			c1.7,0.9,1.7,2.2,1.4,3.8c-0.1,0.5,0.3,1.4,0.7,1.5c1.7,0.6,1.1,1.6,1,2.8c-0.2,1.4,0.1,2.8,0.2,4.2c-0.1,0.7-0.8,1.5-1.7,1.7
			c-2.5,0.7-2.4,2.2-1.2,4.2c-1.6,0.6-3.1,1.1-4.5,1.5c-0.1-0.1-0.1-0.3-0.2-0.4c0.4-0.2,0.7-0.4,1.2-0.8c-1-0.4-1.7-0.6-2.6-1
			c0.7,2.3,0.3,2.4-1.7,2.3c-4.9-0.3-7.5-4.2-11-6.8c-2.4,3.3-5.5,3.9-9.1,2.5c0.2,0.2,0.3,0.4,0.6,0.8c-1.5,0.1-2.9,0.3-4.2,0.4
			c0,1.3,0,2.5,0,4.3c3.3-0.7,6.2-1.4,9.2-1.9c1.6-0.3,3.5-0.4,5,0c3,0.8,5.8,2.1,8.7,3.2c1.4,0.5,2.7,1.2,4,1.8
			c-0.1,0.2-0.1,0.3-0.2,0.5c-5-1.2-10.1-2.3-15.2-3.5c0.5,2.6,0.7,2.7,2.9,3.9c0.5,0.3,1.1,0.7,1.1,1.1c0.4,2.1,2.7,2.6,3.5,2.2
			c2-0.9,3.9-0.3,5.7-0.2c1.9,0,3.9,0.5,5.5,0.7c-0.5,3.6-3.1,3.3-5.4,3.6c-0.8,0.1-1.5,0.6-2.3,0.8c-0.6,0.2-1.2,0.3-1.8,0.3
			c-3.5-0.1-7.1-0.3-10.6-0.4c-2.3-0.1-4.6-0.4-6.9-0.4c-6,0-11.9,0.1-17.9,0.1c-1.4,0-2.7-0.3-4.1-0.5c-0.3-0.1-0.6-0.4-0.9-0.7
			c-1.9-1.6-3.1-1.5-4.4,0.6c-0.7-0.4-1.3-0.8-1.9-1.2c-0.4,0.3-0.8,0.6-1.3,1.1c-0.3-1.6-0.6-2.6-1.9-0.9c-0.2,0.2-0.4,0.4-0.7,0.4
			c-3,0-6,0-9.2,0c0.2-1.4,0.3-2.2,0.4-3.1c-1.4-0.2-2.8-0.4-4.5-0.6c0.8-1,1.3-1.6,1.7-2.1c-1-0.7-1.8-1.3-2.6-1.9
			c0.1-0.1,0.2-0.3,0.3-0.4c2.6,0.2,5.2,0.4,7.8,0.6c-1-0.7-2.1-0.8-3.1-1.3c-2-1.1-3.9-2.4-5.6-3.4c1.8,0,4,0,6.3,0
			c2.1,0,4.3-0.1,6.4-0.2c1.6,0.4,3.3,1,4.9,1.1c2,0.2,4.1-0.3,6.1,0c2,0.3,3.8,1.4,5.8,1.9c3.4,0.9,8.2-0.5,9.1-3.9
			c0.3-1.2,0.5-1.8-1.3-2.4c-1.8-0.5-2.9,0.2-4.4,0.5c-0.7,0.2-1.5,0.2-2.3,0c-1.4,1-4.1,1.5-5.4,0.1c-1.3-1.4-2-0.3-2.6,0.2
			c-2.3,2.3-4.7,3.4-7.7,1.2c-0.4-0.3-1.4,0.2-2.1,0.4c-0.3,0-0.5-0.2-0.8-0.1c-2.5,0.2-5,0.6-6.4-2.3c-0.1-0.3-0.7-0.4-0.9-0.5
			c0.4-1.8,0.8-3.5,1.2-5.4c-1.8,0.5-3.5,1.5-4.8,1.1c-1.4-0.5-2.3-2.3-3.2-3.3c0.5-1.2,1-2.1,1.4-3c0.7-0.3,1.5-0.6,2.9-1.1
			c-1.2-0.2-1.8-0.3-2.4-0.4c0.5-1.8,1.2-3.1,3.4-2.8c0.4,0.1,1.4-0.6,1.4-0.9c-0.2-2.6,2.3-2.8,3.6-3.9
			C1073.1,640.7,1074.2,641,1075.2,641.3z M1099.3,623.6C1099.3,623.6,1099.3,623.6,1099.3,623.6L1099.3,623.6z M1113.7,609.1
			c-0.7,0.6-1.6,1.1-1.9,1.9c-0.4,1.1-0.9,1.8-2.2,1.7c-1.4-0.2-1.8,0.5-1.7,1.8c3.7,0.8,4.8-0.1,6.2-5.4
			C1114,609.1,1113.9,609.1,1113.7,609.1z M1118.3,603.2c-1.5-1.1-2.6-0.9-3.5,0.6c-0.5,0.9-1,1.8-1.4,2.7c-0.1,0.2,0.1,0.8,0.3,0.9
			c0.4,0.2,1,0.3,1.3,0.1c1.8-0.9,3.6-1.8,5.7-1.5c0.4,0.1,0.9-0.8,1.4-1.2c-0.6-0.4-1.2-0.8-1.8-1.2c-0.1,0.2-0.2,0.4-0.3,0.6
			C1119.4,603.8,1118.8,603.5,1118.3,603.2z M1100.7,602.8c2.4-2,2.3-1.9,3.8,0.1c0.3,0.4,1.3,0.5,1.9,0.7c0.1-0.6,0.1-1.1,0.2-1.7
			c0.6-2.9-3.3-3.7-3-5.3C1104.1,598.2,1099.9,599.4,1100.7,602.8z M1097.8,602.7c0.3-2.4,0.3-4.7-2.8-6.5c0.3,2.2,0.5,3.9,0.8,6
			c0.6-0.4,1.1-0.6,1.6-0.9C1097.6,601.8,1097.7,602.3,1097.8,602.7z M1084.3,621c-1.9-2.3-3-2.3-7.1,0.1
			C1079.9,623,1081.7,620.1,1084.3,621z M1113.6,668.3c-0.1,0.4-0.2,0.7-0.3,1.1c1.2,0.3,2.3,0.5,3.5,0.9c1.1,0.3,2.2,0.9,3.3,1.1
			c0.8,0.2,1.7-0.1,2.6-0.1c0-0.2,0-0.4,0-0.7C1119.7,669.8,1116.7,669.1,1113.6,668.3z M1089.9,619.7c-2.4-2.7-3.6-3.5-4.9-3.3
			C1085.6,619.3,1087.6,620.6,1089.9,619.7z M1102.2,618c0.2,0,0.5-0.1,0.7-0.1c-0.1-0.6-0.1-1.3-0.4-1.9c-0.3-0.6-1.1-1.4-1.5-1.3
			c-0.8,0.3-1.5,1-2.3,1.5c0.1,0.3,0.2,0.5,0.3,0.8c0.9,0,1.9-0.1,2.9-0.1C1101.9,617.1,1102.1,617.5,1102.2,618z M1109.9,633.4
			c2.1-0.4,3.8-0.8,5.6-1.1c-0.1-0.3-0.1-0.5-0.2-0.8C1114,630.8,1111.3,631.6,1109.9,633.4z M1132.2,626.7c-1-1.3-1.9-2.5-3-3.8
			C1127.9,625,1128.8,626.1,1132.2,626.7z M1083,617.8c2.2-0.8-0.8-2,0-2.9c-0.7,0.2-1.4,0.4-2.3,0.7
			C1080.6,617,1081.9,618.2,1083,617.8z M1099.1,597.9c2,0.5,2.3-0.7,1-5.4C1099.7,594.4,1099.4,596.2,1099.1,597.9z M1084.8,606.3
			c0.7-0.1,1.4-0.6,2.1-0.9c-0.1-0.2-0.1-0.4-0.2-0.6c-0.8,0-1.6,0-3.1,0C1084.2,605.5,1084.6,606.3,1084.8,606.3z M1124.4,635
			c-0.1-0.7,0-1.3-0.2-1.3c-1-0.3-2-0.4-2.9-0.6c-0.1,0.3-0.1,0.6-0.2,0.9C1122.1,634.3,1123.1,634.6,1124.4,635z M1113.2,580.5
			c-0.1,0.6-0.1,1.1-0.2,1.6c1.3,0.2,2.5,0.3,3.7,0.5c0-0.1,0-0.2,0-0.3C1115.6,581.7,1114.5,581.2,1113.2,580.5z M1108.8,596.4
			c-0.3,0-0.5,0-0.8,0.1c0,1,0,2,0,3.1c0.4,0,0.7,0,1.1-0.1C1108.9,598.4,1108.9,597.4,1108.8,596.4z M1073.2,666
			c1.5,1.8,1.5,1.8,3.4,0C1075.3,666,1074.3,666,1073.2,666z"/>
		<path style="clip-path:url(#SVGID_1_);fill:#0792A0;" d="M-6.3,784.4c4.5,0,10.3,0.1,16.1,0c5.4-0.1,10.8-0.3,16.3-0.4
			c4.2,1,8.3,2.5,12.6,2.8c5.2,0.4,10.5-0.9,15.6-0.1c5,0.8,9.7,3.5,14.7,4.7c8.6,2.2,20.8-1.4,23.1-10c0.8-3,1.2-4.6-3.4-6
			c-4.6-1.4-7.5,0.5-11.2,1.3c-1.8,0.4-3.7,0.4-5.8,0c-3.7,2.6-10.6,3.8-13.7,0.4c-3.3-3.7-5.2-0.9-6.7,0.6
			c-6,5.8-11.9,8.8-19.7,3.1c-1-0.7-3.6,0.6-5.5,1c-0.7-0.1-1.4-0.4-2.1-0.3c-6.3,0.6-12.7,1.6-16.3-5.8c-0.4-0.8-1.7-1.1-2.2-1.4
			c1-4.6,2-9,3.1-13.8c-4.5,1.2-9,3.8-12.2,2.7c-3.5-1.1-5.7-5.8-8.1-8.5c1.4-3,2.5-5.4,3.6-7.8c1.8-0.7,3.8-1.5,7.3-2.8
			c-3.1-0.5-4.6-0.7-6.1-1c1.3-4.6,3.1-8,8.6-7.1c1.1,0.2,3.6-1.6,3.6-2.4c-0.4-6.8,5.8-7,9.3-9.9c2.7,0.7,5.3,1.4,8,2.2
			c3.5,1.1,6.9,2.3,5.7-3.8c-0.2-0.8,0.6-1.9,0.9-2.7c-2.6-1.8-5-3.4-7.8-5.4c-0.9,1.2-1.8,2.4-2.6,3.6c-3.3-1.3-6.6-2.7-10.3-4.2
			c1.6-1.7,2.9-3.1,4-4.3c-1.5-4.3-1.5-4.3-17.6-14.5c1.5-1.2,3-2,4.1-3.2c1.7-1.9,4.4-4.3,4.2-6.1c-0.5-4,0.7-5.7,4.1-7.2
			c0.9-0.4,1.6-4.2,1-4.7c-2.3-2-5.3-3.3-7.9-5c-1.2-0.7-3.1-1.8-3.1-2.7c0.1-2.4,0.4-6.1,1.8-6.8c4.5-2.2,9.5-3.2,14.3-4.7
			c1.1-0.3,2.7-0.7,3.1-1.5c2.4-5.1,5.3-9.7,10.8-11.9c4.3-1.6,8.6-3.1,13.9-5.1c-3.9-3.8-7.4-0.7-10.7-0.1c-2-2.4-4.1-4.8-6.5-7.6
			c2.2-0.9,3.5-1.4,4.7-1.8c-0.5-1.2-0.9-2.3-1.7-4.1c2.6,0.6,4.3,1.1,5.8,1.4c0.8-1.4,1.1-2.9,2-3.7c2.8-2.3,5.9-4.2,8.7-6.4
			c0.9-0.7,1.7-2.2,1.7-3.3c-0.2-2.8-0.6-5.7-1.5-8.4c-1.7-5.7,2.3-8.7,5.8-11.1c4.1-2.8,9.1-4.3,13.6-6.7c1.6-0.8,2.7-2.5,4.5-4.3
			c-1.6-5.5,2.5-3.5,6.3-4.4c5.7-1.5,8.6-0.8,9.8,5.3c6.5-2.7,12.6-5.3,19.3-8.1c3.6-7.8,5.2-8.5,17.4-7.3c-0.6,3.8,1.2,4.6,4.6,3.6
			c3.1-0.9,6.2-1.6,9.8-2.5c0.6,2.9,0.5,5.8,1.8,7.8c2.8,4.3,4.2,9.9,10.1,11.6c4.6,1.3,8.3,5.9,7.4,10.7c-1.1,6.3,2.3,8.4,7.4,9.5
			c-0.9,5.5-1.8,10.7-2.6,15.9c-1.5,2.3-3.8,4.6-4.3,7.4c-0.2,1,3.5,3,5.6,4.3c1.9,1.1,4.1,1.7,5.8,3c0.9,0.7,2,2.8,1.6,3.6
			c-2.6,5,0,5.5,3.9,4.7c5.2-1.1,8.8,0.6,10.7,5.6c0.2,0.6,0.8,1.1,1.2,1.6c1.1-0.8,2.1-1.4,3.8-2.6c0.6,2.9,0.5,5.2,1.5,7.1
			c1.1,2.1,3.2,3.7,4.6,5.7c0.4,0.6,0.2,2.1-0.2,2.9c-1,2.1-2.4,4.1-3.6,6.1c1.6,2.4,3.1,4.4,6,1.3c1.9-2.1,3.7-1.4,4.3,1
			c1.3,5.7,6.7,9.3,7.4,15.5c0.3,2.7,2.1,4.7-2.1,5.8c-2.4,0.6-4.4,2.7-6.9,4.3c1.9,1.4,3.6,2.7,5.6,4.2
			c-1.7,10.3-9.6,15.6-17.2,21.1c-0.4,0.3-0.9,0.6-1.3,0.9c-0.4,0-0.8,0-1.2-0.1c-0.4-0.5-0.8-1.5-1.3-1.5c-5.9-0.2-7.6-5-10.2-8.9
			c-1.9-2.6-4-5.1-5.7-7.8c-1.7-2.7-3-5.7-5.4-10.4c-0.3,7.8-5.2,9.7-9.9,11.8c-0.4,0.4-0.7,0.7-1.1,1.1c0.4,0.3,0.7,0.7,1.1,1
			c5.2-0.5,10.1-0.9,13.8,4.3c0.7,1,4,0,6.2,0c-2,1.9-4,3.8-7,6.5c2.5-0.4,3.7-0.6,5.2-0.9c0,1.6,0,2.8,0,3.8
			c4.6,0.4,9,0.8,13.3,1.2c0.7,0,1.4,0,2.1,0c0.3,0,0.7,0,1,0c1,3.2-3.4,7.1,1,9.6c4.3,2.4,4.4,5.6,3.5,9.7c-0.3,1.2,0.9,3.6,1.9,4
			c4.3,1.4,2.9,4.1,2.5,7.1c-0.4,3.5,0.3,7.1,0.5,10.7c-0.3,1.7-2.1,3.8-4.2,4.4c-6.5,1.8-6.1,5.5-3.1,10.6
			c-4.1,1.4-7.8,2.7-11.5,3.9c-0.1-0.4-0.3-0.7-0.4-1.1c0.9-0.5,1.8-1.1,3.2-1.9c-2.4-0.9-4.3-1.6-6.6-2.5c1.8,5.9,0.9,6.2-4.4,5.9
			c-12.5-0.8-19.1-10.7-28.2-17.5c-6,8.3-13.9,10-23.3,6.3c0.4,0.6,0.9,1.1,1.5,1.9c-3.9,0.4-7.5,0.7-10.8,1c0,3.4,0,6.5,0,10.9
			c8.3-1.7,15.9-3.6,23.6-4.7c4.2-0.6,8.8-1.1,12.8,0c7.6,2.1,14.8,5.2,22.2,8.1c3.5,1.3,6.8,3,10.2,4.5c-0.2,0.4-0.3,0.8-0.5,1.2
			c-12.9-2.9-25.7-5.9-38.7-8.9c1.4,6.5,1.7,6.8,7.3,10c1.2,0.7,2.7,1.7,2.9,2.8c0.9,5.4,6.8,6.7,8.9,5.7c5.1-2.4,9.8-0.7,14.6-0.6
			c4.9,0.1,9.9,1.3,14.1,1.9c-1.2,9.3-8,8.3-13.9,9.2c-2,0.3-3.9,1.5-5.9,2.1c-1.5,0.4-3,0.8-4.5,0.8c-9-0.3-18-0.7-27-1.1
			c-5.9-0.3-11.8-1.1-17.7-1.1c-15.2-0.1-30.4,0.2-45.6,0.1c-3.4,0-6.9-0.7-10.3-1.2c-0.8-0.1-1.6-1.1-2.3-1.7
			c-4.7-4.1-7.8-3.8-11.3,1.7c-1.7-1.1-3.4-2.1-5-3.1c-0.9,0.7-2,1.6-3.3,2.8c-0.8-4-1.6-6.6-4.8-2.4c-0.4,0.5-1.1,1.1-1.7,1.1
			c-7.7,0.1-15.3,0-23.5,0c0.5-3.5,0.8-5.5,1.1-7.8c-3.6-0.5-7.1-0.9-11.4-1.5c2-2.4,3.2-4,4.4-5.4c-2.4-1.8-4.6-3.3-6.7-4.9
			c0.2-0.3,0.5-0.7,0.7-1 M83.9,680.7C83.9,680.7,83.9,680.8,83.9,680.7L83.9,680.7z M120.7,643.9c-1.7,1.6-4.2,2.9-4.9,4.9
			c-1.1,2.8-2.3,4.6-5.5,4.2c-3.6-0.4-4.7,1.4-4.4,4.6c9.4,2.1,12.2-0.4,15.9-13.7C121.4,643.9,121.1,643.9,120.7,643.9z
			 M132.4,628.7c-3.7-2.8-6.5-2.4-9,1.6c-1.3,2.2-2.5,4.5-3.5,6.8c-0.2,0.6,0.3,2,0.8,2.2c1,0.4,2.4,0.7,3.3,0.3
			c4.6-2.3,9.1-4.6,14.6-3.8c1,0.1,2.3-2.1,3.5-3.2c-1.6-1.1-3.1-2.1-4.7-3.2c-0.3,0.5-0.6,1-0.9,1.6
			C135.2,630.3,133.7,629.6,132.4,628.7z M87.5,627.7c6-5,5.9-4.9,9.8,0.2c0.9,1.1,3.2,1.2,4.9,1.7c0.1-1.4,0.2-2.9,0.4-4.3
			c1.4-7.3-8.5-9.3-7.6-13.5C96.3,616,85.6,619.1,87.5,627.7z M80.2,627.6c0.7-6.1,0.7-11.9-7-16.5c0.7,5.7,1.3,10.1,1.9,15.2
			c1.6-1,2.8-1.6,4-2.3C79.5,625.2,79.9,626.4,80.2,627.6z M45.6,674.3c-4.9-5.9-7.6-5.8-18,0.2C34.4,679.2,39.2,671.8,45.6,674.3z
			 M120.5,794.8c-0.2,0.9-0.5,1.8-0.7,2.7c2.9,0.7,5.9,1.4,8.8,2.2c2.9,0.9,5.6,2.3,8.5,2.8c2.1,0.4,4.5-0.2,6.7-0.3
			c0-0.6,0-1.1-0.1-1.7C136,798.7,128.2,796.7,120.5,794.8z M59.9,670.8c-6.2-6.9-9.2-8.9-12.6-8.4C48.9,669.8,54,673.2,59.9,670.8z
			 M91.3,666.4c0.6-0.1,1.2-0.1,1.7-0.2c-0.3-1.6-0.2-3.4-1-4.7c-0.9-1.4-2.9-3.5-3.8-3.2c-2.1,0.7-3.9,2.6-5.8,3.9
			c0.2,0.7,0.5,1.4,0.7,2.1c2.4-0.1,4.8-0.2,7.4-0.3C90.7,664.3,91,665.4,91.3,666.4z M110.9,705.7c5.3-1,9.8-1.9,14.3-2.8
			c-0.2-0.6-0.3-1.3-0.5-1.9C121.4,699.2,114.5,701.3,110.9,705.7z M167.9,688.6c-2.6-3.4-4.9-6.4-7.5-9.8
			C156.8,684.5,159.1,687.3,167.9,688.6z M42.3,665.9c5.5-1.9-2-5.1,0-7.5c-1.9,0.5-3.6,1-5.9,1.7C36.3,664,39.6,666.9,42.3,665.9z
			 M83.3,615.3c5,1.2,5.8-1.8,2.7-13.9C85.1,606.4,84.2,610.8,83.3,615.3z M47,636.7c1.9-0.4,3.6-1.5,5.4-2.4
			c-0.2-0.5-0.3-1-0.5-1.5c-2.1,0-4.2,0-7.9,0C45.4,634.7,46.4,636.8,47,636.7z M148.1,709.9c-0.2-1.7-0.1-3.3-0.4-3.4
			c-2.5-0.7-5-1.1-7.5-1.5c-0.2,0.8-0.3,1.5-0.5,2.3C142.2,708,144.8,708.9,148.1,709.9z M119.4,570.9c-0.2,1.7-0.3,2.8-0.4,4.2
			c3.2,0.4,6.3,0.8,9.3,1.2c0-0.3,0.1-0.6,0.1-0.9C125.5,574,122.7,572.6,119.4,570.9z M108.1,611.4c-0.7,0-1.3,0.1-2,0.1
			c0,2.6,0,5.2,0,7.8c0.9,0,1.8-0.1,2.7-0.1C108.6,616.6,108.3,614,108.1,611.4z"/>
		<path style="clip-path:url(#SVGID_1_);fill:#00ACCB;" d="M136.9,732.7c2.2,0.6,4.4,1.2,3.4-2.7c-0.1-0.5,0.3-1.2,0.4-1.8
			c-1.7-1.1-3.2-2-5.1-3.2c-0.5,0.8-1,1.6-1.5,2.5c-2.1-0.7-4.2-1.5-6.6-2.3c0.9-1.2,1.6-2.1,2.3-3c-1.2-2.7-1.2-2.7-11.6-8.8
			c0.9-0.8,1.8-1.4,2.4-2.3c0.9-1.3,2.6-3,2.3-4.2c-0.5-2.6,0.1-3.8,2.2-4.9c0.6-0.3,0.8-2.8,0.4-3.1c-1.5-1.2-3.4-1.9-5.2-2.9
			c-0.8-0.4-2-1.1-2-1.6c0-1.6,0-4,0.8-4.5c2.7-1.6,5.8-2.5,8.7-3.7c0.7-0.3,1.6-0.6,1.8-1.1c1.3-3.5,2.9-6.6,6.2-8.3
			c2.6-1.2,5.2-2.4,8.4-3.9c-2.6-2.3-4.6-0.1-6.7,0.4c-1.4-1.5-2.8-2.9-4.4-4.7c1.3-0.7,2.1-1,2.9-1.4c-0.4-0.8-0.7-1.5-1.2-2.6
			c1.6,0.3,2.7,0.5,3.7,0.7c0.4-1,0.5-2,1.1-2.5c1.6-1.6,3.5-3,5.1-4.6c0.5-0.5,1-1.5,0.9-2.2c-0.2-1.8-0.7-3.7-1.3-5.5
			c-1.3-3.6,1-5.8,3.1-7.5c2.5-2,5.5-3.2,8.2-5c1-0.6,1.6-1.8,2.6-3c-1.3-3.6,1.4-2.4,3.7-3.2c3.5-1.2,5.3-0.9,6.3,3
			c3.9-2.1,7.6-4,11.6-6.1c1.9-5.2,2.9-5.8,10.5-5.5c-0.2,2.5,1,2.9,3,2.1c1.9-0.7,3.8-1.3,6-2c0.5,1.9,0.6,3.8,1.5,5
			c1.9,2.7,3.1,6.3,6.8,7.2c2.9,0.7,5.4,3.5,5.1,6.7c-0.4,4.2,1.8,5.4,5,5.9c-0.3,3.7-0.6,7.1-0.9,10.5c-0.8,1.6-2.1,3.2-2.4,5
			c-0.1,0.7,2.3,1.8,3.7,2.6c1.2,0.7,2.6,0.9,3.8,1.7c0.6,0.4,1.4,1.8,1.1,2.3c-1.4,3.4,0.2,3.6,2.6,2.9c3.2-0.9,5.5,0,6.9,3.2
			c0.2,0.4,0.6,0.7,0.9,1c0.7-0.5,1.3-1,2.3-1.9c0.5,1.9,0.6,3.4,1.3,4.6c0.8,1.3,2.2,2.3,3.1,3.5c0.3,0.4,0.2,1.3,0,1.9
			c-0.6,1.4-1.3,2.8-2,4.2c1.1,1.5,2.2,2.8,3.8,0.6c1.1-1.4,2.3-1.1,2.7,0.4c1.1,3.7,4.6,5.8,5.3,9.8c0.3,1.8,1.5,3-1,3.9
			c-1.5,0.5-2.6,1.9-4.1,3.1c1.2,0.8,2.4,1.6,3.7,2.5c-0.6,6.8-5.3,10.6-9.8,14.6c-0.3,0.2-0.5,0.4-0.8,0.6c-0.2,0-0.5,0-0.7,0
			c-0.3-0.3-0.6-0.9-0.8-0.9c-3.7,0.2-5-2.9-6.8-5.4c-1.3-1.6-2.7-3.1-3.9-4.8c-1.2-1.7-2.1-3.6-3.9-6.5c0.2,5.2-2.8,6.6-5.6,8.2
			c-0.2,0.2-0.4,0.5-0.6,0.7c0.2,0.2,0.5,0.4,0.7,0.6c3.2-0.5,6.3-1,8.8,2.2c0.5,0.6,2.5-0.2,3.8-0.3c-1.2,1.3-2.3,2.6-4,4.6
			c1.5-0.4,2.3-0.6,3.2-0.8c0.1,1,0.1,1.9,0.2,2.5c2.9,0.1,5.6,0.1,8.4,0.2c0.4,0,0.9,0,1.3-0.1c0.2,0,0.4,0,0.6-0.1
			c0.8,2-1.8,4.8,1.1,6.2c2.8,1.4,3,3.4,2.6,6.2c-0.1,0.8,0.7,2.3,1.4,2.5c2.7,0.7,2,2.6,1.9,4.6c-0.1,2.3,0.5,4.7,0.8,7
			c-0.1,1.1-1.1,2.6-2.4,3.1c-4,1.4-3.5,3.9-1.4,7.1c-2.5,1.1-4.8,2.1-7,3.1c-0.1-0.2-0.2-0.4-0.3-0.7c0.5-0.4,1.1-0.8,1.9-1.4
			c-1.6-0.5-2.8-0.9-4.2-1.3c1.4,3.8,0.8,4-2.5,4c-7.8,0.1-12.4-6.2-18.3-10.2c-3.4,5.7-8.2,7.2-14.2,5.2c0.3,0.3,0.6,0.7,1.1,1.2
			c-2.4,0.4-4.6,0.8-6.7,1.1c0.2,2.2,0.3,4.2,0.5,7.1c5.1-1.5,9.7-3,14.5-4.1c2.6-0.6,5.4-1.1,8-0.6c4.8,1,9.5,2.8,14.2,4.3
			c2.2,0.7,4.4,1.7,6.5,2.5c-0.1,0.3-0.2,0.5-0.3,0.8c-8.1-1.4-16.3-2.7-24.5-4.1c1.2,4.2,1.4,4.4,5,6.3c0.7,0.4,1.8,1,1.9,1.7
			c0.8,3.5,4.5,4.1,5.8,3.4c3.1-1.8,6.1-0.9,9.1-1c3.1-0.1,6.2,0.4,8.9,0.6c-0.3,6.1-4.6,5.8-8.2,6.6c-1.2,0.3-2.4,1.2-3.6,1.7
			c-0.9,0.4-1.9,0.7-2.8,0.7c-5.6,0.2-11.3,0.3-16.9,0.4c-3.7,0.1-7.4-0.2-11.1,0.1c-9.5,0.6-18.9,1.4-28.4,2.1
			c-2.1,0.1-4.3-0.1-6.5-0.4c-0.5-0.1-1-0.6-1.5-1c-3.1-2.5-5-2.1-7,1.6c-1.1-0.6-2.2-1.2-3.2-1.8c-0.5,0.5-1.2,1.2-2,2
			c-0.7-2.6-1.3-4.3-3.1-1.3c-0.2,0.4-0.7,0.7-1,0.8c-4.8,0.4-9.5,0.7-14.7,1.1c0.1-2.3,0.2-3.7,0.3-5.2c-2.3-0.2-4.4-0.3-7.2-0.5
			c1.1-1.7,1.8-2.7,2.5-3.7c-1.6-1.1-3-2-4.4-2.9c0.1-0.2,0.3-0.5,0.4-0.7c4.1,0.1,8.3,0.1,12.4,0.2c-1.7-1.1-3.5-1.1-5-1.8
			c-3.3-1.6-6.5-3.5-9.2-5c2.8-0.2,6.4-0.4,10-0.7c3.4-0.3,6.7-0.7,10.1-1c2.7,0.5,5.3,1.3,8,1.3c3.2,0,6.5-1,9.7-0.7
			c3.2,0.3,6.2,1.9,9.4,2.5c5.4,1.1,12.9-1.8,14-7.5c0.4-2,0.5-3.1-2.4-3.8c-2.9-0.7-4.7,0.7-6.9,1.3c-1.1,0.3-2.3,0.4-3.6,0.2
			c-2.2,1.9-6.4,3-8.5,0.8c-2.2-2.2-3.3-0.3-4.1,0.7c-3.5,4.1-7,6.3-12.2,2.9c-0.7-0.4-2.2,0.6-3.4,0.9c-0.4,0-0.9-0.2-1.3-0.1
			c-3.9,0.7-7.9,1.6-10.4-3.1c-0.3-0.5-1.1-0.6-1.5-0.8c0.4-3.1,0.9-6,1.3-9.2c-2.7,1-5.4,2.9-7.5,2.3c-2.2-0.6-3.8-3.6-5.5-5.2
			c0.7-2,1.3-3.6,1.9-5.2c1.1-0.5,2.3-1.1,4.4-2.1c-1.9-0.2-2.9-0.3-3.9-0.4c0.6-3.1,1.5-5.3,5-5c0.7,0.1,2.2-1.2,2.1-1.7
			c-0.5-4.4,3.3-4.9,5.3-6.9C133.5,731.9,135.2,732.3,136.9,732.7z M173.1,700.4C173.1,700.4,173.1,700.4,173.1,700.4L173.1,700.4z
			 M194.4,674.7c-1,1.1-2.5,2.1-2.9,3.4c-0.6,1.9-1.2,3.1-3.2,3c-2.3-0.1-2.9,1.1-2.5,3.2c6,1,7.6-0.8,9.3-9.7
			C194.8,674.7,194.6,674.7,194.4,674.7z M201,664.2c-2.4-1.7-4.2-1.3-5.5,1.5c-0.7,1.5-1.3,3-1.9,4.6c-0.1,0.4,0.3,1.3,0.6,1.4
			c0.6,0.2,1.6,0.4,2.1,0.1c2.8-1.7,5.5-3.4,8.9-3.1c0.6,0,1.4-1.4,2.1-2.2c-1-0.6-2-1.2-3-1.9c-0.2,0.4-0.3,0.7-0.5,1.1
			C202.8,665.2,201.8,664.8,201,664.2z M172.9,665.5c3.5-3.5,3.4-3.4,6.1-0.3c0.6,0.7,2.1,0.6,3.1,0.9c0-1,0-1.9,0.1-2.8
			c0.6-4.8-5.7-5.7-5.4-8.5C177.9,657.5,171.4,660,172.9,665.5z M168.4,665.8c0.2-4-0.1-7.8-5.1-10.5c0.7,3.7,1.3,6.5,1.9,9.9
			c1-0.7,1.7-1.2,2.4-1.7C167.8,664.2,168.1,665,168.4,665.8z M148.9,697.8c-3.3-3.6-5-3.4-11.2,0.9
			C142.2,701.6,144.8,696.5,148.9,697.8z M201.1,773.5c-0.1,0.6-0.2,1.2-0.3,1.8c1.9,0.4,3.7,0.6,5.6,1.1c1.8,0.4,3.6,1.2,5.4,1.5
			c1.3,0.2,2.8-0.3,4.2-0.5c0-0.4-0.1-0.7-0.1-1.1C210.9,775.4,206,774.4,201.1,773.5z M157.7,695c-4.2-4.3-6.1-5.5-8.2-4.9
			C150.8,694.8,154.2,696.8,157.7,695z M177.1,690.7c0.4-0.1,0.7-0.1,1.1-0.2c-0.3-1-0.3-2.2-0.8-3.1c-0.6-0.9-2-2.2-2.5-1.9
			c-1.3,0.5-2.3,1.8-3.4,2.8c0.2,0.4,0.4,0.9,0.5,1.3c1.5-0.2,3-0.4,4.6-0.5C176.6,689.3,176.8,690,177.1,690.7z M191.1,715.6
			c3.2-0.9,6-1.7,8.8-2.5c-0.1-0.4-0.3-0.8-0.4-1.2C197.3,710.9,193.1,712.6,191.1,715.6z M225.8,701.9c-1.8-2.1-3.3-3.9-5.1-6.1
			C218.7,699.7,220.3,701.4,225.8,701.9z M146.5,692.5c3.4-1.5-1.5-3.2-0.3-4.9c-1.1,0.4-2.2,0.8-3.6,1.4
			C142.7,691.6,144.9,693.3,146.5,692.5z M169.8,657.6c3.2,0.6,3.5-1.5,1-9.2C170.4,651.7,170.1,654.6,169.8,657.6z M148.1,673.2
			c1.2-0.3,2.2-1.1,3.3-1.8c-0.1-0.3-0.3-0.6-0.4-0.9c-1.3,0.1-2.6,0.2-4.9,0.3C147,672,147.7,673.3,148.1,673.2z M214.4,716.7
			c-0.2-1.1-0.2-2.1-0.4-2.2c-1.6-0.3-3.2-0.5-4.7-0.7c-0.1,0.5-0.1,1-0.2,1.5C210.7,715.8,212.3,716.2,214.4,716.7z M190.2,627
			c0,1.1,0,1.8-0.1,2.7c2,0.1,3.9,0.3,5.9,0.4c0-0.2,0-0.4,0-0.6C194.2,628.8,192.4,628,190.2,627z M185,654
			c-0.4,0.1-0.8,0.1-1.2,0.2c0.1,1.7,0.2,3.4,0.4,5.1c0.6-0.1,1.1-0.1,1.7-0.2C185.5,657.4,185.3,655.7,185,654z M136.7,774.2
			c2.5,2.8,2.6,2.8,5.5-0.4C139.9,774,138.4,774.1,136.7,774.2z"/>
		<polygon style="clip-path:url(#SVGID_1_);fill:#00ACCB;" points="1366,1414 0,1562.7 0,798.8 1366,647.3 		"/>
		<g style="clip-path:url(#SVGID_1_);">
			<g>
				<path class="st206" d="M236.2,759.5c0,0-0.1,0-0.1,0.1c-0.1,0.1-0.1,0.1-0.2,0.2c0,0,0,0,0,0c0,0,0,0.1-0.1,0.1c0,0,0,0-0.1,0.1
					c-0.1,0-0.1,0.1-0.2,0.1c0,0,0,0,0,0s0,0,0,0c0,0-0.1,0.1-0.1,0.1c-1.7,1.7-3.2,3.6-4.1,5.9c0.9-4.5,1.5-9.1,3.6-13.2
					c-0.6,0.2-3.1,3.8-4.5,6.4c-1.2,2.3-2.2,4.8-2.8,7.4c-0.5-6.9-1.1-13.9,0.2-21c-3,6.4-4.7,13-4.7,20.1c-0.2-0.5-0.3-1-0.5-1.4
					c-0.8-2.1-1.8-4.1-3.5-5.7c-0.9-0.9-2.4-1.6-3.4-1.5c2.9,3,5.6,6,5.3,10.7c-1.3-0.9-2.5-1.6-3.9-1.8c-1.1-0.2-2.2-0.1-3.4,0.2
					c1.8,0.5,2.8,1.4,2.6,3.3c-0.7-0.2-1.3-0.4-1.9-0.5c-1.1-0.2-2.1-0.1-3.1,0.2c0,0.5,0,1,0,1.5c0.2,0,0.3,0,0.5-0.1
					c1.4-0.1,2.7,0,3.8,0.9c0.1,0.1,0.2,0.2,0.2,0.3c-1.6,0.2-3.1,0.4-4.6,0.6c0,4.5,0,8.9,0,13.4c2.9,0,5.8,0,8.7,0
					c4.6,0,9.1,0,13.7,0c0.1-0.1,0.2-0.3,0.3-0.4c0.2,0.1,0.4,0.3,0.6,0.4c0.2,0,0.4,0,0.6,0c18,0,36.1,0,54.1,0c4.5,0,9,0,13.5,0
					c0.1-0.1,0.2-0.3,0.3-0.4c0.2,0.1,0.4,0.3,0.6,0.4c0.2,0,0.5,0,0.7,0c18.9,0,37.8,0,56.7,0c0-3.6,0-7.2,0-10.8
					c-1.1,0-2.2,0-3.4,0c1-0.7,2.1-1.3,3.4-1.5c0-0.4,0-0.8,0-1.3c-1.7-0.3-3.4-0.1-5.1,0.5c1.2-1.4,3.5-2.6,5.1-2.7
					c0-0.2,0-0.3,0-0.5c-0.9,0-1.8-0.1-2.7-0.1c-1.9,0.1-3.7,0.8-5.5,1.6c-0.1,0-0.2,0.1-0.5,0.2c1.6-2.7,3.9-4.4,6.6-5.6
					c-4,0.5-7.4,2.4-10.5,4.9c-0.2-0.9,3.2-4.4,5.2-5.6c-0.9-0.2-3.2,0.7-4.8,1.6c-1.5,0.9-2.6,2.2-3.6,3.6c-0.1,0-0.1,0-0.2-0.1
					c0.2-1.1,0.4-2.3,0.8-3.4c0.4-1.2,0.9-2.4,1.3-3.6c0-0.1,0.1-0.2,0.1-0.3c-0.2-0.1-0.5-0.2-0.7-0.4c0,0,0,0,0,0
					c0,0-0.1,0.1-0.1,0.1c-2,2.2-3.7,4.6-4.9,7.4c-0.4-2,0.5-7.1,3.5-11.3c-1.8,1.4-3.3,3-4.8,4.7c-1.5,1.7-2.8,3.5-3.6,5.7
					c-0.5-2.1-0.5-11,1.9-14.7c-0.1,0-0.2,0.1-0.3,0.1c-1.9,2.4-3.5,5-4.6,7.8c-0.7,1.8-1.2,3.7-1.3,5.7c-0.3-0.9-0.4-1.9-0.8-2.9
					c-0.9-2.5-2.5-4.3-5.1-5.1c0,0-0.1,0.1-0.1,0.1c1.1,1.6,2,3.2,2.6,5c0.4,1.3,0.6,2.7,0.1,4.1c-1.1-3.9-3.2-6.8-7.1-8.1
					c0.3,0.4,0.6,0.8,0.9,1.2c1,1.5,1.9,3,2.2,4.8c0.1,0.8,0,1.6-0.3,2.5c-0.6-1.8-1.3-3.5-2.4-5c-1.1-1.5-2.3-2.9-4-3.8
					c0.3,0.8,0.7,1.7,0.9,2.5c0.5,1.7,0.9,3.4,1.3,5.1c0.2,1-0.1,2-0.7,2.9c-0.3,0.6-0.9,0.7-1.5,0.4c-0.4-0.3-0.9-0.6-1.2-1
					c-2.8-2.9-3.4-6.4-2.5-10.2c0-0.1,0-0.1,0-0.3c-0.6,0.6-1.1,1.1-1.5,1.6c-1.8,2.1-3,4.4-3.6,7c-0.1,0.5-0.4,0.9-0.7,1.4
					c0-2.8,0.6-5.5,2.1-8c-5,1.7-7.8,5.4-9.9,9.9c0.3-5.4-0.5-10.5-3.5-15.1c0,1.3,0,2.5,0,3.8c0,3,0,6-0.7,9
					c-0.2,0.9-0.5,1.7-1.1,2.5c-1-2.3-2.1-4.5-4.4-5.9c0.6,2.5,1.3,4.9,1,7.5c-1.3-1.8-2.5-3.5-3.7-5.3c-0.1,0-0.1,0-0.2,0.1
					c0.3,2.2,0.4,4.4-1,6.5c-1.2-2.3-0.6-4.6-0.3-7c-2.7,1.7-4.6,3.9-5.3,7c-0.1,0-0.1,0-0.2-0.1c0.1-0.7,0.1-1.3,0.2-2
					c0.1-0.7,0.2-1.4,0.4-2c0.2-0.7,0.4-1.3,0.7-1.9c0.3-0.6,0.7-1.2,1-1.8c0,0-0.1-0.1-0.1-0.1c-0.6,0.6-1.3,1.1-1.9,1.7
					c-0.8,0.9-1.4,1.8-2.1,2.8c-0.3,0.7-0.6,1.4-0.9,2.2c0,0-0.1,0-0.1,0c0.2-1.3,0.4-2.5,0.7-3.8c0.4-1.6,0.8-3.2,1.2-4.8
					c-0.3-0.2-0.6-0.3-0.9-0.5c-1.5,1.7-2.6,3.5-3.4,5.5c-0.4,0.9-0.7,1.9-1.1,2.9c0.2-3,0.1-5.8-2-8.4c0,0.5,0,0.8,0,1.1
					c0.1,1.9,0,3.8-0.5,5.6c-0.2,0.9-0.6,1.8-1.3,2.4c-0.3,0.3-0.7,0.5-1.1,0.8c0.5-2,0.3-3.7-0.6-5.5c-0.2,1.5-0.6,2.7-1.3,3.8
					c-0.8,1.1-1.8,1.9-3.3,2.1c-0.6-2.5-1.1-4.9,0-7.4c-0.2,0.1-0.6,0.2-0.7,0.4c-0.7,0.9-1.4,1.8-2,2.7c-0.8,1.4-1.4,2.9-2.1,4.3
					c0-0.8-0.1-1.6,0-2.4c0.2-1.7,0.6-3.3,1.3-4.9c0.4-0.8,0.9-1.7,1.3-2.5c0,0,0,0-0.1-0.1c-3.1,1.9-5.4,4.4-6.4,8
					c-0.5-0.7-0.4-4,0.1-6.9c0.4-2.3,1.2-4.5,2.2-6.6c-0.6,0.2-2.1,1.5-3.2,3c-0.9,1.2-1.7,2.4-2.3,3.8c-0.6,1.3-1,2.8-1.5,4.2
					c-0.3-1.7-0.7-3.4-2.1-4.7c0.5,2.5,1.2,5,0.8,7.6c0,0.2-0.1,0.4-0.2,0.7c-1-3.8-2.8-6.7-6.2-8.5c0.2,0.2,0.3,0.5,0.6,0.6
					c1,0.8,1.4,2,1.7,3.1c0.2,0.9,0.3,1.9,0.2,2.8c-0.1,1.1-1.1,2.1-2.2,2.4c-0.2,0-0.4,0-0.6-0.1c-2.7-1.4-4.4-4-3.1-7.5
					c0.4-1.1,1-2.1,1.5-3.1c-1.1,0.2-3.3,2.6-5.5,6.2c0.2-3.2,1.1-6,3.4-8.2c-0.2,0.1-0.5,0.1-0.7,0.2c-2.2,1.4-4.2,3.1-5.5,5.5
					c0,0-0.1,0.1-0.2,0.2c0-0.4,0-0.7,0.1-1c0.6-2.2,1.2-4.4,2.2-6.4c0.1-0.1,0.1-0.2,0.1-0.3C236.4,759.9,236.3,759.7,236.2,759.5z
					"/>
			</g>
		</g>
		<g style="clip-path:url(#SVGID_1_);">
			<g>
				<path class="st206" d="M995.3,672.2C995.3,672.2,995.2,672.2,995.3,672.2c-0.2,0.1-0.2,0.2-0.3,0.3c0,0,0,0,0,0c0,0,0,0.1,0,0.1
					c0,0,0,0,0,0.1c0,0.1-0.1,0.1-0.1,0.2c0,0,0,0,0,0s0,0,0,0c0,0-0.1,0.1-0.1,0.1c-1.5,2-2.7,4-3.3,6.4c0.3-4.6,0.3-9.2,1.8-13.6
					c-0.6,0.3-2.6,4.2-3.6,6.9c-0.9,2.5-1.5,5-1.8,7.7c-1.4-6.8-2.9-13.6-2.6-20.8c-2.1,6.8-2.9,13.5-2,20.5
					c-0.2-0.5-0.4-0.9-0.7-1.4c-1.1-2-2.3-3.8-4.2-5.2c-1-0.7-2.6-1.2-3.6-1.1c3.3,2.6,6.3,5.3,6.7,9.9c-1.4-0.8-2.7-1.2-4.1-1.3
					c-1.1,0-2.2,0.2-3.4,0.7c1.8,0.3,3,1.1,3.1,2.9c-0.7-0.1-1.3-0.2-2-0.2c-1.1-0.1-2.1,0.2-3.1,0.6c0.1,0.5,0.1,1,0.2,1.5
					c0.2,0,0.3-0.1,0.5-0.1c1.3-0.2,2.7-0.4,3.9,0.4c0.1,0.1,0.2,0.2,0.3,0.3c-1.5,0.4-3,0.8-4.5,1.2c0.6,4.4,1.2,8.8,1.8,13.2
					c2.9-0.4,5.7-0.8,8.6-1.2c4.5-0.6,9-1.2,13.6-1.8c0.1-0.2,0.1-0.3,0.2-0.5c0.2,0.1,0.5,0.2,0.7,0.3c0.2,0,0.4,0,0.6-0.1
					c17.9-2.4,35.8-4.8,53.6-7.2c4.5-0.6,8.9-1.2,13.4-1.8c0.1-0.2,0.1-0.3,0.2-0.5c0.2,0.1,0.5,0.2,0.7,0.3c0.2,0,0.5,0,0.7-0.1
					c18.7-2.5,37.5-5,56.2-7.5c-0.5-3.6-1-7.2-1.4-10.7c-1.1,0.1-2.2,0.3-3.3,0.4c0.9-0.9,1.9-1.5,3.1-1.9c-0.1-0.4-0.1-0.8-0.2-1.3
					c-1.7,0-3.3,0.4-5,1.2c1-1.6,3.1-3.1,4.7-3.4c0-0.2,0-0.3-0.1-0.5c-0.9,0.1-1.8,0.1-2.7,0.3c-1.9,0.4-3.6,1.3-5.2,2.3
					c-0.1,0.1-0.2,0.1-0.4,0.2c1.2-2.9,3.2-4.9,5.8-6.4c-3.9,1.1-7,3.3-9.7,6.2c-0.3-0.8,2.5-4.8,4.4-6.3c-0.9,0-3.1,1.1-4.5,2.3
					c-1.3,1.1-2.3,2.5-3.1,4c-0.1,0-0.1,0-0.2,0c0.1-1.2,0.1-2.3,0.3-3.5c0.2-1.3,0.6-2.5,0.9-3.7c0-0.1,0-0.2,0-0.3
					c-0.3-0.1-0.5-0.2-0.8-0.3c0,0,0,0,0,0c0,0-0.1,0.1-0.1,0.1c-1.6,2.5-3,5-3.8,7.9c-0.6-1.9-0.4-7.1,2-11.6
					c-1.6,1.6-2.9,3.4-4.1,5.3c-1.2,1.9-2.3,3.8-2.8,6.1c-0.8-2-2-10.9-0.1-14.9c-0.1,0-0.2,0.1-0.3,0.1c-1.5,2.6-2.8,5.4-3.5,8.4
					c-0.5,1.9-0.7,3.9-0.6,5.8c-0.4-0.9-0.7-1.9-1.2-2.7c-1.2-2.4-3.1-4-5.8-4.4c0,0-0.1,0.1-0.1,0.1c1.3,1.4,2.5,2.9,3.2,4.6
					c0.6,1.3,0.9,2.6,0.6,4.1c-1.6-3.7-4-6.3-8.1-7c0.3,0.4,0.7,0.7,1,1.1c1.2,1.3,2.3,2.7,2.8,4.5c0.3,0.8,0.3,1.6,0,2.5
					c-0.8-1.8-1.8-3.3-3-4.7c-1.3-1.4-2.7-2.5-4.5-3.3c0.4,0.8,0.9,1.6,1.3,2.4c0.7,1.6,1.4,3.2,1.9,4.9c0.3,1,0.1,2-0.3,2.9
					c-0.3,0.6-0.8,0.8-1.4,0.6c-0.5-0.2-0.9-0.5-1.3-0.8c-3.1-2.5-4.3-5.9-3.8-9.8c0-0.1,0-0.1,0-0.3c-0.5,0.7-0.9,1.2-1.3,1.8
					c-1.5,2.3-2.3,4.8-2.6,7.5c-0.1,0.5-0.2,1-0.5,1.4c-0.4-2.8-0.2-5.5,1-8.2c-4.7,2.4-7,6.4-8.5,11.2c-0.5-5.4-1.9-10.3-5.5-14.5
					c0.2,1.2,0.3,2.5,0.5,3.8c0.4,3,0.8,6,0.5,9c-0.1,0.9-0.3,1.8-0.8,2.6c-1.3-2.2-2.7-4.2-5.2-5.2c0.9,2.4,2,4.6,2,7.3
					c-1.5-1.6-2.9-3.2-4.3-4.7c-0.1,0-0.1,0.1-0.2,0.1c0.6,2.2,1,4.3-0.2,6.6c-1.5-2.2-1.2-4.5-1.2-6.9c-2.4,2.1-4,4.5-4.3,7.7
					c-0.1,0-0.1,0-0.2,0c0-0.7-0.1-1.3-0.1-2c0-0.7,0-1.4,0.1-2.1c0.1-0.7,0.3-1.4,0.5-2c0.2-0.6,0.5-1.3,0.8-1.9
					c0,0-0.1-0.1-0.1-0.1c-0.5,0.6-1.2,1.2-1.6,1.9c-0.6,1-1.1,2-1.7,3c-0.2,0.8-0.4,1.5-0.6,2.3c0,0-0.1,0-0.1,0
					c0.1-1.3,0.1-2.5,0.2-3.8c0.2-1.7,0.4-3.3,0.6-5c-0.3-0.1-0.6-0.2-0.9-0.3c-1.2,1.8-2.1,3.8-2.7,5.9c-0.3,1-0.4,2-0.7,3
					c-0.2-3-0.7-5.8-3.1-8c0.1,0.5,0.1,0.8,0.2,1.1c0.4,1.9,0.5,3.7,0.3,5.6c-0.1,0.9-0.4,1.8-0.9,2.6c-0.2,0.3-0.6,0.5-1,0.9
					c0.2-2-0.2-3.7-1.3-5.4c0,1.5-0.2,2.8-0.8,3.9c-0.6,1.2-1.6,2.1-3,2.5c-0.9-2.4-1.7-4.7-1-7.3c-0.2,0.2-0.5,0.3-0.6,0.5
					c-0.6,1-1.2,1.9-1.6,3c-0.6,1.5-1,3-1.5,4.5c-0.1-0.8-0.3-1.6-0.3-2.4c0-1.7,0.2-3.4,0.7-5c0.3-0.9,0.6-1.8,1-2.6
					c0,0,0,0-0.1-0.1c-2.8,2.3-4.7,5.1-5.3,8.8c-0.6-0.7-1-3.9-0.8-6.9c0.1-2.3,0.6-4.6,1.3-6.9c-0.6,0.3-1.9,1.7-2.8,3.4
					c-0.7,1.3-1.3,2.6-1.8,4c-0.4,1.4-0.6,2.9-0.9,4.4c-0.5-1.7-1.2-3.3-2.7-4.4c0.8,2.4,1.8,4.8,1.8,7.4c0,0.2,0,0.4-0.1,0.7
					c-1.5-3.6-3.7-6.2-7.3-7.6c0.2,0.2,0.4,0.4,0.6,0.6c1.1,0.7,1.6,1.8,2.1,2.9c0.3,0.9,0.5,1.8,0.6,2.7c0.1,1.1-0.8,2.3-1.8,2.6
					c-0.2,0.1-0.4,0-0.6,0c-2.9-1-4.9-3.4-4.1-7c0.3-1.1,0.7-2.2,1-3.2c-1,0.3-2.9,3-4.7,6.9c-0.3-3.2,0.3-6.1,2.3-8.6
					c-0.2,0.1-0.5,0.2-0.6,0.3c-2,1.7-3.8,3.6-4.7,6.2c0,0-0.1,0.1-0.2,0.2c0-0.4-0.1-0.7,0-1c0.3-2.2,0.6-4.5,1.4-6.6
					c0-0.1,0-0.2,0-0.3C995.6,672.6,995.4,672.4,995.3,672.2z"/>
			</g>
		</g>
		<g style="clip-path:url(#SVGID_1_);">
			<circle class="st207" cx="88" cy="73" r="24"/>
			<circle class="st207" cx="223" cy="86" r="57"/>
			<circle class="st207" cx="2" cy="189" r="57"/>
			<circle class="st207" cx="315.5" cy="2" r="9.8"/>
			<line class="st207" x1="38" y1="145" x2="74" y2="91"/>
			<line class="st207" x1="109" y1="80" x2="169" y2="85"/>
			<line class="st207" x1="270" y1="58" x2="309" y2="9"/>
			<circle class="st207" cx="-10" cy="-5.7" r="57"/>
			<circle class="st207" cx="140.6" cy="305.8" r="39.3"/>
			<line class="st207" x1="35.6" y1="25.2" x2="70.8" y2="55"/>
			<line class="st207" x1="41.8" y1="230.6" x2="111.7" y2="283.8"/>
			<line class="st207" x1="211.8" y1="144.1" x2="169" y2="278.5"/>
			<circle class="st207" cx="46.1" cy="500.3" r="24"/>
			<circle class="st207" cx="198" cy="464.4" r="24"/>
			<line class="st207" x1="151.5" y1="343.5" x2="194.3" y2="443.5"/>
			<line class="st207" x1="120.6" y1="342.6" x2="52.8" y2="481.2"/>
			<line class="st207" x1="176.1" y1="477" x2="68.6" y2="499"/>
			<line class="st207" x1="12.3" y1="242.4" x2="36.9" y2="479.9"/>
		</g>
	</g>
</g>
</svg>
